<?xml version="1.0" encoding="UTF-8" standalone="no"?><svg xmlns="http://www.w3.org/2000/svg" xmlns:xlink="http://www.w3.org/1999/xlink" contentScriptType="application/ecmascript" contentStyleType="text/css" height="593px" preserveAspectRatio="none" style="width:694px;height:593px;background:#FFFFFF;" version="1.1" viewBox="0 0 694 593" width="694px" zoomAndPan="magnify"><defs><filter height="300%" id="f22k9yw68l0jy" width="300%" x="-1" y="-1"><feGaussianBlur result="blurOut" stdDeviation="2.0"/><feColorMatrix in="blurOut" result="blurOut2" type="matrix" values="0 0 0 0 0 0 0 0 0 0 0 0 0 0 0 0 0 0 .4 0"/><feOffset dx="4.0" dy="4.0" in="blurOut2" result="blurOut3"/><feBlend in="SourceGraphic" in2="blurOut3" mode="normal"/></filter></defs><g><!--MD5=[cf39a86b148c3d2a53e894bf08c046dd]
class I--><rect codeLine="1" fill="#FEFECE" filter="url(#f22k9yw68l0jy)" height="48" id="I" style="stroke:#A80036;stroke-width:1.5;" width="90" x="40" y="32.5"/><ellipse cx="55" cy="48.5" fill="#ADD1B2" rx="11" ry="11" style="stroke:#A80036;stroke-width:1.0;"/><path d="M57.3438,44.1719 C56.4063,43.7344 55.8125,43.5938 54.9375,43.5938 C52.3125,43.5938 50.3125,45.6719 50.3125,48.3906 L50.3125,49.5156 C50.3125,52.0938 52.4219,53.9844 55.3125,53.9844 C56.5313,53.9844 57.6875,53.6875 58.4375,53.1406 C59.0156,52.7344 59.3438,52.2813 59.3438,51.8906 C59.3438,51.4375 58.9531,51.0469 58.4844,51.0469 C58.2656,51.0469 58.0625,51.125 57.875,51.3125 C57.4219,51.7969 57.4219,51.7969 57.2344,51.8906 C56.8125,52.1563 56.125,52.2813 55.3594,52.2813 C53.3125,52.2813 52.0156,51.1875 52.0156,49.4844 L52.0156,48.3906 C52.0156,46.6094 53.2656,45.2969 55,45.2969 C55.5781,45.2969 56.1875,45.4531 56.6563,45.7031 C57.1406,45.9844 57.3125,46.2031 57.4063,46.6094 C57.4688,47.0156 57.5,47.1406 57.6406,47.2656 C57.7813,47.4063 58.0156,47.5156 58.2344,47.5156 C58.5,47.5156 58.7656,47.375 58.9375,47.1563 C59.0469,47 59.0781,46.8125 59.0781,46.3906 L59.0781,44.9688 C59.0781,44.5313 59.0625,44.4063 58.9688,44.25 C58.8125,43.9844 58.5313,43.8438 58.2344,43.8438 C57.9375,43.8438 57.7344,43.9375 57.5156,44.25 L57.3438,44.1719 Z " fill="#000000"/><text fill="#000000" font-family="sans-serif" font-size="12" lengthAdjust="spacing" textLength="58" x="69" y="52.6543">Insurance</text><line style="stroke:#A80036;stroke-width:1.5;" x1="41" x2="129" y1="64.5" y2="64.5"/><line style="stroke:#A80036;stroke-width:1.5;" x1="41" x2="129" y1="72.5" y2="72.5"/><!--MD5=[4737d6b421084c59d3f8b6989763aa81]
class BS--><rect codeLine="2" fill="#FEFECE" filter="url(#f22k9yw68l0jy)" height="60.8047" id="BS" style="stroke:#A80036;stroke-width:1.5;" width="97" x="293.5" y="512.5"/><ellipse cx="308.5" cy="528.5" fill="#ADD1B2" rx="11" ry="11" style="stroke:#A80036;stroke-width:1.0;"/><path d="M310.8438,524.1719 C309.9063,523.7344 309.3125,523.5938 308.4375,523.5938 C305.8125,523.5938 303.8125,525.6719 303.8125,528.3906 L303.8125,529.5156 C303.8125,532.0938 305.9219,533.9844 308.8125,533.9844 C310.0313,533.9844 311.1875,533.6875 311.9375,533.1406 C312.5156,532.7344 312.8438,532.2813 312.8438,531.8906 C312.8438,531.4375 312.4531,531.0469 311.9844,531.0469 C311.7656,531.0469 311.5625,531.125 311.375,531.3125 C310.9219,531.7969 310.9219,531.7969 310.7344,531.8906 C310.3125,532.1563 309.625,532.2813 308.8594,532.2813 C306.8125,532.2813 305.5156,531.1875 305.5156,529.4844 L305.5156,528.3906 C305.5156,526.6094 306.7656,525.2969 308.5,525.2969 C309.0781,525.2969 309.6875,525.4531 310.1563,525.7031 C310.6406,525.9844 310.8125,526.2031 310.9063,526.6094 C310.9688,527.0156 311,527.1406 311.1406,527.2656 C311.2813,527.4063 311.5156,527.5156 311.7344,527.5156 C312,527.5156 312.2656,527.375 312.4375,527.1563 C312.5469,527 312.5781,526.8125 312.5781,526.3906 L312.5781,524.9688 C312.5781,524.5313 312.5625,524.4063 312.4688,524.25 C312.3125,523.9844 312.0313,523.8438 311.7344,523.8438 C311.4375,523.8438 311.2344,523.9375 311.0156,524.25 L310.8438,524.1719 Z " fill="#000000"/><text fill="#000000" font-family="sans-serif" font-size="12" lengthAdjust="spacing" textLength="65" x="322.5" y="532.6543">Body shop</text><line style="stroke:#A80036;stroke-width:1.5;" x1="294.5" x2="389.5" y1="544.5" y2="544.5"/><ellipse cx="304.5" cy="555.5" rx="3" ry="3" style="stroke:#038048;stroke-width:1.0;fill:none;"/><text fill="#000000" font-family="sans-serif" font-size="11" lengthAdjust="spacing" textLength="46" x="313.5" y="558.7104">Address</text><line style="stroke:#A80036;stroke-width:1.5;" x1="294.5" x2="389.5" y1="565.3047" y2="565.3047"/><!--MD5=[d924dfdf68099e9540f3e81f965a0f3b]
class IA--><rect codeLine="5" fill="#FEFECE" filter="url(#f22k9yw68l0jy)" height="73.6094" id="IA" style="stroke:#A80036;stroke-width:1.5;" width="143" x="537.5" y="506"/><ellipse cx="552.5" cy="522" fill="#ADD1B2" rx="11" ry="11" style="stroke:#A80036;stroke-width:1.0;"/><path d="M554.8438,517.6719 C553.9063,517.2344 553.3125,517.0938 552.4375,517.0938 C549.8125,517.0938 547.8125,519.1719 547.8125,521.8906 L547.8125,523.0156 C547.8125,525.5938 549.9219,527.4844 552.8125,527.4844 C554.0313,527.4844 555.1875,527.1875 555.9375,526.6406 C556.5156,526.2344 556.8438,525.7813 556.8438,525.3906 C556.8438,524.9375 556.4531,524.5469 555.9844,524.5469 C555.7656,524.5469 555.5625,524.625 555.375,524.8125 C554.9219,525.2969 554.9219,525.2969 554.7344,525.3906 C554.3125,525.6563 553.625,525.7813 552.8594,525.7813 C550.8125,525.7813 549.5156,524.6875 549.5156,522.9844 L549.5156,521.8906 C549.5156,520.1094 550.7656,518.7969 552.5,518.7969 C553.0781,518.7969 553.6875,518.9531 554.1563,519.2031 C554.6406,519.4844 554.8125,519.7031 554.9063,520.1094 C554.9688,520.5156 555,520.6406 555.1406,520.7656 C555.2813,520.9063 555.5156,521.0156 555.7344,521.0156 C556,521.0156 556.2656,520.875 556.4375,520.6563 C556.5469,520.5 556.5781,520.3125 556.5781,519.8906 L556.5781,518.4688 C556.5781,518.0313 556.5625,517.9063 556.4688,517.75 C556.3125,517.4844 556.0313,517.3438 555.7344,517.3438 C555.4375,517.3438 555.2344,517.4375 555.0156,517.75 L554.8438,517.6719 Z " fill="#000000"/><text fill="#000000" font-family="sans-serif" font-size="12" lengthAdjust="spacing" textLength="111" x="566.5" y="526.1543">Insurance adjuster</text><line style="stroke:#A80036;stroke-width:1.5;" x1="538.5" x2="679.5" y1="538" y2="538"/><ellipse cx="548.5" cy="549" rx="3" ry="3" style="stroke:#038048;stroke-width:1.0;fill:none;"/><text fill="#000000" font-family="sans-serif" font-size="11" lengthAdjust="spacing" textLength="34" x="557.5" y="552.2104">Name</text><ellipse cx="548.5" cy="561.8047" rx="3" ry="3" style="stroke:#038048;stroke-width:1.0;fill:none;"/><text fill="#000000" font-family="sans-serif" font-size="11" lengthAdjust="spacing" textLength="52" x="557.5" y="565.0151">Surname</text><line style="stroke:#A80036;stroke-width:1.5;" x1="538.5" x2="679.5" y1="571.6094" y2="571.6094"/><!--MD5=[69b356fec5e4f53d7535011b6fc9d60b]
class D--><rect codeLine="9" fill="#FEFECE" filter="url(#f22k9yw68l0jy)" height="99.2188" id="D" style="stroke:#A80036;stroke-width:1.5;" width="98" x="109" y="346"/><ellipse cx="137.05" cy="362" fill="#ADD1B2" rx="11" ry="11" style="stroke:#A80036;stroke-width:1.0;"/><path d="M139.3938,357.6719 C138.4563,357.2344 137.8625,357.0938 136.9875,357.0938 C134.3625,357.0938 132.3625,359.1719 132.3625,361.8906 L132.3625,363.0156 C132.3625,365.5938 134.4719,367.4844 137.3625,367.4844 C138.5813,367.4844 139.7375,367.1875 140.4875,366.6406 C141.0656,366.2344 141.3938,365.7813 141.3938,365.3906 C141.3938,364.9375 141.0031,364.5469 140.5344,364.5469 C140.3156,364.5469 140.1125,364.625 139.925,364.8125 C139.4719,365.2969 139.4719,365.2969 139.2844,365.3906 C138.8625,365.6563 138.175,365.7813 137.4094,365.7813 C135.3625,365.7813 134.0656,364.6875 134.0656,362.9844 L134.0656,361.8906 C134.0656,360.1094 135.3156,358.7969 137.05,358.7969 C137.6281,358.7969 138.2375,358.9531 138.7063,359.2031 C139.1906,359.4844 139.3625,359.7031 139.4563,360.1094 C139.5188,360.5156 139.55,360.6406 139.6906,360.7656 C139.8313,360.9063 140.0656,361.0156 140.2844,361.0156 C140.55,361.0156 140.8156,360.875 140.9875,360.6563 C141.0969,360.5 141.1281,360.3125 141.1281,359.8906 L141.1281,358.4688 C141.1281,358.0313 141.1125,357.9063 141.0188,357.75 C140.8625,357.4844 140.5813,357.3438 140.2844,357.3438 C139.9875,357.3438 139.7844,357.4375 139.5656,357.75 L139.3938,357.6719 Z " fill="#000000"/><text fill="#000000" font-family="sans-serif" font-size="12" lengthAdjust="spacing" textLength="37" x="153.95" y="366.1543">Driver</text><line style="stroke:#A80036;stroke-width:1.5;" x1="110" x2="206" y1="378" y2="378"/><ellipse cx="120" cy="389" rx="3" ry="3" style="stroke:#038048;stroke-width:1.0;fill:none;"/><text fill="#000000" font-family="sans-serif" font-size="11" lengthAdjust="spacing" textLength="24" x="129" y="392.2104">SSN</text><ellipse cx="120" cy="401.8047" rx="3" ry="3" style="stroke:#038048;stroke-width:1.0;fill:none;"/><text fill="#000000" font-family="sans-serif" font-size="11" lengthAdjust="spacing" textLength="34" x="129" y="405.0151">Name</text><ellipse cx="120" cy="414.6094" rx="3" ry="3" style="stroke:#038048;stroke-width:1.0;fill:none;"/><text fill="#000000" font-family="sans-serif" font-size="11" lengthAdjust="spacing" textLength="52" x="129" y="417.8198">Surname</text><ellipse cx="120" cy="427.4141" rx="3" ry="3" style="stroke:#038048;stroke-width:1.0;fill:none;"/><text fill="#000000" font-family="sans-serif" font-size="11" lengthAdjust="spacing" textLength="72" x="129" y="430.6245">Date of birth</text><line style="stroke:#A80036;stroke-width:1.5;" x1="110" x2="206" y1="437.2188" y2="437.2188"/><!--MD5=[1ae2715697942bd221ebc3232bf48911]
class V--><rect codeLine="15" fill="#FEFECE" filter="url(#f22k9yw68l0jy)" height="86.4141" id="V" style="stroke:#A80036;stroke-width:1.5;" width="76" x="120" y="183"/><ellipse cx="135" cy="199" fill="#ADD1B2" rx="11" ry="11" style="stroke:#A80036;stroke-width:1.0;"/><path d="M137.3438,194.6719 C136.4063,194.2344 135.8125,194.0938 134.9375,194.0938 C132.3125,194.0938 130.3125,196.1719 130.3125,198.8906 L130.3125,200.0156 C130.3125,202.5938 132.4219,204.4844 135.3125,204.4844 C136.5313,204.4844 137.6875,204.1875 138.4375,203.6406 C139.0156,203.2344 139.3438,202.7813 139.3438,202.3906 C139.3438,201.9375 138.9531,201.5469 138.4844,201.5469 C138.2656,201.5469 138.0625,201.625 137.875,201.8125 C137.4219,202.2969 137.4219,202.2969 137.2344,202.3906 C136.8125,202.6563 136.125,202.7813 135.3594,202.7813 C133.3125,202.7813 132.0156,201.6875 132.0156,199.9844 L132.0156,198.8906 C132.0156,197.1094 133.2656,195.7969 135,195.7969 C135.5781,195.7969 136.1875,195.9531 136.6563,196.2031 C137.1406,196.4844 137.3125,196.7031 137.4063,197.1094 C137.4688,197.5156 137.5,197.6406 137.6406,197.7656 C137.7813,197.9063 138.0156,198.0156 138.2344,198.0156 C138.5,198.0156 138.7656,197.875 138.9375,197.6563 C139.0469,197.5 139.0781,197.3125 139.0781,196.8906 L139.0781,195.4688 C139.0781,195.0313 139.0625,194.9063 138.9688,194.75 C138.8125,194.4844 138.5313,194.3438 138.2344,194.3438 C137.9375,194.3438 137.7344,194.4375 137.5156,194.75 L137.3438,194.6719 Z " fill="#000000"/><text fill="#000000" font-family="sans-serif" font-size="12" lengthAdjust="spacing" textLength="44" x="149" y="203.1543">Vehicle</text><line style="stroke:#A80036;stroke-width:1.5;" x1="121" x2="195" y1="215" y2="215"/><ellipse cx="131" cy="226" rx="3" ry="3" style="stroke:#038048;stroke-width:1.0;fill:none;"/><text fill="#000000" font-family="sans-serif" font-size="11" lengthAdjust="spacing" textLength="12" x="140" y="229.2104">ID</text><ellipse cx="131" cy="238.8047" rx="3" ry="3" style="stroke:#038048;stroke-width:1.0;fill:none;"/><text fill="#000000" font-family="sans-serif" font-size="11" lengthAdjust="spacing" textLength="34" x="140" y="242.0151">Model</text><ellipse cx="131" cy="251.6094" rx="3" ry="3" style="stroke:#038048;stroke-width:1.0;fill:none;"/><text fill="#000000" font-family="sans-serif" font-size="11" lengthAdjust="spacing" textLength="21" x="140" y="254.8198">Tag</text><line style="stroke:#A80036;stroke-width:1.5;" x1="121" x2="195" y1="261.4141" y2="261.4141"/><!--MD5=[238dbd9944093bcdc066e7d3f25fa0ed]
class Estimator--><rect codeLine="20" fill="#FEFECE" filter="url(#f22k9yw68l0jy)" height="60.8047" id="Estimator" style="stroke:#A80036;stroke-width:1.5;" width="88" x="565" y="365"/><ellipse cx="580" cy="381" fill="#ADD1B2" rx="11" ry="11" style="stroke:#A80036;stroke-width:1.0;"/><path d="M582.3438,376.6719 C581.4063,376.2344 580.8125,376.0938 579.9375,376.0938 C577.3125,376.0938 575.3125,378.1719 575.3125,380.8906 L575.3125,382.0156 C575.3125,384.5938 577.4219,386.4844 580.3125,386.4844 C581.5313,386.4844 582.6875,386.1875 583.4375,385.6406 C584.0156,385.2344 584.3438,384.7813 584.3438,384.3906 C584.3438,383.9375 583.9531,383.5469 583.4844,383.5469 C583.2656,383.5469 583.0625,383.625 582.875,383.8125 C582.4219,384.2969 582.4219,384.2969 582.2344,384.3906 C581.8125,384.6563 581.125,384.7813 580.3594,384.7813 C578.3125,384.7813 577.0156,383.6875 577.0156,381.9844 L577.0156,380.8906 C577.0156,379.1094 578.2656,377.7969 580,377.7969 C580.5781,377.7969 581.1875,377.9531 581.6563,378.2031 C582.1406,378.4844 582.3125,378.7031 582.4063,379.1094 C582.4688,379.5156 582.5,379.6406 582.6406,379.7656 C582.7813,379.9063 583.0156,380.0156 583.2344,380.0156 C583.5,380.0156 583.7656,379.875 583.9375,379.6563 C584.0469,379.5 584.0781,379.3125 584.0781,378.8906 L584.0781,377.4688 C584.0781,377.0313 584.0625,376.9063 583.9688,376.75 C583.8125,376.4844 583.5313,376.3438 583.2344,376.3438 C582.9375,376.3438 582.7344,376.4375 582.5156,376.75 L582.3438,376.6719 Z " fill="#000000"/><text fill="#000000" font-family="sans-serif" font-size="12" lengthAdjust="spacing" textLength="56" x="594" y="385.1543">Estimator</text><line style="stroke:#A80036;stroke-width:1.5;" x1="566" x2="652" y1="397" y2="397"/><ellipse cx="576" cy="408" rx="3" ry="3" style="stroke:#038048;stroke-width:1.0;fill:none;"/><text fill="#000000" font-family="sans-serif" font-size="11" lengthAdjust="spacing" textLength="12" x="585" y="411.2104">ID</text><line style="stroke:#A80036;stroke-width:1.5;" x1="566" x2="652" y1="417.8047" y2="417.8047"/><!--MD5=[7095d094788fc8e7b2ad0a29574f50bc]
class Claim--><rect codeLine="23" fill="#FEFECE" filter="url(#f22k9yw68l0jy)" height="99.2188" id="Claim" style="stroke:#A80036;stroke-width:1.5;" width="83" x="320.5" y="7"/><ellipse cx="344.05" cy="23" fill="#ADD1B2" rx="11" ry="11" style="stroke:#A80036;stroke-width:1.0;"/><path d="M346.3938,18.6719 C345.4563,18.2344 344.8625,18.0938 343.9875,18.0938 C341.3625,18.0938 339.3625,20.1719 339.3625,22.8906 L339.3625,24.0156 C339.3625,26.5938 341.4719,28.4844 344.3625,28.4844 C345.5813,28.4844 346.7375,28.1875 347.4875,27.6406 C348.0656,27.2344 348.3938,26.7813 348.3938,26.3906 C348.3938,25.9375 348.0031,25.5469 347.5344,25.5469 C347.3156,25.5469 347.1125,25.625 346.925,25.8125 C346.4719,26.2969 346.4719,26.2969 346.2844,26.3906 C345.8625,26.6563 345.175,26.7813 344.4094,26.7813 C342.3625,26.7813 341.0656,25.6875 341.0656,23.9844 L341.0656,22.8906 C341.0656,21.1094 342.3156,19.7969 344.05,19.7969 C344.6281,19.7969 345.2375,19.9531 345.7063,20.2031 C346.1906,20.4844 346.3625,20.7031 346.4563,21.1094 C346.5188,21.5156 346.55,21.6406 346.6906,21.7656 C346.8313,21.9063 347.0656,22.0156 347.2844,22.0156 C347.55,22.0156 347.8156,21.875 347.9875,21.6563 C348.0969,21.5 348.1281,21.3125 348.1281,20.8906 L348.1281,19.4688 C348.1281,19.0313 348.1125,18.9063 348.0188,18.75 C347.8625,18.4844 347.5813,18.3438 347.2844,18.3438 C346.9875,18.3438 346.7844,18.4375 346.5656,18.75 L346.3938,18.6719 Z " fill="#000000"/><text fill="#000000" font-family="sans-serif" font-size="12" lengthAdjust="spacing" textLength="32" x="359.95" y="27.1543">Claim</text><line style="stroke:#A80036;stroke-width:1.5;" x1="321.5" x2="402.5" y1="39" y2="39"/><ellipse cx="331.5" cy="50" rx="3" ry="3" style="stroke:#038048;stroke-width:1.0;fill:none;"/><text fill="#000000" font-family="sans-serif" font-size="11" lengthAdjust="spacing" textLength="12" x="340.5" y="53.2104">ID</text><ellipse cx="331.5" cy="62.8047" rx="3" ry="3" style="stroke:#038048;stroke-width:1.0;fill:none;"/><text fill="#000000" font-family="sans-serif" font-size="11" lengthAdjust="spacing" textLength="57" x="340.5" y="66.0151">Start date</text><ellipse cx="331.5" cy="75.6094" rx="3" ry="3" style="stroke:#038048;stroke-width:1.0;fill:none;"/><text fill="#000000" font-family="sans-serif" font-size="11" lengthAdjust="spacing" textLength="51" x="340.5" y="78.8198">End date</text><ellipse cx="331.5" cy="88.4141" rx="3" ry="3" style="stroke:#038048;stroke-width:1.0;fill:none;"/><text fill="#000000" font-family="sans-serif" font-size="11" lengthAdjust="spacing" textLength="36" x="340.5" y="91.6245">Status</text><line style="stroke:#A80036;stroke-width:1.5;" x1="321.5" x2="402.5" y1="98.2188" y2="98.2188"/><!--MD5=[8369e239092e2822ad3ede58afe230de]
class Estimation--><rect codeLine="29" fill="#FEFECE" filter="url(#f22k9yw68l0jy)" height="86.4141" id="Estimation" style="stroke:#A80036;stroke-width:1.5;" width="93" x="486.5" y="183"/><ellipse cx="501.5" cy="199" fill="#ADD1B2" rx="11" ry="11" style="stroke:#A80036;stroke-width:1.0;"/><path d="M503.8438,194.6719 C502.9063,194.2344 502.3125,194.0938 501.4375,194.0938 C498.8125,194.0938 496.8125,196.1719 496.8125,198.8906 L496.8125,200.0156 C496.8125,202.5938 498.9219,204.4844 501.8125,204.4844 C503.0313,204.4844 504.1875,204.1875 504.9375,203.6406 C505.5156,203.2344 505.8438,202.7813 505.8438,202.3906 C505.8438,201.9375 505.4531,201.5469 504.9844,201.5469 C504.7656,201.5469 504.5625,201.625 504.375,201.8125 C503.9219,202.2969 503.9219,202.2969 503.7344,202.3906 C503.3125,202.6563 502.625,202.7813 501.8594,202.7813 C499.8125,202.7813 498.5156,201.6875 498.5156,199.9844 L498.5156,198.8906 C498.5156,197.1094 499.7656,195.7969 501.5,195.7969 C502.0781,195.7969 502.6875,195.9531 503.1563,196.2031 C503.6406,196.4844 503.8125,196.7031 503.9063,197.1094 C503.9688,197.5156 504,197.6406 504.1406,197.7656 C504.2813,197.9063 504.5156,198.0156 504.7344,198.0156 C505,198.0156 505.2656,197.875 505.4375,197.6563 C505.5469,197.5 505.5781,197.3125 505.5781,196.8906 L505.5781,195.4688 C505.5781,195.0313 505.5625,194.9063 505.4688,194.75 C505.3125,194.4844 505.0313,194.3438 504.7344,194.3438 C504.4375,194.3438 504.2344,194.4375 504.0156,194.75 L503.8438,194.6719 Z " fill="#000000"/><text fill="#000000" font-family="sans-serif" font-size="12" lengthAdjust="spacing" textLength="61" x="515.5" y="203.1543">Estimation</text><line style="stroke:#A80036;stroke-width:1.5;" x1="487.5" x2="578.5" y1="215" y2="215"/><ellipse cx="497.5" cy="226" rx="3" ry="3" style="stroke:#038048;stroke-width:1.0;fill:none;"/><text fill="#000000" font-family="sans-serif" font-size="11" lengthAdjust="spacing" textLength="25" x="506.5" y="229.2104">Cost</text><ellipse cx="497.5" cy="238.8047" rx="3" ry="3" style="stroke:#038048;stroke-width:1.0;fill:none;"/><text fill="#000000" font-family="sans-serif" font-size="11" lengthAdjust="spacing" textLength="28" x="506.5" y="242.0151">Date</text><ellipse cx="497.5" cy="251.6094" rx="3" ry="3" style="stroke:#038048;stroke-width:1.0;fill:none;"/><text fill="#000000" font-family="sans-serif" font-size="11" lengthAdjust="spacing" textLength="42" x="506.5" y="254.8198">Agreed</text><line style="stroke:#A80036;stroke-width:1.5;" x1="487.5" x2="578.5" y1="261.4141" y2="261.4141"/><!--MD5=[18b89e0834131a909517048318a5909c]
class Picture--><rect codeLine="34" fill="#FEFECE" filter="url(#f22k9yw68l0jy)" height="73.6094" id="Picture" style="stroke:#A80036;stroke-width:1.5;" width="72" x="451" y="358.5"/><ellipse cx="466" cy="374.5" fill="#ADD1B2" rx="11" ry="11" style="stroke:#A80036;stroke-width:1.0;"/><path d="M468.3438,370.1719 C467.4063,369.7344 466.8125,369.5938 465.9375,369.5938 C463.3125,369.5938 461.3125,371.6719 461.3125,374.3906 L461.3125,375.5156 C461.3125,378.0938 463.4219,379.9844 466.3125,379.9844 C467.5313,379.9844 468.6875,379.6875 469.4375,379.1406 C470.0156,378.7344 470.3438,378.2813 470.3438,377.8906 C470.3438,377.4375 469.9531,377.0469 469.4844,377.0469 C469.2656,377.0469 469.0625,377.125 468.875,377.3125 C468.4219,377.7969 468.4219,377.7969 468.2344,377.8906 C467.8125,378.1563 467.125,378.2813 466.3594,378.2813 C464.3125,378.2813 463.0156,377.1875 463.0156,375.4844 L463.0156,374.3906 C463.0156,372.6094 464.2656,371.2969 466,371.2969 C466.5781,371.2969 467.1875,371.4531 467.6563,371.7031 C468.1406,371.9844 468.3125,372.2031 468.4063,372.6094 C468.4688,373.0156 468.5,373.1406 468.6406,373.2656 C468.7813,373.4063 469.0156,373.5156 469.2344,373.5156 C469.5,373.5156 469.7656,373.375 469.9375,373.1563 C470.0469,373 470.0781,372.8125 470.0781,372.3906 L470.0781,370.9688 C470.0781,370.5313 470.0625,370.4063 469.9688,370.25 C469.8125,369.9844 469.5313,369.8438 469.2344,369.8438 C468.9375,369.8438 468.7344,369.9375 468.5156,370.25 L468.3438,370.1719 Z " fill="#000000"/><text fill="#000000" font-family="sans-serif" font-size="12" lengthAdjust="spacing" textLength="40" x="480" y="378.6543">Picture</text><line style="stroke:#A80036;stroke-width:1.5;" x1="452" x2="522" y1="390.5" y2="390.5"/><ellipse cx="462" cy="401.5" rx="3" ry="3" style="stroke:#038048;stroke-width:1.0;fill:none;"/><text fill="#000000" font-family="sans-serif" font-size="11" lengthAdjust="spacing" textLength="12" x="471" y="404.7104">ID</text><ellipse cx="462" cy="414.3047" rx="3" ry="3" style="stroke:#038048;stroke-width:1.0;fill:none;"/><text fill="#000000" font-family="sans-serif" font-size="11" lengthAdjust="spacing" textLength="27" x="471" y="417.5151">Data</text><line style="stroke:#A80036;stroke-width:1.5;" x1="452" x2="522" y1="424.1094" y2="424.1094"/><!--MD5=[b869affdc590ce951028418cf2570a99]
class Repair--><rect codeLine="38" fill="#FEFECE" filter="url(#f22k9yw68l0jy)" height="86.4141" id="Repair" style="stroke:#A80036;stroke-width:1.5;" width="83" x="368.5" y="183"/><ellipse cx="389.35" cy="199" fill="#ADD1B2" rx="11" ry="11" style="stroke:#A80036;stroke-width:1.0;"/><path d="M391.6938,194.6719 C390.7563,194.2344 390.1625,194.0938 389.2875,194.0938 C386.6625,194.0938 384.6625,196.1719 384.6625,198.8906 L384.6625,200.0156 C384.6625,202.5938 386.7719,204.4844 389.6625,204.4844 C390.8813,204.4844 392.0375,204.1875 392.7875,203.6406 C393.3656,203.2344 393.6938,202.7813 393.6938,202.3906 C393.6938,201.9375 393.3031,201.5469 392.8344,201.5469 C392.6156,201.5469 392.4125,201.625 392.225,201.8125 C391.7719,202.2969 391.7719,202.2969 391.5844,202.3906 C391.1625,202.6563 390.475,202.7813 389.7094,202.7813 C387.6625,202.7813 386.3656,201.6875 386.3656,199.9844 L386.3656,198.8906 C386.3656,197.1094 387.6156,195.7969 389.35,195.7969 C389.9281,195.7969 390.5375,195.9531 391.0063,196.2031 C391.4906,196.4844 391.6625,196.7031 391.7563,197.1094 C391.8188,197.5156 391.85,197.6406 391.9906,197.7656 C392.1313,197.9063 392.3656,198.0156 392.5844,198.0156 C392.85,198.0156 393.1156,197.875 393.2875,197.6563 C393.3969,197.5 393.4281,197.3125 393.4281,196.8906 L393.4281,195.4688 C393.4281,195.0313 393.4125,194.9063 393.3188,194.75 C393.1625,194.4844 392.8813,194.3438 392.5844,194.3438 C392.2875,194.3438 392.0844,194.4375 391.8656,194.75 L391.6938,194.6719 Z " fill="#000000"/><text fill="#000000" font-family="sans-serif" font-size="12" lengthAdjust="spacing" textLength="38" x="404.65" y="203.1543">Repair</text><line style="stroke:#A80036;stroke-width:1.5;" x1="369.5" x2="450.5" y1="215" y2="215"/><ellipse cx="379.5" cy="226" rx="3" ry="3" style="stroke:#038048;stroke-width:1.0;fill:none;"/><text fill="#000000" font-family="sans-serif" font-size="11" lengthAdjust="spacing" textLength="57" x="388.5" y="229.2104">Start date</text><ellipse cx="379.5" cy="238.8047" rx="3" ry="3" style="stroke:#038048;stroke-width:1.0;fill:none;"/><text fill="#000000" font-family="sans-serif" font-size="11" lengthAdjust="spacing" textLength="51" x="388.5" y="242.0151">End date</text><ellipse cx="379.5" cy="251.6094" rx="3" ry="3" style="stroke:#038048;stroke-width:1.0;fill:none;"/><text fill="#000000" font-family="sans-serif" font-size="11" lengthAdjust="spacing" textLength="25" x="388.5" y="254.8198">Cost</text><line style="stroke:#A80036;stroke-width:1.5;" x1="369.5" x2="450.5" y1="261.4141" y2="261.4141"/><path d="M6,530.5 L6,555.6328 A0,0 0 0 0 6,555.6328 L258,555.6328 A0,0 0 0 0 258,555.6328 L258,540.5 L248,530.5 L138.095,530.5 L149.27,445.354 L130.095,530.5 L6,530.5 A0,0 0 0 0 6,530.5 " fill="#FBFB77" filter="url(#f22k9yw68l0jy)" style="stroke:#A80036;stroke-width:1.0;"/><path d="M248,530.5 L248,540.5 L258,540.5 L248,530.5 " fill="#FBFB77" style="stroke:#A80036;stroke-width:1.0;"/><text fill="#000000" font-family="sans-serif" font-size="13" lengthAdjust="spacing" textLength="231" x="12" y="547.5669">For simplicity, one driver per vehicle</text><!--MD5=[31bb9304110bd1dc92fb5016062ece7d]
link I to BS--><path codeLine="44" d="M76.971,80.89 C56.2206,145.988 8.0039,331.902 91,445 C141.972,514.4586 195.869,471.928 275,506 C281.064,508.6111 287.315,511.5755 293.449,514.6556 " fill="none" id="I-BS" style="stroke:#A80036;stroke-width:1.0;"/><text fill="#000000" font-family="sans-serif" font-size="13" lengthAdjust="spacing" textLength="45" x="47" y="312.0669">agreed</text><text fill="#000000" font-family="sans-serif" font-size="13" lengthAdjust="spacing" textLength="7" x="278.4787" y="506.2589">*</text><!--MD5=[f962f80b0f727d57b5011c5e98d75ce7]
link I to V--><path codeLine="45" d="M89.1695,80.573 C93.2351,100.357 100.371,129.33 111,153 C115.525,163.077 121.361,173.344 127.373,182.85 " fill="none" id="I-V" style="stroke:#A80036;stroke-width:1.0;"/><polygon fill="#000000" points="117.7496,149.2503,117.3377,139.7487,111.8314,141.8054,117.7496,149.2503" style="stroke:#000000;stroke-width:1.0;"/><text fill="#000000" font-family="sans-serif" font-size="13" lengthAdjust="spacing" textLength="46" x="125" y="149.0669">insures</text><text fill="#000000" font-family="sans-serif" font-size="13" lengthAdjust="spacing" textLength="7" x="114.934" y="171.8221">*</text><!--MD5=[fa557041d9236e5de4a805ec3588df42]
link V to D--><path codeLine="46" d="M158,269.267 C158,292.527 158,321.498 158,345.714 " fill="none" id="V-D" style="stroke:#A80036;stroke-width:1.0;"/><polygon fill="#000000" points="163,312.5664,165.9389,303.5213,160.0611,303.5213,163,312.5664" style="stroke:#000000;stroke-width:1.0;"/><text fill="#000000" font-family="sans-serif" font-size="13" lengthAdjust="spacing" textLength="60" x="172" y="312.0669">drived by</text><text fill="#000000" font-family="sans-serif" font-size="13" lengthAdjust="spacing" textLength="23" x="133.1672" y="289.4025">1..*</text><!--MD5=[6f4085f3a852ccc668ce843cf3d508f0]
link Claim to V--><path codeLine="47" d="M320.378,72.125 C287.981,85.081 243.395,106.53 212,136 C198.032,149.111 186.373,166.624 177.506,182.645 " fill="none" id="Claim-V" style="stroke:#A80036;stroke-width:1.0;"/><polygon fill="#000000" points="213.0452,147.6257,221.9977,144.416,218.4013,139.7668,213.0452,147.6257" style="stroke:#000000;stroke-width:1.0;"/><text fill="#000000" font-family="sans-serif" font-size="13" lengthAdjust="spacing" textLength="62" x="226" y="149.0669">related to</text><text fill="#000000" font-family="sans-serif" font-size="13" lengthAdjust="spacing" textLength="7" x="305.6227" y="70.581">*</text><!--MD5=[a42a9741744fc8c94988377a7884f772]
link Claim to BS--><path codeLine="48" d="M357.727,106.07 C355.683,129.344 353.207,157.615 351,183 C346.519,234.552 343.224,247.301 341,299 C337.691,375.922 339.608,466.666 340.982,512.4317 " fill="none" id="Claim-BS" style="stroke:#A80036;stroke-width:1.0;"/><polygon fill="#000000" points="346.2059,302.5706,342.897,311.4871,348.7699,311.7291,346.2059,302.5706" style="stroke:#000000;stroke-width:1.0;"/><text fill="#000000" font-family="sans-serif" font-size="13" lengthAdjust="spacing" textLength="117" x="355" y="312.0669">selected for repair</text><text fill="#000000" font-family="sans-serif" font-size="13" lengthAdjust="spacing" textLength="7" x="349.6339" y="126.1563">*</text><!--MD5=[10d8748a0cc502cf4fdfbcd3a61b306c]
link Claim to Estimation--><path codeLine="49" d="M403.696,81.43 C426.098,95.528 453.286,114.742 474,136 C487.455,149.808 499.715,167.086 509.531,182.735 " fill="none" id="Claim-Estimation" style="stroke:#A80036;stroke-width:1.0;"/><polygon fill="#000000" points="489.388,141.109,493.89,149.4866,497.9544,145.2404,489.388,141.109" style="stroke:#000000;stroke-width:1.0;"/><text fill="#000000" font-family="sans-serif" font-size="13" lengthAdjust="spacing" textLength="64" x="502" y="149.0669">estimates</text><text fill="#000000" font-family="sans-serif" font-size="13" lengthAdjust="spacing" textLength="7" x="498.4014" y="172.007">*</text><!--MD5=[7bd5a3558209ef97998ee97560aebd2b]
link Claim to Repair--><path codeLine="50" d="M376.013,106.398 C382.958,130.635 391.262,159.612 397.923,182.857 " fill="none" id="Claim-Repair" style="stroke:#A80036;stroke-width:1.0;"/><polygon fill="#000000" points="392.6226,139.7599,392.2891,149.2646,397.9395,147.6454,392.6226,139.7599" style="stroke:#000000;stroke-width:1.0;"/><text fill="#000000" font-family="sans-serif" font-size="13" lengthAdjust="spacing" textLength="62" x="403" y="149.0669">related to</text><!--MD5=[fbc3089d8bc0e0a1230c327d374e4c08]
link Estimation to Picture--><path codeLine="51" d="M498.167,269.384 C492.336,278.633 487.16,288.74 484,299 C478.141,318.024 478.434,340.197 480.399,358.386 " fill="none" id="Estimation-Picture" style="stroke:#A80036;stroke-width:1.0;"/><polygon fill="#000000" points="489.9789,302.6632,485.326,310.9579,491.0901,312.1086,489.9789,302.6632" style="stroke:#000000;stroke-width:1.0;"/><text fill="#000000" font-family="sans-serif" font-size="13" lengthAdjust="spacing" textLength="74" x="498" y="312.0669">attached to</text><text fill="#000000" font-family="sans-serif" font-size="13" lengthAdjust="spacing" textLength="7" x="471.5998" y="347.5526">*</text><!--MD5=[838f2311c6095b57e2594aaef0757406]
link Estimation to Estimator--><path codeLine="52" d="M560.926,269.146 C566.663,278.737 572.361,289.041 577,299 C586.894,320.24 595.198,345.41 600.865,364.576 " fill="none" id="Estimation-Estimator" style="stroke:#A80036;stroke-width:1.0;"/><polygon fill="#000000" points="586.0697,302.9541,586.8506,312.4325,592.2728,310.1632,586.0697,302.9541" style="stroke:#000000;stroke-width:1.0;"/><text fill="#000000" font-family="sans-serif" font-size="13" lengthAdjust="spacing" textLength="55" x="597" y="312.0669">provides</text><text fill="#000000" font-family="sans-serif" font-size="13" lengthAdjust="spacing" textLength="7" x="557.9716" y="289.5778">*</text><!--MD5=[2ddc315bd5e6e14932b0ad2007ba7f35]
reverse link Estimator to BS--><path codeLine="53" d="M553.266,437.349 C549.165,440.014 545.049,442.592 541,445 C491.45,474.47 431.645,502.7071 390.614,521.0385 " fill="none" id="Estimator-backto-BS" style="stroke:#A80036;stroke-width:1.0;"/><polygon fill="none" points="549.351,431.546,569.83,426.105,557.214,443.129,549.351,431.546" style="stroke:#A80036;stroke-width:1.0;"/><!--MD5=[85fff39a520a18ac199bbe5d5072a65f]
reverse link Estimator to IA--><path codeLine="54" d="M609,446.546 C609,466.02 609,487.9067 609,505.8051 " fill="none" id="Estimator-backto-IA" style="stroke:#A80036;stroke-width:1.0;"/><polygon fill="none" points="602,446.295,609,426.295,616,446.295,602,446.295" style="stroke:#A80036;stroke-width:1.0;"/><!--MD5=[bacba4664966b727dfb7d3a3702eacc1]
@startuml
class "Insurance" as I
class "Body shop" as BS {
	+Address
}
class "Insurance adjuster" as IA {
	+Name
	+Surname
}
class "Driver" as D {
	+SSN
	+Name
	+Surname
	+Date of birth
}
class "Vehicle" as V {
	+ID
	+Model
	+Tag
}
class Estimator {
	+ID
}
class Claim {
	+ID
	+Start date
	+End date
	+Status
}
class Estimation {
	+Cost
	+Date
	+Agreed
}
class Picture {
	+ID
	+Data
}
class Repair {
	+Start date
	+End date
	+Cost
}

I - - "*" BS : agreed
I - - "*" V : insures >
V "1..*" - - D : drived by >
Claim "*" - - V : related to >
Claim "*" - - BS : selected for repair <
Claim - - "*" Estimation : estimates <
Claim - - Repair : related to <
Estimation - - "*" Picture : attached to <
Estimation "*" - - Estimator : provides <
Estimator <|- - BS
Estimator <|- - IA

note "For simplicity, one driver per vehicle" as N1
D .. N1
@enduml

PlantUML version 1.2021.11beta3(Unknown compile time)
(GPL source distribution)
Java Runtime: Java(TM) SE Runtime Environment
JVM: Java HotSpot(TM) 64-Bit Server VM
Default Encoding: UTF-8
Language: en
Country: US
--></g></svg>