<?xml version="1.0" encoding="UTF-8" standalone="no"?><svg xmlns="http://www.w3.org/2000/svg" xmlns:xlink="http://www.w3.org/1999/xlink" contentScriptType="application/ecmascript" contentStyleType="text/css" height="606px" preserveAspectRatio="none" style="width:692px;height:606px;background:#FFFFFF;" version="1.1" viewBox="0 0 692 606" width="692px" zoomAndPan="magnify"><defs><filter height="300%" id="fbswjx3ixb7lb" width="300%" x="-1" y="-1"><feGaussianBlur result="blurOut" stdDeviation="2.0"/><feColorMatrix in="blurOut" result="blurOut2" type="matrix" values="0 0 0 0 0 0 0 0 0 0 0 0 0 0 0 0 0 0 .4 0"/><feOffset dx="4.0" dy="4.0" in="blurOut2" result="blurOut3"/><feBlend in="SourceGraphic" in2="blurOut3" mode="normal"/></filter></defs><g><!--MD5=[cf39a86b148c3d2a53e894bf08c046dd]
class I--><rect codeLine="1" fill="#FEFECE" filter="url(#fbswjx3ixb7lb)" height="48" id="I" style="stroke:#A80036;stroke-width:1.5;" width="90" x="38" y="32.5"/><ellipse cx="53" cy="48.5" fill="#ADD1B2" rx="11" ry="11" style="stroke:#A80036;stroke-width:1.0;"/><path d="M55.3438,44.1719 C54.4063,43.7344 53.8125,43.5938 52.9375,43.5938 C50.3125,43.5938 48.3125,45.6719 48.3125,48.3906 L48.3125,49.5156 C48.3125,52.0938 50.4219,53.9844 53.3125,53.9844 C54.5313,53.9844 55.6875,53.6875 56.4375,53.1406 C57.0156,52.7344 57.3438,52.2813 57.3438,51.8906 C57.3438,51.4375 56.9531,51.0469 56.4844,51.0469 C56.2656,51.0469 56.0625,51.125 55.875,51.3125 C55.4219,51.7969 55.4219,51.7969 55.2344,51.8906 C54.8125,52.1563 54.125,52.2813 53.3594,52.2813 C51.3125,52.2813 50.0156,51.1875 50.0156,49.4844 L50.0156,48.3906 C50.0156,46.6094 51.2656,45.2969 53,45.2969 C53.5781,45.2969 54.1875,45.4531 54.6563,45.7031 C55.1406,45.9844 55.3125,46.2031 55.4063,46.6094 C55.4688,47.0156 55.5,47.1406 55.6406,47.2656 C55.7813,47.4063 56.0156,47.5156 56.2344,47.5156 C56.5,47.5156 56.7656,47.375 56.9375,47.1563 C57.0469,47 57.0781,46.8125 57.0781,46.3906 L57.0781,44.9688 C57.0781,44.5313 57.0625,44.4063 56.9688,44.25 C56.8125,43.9844 56.5313,43.8438 56.2344,43.8438 C55.9375,43.8438 55.7344,43.9375 55.5156,44.25 L55.3438,44.1719 Z " fill="#000000"/><text fill="#000000" font-family="sans-serif" font-size="12" lengthAdjust="spacing" textLength="58" x="67" y="52.6543">Insurance</text><line style="stroke:#A80036;stroke-width:1.5;" x1="39" x2="127" y1="64.5" y2="64.5"/><line style="stroke:#A80036;stroke-width:1.5;" x1="39" x2="127" y1="72.5" y2="72.5"/><!--MD5=[4737d6b421084c59d3f8b6989763aa81]
class BS--><rect codeLine="2" fill="#FEFECE" filter="url(#fbswjx3ixb7lb)" height="60.8047" id="BS" style="stroke:#A80036;stroke-width:1.5;" width="97" x="293.5" y="525.5"/><ellipse cx="308.5" cy="541.5" fill="#ADD1B2" rx="11" ry="11" style="stroke:#A80036;stroke-width:1.0;"/><path d="M310.8438,537.1719 C309.9063,536.7344 309.3125,536.5938 308.4375,536.5938 C305.8125,536.5938 303.8125,538.6719 303.8125,541.3906 L303.8125,542.5156 C303.8125,545.0938 305.9219,546.9844 308.8125,546.9844 C310.0313,546.9844 311.1875,546.6875 311.9375,546.1406 C312.5156,545.7344 312.8438,545.2813 312.8438,544.8906 C312.8438,544.4375 312.4531,544.0469 311.9844,544.0469 C311.7656,544.0469 311.5625,544.125 311.375,544.3125 C310.9219,544.7969 310.9219,544.7969 310.7344,544.8906 C310.3125,545.1563 309.625,545.2813 308.8594,545.2813 C306.8125,545.2813 305.5156,544.1875 305.5156,542.4844 L305.5156,541.3906 C305.5156,539.6094 306.7656,538.2969 308.5,538.2969 C309.0781,538.2969 309.6875,538.4531 310.1563,538.7031 C310.6406,538.9844 310.8125,539.2031 310.9063,539.6094 C310.9688,540.0156 311,540.1406 311.1406,540.2656 C311.2813,540.4063 311.5156,540.5156 311.7344,540.5156 C312,540.5156 312.2656,540.375 312.4375,540.1563 C312.5469,540 312.5781,539.8125 312.5781,539.3906 L312.5781,537.9688 C312.5781,537.5313 312.5625,537.4063 312.4688,537.25 C312.3125,536.9844 312.0313,536.8438 311.7344,536.8438 C311.4375,536.8438 311.2344,536.9375 311.0156,537.25 L310.8438,537.1719 Z " fill="#000000"/><text fill="#000000" font-family="sans-serif" font-size="12" lengthAdjust="spacing" textLength="65" x="322.5" y="545.6543">Body shop</text><line style="stroke:#A80036;stroke-width:1.5;" x1="294.5" x2="389.5" y1="557.5" y2="557.5"/><ellipse cx="304.5" cy="568.5" rx="3" ry="3" style="stroke:#038048;stroke-width:1.0;fill:none;"/><text fill="#000000" font-family="sans-serif" font-size="11" lengthAdjust="spacing" textLength="46" x="313.5" y="571.7104">Address</text><line style="stroke:#A80036;stroke-width:1.5;" x1="294.5" x2="389.5" y1="578.3047" y2="578.3047"/><!--MD5=[d924dfdf68099e9540f3e81f965a0f3b]
class IA--><rect codeLine="5" fill="#FEFECE" filter="url(#fbswjx3ixb7lb)" height="73.6094" id="IA" style="stroke:#A80036;stroke-width:1.5;" width="143" x="535.5" y="519"/><ellipse cx="550.5" cy="535" fill="#ADD1B2" rx="11" ry="11" style="stroke:#A80036;stroke-width:1.0;"/><path d="M552.8438,530.6719 C551.9063,530.2344 551.3125,530.0938 550.4375,530.0938 C547.8125,530.0938 545.8125,532.1719 545.8125,534.8906 L545.8125,536.0156 C545.8125,538.5938 547.9219,540.4844 550.8125,540.4844 C552.0313,540.4844 553.1875,540.1875 553.9375,539.6406 C554.5156,539.2344 554.8438,538.7813 554.8438,538.3906 C554.8438,537.9375 554.4531,537.5469 553.9844,537.5469 C553.7656,537.5469 553.5625,537.625 553.375,537.8125 C552.9219,538.2969 552.9219,538.2969 552.7344,538.3906 C552.3125,538.6563 551.625,538.7813 550.8594,538.7813 C548.8125,538.7813 547.5156,537.6875 547.5156,535.9844 L547.5156,534.8906 C547.5156,533.1094 548.7656,531.7969 550.5,531.7969 C551.0781,531.7969 551.6875,531.9531 552.1563,532.2031 C552.6406,532.4844 552.8125,532.7031 552.9063,533.1094 C552.9688,533.5156 553,533.6406 553.1406,533.7656 C553.2813,533.9063 553.5156,534.0156 553.7344,534.0156 C554,534.0156 554.2656,533.875 554.4375,533.6563 C554.5469,533.5 554.5781,533.3125 554.5781,532.8906 L554.5781,531.4688 C554.5781,531.0313 554.5625,530.9063 554.4688,530.75 C554.3125,530.4844 554.0313,530.3438 553.7344,530.3438 C553.4375,530.3438 553.2344,530.4375 553.0156,530.75 L552.8438,530.6719 Z " fill="#000000"/><text fill="#000000" font-family="sans-serif" font-size="12" lengthAdjust="spacing" textLength="111" x="564.5" y="539.1543">Insurance adjuster</text><line style="stroke:#A80036;stroke-width:1.5;" x1="536.5" x2="677.5" y1="551" y2="551"/><ellipse cx="546.5" cy="562" rx="3" ry="3" style="stroke:#038048;stroke-width:1.0;fill:none;"/><text fill="#000000" font-family="sans-serif" font-size="11" lengthAdjust="spacing" textLength="34" x="555.5" y="565.2104">Name</text><ellipse cx="546.5" cy="574.8047" rx="3" ry="3" style="stroke:#038048;stroke-width:1.0;fill:none;"/><text fill="#000000" font-family="sans-serif" font-size="11" lengthAdjust="spacing" textLength="52" x="555.5" y="578.0151">Surname</text><line style="stroke:#A80036;stroke-width:1.5;" x1="536.5" x2="677.5" y1="584.6094" y2="584.6094"/><!--MD5=[69b356fec5e4f53d7535011b6fc9d60b]
class D--><rect codeLine="9" fill="#FEFECE" filter="url(#fbswjx3ixb7lb)" height="99.2188" id="D" style="stroke:#A80036;stroke-width:1.5;" width="98" x="111" y="359"/><ellipse cx="139.05" cy="375" fill="#ADD1B2" rx="11" ry="11" style="stroke:#A80036;stroke-width:1.0;"/><path d="M141.3938,370.6719 C140.4563,370.2344 139.8625,370.0938 138.9875,370.0938 C136.3625,370.0938 134.3625,372.1719 134.3625,374.8906 L134.3625,376.0156 C134.3625,378.5938 136.4719,380.4844 139.3625,380.4844 C140.5813,380.4844 141.7375,380.1875 142.4875,379.6406 C143.0656,379.2344 143.3938,378.7813 143.3938,378.3906 C143.3938,377.9375 143.0031,377.5469 142.5344,377.5469 C142.3156,377.5469 142.1125,377.625 141.925,377.8125 C141.4719,378.2969 141.4719,378.2969 141.2844,378.3906 C140.8625,378.6563 140.175,378.7813 139.4094,378.7813 C137.3625,378.7813 136.0656,377.6875 136.0656,375.9844 L136.0656,374.8906 C136.0656,373.1094 137.3156,371.7969 139.05,371.7969 C139.6281,371.7969 140.2375,371.9531 140.7063,372.2031 C141.1906,372.4844 141.3625,372.7031 141.4563,373.1094 C141.5188,373.5156 141.55,373.6406 141.6906,373.7656 C141.8313,373.9063 142.0656,374.0156 142.2844,374.0156 C142.55,374.0156 142.8156,373.875 142.9875,373.6563 C143.0969,373.5 143.1281,373.3125 143.1281,372.8906 L143.1281,371.4688 C143.1281,371.0313 143.1125,370.9063 143.0188,370.75 C142.8625,370.4844 142.5813,370.3438 142.2844,370.3438 C141.9875,370.3438 141.7844,370.4375 141.5656,370.75 L141.3938,370.6719 Z " fill="#000000"/><text fill="#000000" font-family="sans-serif" font-size="12" lengthAdjust="spacing" textLength="37" x="155.95" y="379.1543">Driver</text><line style="stroke:#A80036;stroke-width:1.5;" x1="112" x2="208" y1="391" y2="391"/><ellipse cx="122" cy="402" rx="3" ry="3" style="stroke:#038048;stroke-width:1.0;fill:none;"/><text fill="#000000" font-family="sans-serif" font-size="11" lengthAdjust="spacing" textLength="24" x="131" y="405.2104">SSN</text><ellipse cx="122" cy="414.8047" rx="3" ry="3" style="stroke:#038048;stroke-width:1.0;fill:none;"/><text fill="#000000" font-family="sans-serif" font-size="11" lengthAdjust="spacing" textLength="34" x="131" y="418.0151">Name</text><ellipse cx="122" cy="427.6094" rx="3" ry="3" style="stroke:#038048;stroke-width:1.0;fill:none;"/><text fill="#000000" font-family="sans-serif" font-size="11" lengthAdjust="spacing" textLength="52" x="131" y="430.8198">Surname</text><ellipse cx="122" cy="440.4141" rx="3" ry="3" style="stroke:#038048;stroke-width:1.0;fill:none;"/><text fill="#000000" font-family="sans-serif" font-size="11" lengthAdjust="spacing" textLength="72" x="131" y="443.6245">Date of birth</text><line style="stroke:#A80036;stroke-width:1.5;" x1="112" x2="208" y1="450.2188" y2="450.2188"/><!--MD5=[1ae2715697942bd221ebc3232bf48911]
class V--><rect codeLine="15" fill="#FEFECE" filter="url(#fbswjx3ixb7lb)" height="99.2188" id="V" style="stroke:#A80036;stroke-width:1.5;" width="130" x="107" y="183"/><ellipse cx="146.3" cy="199" fill="#ADD1B2" rx="11" ry="11" style="stroke:#A80036;stroke-width:1.0;"/><path d="M148.6438,194.6719 C147.7063,194.2344 147.1125,194.0938 146.2375,194.0938 C143.6125,194.0938 141.6125,196.1719 141.6125,198.8906 L141.6125,200.0156 C141.6125,202.5938 143.7219,204.4844 146.6125,204.4844 C147.8313,204.4844 148.9875,204.1875 149.7375,203.6406 C150.3156,203.2344 150.6438,202.7813 150.6438,202.3906 C150.6438,201.9375 150.2531,201.5469 149.7844,201.5469 C149.5656,201.5469 149.3625,201.625 149.175,201.8125 C148.7219,202.2969 148.7219,202.2969 148.5344,202.3906 C148.1125,202.6563 147.425,202.7813 146.6594,202.7813 C144.6125,202.7813 143.3156,201.6875 143.3156,199.9844 L143.3156,198.8906 C143.3156,197.1094 144.5656,195.7969 146.3,195.7969 C146.8781,195.7969 147.4875,195.9531 147.9563,196.2031 C148.4406,196.4844 148.6125,196.7031 148.7063,197.1094 C148.7688,197.5156 148.8,197.6406 148.9406,197.7656 C149.0813,197.9063 149.3156,198.0156 149.5344,198.0156 C149.8,198.0156 150.0656,197.875 150.2375,197.6563 C150.3469,197.5 150.3781,197.3125 150.3781,196.8906 L150.3781,195.4688 C150.3781,195.0313 150.3625,194.9063 150.2688,194.75 C150.1125,194.4844 149.8313,194.3438 149.5344,194.3438 C149.2375,194.3438 149.0344,194.4375 148.8156,194.75 L148.6438,194.6719 Z " fill="#000000"/><text fill="#000000" font-family="sans-serif" font-size="12" lengthAdjust="spacing" textLength="44" x="165.7" y="203.1543">Vehicle</text><line style="stroke:#A80036;stroke-width:1.5;" x1="108" x2="236" y1="215" y2="215"/><ellipse cx="118" cy="226" rx="3" ry="3" style="stroke:#038048;stroke-width:1.0;fill:none;"/><text fill="#000000" font-family="sans-serif" font-size="11" lengthAdjust="spacing" textLength="12" x="127" y="229.2104">ID</text><ellipse cx="118" cy="238.8047" rx="3" ry="3" style="stroke:#038048;stroke-width:1.0;fill:none;"/><text fill="#000000" font-family="sans-serif" font-size="11" lengthAdjust="spacing" textLength="34" x="127" y="242.0151">Model</text><ellipse cx="118" cy="251.6094" rx="3" ry="3" style="stroke:#038048;stroke-width:1.0;fill:none;"/><text fill="#000000" font-family="sans-serif" font-size="11" lengthAdjust="spacing" textLength="21" x="127" y="254.8198">Tag</text><ellipse cx="118" cy="264.4141" rx="3" ry="3" style="stroke:#038048;stroke-width:1.0;fill:none;"/><text fill="#000000" font-family="sans-serif" font-size="11" lengthAdjust="spacing" textLength="104" x="127" y="267.6245">Commercial value</text><line style="stroke:#A80036;stroke-width:1.5;" x1="108" x2="236" y1="274.2188" y2="274.2188"/><!--MD5=[238dbd9944093bcdc066e7d3f25fa0ed]
class Estimator--><rect codeLine="21" fill="#FEFECE" filter="url(#fbswjx3ixb7lb)" height="60.8047" id="Estimator" style="stroke:#A80036;stroke-width:1.5;" width="88" x="563" y="378"/><ellipse cx="578" cy="394" fill="#ADD1B2" rx="11" ry="11" style="stroke:#A80036;stroke-width:1.0;"/><path d="M580.3438,389.6719 C579.4063,389.2344 578.8125,389.0938 577.9375,389.0938 C575.3125,389.0938 573.3125,391.1719 573.3125,393.8906 L573.3125,395.0156 C573.3125,397.5938 575.4219,399.4844 578.3125,399.4844 C579.5313,399.4844 580.6875,399.1875 581.4375,398.6406 C582.0156,398.2344 582.3438,397.7813 582.3438,397.3906 C582.3438,396.9375 581.9531,396.5469 581.4844,396.5469 C581.2656,396.5469 581.0625,396.625 580.875,396.8125 C580.4219,397.2969 580.4219,397.2969 580.2344,397.3906 C579.8125,397.6563 579.125,397.7813 578.3594,397.7813 C576.3125,397.7813 575.0156,396.6875 575.0156,394.9844 L575.0156,393.8906 C575.0156,392.1094 576.2656,390.7969 578,390.7969 C578.5781,390.7969 579.1875,390.9531 579.6563,391.2031 C580.1406,391.4844 580.3125,391.7031 580.4063,392.1094 C580.4688,392.5156 580.5,392.6406 580.6406,392.7656 C580.7813,392.9063 581.0156,393.0156 581.2344,393.0156 C581.5,393.0156 581.7656,392.875 581.9375,392.6563 C582.0469,392.5 582.0781,392.3125 582.0781,391.8906 L582.0781,390.4688 C582.0781,390.0313 582.0625,389.9063 581.9688,389.75 C581.8125,389.4844 581.5313,389.3438 581.2344,389.3438 C580.9375,389.3438 580.7344,389.4375 580.5156,389.75 L580.3438,389.6719 Z " fill="#000000"/><text fill="#000000" font-family="sans-serif" font-size="12" lengthAdjust="spacing" textLength="56" x="592" y="398.1543">Estimator</text><line style="stroke:#A80036;stroke-width:1.5;" x1="564" x2="650" y1="410" y2="410"/><ellipse cx="574" cy="421" rx="3" ry="3" style="stroke:#038048;stroke-width:1.0;fill:none;"/><text fill="#000000" font-family="sans-serif" font-size="11" lengthAdjust="spacing" textLength="12" x="583" y="424.2104">ID</text><line style="stroke:#A80036;stroke-width:1.5;" x1="564" x2="650" y1="430.8047" y2="430.8047"/><!--MD5=[7095d094788fc8e7b2ad0a29574f50bc]
class Claim--><rect codeLine="24" fill="#FEFECE" filter="url(#fbswjx3ixb7lb)" height="99.2188" id="Claim" style="stroke:#A80036;stroke-width:1.5;" width="83" x="318.5" y="7"/><ellipse cx="342.05" cy="23" fill="#ADD1B2" rx="11" ry="11" style="stroke:#A80036;stroke-width:1.0;"/><path d="M344.3938,18.6719 C343.4563,18.2344 342.8625,18.0938 341.9875,18.0938 C339.3625,18.0938 337.3625,20.1719 337.3625,22.8906 L337.3625,24.0156 C337.3625,26.5938 339.4719,28.4844 342.3625,28.4844 C343.5813,28.4844 344.7375,28.1875 345.4875,27.6406 C346.0656,27.2344 346.3938,26.7813 346.3938,26.3906 C346.3938,25.9375 346.0031,25.5469 345.5344,25.5469 C345.3156,25.5469 345.1125,25.625 344.925,25.8125 C344.4719,26.2969 344.4719,26.2969 344.2844,26.3906 C343.8625,26.6563 343.175,26.7813 342.4094,26.7813 C340.3625,26.7813 339.0656,25.6875 339.0656,23.9844 L339.0656,22.8906 C339.0656,21.1094 340.3156,19.7969 342.05,19.7969 C342.6281,19.7969 343.2375,19.9531 343.7063,20.2031 C344.1906,20.4844 344.3625,20.7031 344.4563,21.1094 C344.5188,21.5156 344.55,21.6406 344.6906,21.7656 C344.8313,21.9063 345.0656,22.0156 345.2844,22.0156 C345.55,22.0156 345.8156,21.875 345.9875,21.6563 C346.0969,21.5 346.1281,21.3125 346.1281,20.8906 L346.1281,19.4688 C346.1281,19.0313 346.1125,18.9063 346.0188,18.75 C345.8625,18.4844 345.5813,18.3438 345.2844,18.3438 C344.9875,18.3438 344.7844,18.4375 344.5656,18.75 L344.3938,18.6719 Z " fill="#000000"/><text fill="#000000" font-family="sans-serif" font-size="12" lengthAdjust="spacing" textLength="32" x="357.95" y="27.1543">Claim</text><line style="stroke:#A80036;stroke-width:1.5;" x1="319.5" x2="400.5" y1="39" y2="39"/><ellipse cx="329.5" cy="50" rx="3" ry="3" style="stroke:#038048;stroke-width:1.0;fill:none;"/><text fill="#000000" font-family="sans-serif" font-size="11" lengthAdjust="spacing" textLength="12" x="338.5" y="53.2104">ID</text><ellipse cx="329.5" cy="62.8047" rx="3" ry="3" style="stroke:#038048;stroke-width:1.0;fill:none;"/><text fill="#000000" font-family="sans-serif" font-size="11" lengthAdjust="spacing" textLength="57" x="338.5" y="66.0151">Start date</text><ellipse cx="329.5" cy="75.6094" rx="3" ry="3" style="stroke:#038048;stroke-width:1.0;fill:none;"/><text fill="#000000" font-family="sans-serif" font-size="11" lengthAdjust="spacing" textLength="51" x="338.5" y="78.8198">End date</text><ellipse cx="329.5" cy="88.4141" rx="3" ry="3" style="stroke:#038048;stroke-width:1.0;fill:none;"/><text fill="#000000" font-family="sans-serif" font-size="11" lengthAdjust="spacing" textLength="31" x="338.5" y="91.6245">State</text><line style="stroke:#A80036;stroke-width:1.5;" x1="319.5" x2="400.5" y1="98.2188" y2="98.2188"/><!--MD5=[8369e239092e2822ad3ede58afe230de]
class Estimation--><rect codeLine="30" fill="#FEFECE" filter="url(#fbswjx3ixb7lb)" height="86.4141" id="Estimation" style="stroke:#A80036;stroke-width:1.5;" width="93" x="484.5" y="189.5"/><ellipse cx="499.5" cy="205.5" fill="#ADD1B2" rx="11" ry="11" style="stroke:#A80036;stroke-width:1.0;"/><path d="M501.8438,201.1719 C500.9063,200.7344 500.3125,200.5938 499.4375,200.5938 C496.8125,200.5938 494.8125,202.6719 494.8125,205.3906 L494.8125,206.5156 C494.8125,209.0938 496.9219,210.9844 499.8125,210.9844 C501.0313,210.9844 502.1875,210.6875 502.9375,210.1406 C503.5156,209.7344 503.8438,209.2813 503.8438,208.8906 C503.8438,208.4375 503.4531,208.0469 502.9844,208.0469 C502.7656,208.0469 502.5625,208.125 502.375,208.3125 C501.9219,208.7969 501.9219,208.7969 501.7344,208.8906 C501.3125,209.1563 500.625,209.2813 499.8594,209.2813 C497.8125,209.2813 496.5156,208.1875 496.5156,206.4844 L496.5156,205.3906 C496.5156,203.6094 497.7656,202.2969 499.5,202.2969 C500.0781,202.2969 500.6875,202.4531 501.1563,202.7031 C501.6406,202.9844 501.8125,203.2031 501.9063,203.6094 C501.9688,204.0156 502,204.1406 502.1406,204.2656 C502.2813,204.4063 502.5156,204.5156 502.7344,204.5156 C503,204.5156 503.2656,204.375 503.4375,204.1563 C503.5469,204 503.5781,203.8125 503.5781,203.3906 L503.5781,201.9688 C503.5781,201.5313 503.5625,201.4063 503.4688,201.25 C503.3125,200.9844 503.0313,200.8438 502.7344,200.8438 C502.4375,200.8438 502.2344,200.9375 502.0156,201.25 L501.8438,201.1719 Z " fill="#000000"/><text fill="#000000" font-family="sans-serif" font-size="12" lengthAdjust="spacing" textLength="61" x="513.5" y="209.6543">Estimation</text><line style="stroke:#A80036;stroke-width:1.5;" x1="485.5" x2="576.5" y1="221.5" y2="221.5"/><ellipse cx="495.5" cy="232.5" rx="3" ry="3" style="stroke:#038048;stroke-width:1.0;fill:none;"/><text fill="#000000" font-family="sans-serif" font-size="11" lengthAdjust="spacing" textLength="25" x="504.5" y="235.7104">Cost</text><ellipse cx="495.5" cy="245.3047" rx="3" ry="3" style="stroke:#038048;stroke-width:1.0;fill:none;"/><text fill="#000000" font-family="sans-serif" font-size="11" lengthAdjust="spacing" textLength="28" x="504.5" y="248.5151">Date</text><ellipse cx="495.5" cy="258.1094" rx="3" ry="3" style="stroke:#038048;stroke-width:1.0;fill:none;"/><text fill="#000000" font-family="sans-serif" font-size="11" lengthAdjust="spacing" textLength="42" x="504.5" y="261.3198">Agreed</text><line style="stroke:#A80036;stroke-width:1.5;" x1="485.5" x2="576.5" y1="267.9141" y2="267.9141"/><!--MD5=[18b89e0834131a909517048318a5909c]
class Picture--><rect codeLine="35" fill="#FEFECE" filter="url(#fbswjx3ixb7lb)" height="73.6094" id="Picture" style="stroke:#A80036;stroke-width:1.5;" width="72" x="449" y="371.5"/><ellipse cx="464" cy="387.5" fill="#ADD1B2" rx="11" ry="11" style="stroke:#A80036;stroke-width:1.0;"/><path d="M466.3438,383.1719 C465.4063,382.7344 464.8125,382.5938 463.9375,382.5938 C461.3125,382.5938 459.3125,384.6719 459.3125,387.3906 L459.3125,388.5156 C459.3125,391.0938 461.4219,392.9844 464.3125,392.9844 C465.5313,392.9844 466.6875,392.6875 467.4375,392.1406 C468.0156,391.7344 468.3438,391.2813 468.3438,390.8906 C468.3438,390.4375 467.9531,390.0469 467.4844,390.0469 C467.2656,390.0469 467.0625,390.125 466.875,390.3125 C466.4219,390.7969 466.4219,390.7969 466.2344,390.8906 C465.8125,391.1563 465.125,391.2813 464.3594,391.2813 C462.3125,391.2813 461.0156,390.1875 461.0156,388.4844 L461.0156,387.3906 C461.0156,385.6094 462.2656,384.2969 464,384.2969 C464.5781,384.2969 465.1875,384.4531 465.6563,384.7031 C466.1406,384.9844 466.3125,385.2031 466.4063,385.6094 C466.4688,386.0156 466.5,386.1406 466.6406,386.2656 C466.7813,386.4063 467.0156,386.5156 467.2344,386.5156 C467.5,386.5156 467.7656,386.375 467.9375,386.1563 C468.0469,386 468.0781,385.8125 468.0781,385.3906 L468.0781,383.9688 C468.0781,383.5313 468.0625,383.4063 467.9688,383.25 C467.8125,382.9844 467.5313,382.8438 467.2344,382.8438 C466.9375,382.8438 466.7344,382.9375 466.5156,383.25 L466.3438,383.1719 Z " fill="#000000"/><text fill="#000000" font-family="sans-serif" font-size="12" lengthAdjust="spacing" textLength="40" x="478" y="391.6543">Picture</text><line style="stroke:#A80036;stroke-width:1.5;" x1="450" x2="520" y1="403.5" y2="403.5"/><ellipse cx="460" cy="414.5" rx="3" ry="3" style="stroke:#038048;stroke-width:1.0;fill:none;"/><text fill="#000000" font-family="sans-serif" font-size="11" lengthAdjust="spacing" textLength="12" x="469" y="417.7104">ID</text><ellipse cx="460" cy="427.3047" rx="3" ry="3" style="stroke:#038048;stroke-width:1.0;fill:none;"/><text fill="#000000" font-family="sans-serif" font-size="11" lengthAdjust="spacing" textLength="27" x="469" y="430.5151">Data</text><line style="stroke:#A80036;stroke-width:1.5;" x1="450" x2="520" y1="437.1094" y2="437.1094"/><!--MD5=[b869affdc590ce951028418cf2570a99]
class Repair--><rect codeLine="39" fill="#FEFECE" filter="url(#fbswjx3ixb7lb)" height="86.4141" id="Repair" style="stroke:#A80036;stroke-width:1.5;" width="83" x="366.5" y="189.5"/><ellipse cx="387.35" cy="205.5" fill="#ADD1B2" rx="11" ry="11" style="stroke:#A80036;stroke-width:1.0;"/><path d="M389.6938,201.1719 C388.7563,200.7344 388.1625,200.5938 387.2875,200.5938 C384.6625,200.5938 382.6625,202.6719 382.6625,205.3906 L382.6625,206.5156 C382.6625,209.0938 384.7719,210.9844 387.6625,210.9844 C388.8813,210.9844 390.0375,210.6875 390.7875,210.1406 C391.3656,209.7344 391.6938,209.2813 391.6938,208.8906 C391.6938,208.4375 391.3031,208.0469 390.8344,208.0469 C390.6156,208.0469 390.4125,208.125 390.225,208.3125 C389.7719,208.7969 389.7719,208.7969 389.5844,208.8906 C389.1625,209.1563 388.475,209.2813 387.7094,209.2813 C385.6625,209.2813 384.3656,208.1875 384.3656,206.4844 L384.3656,205.3906 C384.3656,203.6094 385.6156,202.2969 387.35,202.2969 C387.9281,202.2969 388.5375,202.4531 389.0063,202.7031 C389.4906,202.9844 389.6625,203.2031 389.7563,203.6094 C389.8188,204.0156 389.85,204.1406 389.9906,204.2656 C390.1313,204.4063 390.3656,204.5156 390.5844,204.5156 C390.85,204.5156 391.1156,204.375 391.2875,204.1563 C391.3969,204 391.4281,203.8125 391.4281,203.3906 L391.4281,201.9688 C391.4281,201.5313 391.4125,201.4063 391.3188,201.25 C391.1625,200.9844 390.8813,200.8438 390.5844,200.8438 C390.2875,200.8438 390.0844,200.9375 389.8656,201.25 L389.6938,201.1719 Z " fill="#000000"/><text fill="#000000" font-family="sans-serif" font-size="12" lengthAdjust="spacing" textLength="38" x="402.65" y="209.6543">Repair</text><line style="stroke:#A80036;stroke-width:1.5;" x1="367.5" x2="448.5" y1="221.5" y2="221.5"/><ellipse cx="377.5" cy="232.5" rx="3" ry="3" style="stroke:#038048;stroke-width:1.0;fill:none;"/><text fill="#000000" font-family="sans-serif" font-size="11" lengthAdjust="spacing" textLength="57" x="386.5" y="235.7104">Start date</text><ellipse cx="377.5" cy="245.3047" rx="3" ry="3" style="stroke:#038048;stroke-width:1.0;fill:none;"/><text fill="#000000" font-family="sans-serif" font-size="11" lengthAdjust="spacing" textLength="51" x="386.5" y="248.5151">End date</text><ellipse cx="377.5" cy="258.1094" rx="3" ry="3" style="stroke:#038048;stroke-width:1.0;fill:none;"/><text fill="#000000" font-family="sans-serif" font-size="11" lengthAdjust="spacing" textLength="25" x="386.5" y="261.3198">Cost</text><line style="stroke:#A80036;stroke-width:1.5;" x1="367.5" x2="448.5" y1="267.9141" y2="267.9141"/><path d="M6,543.5 L6,568.6328 A0,0 0 0 0 6,568.6328 L258,568.6328 A0,0 0 0 0 258,568.6328 L258,553.5 L248,543.5 L138.256,543.5 L150.599,458.354 L130.256,543.5 L6,543.5 A0,0 0 0 0 6,543.5 " fill="#FBFB77" filter="url(#fbswjx3ixb7lb)" style="stroke:#A80036;stroke-width:1.0;"/><path d="M248,543.5 L248,553.5 L258,553.5 L248,543.5 " fill="#FBFB77" style="stroke:#A80036;stroke-width:1.0;"/><text fill="#000000" font-family="sans-serif" font-size="13" lengthAdjust="spacing" textLength="231" x="12" y="560.5669">For simplicity, one driver per vehicle</text><!--MD5=[31bb9304110bd1dc92fb5016062ece7d]
link I to BS--><path codeLine="45" d="M75.301,80.74 C54.8528,147.201 6.4276,340.792 93,458 C143.686,526.6219 196.699,485.133 275,519 C281.06,521.621 287.308,524.5915 293.441,527.6749 " fill="none" id="I-BS" style="stroke:#A80036;stroke-width:1.0;"/><text fill="#000000" font-family="sans-serif" font-size="13" lengthAdjust="spacing" textLength="45" x="48" y="325.0669">agreed</text><text fill="#000000" font-family="sans-serif" font-size="13" lengthAdjust="spacing" textLength="7" x="278.4695" y="519.2812">*</text><!--MD5=[f962f80b0f727d57b5011c5e98d75ce7]
link I to V--><path codeLine="46" d="M86.591,80.85 C90.2948,100.808 97.2247,129.879 109,153 C114.234,163.277 120.957,173.473 128.053,182.946 " fill="none" id="I-V" style="stroke:#A80036;stroke-width:1.0;"/><polygon fill="#000000" points="115.8813,149.199,115.2009,139.7128,109.755,141.9244,115.8813,149.199" style="stroke:#000000;stroke-width:1.0;"/><text fill="#000000" font-family="sans-serif" font-size="13" lengthAdjust="spacing" textLength="46" x="123" y="149.0669">insures</text><text fill="#000000" font-family="sans-serif" font-size="13" lengthAdjust="spacing" textLength="7" x="114.3808" y="171.9836">*</text><!--MD5=[fa557041d9236e5de4a805ec3588df42]
link V to D--><path codeLine="47" d="M168.625,282.432 C166.976,306.355 164.996,335.062 163.349,358.936 " fill="none" id="V-D" style="stroke:#A80036;stroke-width:1.0;"/><polygon fill="#000000" points="171.656,325.5546,175.2103,316.7331,169.3463,316.3287,171.656,325.5546" style="stroke:#000000;stroke-width:1.0;"/><text fill="#000000" font-family="sans-serif" font-size="13" lengthAdjust="spacing" textLength="60" x="181" y="325.0669">drived by</text><text fill="#000000" font-family="sans-serif" font-size="13" lengthAdjust="spacing" textLength="23" x="143.6262" y="302.2105">1..*</text><!--MD5=[6f4085f3a852ccc668ce843cf3d508f0]
link Claim to V--><path codeLine="48" d="M318.324,70.252 C285.019,82.36 239.227,103.582 210,136 C198.171,149.121 189.808,166.375 183.999,182.605 " fill="none" id="Claim-V" style="stroke:#A80036;stroke-width:1.0;"/><polygon fill="#000000" points="211.1647,147.7743,219.9884,144.2255,216.2172,139.7168,211.1647,147.7743" style="stroke:#000000;stroke-width:1.0;"/><text fill="#000000" font-family="sans-serif" font-size="13" lengthAdjust="spacing" textLength="62" x="224" y="149.0669">related to</text><text fill="#000000" font-family="sans-serif" font-size="13" lengthAdjust="spacing" textLength="7" x="303.5594" y="68.3861">*</text><!--MD5=[a42a9741744fc8c94988377a7884f772]
link Claim to BS--><path codeLine="49" d="M355.629,106.062 C353.564,129.334 351.097,157.606 349,183 C344.267,240.31 341.224,254.538 339,312 C336.022,388.94 338.815,479.676 340.664,525.4364 " fill="none" id="Claim-BS" style="stroke:#A80036;stroke-width:1.0;"/><polygon fill="#000000" points="344.1783,315.5696,340.9187,324.5041,346.7928,324.7137,344.1783,315.5696" style="stroke:#000000;stroke-width:1.0;"/><text fill="#000000" font-family="sans-serif" font-size="13" lengthAdjust="spacing" textLength="117" x="353" y="325.0669">selected for repair</text><text fill="#000000" font-family="sans-serif" font-size="13" lengthAdjust="spacing" textLength="7" x="347.5221" y="126.1472">*</text><!--MD5=[10d8748a0cc502cf4fdfbcd3a61b306c]
link Claim to Estimation--><path codeLine="50" d="M401.516,81.3 C423.775,95.358 450.715,114.576 471,136 C485.943,151.782 499.208,171.833 509.441,189.483 " fill="none" id="Claim-Estimation" style="stroke:#A80036;stroke-width:1.0;"/><polygon fill="#000000" points="486.4687,141.0267,490.7763,149.5058,494.9375,145.3545,486.4687,141.0267" style="stroke:#000000;stroke-width:1.0;"/><text fill="#000000" font-family="sans-serif" font-size="13" lengthAdjust="spacing" textLength="64" x="499" y="149.0669">estimates</text><text fill="#000000" font-family="sans-serif" font-size="13" lengthAdjust="spacing" textLength="7" x="498.4472" y="178.4763">*</text><!--MD5=[7bd5a3558209ef97998ee97560aebd2b]
link Claim to Repair--><path codeLine="51" d="M373.498,106.432 C380.708,132.566 389.492,164.41 396.393,189.425 " fill="none" id="Claim-Repair" style="stroke:#A80036;stroke-width:1.0;"/><polygon fill="#000000" points="389.6703,139.7464,389.2426,149.2474,394.9088,147.6843,389.6703,139.7464" style="stroke:#000000;stroke-width:1.0;"/><text fill="#000000" font-family="sans-serif" font-size="13" lengthAdjust="spacing" textLength="62" x="400" y="149.0669">related to</text><!--MD5=[fbc3089d8bc0e0a1230c327d374e4c08]
link Estimation to Picture--><path codeLine="52" d="M498.637,275.859 C491.805,287.038 485.584,299.49 482,312 C476.518,331.136 476.834,353.316 478.718,371.481 " fill="none" id="Estimation-Picture" style="stroke:#A80036;stroke-width:1.0;"/><polygon fill="#000000" points="488.0197,315.6715,483.2979,323.9271,489.0522,325.1258,488.0197,315.6715" style="stroke:#000000;stroke-width:1.0;"/><text fill="#000000" font-family="sans-serif" font-size="13" lengthAdjust="spacing" textLength="74" x="496" y="325.0669">attached to</text><text fill="#000000" font-family="sans-serif" font-size="13" lengthAdjust="spacing" textLength="7" x="469.9144" y="360.388">*</text><!--MD5=[838f2311c6095b57e2594aaef0757406]
link Estimation to Estimator--><path codeLine="53" d="M556.468,275.533 C562.962,287.126 569.62,299.859 575,312 C584.492,333.422 592.815,358.584 598.592,377.701 " fill="none" id="Estimation-Estimator" style="stroke:#A80036;stroke-width:1.0;"/><polygon fill="#000000" points="584.0941,315.9439,584.8248,325.4263,590.2589,323.1859,584.0941,315.9439" style="stroke:#000000;stroke-width:1.0;"/><text fill="#000000" font-family="sans-serif" font-size="13" lengthAdjust="spacing" textLength="55" x="595" y="325.0669">provides</text><text fill="#000000" font-family="sans-serif" font-size="13" lengthAdjust="spacing" textLength="7" x="553.1065" y="295.9461">*</text><!--MD5=[2ddc315bd5e6e14932b0ad2007ba7f35]
reverse link Estimator to BS--><path codeLine="54" d="M550.403,450.299 C546.252,452.976 542.089,455.57 538,458 C489.366,486.896 430.948,515.0152 390.611,533.4728 " fill="none" id="Estimator-backto-BS" style="stroke:#A80036;stroke-width:1.0;"/><polygon fill="none" points="546.682,444.366,567.189,439.029,554.486,455.989,546.682,444.366" style="stroke:#A80036;stroke-width:1.0;"/><!--MD5=[85fff39a520a18ac199bbe5d5072a65f]
reverse link Estimator to IA--><path codeLine="55" d="M607,459.546 C607,479.02 607,500.9067 607,518.8051 " fill="none" id="Estimator-backto-IA" style="stroke:#A80036;stroke-width:1.0;"/><polygon fill="none" points="600,459.295,607,439.295,614,459.295,600,459.295" style="stroke:#A80036;stroke-width:1.0;"/><!--MD5=[1d8f1bcebda7f22e9e1e79cbfe9e2573]
@startuml
class "Insurance" as I
class "Body shop" as BS {
	+Address
}
class "Insurance adjuster" as IA {
	+Name
	+Surname
}
class "Driver" as D {
	+SSN
	+Name
	+Surname
	+Date of birth
}
class "Vehicle" as V {
	+ID
	+Model
	+Tag
	+Commercial value
}
class Estimator {
	+ID
}
class Claim {
	+ID
	+Start date
	+End date
	+State
}
class Estimation {
	+Cost
	+Date
	+Agreed
}
class Picture {
	+ID
	+Data
}
class Repair {
	+Start date
	+End date
	+Cost
}

I - - "*" BS : agreed
I - - "*" V : insures >
V "1..*" - - D : drived by >
Claim "*" - - V : related to >
Claim "*" - - BS : selected for repair <
Claim - - "*" Estimation : estimates <
Claim - - Repair : related to <
Estimation - - "*" Picture : attached to <
Estimation "*" - - Estimator : provides <
Estimator <|- - BS
Estimator <|- - IA

note "For simplicity, one driver per vehicle" as N1
D .. N1
@enduml

PlantUML version 1.2021.11beta3(Unknown compile time)
(GPL source distribution)
Java Runtime: Java(TM) SE Runtime Environment
JVM: Java HotSpot(TM) 64-Bit Server VM
Default Encoding: UTF-8
Language: en
Country: US
--></g></svg>