<?xml version="1.0" encoding="UTF-8" standalone="no"?><svg xmlns="http://www.w3.org/2000/svg" xmlns:xlink="http://www.w3.org/1999/xlink" contentScriptType="application/ecmascript" contentStyleType="text/css" height="422px" preserveAspectRatio="none" style="width:842px;height:422px;background:#FFFFFF;" version="1.1" viewBox="0 0 842 422" width="842px" zoomAndPan="magnify"><defs><filter height="300%" id="fmdb0211df00l" width="300%" x="-1" y="-1"><feGaussianBlur result="blurOut" stdDeviation="2.0"/><feColorMatrix in="blurOut" result="blurOut2" type="matrix" values="0 0 0 0 0 0 0 0 0 0 0 0 0 0 0 0 0 0 .4 0"/><feOffset dx="4.0" dy="4.0" in="blurOut2" result="blurOut3"/><feBlend in="SourceGraphic" in2="blurOut3" mode="normal"/></filter></defs><g><!--MD5=[b6b6132e619b87993ce3297455dbee74]
entity Server1--><polygon fill="#FEFECE" filter="url(#fmdb0211df00l)" points="312,133,322,123,461,123,461,159.2969,451,169.2969,312,169.2969,312,133" style="stroke:#000000;stroke-width:1.5;"/><line style="stroke:#000000;stroke-width:1.5;" x1="451" x2="461" y1="133" y2="123"/><line style="stroke:#000000;stroke-width:1.5;" x1="312" x2="451" y1="133" y2="133"/><line style="stroke:#000000;stroke-width:1.5;" x1="451" x2="451" y1="133" y2="169.2969"/><text fill="#000000" font-family="sans-serif" font-size="14" lengthAdjust="spacing" textLength="109" x="327" y="155.9951">Insurer's server</text><!--MD5=[2a5d1166ed132b9d7509077ba44768c5]
entity Server2--><polygon fill="#FEFECE" filter="url(#fmdb0211df00l)" points="16,256,26,246,165,246,165,282.2969,155,292.2969,16,292.2969,16,256" style="stroke:#000000;stroke-width:1.5;"/><line style="stroke:#000000;stroke-width:1.5;" x1="155" x2="165" y1="256" y2="246"/><line style="stroke:#000000;stroke-width:1.5;" x1="16" x2="155" y1="256" y2="256"/><line style="stroke:#000000;stroke-width:1.5;" x1="155" x2="155" y1="256" y2="292.2969"/><text fill="#000000" font-family="sans-serif" font-size="14" lengthAdjust="spacing" textLength="109" x="31" y="278.9951">Insurer's server</text><!--MD5=[d80eaf4ce53758e8b730659e08691dc7]
entity BSDevice--><polygon fill="#FEFECE" filter="url(#fmdb0211df00l)" points="200,256,210,246,377,246,377,282.2969,367,292.2969,200,292.2969,200,256" style="stroke:#000000;stroke-width:1.5;"/><line style="stroke:#000000;stroke-width:1.5;" x1="367" x2="377" y1="256" y2="246"/><line style="stroke:#000000;stroke-width:1.5;" x1="200" x2="367" y1="256" y2="256"/><line style="stroke:#000000;stroke-width:1.5;" x1="367" x2="367" y1="256" y2="292.2969"/><text fill="#000000" font-family="sans-serif" font-size="14" lengthAdjust="spacing" textLength="137" x="215" y="278.9951">Body shop's device</text><!--MD5=[34bc6528ee4e76e74396f81d4e61356d]
entity DDevice--><polygon fill="#FEFECE" filter="url(#fmdb0211df00l)" points="412.5,256,422.5,246,558.5,246,558.5,282.2969,548.5,292.2969,412.5,292.2969,412.5,256" style="stroke:#000000;stroke-width:1.5;"/><line style="stroke:#000000;stroke-width:1.5;" x1="548.5" x2="558.5" y1="256" y2="246"/><line style="stroke:#000000;stroke-width:1.5;" x1="412.5" x2="548.5" y1="256" y2="256"/><line style="stroke:#000000;stroke-width:1.5;" x1="548.5" x2="548.5" y1="256" y2="292.2969"/><text fill="#000000" font-family="sans-serif" font-size="14" lengthAdjust="spacing" textLength="106" x="427.5" y="278.9951">Driver's device</text><!--MD5=[8f80de1bada98c0e46be76cc94d6cc89]
entity IADevice--><polygon fill="#FEFECE" filter="url(#fmdb0211df00l)" points="593.5,256,603.5,246,825.5,246,825.5,282.2969,815.5,292.2969,593.5,292.2969,593.5,256" style="stroke:#000000;stroke-width:1.5;"/><line style="stroke:#000000;stroke-width:1.5;" x1="815.5" x2="825.5" y1="256" y2="246"/><line style="stroke:#000000;stroke-width:1.5;" x1="593.5" x2="815.5" y1="256" y2="256"/><line style="stroke:#000000;stroke-width:1.5;" x1="815.5" x2="815.5" y1="256" y2="292.2969"/><text fill="#000000" font-family="sans-serif" font-size="14" lengthAdjust="spacing" textLength="192" x="608.5" y="278.9951">Insurance adjuster's device</text><!--MD5=[0a532fa5f82fb2804951126d2dfa7c83]
entity ClaimManagementApp--><rect fill="#FEFECE" filter="url(#fmdb0211df00l)" height="39.2969" style="stroke:#000000;stroke-width:1.5;" width="202" x="285.5" y="7"/><polygon fill="#FEFECE" points="470.5,12,470.5,26,482.5,26,482.5,18,476.5,12,470.5,12" style="stroke:#000000;stroke-width:1.5;"/><line style="stroke:#000000;stroke-width:1.5;" x1="476.5" x2="476.5" y1="12" y2="18"/><line style="stroke:#000000;stroke-width:1.5;" x1="482.5" x2="476.5" y1="18" y2="18"/><text fill="#000000" font-family="sans-serif" font-size="14" lengthAdjust="spacing" textLength="172" x="295.5" y="32.9951">Claim management app</text><!--MD5=[b54e9a77db7c004c5cccece494a270c9]
entity DBMS--><rect fill="#FEFECE" filter="url(#fmdb0211df00l)" height="39.2969" style="stroke:#000000;stroke-width:1.5;" width="72" x="54.5" y="126.5"/><polygon fill="#FEFECE" points="109.5,131.5,109.5,145.5,121.5,145.5,121.5,137.5,115.5,131.5,109.5,131.5" style="stroke:#000000;stroke-width:1.5;"/><line style="stroke:#000000;stroke-width:1.5;" x1="115.5" x2="115.5" y1="131.5" y2="137.5"/><line style="stroke:#000000;stroke-width:1.5;" x1="121.5" x2="115.5" y1="137.5" y2="137.5"/><text fill="#000000" font-family="sans-serif" font-size="14" lengthAdjust="spacing" textLength="42" x="64.5" y="152.4951">DBMS</text><!--MD5=[9d3cdd3fc98cc5cf302bc6ead636b28b]
entity Browser1--><rect fill="#FEFECE" filter="url(#fmdb0211df00l)" height="39.2969" style="stroke:#000000;stroke-width:1.5;" width="88" x="244.5" y="369"/><polygon fill="#FEFECE" points="315.5,374,315.5,388,327.5,388,327.5,380,321.5,374,315.5,374" style="stroke:#000000;stroke-width:1.5;"/><line style="stroke:#000000;stroke-width:1.5;" x1="321.5" x2="321.5" y1="374" y2="380"/><line style="stroke:#000000;stroke-width:1.5;" x1="327.5" x2="321.5" y1="380" y2="380"/><text fill="#000000" font-family="sans-serif" font-size="14" lengthAdjust="spacing" textLength="58" x="254.5" y="394.9951">Browser</text><!--MD5=[6c5c0dfe5cdb6579c98ad0c5901bc7d8]
entity Browser2--><rect fill="#FEFECE" filter="url(#fmdb0211df00l)" height="39.2969" style="stroke:#000000;stroke-width:1.5;" width="88" x="441.5" y="369"/><polygon fill="#FEFECE" points="512.5,374,512.5,388,524.5,388,524.5,380,518.5,374,512.5,374" style="stroke:#000000;stroke-width:1.5;"/><line style="stroke:#000000;stroke-width:1.5;" x1="518.5" x2="518.5" y1="374" y2="380"/><line style="stroke:#000000;stroke-width:1.5;" x1="524.5" x2="518.5" y1="380" y2="380"/><text fill="#000000" font-family="sans-serif" font-size="14" lengthAdjust="spacing" textLength="58" x="451.5" y="394.9951">Browser</text><!--MD5=[fc130c355f7213e52682f9256e884d3b]
entity Browser3--><rect fill="#FEFECE" filter="url(#fmdb0211df00l)" height="39.2969" style="stroke:#000000;stroke-width:1.5;" width="88" x="665.5" y="369"/><polygon fill="#FEFECE" points="736.5,374,736.5,388,748.5,388,748.5,380,742.5,374,736.5,374" style="stroke:#000000;stroke-width:1.5;"/><line style="stroke:#000000;stroke-width:1.5;" x1="742.5" x2="742.5" y1="374" y2="380"/><line style="stroke:#000000;stroke-width:1.5;" x1="748.5" x2="742.5" y1="380" y2="380"/><text fill="#000000" font-family="sans-serif" font-size="14" lengthAdjust="spacing" textLength="58" x="675.5" y="394.9951">Browser</text><!--MD5=[afa20805cdcb1e6172d37117fd3618ae]
link Server1 to Server2--><path d="M332.553,169.053 C279.193,190.865 197.981,224.064 144.576,245.895 " fill="none" id="Server1-Server2" style="stroke:#A80036;stroke-width:1.0;"/><text fill="#000000" font-family="sans-serif" font-size="13" lengthAdjust="spacing" textLength="50" x="257.5" y="212.0669">Internet</text><!--MD5=[d8dbeed6c7b780bb83acbef8f7d4fcf2]
link Server1 to BSDevice--><path d="M368.525,169.193 C350.843,191.026 324.004,224.164 306.361,245.947 " fill="none" id="Server1-BSDevice" style="stroke:#A80036;stroke-width:1.0;"/><text fill="#000000" font-family="sans-serif" font-size="13" lengthAdjust="spacing" textLength="50" x="344.5" y="212.0669">Internet</text><text fill="#000000" font-family="sans-serif" font-size="13" lengthAdjust="spacing" textLength="7" x="303.2205" y="234.7807">*</text><!--MD5=[0efde09b23f2b0f4ffb85f04ecc05e16]
link Server1 to DDevice--><path d="M404.658,169.193 C422.521,191.026 449.634,224.164 467.457,245.947 " fill="none" id="Server1-DDevice" style="stroke:#A80036;stroke-width:1.0;"/><text fill="#000000" font-family="sans-serif" font-size="13" lengthAdjust="spacing" textLength="50" x="443.5" y="212.0669">Internet</text><text fill="#000000" font-family="sans-serif" font-size="13" lengthAdjust="spacing" textLength="7" x="454.6673" y="234.7807">*</text><!--MD5=[b42ea34029f6bfc6a7660aa7cb674927]
link Server1 to IADevice--><path d="M445.368,169.053 C503.686,190.899 592.492,224.167 650.765,245.997 " fill="none" id="Server1-IADevice" style="stroke:#A80036;stroke-width:1.0;"/><text fill="#000000" font-family="sans-serif" font-size="13" lengthAdjust="spacing" textLength="50" x="568.5" y="212.0669">Internet</text><text fill="#000000" font-family="sans-serif" font-size="13" lengthAdjust="spacing" textLength="7" x="627.0393" y="234.8442">*</text><!--MD5=[da651364ab0d7c3becf1ed68dd62be58]
link ClaimManagementApp to Server1--><path d="M386.5,46.118 C386.5,65.409 386.5,95.756 386.5,117.746 " fill="none" id="ClaimManagementApp-to-Server1" style="stroke:#A80036;stroke-width:1.0;"/><polygon fill="#A80036" points="386.5,122.864,390.5,113.864,386.5,117.864,382.5,113.864,386.5,122.864" style="stroke:#A80036;stroke-width:1.0;"/><text fill="#000000" font-family="sans-serif" font-size="13" lengthAdjust="spacing" textLength="59" x="387.5" y="89.0669">«deploy»</text><!--MD5=[acc98180c6499fcc3b339c7df7dbbf5f]
link DBMS to Server2--><path d="M90.5,165.641 C90.5,185.733 90.5,217.905 90.5,240.815 " fill="none" id="DBMS-to-Server2" style="stroke:#A80036;stroke-width:1.0;"/><polygon fill="#A80036" points="90.5,245.845,94.5,236.845,90.5,240.845,86.5,236.845,90.5,245.845" style="stroke:#A80036;stroke-width:1.0;"/><text fill="#000000" font-family="sans-serif" font-size="13" lengthAdjust="spacing" textLength="59" x="91.5" y="212.0669">«deploy»</text><!--MD5=[6219e3347c11b508fb9787df20814949]
reverse link BSDevice to Browser1--><path d="M288.5,297.227 C288.5,319.255 288.5,349.6835 288.5,368.977 " fill="none" id="BSDevice-backto-Browser1" style="stroke:#A80036;stroke-width:1.0;"/><polygon fill="#A80036" points="288.5,292.101,284.5,301.101,288.5,297.101,292.5,301.101,288.5,292.101" style="stroke:#A80036;stroke-width:1.0;"/><text fill="#000000" font-family="sans-serif" font-size="13" lengthAdjust="spacing" textLength="59" x="289.5" y="335.0669">«deploy»</text><!--MD5=[6b4ef3dd0463538fb871ecf00d33c50b]
reverse link DDevice to Browser2--><path d="M485.5,297.227 C485.5,319.255 485.5,349.6835 485.5,368.977 " fill="none" id="DDevice-backto-Browser2" style="stroke:#A80036;stroke-width:1.0;"/><polygon fill="#A80036" points="485.5,292.101,481.5,301.101,485.5,297.101,489.5,301.101,485.5,292.101" style="stroke:#A80036;stroke-width:1.0;"/><text fill="#000000" font-family="sans-serif" font-size="13" lengthAdjust="spacing" textLength="59" x="486.5" y="335.0669">«deploy»</text><!--MD5=[24dc05e8389279f74f7edad80bcc0783]
reverse link IADevice to Browser3--><path d="M709.5,297.227 C709.5,319.255 709.5,349.6835 709.5,368.977 " fill="none" id="IADevice-backto-Browser3" style="stroke:#A80036;stroke-width:1.0;"/><polygon fill="#A80036" points="709.5,292.101,705.5,301.101,709.5,297.101,713.5,301.101,709.5,292.101" style="stroke:#A80036;stroke-width:1.0;"/><text fill="#000000" font-family="sans-serif" font-size="13" lengthAdjust="spacing" textLength="59" x="710.5" y="335.0669">«deploy»</text><!--MD5=[c51d69453c2bf08b6cbf0e1a06f8fc9a]
@startuml
node "Insurer's server" as Server1
node "Insurer's server" as Server2
node "Body shop's device" as BSDevice
node "Driver's device" as DDevice
node "Insurance adjuster's device" as IADevice

artifact "Claim management app" as ClaimManagementApp
artifact DBMS
artifact Browser as Browser1
artifact Browser as Browser2
artifact Browser as Browser3

Server1 - - Server2 : Internet
Server1 - - "*" BSDevice : Internet
Server1 - - "*" DDevice : Internet
Server1 - - "*" IADevice : Internet

ClaimManagementApp - -> Server1 : <<deploy>>
DBMS - -> Server2 : <<deploy>>
BSDevice <- - Browser1 : <<deploy>>
DDevice <- - Browser2 : <<deploy>>
IADevice <- - Browser3 : <<deploy>>
@enduml

PlantUML version 1.2021.11beta5(Unknown compile time)
(GPL source distribution)
Java Runtime: Java(TM) SE Runtime Environment
JVM: Java HotSpot(TM) 64-Bit Server VM
Default Encoding: UTF-8
Language: en
Country: US
--></g></svg>