<?xml version="1.0" encoding="UTF-8" standalone="no"?><svg xmlns="http://www.w3.org/2000/svg" xmlns:xlink="http://www.w3.org/1999/xlink" contentScriptType="application/ecmascript" contentStyleType="text/css" height="718px" preserveAspectRatio="none" style="width:1371px;height:718px;background:#FFFFFF;" version="1.1" viewBox="0 0 1371 718" width="1371px" zoomAndPan="magnify"><defs><filter height="300%" id="fmbdn22zs4o5f" width="300%" x="-1" y="-1"><feGaussianBlur result="blurOut" stdDeviation="2.0"/><feColorMatrix in="blurOut" result="blurOut2" type="matrix" values="0 0 0 0 0 0 0 0 0 0 0 0 0 0 0 0 0 0 .4 0"/><feOffset dx="4.0" dy="4.0" in="blurOut2" result="blurOut3"/><feBlend in="SourceGraphic" in2="blurOut3" mode="normal"/></filter></defs><g><!--MD5=[6b5d2134b1718deef408d3baff1e0eed]
class CARS--><rect codeLine="2" fill="#FEFECE" filter="url(#fmbdn22zs4o5f)" height="48" id="CARS" style="stroke:#A80036;stroke-width:1.5;" width="63" x="53.2488" y="20"/><ellipse cx="68.2488" cy="36" fill="#ADD1B2" rx="11" ry="11" style="stroke:#A80036;stroke-width:1.0;"/><path d="M70.5926,31.6719 C69.6551,31.2344 69.0613,31.0938 68.1863,31.0938 C65.5613,31.0938 63.5613,33.1719 63.5613,35.8906 L63.5613,37.0156 C63.5613,39.5938 65.6707,41.4844 68.5613,41.4844 C69.7801,41.4844 70.9363,41.1875 71.6863,40.6406 C72.2644,40.2344 72.5926,39.7813 72.5926,39.3906 C72.5926,38.9375 72.2019,38.5469 71.7332,38.5469 C71.5144,38.5469 71.3113,38.625 71.1238,38.8125 C70.6707,39.2969 70.6707,39.2969 70.4832,39.3906 C70.0613,39.6563 69.3738,39.7813 68.6082,39.7813 C66.5613,39.7813 65.2644,38.6875 65.2644,36.9844 L65.2644,35.8906 C65.2644,34.1094 66.5144,32.7969 68.2488,32.7969 C68.8269,32.7969 69.4363,32.9531 69.9051,33.2031 C70.3894,33.4844 70.5613,33.7031 70.6551,34.1094 C70.7176,34.5156 70.7488,34.6406 70.8894,34.7656 C71.0301,34.9063 71.2644,35.0156 71.4832,35.0156 C71.7488,35.0156 72.0144,34.875 72.1863,34.6563 C72.2957,34.5 72.3269,34.3125 72.3269,33.8906 L72.3269,32.4688 C72.3269,32.0313 72.3113,31.9063 72.2176,31.75 C72.0613,31.4844 71.7801,31.3438 71.4832,31.3438 C71.1863,31.3438 70.9832,31.4375 70.7644,31.75 L70.5926,31.6719 Z " fill="#000000"/><text fill="#000000" font-family="sans-serif" font-size="12" lengthAdjust="spacing" textLength="31" x="82.2488" y="40.1543">CARS</text><line style="stroke:#A80036;stroke-width:1.5;" x1="54.2488" x2="115.2488" y1="52" y2="52"/><line style="stroke:#A80036;stroke-width:1.5;" x1="54.2488" x2="115.2488" y1="60" y2="60"/><!--MD5=[3e63a3587cfc3a4187c5476b2379735b]
class ParkingSite--><rect codeLine="3" fill="#FEFECE" filter="url(#fmbdn22zs4o5f)" height="60.8047" id="ParkingSite" style="stroke:#A80036;stroke-width:1.5;" width="101" x="113.2488" y="170.5"/><ellipse cx="128.2488" cy="186.5" fill="#ADD1B2" rx="11" ry="11" style="stroke:#A80036;stroke-width:1.0;"/><path d="M130.5926,182.1719 C129.6551,181.7344 129.0613,181.5938 128.1863,181.5938 C125.5613,181.5938 123.5613,183.6719 123.5613,186.3906 L123.5613,187.5156 C123.5613,190.0938 125.6707,191.9844 128.5613,191.9844 C129.7801,191.9844 130.9363,191.6875 131.6863,191.1406 C132.2644,190.7344 132.5926,190.2813 132.5926,189.8906 C132.5926,189.4375 132.2019,189.0469 131.7332,189.0469 C131.5144,189.0469 131.3113,189.125 131.1238,189.3125 C130.6707,189.7969 130.6707,189.7969 130.4832,189.8906 C130.0613,190.1563 129.3738,190.2813 128.6082,190.2813 C126.5613,190.2813 125.2644,189.1875 125.2644,187.4844 L125.2644,186.3906 C125.2644,184.6094 126.5144,183.2969 128.2488,183.2969 C128.8269,183.2969 129.4363,183.4531 129.9051,183.7031 C130.3894,183.9844 130.5613,184.2031 130.6551,184.6094 C130.7176,185.0156 130.7488,185.1406 130.8894,185.2656 C131.0301,185.4063 131.2644,185.5156 131.4832,185.5156 C131.7488,185.5156 132.0144,185.375 132.1863,185.1563 C132.2957,185 132.3269,184.8125 132.3269,184.3906 L132.3269,182.9688 C132.3269,182.5313 132.3113,182.4063 132.2176,182.25 C132.0613,181.9844 131.7801,181.8438 131.4832,181.8438 C131.1863,181.8438 130.9832,181.9375 130.7644,182.25 L130.5926,182.1719 Z " fill="#000000"/><text fill="#000000" font-family="sans-serif" font-size="12" lengthAdjust="spacing" textLength="69" x="142.2488" y="190.6543">Parking site</text><line style="stroke:#A80036;stroke-width:1.5;" x1="114.2488" x2="213.2488" y1="202.5" y2="202.5"/><ellipse cx="124.2488" cy="213.5" rx="3" ry="3" style="stroke:#038048;stroke-width:1.0;fill:none;"/><text fill="#000000" font-family="sans-serif" font-size="11" lengthAdjust="spacing" textLength="12" x="133.2488" y="216.7104">ID</text><line style="stroke:#A80036;stroke-width:1.5;" x1="114.2488" x2="213.2488" y1="223.3047" y2="223.3047"/><!--MD5=[0f39e4cb6f03951afbf6d14bd2505654]
class Address--><rect codeLine="4" fill="#FEFECE" filter="url(#fmbdn22zs4o5f)" height="86.4141" id="Address" style="stroke:#A80036;stroke-width:1.5;" width="83" x="106.2488" y="321"/><ellipse cx="121.2488" cy="337" fill="#ADD1B2" rx="11" ry="11" style="stroke:#A80036;stroke-width:1.0;"/><path d="M123.5926,332.6719 C122.6551,332.2344 122.0613,332.0938 121.1863,332.0938 C118.5613,332.0938 116.5613,334.1719 116.5613,336.8906 L116.5613,338.0156 C116.5613,340.5938 118.6707,342.4844 121.5613,342.4844 C122.7801,342.4844 123.9363,342.1875 124.6863,341.6406 C125.2644,341.2344 125.5926,340.7813 125.5926,340.3906 C125.5926,339.9375 125.2019,339.5469 124.7332,339.5469 C124.5144,339.5469 124.3113,339.625 124.1238,339.8125 C123.6707,340.2969 123.6707,340.2969 123.4832,340.3906 C123.0613,340.6563 122.3738,340.7813 121.6082,340.7813 C119.5613,340.7813 118.2644,339.6875 118.2644,337.9844 L118.2644,336.8906 C118.2644,335.1094 119.5144,333.7969 121.2488,333.7969 C121.8269,333.7969 122.4363,333.9531 122.9051,334.2031 C123.3894,334.4844 123.5613,334.7031 123.6551,335.1094 C123.7176,335.5156 123.7488,335.6406 123.8894,335.7656 C124.0301,335.9063 124.2644,336.0156 124.4832,336.0156 C124.7488,336.0156 125.0144,335.875 125.1863,335.6563 C125.2957,335.5 125.3269,335.3125 125.3269,334.8906 L125.3269,333.4688 C125.3269,333.0313 125.3113,332.9063 125.2176,332.75 C125.0613,332.4844 124.7801,332.3438 124.4832,332.3438 C124.1863,332.3438 123.9832,332.4375 123.7644,332.75 L123.5926,332.6719 Z " fill="#000000"/><text fill="#000000" font-family="sans-serif" font-size="12" lengthAdjust="spacing" textLength="51" x="135.2488" y="341.1543">Address</text><line style="stroke:#A80036;stroke-width:1.5;" x1="107.2488" x2="188.2488" y1="353" y2="353"/><ellipse cx="117.2488" cy="364" rx="3" ry="3" style="stroke:#038048;stroke-width:1.0;fill:none;"/><text fill="#000000" font-family="sans-serif" font-size="11" lengthAdjust="spacing" textLength="22" x="126.2488" y="367.2104">City</text><ellipse cx="117.2488" cy="376.8047" rx="3" ry="3" style="stroke:#038048;stroke-width:1.0;fill:none;"/><text fill="#000000" font-family="sans-serif" font-size="11" lengthAdjust="spacing" textLength="29" x="126.2488" y="380.0151">Type</text><ellipse cx="117.2488" cy="389.6094" rx="3" ry="3" style="stroke:#038048;stroke-width:1.0;fill:none;"/><text fill="#000000" font-family="sans-serif" font-size="11" lengthAdjust="spacing" textLength="34" x="126.2488" y="392.8198">Name</text><line style="stroke:#A80036;stroke-width:1.5;" x1="107.2488" x2="188.2488" y1="399.4141" y2="399.4141"/><!--MD5=[7421f545a0d8420c5bec41e74b387d9c]
class Employee--><rect codeLine="5" fill="#FEFECE" filter="url(#fmbdn22zs4o5f)" height="86.4141" id="Employee" style="stroke:#A80036;stroke-width:1.5;" width="92" x="307.7485" y="321"/><ellipse cx="322.7485" cy="337" fill="#ADD1B2" rx="11" ry="11" style="stroke:#A80036;stroke-width:1.0;"/><path d="M325.0923,332.6719 C324.1548,332.2344 323.561,332.0938 322.686,332.0938 C320.061,332.0938 318.061,334.1719 318.061,336.8906 L318.061,338.0156 C318.061,340.5938 320.1704,342.4844 323.061,342.4844 C324.2798,342.4844 325.436,342.1875 326.186,341.6406 C326.7641,341.2344 327.0923,340.7813 327.0923,340.3906 C327.0923,339.9375 326.7016,339.5469 326.2329,339.5469 C326.0141,339.5469 325.811,339.625 325.6235,339.8125 C325.1704,340.2969 325.1704,340.2969 324.9829,340.3906 C324.561,340.6563 323.8735,340.7813 323.1079,340.7813 C321.061,340.7813 319.7641,339.6875 319.7641,337.9844 L319.7641,336.8906 C319.7641,335.1094 321.0141,333.7969 322.7485,333.7969 C323.3266,333.7969 323.936,333.9531 324.4048,334.2031 C324.8891,334.4844 325.061,334.7031 325.1548,335.1094 C325.2173,335.5156 325.2485,335.6406 325.3891,335.7656 C325.5298,335.9063 325.7641,336.0156 325.9829,336.0156 C326.2485,336.0156 326.5141,335.875 326.686,335.6563 C326.7954,335.5 326.8266,335.3125 326.8266,334.8906 L326.8266,333.4688 C326.8266,333.0313 326.811,332.9063 326.7173,332.75 C326.561,332.4844 326.2798,332.3438 325.9829,332.3438 C325.686,332.3438 325.4829,332.4375 325.2641,332.75 L325.0923,332.6719 Z " fill="#000000"/><text fill="#000000" font-family="sans-serif" font-size="12" lengthAdjust="spacing" textLength="60" x="336.7485" y="341.1543">Employee</text><line style="stroke:#A80036;stroke-width:1.5;" x1="308.7485" x2="398.7485" y1="353" y2="353"/><ellipse cx="318.7485" cy="364" rx="3" ry="3" style="stroke:#038048;stroke-width:1.0;fill:none;"/><text fill="#000000" font-family="sans-serif" font-size="11" lengthAdjust="spacing" textLength="12" x="327.7485" y="367.2104">ID</text><ellipse cx="318.7485" cy="376.8047" rx="3" ry="3" style="stroke:#038048;stroke-width:1.0;fill:none;"/><text fill="#000000" font-family="sans-serif" font-size="11" lengthAdjust="spacing" textLength="34" x="327.7485" y="380.0151">Name</text><ellipse cx="318.7485" cy="389.6094" rx="3" ry="3" style="stroke:#038048;stroke-width:1.0;fill:none;"/><text fill="#000000" font-family="sans-serif" font-size="11" lengthAdjust="spacing" textLength="52" x="327.7485" y="392.8198">Surname</text><line style="stroke:#A80036;stroke-width:1.5;" x1="308.7485" x2="398.7485" y1="399.4141" y2="399.4141"/><!--MD5=[3f0ef310aaa84a542276992c5216544d]
class Car--><rect codeLine="6" fill="#FEFECE" filter="url(#fmbdn22zs4o5f)" height="60.8047" id="Car" style="stroke:#A80036;stroke-width:1.5;" width="52" x="516.7485" y="333.5"/><ellipse cx="531.7485" cy="349.5" fill="#ADD1B2" rx="11" ry="11" style="stroke:#A80036;stroke-width:1.0;"/><path d="M534.0923,345.1719 C533.1548,344.7344 532.561,344.5938 531.686,344.5938 C529.061,344.5938 527.061,346.6719 527.061,349.3906 L527.061,350.5156 C527.061,353.0938 529.1704,354.9844 532.061,354.9844 C533.2798,354.9844 534.436,354.6875 535.186,354.1406 C535.7641,353.7344 536.0923,353.2813 536.0923,352.8906 C536.0923,352.4375 535.7016,352.0469 535.2329,352.0469 C535.0141,352.0469 534.811,352.125 534.6235,352.3125 C534.1704,352.7969 534.1704,352.7969 533.9829,352.8906 C533.561,353.1563 532.8735,353.2813 532.1079,353.2813 C530.061,353.2813 528.7641,352.1875 528.7641,350.4844 L528.7641,349.3906 C528.7641,347.6094 530.0141,346.2969 531.7485,346.2969 C532.3266,346.2969 532.936,346.4531 533.4048,346.7031 C533.8891,346.9844 534.061,347.2031 534.1548,347.6094 C534.2173,348.0156 534.2485,348.1406 534.3891,348.2656 C534.5298,348.4063 534.7641,348.5156 534.9829,348.5156 C535.2485,348.5156 535.5141,348.375 535.686,348.1563 C535.7954,348 535.8266,347.8125 535.8266,347.3906 L535.8266,345.9688 C535.8266,345.5313 535.811,345.4063 535.7173,345.25 C535.561,344.9844 535.2798,344.8438 534.9829,344.8438 C534.686,344.8438 534.4829,344.9375 534.2641,345.25 L534.0923,345.1719 Z " fill="#000000"/><text fill="#000000" font-family="sans-serif" font-size="12" lengthAdjust="spacing" textLength="20" x="545.7485" y="353.6543">Car</text><line style="stroke:#A80036;stroke-width:1.5;" x1="517.7485" x2="567.7485" y1="365.5" y2="365.5"/><ellipse cx="527.7485" cy="376.5" rx="3" ry="3" style="stroke:#038048;stroke-width:1.0;fill:none;"/><text fill="#000000" font-family="sans-serif" font-size="11" lengthAdjust="spacing" textLength="21" x="536.7485" y="379.7104">Tag</text><line style="stroke:#A80036;stroke-width:1.5;" x1="517.7485" x2="567.7485" y1="386.3047" y2="386.3047"/><!--MD5=[590439ac31b017de7682903b3eb7025d]
class CarModel--><rect codeLine="7" fill="#FEFECE" filter="url(#fmbdn22zs4o5f)" height="48" id="CarModel" style="stroke:#A80036;stroke-width:1.5;" width="93" x="496.2485" y="503"/><ellipse cx="511.2485" cy="519" fill="#ADD1B2" rx="11" ry="11" style="stroke:#A80036;stroke-width:1.0;"/><path d="M513.5922,514.6719 C512.6547,514.2344 512.061,514.0938 511.186,514.0938 C508.561,514.0938 506.561,516.1719 506.561,518.8906 L506.561,520.0156 C506.561,522.5938 508.6704,524.4844 511.561,524.4844 C512.7797,524.4844 513.936,524.1875 514.686,523.6406 C515.2641,523.2344 515.5922,522.7813 515.5922,522.3906 C515.5922,521.9375 515.2016,521.5469 514.7329,521.5469 C514.5141,521.5469 514.311,521.625 514.1235,521.8125 C513.6704,522.2969 513.6704,522.2969 513.4829,522.3906 C513.061,522.6563 512.3735,522.7813 511.6079,522.7813 C509.561,522.7813 508.2641,521.6875 508.2641,519.9844 L508.2641,518.8906 C508.2641,517.1094 509.5141,515.7969 511.2485,515.7969 C511.8266,515.7969 512.436,515.9531 512.9047,516.2031 C513.3891,516.4844 513.561,516.7031 513.6547,517.1094 C513.7172,517.5156 513.7485,517.6406 513.8891,517.7656 C514.0297,517.9063 514.2641,518.0156 514.4829,518.0156 C514.7485,518.0156 515.0141,517.875 515.186,517.6563 C515.2954,517.5 515.3266,517.3125 515.3266,516.8906 L515.3266,515.4688 C515.3266,515.0313 515.311,514.9063 515.2172,514.75 C515.061,514.4844 514.7797,514.3438 514.4829,514.3438 C514.186,514.3438 513.9829,514.4375 513.7641,514.75 L513.5922,514.6719 Z " fill="#000000"/><text fill="#000000" font-family="sans-serif" font-size="12" lengthAdjust="spacing" textLength="61" x="525.2485" y="523.1543">Car Model</text><line style="stroke:#A80036;stroke-width:1.5;" x1="497.2485" x2="588.2485" y1="535" y2="535"/><line style="stroke:#A80036;stroke-width:1.5;" x1="497.2485" x2="588.2485" y1="543" y2="543"/><!--MD5=[054f87937b19fa476c097d32744151b9]
class Insurer--><rect codeLine="24" fill="#FEFECE" filter="url(#fmbdn22zs4o5f)" height="73.6094" id="Insurer" style="stroke:#A80036;stroke-width:1.5;" width="74" x="632.7485" y="327"/><ellipse cx="647.7485" cy="343" fill="#ADD1B2" rx="11" ry="11" style="stroke:#A80036;stroke-width:1.0;"/><path d="M650.0923,338.6719 C649.1548,338.2344 648.561,338.0938 647.686,338.0938 C645.061,338.0938 643.061,340.1719 643.061,342.8906 L643.061,344.0156 C643.061,346.5938 645.1704,348.4844 648.061,348.4844 C649.2798,348.4844 650.436,348.1875 651.186,347.6406 C651.7641,347.2344 652.0923,346.7813 652.0923,346.3906 C652.0923,345.9375 651.7016,345.5469 651.2329,345.5469 C651.0141,345.5469 650.811,345.625 650.6235,345.8125 C650.1704,346.2969 650.1704,346.2969 649.9829,346.3906 C649.561,346.6563 648.8735,346.7813 648.1079,346.7813 C646.061,346.7813 644.7641,345.6875 644.7641,343.9844 L644.7641,342.8906 C644.7641,341.1094 646.0141,339.7969 647.7485,339.7969 C648.3266,339.7969 648.936,339.9531 649.4048,340.2031 C649.8891,340.4844 650.061,340.7031 650.1548,341.1094 C650.2173,341.5156 650.2485,341.6406 650.3891,341.7656 C650.5298,341.9063 650.7641,342.0156 650.9829,342.0156 C651.2485,342.0156 651.5141,341.875 651.686,341.6563 C651.7954,341.5 651.8266,341.3125 651.8266,340.8906 L651.8266,339.4688 C651.8266,339.0313 651.811,338.9063 651.7173,338.75 C651.561,338.4844 651.2798,338.3438 650.9829,338.3438 C650.686,338.3438 650.4829,338.4375 650.2641,338.75 L650.0923,338.6719 Z " fill="#000000"/><text fill="#000000" font-family="sans-serif" font-size="12" lengthAdjust="spacing" textLength="42" x="661.7485" y="347.1543">Insurer</text><line style="stroke:#A80036;stroke-width:1.5;" x1="633.7485" x2="705.7485" y1="359" y2="359"/><ellipse cx="643.7485" cy="370" rx="3" ry="3" style="stroke:#038048;stroke-width:1.0;fill:none;"/><text fill="#000000" font-family="sans-serif" font-size="11" lengthAdjust="spacing" textLength="12" x="652.7485" y="373.2104">ID</text><ellipse cx="643.7485" cy="382.8047" rx="3" ry="3" style="stroke:#038048;stroke-width:1.0;fill:none;"/><text fill="#000000" font-family="sans-serif" font-size="11" lengthAdjust="spacing" textLength="34" x="652.7485" y="386.0151">Name</text><line style="stroke:#A80036;stroke-width:1.5;" x1="633.7485" x2="705.7485" y1="392.6094" y2="392.6094"/><!--MD5=[c447b73724e2937b40b9f78fc0fede8e]
class Insurance--><rect codeLine="25" fill="#FEFECE" filter="url(#fmbdn22zs4o5f)" height="60.8047" id="Insurance" style="stroke:#A80036;stroke-width:1.5;" width="90" x="608.7485" y="170.5"/><ellipse cx="623.7485" cy="186.5" fill="#ADD1B2" rx="11" ry="11" style="stroke:#A80036;stroke-width:1.0;"/><path d="M626.0923,182.1719 C625.1548,181.7344 624.561,181.5938 623.686,181.5938 C621.061,181.5938 619.061,183.6719 619.061,186.3906 L619.061,187.5156 C619.061,190.0938 621.1704,191.9844 624.061,191.9844 C625.2798,191.9844 626.436,191.6875 627.186,191.1406 C627.7641,190.7344 628.0923,190.2813 628.0923,189.8906 C628.0923,189.4375 627.7016,189.0469 627.2329,189.0469 C627.0141,189.0469 626.811,189.125 626.6235,189.3125 C626.1704,189.7969 626.1704,189.7969 625.9829,189.8906 C625.561,190.1563 624.8735,190.2813 624.1079,190.2813 C622.061,190.2813 620.7641,189.1875 620.7641,187.4844 L620.7641,186.3906 C620.7641,184.6094 622.0141,183.2969 623.7485,183.2969 C624.3266,183.2969 624.936,183.4531 625.4048,183.7031 C625.8891,183.9844 626.061,184.2031 626.1548,184.6094 C626.2173,185.0156 626.2485,185.1406 626.3891,185.2656 C626.5298,185.4063 626.7641,185.5156 626.9829,185.5156 C627.2485,185.5156 627.5141,185.375 627.686,185.1563 C627.7954,185 627.8266,184.8125 627.8266,184.3906 L627.8266,182.9688 C627.8266,182.5313 627.811,182.4063 627.7173,182.25 C627.561,181.9844 627.2798,181.8438 626.9829,181.8438 C626.686,181.8438 626.4829,181.9375 626.2641,182.25 L626.0923,182.1719 Z " fill="#000000"/><text fill="#000000" font-family="sans-serif" font-size="12" lengthAdjust="spacing" textLength="58" x="637.7485" y="190.6543">Insurance</text><line style="stroke:#A80036;stroke-width:1.5;" x1="609.7485" x2="697.7485" y1="202.5" y2="202.5"/><ellipse cx="619.7485" cy="213.5" rx="3" ry="3" style="stroke:#038048;stroke-width:1.0;fill:none;"/><text fill="#000000" font-family="sans-serif" font-size="11" lengthAdjust="spacing" textLength="29" x="628.7485" y="216.7104">Type</text><line style="stroke:#A80036;stroke-width:1.5;" x1="609.7485" x2="697.7485" y1="223.3047" y2="223.3047"/><!--MD5=[2ce0c9fb7f55b1e256ab28a8ea6b25ec]
class Customer--><rect codeLine="33" fill="#FEFECE" filter="url(#fmbdn22zs4o5f)" height="86.4141" id="Customer" style="stroke:#A80036;stroke-width:1.5;" width="99" x="962.2485" y="484"/><ellipse cx="981.2985" cy="500" fill="#ADD1B2" rx="11" ry="11" style="stroke:#A80036;stroke-width:1.0;"/><path d="M983.6423,495.6719 C982.7048,495.2344 982.111,495.0938 981.236,495.0938 C978.611,495.0938 976.611,497.1719 976.611,499.8906 L976.611,501.0156 C976.611,503.5938 978.7204,505.4844 981.611,505.4844 C982.8298,505.4844 983.986,505.1875 984.736,504.6406 C985.3141,504.2344 985.6423,503.7813 985.6423,503.3906 C985.6423,502.9375 985.2516,502.5469 984.7829,502.5469 C984.5641,502.5469 984.361,502.625 984.1735,502.8125 C983.7204,503.2969 983.7204,503.2969 983.5329,503.3906 C983.111,503.6563 982.4235,503.7813 981.6579,503.7813 C979.611,503.7813 978.3141,502.6875 978.3141,500.9844 L978.3141,499.8906 C978.3141,498.1094 979.5641,496.7969 981.2985,496.7969 C981.8766,496.7969 982.486,496.9531 982.9548,497.2031 C983.4391,497.4844 983.611,497.7031 983.7048,498.1094 C983.7673,498.5156 983.7985,498.6406 983.9391,498.7656 C984.0798,498.9063 984.3141,499.0156 984.5329,499.0156 C984.7985,499.0156 985.0641,498.875 985.236,498.6563 C985.3454,498.5 985.3766,498.3125 985.3766,497.8906 L985.3766,496.4688 C985.3766,496.0313 985.361,495.9063 985.2673,495.75 C985.111,495.4844 984.8298,495.3438 984.5329,495.3438 C984.236,495.3438 984.0329,495.4375 983.8141,495.75 L983.6423,495.6719 Z " fill="#000000"/><text fill="#000000" font-family="sans-serif" font-size="12" lengthAdjust="spacing" textLength="58" x="996.1985" y="504.1543">Customer</text><line style="stroke:#A80036;stroke-width:1.5;" x1="963.2485" x2="1060.2485" y1="516" y2="516"/><ellipse cx="973.2485" cy="527" rx="3" ry="3" style="stroke:#038048;stroke-width:1.0;fill:none;"/><text fill="#000000" font-family="sans-serif" font-size="11" lengthAdjust="spacing" textLength="34" x="982.2485" y="530.2104">Name</text><ellipse cx="973.2485" cy="539.8047" rx="3" ry="3" style="stroke:#038048;stroke-width:1.0;fill:none;"/><text fill="#000000" font-family="sans-serif" font-size="11" lengthAdjust="spacing" textLength="52" x="982.2485" y="543.0151">Surname</text><ellipse cx="973.2485" cy="552.6094" rx="3" ry="3" style="stroke:#038048;stroke-width:1.0;fill:none;"/><text fill="#000000" font-family="sans-serif" font-size="11" lengthAdjust="spacing" textLength="73" x="982.2485" y="555.8198">ID document</text><line style="stroke:#A80036;stroke-width:1.5;" x1="963.2485" x2="1060.2485" y1="562.4141" y2="562.4141"/><!--MD5=[5999a290c6b468e29c073bd2553f28d1]
class DriverLicense--><rect codeLine="34" fill="#FEFECE" filter="url(#fmbdn22zs4o5f)" height="73.6094" id="DriverLicense" style="stroke:#A80036;stroke-width:1.5;" width="116" x="879.7485" y="631"/><ellipse cx="894.7485" cy="647" fill="#ADD1B2" rx="11" ry="11" style="stroke:#A80036;stroke-width:1.0;"/><path d="M897.0923,642.6719 C896.1548,642.2344 895.561,642.0938 894.686,642.0938 C892.061,642.0938 890.061,644.1719 890.061,646.8906 L890.061,648.0156 C890.061,650.5938 892.1704,652.4844 895.061,652.4844 C896.2798,652.4844 897.436,652.1875 898.186,651.6406 C898.7641,651.2344 899.0923,650.7813 899.0923,650.3906 C899.0923,649.9375 898.7016,649.5469 898.2329,649.5469 C898.0141,649.5469 897.811,649.625 897.6235,649.8125 C897.1704,650.2969 897.1704,650.2969 896.9829,650.3906 C896.561,650.6563 895.8735,650.7813 895.1079,650.7813 C893.061,650.7813 891.7641,649.6875 891.7641,647.9844 L891.7641,646.8906 C891.7641,645.1094 893.0141,643.7969 894.7485,643.7969 C895.3266,643.7969 895.936,643.9531 896.4048,644.2031 C896.8891,644.4844 897.061,644.7031 897.1548,645.1094 C897.2173,645.5156 897.2485,645.6406 897.3891,645.7656 C897.5298,645.9063 897.7641,646.0156 897.9829,646.0156 C898.2485,646.0156 898.5141,645.875 898.686,645.6563 C898.7954,645.5 898.8266,645.3125 898.8266,644.8906 L898.8266,643.4688 C898.8266,643.0313 898.811,642.9063 898.7173,642.75 C898.561,642.4844 898.2798,642.3438 897.9829,642.3438 C897.686,642.3438 897.4829,642.4375 897.2641,642.75 L897.0923,642.6719 Z " fill="#000000"/><text fill="#000000" font-family="sans-serif" font-size="12" lengthAdjust="spacing" textLength="84" x="908.7485" y="651.1543">Driver license</text><line style="stroke:#A80036;stroke-width:1.5;" x1="880.7485" x2="994.7485" y1="663" y2="663"/><ellipse cx="890.7485" cy="674" rx="3" ry="3" style="stroke:#038048;stroke-width:1.0;fill:none;"/><text fill="#000000" font-family="sans-serif" font-size="11" lengthAdjust="spacing" textLength="12" x="899.7485" y="677.2104">ID</text><ellipse cx="890.7485" cy="686.8047" rx="3" ry="3" style="stroke:#038048;stroke-width:1.0;fill:none;"/><text fill="#000000" font-family="sans-serif" font-size="11" lengthAdjust="spacing" textLength="86" x="899.7485" y="690.0151">Expiration date</text><line style="stroke:#A80036;stroke-width:1.5;" x1="880.7485" x2="994.7485" y1="696.6094" y2="696.6094"/><!--MD5=[91d4151b6d4c9a3d01b6d84b2458eece]
class CreditCard--><rect codeLine="35" fill="#FEFECE" filter="url(#fmbdn22zs4o5f)" height="73.6094" id="CreditCard" style="stroke:#A80036;stroke-width:1.5;" width="112" x="1030.7485" y="631"/><ellipse cx="1051.5985" cy="647" fill="#ADD1B2" rx="11" ry="11" style="stroke:#A80036;stroke-width:1.0;"/><path d="M1053.9423,642.6719 C1053.0048,642.2344 1052.411,642.0938 1051.536,642.0938 C1048.911,642.0938 1046.911,644.1719 1046.911,646.8906 L1046.911,648.0156 C1046.911,650.5938 1049.0204,652.4844 1051.911,652.4844 C1053.1298,652.4844 1054.286,652.1875 1055.036,651.6406 C1055.6141,651.2344 1055.9423,650.7813 1055.9423,650.3906 C1055.9423,649.9375 1055.5516,649.5469 1055.0829,649.5469 C1054.8641,649.5469 1054.661,649.625 1054.4735,649.8125 C1054.0204,650.2969 1054.0204,650.2969 1053.8329,650.3906 C1053.411,650.6563 1052.7235,650.7813 1051.9579,650.7813 C1049.911,650.7813 1048.6141,649.6875 1048.6141,647.9844 L1048.6141,646.8906 C1048.6141,645.1094 1049.8641,643.7969 1051.5985,643.7969 C1052.1766,643.7969 1052.786,643.9531 1053.2548,644.2031 C1053.7391,644.4844 1053.911,644.7031 1054.0048,645.1094 C1054.0673,645.5156 1054.0985,645.6406 1054.2391,645.7656 C1054.3798,645.9063 1054.6141,646.0156 1054.8329,646.0156 C1055.0985,646.0156 1055.3641,645.875 1055.536,645.6563 C1055.6454,645.5 1055.6766,645.3125 1055.6766,644.8906 L1055.6766,643.4688 C1055.6766,643.0313 1055.661,642.9063 1055.5673,642.75 C1055.411,642.4844 1055.1298,642.3438 1054.8329,642.3438 C1054.536,642.3438 1054.3329,642.4375 1054.1141,642.75 L1053.9423,642.6719 Z " fill="#000000"/><text fill="#000000" font-family="sans-serif" font-size="12" lengthAdjust="spacing" textLength="67" x="1066.8985" y="651.1543">Credit card</text><line style="stroke:#A80036;stroke-width:1.5;" x1="1031.7485" x2="1141.7485" y1="663" y2="663"/><ellipse cx="1041.7485" cy="674" rx="3" ry="3" style="stroke:#038048;stroke-width:1.0;fill:none;"/><text fill="#000000" font-family="sans-serif" font-size="11" lengthAdjust="spacing" textLength="45" x="1050.7485" y="677.2104">Number</text><ellipse cx="1041.7485" cy="686.8047" rx="3" ry="3" style="stroke:#038048;stroke-width:1.0;fill:none;"/><text fill="#000000" font-family="sans-serif" font-size="11" lengthAdjust="spacing" textLength="86" x="1050.7485" y="690.0151">Expiration date</text><line style="stroke:#A80036;stroke-width:1.5;" x1="1031.7485" x2="1141.7485" y1="696.6094" y2="696.6094"/><!--MD5=[9c46470aa33a0c75e6d1dfdefc2f9c22]
class Reservation--><rect codeLine="45" fill="#FEFECE" filter="url(#fmbdn22zs4o5f)" height="73.6094" id="Reservation" style="stroke:#A80036;stroke-width:1.5;" width="103" x="838.2485" y="327"/><ellipse cx="853.2485" cy="343" fill="#ADD1B2" rx="11" ry="11" style="stroke:#A80036;stroke-width:1.0;"/><path d="M855.5923,338.6719 C854.6548,338.2344 854.061,338.0938 853.186,338.0938 C850.561,338.0938 848.561,340.1719 848.561,342.8906 L848.561,344.0156 C848.561,346.5938 850.6704,348.4844 853.561,348.4844 C854.7798,348.4844 855.936,348.1875 856.686,347.6406 C857.2641,347.2344 857.5923,346.7813 857.5923,346.3906 C857.5923,345.9375 857.2016,345.5469 856.7329,345.5469 C856.5141,345.5469 856.311,345.625 856.1235,345.8125 C855.6704,346.2969 855.6704,346.2969 855.4829,346.3906 C855.061,346.6563 854.3735,346.7813 853.6079,346.7813 C851.561,346.7813 850.2641,345.6875 850.2641,343.9844 L850.2641,342.8906 C850.2641,341.1094 851.5141,339.7969 853.2485,339.7969 C853.8266,339.7969 854.436,339.9531 854.9048,340.2031 C855.3891,340.4844 855.561,340.7031 855.6548,341.1094 C855.7173,341.5156 855.7485,341.6406 855.8891,341.7656 C856.0298,341.9063 856.2641,342.0156 856.4829,342.0156 C856.7485,342.0156 857.0141,341.875 857.186,341.6563 C857.2954,341.5 857.3266,341.3125 857.3266,340.8906 L857.3266,339.4688 C857.3266,339.0313 857.311,338.9063 857.2173,338.75 C857.061,338.4844 856.7798,338.3438 856.4829,338.3438 C856.186,338.3438 855.9829,338.4375 855.7641,338.75 L855.5923,338.6719 Z " fill="#000000"/><text fill="#000000" font-family="sans-serif" font-size="12" lengthAdjust="spacing" textLength="71" x="867.2485" y="347.1543">Reservation</text><line style="stroke:#A80036;stroke-width:1.5;" x1="839.2485" x2="940.2485" y1="359" y2="359"/><ellipse cx="849.2485" cy="370" rx="3" ry="3" style="stroke:#038048;stroke-width:1.0;fill:none;"/><text fill="#000000" font-family="sans-serif" font-size="11" lengthAdjust="spacing" textLength="58" x="858.2485" y="373.2104">From date</text><ellipse cx="849.2485" cy="382.8047" rx="3" ry="3" style="stroke:#038048;stroke-width:1.0;fill:none;"/><text fill="#000000" font-family="sans-serif" font-size="11" lengthAdjust="spacing" textLength="44" x="858.2485" y="386.0151">To date</text><line style="stroke:#A80036;stroke-width:1.5;" x1="839.2485" x2="940.2485" y1="392.6094" y2="392.6094"/><!--MD5=[144f148c2aae234e46691563c61c120f]
class RentalContract--><rect codeLine="52" fill="#FEFECE" filter="url(#fmbdn22zs4o5f)" height="86.4141" id="RentalContract" style="stroke:#A80036;stroke-width:1.5;" width="147" x="785.2485" y="158"/><ellipse cx="811.9485" cy="174" fill="#ADD1B2" rx="11" ry="11" style="stroke:#A80036;stroke-width:1.0;"/><path d="M814.2923,169.6719 C813.3548,169.2344 812.761,169.0938 811.886,169.0938 C809.261,169.0938 807.261,171.1719 807.261,173.8906 L807.261,175.0156 C807.261,177.5938 809.3704,179.4844 812.261,179.4844 C813.4798,179.4844 814.636,179.1875 815.386,178.6406 C815.9641,178.2344 816.2923,177.7813 816.2923,177.3906 C816.2923,176.9375 815.9016,176.5469 815.4329,176.5469 C815.2141,176.5469 815.011,176.625 814.8235,176.8125 C814.3704,177.2969 814.3704,177.2969 814.1829,177.3906 C813.761,177.6563 813.0735,177.7813 812.3079,177.7813 C810.261,177.7813 808.9641,176.6875 808.9641,174.9844 L808.9641,173.8906 C808.9641,172.1094 810.2141,170.7969 811.9485,170.7969 C812.5266,170.7969 813.136,170.9531 813.6048,171.2031 C814.0891,171.4844 814.261,171.7031 814.3548,172.1094 C814.4173,172.5156 814.4485,172.6406 814.5891,172.7656 C814.7298,172.9063 814.9641,173.0156 815.1829,173.0156 C815.4485,173.0156 815.7141,172.875 815.886,172.6563 C815.9954,172.5 816.0266,172.3125 816.0266,171.8906 L816.0266,170.4688 C816.0266,170.0313 816.011,169.9063 815.9173,169.75 C815.761,169.4844 815.4798,169.3438 815.1829,169.3438 C814.886,169.3438 814.6829,169.4375 814.4641,169.75 L814.2923,169.6719 Z " fill="#000000"/><text fill="#000000" font-family="sans-serif" font-size="12" lengthAdjust="spacing" textLength="89" x="828.5485" y="178.1543">Rental contract</text><line style="stroke:#A80036;stroke-width:1.5;" x1="786.2485" x2="931.2485" y1="190" y2="190"/><ellipse cx="796.2485" cy="201" rx="3" ry="3" style="stroke:#038048;stroke-width:1.0;fill:none;"/><text fill="#000000" font-family="sans-serif" font-size="11" lengthAdjust="spacing" textLength="58" x="805.2485" y="204.2104">From date</text><ellipse cx="796.2485" cy="213.8047" rx="3" ry="3" style="stroke:#038048;stroke-width:1.0;fill:none;"/><text fill="#000000" font-family="sans-serif" font-size="11" lengthAdjust="spacing" textLength="44" x="805.2485" y="217.0151">To date</text><ellipse cx="796.2485" cy="226.6094" rx="3" ry="3" style="stroke:#038048;stroke-width:1.0;fill:none;"/><text fill="#000000" font-family="sans-serif" font-size="11" lengthAdjust="spacing" textLength="121" x="805.2485" y="229.8198">Customer's signature</text><line style="stroke:#A80036;stroke-width:1.5;" x1="786.2485" x2="931.2485" y1="236.4141" y2="236.4141"/><!--MD5=[764fca796ce7f635542948d8fc39db5e]
class Payment--><rect codeLine="53" fill="#FEFECE" filter="url(#fmbdn22zs4o5f)" height="86.4141" id="Payment" style="stroke:#A80036;stroke-width:1.5;" width="121" x="1122.2475" y="321"/><ellipse cx="1154.7975" cy="337" fill="#ADD1B2" rx="11" ry="11" style="stroke:#A80036;stroke-width:1.0;"/><path d="M1157.1413,332.6719 C1156.2038,332.2344 1155.61,332.0938 1154.735,332.0938 C1152.11,332.0938 1150.11,334.1719 1150.11,336.8906 L1150.11,338.0156 C1150.11,340.5938 1152.2194,342.4844 1155.11,342.4844 C1156.3288,342.4844 1157.485,342.1875 1158.235,341.6406 C1158.8131,341.2344 1159.1413,340.7813 1159.1413,340.3906 C1159.1413,339.9375 1158.7506,339.5469 1158.2819,339.5469 C1158.0631,339.5469 1157.86,339.625 1157.6725,339.8125 C1157.2194,340.2969 1157.2194,340.2969 1157.0319,340.3906 C1156.61,340.6563 1155.9225,340.7813 1155.1569,340.7813 C1153.11,340.7813 1151.8131,339.6875 1151.8131,337.9844 L1151.8131,336.8906 C1151.8131,335.1094 1153.0631,333.7969 1154.7975,333.7969 C1155.3756,333.7969 1155.985,333.9531 1156.4538,334.2031 C1156.9381,334.4844 1157.11,334.7031 1157.2038,335.1094 C1157.2663,335.5156 1157.2975,335.6406 1157.4381,335.7656 C1157.5788,335.9063 1157.8131,336.0156 1158.0319,336.0156 C1158.2975,336.0156 1158.5631,335.875 1158.735,335.6563 C1158.8444,335.5 1158.8756,335.3125 1158.8756,334.8906 L1158.8756,333.4688 C1158.8756,333.0313 1158.86,332.9063 1158.7663,332.75 C1158.61,332.4844 1158.3288,332.3438 1158.0319,332.3438 C1157.735,332.3438 1157.5319,332.4375 1157.3131,332.75 L1157.1413,332.6719 Z " fill="#000000"/><text fill="#000000" font-family="sans-serif" font-size="12" lengthAdjust="spacing" textLength="50" x="1172.6975" y="341.1543">Payment</text><line style="stroke:#A80036;stroke-width:1.5;" x1="1123.2475" x2="1242.2475" y1="353" y2="353"/><ellipse cx="1133.2475" cy="364" rx="3" ry="3" style="stroke:#038048;stroke-width:1.0;fill:none;"/><text fill="#000000" font-family="sans-serif" font-size="11" lengthAdjust="spacing" textLength="95" x="1142.2475" y="367.2104">Damage deposit</text><ellipse cx="1133.2475" cy="376.8047" rx="3" ry="3" style="stroke:#038048;stroke-width:1.0;fill:none;"/><text fill="#000000" font-family="sans-serif" font-size="11" lengthAdjust="spacing" textLength="58" x="1142.2475" y="380.0151">Partial fee</text><ellipse cx="1133.2475" cy="389.6094" rx="3" ry="3" style="stroke:#038048;stroke-width:1.0;fill:none;"/><text fill="#000000" font-family="sans-serif" font-size="11" lengthAdjust="spacing" textLength="52" x="1142.2475" y="392.8198">Total fee</text><line style="stroke:#A80036;stroke-width:1.5;" x1="1123.2475" x2="1242.2475" y1="399.4141" y2="399.4141"/><!--MD5=[75ec85fc313fa75958b62cd1fc2ce9f6]
class Checkout--><rect codeLine="68" fill="#FEFECE" filter="url(#fmbdn22zs4o5f)" height="73.6094" id="Checkout" style="stroke:#A80036;stroke-width:1.5;" width="147" x="462.2485" y="7"/><ellipse cx="501.5485" cy="23" fill="#ADD1B2" rx="11" ry="11" style="stroke:#A80036;stroke-width:1.0;"/><path d="M503.8923,18.6719 C502.9548,18.2344 502.361,18.0938 501.486,18.0938 C498.861,18.0938 496.861,20.1719 496.861,22.8906 L496.861,24.0156 C496.861,26.5938 498.9704,28.4844 501.861,28.4844 C503.0798,28.4844 504.236,28.1875 504.986,27.6406 C505.5641,27.2344 505.8923,26.7813 505.8923,26.3906 C505.8923,25.9375 505.5016,25.5469 505.0329,25.5469 C504.8141,25.5469 504.611,25.625 504.4235,25.8125 C503.9704,26.2969 503.9704,26.2969 503.7829,26.3906 C503.361,26.6563 502.6735,26.7813 501.9079,26.7813 C499.861,26.7813 498.5641,25.6875 498.5641,23.9844 L498.5641,22.8906 C498.5641,21.1094 499.8141,19.7969 501.5485,19.7969 C502.1266,19.7969 502.736,19.9531 503.2048,20.2031 C503.6891,20.4844 503.861,20.7031 503.9548,21.1094 C504.0173,21.5156 504.0485,21.6406 504.1891,21.7656 C504.3298,21.9063 504.5641,22.0156 504.7829,22.0156 C505.0485,22.0156 505.3141,21.875 505.486,21.6563 C505.5954,21.5 505.6266,21.3125 505.6266,20.8906 L505.6266,19.4688 C505.6266,19.0313 505.611,18.9063 505.5173,18.75 C505.361,18.4844 505.0798,18.3438 504.7829,18.3438 C504.486,18.3438 504.2829,18.4375 504.0641,18.75 L503.8923,18.6719 Z " fill="#000000"/><text fill="#000000" font-family="sans-serif" font-size="12" lengthAdjust="spacing" textLength="61" x="520.9485" y="27.1543">Check-out</text><line style="stroke:#A80036;stroke-width:1.5;" x1="463.2485" x2="608.2485" y1="39" y2="39"/><ellipse cx="473.2485" cy="50" rx="3" ry="3" style="stroke:#038048;stroke-width:1.0;fill:none;"/><text fill="#000000" font-family="sans-serif" font-size="11" lengthAdjust="spacing" textLength="121" x="482.2485" y="53.2104">Customer's signature</text><ellipse cx="473.2485" cy="62.8047" rx="3" ry="3" style="stroke:#038048;stroke-width:1.0;fill:none;"/><text fill="#000000" font-family="sans-serif" font-size="11" lengthAdjust="spacing" textLength="64" x="482.2485" y="66.0151">Timestamp</text><line style="stroke:#A80036;stroke-width:1.5;" x1="463.2485" x2="608.2485" y1="72.6094" y2="72.6094"/><!--MD5=[e1ae6f2cea02e276685729daa4ac67c0]
class Damage--><rect codeLine="69" fill="#FEFECE" filter="url(#fmbdn22zs4o5f)" height="60.8047" id="Damage" style="stroke:#A80036;stroke-width:1.5;" width="90" x="253.7485" y="170.5"/><ellipse cx="272.3485" cy="186.5" fill="#ADD1B2" rx="11" ry="11" style="stroke:#A80036;stroke-width:1.0;"/><path d="M274.6923,182.1719 C273.7548,181.7344 273.161,181.5938 272.286,181.5938 C269.661,181.5938 267.661,183.6719 267.661,186.3906 L267.661,187.5156 C267.661,190.0938 269.7704,191.9844 272.661,191.9844 C273.8798,191.9844 275.036,191.6875 275.786,191.1406 C276.3641,190.7344 276.6923,190.2813 276.6923,189.8906 C276.6923,189.4375 276.3016,189.0469 275.8329,189.0469 C275.6141,189.0469 275.411,189.125 275.2235,189.3125 C274.7704,189.7969 274.7704,189.7969 274.5829,189.8906 C274.161,190.1563 273.4735,190.2813 272.7079,190.2813 C270.661,190.2813 269.3641,189.1875 269.3641,187.4844 L269.3641,186.3906 C269.3641,184.6094 270.6141,183.2969 272.3485,183.2969 C272.9266,183.2969 273.536,183.4531 274.0048,183.7031 C274.4891,183.9844 274.661,184.2031 274.7548,184.6094 C274.8173,185.0156 274.8485,185.1406 274.9891,185.2656 C275.1298,185.4063 275.3641,185.5156 275.5829,185.5156 C275.8485,185.5156 276.1141,185.375 276.286,185.1563 C276.3954,185 276.4266,184.8125 276.4266,184.3906 L276.4266,182.9688 C276.4266,182.5313 276.411,182.4063 276.3173,182.25 C276.161,181.9844 275.8798,181.8438 275.5829,181.8438 C275.286,181.8438 275.0829,181.9375 274.8641,182.25 L274.6923,182.1719 Z " fill="#000000"/><text fill="#000000" font-family="sans-serif" font-size="12" lengthAdjust="spacing" textLength="50" x="287.1485" y="190.6543">Damage</text><line style="stroke:#A80036;stroke-width:1.5;" x1="254.7485" x2="342.7485" y1="202.5" y2="202.5"/><ellipse cx="264.7485" cy="213.5" rx="3" ry="3" style="stroke:#038048;stroke-width:1.0;fill:none;"/><text fill="#000000" font-family="sans-serif" font-size="11" lengthAdjust="spacing" textLength="64" x="273.7485" y="216.7104">Description</text><line style="stroke:#A80036;stroke-width:1.5;" x1="254.7485" x2="342.7485" y1="223.3047" y2="223.3047"/><!--MD5=[3d3777765217820a0428eaf6fa50d184]
class Checkin--><rect codeLine="79" fill="#FEFECE" filter="url(#fmbdn22zs4o5f)" height="60.8047" id="Checkin" style="stroke:#A80036;stroke-width:1.5;" width="90" x="285.7485" y="13.5"/><ellipse cx="303.4485" cy="29.5" fill="#ADD1B2" rx="11" ry="11" style="stroke:#A80036;stroke-width:1.0;"/><path d="M305.7922,25.1719 C304.8547,24.7344 304.261,24.5938 303.386,24.5938 C300.761,24.5938 298.761,26.6719 298.761,29.3906 L298.761,30.5156 C298.761,33.0938 300.8704,34.9844 303.761,34.9844 C304.9797,34.9844 306.136,34.6875 306.886,34.1406 C307.4641,33.7344 307.7922,33.2813 307.7922,32.8906 C307.7922,32.4375 307.4016,32.0469 306.9329,32.0469 C306.7141,32.0469 306.511,32.125 306.3235,32.3125 C305.8704,32.7969 305.8704,32.7969 305.6829,32.8906 C305.261,33.1563 304.5735,33.2813 303.8079,33.2813 C301.761,33.2813 300.4641,32.1875 300.4641,30.4844 L300.4641,29.3906 C300.4641,27.6094 301.7141,26.2969 303.4485,26.2969 C304.0266,26.2969 304.636,26.4531 305.1047,26.7031 C305.5891,26.9844 305.761,27.2031 305.8547,27.6094 C305.9172,28.0156 305.9485,28.1406 306.0891,28.2656 C306.2297,28.4063 306.4641,28.5156 306.6829,28.5156 C306.9485,28.5156 307.2141,28.375 307.386,28.1563 C307.4954,28 307.5266,27.8125 307.5266,27.3906 L307.5266,25.9688 C307.5266,25.5313 307.511,25.4063 307.4172,25.25 C307.261,24.9844 306.9797,24.8438 306.6829,24.8438 C306.386,24.8438 306.1829,24.9375 305.9641,25.25 L305.7922,25.1719 Z " fill="#000000"/><text fill="#000000" font-family="sans-serif" font-size="12" lengthAdjust="spacing" textLength="52" x="318.0485" y="33.6543">Check-in</text><line style="stroke:#A80036;stroke-width:1.5;" x1="286.7485" x2="374.7485" y1="45.5" y2="45.5"/><ellipse cx="296.7485" cy="56.5" rx="3" ry="3" style="stroke:#038048;stroke-width:1.0;fill:none;"/><text fill="#000000" font-family="sans-serif" font-size="11" lengthAdjust="spacing" textLength="64" x="305.7485" y="59.7104">Timestamp</text><line style="stroke:#A80036;stroke-width:1.5;" x1="286.7485" x2="374.7485" y1="66.3047" y2="66.3047"/><!--MD5=[894442645724153f40a9f7a43026dbfc]
class Invoice--><rect codeLine="85" fill="#FEFECE" filter="url(#fmbdn22zs4o5f)" height="60.8047" id="Invoice" style="stroke:#A80036;stroke-width:1.5;" width="75" x="1172.2475" y="170.5"/><ellipse cx="1187.2475" cy="186.5" fill="#ADD1B2" rx="11" ry="11" style="stroke:#A80036;stroke-width:1.0;"/><path d="M1189.5913,182.1719 C1188.6538,181.7344 1188.06,181.5938 1187.185,181.5938 C1184.56,181.5938 1182.56,183.6719 1182.56,186.3906 L1182.56,187.5156 C1182.56,190.0938 1184.6694,191.9844 1187.56,191.9844 C1188.7788,191.9844 1189.935,191.6875 1190.685,191.1406 C1191.2631,190.7344 1191.5913,190.2813 1191.5913,189.8906 C1191.5913,189.4375 1191.2006,189.0469 1190.7319,189.0469 C1190.5131,189.0469 1190.31,189.125 1190.1225,189.3125 C1189.6694,189.7969 1189.6694,189.7969 1189.4819,189.8906 C1189.06,190.1563 1188.3725,190.2813 1187.6069,190.2813 C1185.56,190.2813 1184.2631,189.1875 1184.2631,187.4844 L1184.2631,186.3906 C1184.2631,184.6094 1185.5131,183.2969 1187.2475,183.2969 C1187.8256,183.2969 1188.435,183.4531 1188.9038,183.7031 C1189.3881,183.9844 1189.56,184.2031 1189.6538,184.6094 C1189.7163,185.0156 1189.7475,185.1406 1189.8881,185.2656 C1190.0288,185.4063 1190.2631,185.5156 1190.4819,185.5156 C1190.7475,185.5156 1191.0131,185.375 1191.185,185.1563 C1191.2944,185 1191.3256,184.8125 1191.3256,184.3906 L1191.3256,182.9688 C1191.3256,182.5313 1191.31,182.4063 1191.2163,182.25 C1191.06,181.9844 1190.7788,181.8438 1190.4819,181.8438 C1190.185,181.8438 1189.9819,181.9375 1189.7631,182.25 L1189.5913,182.1719 Z " fill="#000000"/><text fill="#000000" font-family="sans-serif" font-size="12" lengthAdjust="spacing" textLength="43" x="1201.2475" y="190.6543">Invoice</text><line style="stroke:#A80036;stroke-width:1.5;" x1="1173.2475" x2="1246.2475" y1="202.5" y2="202.5"/><ellipse cx="1183.2475" cy="213.5" rx="3" ry="3" style="stroke:#038048;stroke-width:1.0;fill:none;"/><text fill="#000000" font-family="sans-serif" font-size="11" lengthAdjust="spacing" textLength="12" x="1192.2475" y="216.7104">ID</text><line style="stroke:#A80036;stroke-width:1.5;" x1="1173.2475" x2="1246.2475" y1="223.3047" y2="223.3047"/><!--MD5=[3f2200ee59b7ff328547c16fcaa82aaa]
reverse link CARS to ParkingSite--><path codeLine="8" d="M102.5419,79.911 C116.4058,107.112 135.4443,144.466 148.5895,170.256 " fill="none" id="CARS-backto-ParkingSite" style="stroke:#A80036;stroke-width:1.0;"/><polygon fill="#FFFFFF" points="96.5759,68.205,95.7372,75.3672,102.0258,78.8961,102.8645,71.7339,96.5759,68.205" style="stroke:#A80036;stroke-width:1.0;"/><text fill="#000000" font-family="sans-serif" font-size="13" lengthAdjust="spacing" textLength="7" x="137.7405" y="159.4689">*</text><!--MD5=[d37b3934b94f6a41b3abc66745ff87de]
link CARS to CarModel--><path codeLine="9" d="M76.2149,68.202 C54.7668,130.977 6,306.198 88.7488,407 C140.7076,470.294 390.9525,507.557 496.0815,520.646 " fill="none" id="CARS-CarModel" style="stroke:#A80036;stroke-width:1.0;"/><polygon fill="#000000" points="53.1499,286.2314,49.1515,277.6022,44.843,281.6005,53.1499,286.2314" style="stroke:#000000;stroke-width:1.0;"/><text fill="#000000" font-family="sans-serif" font-size="13" lengthAdjust="spacing" textLength="38" x="58.7488" y="287.0669">offers</text><text fill="#000000" font-family="sans-serif" font-size="13" lengthAdjust="spacing" textLength="7" x="481.3997" y="515.6017">*</text><!--MD5=[0bb5ecd22f769035943466e1f175b6da]
link ParkingSite to Car--><path codeLine="10" d="M210.9555,231.625 C219.0605,236.102 227.5245,240.414 235.7485,244 C277.8935,262.375 291.5485,258.266 334.7485,274 C401.3645,298.262 477.4455,332.556 516.5275,350.674 " fill="none" id="ParkingSite-Car" style="stroke:#A80036;stroke-width:1.0;"/><polygon fill="#000000" points="376.0896,280.7513,383.4508,286.7733,385.5845,281.2964,376.0896,280.7513" style="stroke:#000000;stroke-width:1.0;"/><text fill="#000000" font-family="sans-serif" font-size="13" lengthAdjust="spacing" textLength="73" x="389.7485" y="287.0669">is parked in</text><text fill="#000000" font-family="sans-serif" font-size="13" lengthAdjust="spacing" textLength="7" x="501.9115" y="342.4463">*</text><!--MD5=[02420b91ed6c226998eeb0f6ab29d826]
link ParkingSite to Employee--><path codeLine="11" d="M195.8435,231.784 C215.0005,249.326 239.9615,271.775 262.7485,291 C277.0685,303.081 292.9935,315.887 307.4685,327.296 " fill="none" id="ParkingSite-Employee" style="stroke:#A80036;stroke-width:1.0;"/><polygon fill="#000000" points="263.9494,279.3157,268.9113,287.4293,272.7327,282.9632,263.9494,279.3157" style="stroke:#000000;stroke-width:1.0;"/><text fill="#000000" font-family="sans-serif" font-size="13" lengthAdjust="spacing" textLength="53" x="276.7485" y="287.0669">works in</text><text fill="#000000" font-family="sans-serif" font-size="13" lengthAdjust="spacing" textLength="7" x="292.8459" y="317.5726">*</text><!--MD5=[5bfc8a85a28873f5396f08cff86728d7]
link ParkingSite to Address--><path codeLine="12" d="M153.5345,231.746 C149.6395,244.578 145.6765,259.86 143.7485,274 C141.6807,289.172 141.8104,305.92 142.7475,320.755 " fill="none" id="ParkingSite-Address" style="stroke:#A80036;stroke-width:1.0;"/><polygon fill="#000000" points="148.147,287.5301,152.1527,278.9043,146.3176,278.1971,148.147,287.5301" style="stroke:#000000;stroke-width:1.0;"/><text fill="#000000" font-family="sans-serif" font-size="13" lengthAdjust="spacing" textLength="64" x="157.7485" y="287.0669">located at</text><!--MD5=[b93b373ada3841d2c88bbb890cab4936]
link Car to CarModel--><path codeLine="13" d="M542.7485,394.53 C542.7485,425.758 542.7485,474.371 542.7485,502.911 " fill="none" id="Car-CarModel" style="stroke:#A80036;stroke-width:1.0;"/><polygon fill="#000000" points="547.7485,440.5664,544.8096,449.6115,550.6874,449.6115,547.7485,440.5664" style="stroke:#000000;stroke-width:1.0;"/><text fill="#000000" font-family="sans-serif" font-size="13" lengthAdjust="spacing" textLength="61" x="556.7485" y="450.0669">describes</text><text fill="#000000" font-family="sans-serif" font-size="13" lengthAdjust="spacing" textLength="7" x="535.0266" y="414.4744">*</text><!--MD5=[f1f9b6f25047388ffbf25aa240c8f3fd]
link Insurance to Insurer--><path codeLine="26" d="M656.6835,231.53 C659.3535,258.401 663.3035,298.143 666.1605,326.894 " fill="none" id="Insurance-Insurer" style="stroke:#A80036;stroke-width:1.0;"/><polygon fill="#000000" points="668.243,287.5419,670.273,278.2505,664.424,278.8318,668.243,287.5419" style="stroke:#000000;stroke-width:1.0;"/><text fill="#000000" font-family="sans-serif" font-size="13" lengthAdjust="spacing" textLength="55" x="676.7485" y="287.0669">provides</text><text fill="#000000" font-family="sans-serif" font-size="13" lengthAdjust="spacing" textLength="7" x="649.567" y="251.4744">*</text><!--MD5=[6c30fed22086064e70b0965e3cf6793a]
link Insurance to Car--><path codeLine="27" d="M608.4675,230.904 C593.2595,242.624 577.4585,257.344 566.7485,274 C555.3235,291.768 549.3005,314.875 546.1455,333.092 " fill="none" id="Insurance-Car" style="stroke:#A80036;stroke-width:1.0;"/><polygon fill="#000000" points="574.3519,278.2977,567.1332,284.4897,572.1514,287.5501,574.3519,278.2977" style="stroke:#000000;stroke-width:1.0;"/><text fill="#000000" font-family="sans-serif" font-size="13" lengthAdjust="spacing" textLength="72" x="580.7485" y="287.0669">covered by</text><text fill="#000000" font-family="sans-serif" font-size="13" lengthAdjust="spacing" textLength="7" x="593.693" y="231.5677">*</text><!--MD5=[aeaf9200cbaa7c7c08444b4bc8b3369b]
link Customer to DriverLicense--><path codeLine="36" d="M989.3455,570.082 C979.0515,589.419 966.9615,612.1282 957.0725,630.702 " fill="none" id="Customer-DriverLicense" style="stroke:#A80036;stroke-width:1.0;"/><!--MD5=[64f0e157b9264e99419c5f82d7e84fb1]
link Customer to CreditCard--><path codeLine="37" d="M1034.4545,570.082 C1044.8875,589.419 1057.1375,612.1282 1067.1675,630.702 " fill="none" id="Customer-CreditCard" style="stroke:#A80036;stroke-width:1.0;"/><!--MD5=[084ed435efc901fd8b74a4436d3ced04]
link Reservation to Customer--><path codeLine="46" d="M894.3475,401.107 C897.8575,418.274 904.0075,438.402 914.7485,454 C926.9405,471.705 944.9205,486.775 962.0975,498.481 " fill="none" id="Reservation-Customer" style="stroke:#A80036;stroke-width:1.0;"/><polygon fill="#000000" points="916.8928,441.4621,919.6463,450.5654,924.4712,447.2083,916.8928,441.4621" style="stroke:#000000;stroke-width:1.0;"/><text fill="#000000" font-family="sans-serif" font-size="13" lengthAdjust="spacing" textLength="56" x="928.7485" y="450.0669">reserves</text><text fill="#000000" font-family="sans-serif" font-size="13" lengthAdjust="spacing" textLength="7" x="887.5295" y="420.6053">*</text><!--MD5=[ce698a0348dacea28d201157393cc2b9]
link Reservation to CarModel--><path codeLine="47" d="M838.1745,388.929 C770.8685,420.158 654.0635,474.353 589.3215,504.391 " fill="none" id="Reservation-CarModel" style="stroke:#A80036;stroke-width:1.0;"/><polygon fill="#000000" points="727.2129,447.6708,736.6548,446.5299,734.1809,441.198,727.2129,447.6708" style="stroke:#000000;stroke-width:1.0;"/><text fill="#000000" font-family="sans-serif" font-size="13" lengthAdjust="spacing" textLength="56" x="740.7485" y="450.0669">reserves</text><!--MD5=[b201de22bf1960359b7acc4144009d9f]
link RentalContract to Customer--><path codeLine="54" d="M932.4205,241.31 C944.4265,250.604 955.5855,261.512 963.7485,274 C1005.7845,338.305 1012.9645,430.368 1013.1765,483.584 " fill="none" id="RentalContract-Customer" style="stroke:#A80036;stroke-width:1.0;"/><polygon fill="#000000" points="1011.1674,359.323,1011.2395,368.8333,1016.8158,366.9746,1011.1674,359.323" style="stroke:#000000;stroke-width:1.0;"/><text fill="#000000" font-family="sans-serif" font-size="13" lengthAdjust="spacing" textLength="33" x="1021.7485" y="368.5669">signs</text><text fill="#000000" font-family="sans-serif" font-size="13" lengthAdjust="spacing" textLength="7" x="940.3789" y="241.7459">*</text><!--MD5=[454f9ab7d60865aad5efcc31303a5e1a]
link RentalContract to Reservation--><path codeLine="55" d="M866.8935,244.301 C871.8445,270.015 878.0995,302.499 882.8135,326.981 " fill="none" id="RentalContract-Reservation" style="stroke:#A80036;stroke-width:1.0;"/><polygon fill="#000000" points="881.6939,287.4762,882.8696,278.0386,877.0978,279.15,881.6939,287.4762" style="stroke:#000000;stroke-width:1.0;"/><text fill="#000000" font-family="sans-serif" font-size="13" lengthAdjust="spacing" textLength="65" x="889.7485" y="287.0669">relative to</text><text fill="#000000" font-family="sans-serif" font-size="13" lengthAdjust="spacing" textLength="24" x="842.2791" y="264.4419">0..1</text><text fill="#000000" font-family="sans-serif" font-size="13" lengthAdjust="spacing" textLength="24" x="855.3224" y="315.888">0..1</text><!--MD5=[c50f0a9e4a60c600a5ba1480bbe1260a]
link RentalContract to Payment--><path codeLine="56" d="M932.5285,230.365 C963.3115,242.845 999.1795,258.238 1030.7485,274 C1061.5275,289.368 1094.6075,308.416 1122.0275,324.943 " fill="none" id="RentalContract-Payment" style="stroke:#A80036;stroke-width:1.0;"/><polygon fill="#000000" points="1069.2213,284.7992,1062.4406,278.1304,1059.8157,283.3896,1069.2213,284.7992" style="stroke:#000000;stroke-width:1.0;"/><text fill="#000000" font-family="sans-serif" font-size="13" lengthAdjust="spacing" textLength="85" x="1073.7475" y="287.0669">has payment</text><!--MD5=[ba7df4c8e5c2e16d2c02b47f841bad99]
link RentalContract to Car--><path codeLine="57" d="M812.3045,244.094 C791.6645,260.855 766.2865,278.978 740.7485,291 C688.6655,315.518 668.1885,299.599 614.7485,321 C598.7625,327.402 582.0805,336.928 568.8045,345.289 " fill="none" id="RentalContract-Car" style="stroke:#A80036;stroke-width:1.0;"/><polygon fill="#000000" points="779.3657,280.6476,769.8853,281.4049,772.141,286.8327,779.3657,280.6476" style="stroke:#000000;stroke-width:1.0;"/><text fill="#000000" font-family="sans-serif" font-size="13" lengthAdjust="spacing" textLength="74" x="783.7485" y="287.0669">assigned to</text><!--MD5=[3d50c5b8748223470aeaa9aea51d903e]
link Checkout to RentalContract--><path codeLine="70" d="M609.4465,80.366 C662.0455,105.607 732.4975,139.415 785.0885,164.652 " fill="none" id="Checkout-RentalContract" style="stroke:#A80036;stroke-width:1.0;"/><polygon fill="#000000" points="717.2563,121.7296,710.3731,115.1667,707.8301,120.466,717.2563,121.7296" style="stroke:#000000;stroke-width:1.0;"/><text fill="#000000" font-family="sans-serif" font-size="13" lengthAdjust="spacing" textLength="74" x="721.7485" y="124.0669">attached to</text><!--MD5=[21cf0dd1904e1395f4c7a04097ce76dc]
link Checkout to Damage--><path codeLine="71" d="M462.0065,63.461 C395.0325,80.572 305.9025,104.355 300.7485,111 C287.9605,127.486 288.1035,151.335 291.0965,170.196 " fill="none" id="Checkout-Damage" style="stroke:#A80036;stroke-width:1.0;"/><polygon fill="#000000" points="301.5076,122.2149,310.7362,119.9165,307.6227,114.931,301.5076,122.2149" style="stroke:#000000;stroke-width:1.0;"/><text fill="#000000" font-family="sans-serif" font-size="13" lengthAdjust="spacing" textLength="23" x="314.7485" y="124.0669">has</text><text fill="#000000" font-family="sans-serif" font-size="13" lengthAdjust="spacing" textLength="7" x="281.7964" y="159.3965">*</text><!--MD5=[d4b35842c7081cef0fecfa10cab2139a]
link Checkout to Customer--><path codeLine="72" d="M609.3755,45.745 C775.9015,49.048 1174.0575,66.553 1264.7475,158 C1342.6875,236.586 1327.9075,319.025 1260.7475,407 C1211.6175,471.36 1118.8375,502.606 1061.4475,516.41 " fill="none" id="Checkout-Customer" style="stroke:#A80036;stroke-width:1.0;"/><polygon fill="#000000" points="1318.2839,278.9604,1322.43,287.5196,1326.6692,283.4479,1318.2839,278.9604" style="stroke:#000000;stroke-width:1.0;"/><text fill="#000000" font-family="sans-serif" font-size="13" lengthAdjust="spacing" textLength="33" x="1330.7475" y="287.0669">signs</text><text fill="#000000" font-family="sans-serif" font-size="13" lengthAdjust="spacing" textLength="7" x="617.3292" y="42.2454">*</text><!--MD5=[b45c1f6aa79f1b830fba6e4c66eac9e4]
link Checkout to Employee--><path codeLine="73" d="M528.2075,81.206 C515.2165,141.078 487.6155,257.445 462.7485,291 C446.6125,312.775 421.7895,329.909 399.9065,341.991 " fill="none" id="Checkout-Employee" style="stroke:#A80036;stroke-width:1.0;"/><polygon fill="#000000" points="517.9557,196.58,511.3257,203.3986,516.5999,205.9934,517.9557,196.58" style="stroke:#000000;stroke-width:1.0;"/><text fill="#000000" font-family="sans-serif" font-size="13" lengthAdjust="spacing" textLength="59" x="524.7485" y="205.5669">performs</text><text fill="#000000" font-family="sans-serif" font-size="13" lengthAdjust="spacing" textLength="7" x="519.3788" y="100.7207">*</text><!--MD5=[dc759d23e8929bff06ad364d706e4bfa]
link Checkin to RentalContract--><path codeLine="80" d="M376.0025,60.561 C427.6355,78.056 514.7625,106.784 590.7485,128 C645.7775,143.364 660.5445,143.279 715.7485,158 C738.3745,164.034 762.8745,171.05 785.0965,177.601 " fill="none" id="Checkin-RentalContract" style="stroke:#A80036;stroke-width:1.0;"/><polygon fill="#000000" points="600.5556,120.9417,592.6678,115.6282,591.0511,121.2793,600.5556,120.9417" style="stroke:#000000;stroke-width:1.0;"/><text fill="#000000" font-family="sans-serif" font-size="13" lengthAdjust="spacing" textLength="65" x="604.7485" y="124.0669">relative to</text><!--MD5=[8b7e322bb3a1978ab6502365be223c80]
link Checkin to Damage--><path codeLine="81" d="M285.6785,53.262 C253.4285,61.783 212.2335,78.597 191.7485,111 C187.7115,117.386 188.1975,121.331 191.7485,128 C193.5835,131.446 225.1915,152.516 253.5795,170.98 " fill="none" id="Checkin-Damage" style="stroke:#A80036;stroke-width:1.0;"/><polygon fill="#000000" points="195.4331,124.3903,200.6481,116.437,194.9772,114.8907,195.4331,124.3903" style="stroke:#000000;stroke-width:1.0;"/><text fill="#000000" font-family="sans-serif" font-size="13" lengthAdjust="spacing" textLength="54" x="205.7485" y="124.0669">has new</text><text fill="#000000" font-family="sans-serif" font-size="13" lengthAdjust="spacing" textLength="7" x="238.8229" y="162.0933">*</text><!--MD5=[8057192d0da8c3a76f90b3876072c699]
link Invoice to Payment--><path codeLine="86" d="M1204.7975,231.53 C1200.5975,256.585 1194.5175,292.831 1189.8075,320.923 " fill="none" id="Invoice-Payment" style="stroke:#A80036;stroke-width:1.0;"/><polygon fill="#000000" points="1200.9206,287.4976,1205.3149,279.0631,1199.518,278.091,1200.9206,287.4976" style="stroke:#000000;stroke-width:1.0;"/><text fill="#000000" font-family="sans-serif" font-size="13" lengthAdjust="spacing" textLength="62" x="1210.7475" y="287.0669">related to</text><!--MD5=[620c489f055c4338cc7dfede6b8885eb]
@startuml
' CARS company
class CARS
class "Parking site" as ParkingSite
class Address
class Employee
class Car
class "Car Model" as CarModel
CARS o- - "*" ParkingSite
CARS - - "*" CarModel : offers >
ParkingSite - - "*" Car : is parked in <
ParkingSite - - "*" Employee : works in <
ParkingSite - - Address : located at >
Car "*" - - CarModel : describes <
Car : +Tag
ParkingSite : +ID
Address : +City
Address : +Type
Address : +Name
Employee : +ID
Employee : +Name
Employee : +Surname

' Insurances
class Insurer
class Insurance
Insurance "*" - - Insurer : provides >
Insurance "*" - - Car : covered by <
Insurer : +ID
Insurer : +Name
Insurance : +Type

' Customer
class Customer
class "Driver license" as DriverLicense
class "Credit card" as CreditCard
Customer - - DriverLicense
Customer - - CreditCard
Customer : +Name
Customer : +Surname
Customer : +ID document
DriverLicense : +ID
DriverLicense : +Expiration date

' Reservation
class Reservation
Reservation "*" - - Customer : reserves <
Reservation - - CarModel : reserves >
Reservation : +From date
Reservation : +To date

' Check-out - Part 1
class "Rental contract" as RentalContract
class Payment
RentalContract "*" - - Customer : signs <
RentalContract "0..1" - - "0..1" Reservation : relative to >
RentalContract - - Payment : has payment >
RentalContract - - Car : assigned to <
RentalContract : +From date
RentalContract : +To date
RentalContract : +Customer's signature
CreditCard : +Number
CreditCard : +Expiration date
Payment : +Damage deposit
Payment : +Partial fee
Payment : +Total fee

' Check-out - Part 2
class "Check-out" as Checkout
class Damage
Checkout - - RentalContract : attached to >
Checkout - - "*" Damage : has >
Checkout "*" - - Customer : signs <
Checkout "*" - - Employee : performs <
Checkout : +Customer's signature
Checkout : +Timestamp
Damage : +Description

' Check-in
class "Check-in" as Checkin
Checkin - - RentalContract : relative to >
Checkin - - "*" Damage : has new >
Checkin : +Timestamp

' Invoice
class Invoice
Invoice - - Payment : related to >
Invoice : +ID
@enduml

@startuml
class CARS
class "Parking site" as ParkingSite
class Address
class Employee
class Car
class "Car Model" as CarModel
CARS o- - "*" ParkingSite
CARS - - "*" CarModel : offers >
ParkingSite - - "*" Car : is parked in <
ParkingSite - - "*" Employee : works in <
ParkingSite - - Address : located at >
Car "*" - - CarModel : describes <
Car : +Tag
ParkingSite : +ID
Address : +City
Address : +Type
Address : +Name
Employee : +ID
Employee : +Name
Employee : +Surname

class Insurer
class Insurance
Insurance "*" - - Insurer : provides >
Insurance "*" - - Car : covered by <
Insurer : +ID
Insurer : +Name
Insurance : +Type

class Customer
class "Driver license" as DriverLicense
class "Credit card" as CreditCard
Customer - - DriverLicense
Customer - - CreditCard
Customer : +Name
Customer : +Surname
Customer : +ID document
DriverLicense : +ID
DriverLicense : +Expiration date

class Reservation
Reservation "*" - - Customer : reserves <
Reservation - - CarModel : reserves >
Reservation : +From date
Reservation : +To date

class "Rental contract" as RentalContract
class Payment
RentalContract "*" - - Customer : signs <
RentalContract "0..1" - - "0..1" Reservation : relative to >
RentalContract - - Payment : has payment >
RentalContract - - Car : assigned to <
RentalContract : +From date
RentalContract : +To date
RentalContract : +Customer's signature
CreditCard : +Number
CreditCard : +Expiration date
Payment : +Damage deposit
Payment : +Partial fee
Payment : +Total fee

class "Check-out" as Checkout
class Damage
Checkout - - RentalContract : attached to >
Checkout - - "*" Damage : has >
Checkout "*" - - Customer : signs <
Checkout "*" - - Employee : performs <
Checkout : +Customer's signature
Checkout : +Timestamp
Damage : +Description

class "Check-in" as Checkin
Checkin - - RentalContract : relative to >
Checkin - - "*" Damage : has new >
Checkin : +Timestamp

class Invoice
Invoice - - Payment : related to >
Invoice : +ID
@enduml

PlantUML version 1.2021.10(Mon Aug 30 13:43:48 UTC 2021)
(GPL source distribution)
Java Runtime: Java(TM) SE Runtime Environment
JVM: Java HotSpot(TM) 64-Bit Server VM
Default Encoding: UTF-8
Language: en
Country: US
--></g></svg>