<?xml version="1.0" encoding="UTF-8" standalone="no"?><svg xmlns="http://www.w3.org/2000/svg" xmlns:xlink="http://www.w3.org/1999/xlink" contentScriptType="application/ecmascript" contentStyleType="text/css" height="731px" preserveAspectRatio="none" style="width:1373px;height:731px;background:#FFFFFF;" version="1.1" viewBox="0 0 1373 731" width="1373px" zoomAndPan="magnify"><defs><filter height="300%" id="f1l28so5mq3y6w" width="300%" x="-1" y="-1"><feGaussianBlur result="blurOut" stdDeviation="2.0"/><feColorMatrix in="blurOut" result="blurOut2" type="matrix" values="0 0 0 0 0 0 0 0 0 0 0 0 0 0 0 0 0 0 .4 0"/><feOffset dx="4.0" dy="4.0" in="blurOut2" result="blurOut3"/><feBlend in="SourceGraphic" in2="blurOut3" mode="normal"/></filter></defs><g><!--MD5=[6b5d2134b1718deef408d3baff1e0eed]
class CARS--><rect codeLine="2" fill="#FEFECE" filter="url(#f1l28so5mq3y6w)" height="48" id="CARS" style="stroke:#A80036;stroke-width:1.5;" width="63" x="1169.4898" y="20"/><ellipse cx="1184.4898" cy="36" fill="#ADD1B2" rx="11" ry="11" style="stroke:#A80036;stroke-width:1.0;"/><path d="M1186.8336,31.6719 C1185.8961,31.2344 1185.3023,31.0938 1184.4273,31.0938 C1181.8023,31.0938 1179.8023,33.1719 1179.8023,35.8906 L1179.8023,37.0156 C1179.8023,39.5938 1181.9117,41.4844 1184.8023,41.4844 C1186.0211,41.4844 1187.1773,41.1875 1187.9273,40.6406 C1188.5054,40.2344 1188.8336,39.7813 1188.8336,39.3906 C1188.8336,38.9375 1188.4429,38.5469 1187.9742,38.5469 C1187.7554,38.5469 1187.5523,38.625 1187.3648,38.8125 C1186.9117,39.2969 1186.9117,39.2969 1186.7242,39.3906 C1186.3023,39.6563 1185.6148,39.7813 1184.8492,39.7813 C1182.8023,39.7813 1181.5054,38.6875 1181.5054,36.9844 L1181.5054,35.8906 C1181.5054,34.1094 1182.7554,32.7969 1184.4898,32.7969 C1185.0679,32.7969 1185.6773,32.9531 1186.1461,33.2031 C1186.6304,33.4844 1186.8023,33.7031 1186.8961,34.1094 C1186.9586,34.5156 1186.9898,34.6406 1187.1304,34.7656 C1187.2711,34.9063 1187.5054,35.0156 1187.7242,35.0156 C1187.9898,35.0156 1188.2554,34.875 1188.4273,34.6563 C1188.5367,34.5 1188.5679,34.3125 1188.5679,33.8906 L1188.5679,32.4688 C1188.5679,32.0313 1188.5523,31.9063 1188.4586,31.75 C1188.3023,31.4844 1188.0211,31.3438 1187.7242,31.3438 C1187.4273,31.3438 1187.2242,31.4375 1187.0054,31.75 L1186.8336,31.6719 Z " fill="#000000"/><text fill="#000000" font-family="sans-serif" font-size="12" lengthAdjust="spacing" textLength="31" x="1198.4898" y="40.1543">CARS</text><line style="stroke:#A80036;stroke-width:1.5;" x1="1170.4898" x2="1231.4898" y1="52" y2="52"/><line style="stroke:#A80036;stroke-width:1.5;" x1="1170.4898" x2="1231.4898" y1="60" y2="60"/><!--MD5=[3e63a3587cfc3a4187c5476b2379735b]
class ParkingSite--><rect codeLine="3" fill="#FEFECE" filter="url(#f1l28so5mq3y6w)" height="48" id="ParkingSite" style="stroke:#A80036;stroke-width:1.5;" width="101" x="921.4898" y="183.5"/><ellipse cx="936.4898" cy="199.5" fill="#ADD1B2" rx="11" ry="11" style="stroke:#A80036;stroke-width:1.0;"/><path d="M938.8336,195.1719 C937.8961,194.7344 937.3023,194.5938 936.4273,194.5938 C933.8023,194.5938 931.8023,196.6719 931.8023,199.3906 L931.8023,200.5156 C931.8023,203.0938 933.9117,204.9844 936.8023,204.9844 C938.0211,204.9844 939.1773,204.6875 939.9273,204.1406 C940.5054,203.7344 940.8336,203.2813 940.8336,202.8906 C940.8336,202.4375 940.4429,202.0469 939.9742,202.0469 C939.7554,202.0469 939.5523,202.125 939.3648,202.3125 C938.9117,202.7969 938.9117,202.7969 938.7242,202.8906 C938.3023,203.1563 937.6148,203.2813 936.8492,203.2813 C934.8023,203.2813 933.5054,202.1875 933.5054,200.4844 L933.5054,199.3906 C933.5054,197.6094 934.7554,196.2969 936.4898,196.2969 C937.0679,196.2969 937.6773,196.4531 938.1461,196.7031 C938.6304,196.9844 938.8023,197.2031 938.8961,197.6094 C938.9586,198.0156 938.9898,198.1406 939.1304,198.2656 C939.2711,198.4063 939.5054,198.5156 939.7242,198.5156 C939.9898,198.5156 940.2554,198.375 940.4273,198.1563 C940.5367,198 940.5679,197.8125 940.5679,197.3906 L940.5679,195.9688 C940.5679,195.5313 940.5523,195.4063 940.4586,195.25 C940.3023,194.9844 940.0211,194.8438 939.7242,194.8438 C939.4273,194.8438 939.2242,194.9375 939.0054,195.25 L938.8336,195.1719 Z " fill="#000000"/><text fill="#000000" font-family="sans-serif" font-size="12" lengthAdjust="spacing" textLength="69" x="950.4898" y="203.6543">Parking site</text><line style="stroke:#A80036;stroke-width:1.5;" x1="922.4898" x2="1021.4898" y1="215.5" y2="215.5"/><line style="stroke:#A80036;stroke-width:1.5;" x1="922.4898" x2="1021.4898" y1="223.5" y2="223.5"/><!--MD5=[b39bf2416e05f940a14e3aa44644fd2d]
class Office--><rect codeLine="4" fill="#FEFECE" filter="url(#f1l28so5mq3y6w)" height="48" id="Office" style="stroke:#A80036;stroke-width:1.5;" width="68" x="598.9898" y="353"/><ellipse cx="613.9898" cy="369" fill="#ADD1B2" rx="11" ry="11" style="stroke:#A80036;stroke-width:1.0;"/><path d="M616.3336,364.6719 C615.3961,364.2344 614.8023,364.0938 613.9273,364.0938 C611.3023,364.0938 609.3023,366.1719 609.3023,368.8906 L609.3023,370.0156 C609.3023,372.5938 611.4117,374.4844 614.3023,374.4844 C615.5211,374.4844 616.6773,374.1875 617.4273,373.6406 C618.0054,373.2344 618.3336,372.7813 618.3336,372.3906 C618.3336,371.9375 617.9429,371.5469 617.4742,371.5469 C617.2554,371.5469 617.0523,371.625 616.8648,371.8125 C616.4117,372.2969 616.4117,372.2969 616.2242,372.3906 C615.8023,372.6563 615.1148,372.7813 614.3492,372.7813 C612.3023,372.7813 611.0054,371.6875 611.0054,369.9844 L611.0054,368.8906 C611.0054,367.1094 612.2554,365.7969 613.9898,365.7969 C614.5679,365.7969 615.1773,365.9531 615.6461,366.2031 C616.1304,366.4844 616.3023,366.7031 616.3961,367.1094 C616.4586,367.5156 616.4898,367.6406 616.6304,367.7656 C616.7711,367.9063 617.0054,368.0156 617.2242,368.0156 C617.4898,368.0156 617.7554,367.875 617.9273,367.6563 C618.0367,367.5 618.0679,367.3125 618.0679,366.8906 L618.0679,365.4688 C618.0679,365.0313 618.0523,364.9063 617.9586,364.75 C617.8023,364.4844 617.5211,364.3438 617.2242,364.3438 C616.9273,364.3438 616.7242,364.4375 616.5054,364.75 L616.3336,364.6719 Z " fill="#000000"/><text fill="#000000" font-family="sans-serif" font-size="12" lengthAdjust="spacing" textLength="36" x="627.9898" y="373.1543">Office</text><line style="stroke:#A80036;stroke-width:1.5;" x1="599.9898" x2="665.9898" y1="385" y2="385"/><line style="stroke:#A80036;stroke-width:1.5;" x1="599.9898" x2="665.9898" y1="393" y2="393"/><!--MD5=[7421f545a0d8420c5bec41e74b387d9c]
class Employee--><rect codeLine="5" fill="#FEFECE" filter="url(#f1l28so5mq3y6w)" height="48" id="Employee" style="stroke:#A80036;stroke-width:1.5;" width="92" x="463.9898" y="516"/><ellipse cx="478.9898" cy="532" fill="#ADD1B2" rx="11" ry="11" style="stroke:#A80036;stroke-width:1.0;"/><path d="M481.3336,527.6719 C480.3961,527.2344 479.8023,527.0938 478.9273,527.0938 C476.3023,527.0938 474.3023,529.1719 474.3023,531.8906 L474.3023,533.0156 C474.3023,535.5938 476.4117,537.4844 479.3023,537.4844 C480.5211,537.4844 481.6773,537.1875 482.4273,536.6406 C483.0054,536.2344 483.3336,535.7813 483.3336,535.3906 C483.3336,534.9375 482.9429,534.5469 482.4742,534.5469 C482.2554,534.5469 482.0523,534.625 481.8648,534.8125 C481.4117,535.2969 481.4117,535.2969 481.2242,535.3906 C480.8023,535.6563 480.1148,535.7813 479.3492,535.7813 C477.3023,535.7813 476.0054,534.6875 476.0054,532.9844 L476.0054,531.8906 C476.0054,530.1094 477.2554,528.7969 478.9898,528.7969 C479.5679,528.7969 480.1773,528.9531 480.6461,529.2031 C481.1304,529.4844 481.3023,529.7031 481.3961,530.1094 C481.4586,530.5156 481.4898,530.6406 481.6304,530.7656 C481.7711,530.9063 482.0054,531.0156 482.2242,531.0156 C482.4898,531.0156 482.7554,530.875 482.9273,530.6563 C483.0367,530.5 483.0679,530.3125 483.0679,529.8906 L483.0679,528.4688 C483.0679,528.0313 483.0523,527.9063 482.9586,527.75 C482.8023,527.4844 482.5211,527.3438 482.2242,527.3438 C481.9273,527.3438 481.7242,527.4375 481.5054,527.75 L481.3336,527.6719 Z " fill="#000000"/><text fill="#000000" font-family="sans-serif" font-size="12" lengthAdjust="spacing" textLength="60" x="492.9898" y="536.1543">Employee</text><line style="stroke:#A80036;stroke-width:1.5;" x1="464.9898" x2="554.9898" y1="548" y2="548"/><line style="stroke:#A80036;stroke-width:1.5;" x1="464.9898" x2="554.9898" y1="556" y2="556"/><!--MD5=[3f0ef310aaa84a542276992c5216544d]
class Car--><rect codeLine="6" fill="#FEFECE" filter="url(#f1l28so5mq3y6w)" height="60.8047" id="Car" style="stroke:#A80036;stroke-width:1.5;" width="52" x="931.9898" y="346.5"/><ellipse cx="946.9898" cy="362.5" fill="#ADD1B2" rx="11" ry="11" style="stroke:#A80036;stroke-width:1.0;"/><path d="M949.3336,358.1719 C948.3961,357.7344 947.8023,357.5938 946.9273,357.5938 C944.3023,357.5938 942.3023,359.6719 942.3023,362.3906 L942.3023,363.5156 C942.3023,366.0938 944.4117,367.9844 947.3023,367.9844 C948.5211,367.9844 949.6773,367.6875 950.4273,367.1406 C951.0054,366.7344 951.3336,366.2813 951.3336,365.8906 C951.3336,365.4375 950.9429,365.0469 950.4742,365.0469 C950.2554,365.0469 950.0523,365.125 949.8648,365.3125 C949.4117,365.7969 949.4117,365.7969 949.2242,365.8906 C948.8023,366.1563 948.1148,366.2813 947.3492,366.2813 C945.3023,366.2813 944.0054,365.1875 944.0054,363.4844 L944.0054,362.3906 C944.0054,360.6094 945.2554,359.2969 946.9898,359.2969 C947.5679,359.2969 948.1773,359.4531 948.6461,359.7031 C949.1304,359.9844 949.3023,360.2031 949.3961,360.6094 C949.4586,361.0156 949.4898,361.1406 949.6304,361.2656 C949.7711,361.4063 950.0054,361.5156 950.2242,361.5156 C950.4898,361.5156 950.7554,361.375 950.9273,361.1563 C951.0367,361 951.0679,360.8125 951.0679,360.3906 L951.0679,358.9688 C951.0679,358.5313 951.0523,358.4063 950.9586,358.25 C950.8023,357.9844 950.5211,357.8438 950.2242,357.8438 C949.9273,357.8438 949.7242,357.9375 949.5054,358.25 L949.3336,358.1719 Z " fill="#000000"/><text fill="#000000" font-family="sans-serif" font-size="12" lengthAdjust="spacing" textLength="20" x="960.9898" y="366.6543">Car</text><line style="stroke:#A80036;stroke-width:1.5;" x1="932.9898" x2="982.9898" y1="378.5" y2="378.5"/><ellipse cx="942.9898" cy="389.5" rx="3" ry="3" style="stroke:#038048;stroke-width:1.0;fill:none;"/><text fill="#000000" font-family="sans-serif" font-size="11" lengthAdjust="spacing" textLength="21" x="951.9898" y="392.7104">Tag</text><line style="stroke:#A80036;stroke-width:1.5;" x1="932.9898" x2="982.9898" y1="399.3047" y2="399.3047"/><!--MD5=[590439ac31b017de7682903b3eb7025d]
class CarModel--><rect codeLine="7" fill="#FEFECE" filter="url(#f1l28so5mq3y6w)" height="48" id="CarModel" style="stroke:#A80036;stroke-width:1.5;" width="93" x="921.4898" y="516"/><ellipse cx="936.4898" cy="532" fill="#ADD1B2" rx="11" ry="11" style="stroke:#A80036;stroke-width:1.0;"/><path d="M938.8336,527.6719 C937.8961,527.2344 937.3023,527.0938 936.4273,527.0938 C933.8023,527.0938 931.8023,529.1719 931.8023,531.8906 L931.8023,533.0156 C931.8023,535.5938 933.9117,537.4844 936.8023,537.4844 C938.0211,537.4844 939.1773,537.1875 939.9273,536.6406 C940.5054,536.2344 940.8336,535.7813 940.8336,535.3906 C940.8336,534.9375 940.4429,534.5469 939.9742,534.5469 C939.7554,534.5469 939.5523,534.625 939.3648,534.8125 C938.9117,535.2969 938.9117,535.2969 938.7242,535.3906 C938.3023,535.6563 937.6148,535.7813 936.8492,535.7813 C934.8023,535.7813 933.5054,534.6875 933.5054,532.9844 L933.5054,531.8906 C933.5054,530.1094 934.7554,528.7969 936.4898,528.7969 C937.0679,528.7969 937.6773,528.9531 938.1461,529.2031 C938.6304,529.4844 938.8023,529.7031 938.8961,530.1094 C938.9586,530.5156 938.9898,530.6406 939.1304,530.7656 C939.2711,530.9063 939.5054,531.0156 939.7242,531.0156 C939.9898,531.0156 940.2554,530.875 940.4273,530.6563 C940.5367,530.5 940.5679,530.3125 940.5679,529.8906 L940.5679,528.4688 C940.5679,528.0313 940.5523,527.9063 940.4586,527.75 C940.3023,527.4844 940.0211,527.3438 939.7242,527.3438 C939.4273,527.3438 939.2242,527.4375 939.0054,527.75 L938.8336,527.6719 Z " fill="#000000"/><text fill="#000000" font-family="sans-serif" font-size="12" lengthAdjust="spacing" textLength="61" x="950.4898" y="536.1543">Car Model</text><line style="stroke:#A80036;stroke-width:1.5;" x1="922.4898" x2="1013.4898" y1="548" y2="548"/><line style="stroke:#A80036;stroke-width:1.5;" x1="922.4898" x2="1013.4898" y1="556" y2="556"/><!--MD5=[d1a0a29968ad8f84c9d7b43a4f63e75f]
class CallCenter--><rect codeLine="8" fill="#FEFECE" filter="url(#f1l28so5mq3y6w)" height="48" id="CallCenter" style="stroke:#A80036;stroke-width:1.5;" width="96" x="1105.9898" y="657"/><ellipse cx="1120.9898" cy="673" fill="#ADD1B2" rx="11" ry="11" style="stroke:#A80036;stroke-width:1.0;"/><path d="M1123.3336,668.6719 C1122.3961,668.2344 1121.8023,668.0938 1120.9273,668.0938 C1118.3023,668.0938 1116.3023,670.1719 1116.3023,672.8906 L1116.3023,674.0156 C1116.3023,676.5938 1118.4117,678.4844 1121.3023,678.4844 C1122.5211,678.4844 1123.6773,678.1875 1124.4273,677.6406 C1125.0054,677.2344 1125.3336,676.7813 1125.3336,676.3906 C1125.3336,675.9375 1124.9429,675.5469 1124.4742,675.5469 C1124.2554,675.5469 1124.0523,675.625 1123.8648,675.8125 C1123.4117,676.2969 1123.4117,676.2969 1123.2242,676.3906 C1122.8023,676.6563 1122.1148,676.7813 1121.3492,676.7813 C1119.3023,676.7813 1118.0054,675.6875 1118.0054,673.9844 L1118.0054,672.8906 C1118.0054,671.1094 1119.2554,669.7969 1120.9898,669.7969 C1121.5679,669.7969 1122.1773,669.9531 1122.6461,670.2031 C1123.1304,670.4844 1123.3023,670.7031 1123.3961,671.1094 C1123.4586,671.5156 1123.4898,671.6406 1123.6304,671.7656 C1123.7711,671.9063 1124.0054,672.0156 1124.2242,672.0156 C1124.4898,672.0156 1124.7554,671.875 1124.9273,671.6563 C1125.0367,671.5 1125.0679,671.3125 1125.0679,670.8906 L1125.0679,669.4688 C1125.0679,669.0313 1125.0523,668.9063 1124.9586,668.75 C1124.8023,668.4844 1124.5211,668.3438 1124.2242,668.3438 C1123.9273,668.3438 1123.7242,668.4375 1123.5054,668.75 L1123.3336,668.6719 Z " fill="#000000"/><text fill="#000000" font-family="sans-serif" font-size="12" lengthAdjust="spacing" textLength="64" x="1134.9898" y="677.1543">Call center</text><line style="stroke:#A80036;stroke-width:1.5;" x1="1106.9898" x2="1200.9898" y1="689" y2="689"/><line style="stroke:#A80036;stroke-width:1.5;" x1="1106.9898" x2="1200.9898" y1="697" y2="697"/><!--MD5=[2fe114e4fe5d7b5fd43caac7a0735ddb]
class WebSite--><rect codeLine="9" fill="#FEFECE" filter="url(#f1l28so5mq3y6w)" height="48" id="WebSite" style="stroke:#A80036;stroke-width:1.5;" width="86" x="771.9898" y="657"/><ellipse cx="786.9898" cy="673" fill="#ADD1B2" rx="11" ry="11" style="stroke:#A80036;stroke-width:1.0;"/><path d="M789.3336,668.6719 C788.3961,668.2344 787.8023,668.0938 786.9273,668.0938 C784.3023,668.0938 782.3023,670.1719 782.3023,672.8906 L782.3023,674.0156 C782.3023,676.5938 784.4117,678.4844 787.3023,678.4844 C788.5211,678.4844 789.6773,678.1875 790.4273,677.6406 C791.0054,677.2344 791.3336,676.7813 791.3336,676.3906 C791.3336,675.9375 790.9429,675.5469 790.4742,675.5469 C790.2554,675.5469 790.0523,675.625 789.8648,675.8125 C789.4117,676.2969 789.4117,676.2969 789.2242,676.3906 C788.8023,676.6563 788.1148,676.7813 787.3492,676.7813 C785.3023,676.7813 784.0054,675.6875 784.0054,673.9844 L784.0054,672.8906 C784.0054,671.1094 785.2554,669.7969 786.9898,669.7969 C787.5679,669.7969 788.1773,669.9531 788.6461,670.2031 C789.1304,670.4844 789.3023,670.7031 789.3961,671.1094 C789.4586,671.5156 789.4898,671.6406 789.6304,671.7656 C789.7711,671.9063 790.0054,672.0156 790.2242,672.0156 C790.4898,672.0156 790.7554,671.875 790.9273,671.6563 C791.0367,671.5 791.0679,671.3125 791.0679,670.8906 L791.0679,669.4688 C791.0679,669.0313 791.0523,668.9063 790.9586,668.75 C790.8023,668.4844 790.5211,668.3438 790.2242,668.3438 C789.9273,668.3438 789.7242,668.4375 789.5054,668.75 L789.3336,668.6719 Z " fill="#000000"/><text fill="#000000" font-family="sans-serif" font-size="12" lengthAdjust="spacing" textLength="54" x="800.9898" y="677.1543">Web site</text><line style="stroke:#A80036;stroke-width:1.5;" x1="772.9898" x2="856.9898" y1="689" y2="689"/><line style="stroke:#A80036;stroke-width:1.5;" x1="772.9898" x2="856.9898" y1="697" y2="697"/><!--MD5=[7de93a43a12de075a1245df3a65ebe32]
class *--><rect fill="#FEFECE" filter="url(#f1l28so5mq3y6w)" height="48" id="*" style="stroke:#A80036;stroke-width:1.5;" width="39" x="1089.4898" y="516"/><ellipse cx="1104.4898" cy="532" fill="#ADD1B2" rx="11" ry="11" style="stroke:#A80036;stroke-width:1.0;"/><path d="M1106.8336,527.6719 C1105.8961,527.2344 1105.3023,527.0938 1104.4273,527.0938 C1101.8023,527.0938 1099.8023,529.1719 1099.8023,531.8906 L1099.8023,533.0156 C1099.8023,535.5938 1101.9117,537.4844 1104.8023,537.4844 C1106.0211,537.4844 1107.1773,537.1875 1107.9273,536.6406 C1108.5054,536.2344 1108.8336,535.7813 1108.8336,535.3906 C1108.8336,534.9375 1108.4429,534.5469 1107.9742,534.5469 C1107.7554,534.5469 1107.5523,534.625 1107.3648,534.8125 C1106.9117,535.2969 1106.9117,535.2969 1106.7242,535.3906 C1106.3023,535.6563 1105.6148,535.7813 1104.8492,535.7813 C1102.8023,535.7813 1101.5054,534.6875 1101.5054,532.9844 L1101.5054,531.8906 C1101.5054,530.1094 1102.7554,528.7969 1104.4898,528.7969 C1105.0679,528.7969 1105.6773,528.9531 1106.1461,529.2031 C1106.6304,529.4844 1106.8023,529.7031 1106.8961,530.1094 C1106.9586,530.5156 1106.9898,530.6406 1107.1304,530.7656 C1107.2711,530.9063 1107.5054,531.0156 1107.7242,531.0156 C1107.9898,531.0156 1108.2554,530.875 1108.4273,530.6563 C1108.5367,530.5 1108.5679,530.3125 1108.5679,529.8906 L1108.5679,528.4688 C1108.5679,528.0313 1108.5523,527.9063 1108.4586,527.75 C1108.3023,527.4844 1108.0211,527.3438 1107.7242,527.3438 C1107.4273,527.3438 1107.2242,527.4375 1107.0054,527.75 L1106.8336,527.6719 Z " fill="#000000"/><text fill="#000000" font-family="sans-serif" font-size="12" lengthAdjust="spacing" textLength="7" x="1118.4898" y="536.1543">*</text><line style="stroke:#A80036;stroke-width:1.5;" x1="1090.4898" x2="1127.4898" y1="548" y2="548"/><line style="stroke:#A80036;stroke-width:1.5;" x1="1090.4898" x2="1127.4898" y1="556" y2="556"/><!--MD5=[054f87937b19fa476c097d32744151b9]
class Insurer--><rect codeLine="22" fill="#FEFECE" filter="url(#f1l28so5mq3y6w)" height="48" id="Insurer" style="stroke:#A80036;stroke-width:1.5;" width="74" x="1143.9898" y="353"/><ellipse cx="1158.9898" cy="369" fill="#ADD1B2" rx="11" ry="11" style="stroke:#A80036;stroke-width:1.0;"/><path d="M1161.3336,364.6719 C1160.3961,364.2344 1159.8023,364.0938 1158.9273,364.0938 C1156.3023,364.0938 1154.3023,366.1719 1154.3023,368.8906 L1154.3023,370.0156 C1154.3023,372.5938 1156.4117,374.4844 1159.3023,374.4844 C1160.5211,374.4844 1161.6773,374.1875 1162.4273,373.6406 C1163.0054,373.2344 1163.3336,372.7813 1163.3336,372.3906 C1163.3336,371.9375 1162.9429,371.5469 1162.4742,371.5469 C1162.2554,371.5469 1162.0523,371.625 1161.8648,371.8125 C1161.4117,372.2969 1161.4117,372.2969 1161.2242,372.3906 C1160.8023,372.6563 1160.1148,372.7813 1159.3492,372.7813 C1157.3023,372.7813 1156.0054,371.6875 1156.0054,369.9844 L1156.0054,368.8906 C1156.0054,367.1094 1157.2554,365.7969 1158.9898,365.7969 C1159.5679,365.7969 1160.1773,365.9531 1160.6461,366.2031 C1161.1304,366.4844 1161.3023,366.7031 1161.3961,367.1094 C1161.4586,367.5156 1161.4898,367.6406 1161.6304,367.7656 C1161.7711,367.9063 1162.0054,368.0156 1162.2242,368.0156 C1162.4898,368.0156 1162.7554,367.875 1162.9273,367.6563 C1163.0367,367.5 1163.0679,367.3125 1163.0679,366.8906 L1163.0679,365.4688 C1163.0679,365.0313 1163.0523,364.9063 1162.9586,364.75 C1162.8023,364.4844 1162.5211,364.3438 1162.2242,364.3438 C1161.9273,364.3438 1161.7242,364.4375 1161.5054,364.75 L1161.3336,364.6719 Z " fill="#000000"/><text fill="#000000" font-family="sans-serif" font-size="12" lengthAdjust="spacing" textLength="42" x="1172.9898" y="373.1543">Insurer</text><line style="stroke:#A80036;stroke-width:1.5;" x1="1144.9898" x2="1216.9898" y1="385" y2="385"/><line style="stroke:#A80036;stroke-width:1.5;" x1="1144.9898" x2="1216.9898" y1="393" y2="393"/><!--MD5=[c447b73724e2937b40b9f78fc0fede8e]
class Insurance--><rect codeLine="23" fill="#FEFECE" filter="url(#f1l28so5mq3y6w)" height="60.8047" id="Insurance" style="stroke:#A80036;stroke-width:1.5;" width="90" x="1096.9898" y="177"/><ellipse cx="1111.9898" cy="193" fill="#ADD1B2" rx="11" ry="11" style="stroke:#A80036;stroke-width:1.0;"/><path d="M1114.3336,188.6719 C1113.3961,188.2344 1112.8023,188.0938 1111.9273,188.0938 C1109.3023,188.0938 1107.3023,190.1719 1107.3023,192.8906 L1107.3023,194.0156 C1107.3023,196.5938 1109.4117,198.4844 1112.3023,198.4844 C1113.5211,198.4844 1114.6773,198.1875 1115.4273,197.6406 C1116.0054,197.2344 1116.3336,196.7813 1116.3336,196.3906 C1116.3336,195.9375 1115.9429,195.5469 1115.4742,195.5469 C1115.2554,195.5469 1115.0523,195.625 1114.8648,195.8125 C1114.4117,196.2969 1114.4117,196.2969 1114.2242,196.3906 C1113.8023,196.6563 1113.1148,196.7813 1112.3492,196.7813 C1110.3023,196.7813 1109.0054,195.6875 1109.0054,193.9844 L1109.0054,192.8906 C1109.0054,191.1094 1110.2554,189.7969 1111.9898,189.7969 C1112.5679,189.7969 1113.1773,189.9531 1113.6461,190.2031 C1114.1304,190.4844 1114.3023,190.7031 1114.3961,191.1094 C1114.4586,191.5156 1114.4898,191.6406 1114.6304,191.7656 C1114.7711,191.9063 1115.0054,192.0156 1115.2242,192.0156 C1115.4898,192.0156 1115.7554,191.875 1115.9273,191.6563 C1116.0367,191.5 1116.0679,191.3125 1116.0679,190.8906 L1116.0679,189.4688 C1116.0679,189.0313 1116.0523,188.9063 1115.9586,188.75 C1115.8023,188.4844 1115.5211,188.3438 1115.2242,188.3438 C1114.9273,188.3438 1114.7242,188.4375 1114.5054,188.75 L1114.3336,188.6719 Z " fill="#000000"/><text fill="#000000" font-family="sans-serif" font-size="12" lengthAdjust="spacing" textLength="58" x="1125.9898" y="197.1543">Insurance</text><line style="stroke:#A80036;stroke-width:1.5;" x1="1097.9898" x2="1185.9898" y1="209" y2="209"/><ellipse cx="1107.9898" cy="220" rx="3" ry="3" style="stroke:#038048;stroke-width:1.0;fill:none;"/><text fill="#000000" font-family="sans-serif" font-size="11" lengthAdjust="spacing" textLength="29" x="1116.9898" y="223.2104">Type</text><line style="stroke:#A80036;stroke-width:1.5;" x1="1097.9898" x2="1185.9898" y1="229.8047" y2="229.8047"/><!--MD5=[2ce0c9fb7f55b1e256ab28a8ea6b25ec]
class Customer--><rect codeLine="29" fill="#FEFECE" filter="url(#f1l28so5mq3y6w)" height="86.4141" id="Customer" style="stroke:#A80036;stroke-width:1.5;" width="111" x="242.4898" y="497"/><ellipse cx="266.9398" cy="513" fill="#ADD1B2" rx="11" ry="11" style="stroke:#A80036;stroke-width:1.0;"/><path d="M269.2836,508.6719 C268.3461,508.2344 267.7523,508.0938 266.8773,508.0938 C264.2523,508.0938 262.2523,510.1719 262.2523,512.8906 L262.2523,514.0156 C262.2523,516.5938 264.3617,518.4844 267.2523,518.4844 C268.4711,518.4844 269.6273,518.1875 270.3773,517.6406 C270.9554,517.2344 271.2836,516.7813 271.2836,516.3906 C271.2836,515.9375 270.8929,515.5469 270.4242,515.5469 C270.2054,515.5469 270.0023,515.625 269.8148,515.8125 C269.3617,516.2969 269.3617,516.2969 269.1742,516.3906 C268.7523,516.6563 268.0648,516.7813 267.2992,516.7813 C265.2523,516.7813 263.9554,515.6875 263.9554,513.9844 L263.9554,512.8906 C263.9554,511.1094 265.2054,509.7969 266.9398,509.7969 C267.5179,509.7969 268.1273,509.9531 268.5961,510.2031 C269.0804,510.4844 269.2523,510.7031 269.3461,511.1094 C269.4086,511.5156 269.4398,511.6406 269.5804,511.7656 C269.7211,511.9063 269.9554,512.0156 270.1742,512.0156 C270.4398,512.0156 270.7054,511.875 270.8773,511.6563 C270.9867,511.5 271.0179,511.3125 271.0179,510.8906 L271.0179,509.4688 C271.0179,509.0313 271.0023,508.9063 270.9086,508.75 C270.7523,508.4844 270.4711,508.3438 270.1742,508.3438 C269.8773,508.3438 269.6742,508.4375 269.4554,508.75 L269.2836,508.6719 Z " fill="#000000"/><text fill="#000000" font-family="sans-serif" font-size="12" lengthAdjust="spacing" textLength="58" x="283.0398" y="517.1543">Customer</text><line style="stroke:#A80036;stroke-width:1.5;" x1="243.4898" x2="352.4898" y1="529" y2="529"/><ellipse cx="253.4898" cy="540" rx="3" ry="3" style="stroke:#038048;stroke-width:1.0;fill:none;"/><text fill="#000000" font-family="sans-serif" font-size="11" lengthAdjust="spacing" textLength="34" x="262.4898" y="543.2104">Name</text><ellipse cx="253.4898" cy="552.8047" rx="3" ry="3" style="stroke:#038048;stroke-width:1.0;fill:none;"/><text fill="#000000" font-family="sans-serif" font-size="11" lengthAdjust="spacing" textLength="73" x="262.4898" y="556.0151">ID document</text><ellipse cx="253.4898" cy="565.6094" rx="3" ry="3" style="stroke:#038048;stroke-width:1.0;fill:none;"/><text fill="#000000" font-family="sans-serif" font-size="11" lengthAdjust="spacing" textLength="85" x="262.4898" y="568.8198">Driving license</text><line style="stroke:#A80036;stroke-width:1.5;" x1="243.4898" x2="352.4898" y1="575.4141" y2="575.4141"/><!--MD5=[91d4151b6d4c9a3d01b6d84b2458eece]
class CreditCard--><rect codeLine="30" fill="#FEFECE" filter="url(#f1l28so5mq3y6w)" height="73.6094" id="CreditCard" style="stroke:#A80036;stroke-width:1.5;" width="112" x="241.9898" y="644"/><ellipse cx="262.8398" cy="660" fill="#ADD1B2" rx="11" ry="11" style="stroke:#A80036;stroke-width:1.0;"/><path d="M265.1835,655.6719 C264.246,655.2344 263.6523,655.0938 262.7773,655.0938 C260.1523,655.0938 258.1523,657.1719 258.1523,659.8906 L258.1523,661.0156 C258.1523,663.5938 260.2617,665.4844 263.1523,665.4844 C264.371,665.4844 265.5273,665.1875 266.2773,664.6406 C266.8554,664.2344 267.1835,663.7813 267.1835,663.3906 C267.1835,662.9375 266.7929,662.5469 266.3242,662.5469 C266.1054,662.5469 265.9023,662.625 265.7148,662.8125 C265.2617,663.2969 265.2617,663.2969 265.0742,663.3906 C264.6523,663.6563 263.9648,663.7813 263.1992,663.7813 C261.1523,663.7813 259.8554,662.6875 259.8554,660.9844 L259.8554,659.8906 C259.8554,658.1094 261.1054,656.7969 262.8398,656.7969 C263.4179,656.7969 264.0273,656.9531 264.496,657.2031 C264.9804,657.4844 265.1523,657.7031 265.246,658.1094 C265.3085,658.5156 265.3398,658.6406 265.4804,658.7656 C265.621,658.9063 265.8554,659.0156 266.0742,659.0156 C266.3398,659.0156 266.6054,658.875 266.7773,658.6563 C266.8867,658.5 266.9179,658.3125 266.9179,657.8906 L266.9179,656.4688 C266.9179,656.0313 266.9023,655.9063 266.8085,655.75 C266.6523,655.4844 266.371,655.3438 266.0742,655.3438 C265.7773,655.3438 265.5742,655.4375 265.3554,655.75 L265.1835,655.6719 Z " fill="#000000"/><text fill="#000000" font-family="sans-serif" font-size="12" lengthAdjust="spacing" textLength="67" x="278.1398" y="664.1543">Credit card</text><line style="stroke:#A80036;stroke-width:1.5;" x1="242.9898" x2="352.9898" y1="676" y2="676"/><ellipse cx="252.9898" cy="687" rx="3" ry="3" style="stroke:#038048;stroke-width:1.0;fill:none;"/><text fill="#000000" font-family="sans-serif" font-size="11" lengthAdjust="spacing" textLength="45" x="261.9898" y="690.2104">Number</text><ellipse cx="252.9898" cy="699.8047" rx="3" ry="3" style="stroke:#038048;stroke-width:1.0;fill:none;"/><text fill="#000000" font-family="sans-serif" font-size="11" lengthAdjust="spacing" textLength="86" x="261.9898" y="703.0151">Expiration date</text><line style="stroke:#A80036;stroke-width:1.5;" x1="242.9898" x2="352.9898" y1="709.6094" y2="709.6094"/><!--MD5=[9c46470aa33a0c75e6d1dfdefc2f9c22]
class Reservation--><rect codeLine="39" fill="#FEFECE" filter="url(#f1l28so5mq3y6w)" height="48" id="Reservation" style="stroke:#A80036;stroke-width:1.5;" width="103" x="454.4898" y="353"/><ellipse cx="469.4898" cy="369" fill="#ADD1B2" rx="11" ry="11" style="stroke:#A80036;stroke-width:1.0;"/><path d="M471.8336,364.6719 C470.8961,364.2344 470.3023,364.0938 469.4273,364.0938 C466.8023,364.0938 464.8023,366.1719 464.8023,368.8906 L464.8023,370.0156 C464.8023,372.5938 466.9117,374.4844 469.8023,374.4844 C471.0211,374.4844 472.1773,374.1875 472.9273,373.6406 C473.5054,373.2344 473.8336,372.7813 473.8336,372.3906 C473.8336,371.9375 473.4429,371.5469 472.9742,371.5469 C472.7554,371.5469 472.5523,371.625 472.3648,371.8125 C471.9117,372.2969 471.9117,372.2969 471.7242,372.3906 C471.3023,372.6563 470.6148,372.7813 469.8492,372.7813 C467.8023,372.7813 466.5054,371.6875 466.5054,369.9844 L466.5054,368.8906 C466.5054,367.1094 467.7554,365.7969 469.4898,365.7969 C470.0679,365.7969 470.6773,365.9531 471.1461,366.2031 C471.6304,366.4844 471.8023,366.7031 471.8961,367.1094 C471.9586,367.5156 471.9898,367.6406 472.1304,367.7656 C472.2711,367.9063 472.5054,368.0156 472.7242,368.0156 C472.9898,368.0156 473.2554,367.875 473.4273,367.6563 C473.5367,367.5 473.5679,367.3125 473.5679,366.8906 L473.5679,365.4688 C473.5679,365.0313 473.5523,364.9063 473.4586,364.75 C473.3023,364.4844 473.0211,364.3438 472.7242,364.3438 C472.4273,364.3438 472.2242,364.4375 472.0054,364.75 L471.8336,364.6719 Z " fill="#000000"/><text fill="#000000" font-family="sans-serif" font-size="12" lengthAdjust="spacing" textLength="71" x="483.4898" y="373.1543">Reservation</text><line style="stroke:#A80036;stroke-width:1.5;" x1="455.4898" x2="556.4898" y1="385" y2="385"/><line style="stroke:#A80036;stroke-width:1.5;" x1="455.4898" x2="556.4898" y1="393" y2="393"/><!--MD5=[1f110d81dac10eb07c9a229dd5490b90]
class ReservationChannel--><rect codeLine="40" fill="#FEFECE" filter="url(#f1l28so5mq3y6w)" height="48" id="ReservationChannel" style="stroke:#A80036;stroke-width:1.5;" width="150" x="664.9898" y="516"/><ellipse cx="679.9898" cy="532" fill="#ADD1B2" rx="11" ry="11" style="stroke:#A80036;stroke-width:1.0;"/><path d="M682.3336,527.6719 C681.3961,527.2344 680.8023,527.0938 679.9273,527.0938 C677.3023,527.0938 675.3023,529.1719 675.3023,531.8906 L675.3023,533.0156 C675.3023,535.5938 677.4117,537.4844 680.3023,537.4844 C681.5211,537.4844 682.6773,537.1875 683.4273,536.6406 C684.0054,536.2344 684.3336,535.7813 684.3336,535.3906 C684.3336,534.9375 683.9429,534.5469 683.4742,534.5469 C683.2554,534.5469 683.0523,534.625 682.8648,534.8125 C682.4117,535.2969 682.4117,535.2969 682.2242,535.3906 C681.8023,535.6563 681.1148,535.7813 680.3492,535.7813 C678.3023,535.7813 677.0054,534.6875 677.0054,532.9844 L677.0054,531.8906 C677.0054,530.1094 678.2554,528.7969 679.9898,528.7969 C680.5679,528.7969 681.1773,528.9531 681.6461,529.2031 C682.1304,529.4844 682.3023,529.7031 682.3961,530.1094 C682.4586,530.5156 682.4898,530.6406 682.6304,530.7656 C682.7711,530.9063 683.0054,531.0156 683.2242,531.0156 C683.4898,531.0156 683.7554,530.875 683.9273,530.6563 C684.0367,530.5 684.0679,530.3125 684.0679,529.8906 L684.0679,528.4688 C684.0679,528.0313 684.0523,527.9063 683.9586,527.75 C683.8023,527.4844 683.5211,527.3438 683.2242,527.3438 C682.9273,527.3438 682.7242,527.4375 682.5054,527.75 L682.3336,527.6719 Z " fill="#000000"/><text fill="#000000" font-family="sans-serif" font-size="12" lengthAdjust="spacing" textLength="118" x="693.9898" y="536.1543">ReservationChannel</text><line style="stroke:#A80036;stroke-width:1.5;" x1="665.9898" x2="813.9898" y1="548" y2="548"/><line style="stroke:#A80036;stroke-width:1.5;" x1="665.9898" x2="813.9898" y1="556" y2="556"/><!--MD5=[461026a38b737c4ce5e8254b9a577e21]
class Contract--><rect codeLine="48" fill="#FEFECE" filter="url(#f1l28so5mq3y6w)" height="99.2188" id="Contract" style="stroke:#A80036;stroke-width:1.5;" width="147" x="400.4898" y="158"/><ellipse cx="444.7398" cy="174" fill="#ADD1B2" rx="11" ry="11" style="stroke:#A80036;stroke-width:1.0;"/><path d="M447.0836,169.6719 C446.1461,169.2344 445.5523,169.0938 444.6773,169.0938 C442.0523,169.0938 440.0523,171.1719 440.0523,173.8906 L440.0523,175.0156 C440.0523,177.5938 442.1617,179.4844 445.0523,179.4844 C446.2711,179.4844 447.4273,179.1875 448.1773,178.6406 C448.7554,178.2344 449.0836,177.7813 449.0836,177.3906 C449.0836,176.9375 448.6929,176.5469 448.2242,176.5469 C448.0054,176.5469 447.8023,176.625 447.6148,176.8125 C447.1617,177.2969 447.1617,177.2969 446.9742,177.3906 C446.5523,177.6563 445.8648,177.7813 445.0992,177.7813 C443.0523,177.7813 441.7554,176.6875 441.7554,174.9844 L441.7554,173.8906 C441.7554,172.1094 443.0054,170.7969 444.7398,170.7969 C445.3179,170.7969 445.9273,170.9531 446.3961,171.2031 C446.8804,171.4844 447.0523,171.7031 447.1461,172.1094 C447.2086,172.5156 447.2398,172.6406 447.3804,172.7656 C447.5211,172.9063 447.7554,173.0156 447.9742,173.0156 C448.2398,173.0156 448.5054,172.875 448.6773,172.6563 C448.7867,172.5 448.8179,172.3125 448.8179,171.8906 L448.8179,170.4688 C448.8179,170.0313 448.8023,169.9063 448.7086,169.75 C448.5523,169.4844 448.2711,169.3438 447.9742,169.3438 C447.6773,169.3438 447.4742,169.4375 447.2554,169.75 L447.0836,169.6719 Z " fill="#000000"/><text fill="#000000" font-family="sans-serif" font-size="12" lengthAdjust="spacing" textLength="50" x="465.2398" y="178.1543">Contract</text><line style="stroke:#A80036;stroke-width:1.5;" x1="401.4898" x2="546.4898" y1="190" y2="190"/><ellipse cx="411.4898" cy="201" rx="3" ry="3" style="stroke:#038048;stroke-width:1.0;fill:none;"/><text fill="#000000" font-family="sans-serif" font-size="11" lengthAdjust="spacing" textLength="64" x="420.4898" y="204.2104">Period start</text><ellipse cx="411.4898" cy="213.8047" rx="3" ry="3" style="stroke:#038048;stroke-width:1.0;fill:none;"/><text fill="#000000" font-family="sans-serif" font-size="11" lengthAdjust="spacing" textLength="61" x="420.4898" y="217.0151">Period end</text><ellipse cx="411.4898" cy="226.6094" rx="3" ry="3" style="stroke:#038048;stroke-width:1.0;fill:none;"/><text fill="#000000" font-family="sans-serif" font-size="11" lengthAdjust="spacing" textLength="121" x="420.4898" y="229.8198">Customer's signature</text><ellipse cx="411.4898" cy="239.4141" rx="3" ry="3" style="stroke:#038048;stroke-width:1.0;fill:none;"/><text fill="#000000" font-family="sans-serif" font-size="11" lengthAdjust="spacing" textLength="100" x="420.4898" y="242.6245">Office's signature</text><line style="stroke:#A80036;stroke-width:1.5;" x1="401.4898" x2="546.4898" y1="249.2188" y2="249.2188"/><!--MD5=[764fca796ce7f635542948d8fc39db5e]
class Payment--><rect codeLine="49" fill="#FEFECE" filter="url(#f1l28so5mq3y6w)" height="86.4141" id="Payment" style="stroke:#A80036;stroke-width:1.5;" width="121" x="174.4898" y="334"/><ellipse cx="207.0398" cy="350" fill="#ADD1B2" rx="11" ry="11" style="stroke:#A80036;stroke-width:1.0;"/><path d="M209.3836,345.6719 C208.4461,345.2344 207.8523,345.0938 206.9773,345.0938 C204.3523,345.0938 202.3523,347.1719 202.3523,349.8906 L202.3523,351.0156 C202.3523,353.5938 204.4617,355.4844 207.3523,355.4844 C208.5711,355.4844 209.7273,355.1875 210.4773,354.6406 C211.0554,354.2344 211.3836,353.7813 211.3836,353.3906 C211.3836,352.9375 210.9929,352.5469 210.5242,352.5469 C210.3054,352.5469 210.1023,352.625 209.9148,352.8125 C209.4617,353.2969 209.4617,353.2969 209.2742,353.3906 C208.8523,353.6563 208.1648,353.7813 207.3992,353.7813 C205.3523,353.7813 204.0554,352.6875 204.0554,350.9844 L204.0554,349.8906 C204.0554,348.1094 205.3054,346.7969 207.0398,346.7969 C207.6179,346.7969 208.2273,346.9531 208.6961,347.2031 C209.1804,347.4844 209.3523,347.7031 209.4461,348.1094 C209.5086,348.5156 209.5398,348.6406 209.6804,348.7656 C209.8211,348.9063 210.0554,349.0156 210.2742,349.0156 C210.5398,349.0156 210.8054,348.875 210.9773,348.6563 C211.0867,348.5 211.1179,348.3125 211.1179,347.8906 L211.1179,346.4688 C211.1179,346.0313 211.1023,345.9063 211.0086,345.75 C210.8523,345.4844 210.5711,345.3438 210.2742,345.3438 C209.9773,345.3438 209.7742,345.4375 209.5554,345.75 L209.3836,345.6719 Z " fill="#000000"/><text fill="#000000" font-family="sans-serif" font-size="12" lengthAdjust="spacing" textLength="50" x="224.9398" y="354.1543">Payment</text><line style="stroke:#A80036;stroke-width:1.5;" x1="175.4898" x2="294.4898" y1="366" y2="366"/><ellipse cx="185.4898" cy="377" rx="3" ry="3" style="stroke:#038048;stroke-width:1.0;fill:none;"/><text fill="#000000" font-family="sans-serif" font-size="11" lengthAdjust="spacing" textLength="95" x="194.4898" y="380.2104">Damage deposit</text><ellipse cx="185.4898" cy="389.8047" rx="3" ry="3" style="stroke:#038048;stroke-width:1.0;fill:none;"/><text fill="#000000" font-family="sans-serif" font-size="11" lengthAdjust="spacing" textLength="58" x="194.4898" y="393.0151">Partial fee</text><ellipse cx="185.4898" cy="402.6094" rx="3" ry="3" style="stroke:#038048;stroke-width:1.0;fill:none;"/><text fill="#000000" font-family="sans-serif" font-size="11" lengthAdjust="spacing" textLength="52" x="194.4898" y="405.8198">Total fee</text><line style="stroke:#A80036;stroke-width:1.5;" x1="175.4898" x2="294.4898" y1="412.4141" y2="412.4141"/><!--MD5=[93d1ee192c4910e2890cedc24f53d9c4]
class CheckoutDamage--><rect codeLine="64" fill="#FEFECE" filter="url(#f1l28so5mq3y6w)" height="73.6094" id="CheckoutDamage" style="stroke:#A80036;stroke-width:1.5;" width="150" x="64.9901" y="7"/><ellipse cx="81.7901" cy="23" fill="#ADD1B2" rx="11" ry="11" style="stroke:#A80036;stroke-width:1.0;"/><path d="M84.1339,18.6719 C83.1964,18.2344 82.6026,18.0938 81.7276,18.0938 C79.1026,18.0938 77.1026,20.1719 77.1026,22.8906 L77.1026,24.0156 C77.1026,26.5938 79.212,28.4844 82.1026,28.4844 C83.3214,28.4844 84.4776,28.1875 85.2276,27.6406 C85.8057,27.2344 86.1339,26.7813 86.1339,26.3906 C86.1339,25.9375 85.7432,25.5469 85.2745,25.5469 C85.0557,25.5469 84.8526,25.625 84.6651,25.8125 C84.212,26.2969 84.212,26.2969 84.0245,26.3906 C83.6026,26.6563 82.9151,26.7813 82.1495,26.7813 C80.1026,26.7813 78.8057,25.6875 78.8057,23.9844 L78.8057,22.8906 C78.8057,21.1094 80.0557,19.7969 81.7901,19.7969 C82.3682,19.7969 82.9776,19.9531 83.4464,20.2031 C83.9307,20.4844 84.1026,20.7031 84.1964,21.1094 C84.2589,21.5156 84.2901,21.6406 84.4307,21.7656 C84.5714,21.9063 84.8057,22.0156 85.0245,22.0156 C85.2901,22.0156 85.5557,21.875 85.7276,21.6563 C85.837,21.5 85.8682,21.3125 85.8682,20.8906 L85.8682,19.4688 C85.8682,19.0313 85.8526,18.9063 85.7589,18.75 C85.6026,18.4844 85.3214,18.3438 85.0245,18.3438 C84.7276,18.3438 84.5245,18.4375 84.3057,18.75 L84.1339,18.6719 Z " fill="#000000"/><text fill="#000000" font-family="sans-serif" font-size="12" lengthAdjust="spacing" textLength="114" x="96.1901" y="27.1543">Check-out damage</text><line style="stroke:#A80036;stroke-width:1.5;" x1="65.9901" x2="213.9901" y1="39" y2="39"/><ellipse cx="75.9901" cy="50" rx="3" ry="3" style="stroke:#038048;stroke-width:1.0;fill:none;"/><text fill="#000000" font-family="sans-serif" font-size="11" lengthAdjust="spacing" textLength="121" x="84.9901" y="53.2104">Customer's signature</text><ellipse cx="75.9901" cy="62.8047" rx="3" ry="3" style="stroke:#038048;stroke-width:1.0;fill:none;"/><text fill="#000000" font-family="sans-serif" font-size="11" lengthAdjust="spacing" textLength="124" x="84.9901" y="66.0151">Employee's signature</text><line style="stroke:#A80036;stroke-width:1.5;" x1="65.9901" x2="213.9901" y1="72.6094" y2="72.6094"/><!--MD5=[e1ae6f2cea02e276685729daa4ac67c0]
class Damage--><rect codeLine="65" fill="#FEFECE" filter="url(#f1l28so5mq3y6w)" height="60.8047" id="Damage" style="stroke:#A80036;stroke-width:1.5;" width="90" x="274.9898" y="177"/><ellipse cx="293.5898" cy="193" fill="#ADD1B2" rx="11" ry="11" style="stroke:#A80036;stroke-width:1.0;"/><path d="M295.9336,188.6719 C294.9961,188.2344 294.4023,188.0938 293.5273,188.0938 C290.9023,188.0938 288.9023,190.1719 288.9023,192.8906 L288.9023,194.0156 C288.9023,196.5938 291.0117,198.4844 293.9023,198.4844 C295.1211,198.4844 296.2773,198.1875 297.0273,197.6406 C297.6054,197.2344 297.9336,196.7813 297.9336,196.3906 C297.9336,195.9375 297.5429,195.5469 297.0742,195.5469 C296.8554,195.5469 296.6523,195.625 296.4648,195.8125 C296.0117,196.2969 296.0117,196.2969 295.8242,196.3906 C295.4023,196.6563 294.7148,196.7813 293.9492,196.7813 C291.9023,196.7813 290.6054,195.6875 290.6054,193.9844 L290.6054,192.8906 C290.6054,191.1094 291.8554,189.7969 293.5898,189.7969 C294.1679,189.7969 294.7773,189.9531 295.2461,190.2031 C295.7304,190.4844 295.9023,190.7031 295.9961,191.1094 C296.0586,191.5156 296.0898,191.6406 296.2304,191.7656 C296.3711,191.9063 296.6054,192.0156 296.8242,192.0156 C297.0898,192.0156 297.3554,191.875 297.5273,191.6563 C297.6367,191.5 297.6679,191.3125 297.6679,190.8906 L297.6679,189.4688 C297.6679,189.0313 297.6523,188.9063 297.5586,188.75 C297.4023,188.4844 297.1211,188.3438 296.8242,188.3438 C296.5273,188.3438 296.3242,188.4375 296.1054,188.75 L295.9336,188.6719 Z " fill="#000000"/><text fill="#000000" font-family="sans-serif" font-size="12" lengthAdjust="spacing" textLength="50" x="308.3898" y="197.1543">Damage</text><line style="stroke:#A80036;stroke-width:1.5;" x1="275.9898" x2="363.9898" y1="209" y2="209"/><ellipse cx="285.9898" cy="220" rx="3" ry="3" style="stroke:#038048;stroke-width:1.0;fill:none;"/><text fill="#000000" font-family="sans-serif" font-size="11" lengthAdjust="spacing" textLength="64" x="294.9898" y="223.2104">Description</text><line style="stroke:#A80036;stroke-width:1.5;" x1="275.9898" x2="363.9898" y1="229.8047" y2="229.8047"/><!--MD5=[d2ef42fee1eb1cb1c78dbe8b75337fa9]
class CheckinDamage--><rect codeLine="75" fill="#FEFECE" filter="url(#f1l28so5mq3y6w)" height="48" id="CheckinDamage" style="stroke:#A80036;stroke-width:1.5;" width="137" x="361.4898" y="20"/><ellipse cx="376.4898" cy="36" fill="#ADD1B2" rx="11" ry="11" style="stroke:#A80036;stroke-width:1.0;"/><path d="M378.8336,31.6719 C377.8961,31.2344 377.3023,31.0938 376.4273,31.0938 C373.8023,31.0938 371.8023,33.1719 371.8023,35.8906 L371.8023,37.0156 C371.8023,39.5938 373.9117,41.4844 376.8023,41.4844 C378.0211,41.4844 379.1773,41.1875 379.9273,40.6406 C380.5054,40.2344 380.8336,39.7813 380.8336,39.3906 C380.8336,38.9375 380.4429,38.5469 379.9742,38.5469 C379.7554,38.5469 379.5523,38.625 379.3648,38.8125 C378.9117,39.2969 378.9117,39.2969 378.7242,39.3906 C378.3023,39.6563 377.6148,39.7813 376.8492,39.7813 C374.8023,39.7813 373.5054,38.6875 373.5054,36.9844 L373.5054,35.8906 C373.5054,34.1094 374.7554,32.7969 376.4898,32.7969 C377.0679,32.7969 377.6773,32.9531 378.1461,33.2031 C378.6304,33.4844 378.8023,33.7031 378.8961,34.1094 C378.9586,34.5156 378.9898,34.6406 379.1304,34.7656 C379.2711,34.9063 379.5054,35.0156 379.7242,35.0156 C379.9898,35.0156 380.2554,34.875 380.4273,34.6563 C380.5367,34.5 380.5679,34.3125 380.5679,33.8906 L380.5679,32.4688 C380.5679,32.0313 380.5523,31.9063 380.4586,31.75 C380.3023,31.4844 380.0211,31.3438 379.7242,31.3438 C379.4273,31.3438 379.2242,31.4375 379.0054,31.75 L378.8336,31.6719 Z " fill="#000000"/><text fill="#000000" font-family="sans-serif" font-size="12" lengthAdjust="spacing" textLength="105" x="390.4898" y="40.1543">Check-in damage</text><line style="stroke:#A80036;stroke-width:1.5;" x1="362.4898" x2="497.4898" y1="52" y2="52"/><line style="stroke:#A80036;stroke-width:1.5;" x1="362.4898" x2="497.4898" y1="60" y2="60"/><!--MD5=[894442645724153f40a9f7a43026dbfc]
class Invoice--><rect codeLine="80" fill="#FEFECE" filter="url(#f1l28so5mq3y6w)" height="48" id="Invoice" style="stroke:#A80036;stroke-width:1.5;" width="75" x="164.4898" y="183.5"/><ellipse cx="179.4898" cy="199.5" fill="#ADD1B2" rx="11" ry="11" style="stroke:#A80036;stroke-width:1.0;"/><path d="M181.8336,195.1719 C180.8961,194.7344 180.3023,194.5938 179.4273,194.5938 C176.8023,194.5938 174.8023,196.6719 174.8023,199.3906 L174.8023,200.5156 C174.8023,203.0938 176.9117,204.9844 179.8023,204.9844 C181.0211,204.9844 182.1773,204.6875 182.9273,204.1406 C183.5054,203.7344 183.8336,203.2813 183.8336,202.8906 C183.8336,202.4375 183.4429,202.0469 182.9742,202.0469 C182.7554,202.0469 182.5523,202.125 182.3648,202.3125 C181.9117,202.7969 181.9117,202.7969 181.7242,202.8906 C181.3023,203.1563 180.6148,203.2813 179.8492,203.2813 C177.8023,203.2813 176.5054,202.1875 176.5054,200.4844 L176.5054,199.3906 C176.5054,197.6094 177.7554,196.2969 179.4898,196.2969 C180.0679,196.2969 180.6773,196.4531 181.1461,196.7031 C181.6304,196.9844 181.8023,197.2031 181.8961,197.6094 C181.9586,198.0156 181.9898,198.1406 182.1304,198.2656 C182.2711,198.4063 182.5054,198.5156 182.7242,198.5156 C182.9898,198.5156 183.2554,198.375 183.4273,198.1563 C183.5367,198 183.5679,197.8125 183.5679,197.3906 L183.5679,195.9688 C183.5679,195.5313 183.5523,195.4063 183.4586,195.25 C183.3023,194.9844 183.0211,194.8438 182.7242,194.8438 C182.4273,194.8438 182.2242,194.9375 182.0054,195.25 L181.8336,195.1719 Z " fill="#000000"/><text fill="#000000" font-family="sans-serif" font-size="12" lengthAdjust="spacing" textLength="43" x="193.4898" y="203.6543">Invoice</text><line style="stroke:#A80036;stroke-width:1.5;" x1="165.4898" x2="238.4898" y1="215.5" y2="215.5"/><line style="stroke:#A80036;stroke-width:1.5;" x1="165.4898" x2="238.4898" y1="223.5" y2="223.5"/><!--MD5=[3f2200ee59b7ff328547c16fcaa82aaa]
reverse link CARS to ParkingSite--><path codeLine="10" d="M1158.3898,75.042 C1113.8998,106.423 1045.0598,154.966 1004.6708,183.452 " fill="none" id="CARS-backto-ParkingSite" style="stroke:#A80036;stroke-width:1.0;"/><polygon fill="#FFFFFF" points="1169.1498,67.456,1161.9413,67.6485,1159.3464,74.3765,1166.5549,74.1841,1169.1498,67.456" style="stroke:#A80036;stroke-width:1.0;"/><text fill="#000000" font-family="sans-serif" font-size="13" lengthAdjust="spacing" textLength="7" x="1005.1484" y="172.4517">*</text><!--MD5=[716c2c77d43397d091119903dc1a5959]
reverse link CARS to CallCenter--><path codeLine="11" d="M1244.5298,64.252 C1293.7098,89.307 1366.9898,138.111 1366.9898,206.5 C1366.9898,206.5 1366.9898,206.5 1366.9898,541 C1366.9898,619.2677 1264.8798,655.7887 1202.0598,670.8514 " fill="none" id="CARS-backto-CallCenter" style="stroke:#A80036;stroke-width:1.0;"/><polygon fill="#FFFFFF" points="1232.5998,58.396,1236.223,64.6308,1243.3717,63.6843,1239.7485,57.4495,1232.5998,58.396" style="stroke:#A80036;stroke-width:1.0;"/><!--MD5=[bc994b2bc8399e6cf05b87a8d6d9eb07]
reverse link CARS to WebSite--><path codeLine="12" d="M1156.2598,46.599 C1065.4498,52.482 867.9898,79.838 867.9898,206.5 C867.9898,206.5 867.9898,206.5 867.9898,541 C867.9898,584.131 845.4358,630.141 829.7538,656.9196 " fill="none" id="CARS-backto-WebSite" style="stroke:#A80036;stroke-width:1.0;"/><polygon fill="#FFFFFF" points="1169.3598,45.852,1163.1411,42.2014,1157.3794,46.5376,1163.5982,50.1883,1169.3598,45.852" style="stroke:#A80036;stroke-width:1.0;"/><!--MD5=[d37b3934b94f6a41b3abc66745ff87de]
link CARS to CarModel--><path codeLine="13" d="M1212.0898,68.319 C1240.0698,130.798 1306.3298,305.015 1234.9898,420 C1192.7498,488.082 1146.7098,468.082 1071.9898,497 C1053.1898,504.274 1032.5998,512.532 1014.7278,519.788 " fill="none" id="CARS-CarModel" style="stroke:#A80036;stroke-width:1.0;"/><polygon fill="#000000" points="1269.987,300.1478,1276.3029,293.0372,1270.9172,290.6828,1269.987,300.1478" style="stroke:#000000;stroke-width:1.0;"/><text fill="#000000" font-family="sans-serif" font-size="13" lengthAdjust="spacing" textLength="38" x="1280.9898" y="300.0669">offers</text><text fill="#000000" font-family="sans-serif" font-size="13" lengthAdjust="spacing" textLength="7" x="1022.4205" y="512.6217">*</text><!--MD5=[cac5143a03384f301858577b750c41ea]
link ParkingSite to Office--><path codeLine="14" d="M921.3038,212.764 C836.0018,221.099 669.5558,242.741 633.9898,287 C619.2778,305.309 621.6838,333.252 626.0668,352.934 " fill="none" id="ParkingSite-Office" style="stroke:#A80036;stroke-width:1.0;"/><polygon fill="#000000" points="643.5066,293.422,634.0752,294.6464,636.5961,299.9562,643.5066,293.422" style="stroke:#000000;stroke-width:1.0;"/><text fill="#000000" font-family="sans-serif" font-size="13" lengthAdjust="spacing" textLength="64" x="647.9898" y="300.0669">is close to</text><!--MD5=[0bb5ecd22f769035943466e1f175b6da]
link ParkingSite to Car--><path codeLine="15" d="M952.7488,231.562 C941.6758,246.38 928.8308,266.614 922.9898,287 C917.1828,307.271 925.7508,329.333 935.8608,346.42 " fill="none" id="ParkingSite-Car" style="stroke:#A80036;stroke-width:1.0;"/><polygon fill="#000000" points="928.7171,290.6196,924.4937,299.1409,930.309,299.996,928.7171,290.6196" style="stroke:#000000;stroke-width:1.0;"/><text fill="#000000" font-family="sans-serif" font-size="13" lengthAdjust="spacing" textLength="73" x="936.9898" y="300.0669">is parked in</text><text fill="#000000" font-family="sans-serif" font-size="13" lengthAdjust="spacing" textLength="7" x="923.5748" y="335.6667">*</text><!--MD5=[217e3cd1ec25ad564a9a1147727fbe7d]
link Office to Employee--><path codeLine="16" d="M626.0878,401.062 C619.7098,419.966 608.9528,446.802 593.9898,467 C580.0418,485.829 560.3098,503.064 543.4758,515.948 " fill="none" id="Office-Employee" style="stroke:#A80036;stroke-width:1.0;"/><polygon fill="#000000" points="612.9089,454.507,605.2421,460.1348,610.0143,463.5663,612.9089,454.507" style="stroke:#000000;stroke-width:1.0;"/><text fill="#000000" font-family="sans-serif" font-size="13" lengthAdjust="spacing" textLength="53" x="618.9898" y="463.0669">works in</text><text fill="#000000" font-family="sans-serif" font-size="13" lengthAdjust="spacing" textLength="7" x="544.1597" y="504.9467">*</text><!--MD5=[b93b373ada3841d2c88bbb890cab4936]
link Car to CarModel--><path codeLine="17" d="M955.1658,407.717 C953.9748,425.04 953.2248,447.29 954.9898,467 C956.4628,483.447 959.7928,501.757 962.7128,515.796 " fill="none" id="Car-CarModel" style="stroke:#A80036;stroke-width:1.0;"/><polygon fill="#000000" points="960.3381,463.5543,962.6398,454.3264,956.7762,454.7359,960.3381,463.5543" style="stroke:#000000;stroke-width:1.0;"/><text fill="#000000" font-family="sans-serif" font-size="13" lengthAdjust="spacing" textLength="96" x="968.9898" y="463.0669">is described by</text><text fill="#000000" font-family="sans-serif" font-size="13" lengthAdjust="spacing" textLength="7" x="946.9208" y="427.3402">*</text><!--MD5=[e4f8dfa52517c32333d1190e87558cb7]
link Car to *--><path codeLine="18" d="M984.2428,389.359 C1009.1798,401.299 1046.2898,422.213 1069.9898,450 C1086.4098,469.252 1096.9798,496.499 1102.9098,515.762 " fill="none" id="Car-*" style="stroke:#A80036;stroke-width:1.0;"/><text fill="#000000" font-family="sans-serif" font-size="13" lengthAdjust="spacing" textLength="62" x="1081.9898" y="463.0669">Insurance</text><!--MD5=[f1f9b6f25047388ffbf25aa240c8f3fd]
link Insurance to Insurer--><path codeLine="24" d="M1148.8698,238.06 C1156.4998,270.837 1168.6598,323.022 1175.6198,352.926 " fill="none" id="Insurance-Insurer" style="stroke:#A80036;stroke-width:1.0;"/><polygon fill="#000000" points="1170.1239,300.4361,1170.9347,290.9602,1165.21,292.2933,1170.1239,300.4361" style="stroke:#000000;stroke-width:1.0;"/><text fill="#000000" font-family="sans-serif" font-size="13" lengthAdjust="spacing" textLength="55" x="1177.9898" y="300.0669">provides</text><text fill="#000000" font-family="sans-serif" font-size="13" lengthAdjust="spacing" textLength="7" x="1142.5669" y="258.0106">*</text><!--MD5=[6c30fed22086064e70b0965e3cf6793a]
link Insurance to Car--><path codeLine="25" d="M1109.5198,238.06 C1073.8198,270.556 1017.1708,322.126 984.1898,352.15 " fill="none" id="Insurance-Car" style="stroke:#A80036;stroke-width:1.0;"/><polygon fill="#000000" points="1064.6872,292.2006,1056.0201,296.1161,1059.9769,300.4627,1064.6872,292.2006" style="stroke:#000000;stroke-width:1.0;"/><text fill="#000000" font-family="sans-serif" font-size="13" lengthAdjust="spacing" textLength="72" x="1069.9898" y="300.0669">covered by</text><text fill="#000000" font-family="sans-serif" font-size="13" lengthAdjust="spacing" textLength="7" x="1095.101" y="258.0106">*</text><!--MD5=[64f0e157b9264e99419c5f82d7e84fb1]
link Customer to CreditCard--><path codeLine="31" d="M297.9898,583.082 C297.9898,602.419 297.9898,625.1282 297.9898,643.702 " fill="none" id="Customer-CreditCard" style="stroke:#A80036;stroke-width:1.0;"/><!--MD5=[80317c0df8260a2b4164dcd7707f16b7]
reverse link ReservationChannel to CallCenter--><path codeLine="41" d="M827.8408,570.496 C912.5848,598.948 1037.7298,640.9645 1105.7198,663.7944 " fill="none" id="ReservationChannel-backto-CallCenter" style="stroke:#A80036;stroke-width:1.0;"/><polygon fill="none" points="825.5508,577.111,808.8188,564.109,830.0068,563.839,825.5508,577.111" style="stroke:#A80036;stroke-width:1.0;"/><!--MD5=[68217cf681d0a6e05fe63377705915e0]
reverse link ReservationChannel to WebSite--><path codeLine="42" d="M762.0628,581.908 C775.2028,606.261 791.4048,636.2881 802.3958,656.6586 " fill="none" id="ReservationChannel-backto-WebSite" style="stroke:#A80036;stroke-width:1.0;"/><polygon fill="none" points="755.8798,585.191,752.5438,564.265,768.2008,578.543,755.8798,585.191" style="stroke:#A80036;stroke-width:1.0;"/><!--MD5=[084ed435efc901fd8b74a4436d3ced04]
link Reservation to Customer--><path codeLine="43" d="M466.4858,401.038 C444.5008,414.434 417.0088,432.155 393.9898,450 C375.4898,464.342 356.3358,481.551 340.0488,496.998 " fill="none" id="Reservation-Customer" style="stroke:#A80036;stroke-width:1.0;"/><polygon fill="#000000" points="402.9726,455.5436,393.9909,458.6708,397.5444,463.3529,402.9726,455.5436" style="stroke:#000000;stroke-width:1.0;"/><text fill="#000000" font-family="sans-serif" font-size="13" lengthAdjust="spacing" textLength="56" x="407.9898" y="463.0669">reserves</text><text fill="#000000" font-family="sans-serif" font-size="13" lengthAdjust="spacing" textLength="7" x="448.466" y="421.2035">*</text><!--MD5=[97bf76a5aab5935072116bf3b7f1f886]
link Reservation to ReservationChannel--><path codeLine="44" d="M497.1218,401.169 C491.2958,420.649 487.0518,448.244 500.9898,467 C511.1358,480.652 598.7278,504.639 664.9588,521.15 " fill="none" id="Reservation-ReservationChannel" style="stroke:#A80036;stroke-width:1.0;"/><polygon fill="#000000" points="510.0574,461.4742,504.4082,453.8231,500.9899,458.6048,510.0574,461.4742" style="stroke:#000000;stroke-width:1.0;"/><text fill="#000000" font-family="sans-serif" font-size="13" lengthAdjust="spacing" textLength="70" x="514.9898" y="463.0669">done using</text><!--MD5=[ce698a0348dacea28d201157393cc2b9]
link Reservation to CarModel--><path codeLine="45" d="M543.3298,401.028 C555.1078,407.71 568.3498,414.641 580.9898,420 C623.7108,438.111 636.6078,436.461 680.9898,450 C765.8158,475.876 864.5428,506.632 921.3028,524.377 " fill="none" id="Reservation-CarModel" style="stroke:#A80036;stroke-width:1.0;"/><polygon fill="#000000" points="745.7431,460.1176,738.0561,454.5175,736.2325,460.1054,745.7431,460.1176" style="stroke:#000000;stroke-width:1.0;"/><text fill="#000000" font-family="sans-serif" font-size="13" lengthAdjust="spacing" textLength="56" x="749.9898" y="463.0669">reserves</text><!--MD5=[6a0c816ed4225dd335dfd1cbbe9e3505]
link Contract to Customer--><path codeLine="50" d="M435.7778,257.162 C428.6208,266.874 421.3868,277.128 414.9898,287 C370.1398,356.223 333.0038,445.406 313.2868,496.998 " fill="none" id="Contract-Customer" style="stroke:#A80036;stroke-width:1.0;"/><polygon fill="#000000" points="395.264,372.6135,388.5326,379.3321,393.7673,382.0056,395.264,372.6135" style="stroke:#000000;stroke-width:1.0;"/><text fill="#000000" font-family="sans-serif" font-size="13" lengthAdjust="spacing" textLength="33" x="401.9898" y="381.5669">signs</text><text fill="#000000" font-family="sans-serif" font-size="13" lengthAdjust="spacing" textLength="7" x="422.9121" y="277.2613">*</text><!--MD5=[6cca602e54c50fadc946652a0977bbb7]
link Contract to Reservation--><path codeLine="51" d="M431.3118,257.153 C423.1998,272.048 419.1198,288.574 425.9898,304 C434.8088,323.8 452.0608,340.44 468.2938,352.718 " fill="none" id="Contract-Reservation" style="stroke:#A80036;stroke-width:1.0;"/><polygon fill="#000000" points="432.7943,300.2294,432.2708,290.7333,426.7891,292.8546,432.7943,300.2294" style="stroke:#000000;stroke-width:1.0;"/><text fill="#000000" font-family="sans-serif" font-size="13" lengthAdjust="spacing" textLength="65" x="439.9898" y="300.0669">relative to</text><text fill="#000000" font-family="sans-serif" font-size="13" lengthAdjust="spacing" textLength="24" x="432.1804" y="342.0542">0..1</text><!--MD5=[cbf67a960e37c5c5476d644ba4301867]
link Contract to Office--><path codeLine="52" d="M507.4328,257.385 C518.9328,272.911 532.3618,289.739 545.9898,304 C563.0578,321.859 584.3998,339.58 601.6748,352.973 " fill="none" id="Contract-Office" style="stroke:#A80036;stroke-width:1.0;"/><polygon fill="#000000" points="547.4794,292.0059,551.7369,300.5103,555.9226,296.3836,547.4794,292.0059" style="stroke:#000000;stroke-width:1.0;"/><text fill="#000000" font-family="sans-serif" font-size="13" lengthAdjust="spacing" textLength="33" x="559.9898" y="300.0669">signs</text><!--MD5=[5e2df4cf7bf621eb2ca0886e3295825c]
link Contract to Payment--><path codeLine="53" d="M400.4628,249.449 C394.3028,252.206 388.0948,254.769 381.9898,257 C323.4448,278.395 286.7218,240.7 244.9898,287 C233.7468,299.473 230.2108,317.263 229.8798,333.662 " fill="none" id="Contract-Payment" style="stroke:#A80036;stroke-width:1.0;"/><polygon fill="#000000" points="245.5064,297.7798,254.9179,296.411,252.316,291.1405,245.5064,297.7798" style="stroke:#000000;stroke-width:1.0;"/><text fill="#000000" font-family="sans-serif" font-size="13" lengthAdjust="spacing" textLength="85" x="258.9898" y="300.0669">has payment</text><!--MD5=[4db1fbb6b43538619851b0dccb8e0bba]
link Contract to Car--><path codeLine="54" d="M547.6258,231.417 C595.9458,246.67 660.4288,267.43 716.9898,287 C795.6008,314.2 887.5798,349.004 931.7288,365.897 " fill="none" id="Contract-Car" style="stroke:#A80036;stroke-width:1.0;"/><polygon fill="#000000" points="764.2707,293.9142,771.8365,299.6769,773.7788,294.1293,764.2707,293.9142" style="stroke:#000000;stroke-width:1.0;"/><text fill="#000000" font-family="sans-serif" font-size="13" lengthAdjust="spacing" textLength="74" x="777.9898" y="300.0669">assigned to</text><!--MD5=[4859ca54c5f1f105f3a0aee66e6dfd26]
link CheckoutDamage to Contract--><path codeLine="66" d="M186.6108,81.048 C209.4978,97.317 238.0978,115.618 265.9898,128 C314.6618,149.606 332.3248,138.787 381.9898,158 C388.0528,160.345 394.2288,162.99 400.3678,165.803 " fill="none" id="CheckoutDamage-Contract" style="stroke:#A80036;stroke-width:1.0;"/><polygon fill="#000000" points="275.6378,121.4093,268.3128,115.3434,266.1463,120.8075,275.6378,121.4093" style="stroke:#000000;stroke-width:1.0;"/><text fill="#000000" font-family="sans-serif" font-size="13" lengthAdjust="spacing" textLength="74" x="279.9898" y="124.0669">attached to</text><!--MD5=[ecb3c59a77624858449a6485bd0ad19c]
link CheckoutDamage to Damage--><path codeLine="67" d="M143.7828,81.124 C147.2058,97.311 153.6968,115.522 165.9898,128 C195.8778,158.336 219.3608,138.061 256.9898,158 C266.8698,163.235 276.8038,170.013 285.7698,176.833 " fill="none" id="CheckoutDamage-Damage" style="stroke:#A80036;stroke-width:1.0;"/><polygon fill="#000000" points="175.1358,122.3611,169.2783,114.8685,165.9929,119.7424,175.1358,122.3611" style="stroke:#000000;stroke-width:1.0;"/><text fill="#000000" font-family="sans-serif" font-size="13" lengthAdjust="spacing" textLength="23" x="179.9898" y="124.0669">has</text><text fill="#000000" font-family="sans-serif" font-size="13" lengthAdjust="spacing" textLength="7" x="270.9901" y="166.0618">*</text><!--MD5=[825f40402bf2b3fde265f1dcd4defbcc]
link CheckoutDamage to Customer--><path codeLine="68" d="M107.2079,81.068 C66.7975,130.004 6,220.883 27.9901,304 C43.1614,361.343 52.274,377.831 93.9901,420 C136.6678,463.14 198.1818,496.173 242.4888,516.366 " fill="none" id="CheckoutDamage-Customer" style="stroke:#A80036;stroke-width:1.0;"/><polygon fill="#000000" points="31.5062,290.7917,31.3841,300.3015,36.9971,298.557,31.5062,290.7917" style="stroke:#000000;stroke-width:1.0;"/><text fill="#000000" font-family="sans-serif" font-size="13" lengthAdjust="spacing" textLength="33" x="41.9901" y="300.0669">signs</text><text fill="#000000" font-family="sans-serif" font-size="13" lengthAdjust="spacing" textLength="7" x="94.1987" y="100.5598">*</text><!--MD5=[1bdaa73942196aa0e2ab6fae43df9520]
link CheckoutDamage to Employee--><path codeLine="69" d="M129.3388,81.262 C110.3863,153.91 79.6321,318.968 156.9898,420 C166.6718,432.645 370.4918,496.298 463.9258,524.966 " fill="none" id="CheckoutDamage-Employee" style="stroke:#A80036;stroke-width:1.0;"/><polygon fill="#000000" points="113.9797,291.5742,117.079,300.5656,121.7721,297.0267,113.9797,291.5742" style="stroke:#000000;stroke-width:1.0;"/><text fill="#000000" font-family="sans-serif" font-size="13" lengthAdjust="spacing" textLength="33" x="125.9901" y="300.0669">signs</text><text fill="#000000" font-family="sans-serif" font-size="13" lengthAdjust="spacing" textLength="7" x="119.995" y="100.7859">*</text><!--MD5=[b3cd391b8f602a1d6f075157471a5e3c]
link CheckinDamage to Contract--><path codeLine="76" d="M436.2938,68.139 C442.6388,91.427 452.6178,128.053 460.7148,157.773 " fill="none" id="CheckinDamage-Contract" style="stroke:#A80036;stroke-width:1.0;"/><polygon fill="#000000" points="458.3042,124.3906,458.762,114.891,453.0909,116.4361,458.3042,124.3906" style="stroke:#000000;stroke-width:1.0;"/><text fill="#000000" font-family="sans-serif" font-size="13" lengthAdjust="spacing" textLength="65" x="465.9898" y="124.0669">relative to</text><!--MD5=[652cdbbc9fff3bcd60b2ddd37ac2edad]
link CheckinDamage to Damage--><path codeLine="77" d="M407.4318,68.081 C396.0958,80.297 382.5608,95.869 371.9898,111 C357.3948,131.892 343.7318,157.308 334.0768,176.665 " fill="none" id="CheckinDamage-Damage" style="stroke:#A80036;stroke-width:1.0;"/><polygon fill="#000000" points="374.1908,123.7096,381.6895,117.8597,376.8189,114.5693,374.1908,123.7096" style="stroke:#000000;stroke-width:1.0;"/><text fill="#000000" font-family="sans-serif" font-size="13" lengthAdjust="spacing" textLength="54" x="385.9898" y="124.0669">has new</text><text fill="#000000" font-family="sans-serif" font-size="13" lengthAdjust="spacing" textLength="7" x="329.2604" y="165.8591">*</text><!--MD5=[8057192d0da8c3a76f90b3876072c699]
link Invoice to Payment--><path codeLine="81" d="M203.0978,231.864 C204.3398,251.327 206.8908,279.69 211.9898,304 C214.0378,313.761 216.8968,324.071 219.9048,333.746 " fill="none" id="Invoice-Payment" style="stroke:#A80036;stroke-width:1.0;"/><!--MD5=[c93af70680856c2071b860ed10d81ae1]
@startuml
' CARS company
class CARS
class "Parking site" as ParkingSite
class Office
class Employee
class Car
class "Car Model" as CarModel
class "Call center" as CallCenter
class "Web site" as WebSite
CARS o- - "*" ParkingSite
CARS o- - CallCenter
CARS o- - WebSite
CARS - - "*" CarModel : offers >
ParkingSite - - Office : is close to <
ParkingSite - - "*" Car : is parked in <
Office - - "*" Employee : works in <
Car "*" - - CarModel : is described by >
Car - - "*" : Insurance
Car : +Tag

' Insurances
class Insurer
class Insurance
Insurance "*" - - Insurer : provides >
Insurance "*" - - Car : covered by <
Insurance : +Type

' Customer
class Customer
class "Credit card" as CreditCard
Customer - - CreditCard
Customer : +Name
Customer : +ID document
Customer : +Driving license
CreditCard : +Number
CreditCard : +Expiration date

' Reservation
class Reservation
class ReservationChannel
ReservationChannel <|- - CallCenter
ReservationChannel <|- - WebSite
Reservation "*" - - Customer : reserves <
Reservation - - ReservationChannel : done using >
Reservation - - CarModel : reserves >

' Check-out - Part 1
class Contract
class Payment
Contract "*" - - Customer : signs <
Contract - - "0..1" Reservation : relative to >
Contract - - Office : signs <
Contract - - Payment : has payment >
Contract - - Car : assigned to <
Contract : +Period start
Contract : +Period end
Contract : +Customer's signature
Contract : +Office's signature
Payment : +Damage deposit
Payment : +Partial fee
Payment : +Total fee

' Check-out - Part 2
class "Check-out damage" as CheckoutDamage
class Damage
CheckoutDamage - - Contract : attached to >
CheckoutDamage - - "*" Damage : has >
CheckoutDamage "*" - - Customer : signs <
CheckoutDamage "*" - - Employee : signs <
CheckoutDamage : +Customer's signature
CheckoutDamage : +Employee's signature
Damage : +Description

' Check-in
class "Check-in damage" as CheckinDamage
CheckinDamage - - Contract : relative to >
CheckinDamage - - "*" Damage : has new >

' Invoice
class Invoice
Invoice - - Payment
@enduml

@startuml
class CARS
class "Parking site" as ParkingSite
class Office
class Employee
class Car
class "Car Model" as CarModel
class "Call center" as CallCenter
class "Web site" as WebSite
CARS o- - "*" ParkingSite
CARS o- - CallCenter
CARS o- - WebSite
CARS - - "*" CarModel : offers >
ParkingSite - - Office : is close to <
ParkingSite - - "*" Car : is parked in <
Office - - "*" Employee : works in <
Car "*" - - CarModel : is described by >
Car - - "*" : Insurance
Car : +Tag

class Insurer
class Insurance
Insurance "*" - - Insurer : provides >
Insurance "*" - - Car : covered by <
Insurance : +Type

class Customer
class "Credit card" as CreditCard
Customer - - CreditCard
Customer : +Name
Customer : +ID document
Customer : +Driving license
CreditCard : +Number
CreditCard : +Expiration date

class Reservation
class ReservationChannel
ReservationChannel <|- - CallCenter
ReservationChannel <|- - WebSite
Reservation "*" - - Customer : reserves <
Reservation - - ReservationChannel : done using >
Reservation - - CarModel : reserves >

class Contract
class Payment
Contract "*" - - Customer : signs <
Contract - - "0..1" Reservation : relative to >
Contract - - Office : signs <
Contract - - Payment : has payment >
Contract - - Car : assigned to <
Contract : +Period start
Contract : +Period end
Contract : +Customer's signature
Contract : +Office's signature
Payment : +Damage deposit
Payment : +Partial fee
Payment : +Total fee

class "Check-out damage" as CheckoutDamage
class Damage
CheckoutDamage - - Contract : attached to >
CheckoutDamage - - "*" Damage : has >
CheckoutDamage "*" - - Customer : signs <
CheckoutDamage "*" - - Employee : signs <
CheckoutDamage : +Customer's signature
CheckoutDamage : +Employee's signature
Damage : +Description

class "Check-in damage" as CheckinDamage
CheckinDamage - - Contract : relative to >
CheckinDamage - - "*" Damage : has new >

class Invoice
Invoice - - Payment
@enduml

PlantUML version 1.2021.10(Mon Aug 30 13:43:48 UTC 2021)
(GPL source distribution)
Java Runtime: Java(TM) SE Runtime Environment
JVM: Java HotSpot(TM) 64-Bit Server VM
Default Encoding: UTF-8
Language: en
Country: US
--></g></svg>