<?xml version="1.0" encoding="UTF-8" standalone="no"?><svg xmlns="http://www.w3.org/2000/svg" xmlns:xlink="http://www.w3.org/1999/xlink" contentScriptType="application/ecmascript" contentStyleType="text/css" height="558px" preserveAspectRatio="none" style="width:541px;height:558px;background:#FFFFFF;" version="1.1" viewBox="0 0 541 558" width="541px" zoomAndPan="magnify"><defs><filter height="300%" id="f18b3mn09w14pj" width="300%" x="-1" y="-1"><feGaussianBlur result="blurOut" stdDeviation="2.0"/><feColorMatrix in="blurOut" result="blurOut2" type="matrix" values="0 0 0 0 0 0 0 0 0 0 0 0 0 0 0 0 0 0 .4 0"/><feOffset dx="4.0" dy="4.0" in="blurOut2" result="blurOut3"/><feBlend in="SourceGraphic" in2="blurOut3" mode="normal"/></filter></defs><g><!--MD5=[10a9fff9df9a76a22f65fd5d58adb785]
class School--><rect codeLine="1" fill="#FEFECE" filter="url(#f18b3mn09w14pj)" height="48" id="School" style="stroke:#A80036;stroke-width:1.5;" width="73" x="91" y="7"/><ellipse cx="106" cy="23" fill="#ADD1B2" rx="11" ry="11" style="stroke:#A80036;stroke-width:1.0;"/><path d="M108.3438,18.6719 C107.4063,18.2344 106.8125,18.0938 105.9375,18.0938 C103.3125,18.0938 101.3125,20.1719 101.3125,22.8906 L101.3125,24.0156 C101.3125,26.5938 103.4219,28.4844 106.3125,28.4844 C107.5313,28.4844 108.6875,28.1875 109.4375,27.6406 C110.0156,27.2344 110.3438,26.7813 110.3438,26.3906 C110.3438,25.9375 109.9531,25.5469 109.4844,25.5469 C109.2656,25.5469 109.0625,25.625 108.875,25.8125 C108.4219,26.2969 108.4219,26.2969 108.2344,26.3906 C107.8125,26.6563 107.125,26.7813 106.3594,26.7813 C104.3125,26.7813 103.0156,25.6875 103.0156,23.9844 L103.0156,22.8906 C103.0156,21.1094 104.2656,19.7969 106,19.7969 C106.5781,19.7969 107.1875,19.9531 107.6563,20.2031 C108.1406,20.4844 108.3125,20.7031 108.4063,21.1094 C108.4688,21.5156 108.5,21.6406 108.6406,21.7656 C108.7813,21.9063 109.0156,22.0156 109.2344,22.0156 C109.5,22.0156 109.7656,21.875 109.9375,21.6563 C110.0469,21.5 110.0781,21.3125 110.0781,20.8906 L110.0781,19.4688 C110.0781,19.0313 110.0625,18.9063 109.9688,18.75 C109.8125,18.4844 109.5313,18.3438 109.2344,18.3438 C108.9375,18.3438 108.7344,18.4375 108.5156,18.75 L108.3438,18.6719 Z " fill="#000000"/><text fill="#000000" font-family="sans-serif" font-size="12" lengthAdjust="spacing" textLength="41" x="120" y="27.1543">School</text><line style="stroke:#A80036;stroke-width:1.5;" x1="92" x2="163" y1="39" y2="39"/><line style="stroke:#A80036;stroke-width:1.5;" x1="92" x2="163" y1="47" y2="47"/><!--MD5=[d0da0a299942266ebd64acf2b2e95fa4]
class Subject--><rect codeLine="2" fill="#FEFECE" filter="url(#f18b3mn09w14pj)" height="86.4141" id="Subject" style="stroke:#A80036;stroke-width:1.5;" width="90" x="248.5" y="295"/><ellipse cx="269.35" cy="311" fill="#ADD1B2" rx="11" ry="11" style="stroke:#A80036;stroke-width:1.0;"/><path d="M271.6938,306.6719 C270.7563,306.2344 270.1625,306.0938 269.2875,306.0938 C266.6625,306.0938 264.6625,308.1719 264.6625,310.8906 L264.6625,312.0156 C264.6625,314.5938 266.7719,316.4844 269.6625,316.4844 C270.8813,316.4844 272.0375,316.1875 272.7875,315.6406 C273.3656,315.2344 273.6938,314.7813 273.6938,314.3906 C273.6938,313.9375 273.3031,313.5469 272.8344,313.5469 C272.6156,313.5469 272.4125,313.625 272.225,313.8125 C271.7719,314.2969 271.7719,314.2969 271.5844,314.3906 C271.1625,314.6563 270.475,314.7813 269.7094,314.7813 C267.6625,314.7813 266.3656,313.6875 266.3656,311.9844 L266.3656,310.8906 C266.3656,309.1094 267.6156,307.7969 269.35,307.7969 C269.9281,307.7969 270.5375,307.9531 271.0063,308.2031 C271.4906,308.4844 271.6625,308.7031 271.7563,309.1094 C271.8188,309.5156 271.85,309.6406 271.9906,309.7656 C272.1313,309.9063 272.3656,310.0156 272.5844,310.0156 C272.85,310.0156 273.1156,309.875 273.2875,309.6563 C273.3969,309.5 273.4281,309.3125 273.4281,308.8906 L273.4281,307.4688 C273.4281,307.0313 273.4125,306.9063 273.3188,306.75 C273.1625,306.4844 272.8813,306.3438 272.5844,306.3438 C272.2875,306.3438 272.0844,306.4375 271.8656,306.75 L271.6938,306.6719 Z " fill="#000000"/><text fill="#000000" font-family="sans-serif" font-size="12" lengthAdjust="spacing" textLength="45" x="284.65" y="315.1543">Subject</text><line style="stroke:#A80036;stroke-width:1.5;" x1="249.5" x2="337.5" y1="327" y2="327"/><ellipse cx="259.5" cy="338" rx="3" ry="3" style="stroke:#038048;stroke-width:1.0;fill:none;"/><text fill="#000000" font-family="sans-serif" font-size="11" lengthAdjust="spacing" textLength="12" x="268.5" y="341.2104">ID</text><ellipse cx="259.5" cy="350.8047" rx="3" ry="3" style="stroke:#038048;stroke-width:1.0;fill:none;"/><text fill="#000000" font-family="sans-serif" font-size="11" lengthAdjust="spacing" textLength="34" x="268.5" y="354.0151">Name</text><ellipse cx="259.5" cy="363.6094" rx="3" ry="3" style="stroke:#038048;stroke-width:1.0;fill:none;"/><text fill="#000000" font-family="sans-serif" font-size="11" lengthAdjust="spacing" textLength="64" x="268.5" y="366.8198">Description</text><line style="stroke:#A80036;stroke-width:1.5;" x1="249.5" x2="337.5" y1="373.4141" y2="373.4141"/><!--MD5=[61a83f88cb8b7d3a80bc8c481f3736bf]
class Teacher--><rect codeLine="3" fill="#FEFECE" filter="url(#f18b3mn09w14pj)" height="86.4141" id="Teacher" style="stroke:#A80036;stroke-width:1.5;" width="81" x="7" y="458"/><ellipse cx="22" cy="474" fill="#ADD1B2" rx="11" ry="11" style="stroke:#A80036;stroke-width:1.0;"/><path d="M24.3438,469.6719 C23.4063,469.2344 22.8125,469.0938 21.9375,469.0938 C19.3125,469.0938 17.3125,471.1719 17.3125,473.8906 L17.3125,475.0156 C17.3125,477.5938 19.4219,479.4844 22.3125,479.4844 C23.5313,479.4844 24.6875,479.1875 25.4375,478.6406 C26.0156,478.2344 26.3438,477.7813 26.3438,477.3906 C26.3438,476.9375 25.9531,476.5469 25.4844,476.5469 C25.2656,476.5469 25.0625,476.625 24.875,476.8125 C24.4219,477.2969 24.4219,477.2969 24.2344,477.3906 C23.8125,477.6563 23.125,477.7813 22.3594,477.7813 C20.3125,477.7813 19.0156,476.6875 19.0156,474.9844 L19.0156,473.8906 C19.0156,472.1094 20.2656,470.7969 22,470.7969 C22.5781,470.7969 23.1875,470.9531 23.6563,471.2031 C24.1406,471.4844 24.3125,471.7031 24.4063,472.1094 C24.4688,472.5156 24.5,472.6406 24.6406,472.7656 C24.7813,472.9063 25.0156,473.0156 25.2344,473.0156 C25.5,473.0156 25.7656,472.875 25.9375,472.6563 C26.0469,472.5 26.0781,472.3125 26.0781,471.8906 L26.0781,470.4688 C26.0781,470.0313 26.0625,469.9063 25.9688,469.75 C25.8125,469.4844 25.5313,469.3438 25.2344,469.3438 C24.9375,469.3438 24.7344,469.4375 24.5156,469.75 L24.3438,469.6719 Z " fill="#000000"/><text fill="#000000" font-family="sans-serif" font-size="12" lengthAdjust="spacing" textLength="49" x="36" y="478.1543">Teacher</text><line style="stroke:#A80036;stroke-width:1.5;" x1="8" x2="87" y1="490" y2="490"/><ellipse cx="18" cy="501" rx="3" ry="3" style="stroke:#038048;stroke-width:1.0;fill:none;"/><text fill="#000000" font-family="sans-serif" font-size="11" lengthAdjust="spacing" textLength="12" x="27" y="504.2104">ID</text><ellipse cx="18" cy="513.8047" rx="3" ry="3" style="stroke:#038048;stroke-width:1.0;fill:none;"/><text fill="#000000" font-family="sans-serif" font-size="11" lengthAdjust="spacing" textLength="34" x="27" y="517.0151">Name</text><ellipse cx="18" cy="526.6094" rx="3" ry="3" style="stroke:#038048;stroke-width:1.0;fill:none;"/><text fill="#000000" font-family="sans-serif" font-size="11" lengthAdjust="spacing" textLength="52" x="27" y="529.8198">Surname</text><line style="stroke:#A80036;stroke-width:1.5;" x1="8" x2="87" y1="536.4141" y2="536.4141"/><!--MD5=[d6181cb537bdc20c0a3007a98a56832d]
class Student--><rect codeLine="4" fill="#FEFECE" filter="url(#f18b3mn09w14pj)" height="86.4141" id="Student" style="stroke:#A80036;stroke-width:1.5;" width="78" x="254.5" y="132"/><ellipse cx="269.5" cy="148" fill="#ADD1B2" rx="11" ry="11" style="stroke:#A80036;stroke-width:1.0;"/><path d="M271.8438,143.6719 C270.9063,143.2344 270.3125,143.0938 269.4375,143.0938 C266.8125,143.0938 264.8125,145.1719 264.8125,147.8906 L264.8125,149.0156 C264.8125,151.5938 266.9219,153.4844 269.8125,153.4844 C271.0313,153.4844 272.1875,153.1875 272.9375,152.6406 C273.5156,152.2344 273.8438,151.7813 273.8438,151.3906 C273.8438,150.9375 273.4531,150.5469 272.9844,150.5469 C272.7656,150.5469 272.5625,150.625 272.375,150.8125 C271.9219,151.2969 271.9219,151.2969 271.7344,151.3906 C271.3125,151.6563 270.625,151.7813 269.8594,151.7813 C267.8125,151.7813 266.5156,150.6875 266.5156,148.9844 L266.5156,147.8906 C266.5156,146.1094 267.7656,144.7969 269.5,144.7969 C270.0781,144.7969 270.6875,144.9531 271.1563,145.2031 C271.6406,145.4844 271.8125,145.7031 271.9063,146.1094 C271.9688,146.5156 272,146.6406 272.1406,146.7656 C272.2813,146.9063 272.5156,147.0156 272.7344,147.0156 C273,147.0156 273.2656,146.875 273.4375,146.6563 C273.5469,146.5 273.5781,146.3125 273.5781,145.8906 L273.5781,144.4688 C273.5781,144.0313 273.5625,143.9063 273.4688,143.75 C273.3125,143.4844 273.0313,143.3438 272.7344,143.3438 C272.4375,143.3438 272.2344,143.4375 272.0156,143.75 L271.8438,143.6719 Z " fill="#000000"/><text fill="#000000" font-family="sans-serif" font-size="12" lengthAdjust="spacing" textLength="46" x="283.5" y="152.1543">Student</text><line style="stroke:#A80036;stroke-width:1.5;" x1="255.5" x2="331.5" y1="164" y2="164"/><ellipse cx="265.5" cy="175" rx="3" ry="3" style="stroke:#038048;stroke-width:1.0;fill:none;"/><text fill="#000000" font-family="sans-serif" font-size="11" lengthAdjust="spacing" textLength="12" x="274.5" y="178.2104">ID</text><ellipse cx="265.5" cy="187.8047" rx="3" ry="3" style="stroke:#038048;stroke-width:1.0;fill:none;"/><text fill="#000000" font-family="sans-serif" font-size="11" lengthAdjust="spacing" textLength="34" x="274.5" y="191.0151">Name</text><ellipse cx="265.5" cy="200.6094" rx="3" ry="3" style="stroke:#038048;stroke-width:1.0;fill:none;"/><text fill="#000000" font-family="sans-serif" font-size="11" lengthAdjust="spacing" textLength="52" x="274.5" y="203.8198">Surname</text><line style="stroke:#A80036;stroke-width:1.5;" x1="255.5" x2="331.5" y1="210.4141" y2="210.4141"/><!--MD5=[71e8807956d33805e77353b9d7e2df39]
class Evaluation--><rect codeLine="5" fill="#FEFECE" filter="url(#f18b3mn09w14pj)" height="60.8047" id="Evaluation" style="stroke:#A80036;stroke-width:1.5;" width="92" x="435.5" y="470.5"/><ellipse cx="450.5" cy="486.5" fill="#ADD1B2" rx="11" ry="11" style="stroke:#A80036;stroke-width:1.0;"/><path d="M452.8438,482.1719 C451.9063,481.7344 451.3125,481.5938 450.4375,481.5938 C447.8125,481.5938 445.8125,483.6719 445.8125,486.3906 L445.8125,487.5156 C445.8125,490.0938 447.9219,491.9844 450.8125,491.9844 C452.0313,491.9844 453.1875,491.6875 453.9375,491.1406 C454.5156,490.7344 454.8438,490.2813 454.8438,489.8906 C454.8438,489.4375 454.4531,489.0469 453.9844,489.0469 C453.7656,489.0469 453.5625,489.125 453.375,489.3125 C452.9219,489.7969 452.9219,489.7969 452.7344,489.8906 C452.3125,490.1563 451.625,490.2813 450.8594,490.2813 C448.8125,490.2813 447.5156,489.1875 447.5156,487.4844 L447.5156,486.3906 C447.5156,484.6094 448.7656,483.2969 450.5,483.2969 C451.0781,483.2969 451.6875,483.4531 452.1563,483.7031 C452.6406,483.9844 452.8125,484.2031 452.9063,484.6094 C452.9688,485.0156 453,485.1406 453.1406,485.2656 C453.2813,485.4063 453.5156,485.5156 453.7344,485.5156 C454,485.5156 454.2656,485.375 454.4375,485.1563 C454.5469,485 454.5781,484.8125 454.5781,484.3906 L454.5781,482.9688 C454.5781,482.5313 454.5625,482.4063 454.4688,482.25 C454.3125,481.9844 454.0313,481.8438 453.7344,481.8438 C453.4375,481.8438 453.2344,481.9375 453.0156,482.25 L452.8438,482.1719 Z " fill="#000000"/><text fill="#000000" font-family="sans-serif" font-size="12" lengthAdjust="spacing" textLength="60" x="464.5" y="490.6543">Evaluation</text><line style="stroke:#A80036;stroke-width:1.5;" x1="436.5" x2="526.5" y1="502.5" y2="502.5"/><ellipse cx="446.5" cy="513.5" rx="3" ry="3" style="stroke:#038048;stroke-width:1.0;fill:none;"/><text fill="#000000" font-family="sans-serif" font-size="11" lengthAdjust="spacing" textLength="35" x="455.5" y="516.7104">Grade</text><line style="stroke:#A80036;stroke-width:1.5;" x1="436.5" x2="526.5" y1="523.3047" y2="523.3047"/><!--MD5=[3b56d29137592f6b9e6e40406f7be17d]
class TermReport--><rect codeLine="6" fill="#FEFECE" filter="url(#f18b3mn09w14pj)" height="86.4141" id="TermReport" style="stroke:#A80036;stroke-width:1.5;" width="105" x="144" y="458"/><ellipse cx="159" cy="474" fill="#ADD1B2" rx="11" ry="11" style="stroke:#A80036;stroke-width:1.0;"/><path d="M161.3438,469.6719 C160.4063,469.2344 159.8125,469.0938 158.9375,469.0938 C156.3125,469.0938 154.3125,471.1719 154.3125,473.8906 L154.3125,475.0156 C154.3125,477.5938 156.4219,479.4844 159.3125,479.4844 C160.5313,479.4844 161.6875,479.1875 162.4375,478.6406 C163.0156,478.2344 163.3438,477.7813 163.3438,477.3906 C163.3438,476.9375 162.9531,476.5469 162.4844,476.5469 C162.2656,476.5469 162.0625,476.625 161.875,476.8125 C161.4219,477.2969 161.4219,477.2969 161.2344,477.3906 C160.8125,477.6563 160.125,477.7813 159.3594,477.7813 C157.3125,477.7813 156.0156,476.6875 156.0156,474.9844 L156.0156,473.8906 C156.0156,472.1094 157.2656,470.7969 159,470.7969 C159.5781,470.7969 160.1875,470.9531 160.6563,471.2031 C161.1406,471.4844 161.3125,471.7031 161.4063,472.1094 C161.4688,472.5156 161.5,472.6406 161.6406,472.7656 C161.7813,472.9063 162.0156,473.0156 162.2344,473.0156 C162.5,473.0156 162.7656,472.875 162.9375,472.6563 C163.0469,472.5 163.0781,472.3125 163.0781,471.8906 L163.0781,470.4688 C163.0781,470.0313 163.0625,469.9063 162.9688,469.75 C162.8125,469.4844 162.5313,469.3438 162.2344,469.3438 C161.9375,469.3438 161.7344,469.4375 161.5156,469.75 L161.3438,469.6719 Z " fill="#000000"/><text fill="#000000" font-family="sans-serif" font-size="12" lengthAdjust="spacing" textLength="73" x="173" y="478.1543">Term report</text><line style="stroke:#A80036;stroke-width:1.5;" x1="145" x2="248" y1="490" y2="490"/><ellipse cx="155" cy="501" rx="3" ry="3" style="stroke:#038048;stroke-width:1.0;fill:none;"/><text fill="#000000" font-family="sans-serif" font-size="11" lengthAdjust="spacing" textLength="26" x="164" y="504.2104">Year</text><ellipse cx="155" cy="513.8047" rx="3" ry="3" style="stroke:#038048;stroke-width:1.0;fill:none;"/><text fill="#000000" font-family="sans-serif" font-size="11" lengthAdjust="spacing" textLength="30" x="164" y="517.0151">Term</text><ellipse cx="155" cy="526.6094" rx="3" ry="3" style="stroke:#038048;stroke-width:1.0;fill:none;"/><text fill="#000000" font-family="sans-serif" font-size="11" lengthAdjust="spacing" textLength="35" x="164" y="529.8198">Grade</text><line style="stroke:#A80036;stroke-width:1.5;" x1="145" x2="248" y1="536.4141" y2="536.4141"/><!--MD5=[3cc7b0d4074c0f5275c08eb3705e7e89]
class YearReport--><rect codeLine="7" fill="#FEFECE" filter="url(#f18b3mn09w14pj)" height="73.6094" id="YearReport" style="stroke:#A80036;stroke-width:1.5;" width="101" x="294" y="464"/><ellipse cx="309" cy="480" fill="#ADD1B2" rx="11" ry="11" style="stroke:#A80036;stroke-width:1.0;"/><path d="M311.3438,475.6719 C310.4063,475.2344 309.8125,475.0938 308.9375,475.0938 C306.3125,475.0938 304.3125,477.1719 304.3125,479.8906 L304.3125,481.0156 C304.3125,483.5938 306.4219,485.4844 309.3125,485.4844 C310.5313,485.4844 311.6875,485.1875 312.4375,484.6406 C313.0156,484.2344 313.3438,483.7813 313.3438,483.3906 C313.3438,482.9375 312.9531,482.5469 312.4844,482.5469 C312.2656,482.5469 312.0625,482.625 311.875,482.8125 C311.4219,483.2969 311.4219,483.2969 311.2344,483.3906 C310.8125,483.6563 310.125,483.7813 309.3594,483.7813 C307.3125,483.7813 306.0156,482.6875 306.0156,480.9844 L306.0156,479.8906 C306.0156,478.1094 307.2656,476.7969 309,476.7969 C309.5781,476.7969 310.1875,476.9531 310.6563,477.2031 C311.1406,477.4844 311.3125,477.7031 311.4063,478.1094 C311.4688,478.5156 311.5,478.6406 311.6406,478.7656 C311.7813,478.9063 312.0156,479.0156 312.2344,479.0156 C312.5,479.0156 312.7656,478.875 312.9375,478.6563 C313.0469,478.5 313.0781,478.3125 313.0781,477.8906 L313.0781,476.4688 C313.0781,476.0313 313.0625,475.9063 312.9688,475.75 C312.8125,475.4844 312.5313,475.3438 312.2344,475.3438 C311.9375,475.3438 311.7344,475.4375 311.5156,475.75 L311.3438,475.6719 Z " fill="#000000"/><text fill="#000000" font-family="sans-serif" font-size="12" lengthAdjust="spacing" textLength="69" x="323" y="484.1543">Year report</text><line style="stroke:#A80036;stroke-width:1.5;" x1="295" x2="394" y1="496" y2="496"/><ellipse cx="305" cy="507" rx="3" ry="3" style="stroke:#038048;stroke-width:1.0;fill:none;"/><text fill="#000000" font-family="sans-serif" font-size="11" lengthAdjust="spacing" textLength="26" x="314" y="510.2104">Year</text><ellipse cx="305" cy="519.8047" rx="3" ry="3" style="stroke:#038048;stroke-width:1.0;fill:none;"/><text fill="#000000" font-family="sans-serif" font-size="11" lengthAdjust="spacing" textLength="16" x="314" y="523.0151">P/F</text><line style="stroke:#A80036;stroke-width:1.5;" x1="295" x2="394" y1="529.6094" y2="529.6094"/><!--MD5=[1b14d9c9b8bbcbbe704ce6661f7e1e22]
link School to Subject--><path codeLine="9" d="M127.944,55.006 C129.575,91.751 136.661,164.941 166.5,218 C186.421,253.422 220.466,284.472 248.294,305.965 " fill="none" id="School-Subject" style="stroke:#A80036;stroke-width:1.0;"/><polygon fill="#000000" points="173.662,179.5748,172.4008,170.1482,167.1009,172.6899,173.662,179.5748" style="stroke:#000000;stroke-width:1.0;"/><text fill="#000000" font-family="sans-serif" font-size="13" lengthAdjust="spacing" textLength="55" x="180.5" y="179.5669">provides</text><text fill="#000000" font-family="sans-serif" font-size="13" lengthAdjust="spacing" textLength="7" x="233.5315" y="296.7086">*</text><!--MD5=[c0d40c1ae05abfd68bea1746caec032a]
link School to Teacher--><path codeLine="10" d="M123.533,55.208 C110.843,129.445 71.1162,361.845 54.7042,457.8553 " fill="none" id="School-Teacher" style="stroke:#A80036;stroke-width:1.0;"/><polygon fill="#000000" points="96.3425,251.6379,91.9215,260.0585,97.7153,261.0489,96.3425,251.6379" style="stroke:#000000;stroke-width:1.0;"/><text fill="#000000" font-family="sans-serif" font-size="13" lengthAdjust="spacing" textLength="53" x="104.5" y="261.0669">works in</text><text fill="#000000" font-family="sans-serif" font-size="13" lengthAdjust="spacing" textLength="7" x="48.2946" y="446.8279">*</text><!--MD5=[bb1b348fe46af82213473b084a6c1e59]
link School to Student--><path codeLine="11" d="M154.54,55.131 C181.642,78.314 223.644,114.244 254.38,140.536 " fill="none" id="School-Student" style="stroke:#A80036;stroke-width:1.0;"/><polygon fill="#000000" points="207.7005,90.3162,212.6635,98.4292,216.4843,93.9626,207.7005,90.3162" style="stroke:#000000;stroke-width:1.0;"/><text fill="#000000" font-family="sans-serif" font-size="13" lengthAdjust="spacing" textLength="61" x="220.5" y="98.0669">studies in</text><text fill="#000000" font-family="sans-serif" font-size="13" lengthAdjust="spacing" textLength="7" x="239.5219" y="129.8399">*</text><!--MD5=[920d9d6f22e8517889e20961a373ef84]
link Student to Subject--><path codeLine="12" d="M293.5,218.301 C293.5,241.965 293.5,271.363 293.5,294.982 " fill="none" id="Student-Subject" style="stroke:#A80036;stroke-width:1.0;"/><polygon fill="#000000" points="298.5,261.5664,301.4389,252.5213,295.5611,252.5213,298.5,261.5664" style="stroke:#000000;stroke-width:1.0;"/><text fill="#000000" font-family="sans-serif" font-size="13" lengthAdjust="spacing" textLength="65" x="307.5" y="261.0669">is enrolled</text><text fill="#000000" font-family="sans-serif" font-size="13" lengthAdjust="spacing" textLength="7" x="285.9422" y="283.9752">*</text><!--MD5=[a87ccfb1ad401ebc9457283edda68da5]
link Student to Evaluation--><path codeLine="13" d="M332.514,191.049 C358.214,202.865 390.663,221.736 410.5,248 C461.865,316.007 476.076,419.577 480.003,470.135 " fill="none" id="Student-Evaluation" style="stroke:#A80036;stroke-width:1.0;"/><text fill="#000000" font-family="sans-serif" font-size="13" lengthAdjust="spacing" textLength="7" x="471.9724" y="459.323">*</text><!--MD5=[b26f3b2c9a005fe6c3f3b7afd0fe58d9]
link Subject to Evaluation--><path codeLine="14" d="M338.531,377.564 C371.771,406.03 416.347,444.2037 446.835,470.3133 " fill="none" id="Subject-Evaluation" style="stroke:#A80036;stroke-width:1.0;"/><text fill="#000000" font-family="sans-serif" font-size="13" lengthAdjust="spacing" textLength="7" x="431.9635" y="459.538">*</text><!--MD5=[9f6aedc9fe77d2fe1bd1bc95409679b3]
link Subject to Teacher--><path codeLine="15" d="M248.38,368.53 C202.606,398.487 132.388,444.4431 88.2513,473.3295 " fill="none" id="Subject-Teacher" style="stroke:#A80036;stroke-width:1.0;"/><polygon fill="#000000" points="187.6837,416.8283,178.506,419.3225,181.7248,424.2406,187.6837,416.8283" style="stroke:#000000;stroke-width:1.0;"/><text fill="#000000" font-family="sans-serif" font-size="13" lengthAdjust="spacing" textLength="51" x="192.5" y="424.0669">teaches</text><!--MD5=[d21d2f30cae1d558dc1cc913fa28de89]
link Subject to TermReport--><path codeLine="16" d="M288.109,381.162 C284.867,396.627 279.704,413.806 271.5,428 C265.358,438.627 257.187,448.6878 248.499,457.7343 " fill="none" id="Subject-TermReport" style="stroke:#A80036;stroke-width:1.0;"/><text fill="#000000" font-family="sans-serif" font-size="13" lengthAdjust="spacing" textLength="7" x="248.9254" y="447.0058">*</text><!--MD5=[ad060603784714d99f910f639af99a0d]
link Student to TermReport--><path codeLine="17" d="M262.644,218.404 C231.861,263.551 186.617,338.363 168.5,411 C164.658,426.402 167.861,443.055 173.278,457.743 " fill="none" id="Student-TermReport" style="stroke:#A80036;stroke-width:1.0;"/><text fill="#000000" font-family="sans-serif" font-size="13" lengthAdjust="spacing" textLength="7" x="162.1862" y="447.0162">*</text><!--MD5=[772a395b64e99532a5d7618d6dd384a8]
link Subject to YearReport--><path codeLine="18" d="M306.9,381.301 C315.045,407.015 325.335,439.499 333.09,463.9812 " fill="none" id="Subject-YearReport" style="stroke:#A80036;stroke-width:1.0;"/><text fill="#000000" font-family="sans-serif" font-size="13" lengthAdjust="spacing" textLength="7" x="323.341" y="452.8882">*</text><!--MD5=[a371ca4e81552f431c09ed8c2cd408cf]
link Student to YearReport--><path codeLine="19" d="M332.573,196.943 C351.053,209.15 371.272,226.416 381.5,248 C415.206,319.128 384.152,413.175 362.099,463.8824 " fill="none" id="Student-YearReport" style="stroke:#A80036;stroke-width:1.0;"/><text fill="#000000" font-family="sans-serif" font-size="13" lengthAdjust="spacing" textLength="7" x="357.6104" y="453.0484">*</text><!--MD5=[148639df1940a05e774be677ea40871c]
@startuml
class School
class Subject
class Teacher
class Student
class Evaluation
class "Term report" as TermReport
class "Year report" as YearReport

School - - "*" Subject : provides >
School - - "*" Teacher : works in <
School - - "*" Student : studies in <
Student - - "*" Subject : is enrolled >
Student - - "*" Evaluation
Subject - - "*" Evaluation
Subject - - Teacher : teaches <
Subject - - "*" TermReport
Student - - "*" TermReport
Subject - - "*" YearReport
Student - - "*" YearReport

Subject : +ID
Subject : +Name
Subject : +Description
Teacher : +ID
Teacher : +Name
Teacher : +Surname
Student : +ID
Student : +Name
Student : +Surname
Evaluation : +Grade
TermReport : +Year
TermReport : +Term
TermReport : +Grade
YearReport : +Year
YearReport : +P/F
@enduml

PlantUML version 1.2021.10(Mon Aug 30 13:43:48 UTC 2021)
(GPL source distribution)
Java Runtime: Java(TM) SE Runtime Environment
JVM: Java HotSpot(TM) 64-Bit Server VM
Default Encoding: UTF-8
Language: en
Country: US
--></g></svg>