<?xml version="1.0" encoding="UTF-8" standalone="no"?><svg xmlns="http://www.w3.org/2000/svg" xmlns:xlink="http://www.w3.org/1999/xlink" contentScriptType="application/ecmascript" contentStyleType="text/css" height="828px" preserveAspectRatio="none" style="width:691px;height:828px;background:#FFFFFF;" version="1.1" viewBox="0 0 691 828" width="691px" zoomAndPan="magnify"><defs><filter height="300%" id="fp08941u4n01k" width="300%" x="-1" y="-1"><feGaussianBlur result="blurOut" stdDeviation="2.0"/><feColorMatrix in="blurOut" result="blurOut2" type="matrix" values="0 0 0 0 0 0 0 0 0 0 0 0 0 0 0 0 0 0 .4 0"/><feOffset dx="4.0" dy="4.0" in="blurOut2" result="blurOut3"/><feBlend in="SourceGraphic" in2="blurOut3" mode="normal"/></filter></defs><g><!--MD5=[152eff4f404b032402d44667d0bcebaa]
class UMC--><rect codeLine="2" fill="#FEFECE" filter="url(#fp08941u4n01k)" height="48" id="UMC" style="stroke:#A80036;stroke-width:1.5;" width="202" x="417" y="7"/><ellipse cx="432" cy="23" fill="#ADD1B2" rx="11" ry="11" style="stroke:#A80036;stroke-width:1.0;"/><path d="M434.3438,18.6719 C433.4063,18.2344 432.8125,18.0938 431.9375,18.0938 C429.3125,18.0938 427.3125,20.1719 427.3125,22.8906 L427.3125,24.0156 C427.3125,26.5938 429.4219,28.4844 432.3125,28.4844 C433.5313,28.4844 434.6875,28.1875 435.4375,27.6406 C436.0156,27.2344 436.3438,26.7813 436.3438,26.3906 C436.3438,25.9375 435.9531,25.5469 435.4844,25.5469 C435.2656,25.5469 435.0625,25.625 434.875,25.8125 C434.4219,26.2969 434.4219,26.2969 434.2344,26.3906 C433.8125,26.6563 433.125,26.7813 432.3594,26.7813 C430.3125,26.7813 429.0156,25.6875 429.0156,23.9844 L429.0156,22.8906 C429.0156,21.1094 430.2656,19.7969 432,19.7969 C432.5781,19.7969 433.1875,19.9531 433.6563,20.2031 C434.1406,20.4844 434.3125,20.7031 434.4063,21.1094 C434.4688,21.5156 434.5,21.6406 434.6406,21.7656 C434.7813,21.9063 435.0156,22.0156 435.2344,22.0156 C435.5,22.0156 435.7656,21.875 435.9375,21.6563 C436.0469,21.5 436.0781,21.3125 436.0781,20.8906 L436.0781,19.4688 C436.0781,19.0313 436.0625,18.9063 435.9688,18.75 C435.8125,18.4844 435.5313,18.3438 435.2344,18.3438 C434.9375,18.3438 434.7344,18.4375 434.5156,18.75 L434.3438,18.6719 Z " fill="#000000"/><text fill="#000000" font-family="sans-serif" font-size="12" lengthAdjust="spacing" textLength="170" x="446" y="27.1543">Ufficio Motorizzazione Civile</text><line style="stroke:#A80036;stroke-width:1.5;" x1="418" x2="618" y1="39" y2="39"/><line style="stroke:#A80036;stroke-width:1.5;" x1="418" x2="618" y1="47" y2="47"/><!--MD5=[1e75d0630491998300cfcc2ab4790ae7]
class RegistrationDocument--><rect codeLine="3" fill="#FEFECE" filter="url(#fp08941u4n01k)" height="73.6094" id="RegistrationDocument" style="stroke:#A80036;stroke-width:1.5;" width="167" x="434.5" y="132"/><ellipse cx="449.5" cy="148" fill="#ADD1B2" rx="11" ry="11" style="stroke:#A80036;stroke-width:1.0;"/><path d="M451.8438,143.6719 C450.9063,143.2344 450.3125,143.0938 449.4375,143.0938 C446.8125,143.0938 444.8125,145.1719 444.8125,147.8906 L444.8125,149.0156 C444.8125,151.5938 446.9219,153.4844 449.8125,153.4844 C451.0313,153.4844 452.1875,153.1875 452.9375,152.6406 C453.5156,152.2344 453.8438,151.7813 453.8438,151.3906 C453.8438,150.9375 453.4531,150.5469 452.9844,150.5469 C452.7656,150.5469 452.5625,150.625 452.375,150.8125 C451.9219,151.2969 451.9219,151.2969 451.7344,151.3906 C451.3125,151.6563 450.625,151.7813 449.8594,151.7813 C447.8125,151.7813 446.5156,150.6875 446.5156,148.9844 L446.5156,147.8906 C446.5156,146.1094 447.7656,144.7969 449.5,144.7969 C450.0781,144.7969 450.6875,144.9531 451.1563,145.2031 C451.6406,145.4844 451.8125,145.7031 451.9063,146.1094 C451.9688,146.5156 452,146.6406 452.1406,146.7656 C452.2813,146.9063 452.5156,147.0156 452.7344,147.0156 C453,147.0156 453.2656,146.875 453.4375,146.6563 C453.5469,146.5 453.5781,146.3125 453.5781,145.8906 L453.5781,144.4688 C453.5781,144.0313 453.5625,143.9063 453.4688,143.75 C453.3125,143.4844 453.0313,143.3438 452.7344,143.3438 C452.4375,143.3438 452.2344,143.4375 452.0156,143.75 L451.8438,143.6719 Z " fill="#000000"/><text fill="#000000" font-family="sans-serif" font-size="12" lengthAdjust="spacing" textLength="135" x="463.5" y="152.1543">Registration document</text><line style="stroke:#A80036;stroke-width:1.5;" x1="435.5" x2="600.5" y1="164" y2="164"/><ellipse cx="445.5" cy="175" rx="3" ry="3" style="stroke:#038048;stroke-width:1.0;fill:none;"/><text fill="#000000" font-family="sans-serif" font-size="11" lengthAdjust="spacing" textLength="21" x="454.5" y="178.2104">Tag</text><ellipse cx="445.5" cy="187.8047" rx="3" ry="3" style="stroke:#038048;stroke-width:1.0;fill:none;"/><text fill="#000000" font-family="sans-serif" font-size="11" lengthAdjust="spacing" textLength="28" x="454.5" y="191.0151">Date</text><line style="stroke:#A80036;stroke-width:1.5;" x1="435.5" x2="600.5" y1="197.6094" y2="197.6094"/><!--MD5=[3aa0d89c6bfdcbf7f32042cedac57549]
class Vehicle--><rect codeLine="4" fill="#FEFECE" filter="url(#fp08941u4n01k)" height="112.0234" id="Vehicle" style="stroke:#A80036;stroke-width:1.5;" width="131" x="452.5" y="283"/><ellipse cx="492.25" cy="299" fill="#ADD1B2" rx="11" ry="11" style="stroke:#A80036;stroke-width:1.0;"/><path d="M494.5938,294.6719 C493.6563,294.2344 493.0625,294.0938 492.1875,294.0938 C489.5625,294.0938 487.5625,296.1719 487.5625,298.8906 L487.5625,300.0156 C487.5625,302.5938 489.6719,304.4844 492.5625,304.4844 C493.7813,304.4844 494.9375,304.1875 495.6875,303.6406 C496.2656,303.2344 496.5938,302.7813 496.5938,302.3906 C496.5938,301.9375 496.2031,301.5469 495.7344,301.5469 C495.5156,301.5469 495.3125,301.625 495.125,301.8125 C494.6719,302.2969 494.6719,302.2969 494.4844,302.3906 C494.0625,302.6563 493.375,302.7813 492.6094,302.7813 C490.5625,302.7813 489.2656,301.6875 489.2656,299.9844 L489.2656,298.8906 C489.2656,297.1094 490.5156,295.7969 492.25,295.7969 C492.8281,295.7969 493.4375,295.9531 493.9063,296.2031 C494.3906,296.4844 494.5625,296.7031 494.6563,297.1094 C494.7188,297.5156 494.75,297.6406 494.8906,297.7656 C495.0313,297.9063 495.2656,298.0156 495.4844,298.0156 C495.75,298.0156 496.0156,297.875 496.1875,297.6563 C496.2969,297.5 496.3281,297.3125 496.3281,296.8906 L496.3281,295.4688 C496.3281,295.0313 496.3125,294.9063 496.2188,294.75 C496.0625,294.4844 495.7813,294.3438 495.4844,294.3438 C495.1875,294.3438 494.9844,294.4375 494.7656,294.75 L494.5938,294.6719 Z " fill="#000000"/><text fill="#000000" font-family="sans-serif" font-size="12" lengthAdjust="spacing" textLength="44" x="511.75" y="303.1543">Vehicle</text><line style="stroke:#A80036;stroke-width:1.5;" x1="453.5" x2="582.5" y1="315" y2="315"/><ellipse cx="463.5" cy="326" rx="3" ry="3" style="stroke:#038048;stroke-width:1.0;fill:none;"/><text fill="#000000" font-family="sans-serif" font-size="11" lengthAdjust="spacing" textLength="12" x="472.5" y="329.2104">ID</text><ellipse cx="463.5" cy="338.8047" rx="3" ry="3" style="stroke:#038048;stroke-width:1.0;fill:none;"/><text fill="#000000" font-family="sans-serif" font-size="11" lengthAdjust="spacing" textLength="34" x="472.5" y="342.0151">Model</text><ellipse cx="463.5" cy="351.6094" rx="3" ry="3" style="stroke:#038048;stroke-width:1.0;fill:none;"/><text fill="#000000" font-family="sans-serif" font-size="11" lengthAdjust="spacing" textLength="88" x="472.5" y="354.8198">Type of engine</text><ellipse cx="463.5" cy="364.4141" rx="3" ry="3" style="stroke:#038048;stroke-width:1.0;fill:none;"/><text fill="#000000" font-family="sans-serif" font-size="11" lengthAdjust="spacing" textLength="105" x="472.5" y="367.6245">Type of emissions</text><ellipse cx="463.5" cy="377.2188" rx="3" ry="3" style="stroke:#038048;stroke-width:1.0;fill:none;"/><text fill="#000000" font-family="sans-serif" font-size="11" lengthAdjust="spacing" textLength="34" x="472.5" y="380.4292">Power</text><line style="stroke:#A80036;stroke-width:1.5;" x1="453.5" x2="582.5" y1="387.0234" y2="387.0234"/><!--MD5=[93b3bd46e5be33c04189b05e01cb7ecd]
class VehicleSize--><rect codeLine="5" fill="#FEFECE" filter="url(#fp08941u4n01k)" height="73.6094" id="VehicleSize" style="stroke:#A80036;stroke-width:1.5;" width="105" x="274.5" y="302"/><ellipse cx="289.5" cy="318" fill="#ADD1B2" rx="11" ry="11" style="stroke:#A80036;stroke-width:1.0;"/><path d="M291.8438,313.6719 C290.9063,313.2344 290.3125,313.0938 289.4375,313.0938 C286.8125,313.0938 284.8125,315.1719 284.8125,317.8906 L284.8125,319.0156 C284.8125,321.5938 286.9219,323.4844 289.8125,323.4844 C291.0313,323.4844 292.1875,323.1875 292.9375,322.6406 C293.5156,322.2344 293.8438,321.7813 293.8438,321.3906 C293.8438,320.9375 293.4531,320.5469 292.9844,320.5469 C292.7656,320.5469 292.5625,320.625 292.375,320.8125 C291.9219,321.2969 291.9219,321.2969 291.7344,321.3906 C291.3125,321.6563 290.625,321.7813 289.8594,321.7813 C287.8125,321.7813 286.5156,320.6875 286.5156,318.9844 L286.5156,317.8906 C286.5156,316.1094 287.7656,314.7969 289.5,314.7969 C290.0781,314.7969 290.6875,314.9531 291.1563,315.2031 C291.6406,315.4844 291.8125,315.7031 291.9063,316.1094 C291.9688,316.5156 292,316.6406 292.1406,316.7656 C292.2813,316.9063 292.5156,317.0156 292.7344,317.0156 C293,317.0156 293.2656,316.875 293.4375,316.6563 C293.5469,316.5 293.5781,316.3125 293.5781,315.8906 L293.5781,314.4688 C293.5781,314.0313 293.5625,313.9063 293.4688,313.75 C293.3125,313.4844 293.0313,313.3438 292.7344,313.3438 C292.4375,313.3438 292.2344,313.4375 292.0156,313.75 L291.8438,313.6719 Z " fill="#000000"/><text fill="#000000" font-family="sans-serif" font-size="12" lengthAdjust="spacing" textLength="73" x="303.5" y="322.1543">Vehicle size</text><line style="stroke:#A80036;stroke-width:1.5;" x1="275.5" x2="378.5" y1="334" y2="334"/><ellipse cx="285.5" cy="345" rx="3" ry="3" style="stroke:#038048;stroke-width:1.0;fill:none;"/><text fill="#000000" font-family="sans-serif" font-size="11" lengthAdjust="spacing" textLength="32" x="294.5" y="348.2104">Width</text><ellipse cx="285.5" cy="357.8047" rx="3" ry="3" style="stroke:#038048;stroke-width:1.0;fill:none;"/><text fill="#000000" font-family="sans-serif" font-size="11" lengthAdjust="spacing" textLength="39" x="294.5" y="361.0151">Length</text><line style="stroke:#A80036;stroke-width:1.5;" x1="275.5" x2="378.5" y1="367.6094" y2="367.6094"/><!--MD5=[9e5f2fe036b6e4612a42ddb7bd1c365b]
class Tyre--><rect codeLine="6" fill="#FEFECE" filter="url(#fp08941u4n01k)" height="60.8047" id="Tyre" style="stroke:#A80036;stroke-width:1.5;" width="59" x="618.5" y="308.5"/><ellipse cx="633.5" cy="324.5" fill="#ADD1B2" rx="11" ry="11" style="stroke:#A80036;stroke-width:1.0;"/><path d="M635.8438,320.1719 C634.9063,319.7344 634.3125,319.5938 633.4375,319.5938 C630.8125,319.5938 628.8125,321.6719 628.8125,324.3906 L628.8125,325.5156 C628.8125,328.0938 630.9219,329.9844 633.8125,329.9844 C635.0313,329.9844 636.1875,329.6875 636.9375,329.1406 C637.5156,328.7344 637.8438,328.2813 637.8438,327.8906 C637.8438,327.4375 637.4531,327.0469 636.9844,327.0469 C636.7656,327.0469 636.5625,327.125 636.375,327.3125 C635.9219,327.7969 635.9219,327.7969 635.7344,327.8906 C635.3125,328.1563 634.625,328.2813 633.8594,328.2813 C631.8125,328.2813 630.5156,327.1875 630.5156,325.4844 L630.5156,324.3906 C630.5156,322.6094 631.7656,321.2969 633.5,321.2969 C634.0781,321.2969 634.6875,321.4531 635.1563,321.7031 C635.6406,321.9844 635.8125,322.2031 635.9063,322.6094 C635.9688,323.0156 636,323.1406 636.1406,323.2656 C636.2813,323.4063 636.5156,323.5156 636.7344,323.5156 C637,323.5156 637.2656,323.375 637.4375,323.1563 C637.5469,323 637.5781,322.8125 637.5781,322.3906 L637.5781,320.9688 C637.5781,320.5313 637.5625,320.4063 637.4688,320.25 C637.3125,319.9844 637.0313,319.8438 636.7344,319.8438 C636.4375,319.8438 636.2344,319.9375 636.0156,320.25 L635.8438,320.1719 Z " fill="#000000"/><text fill="#000000" font-family="sans-serif" font-size="12" lengthAdjust="spacing" textLength="27" x="647.5" y="328.6543">Tyre</text><line style="stroke:#A80036;stroke-width:1.5;" x1="619.5" x2="676.5" y1="340.5" y2="340.5"/><ellipse cx="629.5" cy="351.5" rx="3" ry="3" style="stroke:#038048;stroke-width:1.0;fill:none;"/><text fill="#000000" font-family="sans-serif" font-size="11" lengthAdjust="spacing" textLength="29" x="638.5" y="354.7104">Type</text><line style="stroke:#A80036;stroke-width:1.5;" x1="619.5" x2="676.5" y1="361.3047" y2="361.3047"/><!--MD5=[ee897d48b30f3d218e09647e57ab0aa5]
class ACI--><rect codeLine="14" fill="#FEFECE" filter="url(#fp08941u4n01k)" height="48" id="ACI" style="stroke:#A80036;stroke-width:1.5;" width="173" x="36.5" y="145"/><ellipse cx="51.5" cy="161" fill="#ADD1B2" rx="11" ry="11" style="stroke:#A80036;stroke-width:1.0;"/><path d="M53.8438,156.6719 C52.9063,156.2344 52.3125,156.0938 51.4375,156.0938 C48.8125,156.0938 46.8125,158.1719 46.8125,160.8906 L46.8125,162.0156 C46.8125,164.5938 48.9219,166.4844 51.8125,166.4844 C53.0313,166.4844 54.1875,166.1875 54.9375,165.6406 C55.5156,165.2344 55.8438,164.7813 55.8438,164.3906 C55.8438,163.9375 55.4531,163.5469 54.9844,163.5469 C54.7656,163.5469 54.5625,163.625 54.375,163.8125 C53.9219,164.2969 53.9219,164.2969 53.7344,164.3906 C53.3125,164.6563 52.625,164.7813 51.8594,164.7813 C49.8125,164.7813 48.5156,163.6875 48.5156,161.9844 L48.5156,160.8906 C48.5156,159.1094 49.7656,157.7969 51.5,157.7969 C52.0781,157.7969 52.6875,157.9531 53.1563,158.2031 C53.6406,158.4844 53.8125,158.7031 53.9063,159.1094 C53.9688,159.5156 54,159.6406 54.1406,159.7656 C54.2813,159.9063 54.5156,160.0156 54.7344,160.0156 C55,160.0156 55.2656,159.875 55.4375,159.6563 C55.5469,159.5 55.5781,159.3125 55.5781,158.8906 L55.5781,157.4688 C55.5781,157.0313 55.5625,156.9063 55.4688,156.75 C55.3125,156.4844 55.0313,156.3438 54.7344,156.3438 C54.4375,156.3438 54.2344,156.4375 54.0156,156.75 L53.8438,156.6719 Z " fill="#000000"/><text fill="#000000" font-family="sans-serif" font-size="12" lengthAdjust="spacing" textLength="141" x="65.5" y="165.1543">Automobile Club d’Italia</text><line style="stroke:#A80036;stroke-width:1.5;" x1="37.5" x2="208.5" y1="177" y2="177"/><line style="stroke:#A80036;stroke-width:1.5;" x1="37.5" x2="208.5" y1="185" y2="185"/><!--MD5=[c6b8dc9e07b248176a7a10440585a6c7]
class PRA--><rect codeLine="15" fill="#FEFECE" filter="url(#fp08941u4n01k)" height="48" id="PRA" style="stroke:#A80036;stroke-width:1.5;" width="232" x="7" y="315"/><ellipse cx="22" cy="331" fill="#ADD1B2" rx="11" ry="11" style="stroke:#A80036;stroke-width:1.0;"/><path d="M24.3438,326.6719 C23.4063,326.2344 22.8125,326.0938 21.9375,326.0938 C19.3125,326.0938 17.3125,328.1719 17.3125,330.8906 L17.3125,332.0156 C17.3125,334.5938 19.4219,336.4844 22.3125,336.4844 C23.5313,336.4844 24.6875,336.1875 25.4375,335.6406 C26.0156,335.2344 26.3438,334.7813 26.3438,334.3906 C26.3438,333.9375 25.9531,333.5469 25.4844,333.5469 C25.2656,333.5469 25.0625,333.625 24.875,333.8125 C24.4219,334.2969 24.4219,334.2969 24.2344,334.3906 C23.8125,334.6563 23.125,334.7813 22.3594,334.7813 C20.3125,334.7813 19.0156,333.6875 19.0156,331.9844 L19.0156,330.8906 C19.0156,329.1094 20.2656,327.7969 22,327.7969 C22.5781,327.7969 23.1875,327.9531 23.6563,328.2031 C24.1406,328.4844 24.3125,328.7031 24.4063,329.1094 C24.4688,329.5156 24.5,329.6406 24.6406,329.7656 C24.7813,329.9063 25.0156,330.0156 25.2344,330.0156 C25.5,330.0156 25.7656,329.875 25.9375,329.6563 C26.0469,329.5 26.0781,329.3125 26.0781,328.8906 L26.0781,327.4688 C26.0781,327.0313 26.0625,326.9063 25.9688,326.75 C25.8125,326.4844 25.5313,326.3438 25.2344,326.3438 C24.9375,326.3438 24.7344,326.4375 24.5156,326.75 L24.3438,326.6719 Z " fill="#000000"/><text fill="#000000" font-family="sans-serif" font-size="12" lengthAdjust="spacing" textLength="200" x="36" y="335.1543">Pubblico Registro Automobilistico</text><line style="stroke:#A80036;stroke-width:1.5;" x1="8" x2="238" y1="347" y2="347"/><line style="stroke:#A80036;stroke-width:1.5;" x1="8" x2="238" y1="355" y2="355"/><!--MD5=[09ce52be0ee7de43c61b6e2d59bf108b]
class Person--><rect codeLine="16" fill="#FEFECE" filter="url(#fp08941u4n01k)" height="86.4141" id="Person" style="stroke:#A80036;stroke-width:1.5;" width="89" x="427.5" y="607"/><ellipse cx="449.7" cy="623" fill="#ADD1B2" rx="11" ry="11" style="stroke:#A80036;stroke-width:1.0;"/><path d="M452.0438,618.6719 C451.1063,618.2344 450.5125,618.0938 449.6375,618.0938 C447.0125,618.0938 445.0125,620.1719 445.0125,622.8906 L445.0125,624.0156 C445.0125,626.5938 447.1219,628.4844 450.0125,628.4844 C451.2313,628.4844 452.3875,628.1875 453.1375,627.6406 C453.7156,627.2344 454.0438,626.7813 454.0438,626.3906 C454.0438,625.9375 453.6531,625.5469 453.1844,625.5469 C452.9656,625.5469 452.7625,625.625 452.575,625.8125 C452.1219,626.2969 452.1219,626.2969 451.9344,626.3906 C451.5125,626.6563 450.825,626.7813 450.0594,626.7813 C448.0125,626.7813 446.7156,625.6875 446.7156,623.9844 L446.7156,622.8906 C446.7156,621.1094 447.9656,619.7969 449.7,619.7969 C450.2781,619.7969 450.8875,619.9531 451.3563,620.2031 C451.8406,620.4844 452.0125,620.7031 452.1063,621.1094 C452.1688,621.5156 452.2,621.6406 452.3406,621.7656 C452.4813,621.9063 452.7156,622.0156 452.9344,622.0156 C453.2,622.0156 453.4656,621.875 453.6375,621.6563 C453.7469,621.5 453.7781,621.3125 453.7781,620.8906 L453.7781,619.4688 C453.7781,619.0313 453.7625,618.9063 453.6688,618.75 C453.5125,618.4844 453.2313,618.3438 452.9344,618.3438 C452.6375,618.3438 452.4344,618.4375 452.2156,618.75 L452.0438,618.6719 Z " fill="#000000"/><text fill="#000000" font-family="sans-serif" font-size="12" lengthAdjust="spacing" textLength="41" x="465.3" y="627.1543">Person</text><line style="stroke:#A80036;stroke-width:1.5;" x1="428.5" x2="515.5" y1="639" y2="639"/><ellipse cx="438.5" cy="650" rx="3" ry="3" style="stroke:#038048;stroke-width:1.0;fill:none;"/><text fill="#000000" font-family="sans-serif" font-size="11" lengthAdjust="spacing" textLength="63" x="447.5" y="653.2104">Fiscal code</text><ellipse cx="438.5" cy="662.8047" rx="3" ry="3" style="stroke:#038048;stroke-width:1.0;fill:none;"/><text fill="#000000" font-family="sans-serif" font-size="11" lengthAdjust="spacing" textLength="34" x="447.5" y="666.0151">Name</text><ellipse cx="438.5" cy="675.6094" rx="3" ry="3" style="stroke:#038048;stroke-width:1.0;fill:none;"/><text fill="#000000" font-family="sans-serif" font-size="11" lengthAdjust="spacing" textLength="52" x="447.5" y="678.8198">Surname</text><line style="stroke:#A80036;stroke-width:1.5;" x1="428.5" x2="515.5" y1="685.4141" y2="685.4141"/><!--MD5=[eea16f7b9b8be0ddc00e4b85328d803f]
class CertificateOfOwnership--><rect codeLine="17" fill="#FEFECE" filter="url(#fp08941u4n01k)" height="60.8047" id="CertificateOfOwnership" style="stroke:#A80036;stroke-width:1.5;" width="176" x="99" y="478.5"/><ellipse cx="114" cy="494.5" fill="#ADD1B2" rx="11" ry="11" style="stroke:#A80036;stroke-width:1.0;"/><path d="M116.3438,490.1719 C115.4063,489.7344 114.8125,489.5938 113.9375,489.5938 C111.3125,489.5938 109.3125,491.6719 109.3125,494.3906 L109.3125,495.5156 C109.3125,498.0938 111.4219,499.9844 114.3125,499.9844 C115.5313,499.9844 116.6875,499.6875 117.4375,499.1406 C118.0156,498.7344 118.3438,498.2813 118.3438,497.8906 C118.3438,497.4375 117.9531,497.0469 117.4844,497.0469 C117.2656,497.0469 117.0625,497.125 116.875,497.3125 C116.4219,497.7969 116.4219,497.7969 116.2344,497.8906 C115.8125,498.1563 115.125,498.2813 114.3594,498.2813 C112.3125,498.2813 111.0156,497.1875 111.0156,495.4844 L111.0156,494.3906 C111.0156,492.6094 112.2656,491.2969 114,491.2969 C114.5781,491.2969 115.1875,491.4531 115.6563,491.7031 C116.1406,491.9844 116.3125,492.2031 116.4063,492.6094 C116.4688,493.0156 116.5,493.1406 116.6406,493.2656 C116.7813,493.4063 117.0156,493.5156 117.2344,493.5156 C117.5,493.5156 117.7656,493.375 117.9375,493.1563 C118.0469,493 118.0781,492.8125 118.0781,492.3906 L118.0781,490.9688 C118.0781,490.5313 118.0625,490.4063 117.9688,490.25 C117.8125,489.9844 117.5313,489.8438 117.2344,489.8438 C116.9375,489.8438 116.7344,489.9375 116.5156,490.25 L116.3438,490.1719 Z " fill="#000000"/><text fill="#000000" font-family="sans-serif" font-size="12" lengthAdjust="spacing" textLength="144" x="128" y="498.6543">Certificate of ownership</text><line style="stroke:#A80036;stroke-width:1.5;" x1="100" x2="274" y1="510.5" y2="510.5"/><ellipse cx="110" cy="521.5" rx="3" ry="3" style="stroke:#038048;stroke-width:1.0;fill:none;"/><text fill="#000000" font-family="sans-serif" font-size="11" lengthAdjust="spacing" textLength="28" x="119" y="524.7104">Date</text><line style="stroke:#A80036;stroke-width:1.5;" x1="100" x2="274" y1="531.3047" y2="531.3047"/><!--MD5=[7383bf803b24f0cc6c474ad2adaed442]
class PastOwnership--><rect codeLine="18" fill="#FEFECE" filter="url(#fp08941u4n01k)" height="73.6094" id="PastOwnership" style="stroke:#A80036;stroke-width:1.5;" width="123" x="310.5" y="472"/><ellipse cx="325.5" cy="488" fill="#ADD1B2" rx="11" ry="11" style="stroke:#A80036;stroke-width:1.0;"/><path d="M327.8438,483.6719 C326.9063,483.2344 326.3125,483.0938 325.4375,483.0938 C322.8125,483.0938 320.8125,485.1719 320.8125,487.8906 L320.8125,489.0156 C320.8125,491.5938 322.9219,493.4844 325.8125,493.4844 C327.0313,493.4844 328.1875,493.1875 328.9375,492.6406 C329.5156,492.2344 329.8438,491.7813 329.8438,491.3906 C329.8438,490.9375 329.4531,490.5469 328.9844,490.5469 C328.7656,490.5469 328.5625,490.625 328.375,490.8125 C327.9219,491.2969 327.9219,491.2969 327.7344,491.3906 C327.3125,491.6563 326.625,491.7813 325.8594,491.7813 C323.8125,491.7813 322.5156,490.6875 322.5156,488.9844 L322.5156,487.8906 C322.5156,486.1094 323.7656,484.7969 325.5,484.7969 C326.0781,484.7969 326.6875,484.9531 327.1563,485.2031 C327.6406,485.4844 327.8125,485.7031 327.9063,486.1094 C327.9688,486.5156 328,486.6406 328.1406,486.7656 C328.2813,486.9063 328.5156,487.0156 328.7344,487.0156 C329,487.0156 329.2656,486.875 329.4375,486.6563 C329.5469,486.5 329.5781,486.3125 329.5781,485.8906 L329.5781,484.4688 C329.5781,484.0313 329.5625,483.9063 329.4688,483.75 C329.3125,483.4844 329.0313,483.3438 328.7344,483.3438 C328.4375,483.3438 328.2344,483.4375 328.0156,483.75 L327.8438,483.6719 Z " fill="#000000"/><text fill="#000000" font-family="sans-serif" font-size="12" lengthAdjust="spacing" textLength="91" x="339.5" y="492.1543">Past ownership</text><line style="stroke:#A80036;stroke-width:1.5;" x1="311.5" x2="432.5" y1="504" y2="504"/><ellipse cx="321.5" cy="515" rx="3" ry="3" style="stroke:#038048;stroke-width:1.0;fill:none;"/><text fill="#000000" font-family="sans-serif" font-size="11" lengthAdjust="spacing" textLength="57" x="330.5" y="518.2104">Start date</text><ellipse cx="321.5" cy="527.8047" rx="3" ry="3" style="stroke:#038048;stroke-width:1.0;fill:none;"/><text fill="#000000" font-family="sans-serif" font-size="11" lengthAdjust="spacing" textLength="51" x="330.5" y="531.0151">End date</text><line style="stroke:#A80036;stroke-width:1.5;" x1="311.5" x2="432.5" y1="537.6094" y2="537.6094"/><ellipse cx="471" cy="509" fill="#000000" rx="2" ry="2" style="stroke:none;stroke-width:1.0;"/><!--MD5=[e4629cefbd6aca1e4fdbe64682d6f922]
class SaleContract--><rect codeLine="28" fill="#FEFECE" filter="url(#fp08941u4n01k)" height="60.8047" id="SaleContract" style="stroke:#A80036;stroke-width:1.5;" width="111" x="508.5" y="478.5"/><ellipse cx="523.5" cy="494.5" fill="#ADD1B2" rx="11" ry="11" style="stroke:#A80036;stroke-width:1.0;"/><path d="M525.8438,490.1719 C524.9063,489.7344 524.3125,489.5938 523.4375,489.5938 C520.8125,489.5938 518.8125,491.6719 518.8125,494.3906 L518.8125,495.5156 C518.8125,498.0938 520.9219,499.9844 523.8125,499.9844 C525.0313,499.9844 526.1875,499.6875 526.9375,499.1406 C527.5156,498.7344 527.8438,498.2813 527.8438,497.8906 C527.8438,497.4375 527.4531,497.0469 526.9844,497.0469 C526.7656,497.0469 526.5625,497.125 526.375,497.3125 C525.9219,497.7969 525.9219,497.7969 525.7344,497.8906 C525.3125,498.1563 524.625,498.2813 523.8594,498.2813 C521.8125,498.2813 520.5156,497.1875 520.5156,495.4844 L520.5156,494.3906 C520.5156,492.6094 521.7656,491.2969 523.5,491.2969 C524.0781,491.2969 524.6875,491.4531 525.1563,491.7031 C525.6406,491.9844 525.8125,492.2031 525.9063,492.6094 C525.9688,493.0156 526,493.1406 526.1406,493.2656 C526.2813,493.4063 526.5156,493.5156 526.7344,493.5156 C527,493.5156 527.2656,493.375 527.4375,493.1563 C527.5469,493 527.5781,492.8125 527.5781,492.3906 L527.5781,490.9688 C527.5781,490.5313 527.5625,490.4063 527.4688,490.25 C527.3125,489.9844 527.0313,489.8438 526.7344,489.8438 C526.4375,489.8438 526.2344,489.9375 526.0156,490.25 L525.8438,490.1719 Z " fill="#000000"/><text fill="#000000" font-family="sans-serif" font-size="12" lengthAdjust="spacing" textLength="79" x="537.5" y="498.6543">Sale contract</text><line style="stroke:#A80036;stroke-width:1.5;" x1="509.5" x2="618.5" y1="510.5" y2="510.5"/><ellipse cx="519.5" cy="521.5" rx="3" ry="3" style="stroke:#038048;stroke-width:1.0;fill:none;"/><text fill="#000000" font-family="sans-serif" font-size="11" lengthAdjust="spacing" textLength="28" x="528.5" y="524.7104">Date</text><line style="stroke:#A80036;stroke-width:1.5;" x1="509.5" x2="618.5" y1="531.3047" y2="531.3047"/><!--MD5=[117c7dadfc3d2325f14a59874c378c85]
class Certifier--><rect codeLine="29" fill="#FEFECE" filter="url(#fp08941u4n01k)" height="60.8047" id="Certifier" style="stroke:#A80036;stroke-width:1.5;" width="80" x="508" y="754"/><ellipse cx="523" cy="770" fill="#ADD1B2" rx="11" ry="11" style="stroke:#A80036;stroke-width:1.0;"/><path d="M525.3438,765.6719 C524.4063,765.2344 523.8125,765.0938 522.9375,765.0938 C520.3125,765.0938 518.3125,767.1719 518.3125,769.8906 L518.3125,771.0156 C518.3125,773.5938 520.4219,775.4844 523.3125,775.4844 C524.5313,775.4844 525.6875,775.1875 526.4375,774.6406 C527.0156,774.2344 527.3438,773.7813 527.3438,773.3906 C527.3438,772.9375 526.9531,772.5469 526.4844,772.5469 C526.2656,772.5469 526.0625,772.625 525.875,772.8125 C525.4219,773.2969 525.4219,773.2969 525.2344,773.3906 C524.8125,773.6563 524.125,773.7813 523.3594,773.7813 C521.3125,773.7813 520.0156,772.6875 520.0156,770.9844 L520.0156,769.8906 C520.0156,768.1094 521.2656,766.7969 523,766.7969 C523.5781,766.7969 524.1875,766.9531 524.6563,767.2031 C525.1406,767.4844 525.3125,767.7031 525.4063,768.1094 C525.4688,768.5156 525.5,768.6406 525.6406,768.7656 C525.7813,768.9063 526.0156,769.0156 526.2344,769.0156 C526.5,769.0156 526.7656,768.875 526.9375,768.6563 C527.0469,768.5 527.0781,768.3125 527.0781,767.8906 L527.0781,766.4688 C527.0781,766.0313 527.0625,765.9063 526.9688,765.75 C526.8125,765.4844 526.5313,765.3438 526.2344,765.3438 C525.9375,765.3438 525.7344,765.4375 525.5156,765.75 L525.3438,765.6719 Z " fill="#000000"/><text fill="#000000" font-family="sans-serif" font-size="12" lengthAdjust="spacing" textLength="48" x="537" y="774.1543">Certifier</text><line style="stroke:#A80036;stroke-width:1.5;" x1="509" x2="587" y1="786" y2="786"/><ellipse cx="519" cy="797" rx="3" ry="3" style="stroke:#038048;stroke-width:1.0;fill:none;"/><text fill="#000000" font-family="sans-serif" font-size="11" lengthAdjust="spacing" textLength="29" x="528" y="800.2104">Type</text><line style="stroke:#A80036;stroke-width:1.5;" x1="509" x2="587" y1="806.8047" y2="806.8047"/><!--MD5=[4c9a36b21242514baa2b44d9731fe7ad]
link UMC to RegistrationDocument--><path codeLine="8" d="M518,55.071 C518,76.138 518,107.621 518,131.998 " fill="none" id="UMC-RegistrationDocument" style="stroke:#A80036;stroke-width:1.0;"/><polygon fill="#000000" points="523,98.5664,525.9389,89.5213,520.0611,89.5213,523,98.5664" style="stroke:#000000;stroke-width:1.0;"/><text fill="#000000" font-family="sans-serif" font-size="13" lengthAdjust="spacing" textLength="40" x="532" y="98.0669">issues</text><text fill="#000000" font-family="sans-serif" font-size="13" lengthAdjust="spacing" textLength="7" x="510.3547" y="120.9081">*</text><!--MD5=[2f580307e4c8e498646ffe54e9c038a3]
link RegistrationDocument to Vehicle--><path codeLine="9" d="M518,206.04 C518,228.408 518,257.6 518,282.838 " fill="none" id="RegistrationDocument-Vehicle" style="stroke:#A80036;stroke-width:1.0;"/><polygon fill="#000000" points="523,249.5664,525.9389,240.5213,520.0611,240.5213,523,249.5664" style="stroke:#000000;stroke-width:1.0;"/><text fill="#000000" font-family="sans-serif" font-size="13" lengthAdjust="spacing" textLength="55" x="532" y="249.0669">refers to</text><!--MD5=[8af0184a02f3c3191ab487f4fc8bf133]
link VehicleSize to Vehicle--><path codeLine="10" d="M379.697,339 C402.112,339 428.494,339 452.174,339 " fill="none" id="VehicleSize-Vehicle" style="stroke:#A80036;stroke-width:1.0;"/><polygon fill="#000000" points="397,327.5664,406.0451,330.5053,406.0451,324.6275,397,327.5664" style="stroke:#000000;stroke-width:1.0;"/><text fill="#000000" font-family="sans-serif" font-size="13" lengthAdjust="spacing" textLength="23" x="411" y="332.0669">has</text><!--MD5=[038873d23377a8034cb3835fbad54f7b]
reverse link Vehicle to Tyre--><path codeLine="11" d="M596.545,339 C603.788,339 611.03,339 618.273,339 " fill="none" id="Vehicle-backto-Tyre" style="stroke:#A80036;stroke-width:1.0;"/><polygon fill="#FFFFFF" points="583.508,339,589.508,343,595.508,339,589.508,335,583.508,339" style="stroke:#A80036;stroke-width:1.0;"/><text fill="#000000" font-family="sans-serif" font-size="13" lengthAdjust="spacing" textLength="8" x="602.4736" y="334.3705">4</text><!--MD5=[f7add414abed69aa77cf9e24337f1637]
reverse link ACI to PRA--><path codeLine="20" d="M123,206.105 C123,239.002 123,286.617 123,314.731 " fill="none" id="ACI-backto-PRA" style="stroke:#A80036;stroke-width:1.0;"/><polygon fill="#FFFFFF" points="123,193.007,119,199.007,123,205.007,127,199.007,123,193.007" style="stroke:#A80036;stroke-width:1.0;"/><!--MD5=[84b86b2844514fb5938b2da6116e2a85]
link PRA to CertificateOfOwnership--><path codeLine="21" d="M131.765,363.007 C143.199,393.022 163.221,445.579 175.76,478.495 " fill="none" id="PRA-CertificateOfOwnership" style="stroke:#A80036;stroke-width:1.0;"/><polygon fill="#000000" points="167.78,438.2389,167.3064,428.7401,161.8136,430.8326,167.78,438.2389" style="stroke:#000000;stroke-width:1.0;"/><text fill="#000000" font-family="sans-serif" font-size="13" lengthAdjust="spacing" textLength="40" x="175" y="438.0669">issues</text><text fill="#000000" font-family="sans-serif" font-size="13" lengthAdjust="spacing" textLength="7" x="165.5356" y="467.2842">*</text><!--MD5=[7d1bffdf9b88255ffd79b596dc36a47a]
link Vehicle to CertificateOfOwnership--><path codeLine="22" d="M452.209,373.392 C391.784,404.061 303.087,449.08 245.191,478.465 " fill="none" id="Vehicle-CertificateOfOwnership" style="stroke:#A80036;stroke-width:1.0;"/><polygon fill="#000000" points="352.4586,431.3034,343.0628,432.7765,345.7231,438.0179,352.4586,431.3034" style="stroke:#000000;stroke-width:1.0;"/><text fill="#000000" font-family="sans-serif" font-size="13" lengthAdjust="spacing" textLength="55" x="357" y="438.0669">refers to</text><!--MD5=[cdcd54a20714bd4adfeda384a2ccc2cd]
link CertificateOfOwnership to Person--><path codeLine="23" d="M247.79,539.648 C301.575,565.88 378.815,603.552 427.16,627.13 " fill="none" id="CertificateOfOwnership-Person" style="stroke:#A80036;stroke-width:1.0;"/><text fill="#000000" font-family="sans-serif" font-size="13" lengthAdjust="spacing" textLength="7" x="252.069" y="559.2576">*</text><text fill="#000000" font-family="sans-serif" font-size="13" lengthAdjust="spacing" textLength="92" x="327.6373" y="638.539">Current owner</text><text fill="#000000" font-family="sans-serif" font-size="13" lengthAdjust="spacing" textLength="23" x="362.1373" y="653.6718">1..*</text><!--MD5=[c373ffbb464aac73a1249d9adceeb2f5]
link Vehicle to apoint382360--><path d="M502.61,395.009 C489.974,440.178 473.772,498.092 471.317,506.866 " fill="none" id="Vehicle-apoint382360" style="stroke:#A80036;stroke-width:1.0;"/><text fill="#000000" font-family="sans-serif" font-size="13" lengthAdjust="spacing" textLength="7" x="493.1897" y="415.22">*</text><!--MD5=[5df9d4428269a7a92046dfbb659477b8]
link apoint382360 to Person--><path d="M471.011,511.561 C471.078,520.867 471.431,569.867 471.696,606.729 " fill="none" id="apoint382360-Person" style="stroke:#A80036;stroke-width:1.0;"/><text fill="#000000" font-family="sans-serif" font-size="13" lengthAdjust="spacing" textLength="72" x="394.8177" y="580.9558">Past owner</text><text fill="#000000" font-family="sans-serif" font-size="13" lengthAdjust="spacing" textLength="7" x="427.3177" y="596.0886">*</text><!--MD5=[58958b69c1abfa87069def9a27fb2c0b]
link PastOwnership to apoint382360--><path d="M433.875,509 C445.573,509 457.271,509 468.97,509 " fill="none" id="PastOwnership-apoint382360" style="stroke:#A80036;stroke-width:1.0;stroke-dasharray:7.0,7.0;"/><!--MD5=[d19b4f037c715fdc2df357f1c883139d]
reverse link Person to Certifier--><path codeLine="30" d="M506.404,710.98 C514.917,725.8222 523.673,741.0882 530.943,753.7618 " fill="none" id="Person-backto-Certifier" style="stroke:#A80036;stroke-width:1.0;"/><polygon fill="none" points="500.135,714.12,496.256,693.288,512.279,707.154,500.135,714.12" style="stroke:#A80036;stroke-width:1.0;"/><!--MD5=[dede3747c14a95f2dde4ea520c07377f]
link Vehicle to SaleContract--><path codeLine="31" d="M533.062,395.009 C540.661,422.761 549.577,455.324 555.88,478.346 " fill="none" id="Vehicle-SaleContract" style="stroke:#A80036;stroke-width:1.0;"/><polygon fill="#000000" points="552.3204,438.3889,552.7664,428.8888,547.0972,430.441,552.3204,438.3889" style="stroke:#000000;stroke-width:1.0;"/><text fill="#000000" font-family="sans-serif" font-size="13" lengthAdjust="spacing" textLength="26" x="560" y="438.0669">sold</text><text fill="#000000" font-family="sans-serif" font-size="13" lengthAdjust="spacing" textLength="7" x="546.4834" y="467.5775">*</text><!--MD5=[a3dcffe762588c019c27a43545cb9130]
link SaleContract to Certifier--><path codeLine="32" d="M564.493,539.694 C564.557,551.331 564.472,564.796 564,577 C561.561,640.059 554.946,713.708 551.028,753.791 " fill="none" id="SaleContract-Certifier" style="stroke:#A80036;stroke-width:1.0;"/><polygon fill="#000000" points="567.3138,645.0763,563.813,653.919,569.6792,654.288,567.3138,645.0763" style="stroke:#000000;stroke-width:1.0;"/><text fill="#000000" font-family="sans-serif" font-size="13" lengthAdjust="spacing" textLength="71" x="576" y="654.5669">certificates</text><text fill="#000000" font-family="sans-serif" font-size="13" lengthAdjust="spacing" textLength="23" x="526.2807" y="743.0111">1..*</text><!--MD5=[60603876bea9a34331383848150d2465]
link SaleContract to Person--><path codeLine="33" d="M533.578,539.819 C518.347,559.363 500.864,585.203 488.076,606.838 " fill="none" id="SaleContract-Person" style="stroke:#A80036;stroke-width:1.0;"/><text fill="#000000" font-family="sans-serif" font-size="13" lengthAdjust="spacing" textLength="7" x="519.8996" y="559.4622">*</text><text fill="#000000" font-family="sans-serif" font-size="13" lengthAdjust="spacing" textLength="35" x="493.4272" y="595.8082">Seller</text><!--MD5=[60603876bea9a34331383848150d2465]
link SaleContract to Person--><path codeLine="34" d="M555.578,539.819 C545.073,559.363 528.374,585.203 512.431,606.838 " fill="none" id="SaleContract-Person-1" style="stroke:#A80036;stroke-width:1.0;"/><text fill="#000000" font-family="sans-serif" font-size="13" lengthAdjust="spacing" textLength="7" x="546.2309" y="559.4622">*</text><text fill="#000000" font-family="sans-serif" font-size="13" lengthAdjust="spacing" textLength="37" x="524.5855" y="611.5206">Buyer</text><!--MD5=[ed0fef59ec8ce7a34723c174642f3f84]
@startuml
' Vehicles that can circulate
class "Ufficio Motorizzazione Civile" as UMC
class "Registration document" as RegistrationDocument
class Vehicle
class "Vehicle size" as VehicleSize
class Tyre

UMC - - "*" RegistrationDocument : issues >
RegistrationDocument - - Vehicle : refers to >
VehicleSize - Vehicle : has <
Vehicle o- "4" Tyre

' Ownership of vehicles
class "Automobile Club d’Italia" as ACI
class "Pubblico Registro Automobilistico" as PRA
class Person
class "Certificate of ownership" as CertificateOfOwnership
class "Past ownership" as PastOwnership

ACI o- - PRA
PRA - - "*" CertificateOfOwnership : issues >
Vehicle - - CertificateOfOwnership : refers to <
CertificateOfOwnership "*" - - "Current owner\n1..*" Person
Vehicle "*" - - "Past owner\n*" Person
PastOwnership .. (Vehicle, Person)

' Transfer of ownership
class "Sale contract" as SaleContract
class Certifier
Person <|- - Certifier
Vehicle - - "*" SaleContract : sold >
SaleContract - - "1..*" Certifier : certificates <
SaleContract "*" - - "Seller" Person
SaleContract "*" - - "Buyer" Person
                                                              
' Attributes
RegistrationDocument : +Tag
RegistrationDocument : +Date
Vehicle : +ID
Vehicle : +Model
Vehicle : +Type of engine
Vehicle : +Type of emissions
Vehicle : +Power
VehicleSize : +Width
VehicleSize : +Length
Tyre : +Type
  
CertificateOfOwnership : +Date
PastOwnership : +Start date
PastOwnership : +End date
Person : +Fiscal code
Person : +Name
Person : +Surname

SaleContract : +Date
Certifier : +Type
@enduml

@startuml
class "Ufficio Motorizzazione Civile" as UMC
class "Registration document" as RegistrationDocument
class Vehicle
class "Vehicle size" as VehicleSize
class Tyre

UMC - - "*" RegistrationDocument : issues >
RegistrationDocument - - Vehicle : refers to >
VehicleSize - Vehicle : has <
Vehicle o- "4" Tyre

class "Automobile Club d’Italia" as ACI
class "Pubblico Registro Automobilistico" as PRA
class Person
class "Certificate of ownership" as CertificateOfOwnership
class "Past ownership" as PastOwnership

ACI o- - PRA
PRA - - "*" CertificateOfOwnership : issues >
Vehicle - - CertificateOfOwnership : refers to <
CertificateOfOwnership "*" - - "Current owner\n1..*" Person
Vehicle "*" - - "Past owner\n*" Person
PastOwnership .. (Vehicle, Person)

class "Sale contract" as SaleContract
class Certifier
Person <|- - Certifier
Vehicle - - "*" SaleContract : sold >
SaleContract - - "1..*" Certifier : certificates <
SaleContract "*" - - "Seller" Person
SaleContract "*" - - "Buyer" Person
                                                              
RegistrationDocument : +Tag
RegistrationDocument : +Date
Vehicle : +ID
Vehicle : +Model
Vehicle : +Type of engine
Vehicle : +Type of emissions
Vehicle : +Power
VehicleSize : +Width
VehicleSize : +Length
Tyre : +Type
  
CertificateOfOwnership : +Date
PastOwnership : +Start date
PastOwnership : +End date
Person : +Fiscal code
Person : +Name
Person : +Surname

SaleContract : +Date
Certifier : +Type
@enduml

PlantUML version 1.2021.10(Mon Aug 30 13:43:48 UTC 2021)
(GPL source distribution)
Java Runtime: Java(TM) SE Runtime Environment
JVM: Java HotSpot(TM) 64-Bit Server VM
Default Encoding: UTF-8
Language: en
Country: US
--></g></svg>