<?xml version="1.0" encoding="UTF-8" standalone="no"?><svg xmlns="http://www.w3.org/2000/svg" xmlns:xlink="http://www.w3.org/1999/xlink" contentScriptType="application/ecmascript" contentStyleType="text/css" height="584px" preserveAspectRatio="none" style="width:1039px;height:584px;background:#FFFFFF;" version="1.1" viewBox="0 0 1039 584" width="1039px" zoomAndPan="magnify"><defs><filter height="300%" id="f3dirog4cx9v0" width="300%" x="-1" y="-1"><feGaussianBlur result="blurOut" stdDeviation="2.0"/><feColorMatrix in="blurOut" result="blurOut2" type="matrix" values="0 0 0 0 0 0 0 0 0 0 0 0 0 0 0 0 0 0 .4 0"/><feOffset dx="4.0" dy="4.0" in="blurOut2" result="blurOut3"/><feBlend in="SourceGraphic" in2="blurOut3" mode="normal"/></filter></defs><g><!--MD5=[6b5d2134b1718deef408d3baff1e0eed]
class CARS--><rect codeLine="2" fill="#FEFECE" filter="url(#f3dirog4cx9v0)" height="48" id="CARS" style="stroke:#A80036;stroke-width:1.5;" width="63" x="37.5976" y="26"/><ellipse cx="52.5976" cy="42" fill="#ADD1B2" rx="11" ry="11" style="stroke:#A80036;stroke-width:1.0;"/><path d="M54.9413,37.6719 C54.0038,37.2344 53.4101,37.0938 52.5351,37.0938 C49.9101,37.0938 47.9101,39.1719 47.9101,41.8906 L47.9101,43.0156 C47.9101,45.5938 50.0194,47.4844 52.9101,47.4844 C54.1288,47.4844 55.2851,47.1875 56.0351,46.6406 C56.6132,46.2344 56.9413,45.7813 56.9413,45.3906 C56.9413,44.9375 56.5507,44.5469 56.0819,44.5469 C55.8632,44.5469 55.6601,44.625 55.4726,44.8125 C55.0194,45.2969 55.0194,45.2969 54.8319,45.3906 C54.4101,45.6563 53.7226,45.7813 52.9569,45.7813 C50.9101,45.7813 49.6132,44.6875 49.6132,42.9844 L49.6132,41.8906 C49.6132,40.1094 50.8632,38.7969 52.5976,38.7969 C53.1757,38.7969 53.7851,38.9531 54.2538,39.2031 C54.7382,39.4844 54.9101,39.7031 55.0038,40.1094 C55.0663,40.5156 55.0976,40.6406 55.2382,40.7656 C55.3788,40.9063 55.6132,41.0156 55.8319,41.0156 C56.0976,41.0156 56.3632,40.875 56.5351,40.6563 C56.6444,40.5 56.6757,40.3125 56.6757,39.8906 L56.6757,38.4688 C56.6757,38.0313 56.6601,37.9063 56.5663,37.75 C56.4101,37.4844 56.1288,37.3438 55.8319,37.3438 C55.5351,37.3438 55.3319,37.4375 55.1132,37.75 L54.9413,37.6719 Z " fill="#000000"/><text fill="#000000" font-family="sans-serif" font-size="12" lengthAdjust="spacing" textLength="31" x="66.5976" y="46.1543">CARS</text><line style="stroke:#A80036;stroke-width:1.5;" x1="38.5976" x2="99.5976" y1="58" y2="58"/><line style="stroke:#A80036;stroke-width:1.5;" x1="38.5976" x2="99.5976" y1="66" y2="66"/><!--MD5=[3e63a3587cfc3a4187c5476b2379735b]
class ParkingSite--><rect codeLine="3" fill="#FEFECE" filter="url(#f3dirog4cx9v0)" height="60.8047" id="ParkingSite" style="stroke:#A80036;stroke-width:1.5;" width="101" x="86.5976" y="176.5"/><ellipse cx="101.5976" cy="192.5" fill="#ADD1B2" rx="11" ry="11" style="stroke:#A80036;stroke-width:1.0;"/><path d="M103.9414,188.1719 C103.0039,187.7344 102.4101,187.5938 101.5351,187.5938 C98.9101,187.5938 96.9101,189.6719 96.9101,192.3906 L96.9101,193.5156 C96.9101,196.0938 99.0195,197.9844 101.9101,197.9844 C103.1289,197.9844 104.2851,197.6875 105.0351,197.1406 C105.6132,196.7344 105.9414,196.2813 105.9414,195.8906 C105.9414,195.4375 105.5507,195.0469 105.082,195.0469 C104.8632,195.0469 104.6601,195.125 104.4726,195.3125 C104.0195,195.7969 104.0195,195.7969 103.832,195.8906 C103.4101,196.1563 102.7226,196.2813 101.957,196.2813 C99.9101,196.2813 98.6132,195.1875 98.6132,193.4844 L98.6132,192.3906 C98.6132,190.6094 99.8632,189.2969 101.5976,189.2969 C102.1757,189.2969 102.7851,189.4531 103.2539,189.7031 C103.7382,189.9844 103.9101,190.2031 104.0039,190.6094 C104.0664,191.0156 104.0976,191.1406 104.2382,191.2656 C104.3789,191.4063 104.6132,191.5156 104.832,191.5156 C105.0976,191.5156 105.3632,191.375 105.5351,191.1563 C105.6445,191 105.6757,190.8125 105.6757,190.3906 L105.6757,188.9688 C105.6757,188.5313 105.6601,188.4063 105.5664,188.25 C105.4101,187.9844 105.1289,187.8438 104.832,187.8438 C104.5351,187.8438 104.332,187.9375 104.1132,188.25 L103.9414,188.1719 Z " fill="#000000"/><text fill="#000000" font-family="sans-serif" font-size="12" lengthAdjust="spacing" textLength="69" x="115.5976" y="196.6543">Parking site</text><line style="stroke:#A80036;stroke-width:1.5;" x1="87.5976" x2="186.5976" y1="208.5" y2="208.5"/><ellipse cx="97.5976" cy="219.5" rx="3" ry="3" style="stroke:#038048;stroke-width:1.0;fill:none;"/><text fill="#000000" font-family="sans-serif" font-size="11" lengthAdjust="spacing" textLength="12" x="106.5976" y="222.7104">ID</text><line style="stroke:#A80036;stroke-width:1.5;" x1="87.5976" x2="186.5976" y1="229.3047" y2="229.3047"/><!--MD5=[0f39e4cb6f03951afbf6d14bd2505654]
class Address--><rect codeLine="4" fill="#FEFECE" filter="url(#f3dirog4cx9v0)" height="86.4141" id="Address" style="stroke:#A80036;stroke-width:1.5;" width="83" x="86.5976" y="321"/><ellipse cx="101.5976" cy="337" fill="#ADD1B2" rx="11" ry="11" style="stroke:#A80036;stroke-width:1.0;"/><path d="M103.9414,332.6719 C103.0039,332.2344 102.4101,332.0938 101.5351,332.0938 C98.9101,332.0938 96.9101,334.1719 96.9101,336.8906 L96.9101,338.0156 C96.9101,340.5938 99.0195,342.4844 101.9101,342.4844 C103.1289,342.4844 104.2851,342.1875 105.0351,341.6406 C105.6132,341.2344 105.9414,340.7813 105.9414,340.3906 C105.9414,339.9375 105.5507,339.5469 105.082,339.5469 C104.8632,339.5469 104.6601,339.625 104.4726,339.8125 C104.0195,340.2969 104.0195,340.2969 103.832,340.3906 C103.4101,340.6563 102.7226,340.7813 101.957,340.7813 C99.9101,340.7813 98.6132,339.6875 98.6132,337.9844 L98.6132,336.8906 C98.6132,335.1094 99.8632,333.7969 101.5976,333.7969 C102.1757,333.7969 102.7851,333.9531 103.2539,334.2031 C103.7382,334.4844 103.9101,334.7031 104.0039,335.1094 C104.0664,335.5156 104.0976,335.6406 104.2382,335.7656 C104.3789,335.9063 104.6132,336.0156 104.832,336.0156 C105.0976,336.0156 105.3632,335.875 105.5351,335.6563 C105.6445,335.5 105.6757,335.3125 105.6757,334.8906 L105.6757,333.4688 C105.6757,333.0313 105.6601,332.9063 105.5664,332.75 C105.4101,332.4844 105.1289,332.3438 104.832,332.3438 C104.5351,332.3438 104.332,332.4375 104.1132,332.75 L103.9414,332.6719 Z " fill="#000000"/><text fill="#000000" font-family="sans-serif" font-size="12" lengthAdjust="spacing" textLength="51" x="115.5976" y="341.1543">Address</text><line style="stroke:#A80036;stroke-width:1.5;" x1="87.5976" x2="168.5976" y1="353" y2="353"/><ellipse cx="97.5976" cy="364" rx="3" ry="3" style="stroke:#038048;stroke-width:1.0;fill:none;"/><text fill="#000000" font-family="sans-serif" font-size="11" lengthAdjust="spacing" textLength="22" x="106.5976" y="367.2104">City</text><ellipse cx="97.5976" cy="376.8047" rx="3" ry="3" style="stroke:#038048;stroke-width:1.0;fill:none;"/><text fill="#000000" font-family="sans-serif" font-size="11" lengthAdjust="spacing" textLength="29" x="106.5976" y="380.0151">Type</text><ellipse cx="97.5976" cy="389.6094" rx="3" ry="3" style="stroke:#038048;stroke-width:1.0;fill:none;"/><text fill="#000000" font-family="sans-serif" font-size="11" lengthAdjust="spacing" textLength="34" x="106.5976" y="392.8198">Name</text><line style="stroke:#A80036;stroke-width:1.5;" x1="87.5976" x2="168.5976" y1="399.4141" y2="399.4141"/><!--MD5=[3f0ef310aaa84a542276992c5216544d]
class Car--><rect codeLine="5" fill="#FEFECE" filter="url(#f3dirog4cx9v0)" height="60.8047" id="Car" style="stroke:#A80036;stroke-width:1.5;" width="52" x="459.0975" y="333.5"/><ellipse cx="474.0975" cy="349.5" fill="#ADD1B2" rx="11" ry="11" style="stroke:#A80036;stroke-width:1.0;"/><path d="M476.4412,345.1719 C475.5037,344.7344 474.91,344.5938 474.035,344.5938 C471.41,344.5938 469.41,346.6719 469.41,349.3906 L469.41,350.5156 C469.41,353.0938 471.5194,354.9844 474.41,354.9844 C475.6287,354.9844 476.785,354.6875 477.535,354.1406 C478.1131,353.7344 478.4412,353.2813 478.4412,352.8906 C478.4412,352.4375 478.0506,352.0469 477.5819,352.0469 C477.3631,352.0469 477.16,352.125 476.9725,352.3125 C476.5194,352.7969 476.5194,352.7969 476.3319,352.8906 C475.91,353.1563 475.2225,353.2813 474.4569,353.2813 C472.41,353.2813 471.1131,352.1875 471.1131,350.4844 L471.1131,349.3906 C471.1131,347.6094 472.3631,346.2969 474.0975,346.2969 C474.6756,346.2969 475.285,346.4531 475.7537,346.7031 C476.2381,346.9844 476.41,347.2031 476.5037,347.6094 C476.5662,348.0156 476.5975,348.1406 476.7381,348.2656 C476.8787,348.4063 477.1131,348.5156 477.3319,348.5156 C477.5975,348.5156 477.8631,348.375 478.035,348.1563 C478.1444,348 478.1756,347.8125 478.1756,347.3906 L478.1756,345.9688 C478.1756,345.5313 478.16,345.4063 478.0662,345.25 C477.91,344.9844 477.6287,344.8438 477.3319,344.8438 C477.035,344.8438 476.8319,344.9375 476.6131,345.25 L476.4412,345.1719 Z " fill="#000000"/><text fill="#000000" font-family="sans-serif" font-size="12" lengthAdjust="spacing" textLength="20" x="488.0975" y="353.6543">Car</text><line style="stroke:#A80036;stroke-width:1.5;" x1="460.0975" x2="510.0975" y1="365.5" y2="365.5"/><ellipse cx="470.0975" cy="376.5" rx="3" ry="3" style="stroke:#038048;stroke-width:1.0;fill:none;"/><text fill="#000000" font-family="sans-serif" font-size="11" lengthAdjust="spacing" textLength="21" x="479.0975" y="379.7104">Tag</text><line style="stroke:#A80036;stroke-width:1.5;" x1="460.0975" x2="510.0975" y1="386.3047" y2="386.3047"/><!--MD5=[590439ac31b017de7682903b3eb7025d]
class CarModel--><rect codeLine="6" fill="#FEFECE" filter="url(#f3dirog4cx9v0)" height="86.4141" id="CarModel" style="stroke:#A80036;stroke-width:1.5;" width="121" x="192.5975" y="484"/><ellipse cx="219.7475" cy="500" fill="#ADD1B2" rx="11" ry="11" style="stroke:#A80036;stroke-width:1.0;"/><path d="M222.0913,495.6719 C221.1538,495.2344 220.56,495.0938 219.685,495.0938 C217.06,495.0938 215.06,497.1719 215.06,499.8906 L215.06,501.0156 C215.06,503.5938 217.1694,505.4844 220.06,505.4844 C221.2788,505.4844 222.435,505.1875 223.185,504.6406 C223.7631,504.2344 224.0913,503.7813 224.0913,503.3906 C224.0913,502.9375 223.7006,502.5469 223.2319,502.5469 C223.0131,502.5469 222.81,502.625 222.6225,502.8125 C222.1694,503.2969 222.1694,503.2969 221.9819,503.3906 C221.56,503.6563 220.8725,503.7813 220.1069,503.7813 C218.06,503.7813 216.7631,502.6875 216.7631,500.9844 L216.7631,499.8906 C216.7631,498.1094 218.0131,496.7969 219.7475,496.7969 C220.3256,496.7969 220.935,496.9531 221.4038,497.2031 C221.8881,497.4844 222.06,497.7031 222.1538,498.1094 C222.2163,498.5156 222.2475,498.6406 222.3881,498.7656 C222.5288,498.9063 222.7631,499.0156 222.9819,499.0156 C223.2475,499.0156 223.5131,498.875 223.685,498.6563 C223.7944,498.5 223.8256,498.3125 223.8256,497.8906 L223.8256,496.4688 C223.8256,496.0313 223.81,495.9063 223.7163,495.75 C223.56,495.4844 223.2788,495.3438 222.9819,495.3438 C222.685,495.3438 222.4819,495.4375 222.2631,495.75 L222.0913,495.6719 Z " fill="#000000"/><text fill="#000000" font-family="sans-serif" font-size="12" lengthAdjust="spacing" textLength="62" x="236.4475" y="504.1543">Car model</text><line style="stroke:#A80036;stroke-width:1.5;" x1="193.5975" x2="312.5975" y1="516" y2="516"/><ellipse cx="203.5975" cy="527" rx="3" ry="3" style="stroke:#038048;stroke-width:1.0;fill:none;"/><text fill="#000000" font-family="sans-serif" font-size="11" lengthAdjust="spacing" textLength="12" x="212.5975" y="530.2104">ID</text><ellipse cx="203.5975" cy="539.8047" rx="3" ry="3" style="stroke:#038048;stroke-width:1.0;fill:none;"/><text fill="#000000" font-family="sans-serif" font-size="11" lengthAdjust="spacing" textLength="29" x="212.5975" y="543.0151">Type</text><ellipse cx="203.5975" cy="552.6094" rx="3" ry="3" style="stroke:#038048;stroke-width:1.0;fill:none;"/><text fill="#000000" font-family="sans-serif" font-size="11" lengthAdjust="spacing" textLength="95" x="212.5975" y="555.8198">Number of seats</text><line style="stroke:#A80036;stroke-width:1.5;" x1="193.5975" x2="312.5975" y1="562.4141" y2="562.4141"/><!--MD5=[054f87937b19fa476c097d32744151b9]
class Insurer--><rect codeLine="22" fill="#FEFECE" filter="url(#f3dirog4cx9v0)" height="73.6094" id="Insurer" style="stroke:#A80036;stroke-width:1.5;" width="74" x="338.0975" y="327"/><ellipse cx="353.0975" cy="343" fill="#ADD1B2" rx="11" ry="11" style="stroke:#A80036;stroke-width:1.0;"/><path d="M355.4412,338.6719 C354.5037,338.2344 353.91,338.0938 353.035,338.0938 C350.41,338.0938 348.41,340.1719 348.41,342.8906 L348.41,344.0156 C348.41,346.5938 350.5194,348.4844 353.41,348.4844 C354.6287,348.4844 355.785,348.1875 356.535,347.6406 C357.1131,347.2344 357.4412,346.7813 357.4412,346.3906 C357.4412,345.9375 357.0506,345.5469 356.5819,345.5469 C356.3631,345.5469 356.16,345.625 355.9725,345.8125 C355.5194,346.2969 355.5194,346.2969 355.3319,346.3906 C354.91,346.6563 354.2225,346.7813 353.4569,346.7813 C351.41,346.7813 350.1131,345.6875 350.1131,343.9844 L350.1131,342.8906 C350.1131,341.1094 351.3631,339.7969 353.0975,339.7969 C353.6756,339.7969 354.285,339.9531 354.7537,340.2031 C355.2381,340.4844 355.41,340.7031 355.5037,341.1094 C355.5662,341.5156 355.5975,341.6406 355.7381,341.7656 C355.8787,341.9063 356.1131,342.0156 356.3319,342.0156 C356.5975,342.0156 356.8631,341.875 357.035,341.6563 C357.1444,341.5 357.1756,341.3125 357.1756,340.8906 L357.1756,339.4688 C357.1756,339.0313 357.16,338.9063 357.0662,338.75 C356.91,338.4844 356.6287,338.3438 356.3319,338.3438 C356.035,338.3438 355.8319,338.4375 355.6131,338.75 L355.4412,338.6719 Z " fill="#000000"/><text fill="#000000" font-family="sans-serif" font-size="12" lengthAdjust="spacing" textLength="42" x="367.0975" y="347.1543">Insurer</text><line style="stroke:#A80036;stroke-width:1.5;" x1="339.0975" x2="411.0975" y1="359" y2="359"/><ellipse cx="349.0975" cy="370" rx="3" ry="3" style="stroke:#038048;stroke-width:1.0;fill:none;"/><text fill="#000000" font-family="sans-serif" font-size="11" lengthAdjust="spacing" textLength="12" x="358.0975" y="373.2104">ID</text><ellipse cx="349.0975" cy="382.8047" rx="3" ry="3" style="stroke:#038048;stroke-width:1.0;fill:none;"/><text fill="#000000" font-family="sans-serif" font-size="11" lengthAdjust="spacing" textLength="34" x="358.0975" y="386.0151">Name</text><line style="stroke:#A80036;stroke-width:1.5;" x1="339.0975" x2="411.0975" y1="392.6094" y2="392.6094"/><!--MD5=[c447b73724e2937b40b9f78fc0fede8e]
class Insurance--><rect codeLine="23" fill="#FEFECE" filter="url(#f3dirog4cx9v0)" height="60.8047" id="Insurance" style="stroke:#A80036;stroke-width:1.5;" width="90" x="382.0975" y="176.5"/><ellipse cx="397.0975" cy="192.5" fill="#ADD1B2" rx="11" ry="11" style="stroke:#A80036;stroke-width:1.0;"/><path d="M399.4412,188.1719 C398.5037,187.7344 397.91,187.5938 397.035,187.5938 C394.41,187.5938 392.41,189.6719 392.41,192.3906 L392.41,193.5156 C392.41,196.0938 394.5194,197.9844 397.41,197.9844 C398.6287,197.9844 399.785,197.6875 400.535,197.1406 C401.1131,196.7344 401.4412,196.2813 401.4412,195.8906 C401.4412,195.4375 401.0506,195.0469 400.5819,195.0469 C400.3631,195.0469 400.16,195.125 399.9725,195.3125 C399.5194,195.7969 399.5194,195.7969 399.3319,195.8906 C398.91,196.1563 398.2225,196.2813 397.4569,196.2813 C395.41,196.2813 394.1131,195.1875 394.1131,193.4844 L394.1131,192.3906 C394.1131,190.6094 395.3631,189.2969 397.0975,189.2969 C397.6756,189.2969 398.285,189.4531 398.7537,189.7031 C399.2381,189.9844 399.41,190.2031 399.5037,190.6094 C399.5662,191.0156 399.5975,191.1406 399.7381,191.2656 C399.8787,191.4063 400.1131,191.5156 400.3319,191.5156 C400.5975,191.5156 400.8631,191.375 401.035,191.1563 C401.1444,191 401.1756,190.8125 401.1756,190.3906 L401.1756,188.9688 C401.1756,188.5313 401.16,188.4063 401.0662,188.25 C400.91,187.9844 400.6287,187.8438 400.3319,187.8438 C400.035,187.8438 399.8319,187.9375 399.6131,188.25 L399.4412,188.1719 Z " fill="#000000"/><text fill="#000000" font-family="sans-serif" font-size="12" lengthAdjust="spacing" textLength="58" x="411.0975" y="196.6543">Insurance</text><line style="stroke:#A80036;stroke-width:1.5;" x1="383.0975" x2="471.0975" y1="208.5" y2="208.5"/><ellipse cx="393.0975" cy="219.5" rx="3" ry="3" style="stroke:#038048;stroke-width:1.0;fill:none;"/><text fill="#000000" font-family="sans-serif" font-size="11" lengthAdjust="spacing" textLength="29" x="402.0975" y="222.7104">Type</text><line style="stroke:#A80036;stroke-width:1.5;" x1="383.0975" x2="471.0975" y1="229.3047" y2="229.3047"/><!--MD5=[2ce0c9fb7f55b1e256ab28a8ea6b25ec]
class Customer--><rect codeLine="31" fill="#FEFECE" filter="url(#f3dirog4cx9v0)" height="86.4141" id="Customer" style="stroke:#A80036;stroke-width:1.5;" width="90" x="726.0975" y="321"/><ellipse cx="741.0975" cy="337" fill="#ADD1B2" rx="11" ry="11" style="stroke:#A80036;stroke-width:1.0;"/><path d="M743.4413,332.6719 C742.5038,332.2344 741.91,332.0938 741.035,332.0938 C738.41,332.0938 736.41,334.1719 736.41,336.8906 L736.41,338.0156 C736.41,340.5938 738.5194,342.4844 741.41,342.4844 C742.6288,342.4844 743.785,342.1875 744.535,341.6406 C745.1131,341.2344 745.4413,340.7813 745.4413,340.3906 C745.4413,339.9375 745.0506,339.5469 744.5819,339.5469 C744.3631,339.5469 744.16,339.625 743.9725,339.8125 C743.5194,340.2969 743.5194,340.2969 743.3319,340.3906 C742.91,340.6563 742.2225,340.7813 741.4569,340.7813 C739.41,340.7813 738.1131,339.6875 738.1131,337.9844 L738.1131,336.8906 C738.1131,335.1094 739.3631,333.7969 741.0975,333.7969 C741.6756,333.7969 742.285,333.9531 742.7538,334.2031 C743.2381,334.4844 743.41,334.7031 743.5038,335.1094 C743.5663,335.5156 743.5975,335.6406 743.7381,335.7656 C743.8788,335.9063 744.1131,336.0156 744.3319,336.0156 C744.5975,336.0156 744.8631,335.875 745.035,335.6563 C745.1444,335.5 745.1756,335.3125 745.1756,334.8906 L745.1756,333.4688 C745.1756,333.0313 745.16,332.9063 745.0663,332.75 C744.91,332.4844 744.6288,332.3438 744.3319,332.3438 C744.035,332.3438 743.8319,332.4375 743.6131,332.75 L743.4413,332.6719 Z " fill="#000000"/><text fill="#000000" font-family="sans-serif" font-size="12" lengthAdjust="spacing" textLength="58" x="755.0975" y="341.1543">Customer</text><line style="stroke:#A80036;stroke-width:1.5;" x1="727.0975" x2="815.0975" y1="353" y2="353"/><ellipse cx="737.0975" cy="364" rx="3" ry="3" style="stroke:#038048;stroke-width:1.0;fill:none;"/><text fill="#000000" font-family="sans-serif" font-size="11" lengthAdjust="spacing" textLength="24" x="746.0975" y="367.2104">SSN</text><ellipse cx="737.0975" cy="376.8047" rx="3" ry="3" style="stroke:#038048;stroke-width:1.0;fill:none;"/><text fill="#000000" font-family="sans-serif" font-size="11" lengthAdjust="spacing" textLength="34" x="746.0975" y="380.0151">Name</text><ellipse cx="737.0975" cy="389.6094" rx="3" ry="3" style="stroke:#038048;stroke-width:1.0;fill:none;"/><text fill="#000000" font-family="sans-serif" font-size="11" lengthAdjust="spacing" textLength="52" x="746.0975" y="392.8198">Surname</text><line style="stroke:#A80036;stroke-width:1.5;" x1="727.0975" x2="815.0975" y1="399.4141" y2="399.4141"/><!--MD5=[5999a290c6b468e29c073bd2553f28d1]
class DriverLicense--><rect codeLine="32" fill="#FEFECE" filter="url(#f3dirog4cx9v0)" height="73.6094" id="DriverLicense" style="stroke:#A80036;stroke-width:1.5;" width="116" x="568.0975" y="490"/><ellipse cx="583.0975" cy="506" fill="#ADD1B2" rx="11" ry="11" style="stroke:#A80036;stroke-width:1.0;"/><path d="M585.4413,501.6719 C584.5038,501.2344 583.91,501.0938 583.035,501.0938 C580.41,501.0938 578.41,503.1719 578.41,505.8906 L578.41,507.0156 C578.41,509.5938 580.5194,511.4844 583.41,511.4844 C584.6288,511.4844 585.785,511.1875 586.535,510.6406 C587.1131,510.2344 587.4413,509.7813 587.4413,509.3906 C587.4413,508.9375 587.0506,508.5469 586.5819,508.5469 C586.3631,508.5469 586.16,508.625 585.9725,508.8125 C585.5194,509.2969 585.5194,509.2969 585.3319,509.3906 C584.91,509.6563 584.2225,509.7813 583.4569,509.7813 C581.41,509.7813 580.1131,508.6875 580.1131,506.9844 L580.1131,505.8906 C580.1131,504.1094 581.3631,502.7969 583.0975,502.7969 C583.6756,502.7969 584.285,502.9531 584.7538,503.2031 C585.2381,503.4844 585.41,503.7031 585.5038,504.1094 C585.5663,504.5156 585.5975,504.6406 585.7381,504.7656 C585.8788,504.9063 586.1131,505.0156 586.3319,505.0156 C586.5975,505.0156 586.8631,504.875 587.035,504.6563 C587.1444,504.5 587.1756,504.3125 587.1756,503.8906 L587.1756,502.4688 C587.1756,502.0313 587.16,501.9063 587.0663,501.75 C586.91,501.4844 586.6288,501.3438 586.3319,501.3438 C586.035,501.3438 585.8319,501.4375 585.6131,501.75 L585.4413,501.6719 Z " fill="#000000"/><text fill="#000000" font-family="sans-serif" font-size="12" lengthAdjust="spacing" textLength="84" x="597.0975" y="510.1543">Driver license</text><line style="stroke:#A80036;stroke-width:1.5;" x1="569.0975" x2="683.0975" y1="522" y2="522"/><ellipse cx="579.0975" cy="533" rx="3" ry="3" style="stroke:#038048;stroke-width:1.0;fill:none;"/><text fill="#000000" font-family="sans-serif" font-size="11" lengthAdjust="spacing" textLength="12" x="588.0975" y="536.2104">ID</text><ellipse cx="579.0975" cy="545.8047" rx="3" ry="3" style="stroke:#038048;stroke-width:1.0;fill:none;"/><text fill="#000000" font-family="sans-serif" font-size="11" lengthAdjust="spacing" textLength="86" x="588.0975" y="549.0151">Expiration date</text><line style="stroke:#A80036;stroke-width:1.5;" x1="569.0975" x2="683.0975" y1="555.6094" y2="555.6094"/><!--MD5=[91d4151b6d4c9a3d01b6d84b2458eece]
class CreditCard--><rect codeLine="33" fill="#FEFECE" filter="url(#f3dirog4cx9v0)" height="73.6094" id="CreditCard" style="stroke:#A80036;stroke-width:1.5;" width="112" x="719.0975" y="490"/><ellipse cx="739.9475" cy="506" fill="#ADD1B2" rx="11" ry="11" style="stroke:#A80036;stroke-width:1.0;"/><path d="M742.2913,501.6719 C741.3538,501.2344 740.76,501.0938 739.885,501.0938 C737.26,501.0938 735.26,503.1719 735.26,505.8906 L735.26,507.0156 C735.26,509.5938 737.3694,511.4844 740.26,511.4844 C741.4788,511.4844 742.635,511.1875 743.385,510.6406 C743.9631,510.2344 744.2913,509.7813 744.2913,509.3906 C744.2913,508.9375 743.9006,508.5469 743.4319,508.5469 C743.2131,508.5469 743.01,508.625 742.8225,508.8125 C742.3694,509.2969 742.3694,509.2969 742.1819,509.3906 C741.76,509.6563 741.0725,509.7813 740.3069,509.7813 C738.26,509.7813 736.9631,508.6875 736.9631,506.9844 L736.9631,505.8906 C736.9631,504.1094 738.2131,502.7969 739.9475,502.7969 C740.5256,502.7969 741.135,502.9531 741.6038,503.2031 C742.0881,503.4844 742.26,503.7031 742.3538,504.1094 C742.4163,504.5156 742.4475,504.6406 742.5881,504.7656 C742.7288,504.9063 742.9631,505.0156 743.1819,505.0156 C743.4475,505.0156 743.7131,504.875 743.885,504.6563 C743.9944,504.5 744.0256,504.3125 744.0256,503.8906 L744.0256,502.4688 C744.0256,502.0313 744.01,501.9063 743.9163,501.75 C743.76,501.4844 743.4788,501.3438 743.1819,501.3438 C742.885,501.3438 742.6819,501.4375 742.4631,501.75 L742.2913,501.6719 Z " fill="#000000"/><text fill="#000000" font-family="sans-serif" font-size="12" lengthAdjust="spacing" textLength="67" x="755.2475" y="510.1543">Credit card</text><line style="stroke:#A80036;stroke-width:1.5;" x1="720.0975" x2="830.0975" y1="522" y2="522"/><ellipse cx="730.0975" cy="533" rx="3" ry="3" style="stroke:#038048;stroke-width:1.0;fill:none;"/><text fill="#000000" font-family="sans-serif" font-size="11" lengthAdjust="spacing" textLength="45" x="739.0975" y="536.2104">Number</text><ellipse cx="730.0975" cy="545.8047" rx="3" ry="3" style="stroke:#038048;stroke-width:1.0;fill:none;"/><text fill="#000000" font-family="sans-serif" font-size="11" lengthAdjust="spacing" textLength="86" x="739.0975" y="549.0151">Expiration date</text><line style="stroke:#A80036;stroke-width:1.5;" x1="720.0975" x2="830.0975" y1="555.6094" y2="555.6094"/><!--MD5=[9c46470aa33a0c75e6d1dfdefc2f9c22]
class Reservation--><rect codeLine="45" fill="#FEFECE" filter="url(#f3dirog4cx9v0)" height="73.6094" id="Reservation" style="stroke:#A80036;stroke-width:1.5;" width="103" x="719.5975" y="170"/><ellipse cx="734.5975" cy="186" fill="#ADD1B2" rx="11" ry="11" style="stroke:#A80036;stroke-width:1.0;"/><path d="M736.9413,181.6719 C736.0038,181.2344 735.41,181.0938 734.535,181.0938 C731.91,181.0938 729.91,183.1719 729.91,185.8906 L729.91,187.0156 C729.91,189.5938 732.0194,191.4844 734.91,191.4844 C736.1288,191.4844 737.285,191.1875 738.035,190.6406 C738.6131,190.2344 738.9413,189.7813 738.9413,189.3906 C738.9413,188.9375 738.5506,188.5469 738.0819,188.5469 C737.8631,188.5469 737.66,188.625 737.4725,188.8125 C737.0194,189.2969 737.0194,189.2969 736.8319,189.3906 C736.41,189.6563 735.7225,189.7813 734.9569,189.7813 C732.91,189.7813 731.6131,188.6875 731.6131,186.9844 L731.6131,185.8906 C731.6131,184.1094 732.8631,182.7969 734.5975,182.7969 C735.1756,182.7969 735.785,182.9531 736.2538,183.2031 C736.7381,183.4844 736.91,183.7031 737.0038,184.1094 C737.0663,184.5156 737.0975,184.6406 737.2381,184.7656 C737.3788,184.9063 737.6131,185.0156 737.8319,185.0156 C738.0975,185.0156 738.3631,184.875 738.535,184.6563 C738.6444,184.5 738.6756,184.3125 738.6756,183.8906 L738.6756,182.4688 C738.6756,182.0313 738.66,181.9063 738.5663,181.75 C738.41,181.4844 738.1288,181.3438 737.8319,181.3438 C737.535,181.3438 737.3319,181.4375 737.1131,181.75 L736.9413,181.6719 Z " fill="#000000"/><text fill="#000000" font-family="sans-serif" font-size="12" lengthAdjust="spacing" textLength="71" x="748.5975" y="190.1543">Reservation</text><line style="stroke:#A80036;stroke-width:1.5;" x1="720.5975" x2="821.5975" y1="202" y2="202"/><ellipse cx="730.5975" cy="213" rx="3" ry="3" style="stroke:#038048;stroke-width:1.0;fill:none;"/><text fill="#000000" font-family="sans-serif" font-size="11" lengthAdjust="spacing" textLength="57" x="739.5975" y="216.2104">Start date</text><ellipse cx="730.5975" cy="225.8047" rx="3" ry="3" style="stroke:#038048;stroke-width:1.0;fill:none;"/><text fill="#000000" font-family="sans-serif" font-size="11" lengthAdjust="spacing" textLength="51" x="739.5975" y="229.0151">End date</text><line style="stroke:#A80036;stroke-width:1.5;" x1="720.5975" x2="821.5975" y1="235.6094" y2="235.6094"/><!--MD5=[931c2459a5b1ef2b405e84c8dc93c38e]
class Rental--><rect codeLine="52" fill="#FEFECE" filter="url(#f3dirog4cx9v0)" height="86.4141" id="Rental" style="stroke:#A80036;stroke-width:1.5;" width="83" x="670.5975" y="7"/><ellipse cx="692.3475" cy="23" fill="#ADD1B2" rx="11" ry="11" style="stroke:#A80036;stroke-width:1.0;"/><path d="M694.6913,18.6719 C693.7538,18.2344 693.16,18.0938 692.285,18.0938 C689.66,18.0938 687.66,20.1719 687.66,22.8906 L687.66,24.0156 C687.66,26.5938 689.7694,28.4844 692.66,28.4844 C693.8788,28.4844 695.035,28.1875 695.785,27.6406 C696.3631,27.2344 696.6913,26.7813 696.6913,26.3906 C696.6913,25.9375 696.3006,25.5469 695.8319,25.5469 C695.6131,25.5469 695.41,25.625 695.2225,25.8125 C694.7694,26.2969 694.7694,26.2969 694.5819,26.3906 C694.16,26.6563 693.4725,26.7813 692.7069,26.7813 C690.66,26.7813 689.3631,25.6875 689.3631,23.9844 L689.3631,22.8906 C689.3631,21.1094 690.6131,19.7969 692.3475,19.7969 C692.9256,19.7969 693.535,19.9531 694.0038,20.2031 C694.4881,20.4844 694.66,20.7031 694.7538,21.1094 C694.8163,21.5156 694.8475,21.6406 694.9881,21.7656 C695.1288,21.9063 695.3631,22.0156 695.5819,22.0156 C695.8475,22.0156 696.1131,21.875 696.285,21.6563 C696.3944,21.5 696.4256,21.3125 696.4256,20.8906 L696.4256,19.4688 C696.4256,19.0313 696.41,18.9063 696.3163,18.75 C696.16,18.4844 695.8788,18.3438 695.5819,18.3438 C695.285,18.3438 695.0819,18.4375 694.8631,18.75 L694.6913,18.6719 Z " fill="#000000"/><text fill="#000000" font-family="sans-serif" font-size="12" lengthAdjust="spacing" textLength="36" x="707.8475" y="27.1543">Rental</text><line style="stroke:#A80036;stroke-width:1.5;" x1="671.5975" x2="752.5975" y1="39" y2="39"/><ellipse cx="681.5975" cy="50" rx="3" ry="3" style="stroke:#038048;stroke-width:1.0;fill:none;"/><text fill="#000000" font-family="sans-serif" font-size="11" lengthAdjust="spacing" textLength="12" x="690.5975" y="53.2104">ID</text><ellipse cx="681.5975" cy="62.8047" rx="3" ry="3" style="stroke:#038048;stroke-width:1.0;fill:none;"/><text fill="#000000" font-family="sans-serif" font-size="11" lengthAdjust="spacing" textLength="57" x="690.5975" y="66.0151">Start date</text><ellipse cx="681.5975" cy="75.6094" rx="3" ry="3" style="stroke:#038048;stroke-width:1.0;fill:none;"/><text fill="#000000" font-family="sans-serif" font-size="11" lengthAdjust="spacing" textLength="51" x="690.5975" y="78.8198">End date</text><line style="stroke:#A80036;stroke-width:1.5;" x1="671.5975" x2="752.5975" y1="85.4141" y2="85.4141"/><!--MD5=[764fca796ce7f635542948d8fc39db5e]
class Payment--><rect codeLine="53" fill="#FEFECE" filter="url(#f3dirog4cx9v0)" height="60.8047" id="Payment" style="stroke:#A80036;stroke-width:1.5;" width="82" x="894.0975" y="176.5"/><ellipse cx="909.0975" cy="192.5" fill="#ADD1B2" rx="11" ry="11" style="stroke:#A80036;stroke-width:1.0;"/><path d="M911.4413,188.1719 C910.5038,187.7344 909.91,187.5938 909.035,187.5938 C906.41,187.5938 904.41,189.6719 904.41,192.3906 L904.41,193.5156 C904.41,196.0938 906.5194,197.9844 909.41,197.9844 C910.6288,197.9844 911.785,197.6875 912.535,197.1406 C913.1131,196.7344 913.4413,196.2813 913.4413,195.8906 C913.4413,195.4375 913.0506,195.0469 912.5819,195.0469 C912.3631,195.0469 912.16,195.125 911.9725,195.3125 C911.5194,195.7969 911.5194,195.7969 911.3319,195.8906 C910.91,196.1563 910.2225,196.2813 909.4569,196.2813 C907.41,196.2813 906.1131,195.1875 906.1131,193.4844 L906.1131,192.3906 C906.1131,190.6094 907.3631,189.2969 909.0975,189.2969 C909.6756,189.2969 910.285,189.4531 910.7538,189.7031 C911.2381,189.9844 911.41,190.2031 911.5038,190.6094 C911.5663,191.0156 911.5975,191.1406 911.7381,191.2656 C911.8788,191.4063 912.1131,191.5156 912.3319,191.5156 C912.5975,191.5156 912.8631,191.375 913.035,191.1563 C913.1444,191 913.1756,190.8125 913.1756,190.3906 L913.1756,188.9688 C913.1756,188.5313 913.16,188.4063 913.0663,188.25 C912.91,187.9844 912.6288,187.8438 912.3319,187.8438 C912.035,187.8438 911.8319,187.9375 911.6131,188.25 L911.4413,188.1719 Z " fill="#000000"/><text fill="#000000" font-family="sans-serif" font-size="12" lengthAdjust="spacing" textLength="50" x="923.0975" y="196.6543">Payment</text><line style="stroke:#A80036;stroke-width:1.5;" x1="895.0975" x2="975.0975" y1="208.5" y2="208.5"/><ellipse cx="905.0975" cy="219.5" rx="3" ry="3" style="stroke:#038048;stroke-width:1.0;fill:none;"/><text fill="#000000" font-family="sans-serif" font-size="11" lengthAdjust="spacing" textLength="44" x="914.0975" y="222.7104">Amount</text><line style="stroke:#A80036;stroke-width:1.5;" x1="895.0975" x2="975.0975" y1="229.3047" y2="229.3047"/><!--MD5=[894442645724153f40a9f7a43026dbfc]
class Invoice--><rect codeLine="63" fill="#FEFECE" filter="url(#f3dirog4cx9v0)" height="60.8047" id="Invoice" style="stroke:#A80036;stroke-width:1.5;" width="75" x="934.5975" y="19.5"/><ellipse cx="949.5975" cy="35.5" fill="#ADD1B2" rx="11" ry="11" style="stroke:#A80036;stroke-width:1.0;"/><path d="M951.9413,31.1719 C951.0038,30.7344 950.41,30.5938 949.535,30.5938 C946.91,30.5938 944.91,32.6719 944.91,35.3906 L944.91,36.5156 C944.91,39.0938 947.0194,40.9844 949.91,40.9844 C951.1288,40.9844 952.285,40.6875 953.035,40.1406 C953.6131,39.7344 953.9413,39.2813 953.9413,38.8906 C953.9413,38.4375 953.5506,38.0469 953.0819,38.0469 C952.8631,38.0469 952.66,38.125 952.4725,38.3125 C952.0194,38.7969 952.0194,38.7969 951.8319,38.8906 C951.41,39.1563 950.7225,39.2813 949.9569,39.2813 C947.91,39.2813 946.6131,38.1875 946.6131,36.4844 L946.6131,35.3906 C946.6131,33.6094 947.8631,32.2969 949.5975,32.2969 C950.1756,32.2969 950.785,32.4531 951.2538,32.7031 C951.7381,32.9844 951.91,33.2031 952.0038,33.6094 C952.0663,34.0156 952.0975,34.1406 952.2381,34.2656 C952.3788,34.4063 952.6131,34.5156 952.8319,34.5156 C953.0975,34.5156 953.3631,34.375 953.535,34.1563 C953.6444,34 953.6756,33.8125 953.6756,33.3906 L953.6756,31.9688 C953.6756,31.5313 953.66,31.4063 953.5663,31.25 C953.41,30.9844 953.1288,30.8438 952.8319,30.8438 C952.535,30.8438 952.3319,30.9375 952.1131,31.25 L951.9413,31.1719 Z " fill="#000000"/><text fill="#000000" font-family="sans-serif" font-size="12" lengthAdjust="spacing" textLength="43" x="963.5975" y="39.6543">Invoice</text><line style="stroke:#A80036;stroke-width:1.5;" x1="935.5975" x2="1008.5975" y1="51.5" y2="51.5"/><ellipse cx="945.5975" cy="62.5" rx="3" ry="3" style="stroke:#038048;stroke-width:1.0;fill:none;"/><text fill="#000000" font-family="sans-serif" font-size="11" lengthAdjust="spacing" textLength="12" x="954.5975" y="65.7104">ID</text><line style="stroke:#A80036;stroke-width:1.5;" x1="935.5975" x2="1008.5975" y1="72.3047" y2="72.3047"/><!--MD5=[3f2200ee59b7ff328547c16fcaa82aaa]
reverse link CARS to ParkingSite--><path codeLine="7" d="M84.5747,86.279 C96.4941,113.448 112.7851,150.582 124.0487,176.256 " fill="none" id="CARS-backto-ParkingSite" style="stroke:#A80036;stroke-width:1.0;"/><polygon fill="#FFFFFF" points="79.2778,74.205,78.0254,81.3065,84.0989,85.194,85.3513,78.0924,79.2778,74.205" style="stroke:#A80036;stroke-width:1.0;"/><text fill="#000000" font-family="sans-serif" font-size="13" lengthAdjust="spacing" textLength="7" x="113.6355" y="165.4689">*</text><!--MD5=[d37b3934b94f6a41b3abc66745ff87de]
link CARS to CarModel--><path codeLine="8" d="M61.7315,74.226 C44.2036,134.111 6,296.771 69.0976,407 C96.0292,454.048 149.9905,485.5907 192.5455,504.3117 " fill="none" id="CARS-CarModel" style="stroke:#A80036;stroke-width:1.0;"/><polygon fill="#000000" points="42.5525,287.35,42.7322,277.8412,37.1087,279.5516,42.5525,287.35" style="stroke:#000000;stroke-width:1.0;"/><text fill="#000000" font-family="sans-serif" font-size="13" lengthAdjust="spacing" textLength="38" x="50.0976" y="287.0669">offers</text><text fill="#000000" font-family="sans-serif" font-size="13" lengthAdjust="spacing" textLength="7" x="177.7392" y="497.6823">*</text><!--MD5=[0bb5ecd22f769035943466e1f175b6da]
link ParkingSite to Car--><path codeLine="9" d="M176.4365,237.5 C202.3485,255.551 237.7255,277.667 272.0975,291 C338.3295,316.691 364.1205,292.282 429.0975,321 C439.6575,325.667 450.0915,332.654 459.0395,339.597 " fill="none" id="ParkingSite-Car" style="stroke:#A80036;stroke-width:1.0;"/><polygon fill="#000000" points="272.395,280.8675,279.9033,286.7049,281.9005,281.1768,272.395,280.8675" style="stroke:#000000;stroke-width:1.0;"/><text fill="#000000" font-family="sans-serif" font-size="13" lengthAdjust="spacing" textLength="73" x="286.0975" y="287.0669">is parked in</text><text fill="#000000" font-family="sans-serif" font-size="13" lengthAdjust="spacing" textLength="7" x="444.0958" y="328.1341">*</text><!--MD5=[5bfc8a85a28873f5396f08cff86728d7]
link ParkingSite to Address--><path codeLine="10" d="M130.5165,237.743 C128.3278,249.035 126.1748,262.053 125.0976,274 C123.723,289.244 123.8603,306.007 124.5456,320.836 " fill="none" id="ParkingSite-Address" style="stroke:#A80036;stroke-width:1.0;"/><polygon fill="#000000" points="129.7392,287.5535,133.3189,278.7424,127.4562,278.3211,129.7392,287.5535" style="stroke:#000000;stroke-width:1.0;"/><text fill="#000000" font-family="sans-serif" font-size="13" lengthAdjust="spacing" textLength="64" x="139.0976" y="287.0669">located at</text><!--MD5=[b93b373ada3841d2c88bbb890cab4936]
link Car to CarModel--><path codeLine="11" d="M459.0825,384.925 C449.7055,391.997 438.9955,399.949 429.0975,407 C391.2465,433.966 348.0195,463.215 313.8775,485.9671 " fill="none" id="Car-CarModel" style="stroke:#A80036;stroke-width:1.0;"/><polygon fill="#000000" points="396.2016,442.7105,387.0985,445.4645,390.4558,450.2892,396.2016,442.7105" style="stroke:#000000;stroke-width:1.0;"/><text fill="#000000" font-family="sans-serif" font-size="13" lengthAdjust="spacing" textLength="61" x="401.0975" y="450.0669">describes</text><text fill="#000000" font-family="sans-serif" font-size="13" lengthAdjust="spacing" textLength="7" x="444.1503" y="385.644">*</text><!--MD5=[f1f9b6f25047388ffbf25aa240c8f3fd]
link Insurance to Insurer--><path codeLine="24" d="M394.9225,237.67 C385.7385,248.153 376.9215,260.677 372.0975,274 C366.0455,290.717 366.0355,310.375 367.8615,326.958 " fill="none" id="Insurance-Insurer" style="stroke:#A80036;stroke-width:1.0;"/><polygon fill="#000000" points="378.5477,277.7813,373.1116,285.5852,378.7368,287.29,378.5477,277.7813" style="stroke:#000000;stroke-width:1.0;"/><text fill="#000000" font-family="sans-serif" font-size="13" lengthAdjust="spacing" textLength="55" x="386.0975" y="287.0669">provides</text><text fill="#000000" font-family="sans-serif" font-size="13" lengthAdjust="spacing" textLength="7" x="380.899" y="257.2839">*</text><!--MD5=[6c30fed22086064e70b0965e3cf6793a]
link Insurance to Car--><path codeLine="25" d="M438.1435,237.519 C448.4305,265.012 463.6885,305.785 473.9945,333.327 " fill="none" id="Insurance-Car" style="stroke:#A80036;stroke-width:1.0;"/><polygon fill="#000000" points="461.3452,277.8835,461.7626,287.3849,467.2677,285.325,461.3452,277.8835" style="stroke:#000000;stroke-width:1.0;"/><text fill="#000000" font-family="sans-serif" font-size="13" lengthAdjust="spacing" textLength="72" x="472.0975" y="287.0669">covered by</text><text fill="#000000" font-family="sans-serif" font-size="13" lengthAdjust="spacing" textLength="7" x="432.6999" y="257.4612">*</text><!--MD5=[aeaf9200cbaa7c7c08444b4bc8b3369b]
link Customer to DriverLicense--><path codeLine="34" d="M733.0005,407.301 C709.8415,433.015 680.5865,465.499 658.5365,489.9812 " fill="none" id="Customer-DriverLicense" style="stroke:#A80036;stroke-width:1.0;"/><!--MD5=[64f0e157b9264e99419c5f82d7e84fb1]
link Customer to CreditCard--><path codeLine="35" d="M772.1485,407.301 C772.7875,433.015 773.5945,465.499 774.2025,489.9812 " fill="none" id="Customer-CreditCard" style="stroke:#A80036;stroke-width:1.0;"/><!--MD5=[084ed435efc901fd8b74a4436d3ced04]
link Reservation to Customer--><path codeLine="46" d="M771.0975,244.341 C771.0975,267.247 771.0975,296.912 771.0975,320.85 " fill="none" id="Reservation-Customer" style="stroke:#A80036;stroke-width:1.0;"/><polygon fill="#000000" points="776.0975,277.5664,773.1586,286.6115,779.0364,286.6115,776.0975,277.5664" style="stroke:#000000;stroke-width:1.0;"/><text fill="#000000" font-family="sans-serif" font-size="13" lengthAdjust="spacing" textLength="56" x="785.0975" y="287.0669">reserves</text><text fill="#000000" font-family="sans-serif" font-size="13" lengthAdjust="spacing" textLength="7" x="763.5397" y="263.5961">*</text><!--MD5=[a66ffbc7ba777f65e7d171d99d9bd382]
link Reservation to Car--><path codeLine="47" d="M719.4045,236.057 C689.7585,252.144 651.8395,272.714 618.0975,291 C581.1615,311.016 538.4425,334.137 511.5975,348.663 " fill="none" id="Reservation-Car" style="stroke:#A80036;stroke-width:1.0;"/><polygon fill="#000000" points="648.7014,284.9485,658.0542,283.2232,655.2538,278.0553,648.7014,284.9485" style="stroke:#000000;stroke-width:1.0;"/><text fill="#000000" font-family="sans-serif" font-size="13" lengthAdjust="spacing" textLength="56" x="662.0975" y="287.0669">reserves</text><text fill="#000000" font-family="sans-serif" font-size="13" lengthAdjust="spacing" textLength="7" x="704.643" y="236.1922">*</text><!--MD5=[badfa0d16d4219cadd67de4ff8295934]
link Rental to Reservation--><path codeLine="54" d="M703.8065,93.405 C702.6025,108.567 703.3485,125.482 709.0975,140 C713.3815,150.816 720.3685,160.894 728.1395,169.757 " fill="none" id="Rental-Reservation" style="stroke:#A80036;stroke-width:1.0;"/><polygon fill="#000000" points="715.6157,136.3303,715.6694,126.8199,710.0691,128.6047,715.6157,136.3303" style="stroke:#000000;stroke-width:1.0;"/><text fill="#000000" font-family="sans-serif" font-size="13" lengthAdjust="spacing" textLength="65" x="723.0975" y="136.0669">relative to</text><text fill="#000000" font-family="sans-serif" font-size="13" lengthAdjust="spacing" textLength="24" x="676.5726" y="113.5625">0..1</text><!--MD5=[5f99c74083f6673ca3d55e65c6ade5b1]
link Rental to Payment--><path codeLine="55" d="M753.7805,79.972 C793.8685,107.836 854.1045,149.704 893.9955,177.432 " fill="none" id="Rental-Payment" style="stroke:#A80036;stroke-width:1.0;"/><polygon fill="#000000" points="846.2031,134.4201,840.4533,126.8445,837.0986,131.6709,846.2031,134.4201" style="stroke:#000000;stroke-width:1.0;"/><text fill="#000000" font-family="sans-serif" font-size="13" lengthAdjust="spacing" textLength="85" x="851.0975" y="136.0669">has payment</text><!--MD5=[ecb5ede8695547817815f2a3c7411f0e]
link Rental to Car--><path codeLine="56" d="M672.8605,93.188 C653.5455,115.137 630.6935,142.974 613.0975,170 C580.3465,220.304 587.4155,241.751 553.0975,291 C541.0065,308.351 524.8365,325.65 511.2985,338.942 " fill="none" id="Rental-Car" style="stroke:#A80036;stroke-width:1.0;"/><polygon fill="#000000" points="620.8442,202.8884,613.4196,208.832,618.3312,212.0609,620.8442,202.8884" style="stroke:#000000;stroke-width:1.0;"/><text fill="#000000" font-family="sans-serif" font-size="13" lengthAdjust="spacing" textLength="74" x="627.0975" y="211.5669">assigned to</text><text fill="#000000" font-family="sans-serif" font-size="13" lengthAdjust="spacing" textLength="7" x="658.7822" y="113.6268">*</text><!--MD5=[8057192d0da8c3a76f90b3876072c699]
link Invoice to Payment--><path codeLine="64" d="M965.0515,80.519 C958.4885,108.012 948.7555,148.785 942.1805,176.327 " fill="none" id="Invoice-Payment" style="stroke:#A80036;stroke-width:1.0;"/><polygon fill="#000000" points="958.9365,136.4298,963.8953,128.3143,958.1781,126.9495,958.9365,136.4298" style="stroke:#000000;stroke-width:1.0;"/><text fill="#000000" font-family="sans-serif" font-size="13" lengthAdjust="spacing" textLength="62" x="969.0975" y="136.0669">related to</text><!--MD5=[e32772e055e348308899665728e79502]
@startuml
' CARS company
class CARS
class "Parking site" as ParkingSite
class Address
class Car
class "Car model" as CarModel
CARS o- - "*" ParkingSite
CARS - - "*" CarModel : offers >
ParkingSite - - "*" Car : is parked in <
ParkingSite - - Address : located at >
Car "*" - - CarModel : describes <
Car : +Tag
CarModel : +ID
CarModel : +Type
CarModel : +Number of seats
ParkingSite : +ID
Address : +City
Address : +Type
Address : +Name

' Insurances
class Insurer
class Insurance
Insurance "*" - - Insurer : provides <
Insurance "*" - - Car : covered by <
Insurer : +ID
Insurer : +Name
Insurance : +Type

' Customer
class Customer
class "Driver license" as DriverLicense
class "Credit card" as CreditCard
Customer - - DriverLicense
Customer - - CreditCard
Customer : +SSN
Customer : +Name
Customer : +Surname
DriverLicense : +ID
DriverLicense : +Expiration date
CreditCard : +Number
CreditCard : +Expiration date

' Reservation
class Reservation
Reservation "*" - - Customer : reserves <
Reservation "*" - - Car : reserves >
Reservation : +Start date
Reservation : +End date

' Check-out - Part 1
class Rental
class Payment
Rental "0..1" - - Reservation : relative to >
Rental - - Payment : has payment >
Rental "*" - - Car : assigned to <
Rental : +ID
Rental : +Start date
Rental : +End date
Payment : +Amount

' Invoice
class Invoice
Invoice - - Payment : related to >
Invoice : +ID
@enduml

@startuml
class CARS
class "Parking site" as ParkingSite
class Address
class Car
class "Car model" as CarModel
CARS o- - "*" ParkingSite
CARS - - "*" CarModel : offers >
ParkingSite - - "*" Car : is parked in <
ParkingSite - - Address : located at >
Car "*" - - CarModel : describes <
Car : +Tag
CarModel : +ID
CarModel : +Type
CarModel : +Number of seats
ParkingSite : +ID
Address : +City
Address : +Type
Address : +Name

class Insurer
class Insurance
Insurance "*" - - Insurer : provides <
Insurance "*" - - Car : covered by <
Insurer : +ID
Insurer : +Name
Insurance : +Type

class Customer
class "Driver license" as DriverLicense
class "Credit card" as CreditCard
Customer - - DriverLicense
Customer - - CreditCard
Customer : +SSN
Customer : +Name
Customer : +Surname
DriverLicense : +ID
DriverLicense : +Expiration date
CreditCard : +Number
CreditCard : +Expiration date

class Reservation
Reservation "*" - - Customer : reserves <
Reservation "*" - - Car : reserves >
Reservation : +Start date
Reservation : +End date

class Rental
class Payment
Rental "0..1" - - Reservation : relative to >
Rental - - Payment : has payment >
Rental "*" - - Car : assigned to <
Rental : +ID
Rental : +Start date
Rental : +End date
Payment : +Amount

class Invoice
Invoice - - Payment : related to >
Invoice : +ID
@enduml

PlantUML version 1.2021.11beta3(Unknown compile time)
(GPL source distribution)
Java Runtime: Java(TM) SE Runtime Environment
JVM: Java HotSpot(TM) 64-Bit Server VM
Default Encoding: UTF-8
Language: en
Country: US
--></g></svg>