<?xml version="1.0" encoding="UTF-8" standalone="no"?><svg xmlns="http://www.w3.org/2000/svg" xmlns:xlink="http://www.w3.org/1999/xlink" contentScriptType="application/ecmascript" contentStyleType="text/css" height="910px" preserveAspectRatio="none" style="width:1345px;height:910px;background:#FFFFFF;" version="1.1" viewBox="0 0 1345 910" width="1345px" zoomAndPan="magnify"><defs><filter height="300%" id="f18obnho5t44jm" width="300%" x="-1" y="-1"><feGaussianBlur result="blurOut" stdDeviation="2.0"/><feColorMatrix in="blurOut" result="blurOut2" type="matrix" values="0 0 0 0 0 0 0 0 0 0 0 0 0 0 0 0 0 0 .4 0"/><feOffset dx="4.0" dy="4.0" in="blurOut2" result="blurOut3"/><feBlend in="SourceGraphic" in2="blurOut3" mode="normal"/></filter></defs><g><!--MD5=[6b5d2134b1718deef408d3baff1e0eed]
class CARS--><rect codeLine="2" fill="#FEFECE" filter="url(#f18obnho5t44jm)" height="48" id="CARS" style="stroke:#A80036;stroke-width:1.5;" width="63" x="12.0448" y="340"/><ellipse cx="27.0448" cy="356" fill="#ADD1B2" rx="11" ry="11" style="stroke:#A80036;stroke-width:1.0;"/><path d="M29.3885,351.6719 C28.451,351.2344 27.8573,351.0938 26.9823,351.0938 C24.3573,351.0938 22.3573,353.1719 22.3573,355.8906 L22.3573,357.0156 C22.3573,359.5938 24.4666,361.4844 27.3573,361.4844 C28.576,361.4844 29.7323,361.1875 30.4823,360.6406 C31.0604,360.2344 31.3885,359.7813 31.3885,359.3906 C31.3885,358.9375 30.9979,358.5469 30.5291,358.5469 C30.3104,358.5469 30.1073,358.625 29.9198,358.8125 C29.4666,359.2969 29.4666,359.2969 29.2791,359.3906 C28.8573,359.6563 28.1698,359.7813 27.4041,359.7813 C25.3573,359.7813 24.0604,358.6875 24.0604,356.9844 L24.0604,355.8906 C24.0604,354.1094 25.3104,352.7969 27.0448,352.7969 C27.6229,352.7969 28.2323,352.9531 28.701,353.2031 C29.1854,353.4844 29.3573,353.7031 29.451,354.1094 C29.5135,354.5156 29.5448,354.6406 29.6854,354.7656 C29.826,354.9063 30.0604,355.0156 30.2791,355.0156 C30.5448,355.0156 30.8104,354.875 30.9823,354.6563 C31.0916,354.5 31.1229,354.3125 31.1229,353.8906 L31.1229,352.4688 C31.1229,352.0313 31.1073,351.9063 31.0135,351.75 C30.8573,351.4844 30.576,351.3438 30.2791,351.3438 C29.9823,351.3438 29.7791,351.4375 29.5604,351.75 L29.3885,351.6719 Z " fill="#000000"/><text fill="#000000" font-family="sans-serif" font-size="12" lengthAdjust="spacing" textLength="31" x="41.0448" y="360.1543">CARS</text><line style="stroke:#A80036;stroke-width:1.5;" x1="13.0448" x2="74.0448" y1="372" y2="372"/><line style="stroke:#A80036;stroke-width:1.5;" x1="13.0448" x2="74.0448" y1="380" y2="380"/><!--MD5=[3e63a3587cfc3a4187c5476b2379735b]
class ParkingSite--><rect codeLine="3" fill="#FEFECE" filter="url(#f18obnho5t44jm)" height="60.8047" id="ParkingSite" style="stroke:#A80036;stroke-width:1.5;" width="101" x="261.0448" y="496.5"/><ellipse cx="276.0448" cy="512.5" fill="#ADD1B2" rx="11" ry="11" style="stroke:#A80036;stroke-width:1.0;"/><path d="M278.3885,508.1719 C277.451,507.7344 276.8573,507.5938 275.9823,507.5938 C273.3573,507.5938 271.3573,509.6719 271.3573,512.3906 L271.3573,513.5156 C271.3573,516.0938 273.4666,517.9844 276.3573,517.9844 C277.576,517.9844 278.7323,517.6875 279.4823,517.1406 C280.0604,516.7344 280.3885,516.2813 280.3885,515.8906 C280.3885,515.4375 279.9979,515.0469 279.5291,515.0469 C279.3104,515.0469 279.1073,515.125 278.9198,515.3125 C278.4666,515.7969 278.4666,515.7969 278.2791,515.8906 C277.8573,516.1563 277.1698,516.2813 276.4041,516.2813 C274.3573,516.2813 273.0604,515.1875 273.0604,513.4844 L273.0604,512.3906 C273.0604,510.6094 274.3104,509.2969 276.0448,509.2969 C276.6229,509.2969 277.2323,509.4531 277.701,509.7031 C278.1854,509.9844 278.3573,510.2031 278.451,510.6094 C278.5135,511.0156 278.5448,511.1406 278.6854,511.2656 C278.826,511.4063 279.0604,511.5156 279.2791,511.5156 C279.5448,511.5156 279.8104,511.375 279.9823,511.1563 C280.0916,511 280.1229,510.8125 280.1229,510.3906 L280.1229,508.9688 C280.1229,508.5313 280.1073,508.4063 280.0135,508.25 C279.8573,507.9844 279.576,507.8438 279.2791,507.8438 C278.9823,507.8438 278.7791,507.9375 278.5604,508.25 L278.3885,508.1719 Z " fill="#000000"/><text fill="#000000" font-family="sans-serif" font-size="12" lengthAdjust="spacing" textLength="69" x="290.0448" y="516.6543">Parking site</text><line style="stroke:#A80036;stroke-width:1.5;" x1="262.0448" x2="361.0448" y1="528.5" y2="528.5"/><ellipse cx="272.0448" cy="539.5" rx="3" ry="3" style="stroke:#038048;stroke-width:1.0;fill:none;"/><text fill="#000000" font-family="sans-serif" font-size="11" lengthAdjust="spacing" textLength="12" x="281.0448" y="542.7104">ID</text><line style="stroke:#A80036;stroke-width:1.5;" x1="262.0448" x2="361.0448" y1="549.3047" y2="549.3047"/><!--MD5=[0f39e4cb6f03951afbf6d14bd2505654]
class Address--><rect codeLine="4" fill="#FEFECE" filter="url(#f18obnho5t44jm)" height="86.4141" id="Address" style="stroke:#A80036;stroke-width:1.5;" width="83" x="270.0448" y="647"/><ellipse cx="285.0448" cy="663" fill="#ADD1B2" rx="11" ry="11" style="stroke:#A80036;stroke-width:1.0;"/><path d="M287.3885,658.6719 C286.451,658.2344 285.8573,658.0938 284.9823,658.0938 C282.3573,658.0938 280.3573,660.1719 280.3573,662.8906 L280.3573,664.0156 C280.3573,666.5938 282.4666,668.4844 285.3573,668.4844 C286.576,668.4844 287.7323,668.1875 288.4823,667.6406 C289.0604,667.2344 289.3885,666.7813 289.3885,666.3906 C289.3885,665.9375 288.9979,665.5469 288.5291,665.5469 C288.3104,665.5469 288.1073,665.625 287.9198,665.8125 C287.4666,666.2969 287.4666,666.2969 287.2791,666.3906 C286.8573,666.6563 286.1698,666.7813 285.4041,666.7813 C283.3573,666.7813 282.0604,665.6875 282.0604,663.9844 L282.0604,662.8906 C282.0604,661.1094 283.3104,659.7969 285.0448,659.7969 C285.6229,659.7969 286.2323,659.9531 286.701,660.2031 C287.1854,660.4844 287.3573,660.7031 287.451,661.1094 C287.5135,661.5156 287.5448,661.6406 287.6854,661.7656 C287.826,661.9063 288.0604,662.0156 288.2791,662.0156 C288.5448,662.0156 288.8104,661.875 288.9823,661.6563 C289.0916,661.5 289.1229,661.3125 289.1229,660.8906 L289.1229,659.4688 C289.1229,659.0313 289.1073,658.9063 289.0135,658.75 C288.8573,658.4844 288.576,658.3438 288.2791,658.3438 C287.9823,658.3438 287.7791,658.4375 287.5604,658.75 L287.3885,658.6719 Z " fill="#000000"/><text fill="#000000" font-family="sans-serif" font-size="12" lengthAdjust="spacing" textLength="51" x="299.0448" y="667.1543">Address</text><line style="stroke:#A80036;stroke-width:1.5;" x1="271.0448" x2="352.0448" y1="679" y2="679"/><ellipse cx="281.0448" cy="690" rx="3" ry="3" style="stroke:#038048;stroke-width:1.0;fill:none;"/><text fill="#000000" font-family="sans-serif" font-size="11" lengthAdjust="spacing" textLength="22" x="290.0448" y="693.2104">City</text><ellipse cx="281.0448" cy="702.8047" rx="3" ry="3" style="stroke:#038048;stroke-width:1.0;fill:none;"/><text fill="#000000" font-family="sans-serif" font-size="11" lengthAdjust="spacing" textLength="29" x="290.0448" y="706.0151">Type</text><ellipse cx="281.0448" cy="715.6094" rx="3" ry="3" style="stroke:#038048;stroke-width:1.0;fill:none;"/><text fill="#000000" font-family="sans-serif" font-size="11" lengthAdjust="spacing" textLength="34" x="290.0448" y="718.8198">Name</text><line style="stroke:#A80036;stroke-width:1.5;" x1="271.0448" x2="352.0448" y1="725.4141" y2="725.4141"/><!--MD5=[7421f545a0d8420c5bec41e74b387d9c]
class Employee--><rect codeLine="5" fill="#FEFECE" filter="url(#f18obnho5t44jm)" height="86.4141" id="Employee" style="stroke:#A80036;stroke-width:1.5;" width="92" x="122.5448" y="647"/><ellipse cx="137.5448" cy="663" fill="#ADD1B2" rx="11" ry="11" style="stroke:#A80036;stroke-width:1.0;"/><path d="M139.8885,658.6719 C138.951,658.2344 138.3573,658.0938 137.4823,658.0938 C134.8573,658.0938 132.8573,660.1719 132.8573,662.8906 L132.8573,664.0156 C132.8573,666.5938 134.9666,668.4844 137.8573,668.4844 C139.076,668.4844 140.2323,668.1875 140.9823,667.6406 C141.5604,667.2344 141.8885,666.7813 141.8885,666.3906 C141.8885,665.9375 141.4979,665.5469 141.0291,665.5469 C140.8104,665.5469 140.6073,665.625 140.4198,665.8125 C139.9666,666.2969 139.9666,666.2969 139.7791,666.3906 C139.3573,666.6563 138.6698,666.7813 137.9041,666.7813 C135.8573,666.7813 134.5604,665.6875 134.5604,663.9844 L134.5604,662.8906 C134.5604,661.1094 135.8104,659.7969 137.5448,659.7969 C138.1229,659.7969 138.7323,659.9531 139.201,660.2031 C139.6854,660.4844 139.8573,660.7031 139.951,661.1094 C140.0135,661.5156 140.0448,661.6406 140.1854,661.7656 C140.326,661.9063 140.5604,662.0156 140.7791,662.0156 C141.0448,662.0156 141.3104,661.875 141.4823,661.6563 C141.5916,661.5 141.6229,661.3125 141.6229,660.8906 L141.6229,659.4688 C141.6229,659.0313 141.6073,658.9063 141.5135,658.75 C141.3573,658.4844 141.076,658.3438 140.7791,658.3438 C140.4823,658.3438 140.2791,658.4375 140.0604,658.75 L139.8885,658.6719 Z " fill="#000000"/><text fill="#000000" font-family="sans-serif" font-size="12" lengthAdjust="spacing" textLength="60" x="151.5448" y="667.1543">Employee</text><line style="stroke:#A80036;stroke-width:1.5;" x1="123.5448" x2="213.5448" y1="679" y2="679"/><ellipse cx="133.5448" cy="690" rx="3" ry="3" style="stroke:#038048;stroke-width:1.0;fill:none;"/><text fill="#000000" font-family="sans-serif" font-size="11" lengthAdjust="spacing" textLength="12" x="142.5448" y="693.2104">ID</text><ellipse cx="133.5448" cy="702.8047" rx="3" ry="3" style="stroke:#038048;stroke-width:1.0;fill:none;"/><text fill="#000000" font-family="sans-serif" font-size="11" lengthAdjust="spacing" textLength="34" x="142.5448" y="706.0151">Name</text><ellipse cx="133.5448" cy="715.6094" rx="3" ry="3" style="stroke:#038048;stroke-width:1.0;fill:none;"/><text fill="#000000" font-family="sans-serif" font-size="11" lengthAdjust="spacing" textLength="52" x="142.5448" y="718.8198">Surname</text><line style="stroke:#A80036;stroke-width:1.5;" x1="123.5448" x2="213.5448" y1="725.4141" y2="725.4141"/><!--MD5=[3f0ef310aaa84a542276992c5216544d]
class Car--><rect codeLine="6" fill="#FEFECE" filter="url(#f18obnho5t44jm)" height="60.8047" id="Car" style="stroke:#A80036;stroke-width:1.5;" width="52" x="628.5448" y="659.5"/><ellipse cx="643.5448" cy="675.5" fill="#ADD1B2" rx="11" ry="11" style="stroke:#A80036;stroke-width:1.0;"/><path d="M645.8885,671.1719 C644.951,670.7344 644.3573,670.5938 643.4823,670.5938 C640.8573,670.5938 638.8573,672.6719 638.8573,675.3906 L638.8573,676.5156 C638.8573,679.0938 640.9666,680.9844 643.8573,680.9844 C645.076,680.9844 646.2323,680.6875 646.9823,680.1406 C647.5604,679.7344 647.8885,679.2813 647.8885,678.8906 C647.8885,678.4375 647.4979,678.0469 647.0291,678.0469 C646.8104,678.0469 646.6073,678.125 646.4198,678.3125 C645.9666,678.7969 645.9666,678.7969 645.7791,678.8906 C645.3573,679.1563 644.6698,679.2813 643.9041,679.2813 C641.8573,679.2813 640.5604,678.1875 640.5604,676.4844 L640.5604,675.3906 C640.5604,673.6094 641.8104,672.2969 643.5448,672.2969 C644.1229,672.2969 644.7323,672.4531 645.201,672.7031 C645.6854,672.9844 645.8573,673.2031 645.951,673.6094 C646.0135,674.0156 646.0448,674.1406 646.1854,674.2656 C646.326,674.4063 646.5604,674.5156 646.7791,674.5156 C647.0448,674.5156 647.3104,674.375 647.4823,674.1563 C647.5916,674 647.6229,673.8125 647.6229,673.3906 L647.6229,671.9688 C647.6229,671.5313 647.6073,671.4063 647.5135,671.25 C647.3573,670.9844 647.076,670.8438 646.7791,670.8438 C646.4823,670.8438 646.2791,670.9375 646.0604,671.25 L645.8885,671.1719 Z " fill="#000000"/><text fill="#000000" font-family="sans-serif" font-size="12" lengthAdjust="spacing" textLength="20" x="657.5448" y="679.6543">Car</text><line style="stroke:#A80036;stroke-width:1.5;" x1="629.5448" x2="679.5448" y1="691.5" y2="691.5"/><ellipse cx="639.5448" cy="702.5" rx="3" ry="3" style="stroke:#038048;stroke-width:1.0;fill:none;"/><text fill="#000000" font-family="sans-serif" font-size="11" lengthAdjust="spacing" textLength="21" x="648.5448" y="705.7104">Tag</text><line style="stroke:#A80036;stroke-width:1.5;" x1="629.5448" x2="679.5448" y1="712.3047" y2="712.3047"/><!--MD5=[590439ac31b017de7682903b3eb7025d]
class CarModel--><rect codeLine="7" fill="#FEFECE" filter="url(#f18obnho5t44jm)" height="86.4141" id="CarModel" style="stroke:#A80036;stroke-width:1.5;" width="121" x="498.0448" y="810"/><ellipse cx="525.6448" cy="826" fill="#ADD1B2" rx="11" ry="11" style="stroke:#A80036;stroke-width:1.0;"/><path d="M527.9885,821.6719 C527.051,821.2344 526.4573,821.0938 525.5823,821.0938 C522.9573,821.0938 520.9573,823.1719 520.9573,825.8906 L520.9573,827.0156 C520.9573,829.5938 523.0666,831.4844 525.9573,831.4844 C527.176,831.4844 528.3323,831.1875 529.0823,830.6406 C529.6604,830.2344 529.9885,829.7813 529.9885,829.3906 C529.9885,828.9375 529.5979,828.5469 529.1291,828.5469 C528.9104,828.5469 528.7073,828.625 528.5198,828.8125 C528.0666,829.2969 528.0666,829.2969 527.8791,829.3906 C527.4573,829.6563 526.7698,829.7813 526.0041,829.7813 C523.9573,829.7813 522.6604,828.6875 522.6604,826.9844 L522.6604,825.8906 C522.6604,824.1094 523.9104,822.7969 525.6448,822.7969 C526.2229,822.7969 526.8323,822.9531 527.301,823.2031 C527.7854,823.4844 527.9573,823.7031 528.051,824.1094 C528.1135,824.5156 528.1448,824.6406 528.2854,824.7656 C528.426,824.9063 528.6604,825.0156 528.8791,825.0156 C529.1448,825.0156 529.4104,824.875 529.5823,824.6563 C529.6916,824.5 529.7229,824.3125 529.7229,823.8906 L529.7229,822.4688 C529.7229,822.0313 529.7073,821.9063 529.6135,821.75 C529.4573,821.4844 529.176,821.3438 528.8791,821.3438 C528.5823,821.3438 528.3791,821.4375 528.1604,821.75 L527.9885,821.6719 Z " fill="#000000"/><text fill="#000000" font-family="sans-serif" font-size="12" lengthAdjust="spacing" textLength="61" x="542.4448" y="830.1543">Car Model</text><line style="stroke:#A80036;stroke-width:1.5;" x1="499.0448" x2="618.0448" y1="842" y2="842"/><ellipse cx="509.0448" cy="853" rx="3" ry="3" style="stroke:#038048;stroke-width:1.0;fill:none;"/><text fill="#000000" font-family="sans-serif" font-size="11" lengthAdjust="spacing" textLength="12" x="518.0448" y="856.2104">ID</text><ellipse cx="509.0448" cy="865.8047" rx="3" ry="3" style="stroke:#038048;stroke-width:1.0;fill:none;"/><text fill="#000000" font-family="sans-serif" font-size="11" lengthAdjust="spacing" textLength="29" x="518.0448" y="869.0151">Type</text><ellipse cx="509.0448" cy="878.6094" rx="3" ry="3" style="stroke:#038048;stroke-width:1.0;fill:none;"/><text fill="#000000" font-family="sans-serif" font-size="11" lengthAdjust="spacing" textLength="95" x="518.0448" y="881.8198">Number of seats</text><line style="stroke:#A80036;stroke-width:1.5;" x1="499.0448" x2="618.0448" y1="888.4141" y2="888.4141"/><!--MD5=[054f87937b19fa476c097d32744151b9]
class Insurer--><rect codeLine="27" fill="#FEFECE" filter="url(#f18obnho5t44jm)" height="73.6094" id="Insurer" style="stroke:#A80036;stroke-width:1.5;" width="74" x="819.5448" y="653"/><ellipse cx="834.5448" cy="669" fill="#ADD1B2" rx="11" ry="11" style="stroke:#A80036;stroke-width:1.0;"/><path d="M836.8885,664.6719 C835.951,664.2344 835.3573,664.0938 834.4823,664.0938 C831.8573,664.0938 829.8573,666.1719 829.8573,668.8906 L829.8573,670.0156 C829.8573,672.5938 831.9666,674.4844 834.8573,674.4844 C836.076,674.4844 837.2323,674.1875 837.9823,673.6406 C838.5604,673.2344 838.8885,672.7813 838.8885,672.3906 C838.8885,671.9375 838.4979,671.5469 838.0291,671.5469 C837.8104,671.5469 837.6073,671.625 837.4198,671.8125 C836.9666,672.2969 836.9666,672.2969 836.7791,672.3906 C836.3573,672.6563 835.6698,672.7813 834.9041,672.7813 C832.8573,672.7813 831.5604,671.6875 831.5604,669.9844 L831.5604,668.8906 C831.5604,667.1094 832.8104,665.7969 834.5448,665.7969 C835.1229,665.7969 835.7323,665.9531 836.201,666.2031 C836.6854,666.4844 836.8573,666.7031 836.951,667.1094 C837.0135,667.5156 837.0448,667.6406 837.1854,667.7656 C837.326,667.9063 837.5604,668.0156 837.7791,668.0156 C838.0448,668.0156 838.3104,667.875 838.4823,667.6563 C838.5916,667.5 838.6229,667.3125 838.6229,666.8906 L838.6229,665.4688 C838.6229,665.0313 838.6073,664.9063 838.5135,664.75 C838.3573,664.4844 838.076,664.3438 837.7791,664.3438 C837.4823,664.3438 837.2791,664.4375 837.0604,664.75 L836.8885,664.6719 Z " fill="#000000"/><text fill="#000000" font-family="sans-serif" font-size="12" lengthAdjust="spacing" textLength="42" x="848.5448" y="673.1543">Insurer</text><line style="stroke:#A80036;stroke-width:1.5;" x1="820.5448" x2="892.5448" y1="685" y2="685"/><ellipse cx="830.5448" cy="696" rx="3" ry="3" style="stroke:#038048;stroke-width:1.0;fill:none;"/><text fill="#000000" font-family="sans-serif" font-size="11" lengthAdjust="spacing" textLength="12" x="839.5448" y="699.2104">ID</text><ellipse cx="830.5448" cy="708.8047" rx="3" ry="3" style="stroke:#038048;stroke-width:1.0;fill:none;"/><text fill="#000000" font-family="sans-serif" font-size="11" lengthAdjust="spacing" textLength="34" x="839.5448" y="712.0151">Name</text><line style="stroke:#A80036;stroke-width:1.5;" x1="820.5448" x2="892.5448" y1="718.6094" y2="718.6094"/><!--MD5=[c447b73724e2937b40b9f78fc0fede8e]
class Insurance--><rect codeLine="28" fill="#FEFECE" filter="url(#f18obnho5t44jm)" height="60.8047" id="Insurance" style="stroke:#A80036;stroke-width:1.5;" width="90" x="768.5448" y="496.5"/><ellipse cx="783.5448" cy="512.5" fill="#ADD1B2" rx="11" ry="11" style="stroke:#A80036;stroke-width:1.0;"/><path d="M785.8885,508.1719 C784.951,507.7344 784.3573,507.5938 783.4823,507.5938 C780.8573,507.5938 778.8573,509.6719 778.8573,512.3906 L778.8573,513.5156 C778.8573,516.0938 780.9666,517.9844 783.8573,517.9844 C785.076,517.9844 786.2323,517.6875 786.9823,517.1406 C787.5604,516.7344 787.8885,516.2813 787.8885,515.8906 C787.8885,515.4375 787.4979,515.0469 787.0291,515.0469 C786.8104,515.0469 786.6073,515.125 786.4198,515.3125 C785.9666,515.7969 785.9666,515.7969 785.7791,515.8906 C785.3573,516.1563 784.6698,516.2813 783.9041,516.2813 C781.8573,516.2813 780.5604,515.1875 780.5604,513.4844 L780.5604,512.3906 C780.5604,510.6094 781.8104,509.2969 783.5448,509.2969 C784.1229,509.2969 784.7323,509.4531 785.201,509.7031 C785.6854,509.9844 785.8573,510.2031 785.951,510.6094 C786.0135,511.0156 786.0448,511.1406 786.1854,511.2656 C786.326,511.4063 786.5604,511.5156 786.7791,511.5156 C787.0448,511.5156 787.3104,511.375 787.4823,511.1563 C787.5916,511 787.6229,510.8125 787.6229,510.3906 L787.6229,508.9688 C787.6229,508.5313 787.6073,508.4063 787.5135,508.25 C787.3573,507.9844 787.076,507.8438 786.7791,507.8438 C786.4823,507.8438 786.2791,507.9375 786.0604,508.25 L785.8885,508.1719 Z " fill="#000000"/><text fill="#000000" font-family="sans-serif" font-size="12" lengthAdjust="spacing" textLength="58" x="797.5448" y="516.6543">Insurance</text><line style="stroke:#A80036;stroke-width:1.5;" x1="769.5448" x2="857.5448" y1="528.5" y2="528.5"/><ellipse cx="779.5448" cy="539.5" rx="3" ry="3" style="stroke:#038048;stroke-width:1.0;fill:none;"/><text fill="#000000" font-family="sans-serif" font-size="11" lengthAdjust="spacing" textLength="29" x="788.5448" y="542.7104">Type</text><line style="stroke:#A80036;stroke-width:1.5;" x1="769.5448" x2="857.5448" y1="549.3047" y2="549.3047"/><!--MD5=[2ce0c9fb7f55b1e256ab28a8ea6b25ec]
class Customer--><rect codeLine="36" fill="#FEFECE" filter="url(#f18obnho5t44jm)" height="86.4141" id="Customer" style="stroke:#A80036;stroke-width:1.5;" width="90" x="939.5448" y="484"/><ellipse cx="954.5448" cy="500" fill="#ADD1B2" rx="11" ry="11" style="stroke:#A80036;stroke-width:1.0;"/><path d="M956.8885,495.6719 C955.951,495.2344 955.3573,495.0938 954.4823,495.0938 C951.8573,495.0938 949.8573,497.1719 949.8573,499.8906 L949.8573,501.0156 C949.8573,503.5938 951.9666,505.4844 954.8573,505.4844 C956.076,505.4844 957.2323,505.1875 957.9823,504.6406 C958.5604,504.2344 958.8885,503.7813 958.8885,503.3906 C958.8885,502.9375 958.4979,502.5469 958.0291,502.5469 C957.8104,502.5469 957.6073,502.625 957.4198,502.8125 C956.9666,503.2969 956.9666,503.2969 956.7791,503.3906 C956.3573,503.6563 955.6698,503.7813 954.9041,503.7813 C952.8573,503.7813 951.5604,502.6875 951.5604,500.9844 L951.5604,499.8906 C951.5604,498.1094 952.8104,496.7969 954.5448,496.7969 C955.1229,496.7969 955.7323,496.9531 956.201,497.2031 C956.6854,497.4844 956.8573,497.7031 956.951,498.1094 C957.0135,498.5156 957.0448,498.6406 957.1854,498.7656 C957.326,498.9063 957.5604,499.0156 957.7791,499.0156 C958.0448,499.0156 958.3104,498.875 958.4823,498.6563 C958.5916,498.5 958.6229,498.3125 958.6229,497.8906 L958.6229,496.4688 C958.6229,496.0313 958.6073,495.9063 958.5135,495.75 C958.3573,495.4844 958.076,495.3438 957.7791,495.3438 C957.4823,495.3438 957.2791,495.4375 957.0604,495.75 L956.8885,495.6719 Z " fill="#000000"/><text fill="#000000" font-family="sans-serif" font-size="12" lengthAdjust="spacing" textLength="58" x="968.5448" y="504.1543">Customer</text><line style="stroke:#A80036;stroke-width:1.5;" x1="940.5448" x2="1028.5448" y1="516" y2="516"/><ellipse cx="950.5448" cy="527" rx="3" ry="3" style="stroke:#038048;stroke-width:1.0;fill:none;"/><text fill="#000000" font-family="sans-serif" font-size="11" lengthAdjust="spacing" textLength="24" x="959.5448" y="530.2104">SSN</text><ellipse cx="950.5448" cy="539.8047" rx="3" ry="3" style="stroke:#038048;stroke-width:1.0;fill:none;"/><text fill="#000000" font-family="sans-serif" font-size="11" lengthAdjust="spacing" textLength="34" x="959.5448" y="543.0151">Name</text><ellipse cx="950.5448" cy="552.6094" rx="3" ry="3" style="stroke:#038048;stroke-width:1.0;fill:none;"/><text fill="#000000" font-family="sans-serif" font-size="11" lengthAdjust="spacing" textLength="52" x="959.5448" y="555.8198">Surname</text><line style="stroke:#A80036;stroke-width:1.5;" x1="940.5448" x2="1028.5448" y1="562.4141" y2="562.4141"/><!--MD5=[5999a290c6b468e29c073bd2553f28d1]
class DriverLicense--><rect codeLine="37" fill="#FEFECE" filter="url(#f18obnho5t44jm)" height="73.6094" id="DriverLicense" style="stroke:#A80036;stroke-width:1.5;" width="116" x="1075.5448" y="653"/><ellipse cx="1090.5448" cy="669" fill="#ADD1B2" rx="11" ry="11" style="stroke:#A80036;stroke-width:1.0;"/><path d="M1092.8885,664.6719 C1091.951,664.2344 1091.3573,664.0938 1090.4823,664.0938 C1087.8573,664.0938 1085.8573,666.1719 1085.8573,668.8906 L1085.8573,670.0156 C1085.8573,672.5938 1087.9666,674.4844 1090.8573,674.4844 C1092.076,674.4844 1093.2323,674.1875 1093.9823,673.6406 C1094.5604,673.2344 1094.8885,672.7813 1094.8885,672.3906 C1094.8885,671.9375 1094.4979,671.5469 1094.0291,671.5469 C1093.8104,671.5469 1093.6073,671.625 1093.4198,671.8125 C1092.9666,672.2969 1092.9666,672.2969 1092.7791,672.3906 C1092.3573,672.6563 1091.6698,672.7813 1090.9041,672.7813 C1088.8573,672.7813 1087.5604,671.6875 1087.5604,669.9844 L1087.5604,668.8906 C1087.5604,667.1094 1088.8104,665.7969 1090.5448,665.7969 C1091.1229,665.7969 1091.7323,665.9531 1092.201,666.2031 C1092.6854,666.4844 1092.8573,666.7031 1092.951,667.1094 C1093.0135,667.5156 1093.0448,667.6406 1093.1854,667.7656 C1093.326,667.9063 1093.5604,668.0156 1093.7791,668.0156 C1094.0448,668.0156 1094.3104,667.875 1094.4823,667.6563 C1094.5916,667.5 1094.6229,667.3125 1094.6229,666.8906 L1094.6229,665.4688 C1094.6229,665.0313 1094.6073,664.9063 1094.5135,664.75 C1094.3573,664.4844 1094.076,664.3438 1093.7791,664.3438 C1093.4823,664.3438 1093.2791,664.4375 1093.0604,664.75 L1092.8885,664.6719 Z " fill="#000000"/><text fill="#000000" font-family="sans-serif" font-size="12" lengthAdjust="spacing" textLength="84" x="1104.5448" y="673.1543">Driver license</text><line style="stroke:#A80036;stroke-width:1.5;" x1="1076.5448" x2="1190.5448" y1="685" y2="685"/><ellipse cx="1086.5448" cy="696" rx="3" ry="3" style="stroke:#038048;stroke-width:1.0;fill:none;"/><text fill="#000000" font-family="sans-serif" font-size="11" lengthAdjust="spacing" textLength="12" x="1095.5448" y="699.2104">ID</text><ellipse cx="1086.5448" cy="708.8047" rx="3" ry="3" style="stroke:#038048;stroke-width:1.0;fill:none;"/><text fill="#000000" font-family="sans-serif" font-size="11" lengthAdjust="spacing" textLength="86" x="1095.5448" y="712.0151">Expiration date</text><line style="stroke:#A80036;stroke-width:1.5;" x1="1076.5448" x2="1190.5448" y1="718.6094" y2="718.6094"/><!--MD5=[91d4151b6d4c9a3d01b6d84b2458eece]
class CreditCard--><rect codeLine="38" fill="#FEFECE" filter="url(#f18obnho5t44jm)" height="73.6094" id="CreditCard" style="stroke:#A80036;stroke-width:1.5;" width="112" x="928.5448" y="653"/><ellipse cx="949.3948" cy="669" fill="#ADD1B2" rx="11" ry="11" style="stroke:#A80036;stroke-width:1.0;"/><path d="M951.7385,664.6719 C950.801,664.2344 950.2073,664.0938 949.3323,664.0938 C946.7073,664.0938 944.7073,666.1719 944.7073,668.8906 L944.7073,670.0156 C944.7073,672.5938 946.8166,674.4844 949.7073,674.4844 C950.926,674.4844 952.0823,674.1875 952.8323,673.6406 C953.4104,673.2344 953.7385,672.7813 953.7385,672.3906 C953.7385,671.9375 953.3479,671.5469 952.8791,671.5469 C952.6604,671.5469 952.4573,671.625 952.2698,671.8125 C951.8166,672.2969 951.8166,672.2969 951.6291,672.3906 C951.2073,672.6563 950.5198,672.7813 949.7541,672.7813 C947.7073,672.7813 946.4104,671.6875 946.4104,669.9844 L946.4104,668.8906 C946.4104,667.1094 947.6604,665.7969 949.3948,665.7969 C949.9729,665.7969 950.5823,665.9531 951.051,666.2031 C951.5354,666.4844 951.7073,666.7031 951.801,667.1094 C951.8635,667.5156 951.8948,667.6406 952.0354,667.7656 C952.176,667.9063 952.4104,668.0156 952.6291,668.0156 C952.8948,668.0156 953.1604,667.875 953.3323,667.6563 C953.4416,667.5 953.4729,667.3125 953.4729,666.8906 L953.4729,665.4688 C953.4729,665.0313 953.4573,664.9063 953.3635,664.75 C953.2073,664.4844 952.926,664.3438 952.6291,664.3438 C952.3323,664.3438 952.1291,664.4375 951.9104,664.75 L951.7385,664.6719 Z " fill="#000000"/><text fill="#000000" font-family="sans-serif" font-size="12" lengthAdjust="spacing" textLength="67" x="964.6948" y="673.1543">Credit card</text><line style="stroke:#A80036;stroke-width:1.5;" x1="929.5448" x2="1039.5448" y1="685" y2="685"/><ellipse cx="939.5448" cy="696" rx="3" ry="3" style="stroke:#038048;stroke-width:1.0;fill:none;"/><text fill="#000000" font-family="sans-serif" font-size="11" lengthAdjust="spacing" textLength="45" x="948.5448" y="699.2104">Number</text><ellipse cx="939.5448" cy="708.8047" rx="3" ry="3" style="stroke:#038048;stroke-width:1.0;fill:none;"/><text fill="#000000" font-family="sans-serif" font-size="11" lengthAdjust="spacing" textLength="86" x="948.5448" y="712.0151">Expiration date</text><line style="stroke:#A80036;stroke-width:1.5;" x1="929.5448" x2="1039.5448" y1="718.6094" y2="718.6094"/><!--MD5=[9c46470aa33a0c75e6d1dfdefc2f9c22]
class Reservation--><rect codeLine="50" fill="#FEFECE" filter="url(#f18obnho5t44jm)" height="73.6094" id="Reservation" style="stroke:#A80036;stroke-width:1.5;" width="103" x="467.0448" y="327"/><ellipse cx="482.0448" cy="343" fill="#ADD1B2" rx="11" ry="11" style="stroke:#A80036;stroke-width:1.0;"/><path d="M484.3885,338.6719 C483.451,338.2344 482.8573,338.0938 481.9823,338.0938 C479.3573,338.0938 477.3573,340.1719 477.3573,342.8906 L477.3573,344.0156 C477.3573,346.5938 479.4666,348.4844 482.3573,348.4844 C483.576,348.4844 484.7323,348.1875 485.4823,347.6406 C486.0604,347.2344 486.3885,346.7813 486.3885,346.3906 C486.3885,345.9375 485.9979,345.5469 485.5291,345.5469 C485.3104,345.5469 485.1073,345.625 484.9198,345.8125 C484.4666,346.2969 484.4666,346.2969 484.2791,346.3906 C483.8573,346.6563 483.1698,346.7813 482.4041,346.7813 C480.3573,346.7813 479.0604,345.6875 479.0604,343.9844 L479.0604,342.8906 C479.0604,341.1094 480.3104,339.7969 482.0448,339.7969 C482.6229,339.7969 483.2323,339.9531 483.701,340.2031 C484.1854,340.4844 484.3573,340.7031 484.451,341.1094 C484.5135,341.5156 484.5448,341.6406 484.6854,341.7656 C484.826,341.9063 485.0604,342.0156 485.2791,342.0156 C485.5448,342.0156 485.8104,341.875 485.9823,341.6563 C486.0916,341.5 486.1229,341.3125 486.1229,340.8906 L486.1229,339.4688 C486.1229,339.0313 486.1073,338.9063 486.0135,338.75 C485.8573,338.4844 485.576,338.3438 485.2791,338.3438 C484.9823,338.3438 484.7791,338.4375 484.5604,338.75 L484.3885,338.6719 Z " fill="#000000"/><text fill="#000000" font-family="sans-serif" font-size="12" lengthAdjust="spacing" textLength="71" x="496.0448" y="347.1543">Reservation</text><line style="stroke:#A80036;stroke-width:1.5;" x1="468.0448" x2="569.0448" y1="359" y2="359"/><ellipse cx="478.0448" cy="370" rx="3" ry="3" style="stroke:#038048;stroke-width:1.0;fill:none;"/><text fill="#000000" font-family="sans-serif" font-size="11" lengthAdjust="spacing" textLength="57" x="487.0448" y="373.2104">Start date</text><ellipse cx="478.0448" cy="382.8047" rx="3" ry="3" style="stroke:#038048;stroke-width:1.0;fill:none;"/><text fill="#000000" font-family="sans-serif" font-size="11" lengthAdjust="spacing" textLength="51" x="487.0448" y="386.0151">End date</text><line style="stroke:#A80036;stroke-width:1.5;" x1="468.0448" x2="569.0448" y1="392.6094" y2="392.6094"/><!--MD5=[461026a38b737c4ce5e8254b9a577e21]
class Contract--><rect codeLine="58" fill="#FEFECE" filter="url(#f18obnho5t44jm)" height="99.2188" id="Contract" style="stroke:#A80036;stroke-width:1.5;" width="147" x="688.0448" y="145"/><ellipse cx="732.2948" cy="161" fill="#ADD1B2" rx="11" ry="11" style="stroke:#A80036;stroke-width:1.0;"/><path d="M734.6385,156.6719 C733.701,156.2344 733.1073,156.0938 732.2323,156.0938 C729.6073,156.0938 727.6073,158.1719 727.6073,160.8906 L727.6073,162.0156 C727.6073,164.5938 729.7166,166.4844 732.6073,166.4844 C733.826,166.4844 734.9823,166.1875 735.7323,165.6406 C736.3104,165.2344 736.6385,164.7813 736.6385,164.3906 C736.6385,163.9375 736.2479,163.5469 735.7791,163.5469 C735.5604,163.5469 735.3573,163.625 735.1698,163.8125 C734.7166,164.2969 734.7166,164.2969 734.5291,164.3906 C734.1073,164.6563 733.4198,164.7813 732.6541,164.7813 C730.6073,164.7813 729.3104,163.6875 729.3104,161.9844 L729.3104,160.8906 C729.3104,159.1094 730.5604,157.7969 732.2948,157.7969 C732.8729,157.7969 733.4823,157.9531 733.951,158.2031 C734.4354,158.4844 734.6073,158.7031 734.701,159.1094 C734.7635,159.5156 734.7948,159.6406 734.9354,159.7656 C735.076,159.9063 735.3104,160.0156 735.5291,160.0156 C735.7948,160.0156 736.0604,159.875 736.2323,159.6563 C736.3416,159.5 736.3729,159.3125 736.3729,158.8906 L736.3729,157.4688 C736.3729,157.0313 736.3573,156.9063 736.2635,156.75 C736.1073,156.4844 735.826,156.3438 735.5291,156.3438 C735.2323,156.3438 735.0291,156.4375 734.8104,156.75 L734.6385,156.6719 Z " fill="#000000"/><text fill="#000000" font-family="sans-serif" font-size="12" lengthAdjust="spacing" textLength="50" x="752.7948" y="165.1543">Contract</text><line style="stroke:#A80036;stroke-width:1.5;" x1="689.0448" x2="834.0448" y1="177" y2="177"/><ellipse cx="699.0448" cy="188" rx="3" ry="3" style="stroke:#038048;stroke-width:1.0;fill:none;"/><text fill="#000000" font-family="sans-serif" font-size="11" lengthAdjust="spacing" textLength="12" x="708.0448" y="191.2104">ID</text><ellipse cx="699.0448" cy="200.8047" rx="3" ry="3" style="stroke:#038048;stroke-width:1.0;fill:none;"/><text fill="#000000" font-family="sans-serif" font-size="11" lengthAdjust="spacing" textLength="57" x="708.0448" y="204.0151">Start date</text><ellipse cx="699.0448" cy="213.6094" rx="3" ry="3" style="stroke:#038048;stroke-width:1.0;fill:none;"/><text fill="#000000" font-family="sans-serif" font-size="11" lengthAdjust="spacing" textLength="51" x="708.0448" y="216.8198">End date</text><ellipse cx="699.0448" cy="226.4141" rx="3" ry="3" style="stroke:#038048;stroke-width:1.0;fill:none;"/><text fill="#000000" font-family="sans-serif" font-size="11" lengthAdjust="spacing" textLength="121" x="708.0448" y="229.6245">Customer's signature</text><line style="stroke:#A80036;stroke-width:1.5;" x1="689.0448" x2="834.0448" y1="236.2188" y2="236.2188"/><!--MD5=[764fca796ce7f635542948d8fc39db5e]
class Payment--><rect codeLine="59" fill="#FEFECE" filter="url(#f18obnho5t44jm)" height="86.4141" id="Payment" style="stroke:#A80036;stroke-width:1.5;" width="121" x="864.0448" y="321"/><ellipse cx="896.5948" cy="337" fill="#ADD1B2" rx="11" ry="11" style="stroke:#A80036;stroke-width:1.0;"/><path d="M898.9385,332.6719 C898.001,332.2344 897.4073,332.0938 896.5323,332.0938 C893.9073,332.0938 891.9073,334.1719 891.9073,336.8906 L891.9073,338.0156 C891.9073,340.5938 894.0166,342.4844 896.9073,342.4844 C898.126,342.4844 899.2823,342.1875 900.0323,341.6406 C900.6104,341.2344 900.9385,340.7813 900.9385,340.3906 C900.9385,339.9375 900.5479,339.5469 900.0791,339.5469 C899.8604,339.5469 899.6573,339.625 899.4698,339.8125 C899.0166,340.2969 899.0166,340.2969 898.8291,340.3906 C898.4073,340.6563 897.7198,340.7813 896.9541,340.7813 C894.9073,340.7813 893.6104,339.6875 893.6104,337.9844 L893.6104,336.8906 C893.6104,335.1094 894.8604,333.7969 896.5948,333.7969 C897.1729,333.7969 897.7823,333.9531 898.251,334.2031 C898.7354,334.4844 898.9073,334.7031 899.001,335.1094 C899.0635,335.5156 899.0948,335.6406 899.2354,335.7656 C899.376,335.9063 899.6104,336.0156 899.8291,336.0156 C900.0948,336.0156 900.3604,335.875 900.5323,335.6563 C900.6416,335.5 900.6729,335.3125 900.6729,334.8906 L900.6729,333.4688 C900.6729,333.0313 900.6573,332.9063 900.5635,332.75 C900.4073,332.4844 900.126,332.3438 899.8291,332.3438 C899.5323,332.3438 899.3291,332.4375 899.1104,332.75 L898.9385,332.6719 Z " fill="#000000"/><text fill="#000000" font-family="sans-serif" font-size="12" lengthAdjust="spacing" textLength="50" x="914.4948" y="341.1543">Payment</text><line style="stroke:#A80036;stroke-width:1.5;" x1="865.0448" x2="984.0448" y1="353" y2="353"/><ellipse cx="875.0448" cy="364" rx="3" ry="3" style="stroke:#038048;stroke-width:1.0;fill:none;"/><text fill="#000000" font-family="sans-serif" font-size="11" lengthAdjust="spacing" textLength="95" x="884.0448" y="367.2104">Damage deposit</text><ellipse cx="875.0448" cy="376.8047" rx="3" ry="3" style="stroke:#038048;stroke-width:1.0;fill:none;"/><text fill="#000000" font-family="sans-serif" font-size="11" lengthAdjust="spacing" textLength="58" x="884.0448" y="380.0151">Partial fee</text><ellipse cx="875.0448" cy="389.6094" rx="3" ry="3" style="stroke:#038048;stroke-width:1.0;fill:none;"/><text fill="#000000" font-family="sans-serif" font-size="11" lengthAdjust="spacing" textLength="52" x="884.0448" y="392.8198">Total fee</text><line style="stroke:#A80036;stroke-width:1.5;" x1="865.0448" x2="984.0448" y1="399.4141" y2="399.4141"/><!--MD5=[75ec85fc313fa75958b62cd1fc2ce9f6]
class Checkout--><rect codeLine="73" fill="#FEFECE" filter="url(#f18obnho5t44jm)" height="60.8047" id="Checkout" style="stroke:#A80036;stroke-width:1.5;" width="147" x="904.0448" y="7"/><ellipse cx="943.3448" cy="23" fill="#ADD1B2" rx="11" ry="11" style="stroke:#A80036;stroke-width:1.0;"/><path d="M945.6885,18.6719 C944.751,18.2344 944.1573,18.0938 943.2823,18.0938 C940.6573,18.0938 938.6573,20.1719 938.6573,22.8906 L938.6573,24.0156 C938.6573,26.5938 940.7666,28.4844 943.6573,28.4844 C944.876,28.4844 946.0323,28.1875 946.7823,27.6406 C947.3604,27.2344 947.6885,26.7813 947.6885,26.3906 C947.6885,25.9375 947.2979,25.5469 946.8291,25.5469 C946.6104,25.5469 946.4073,25.625 946.2198,25.8125 C945.7666,26.2969 945.7666,26.2969 945.5791,26.3906 C945.1573,26.6563 944.4698,26.7813 943.7041,26.7813 C941.6573,26.7813 940.3604,25.6875 940.3604,23.9844 L940.3604,22.8906 C940.3604,21.1094 941.6104,19.7969 943.3448,19.7969 C943.9229,19.7969 944.5323,19.9531 945.001,20.2031 C945.4854,20.4844 945.6573,20.7031 945.751,21.1094 C945.8135,21.5156 945.8448,21.6406 945.9854,21.7656 C946.126,21.9063 946.3604,22.0156 946.5791,22.0156 C946.8448,22.0156 947.1104,21.875 947.2823,21.6563 C947.3916,21.5 947.4229,21.3125 947.4229,20.8906 L947.4229,19.4688 C947.4229,19.0313 947.4073,18.9063 947.3135,18.75 C947.1573,18.4844 946.876,18.3438 946.5791,18.3438 C946.2823,18.3438 946.0791,18.4375 945.8604,18.75 L945.6885,18.6719 Z " fill="#000000"/><text fill="#000000" font-family="sans-serif" font-size="12" lengthAdjust="spacing" textLength="61" x="962.7448" y="27.1543">Check-out</text><line style="stroke:#A80036;stroke-width:1.5;" x1="905.0448" x2="1050.0448" y1="39" y2="39"/><ellipse cx="915.0448" cy="50" rx="3" ry="3" style="stroke:#038048;stroke-width:1.0;fill:none;"/><text fill="#000000" font-family="sans-serif" font-size="11" lengthAdjust="spacing" textLength="121" x="924.0448" y="53.2104">Customer's signature</text><line style="stroke:#A80036;stroke-width:1.5;" x1="905.0448" x2="1050.0448" y1="59.8047" y2="59.8047"/><!--MD5=[e1ae6f2cea02e276685729daa4ac67c0]
class Damage--><rect codeLine="74" fill="#FEFECE" filter="url(#f18obnho5t44jm)" height="60.8047" id="Damage" style="stroke:#A80036;stroke-width:1.5;" width="90" x="1182.5448" y="164"/><ellipse cx="1201.1448" cy="180" fill="#ADD1B2" rx="11" ry="11" style="stroke:#A80036;stroke-width:1.0;"/><path d="M1203.4885,175.6719 C1202.551,175.2344 1201.9573,175.0938 1201.0823,175.0938 C1198.4573,175.0938 1196.4573,177.1719 1196.4573,179.8906 L1196.4573,181.0156 C1196.4573,183.5938 1198.5666,185.4844 1201.4573,185.4844 C1202.676,185.4844 1203.8323,185.1875 1204.5823,184.6406 C1205.1604,184.2344 1205.4885,183.7813 1205.4885,183.3906 C1205.4885,182.9375 1205.0979,182.5469 1204.6291,182.5469 C1204.4104,182.5469 1204.2073,182.625 1204.0198,182.8125 C1203.5666,183.2969 1203.5666,183.2969 1203.3791,183.3906 C1202.9573,183.6563 1202.2698,183.7813 1201.5041,183.7813 C1199.4573,183.7813 1198.1604,182.6875 1198.1604,180.9844 L1198.1604,179.8906 C1198.1604,178.1094 1199.4104,176.7969 1201.1448,176.7969 C1201.7229,176.7969 1202.3323,176.9531 1202.801,177.2031 C1203.2854,177.4844 1203.4573,177.7031 1203.551,178.1094 C1203.6135,178.5156 1203.6448,178.6406 1203.7854,178.7656 C1203.926,178.9063 1204.1604,179.0156 1204.3791,179.0156 C1204.6448,179.0156 1204.9104,178.875 1205.0823,178.6563 C1205.1916,178.5 1205.2229,178.3125 1205.2229,177.8906 L1205.2229,176.4688 C1205.2229,176.0313 1205.2073,175.9063 1205.1135,175.75 C1204.9573,175.4844 1204.676,175.3438 1204.3791,175.3438 C1204.0823,175.3438 1203.8791,175.4375 1203.6604,175.75 L1203.4885,175.6719 Z " fill="#000000"/><text fill="#000000" font-family="sans-serif" font-size="12" lengthAdjust="spacing" textLength="50" x="1215.9448" y="184.1543">Damage</text><line style="stroke:#A80036;stroke-width:1.5;" x1="1183.5448" x2="1271.5448" y1="196" y2="196"/><ellipse cx="1193.5448" cy="207" rx="3" ry="3" style="stroke:#038048;stroke-width:1.0;fill:none;"/><text fill="#000000" font-family="sans-serif" font-size="11" lengthAdjust="spacing" textLength="64" x="1202.5448" y="210.2104">Description</text><line style="stroke:#A80036;stroke-width:1.5;" x1="1183.5448" x2="1271.5448" y1="216.8047" y2="216.8047"/><!--MD5=[3d3777765217820a0428eaf6fa50d184]
class Checkin--><rect codeLine="83" fill="#FEFECE" filter="url(#f18obnho5t44jm)" height="60.8047" id="Checkin" style="stroke:#A80036;stroke-width:1.5;" width="84" x="1204.5448" y="7"/><ellipse cx="1219.5448" cy="23" fill="#ADD1B2" rx="11" ry="11" style="stroke:#A80036;stroke-width:1.0;"/><path d="M1221.8885,18.6719 C1220.951,18.2344 1220.3573,18.0938 1219.4823,18.0938 C1216.8573,18.0938 1214.8573,20.1719 1214.8573,22.8906 L1214.8573,24.0156 C1214.8573,26.5938 1216.9666,28.4844 1219.8573,28.4844 C1221.076,28.4844 1222.2323,28.1875 1222.9823,27.6406 C1223.5604,27.2344 1223.8885,26.7813 1223.8885,26.3906 C1223.8885,25.9375 1223.4979,25.5469 1223.0291,25.5469 C1222.8104,25.5469 1222.6073,25.625 1222.4198,25.8125 C1221.9666,26.2969 1221.9666,26.2969 1221.7791,26.3906 C1221.3573,26.6563 1220.6698,26.7813 1219.9041,26.7813 C1217.8573,26.7813 1216.5604,25.6875 1216.5604,23.9844 L1216.5604,22.8906 C1216.5604,21.1094 1217.8104,19.7969 1219.5448,19.7969 C1220.1229,19.7969 1220.7323,19.9531 1221.201,20.2031 C1221.6854,20.4844 1221.8573,20.7031 1221.951,21.1094 C1222.0135,21.5156 1222.0448,21.6406 1222.1854,21.7656 C1222.326,21.9063 1222.5604,22.0156 1222.7791,22.0156 C1223.0448,22.0156 1223.3104,21.875 1223.4823,21.6563 C1223.5916,21.5 1223.6229,21.3125 1223.6229,20.8906 L1223.6229,19.4688 C1223.6229,19.0313 1223.6073,18.9063 1223.5135,18.75 C1223.3573,18.4844 1223.076,18.3438 1222.7791,18.3438 C1222.4823,18.3438 1222.2791,18.4375 1222.0604,18.75 L1221.8885,18.6719 Z " fill="#000000"/><text fill="#000000" font-family="sans-serif" font-size="12" lengthAdjust="spacing" textLength="52" x="1233.5448" y="27.1543">Check-in</text><line style="stroke:#A80036;stroke-width:1.5;" x1="1205.5448" x2="1287.5448" y1="39" y2="39"/><ellipse cx="1215.5448" cy="50" rx="3" ry="3" style="stroke:#038048;stroke-width:1.0;fill:none;"/><text fill="#000000" font-family="sans-serif" font-size="11" lengthAdjust="spacing" textLength="51" x="1224.5448" y="53.2104">End date</text><line style="stroke:#A80036;stroke-width:1.5;" x1="1205.5448" x2="1287.5448" y1="59.8047" y2="59.8047"/><!--MD5=[894442645724153f40a9f7a43026dbfc]
class Invoice--><rect codeLine="89" fill="#FEFECE" filter="url(#f18obnho5t44jm)" height="60.8047" id="Invoice" style="stroke:#A80036;stroke-width:1.5;" width="75" x="896.0448" y="164"/><ellipse cx="911.0448" cy="180" fill="#ADD1B2" rx="11" ry="11" style="stroke:#A80036;stroke-width:1.0;"/><path d="M913.3885,175.6719 C912.451,175.2344 911.8573,175.0938 910.9823,175.0938 C908.3573,175.0938 906.3573,177.1719 906.3573,179.8906 L906.3573,181.0156 C906.3573,183.5938 908.4666,185.4844 911.3573,185.4844 C912.576,185.4844 913.7323,185.1875 914.4823,184.6406 C915.0604,184.2344 915.3885,183.7813 915.3885,183.3906 C915.3885,182.9375 914.9979,182.5469 914.5291,182.5469 C914.3104,182.5469 914.1073,182.625 913.9198,182.8125 C913.4666,183.2969 913.4666,183.2969 913.2791,183.3906 C912.8573,183.6563 912.1698,183.7813 911.4041,183.7813 C909.3573,183.7813 908.0604,182.6875 908.0604,180.9844 L908.0604,179.8906 C908.0604,178.1094 909.3104,176.7969 911.0448,176.7969 C911.6229,176.7969 912.2323,176.9531 912.701,177.2031 C913.1854,177.4844 913.3573,177.7031 913.451,178.1094 C913.5135,178.5156 913.5448,178.6406 913.6854,178.7656 C913.826,178.9063 914.0604,179.0156 914.2791,179.0156 C914.5448,179.0156 914.8104,178.875 914.9823,178.6563 C915.0916,178.5 915.1229,178.3125 915.1229,177.8906 L915.1229,176.4688 C915.1229,176.0313 915.1073,175.9063 915.0135,175.75 C914.8573,175.4844 914.576,175.3438 914.2791,175.3438 C913.9823,175.3438 913.7791,175.4375 913.5604,175.75 L913.3885,175.6719 Z " fill="#000000"/><text fill="#000000" font-family="sans-serif" font-size="12" lengthAdjust="spacing" textLength="43" x="925.0448" y="184.1543">Invoice</text><line style="stroke:#A80036;stroke-width:1.5;" x1="897.0448" x2="970.0448" y1="196" y2="196"/><ellipse cx="907.0448" cy="207" rx="3" ry="3" style="stroke:#038048;stroke-width:1.0;fill:none;"/><text fill="#000000" font-family="sans-serif" font-size="11" lengthAdjust="spacing" textLength="12" x="916.0448" y="210.2104">ID</text><line style="stroke:#A80036;stroke-width:1.5;" x1="897.0448" x2="970.0448" y1="216.8047" y2="216.8047"/><!--MD5=[3f2200ee59b7ff328547c16fcaa82aaa]
reverse link CARS to ParkingSite--><path codeLine="8" d="M85.4042,395.578 C91.1042,399.511 96.9261,403.413 102.5448,407 C155.3378,440.699 218.0178,475.762 260.8748,499.021 " fill="none" id="CARS-backto-ParkingSite" style="stroke:#A80036;stroke-width:1.0;"/><polygon fill="#FFFFFF" points="74.6789,388.05,77.2917,394.7711,84.5008,394.9442,81.8879,388.2231,74.6789,388.05" style="stroke:#A80036;stroke-width:1.0;"/><text fill="#000000" font-family="sans-serif" font-size="13" lengthAdjust="spacing" textLength="7" x="245.9185" y="490.901">*</text><!--MD5=[d37b3934b94f6a41b3abc66745ff87de]
link CARS to CarModel--><path codeLine="9" d="M38.9933,388.275 C27.7027,453.653 6,640.218 104.5448,733 C161.4227,786.552 387.8048,826.6438 497.8558,843.3949 " fill="none" id="CARS-CarModel" style="stroke:#A80036;stroke-width:1.0;"/><polygon fill="#000000" points="50.0947,612.0874,45.7424,603.6312,41.6031,607.8045,50.0947,612.0874" style="stroke:#000000;stroke-width:1.0;"/><text fill="#000000" font-family="sans-serif" font-size="13" lengthAdjust="spacing" textLength="38" x="55.5448" y="613.0669">offers</text><text fill="#000000" font-family="sans-serif" font-size="13" lengthAdjust="spacing" textLength="7" x="483.0327" y="838.36">*</text><!--MD5=[0bb5ecd22f769035943466e1f175b6da]
link ParkingSite to Car--><path codeLine="10" d="M343.9388,557.809 C366.1118,576.914 396.9368,601.034 427.5448,617 C495.7278,652.565 584.6638,674.458 628.2028,683.772 " fill="none" id="ParkingSite-Car" style="stroke:#A80036;stroke-width:1.0;"/><polygon fill="#000000" points="427.9734,606.5408,435.0524,612.8921,437.4336,607.5182,427.9734,606.5408" style="stroke:#000000;stroke-width:1.0;"/><text fill="#000000" font-family="sans-serif" font-size="13" lengthAdjust="spacing" textLength="73" x="441.5448" y="613.0669">is parked in</text><text fill="#000000" font-family="sans-serif" font-size="13" lengthAdjust="spacing" textLength="7" x="613.5557" y="677.3631">*</text><!--MD5=[02420b91ed6c226998eeb0f6ab29d826]
link ParkingSite to Employee--><path codeLine="11" d="M275.8318,557.71 C261.7178,570.161 245.7498,585.172 232.5448,600 C219.6348,614.497 206.8517,631.57 196.1448,646.866 " fill="none" id="ParkingSite-Employee" style="stroke:#A80036;stroke-width:1.0;"/><polygon fill="#000000" points="240.8768,604.8385,232.6579,609.6239,237.0403,613.5409,240.8768,604.8385" style="stroke:#000000;stroke-width:1.0;"/><text fill="#000000" font-family="sans-serif" font-size="13" lengthAdjust="spacing" textLength="53" x="246.5448" y="613.0669">works in</text><text fill="#000000" font-family="sans-serif" font-size="13" lengthAdjust="spacing" textLength="7" x="192.9857" y="635.8407">*</text><!--MD5=[5bfc8a85a28873f5396f08cff86728d7]
link ParkingSite to Address--><path codeLine="12" d="M310.0258,557.767 C309.4368,570.736 308.8338,586.116 308.5448,600 C308.2258,615.302 308.6028,632.079 309.1838,646.902 " fill="none" id="ParkingSite-Address" style="stroke:#A80036;stroke-width:1.0;"/><polygon fill="#000000" points="313.4975,613.5662,316.5218,604.5493,310.6442,604.4937,313.4975,613.5662" style="stroke:#000000;stroke-width:1.0;"/><text fill="#000000" font-family="sans-serif" font-size="13" lengthAdjust="spacing" textLength="64" x="322.5448" y="613.0669">located at</text><!--MD5=[b93b373ada3841d2c88bbb890cab4936]
link Car to CarModel--><path codeLine="13" d="M636.9368,720.53 C621.9968,745.585 600.3848,781.831 583.6348,809.9226 " fill="none" id="Car-CarModel" style="stroke:#A80036;stroke-width:1.0;"/><polygon fill="#000000" points="617.1054,767.2719,609.9489,773.5356,614.9974,776.5459,617.1054,767.2719" style="stroke:#000000;stroke-width:1.0;"/><text fill="#000000" font-family="sans-serif" font-size="13" lengthAdjust="spacing" textLength="61" x="623.5448" y="776.0669">describes</text><text fill="#000000" font-family="sans-serif" font-size="13" lengthAdjust="spacing" textLength="7" x="625.5832" y="740.4744">*</text><!--MD5=[f1f9b6f25047388ffbf25aa240c8f3fd]
link Insurance to Insurer--><path codeLine="29" d="M821.4318,557.53 C828.6088,584.401 839.2228,624.143 846.9018,652.894 " fill="none" id="Insurance-Insurer" style="stroke:#A80036;stroke-width:1.0;"/><polygon fill="#000000" points="840.2546,603.7357,839.7491,613.2329,845.4279,611.7162,840.2546,603.7357" style="stroke:#000000;stroke-width:1.0;"/><text fill="#000000" font-family="sans-serif" font-size="13" lengthAdjust="spacing" textLength="55" x="850.5448" y="613.0669">provides</text><text fill="#000000" font-family="sans-serif" font-size="13" lengthAdjust="spacing" textLength="7" x="815.3366" y="577.4744">*</text><!--MD5=[6c30fed22086064e70b0965e3cf6793a]
link Insurance to Car--><path codeLine="30" d="M782.6948,557.526 C769.3208,570.452 753.5488,585.866 739.5448,600 C719.5448,620.187 697.3828,643.421 680.7048,661.087 " fill="none" id="Insurance-Car" style="stroke:#A80036;stroke-width:1.0;"/><polygon fill="#000000" points="748.0532,605.004,739.6124,609.3863,743.8003,613.5107,748.0532,605.004" style="stroke:#000000;stroke-width:1.0;"/><text fill="#000000" font-family="sans-serif" font-size="13" lengthAdjust="spacing" textLength="72" x="753.5448" y="613.0669">covered by</text><text fill="#000000" font-family="sans-serif" font-size="13" lengthAdjust="spacing" textLength="7" x="768.6101" y="577.4696">*</text><!--MD5=[aeaf9200cbaa7c7c08444b4bc8b3369b]
link Customer to DriverLicense--><path codeLine="39" d="M1023.6948,570.301 C1047.4948,596.015 1077.5548,628.499 1100.2148,652.981 " fill="none" id="Customer-DriverLicense" style="stroke:#A80036;stroke-width:1.0;"/><!--MD5=[64f0e157b9264e99419c5f82d7e84fb1]
link Customer to CreditCard--><path codeLine="40" d="M984.5448,570.301 C984.5448,596.015 984.5448,628.499 984.5448,652.981 " fill="none" id="Customer-CreditCard" style="stroke:#A80036;stroke-width:1.0;"/><!--MD5=[084ed435efc901fd8b74a4436d3ced04]
link Reservation to Customer--><path codeLine="51" d="M525.3048,401.359 C530.7568,420.137 540.4558,441.646 557.5448,454 C615.0688,495.584 806.4488,467.754 875.5448,484 C897.0628,489.059 920.0178,497.425 939.2848,505.363 " fill="none" id="Reservation-Customer" style="stroke:#A80036;stroke-width:1.0;"/><polygon fill="#000000" points="557.6954,444.3481,565.7518,449.4024,567.184,443.7017,557.6954,444.3481" style="stroke:#000000;stroke-width:1.0;"/><text fill="#000000" font-family="sans-serif" font-size="13" lengthAdjust="spacing" textLength="56" x="571.5448" y="450.0669">reserves</text><text fill="#000000" font-family="sans-serif" font-size="13" lengthAdjust="spacing" textLength="7" x="526.9399" y="420.617">*</text><!--MD5=[ce698a0348dacea28d201157393cc2b9]
link Reservation to CarModel--><path codeLine="52" d="M521.5188,401.206 C528.7698,489.491 547.3328,715.489 555.0738,809.7353 " fill="none" id="Reservation-CarModel" style="stroke:#A80036;stroke-width:1.0;"/><polygon fill="#000000" points="544.9541,613.5496,547.1427,604.2943,541.2846,604.7755,544.9541,613.5496" style="stroke:#000000;stroke-width:1.0;"/><text fill="#000000" font-family="sans-serif" font-size="13" lengthAdjust="spacing" textLength="56" x="553.5448" y="613.0669">reserves</text><text fill="#000000" font-family="sans-serif" font-size="13" lengthAdjust="spacing" textLength="7" x="514.4316" y="420.7207">*</text><!--MD5=[8d214d3d4a9e4def63bd9bb76b5ebc50]
link Reservation to ParkingSite--><path codeLine="53" d="M466.9428,398.159 C449.3468,409.96 429.7748,423.642 412.5448,437 C388.3488,455.759 362.4688,478.625 342.9638,496.482 " fill="none" id="Reservation-ParkingSite" style="stroke:#A80036;stroke-width:1.0;"/><polygon fill="#000000" points="413.6272,448.6733,422.5403,445.3556,418.888,440.7502,413.6272,448.6733" style="stroke:#000000;stroke-width:1.0;"/><text fill="#000000" font-family="sans-serif" font-size="13" lengthAdjust="spacing" textLength="49" x="426.5448" y="450.0669">car is in</text><text fill="#000000" font-family="sans-serif" font-size="13" lengthAdjust="spacing" textLength="7" x="452.194" y="399.0116">*</text><!--MD5=[6a0c816ed4225dd335dfd1cbbe9e3505]
link Contract to Customer--><path codeLine="60" d="M759.3138,244.071 C759.5428,289.775 766.1108,358.286 798.5448,407 C832.3258,457.736 895.8948,491.353 939.2188,509.545 " fill="none" id="Contract-Customer" style="stroke:#A80036;stroke-width:1.0;"/><polygon fill="#000000" points="800.7398,359.9273,803.3811,369.0637,808.2469,365.7663,800.7398,359.9273" style="stroke:#000000;stroke-width:1.0;"/><text fill="#000000" font-family="sans-serif" font-size="13" lengthAdjust="spacing" textLength="33" x="812.5448" y="368.5669">signs</text><text fill="#000000" font-family="sans-serif" font-size="13" lengthAdjust="spacing" textLength="7" x="751.5078" y="264.1575">*</text><!--MD5=[6cca602e54c50fadc946652a0977bbb7]
link Contract to Reservation--><path codeLine="61" d="M687.8038,211.764 C647.8878,223.6 599.8708,243.099 565.5448,274 C549.8308,288.146 538.4718,308.802 530.8608,326.655 " fill="none" id="Contract-Reservation" style="stroke:#A80036;stroke-width:1.0;"/><polygon fill="#000000" points="566.5103,285.5199,575.5447,282.5484,572.0727,277.8056,566.5103,285.5199" style="stroke:#000000;stroke-width:1.0;"/><text fill="#000000" font-family="sans-serif" font-size="13" lengthAdjust="spacing" textLength="65" x="579.5448" y="287.0669">relative to</text><text fill="#000000" font-family="sans-serif" font-size="13" lengthAdjust="spacing" textLength="24" x="656.1674" y="209.6967">0..1</text><text fill="#000000" font-family="sans-serif" font-size="13" lengthAdjust="spacing" textLength="24" x="506.9151" y="316.0591">0..1</text><!--MD5=[5e2df4cf7bf621eb2ca0886e3295825c]
link Contract to Payment--><path codeLine="62" d="M786.4908,244.39 C795.9078,260.257 807.5308,277.289 820.5448,291 C833.2438,304.379 848.8068,316.73 863.9868,327.288 " fill="none" id="Contract-Payment" style="stroke:#A80036;stroke-width:1.0;"/><polygon fill="#000000" points="828.9593,286.2189,824.9293,277.6044,820.6354,281.6184,828.9593,286.2189" style="stroke:#000000;stroke-width:1.0;"/><text fill="#000000" font-family="sans-serif" font-size="13" lengthAdjust="spacing" textLength="85" x="834.5448" y="287.0669">has payment</text><!--MD5=[4db1fbb6b43538619851b0dccb8e0bba]
link Contract to Car--><path codeLine="63" d="M750.9928,244.169 C729.0068,345.571 678.8568,576.87 661.0028,659.213 " fill="none" id="Contract-Car" style="stroke:#A80036;stroke-width:1.0;"/><polygon fill="#000000" points="714.6042,440.6799,709.8154,448.8969,715.5598,450.1424,714.6042,440.6799" style="stroke:#000000;stroke-width:1.0;"/><text fill="#000000" font-family="sans-serif" font-size="13" lengthAdjust="spacing" textLength="74" x="722.5448" y="450.0669">assigned to</text><text fill="#000000" font-family="sans-serif" font-size="13" lengthAdjust="spacing" textLength="7" x="742.0167" y="264.2692">*</text><!--MD5=[2283fa0b7a3c6f7e803247cdc9962b5e]
link Checkout to Contract--><path codeLine="75" d="M936.4088,68.019 C906.1748,89.715 864.4158,119.681 829.2878,144.888 " fill="none" id="Checkout-Contract" style="stroke:#A80036;stroke-width:1.0;"/><polygon fill="#000000" points="890.4824,109.4815,899.5447,106.5958,896.1178,101.8203,890.4824,109.4815" style="stroke:#000000;stroke-width:1.0;"/><text fill="#000000" font-family="sans-serif" font-size="13" lengthAdjust="spacing" textLength="74" x="903.5448" y="111.0669">attached to</text><!--MD5=[21cf0dd1904e1395f4c7a04097ce76dc]
link Checkout to Damage--><path codeLine="76" d="M1025.1548,68.019 C1070.3448,96.039 1137.7948,137.853 1182.2148,165.396 " fill="none" id="Checkout-Damage" style="stroke:#A80036;stroke-width:1.0;"/><polygon fill="#000000" points="1104.7943,109.2011,1098.6555,101.9371,1095.5582,106.9327,1104.7943,109.2011" style="stroke:#000000;stroke-width:1.0;"/><text fill="#000000" font-family="sans-serif" font-size="13" lengthAdjust="spacing" textLength="23" x="1109.5448" y="111.0669">has</text><text fill="#000000" font-family="sans-serif" font-size="13" lengthAdjust="spacing" textLength="7" x="1167.4325" y="156.6553">*</text><!--MD5=[d4b35842c7081cef0fecfa10cab2139a]
link Checkout to Customer--><path codeLine="77" d="M982.0838,68.152 C983.5278,77.68 985.1198,88.283 986.5448,98 C999.0948,183.579 1014.8948,204.57 1011.5448,291 C1009.5438,342.672 1008.4158,355.624 1002.5448,407 C999.6148,432.638 995.3228,461.234 991.6648,483.968 " fill="none" id="Checkout-Customer" style="stroke:#A80036;stroke-width:1.0;"/><polygon fill="#000000" points="1017.4296,277.5677,1014.6998,286.6781,1020.5761,286.5427,1017.4296,277.5677" style="stroke:#000000;stroke-width:1.0;"/><text fill="#000000" font-family="sans-serif" font-size="13" lengthAdjust="spacing" textLength="33" x="1026.5448" y="287.0669">signs</text><text fill="#000000" font-family="sans-serif" font-size="13" lengthAdjust="spacing" textLength="7" x="975.2883" y="87.7624">*</text><!--MD5=[b45c1f6aa79f1b830fba6e4c66eac9e4]
link Checkout to Employee--><path codeLine="78" d="M903.7108,44.492 C700.0888,62 145.5448,116.729 145.5448,193.5 C145.5448,193.5 145.5448,193.5 145.5448,528 C145.5448,568.659 152.8217,614.518 159.1898,646.862 " fill="none" id="Checkout-Employee" style="stroke:#A80036;stroke-width:1.0;"/><polygon fill="#000000" points="154.4318,360.9215,145.5515,364.3259,149.2486,368.8955,154.4318,360.9215" style="stroke:#000000;stroke-width:1.0;"/><text fill="#000000" font-family="sans-serif" font-size="13" lengthAdjust="spacing" textLength="59" x="159.5448" y="368.5669">performs</text><text fill="#000000" font-family="sans-serif" font-size="13" lengthAdjust="spacing" textLength="7" x="889.0982" y="41.525">*</text><!--MD5=[4d9fdb0d204a1def546c729951723dd8]
link Checkin to Contract--><path codeLine="84" d="M1215.1248,68.116 C1195.5148,84.792 1168.8648,104.353 1141.5448,115 C1031.9248,157.72 992.4388,115.521 878.5448,145 C864.1758,148.719 849.2508,153.849 835.0608,159.387 " fill="none" id="Checkin-Contract" style="stroke:#A80036;stroke-width:1.0;"/><polygon fill="#000000" points="1173.683,107.7339,1183.1643,108.4795,1181.7917,102.7642,1173.683,107.7339" style="stroke:#000000;stroke-width:1.0;"/><text fill="#000000" font-family="sans-serif" font-size="13" lengthAdjust="spacing" textLength="65" x="1187.5448" y="111.0669">relative to</text><!--MD5=[8b7e322bb3a1978ab6502365be223c80]
link Checkin to Damage--><path codeLine="85" d="M1261.8648,68.175 C1267.3148,82.302 1271.2748,99.465 1267.5448,115 C1263.4348,132.104 1254.9448,149.682 1246.8448,163.857 " fill="none" id="Checkin-Damage" style="stroke:#A80036;stroke-width:1.0;"/><polygon fill="#000000" points="1273.7694,111.5059,1278.0754,103.026,1272.2687,102.1145,1273.7694,111.5059" style="stroke:#000000;stroke-width:1.0;"/><text fill="#000000" font-family="sans-serif" font-size="13" lengthAdjust="spacing" textLength="54" x="1283.5448" y="111.0669">has new</text><text fill="#000000" font-family="sans-serif" font-size="13" lengthAdjust="spacing" textLength="7" x="1243.1035" y="153.0907">*</text><!--MD5=[8057192d0da8c3a76f90b3876072c699]
link Invoice to Payment--><path codeLine="90" d="M931.9568,225.06 C930.5288,251.639 928.4148,290.978 926.8098,320.852 " fill="none" id="Invoice-Payment" style="stroke:#A80036;stroke-width:1.0;"/><polygon fill="#000000" points="934.2765,287.5592,937.6965,278.6848,931.8271,278.3695,934.2765,287.5592" style="stroke:#000000;stroke-width:1.0;"/><text fill="#000000" font-family="sans-serif" font-size="13" lengthAdjust="spacing" textLength="62" x="943.5448" y="287.0669">related to</text><!--MD5=[81f5bcbd8530abce6a3b936bc2bf79a2]
@startuml
' CARS company
class CARS
class "Parking site" as ParkingSite
class Address
class Employee
class Car
class "Car Model" as CarModel
CARS o- - "*" ParkingSite
CARS - - "*" CarModel : offers >
ParkingSite - - "*" Car : is parked in <
ParkingSite - - "*" Employee : works in <
ParkingSite - - Address : located at >
Car "*" - - CarModel : describes <
Car : +Tag
CarModel : +ID
CarModel : +Type
CarModel : +Number of seats
ParkingSite : +ID
Address : +City
Address : +Type
Address : +Name
Employee : +ID
Employee : +Name
Employee : +Surname

' Insurances
class Insurer
class Insurance
Insurance "*" - - Insurer : provides <
Insurance "*" - - Car : covered by <
Insurer : +ID
Insurer : +Name
Insurance : +Type

' Customer
class Customer
class "Driver license" as DriverLicense
class "Credit card" as CreditCard
Customer - - DriverLicense
Customer - - CreditCard
Customer : +SSN
Customer : +Name
Customer : +Surname
DriverLicense : +ID
DriverLicense : +Expiration date
CreditCard : +Number
CreditCard : +Expiration date

' Reservation
class Reservation
Reservation "*" - - Customer : reserves <
Reservation "*" - - CarModel : reserves >
Reservation "*" - - ParkingSite : car is in >
Reservation : +Start date
Reservation : +End date

' Check-out - Part 1
class Contract
class Payment
Contract "*" - - Customer : signs <
Contract "0..1" - - "0..1" Reservation : relative to >
Contract - - Payment : has payment >
Contract "*" - - Car : assigned to <
Contract : +ID
Contract : +Start date
Contract : +End date
Contract : +Customer's signature
Payment : +Damage deposit
Payment : +Partial fee
Payment : +Total fee

' Check-out - Part 2
class "Check-out" as Checkout
class Damage
Checkout - - Contract : attached to >
Checkout - - "*" Damage : has >
Checkout "*" - - Customer : signs <
Checkout "*" - - Employee : performs <
Checkout : +Customer's signature
Damage : +Description

' Check-in
class "Check-in" as Checkin
Checkin - - Contract : relative to >
Checkin - - "*" Damage : has new >
Checkin : +End date

' Invoice
class Invoice
Invoice - - Payment : related to >
Invoice : +ID
@enduml

@startuml
class CARS
class "Parking site" as ParkingSite
class Address
class Employee
class Car
class "Car Model" as CarModel
CARS o- - "*" ParkingSite
CARS - - "*" CarModel : offers >
ParkingSite - - "*" Car : is parked in <
ParkingSite - - "*" Employee : works in <
ParkingSite - - Address : located at >
Car "*" - - CarModel : describes <
Car : +Tag
CarModel : +ID
CarModel : +Type
CarModel : +Number of seats
ParkingSite : +ID
Address : +City
Address : +Type
Address : +Name
Employee : +ID
Employee : +Name
Employee : +Surname

class Insurer
class Insurance
Insurance "*" - - Insurer : provides <
Insurance "*" - - Car : covered by <
Insurer : +ID
Insurer : +Name
Insurance : +Type

class Customer
class "Driver license" as DriverLicense
class "Credit card" as CreditCard
Customer - - DriverLicense
Customer - - CreditCard
Customer : +SSN
Customer : +Name
Customer : +Surname
DriverLicense : +ID
DriverLicense : +Expiration date
CreditCard : +Number
CreditCard : +Expiration date

class Reservation
Reservation "*" - - Customer : reserves <
Reservation "*" - - CarModel : reserves >
Reservation "*" - - ParkingSite : car is in >
Reservation : +Start date
Reservation : +End date

class Contract
class Payment
Contract "*" - - Customer : signs <
Contract "0..1" - - "0..1" Reservation : relative to >
Contract - - Payment : has payment >
Contract "*" - - Car : assigned to <
Contract : +ID
Contract : +Start date
Contract : +End date
Contract : +Customer's signature
Payment : +Damage deposit
Payment : +Partial fee
Payment : +Total fee

class "Check-out" as Checkout
class Damage
Checkout - - Contract : attached to >
Checkout - - "*" Damage : has >
Checkout "*" - - Customer : signs <
Checkout "*" - - Employee : performs <
Checkout : +Customer's signature
Damage : +Description

class "Check-in" as Checkin
Checkin - - Contract : relative to >
Checkin - - "*" Damage : has new >
Checkin : +End date

class Invoice
Invoice - - Payment : related to >
Invoice : +ID
@enduml

PlantUML version 1.2021.11beta1(Unknown compile time)
(GPL source distribution)
Java Runtime: Java(TM) SE Runtime Environment
JVM: Java HotSpot(TM) 64-Bit Server VM
Default Encoding: UTF-8
Language: en
Country: US
--></g></svg>