<?xml version="1.0" encoding="UTF-8" standalone="no"?><svg xmlns="http://www.w3.org/2000/svg" xmlns:xlink="http://www.w3.org/1999/xlink" contentScriptType="application/ecmascript" contentStyleType="text/css" height="705px" preserveAspectRatio="none" style="width:1370px;height:705px;background:#FFFFFF;" version="1.1" viewBox="0 0 1370 705" width="1370px" zoomAndPan="magnify"><defs><filter height="300%" id="ff5i2eio6lirm" width="300%" x="-1" y="-1"><feGaussianBlur result="blurOut" stdDeviation="2.0"/><feColorMatrix in="blurOut" result="blurOut2" type="matrix" values="0 0 0 0 0 0 0 0 0 0 0 0 0 0 0 0 0 0 .4 0"/><feOffset dx="4.0" dy="4.0" in="blurOut2" result="blurOut3"/><feBlend in="SourceGraphic" in2="blurOut3" mode="normal"/></filter></defs><g><!--MD5=[6b5d2134b1718deef408d3baff1e0eed]
class CARS--><rect codeLine="2" fill="#FEFECE" filter="url(#ff5i2eio6lirm)" height="48" id="CARS" style="stroke:#A80036;stroke-width:1.5;" width="63" x="51.5674" y="13.5"/><ellipse cx="66.5674" cy="29.5" fill="#ADD1B2" rx="11" ry="11" style="stroke:#A80036;stroke-width:1.0;"/><path d="M68.9111,25.1719 C67.9736,24.7344 67.3799,24.5938 66.5049,24.5938 C63.8799,24.5938 61.8799,26.6719 61.8799,29.3906 L61.8799,30.5156 C61.8799,33.0938 63.9893,34.9844 66.8799,34.9844 C68.0986,34.9844 69.2549,34.6875 70.0049,34.1406 C70.583,33.7344 70.9111,33.2813 70.9111,32.8906 C70.9111,32.4375 70.5205,32.0469 70.0518,32.0469 C69.833,32.0469 69.6299,32.125 69.4424,32.3125 C68.9893,32.7969 68.9893,32.7969 68.8018,32.8906 C68.3799,33.1563 67.6924,33.2813 66.9268,33.2813 C64.8799,33.2813 63.583,32.1875 63.583,30.4844 L63.583,29.3906 C63.583,27.6094 64.833,26.2969 66.5674,26.2969 C67.1455,26.2969 67.7549,26.4531 68.2236,26.7031 C68.708,26.9844 68.8799,27.2031 68.9736,27.6094 C69.0361,28.0156 69.0674,28.1406 69.208,28.2656 C69.3486,28.4063 69.583,28.5156 69.8018,28.5156 C70.0674,28.5156 70.333,28.375 70.5049,28.1563 C70.6143,28 70.6455,27.8125 70.6455,27.3906 L70.6455,25.9688 C70.6455,25.5313 70.6299,25.4063 70.5361,25.25 C70.3799,24.9844 70.0986,24.8438 69.8018,24.8438 C69.5049,24.8438 69.3018,24.9375 69.083,25.25 L68.9111,25.1719 Z " fill="#000000"/><text fill="#000000" font-family="sans-serif" font-size="12" lengthAdjust="spacing" textLength="31" x="80.5674" y="33.6543">CARS</text><line style="stroke:#A80036;stroke-width:1.5;" x1="52.5674" x2="113.5674" y1="45.5" y2="45.5"/><line style="stroke:#A80036;stroke-width:1.5;" x1="52.5674" x2="113.5674" y1="53.5" y2="53.5"/><!--MD5=[3e63a3587cfc3a4187c5476b2379735b]
class ParkingSite--><rect codeLine="3" fill="#FEFECE" filter="url(#ff5i2eio6lirm)" height="60.8047" id="ParkingSite" style="stroke:#A80036;stroke-width:1.5;" width="101" x="111.5674" y="157.5"/><ellipse cx="126.5674" cy="173.5" fill="#ADD1B2" rx="11" ry="11" style="stroke:#A80036;stroke-width:1.0;"/><path d="M128.9112,169.1719 C127.9737,168.7344 127.3799,168.5938 126.5049,168.5938 C123.8799,168.5938 121.8799,170.6719 121.8799,173.3906 L121.8799,174.5156 C121.8799,177.0938 123.9893,178.9844 126.8799,178.9844 C128.0987,178.9844 129.2549,178.6875 130.0049,178.1406 C130.583,177.7344 130.9112,177.2813 130.9112,176.8906 C130.9112,176.4375 130.5205,176.0469 130.0518,176.0469 C129.833,176.0469 129.6299,176.125 129.4424,176.3125 C128.9893,176.7969 128.9893,176.7969 128.8018,176.8906 C128.3799,177.1563 127.6924,177.2813 126.9268,177.2813 C124.8799,177.2813 123.583,176.1875 123.583,174.4844 L123.583,173.3906 C123.583,171.6094 124.833,170.2969 126.5674,170.2969 C127.1455,170.2969 127.7549,170.4531 128.2237,170.7031 C128.708,170.9844 128.8799,171.2031 128.9737,171.6094 C129.0362,172.0156 129.0674,172.1406 129.208,172.2656 C129.3487,172.4063 129.583,172.5156 129.8018,172.5156 C130.0674,172.5156 130.333,172.375 130.5049,172.1563 C130.6143,172 130.6455,171.8125 130.6455,171.3906 L130.6455,169.9688 C130.6455,169.5313 130.6299,169.4063 130.5362,169.25 C130.3799,168.9844 130.0987,168.8438 129.8018,168.8438 C129.5049,168.8438 129.3018,168.9375 129.083,169.25 L128.9112,169.1719 Z " fill="#000000"/><text fill="#000000" font-family="sans-serif" font-size="12" lengthAdjust="spacing" textLength="69" x="140.5674" y="177.6543">Parking site</text><line style="stroke:#A80036;stroke-width:1.5;" x1="112.5674" x2="211.5674" y1="189.5" y2="189.5"/><ellipse cx="122.5674" cy="200.5" rx="3" ry="3" style="stroke:#038048;stroke-width:1.0;fill:none;"/><text fill="#000000" font-family="sans-serif" font-size="11" lengthAdjust="spacing" textLength="12" x="131.5674" y="203.7104">ID</text><line style="stroke:#A80036;stroke-width:1.5;" x1="112.5674" x2="211.5674" y1="210.3047" y2="210.3047"/><!--MD5=[0f39e4cb6f03951afbf6d14bd2505654]
class Address--><rect codeLine="4" fill="#FEFECE" filter="url(#ff5i2eio6lirm)" height="86.4141" id="Address" style="stroke:#A80036;stroke-width:1.5;" width="83" x="104.5674" y="308"/><ellipse cx="119.5674" cy="324" fill="#ADD1B2" rx="11" ry="11" style="stroke:#A80036;stroke-width:1.0;"/><path d="M121.9111,319.6719 C120.9736,319.2344 120.3799,319.0938 119.5049,319.0938 C116.8799,319.0938 114.8799,321.1719 114.8799,323.8906 L114.8799,325.0156 C114.8799,327.5938 116.9893,329.4844 119.8799,329.4844 C121.0986,329.4844 122.2549,329.1875 123.0049,328.6406 C123.583,328.2344 123.9111,327.7813 123.9111,327.3906 C123.9111,326.9375 123.5205,326.5469 123.0518,326.5469 C122.833,326.5469 122.6299,326.625 122.4424,326.8125 C121.9893,327.2969 121.9893,327.2969 121.8018,327.3906 C121.3799,327.6563 120.6924,327.7813 119.9268,327.7813 C117.8799,327.7813 116.583,326.6875 116.583,324.9844 L116.583,323.8906 C116.583,322.1094 117.833,320.7969 119.5674,320.7969 C120.1455,320.7969 120.7549,320.9531 121.2236,321.2031 C121.708,321.4844 121.8799,321.7031 121.9736,322.1094 C122.0361,322.5156 122.0674,322.6406 122.208,322.7656 C122.3486,322.9063 122.583,323.0156 122.8018,323.0156 C123.0674,323.0156 123.333,322.875 123.5049,322.6563 C123.6143,322.5 123.6455,322.3125 123.6455,321.8906 L123.6455,320.4688 C123.6455,320.0313 123.6299,319.9063 123.5361,319.75 C123.3799,319.4844 123.0986,319.3438 122.8018,319.3438 C122.5049,319.3438 122.3018,319.4375 122.083,319.75 L121.9111,319.6719 Z " fill="#000000"/><text fill="#000000" font-family="sans-serif" font-size="12" lengthAdjust="spacing" textLength="51" x="133.5674" y="328.1543">Address</text><line style="stroke:#A80036;stroke-width:1.5;" x1="105.5674" x2="186.5674" y1="340" y2="340"/><ellipse cx="115.5674" cy="351" rx="3" ry="3" style="stroke:#038048;stroke-width:1.0;fill:none;"/><text fill="#000000" font-family="sans-serif" font-size="11" lengthAdjust="spacing" textLength="22" x="124.5674" y="354.2104">City</text><ellipse cx="115.5674" cy="363.8047" rx="3" ry="3" style="stroke:#038048;stroke-width:1.0;fill:none;"/><text fill="#000000" font-family="sans-serif" font-size="11" lengthAdjust="spacing" textLength="29" x="124.5674" y="367.0151">Type</text><ellipse cx="115.5674" cy="376.6094" rx="3" ry="3" style="stroke:#038048;stroke-width:1.0;fill:none;"/><text fill="#000000" font-family="sans-serif" font-size="11" lengthAdjust="spacing" textLength="34" x="124.5674" y="379.8198">Name</text><line style="stroke:#A80036;stroke-width:1.5;" x1="105.5674" x2="186.5674" y1="386.4141" y2="386.4141"/><!--MD5=[7421f545a0d8420c5bec41e74b387d9c]
class Employee--><rect codeLine="5" fill="#FEFECE" filter="url(#ff5i2eio6lirm)" height="86.4141" id="Employee" style="stroke:#A80036;stroke-width:1.5;" width="92" x="306.0676" y="308"/><ellipse cx="321.0676" cy="324" fill="#ADD1B2" rx="11" ry="11" style="stroke:#A80036;stroke-width:1.0;"/><path d="M323.4113,319.6719 C322.4738,319.2344 321.8801,319.0938 321.0051,319.0938 C318.3801,319.0938 316.3801,321.1719 316.3801,323.8906 L316.3801,325.0156 C316.3801,327.5938 318.4895,329.4844 321.3801,329.4844 C322.5988,329.4844 323.7551,329.1875 324.5051,328.6406 C325.0832,328.2344 325.4113,327.7813 325.4113,327.3906 C325.4113,326.9375 325.0207,326.5469 324.552,326.5469 C324.3332,326.5469 324.1301,326.625 323.9426,326.8125 C323.4895,327.2969 323.4895,327.2969 323.302,327.3906 C322.8801,327.6563 322.1926,327.7813 321.427,327.7813 C319.3801,327.7813 318.0832,326.6875 318.0832,324.9844 L318.0832,323.8906 C318.0832,322.1094 319.3332,320.7969 321.0676,320.7969 C321.6457,320.7969 322.2551,320.9531 322.7238,321.2031 C323.2082,321.4844 323.3801,321.7031 323.4738,322.1094 C323.5363,322.5156 323.5676,322.6406 323.7082,322.7656 C323.8488,322.9063 324.0832,323.0156 324.302,323.0156 C324.5676,323.0156 324.8332,322.875 325.0051,322.6563 C325.1145,322.5 325.1457,322.3125 325.1457,321.8906 L325.1457,320.4688 C325.1457,320.0313 325.1301,319.9063 325.0363,319.75 C324.8801,319.4844 324.5988,319.3438 324.302,319.3438 C324.0051,319.3438 323.802,319.4375 323.5832,319.75 L323.4113,319.6719 Z " fill="#000000"/><text fill="#000000" font-family="sans-serif" font-size="12" lengthAdjust="spacing" textLength="60" x="335.0676" y="328.1543">Employee</text><line style="stroke:#A80036;stroke-width:1.5;" x1="307.0676" x2="397.0676" y1="340" y2="340"/><ellipse cx="317.0676" cy="351" rx="3" ry="3" style="stroke:#038048;stroke-width:1.0;fill:none;"/><text fill="#000000" font-family="sans-serif" font-size="11" lengthAdjust="spacing" textLength="12" x="326.0676" y="354.2104">ID</text><ellipse cx="317.0676" cy="363.8047" rx="3" ry="3" style="stroke:#038048;stroke-width:1.0;fill:none;"/><text fill="#000000" font-family="sans-serif" font-size="11" lengthAdjust="spacing" textLength="34" x="326.0676" y="367.0151">Name</text><ellipse cx="317.0676" cy="376.6094" rx="3" ry="3" style="stroke:#038048;stroke-width:1.0;fill:none;"/><text fill="#000000" font-family="sans-serif" font-size="11" lengthAdjust="spacing" textLength="52" x="326.0676" y="379.8198">Surname</text><line style="stroke:#A80036;stroke-width:1.5;" x1="307.0676" x2="397.0676" y1="386.4141" y2="386.4141"/><!--MD5=[3f0ef310aaa84a542276992c5216544d]
class Car--><rect codeLine="6" fill="#FEFECE" filter="url(#ff5i2eio6lirm)" height="60.8047" id="Car" style="stroke:#A80036;stroke-width:1.5;" width="52" x="515.0676" y="320.5"/><ellipse cx="530.0676" cy="336.5" fill="#ADD1B2" rx="11" ry="11" style="stroke:#A80036;stroke-width:1.0;"/><path d="M532.4114,332.1719 C531.4739,331.7344 530.8801,331.5938 530.0051,331.5938 C527.3801,331.5938 525.3801,333.6719 525.3801,336.3906 L525.3801,337.5156 C525.3801,340.0938 527.4895,341.9844 530.3801,341.9844 C531.5989,341.9844 532.7551,341.6875 533.5051,341.1406 C534.0832,340.7344 534.4114,340.2813 534.4114,339.8906 C534.4114,339.4375 534.0207,339.0469 533.552,339.0469 C533.3332,339.0469 533.1301,339.125 532.9426,339.3125 C532.4895,339.7969 532.4895,339.7969 532.302,339.8906 C531.8801,340.1563 531.1926,340.2813 530.427,340.2813 C528.3801,340.2813 527.0832,339.1875 527.0832,337.4844 L527.0832,336.3906 C527.0832,334.6094 528.3332,333.2969 530.0676,333.2969 C530.6457,333.2969 531.2551,333.4531 531.7239,333.7031 C532.2082,333.9844 532.3801,334.2031 532.4739,334.6094 C532.5364,335.0156 532.5676,335.1406 532.7082,335.2656 C532.8489,335.4063 533.0832,335.5156 533.302,335.5156 C533.5676,335.5156 533.8332,335.375 534.0051,335.1563 C534.1145,335 534.1457,334.8125 534.1457,334.3906 L534.1457,332.9688 C534.1457,332.5313 534.1301,332.4063 534.0364,332.25 C533.8801,331.9844 533.5989,331.8438 533.302,331.8438 C533.0051,331.8438 532.802,331.9375 532.5832,332.25 L532.4114,332.1719 Z " fill="#000000"/><text fill="#000000" font-family="sans-serif" font-size="12" lengthAdjust="spacing" textLength="20" x="544.0676" y="340.6543">Car</text><line style="stroke:#A80036;stroke-width:1.5;" x1="516.0676" x2="566.0676" y1="352.5" y2="352.5"/><ellipse cx="526.0676" cy="363.5" rx="3" ry="3" style="stroke:#038048;stroke-width:1.0;fill:none;"/><text fill="#000000" font-family="sans-serif" font-size="11" lengthAdjust="spacing" textLength="21" x="535.0676" y="366.7104">Tag</text><line style="stroke:#A80036;stroke-width:1.5;" x1="516.0676" x2="566.0676" y1="373.3047" y2="373.3047"/><!--MD5=[590439ac31b017de7682903b3eb7025d]
class CarModel--><rect codeLine="7" fill="#FEFECE" filter="url(#ff5i2eio6lirm)" height="48" id="CarModel" style="stroke:#A80036;stroke-width:1.5;" width="93" x="494.5676" y="490"/><ellipse cx="509.5676" cy="506" fill="#ADD1B2" rx="11" ry="11" style="stroke:#A80036;stroke-width:1.0;"/><path d="M511.9113,501.6719 C510.9738,501.2344 510.3801,501.0938 509.5051,501.0938 C506.8801,501.0938 504.8801,503.1719 504.8801,505.8906 L504.8801,507.0156 C504.8801,509.5938 506.9895,511.4844 509.8801,511.4844 C511.0988,511.4844 512.2551,511.1875 513.0051,510.6406 C513.5832,510.2344 513.9114,509.7813 513.9114,509.3906 C513.9114,508.9375 513.5207,508.5469 513.052,508.5469 C512.8332,508.5469 512.6301,508.625 512.4426,508.8125 C511.9895,509.2969 511.9895,509.2969 511.802,509.3906 C511.3801,509.6563 510.6926,509.7813 509.927,509.7813 C507.8801,509.7813 506.5832,508.6875 506.5832,506.9844 L506.5832,505.8906 C506.5832,504.1094 507.8332,502.7969 509.5676,502.7969 C510.1457,502.7969 510.7551,502.9531 511.2238,503.2031 C511.7082,503.4844 511.8801,503.7031 511.9738,504.1094 C512.0364,504.5156 512.0676,504.6406 512.2082,504.7656 C512.3489,504.9063 512.5832,505.0156 512.802,505.0156 C513.0676,505.0156 513.3332,504.875 513.5051,504.6563 C513.6145,504.5 513.6457,504.3125 513.6457,503.8906 L513.6457,502.4688 C513.6457,502.0313 513.6301,501.9063 513.5364,501.75 C513.3801,501.4844 513.0989,501.3438 512.802,501.3438 C512.5051,501.3438 512.302,501.4375 512.0832,501.75 L511.9113,501.6719 Z " fill="#000000"/><text fill="#000000" font-family="sans-serif" font-size="12" lengthAdjust="spacing" textLength="61" x="523.5676" y="510.1543">Car Model</text><line style="stroke:#A80036;stroke-width:1.5;" x1="495.5676" x2="586.5676" y1="522" y2="522"/><line style="stroke:#A80036;stroke-width:1.5;" x1="495.5676" x2="586.5676" y1="530" y2="530"/><!--MD5=[054f87937b19fa476c097d32744151b9]
class Insurer--><rect codeLine="24" fill="#FEFECE" filter="url(#ff5i2eio6lirm)" height="73.6094" id="Insurer" style="stroke:#A80036;stroke-width:1.5;" width="74" x="631.0676" y="314"/><ellipse cx="646.0676" cy="330" fill="#ADD1B2" rx="11" ry="11" style="stroke:#A80036;stroke-width:1.0;"/><path d="M648.4114,325.6719 C647.4739,325.2344 646.8801,325.0938 646.0051,325.0938 C643.3801,325.0938 641.3801,327.1719 641.3801,329.8906 L641.3801,331.0156 C641.3801,333.5938 643.4895,335.4844 646.3801,335.4844 C647.5989,335.4844 648.7551,335.1875 649.5051,334.6406 C650.0832,334.2344 650.4114,333.7813 650.4114,333.3906 C650.4114,332.9375 650.0207,332.5469 649.552,332.5469 C649.3332,332.5469 649.1301,332.625 648.9426,332.8125 C648.4895,333.2969 648.4895,333.2969 648.302,333.3906 C647.8801,333.6563 647.1926,333.7813 646.427,333.7813 C644.3801,333.7813 643.0832,332.6875 643.0832,330.9844 L643.0832,329.8906 C643.0832,328.1094 644.3332,326.7969 646.0676,326.7969 C646.6457,326.7969 647.2551,326.9531 647.7239,327.2031 C648.2082,327.4844 648.3801,327.7031 648.4739,328.1094 C648.5364,328.5156 648.5676,328.6406 648.7082,328.7656 C648.8489,328.9063 649.0832,329.0156 649.302,329.0156 C649.5676,329.0156 649.8332,328.875 650.0051,328.6563 C650.1145,328.5 650.1457,328.3125 650.1457,327.8906 L650.1457,326.4688 C650.1457,326.0313 650.1301,325.9063 650.0364,325.75 C649.8801,325.4844 649.5989,325.3438 649.302,325.3438 C649.0051,325.3438 648.802,325.4375 648.5832,325.75 L648.4114,325.6719 Z " fill="#000000"/><text fill="#000000" font-family="sans-serif" font-size="12" lengthAdjust="spacing" textLength="42" x="660.0676" y="334.1543">Insurer</text><line style="stroke:#A80036;stroke-width:1.5;" x1="632.0676" x2="704.0676" y1="346" y2="346"/><ellipse cx="642.0676" cy="357" rx="3" ry="3" style="stroke:#038048;stroke-width:1.0;fill:none;"/><text fill="#000000" font-family="sans-serif" font-size="11" lengthAdjust="spacing" textLength="12" x="651.0676" y="360.2104">ID</text><ellipse cx="642.0676" cy="369.8047" rx="3" ry="3" style="stroke:#038048;stroke-width:1.0;fill:none;"/><text fill="#000000" font-family="sans-serif" font-size="11" lengthAdjust="spacing" textLength="34" x="651.0676" y="373.0151">Name</text><line style="stroke:#A80036;stroke-width:1.5;" x1="632.0676" x2="704.0676" y1="379.6094" y2="379.6094"/><!--MD5=[c447b73724e2937b40b9f78fc0fede8e]
class Insurance--><rect codeLine="25" fill="#FEFECE" filter="url(#ff5i2eio6lirm)" height="60.8047" id="Insurance" style="stroke:#A80036;stroke-width:1.5;" width="90" x="607.0676" y="157.5"/><ellipse cx="622.0676" cy="173.5" fill="#ADD1B2" rx="11" ry="11" style="stroke:#A80036;stroke-width:1.0;"/><path d="M624.4114,169.1719 C623.4739,168.7344 622.8801,168.5938 622.0051,168.5938 C619.3801,168.5938 617.3801,170.6719 617.3801,173.3906 L617.3801,174.5156 C617.3801,177.0938 619.4895,178.9844 622.3801,178.9844 C623.5989,178.9844 624.7551,178.6875 625.5051,178.1406 C626.0832,177.7344 626.4114,177.2813 626.4114,176.8906 C626.4114,176.4375 626.0207,176.0469 625.552,176.0469 C625.3332,176.0469 625.1301,176.125 624.9426,176.3125 C624.4895,176.7969 624.4895,176.7969 624.302,176.8906 C623.8801,177.1563 623.1926,177.2813 622.427,177.2813 C620.3801,177.2813 619.0832,176.1875 619.0832,174.4844 L619.0832,173.3906 C619.0832,171.6094 620.3332,170.2969 622.0676,170.2969 C622.6457,170.2969 623.2551,170.4531 623.7239,170.7031 C624.2082,170.9844 624.3801,171.2031 624.4739,171.6094 C624.5364,172.0156 624.5676,172.1406 624.7082,172.2656 C624.8489,172.4063 625.0832,172.5156 625.302,172.5156 C625.5676,172.5156 625.8332,172.375 626.0051,172.1563 C626.1145,172 626.1457,171.8125 626.1457,171.3906 L626.1457,169.9688 C626.1457,169.5313 626.1301,169.4063 626.0364,169.25 C625.8801,168.9844 625.5989,168.8438 625.302,168.8438 C625.0051,168.8438 624.802,168.9375 624.5832,169.25 L624.4114,169.1719 Z " fill="#000000"/><text fill="#000000" font-family="sans-serif" font-size="12" lengthAdjust="spacing" textLength="58" x="636.0676" y="177.6543">Insurance</text><line style="stroke:#A80036;stroke-width:1.5;" x1="608.0676" x2="696.0676" y1="189.5" y2="189.5"/><ellipse cx="618.0676" cy="200.5" rx="3" ry="3" style="stroke:#038048;stroke-width:1.0;fill:none;"/><text fill="#000000" font-family="sans-serif" font-size="11" lengthAdjust="spacing" textLength="29" x="627.0676" y="203.7104">Type</text><line style="stroke:#A80036;stroke-width:1.5;" x1="608.0676" x2="696.0676" y1="210.3047" y2="210.3047"/><!--MD5=[2ce0c9fb7f55b1e256ab28a8ea6b25ec]
class Customer--><rect codeLine="33" fill="#FEFECE" filter="url(#ff5i2eio6lirm)" height="86.4141" id="Customer" style="stroke:#A80036;stroke-width:1.5;" width="99" x="960.5676" y="471"/><ellipse cx="979.6176" cy="487" fill="#ADD1B2" rx="11" ry="11" style="stroke:#A80036;stroke-width:1.0;"/><path d="M981.9613,482.6719 C981.0238,482.2344 980.4301,482.0938 979.5551,482.0938 C976.9301,482.0938 974.9301,484.1719 974.9301,486.8906 L974.9301,488.0156 C974.9301,490.5938 977.0395,492.4844 979.9301,492.4844 C981.1488,492.4844 982.3051,492.1875 983.0551,491.6406 C983.6332,491.2344 983.9613,490.7813 983.9613,490.3906 C983.9613,489.9375 983.5707,489.5469 983.102,489.5469 C982.8832,489.5469 982.6801,489.625 982.4926,489.8125 C982.0395,490.2969 982.0395,490.2969 981.852,490.3906 C981.4301,490.6563 980.7426,490.7813 979.977,490.7813 C977.9301,490.7813 976.6332,489.6875 976.6332,487.9844 L976.6332,486.8906 C976.6332,485.1094 977.8832,483.7969 979.6176,483.7969 C980.1957,483.7969 980.8051,483.9531 981.2738,484.2031 C981.7582,484.4844 981.9301,484.7031 982.0238,485.1094 C982.0863,485.5156 982.1176,485.6406 982.2582,485.7656 C982.3988,485.9063 982.6332,486.0156 982.852,486.0156 C983.1176,486.0156 983.3832,485.875 983.5551,485.6563 C983.6645,485.5 983.6957,485.3125 983.6957,484.8906 L983.6957,483.4688 C983.6957,483.0313 983.6801,482.9063 983.5863,482.75 C983.4301,482.4844 983.1488,482.3438 982.852,482.3438 C982.5551,482.3438 982.352,482.4375 982.1332,482.75 L981.9613,482.6719 Z " fill="#000000"/><text fill="#000000" font-family="sans-serif" font-size="12" lengthAdjust="spacing" textLength="58" x="994.5176" y="491.1543">Customer</text><line style="stroke:#A80036;stroke-width:1.5;" x1="961.5676" x2="1058.5676" y1="503" y2="503"/><ellipse cx="971.5676" cy="514" rx="3" ry="3" style="stroke:#038048;stroke-width:1.0;fill:none;"/><text fill="#000000" font-family="sans-serif" font-size="11" lengthAdjust="spacing" textLength="34" x="980.5676" y="517.2104">Name</text><ellipse cx="971.5676" cy="526.8047" rx="3" ry="3" style="stroke:#038048;stroke-width:1.0;fill:none;"/><text fill="#000000" font-family="sans-serif" font-size="11" lengthAdjust="spacing" textLength="52" x="980.5676" y="530.0151">Surname</text><ellipse cx="971.5676" cy="539.6094" rx="3" ry="3" style="stroke:#038048;stroke-width:1.0;fill:none;"/><text fill="#000000" font-family="sans-serif" font-size="11" lengthAdjust="spacing" textLength="73" x="980.5676" y="542.8198">ID document</text><line style="stroke:#A80036;stroke-width:1.5;" x1="961.5676" x2="1058.5676" y1="549.4141" y2="549.4141"/><!--MD5=[5999a290c6b468e29c073bd2553f28d1]
class DriverLicense--><rect codeLine="34" fill="#FEFECE" filter="url(#ff5i2eio6lirm)" height="73.6094" id="DriverLicense" style="stroke:#A80036;stroke-width:1.5;" width="116" x="878.0676" y="618"/><ellipse cx="893.0676" cy="634" fill="#ADD1B2" rx="11" ry="11" style="stroke:#A80036;stroke-width:1.0;"/><path d="M895.4114,629.6719 C894.4739,629.2344 893.8801,629.0938 893.0051,629.0938 C890.3801,629.0938 888.3801,631.1719 888.3801,633.8906 L888.3801,635.0156 C888.3801,637.5938 890.4895,639.4844 893.3801,639.4844 C894.5989,639.4844 895.7551,639.1875 896.5051,638.6406 C897.0832,638.2344 897.4114,637.7813 897.4114,637.3906 C897.4114,636.9375 897.0207,636.5469 896.552,636.5469 C896.3332,636.5469 896.1301,636.625 895.9426,636.8125 C895.4895,637.2969 895.4895,637.2969 895.302,637.3906 C894.8801,637.6563 894.1926,637.7813 893.427,637.7813 C891.3801,637.7813 890.0832,636.6875 890.0832,634.9844 L890.0832,633.8906 C890.0832,632.1094 891.3332,630.7969 893.0676,630.7969 C893.6457,630.7969 894.2551,630.9531 894.7239,631.2031 C895.2082,631.4844 895.3801,631.7031 895.4739,632.1094 C895.5364,632.5156 895.5676,632.6406 895.7082,632.7656 C895.8489,632.9063 896.0832,633.0156 896.302,633.0156 C896.5676,633.0156 896.8332,632.875 897.0051,632.6563 C897.1145,632.5 897.1457,632.3125 897.1457,631.8906 L897.1457,630.4688 C897.1457,630.0313 897.1301,629.9063 897.0364,629.75 C896.8801,629.4844 896.5989,629.3438 896.302,629.3438 C896.0051,629.3438 895.802,629.4375 895.5832,629.75 L895.4114,629.6719 Z " fill="#000000"/><text fill="#000000" font-family="sans-serif" font-size="12" lengthAdjust="spacing" textLength="84" x="907.0676" y="638.1543">Driver license</text><line style="stroke:#A80036;stroke-width:1.5;" x1="879.0676" x2="993.0676" y1="650" y2="650"/><ellipse cx="889.0676" cy="661" rx="3" ry="3" style="stroke:#038048;stroke-width:1.0;fill:none;"/><text fill="#000000" font-family="sans-serif" font-size="11" lengthAdjust="spacing" textLength="12" x="898.0676" y="664.2104">ID</text><ellipse cx="889.0676" cy="673.8047" rx="3" ry="3" style="stroke:#038048;stroke-width:1.0;fill:none;"/><text fill="#000000" font-family="sans-serif" font-size="11" lengthAdjust="spacing" textLength="86" x="898.0676" y="677.0151">Expiration date</text><line style="stroke:#A80036;stroke-width:1.5;" x1="879.0676" x2="993.0676" y1="683.6094" y2="683.6094"/><!--MD5=[91d4151b6d4c9a3d01b6d84b2458eece]
class CreditCard--><rect codeLine="35" fill="#FEFECE" filter="url(#ff5i2eio6lirm)" height="73.6094" id="CreditCard" style="stroke:#A80036;stroke-width:1.5;" width="112" x="1029.0676" y="618"/><ellipse cx="1049.9176" cy="634" fill="#ADD1B2" rx="11" ry="11" style="stroke:#A80036;stroke-width:1.0;"/><path d="M1052.2614,629.6719 C1051.3239,629.2344 1050.7301,629.0938 1049.8551,629.0938 C1047.2301,629.0938 1045.2301,631.1719 1045.2301,633.8906 L1045.2301,635.0156 C1045.2301,637.5938 1047.3395,639.4844 1050.2301,639.4844 C1051.4489,639.4844 1052.6051,639.1875 1053.3551,638.6406 C1053.9332,638.2344 1054.2614,637.7813 1054.2614,637.3906 C1054.2614,636.9375 1053.8707,636.5469 1053.402,636.5469 C1053.1832,636.5469 1052.9801,636.625 1052.7926,636.8125 C1052.3395,637.2969 1052.3395,637.2969 1052.152,637.3906 C1051.7301,637.6563 1051.0426,637.7813 1050.277,637.7813 C1048.2301,637.7813 1046.9332,636.6875 1046.9332,634.9844 L1046.9332,633.8906 C1046.9332,632.1094 1048.1832,630.7969 1049.9176,630.7969 C1050.4957,630.7969 1051.1051,630.9531 1051.5739,631.2031 C1052.0582,631.4844 1052.2301,631.7031 1052.3239,632.1094 C1052.3864,632.5156 1052.4176,632.6406 1052.5582,632.7656 C1052.6989,632.9063 1052.9332,633.0156 1053.152,633.0156 C1053.4176,633.0156 1053.6832,632.875 1053.8551,632.6563 C1053.9645,632.5 1053.9957,632.3125 1053.9957,631.8906 L1053.9957,630.4688 C1053.9957,630.0313 1053.9801,629.9063 1053.8864,629.75 C1053.7301,629.4844 1053.4489,629.3438 1053.152,629.3438 C1052.8551,629.3438 1052.652,629.4375 1052.4332,629.75 L1052.2614,629.6719 Z " fill="#000000"/><text fill="#000000" font-family="sans-serif" font-size="12" lengthAdjust="spacing" textLength="67" x="1065.2176" y="638.1543">Credit card</text><line style="stroke:#A80036;stroke-width:1.5;" x1="1030.0676" x2="1140.0676" y1="650" y2="650"/><ellipse cx="1040.0676" cy="661" rx="3" ry="3" style="stroke:#038048;stroke-width:1.0;fill:none;"/><text fill="#000000" font-family="sans-serif" font-size="11" lengthAdjust="spacing" textLength="45" x="1049.0676" y="664.2104">Number</text><ellipse cx="1040.0676" cy="673.8047" rx="3" ry="3" style="stroke:#038048;stroke-width:1.0;fill:none;"/><text fill="#000000" font-family="sans-serif" font-size="11" lengthAdjust="spacing" textLength="86" x="1049.0676" y="677.0151">Expiration date</text><line style="stroke:#A80036;stroke-width:1.5;" x1="1030.0676" x2="1140.0676" y1="683.6094" y2="683.6094"/><!--MD5=[9c46470aa33a0c75e6d1dfdefc2f9c22]
class Reservation--><rect codeLine="45" fill="#FEFECE" filter="url(#ff5i2eio6lirm)" height="73.6094" id="Reservation" style="stroke:#A80036;stroke-width:1.5;" width="103" x="836.5676" y="314"/><ellipse cx="851.5676" cy="330" fill="#ADD1B2" rx="11" ry="11" style="stroke:#A80036;stroke-width:1.0;"/><path d="M853.9114,325.6719 C852.9739,325.2344 852.3801,325.0938 851.5051,325.0938 C848.8801,325.0938 846.8801,327.1719 846.8801,329.8906 L846.8801,331.0156 C846.8801,333.5938 848.9895,335.4844 851.8801,335.4844 C853.0989,335.4844 854.2551,335.1875 855.0051,334.6406 C855.5832,334.2344 855.9114,333.7813 855.9114,333.3906 C855.9114,332.9375 855.5207,332.5469 855.052,332.5469 C854.8332,332.5469 854.6301,332.625 854.4426,332.8125 C853.9895,333.2969 853.9895,333.2969 853.802,333.3906 C853.3801,333.6563 852.6926,333.7813 851.927,333.7813 C849.8801,333.7813 848.5832,332.6875 848.5832,330.9844 L848.5832,329.8906 C848.5832,328.1094 849.8332,326.7969 851.5676,326.7969 C852.1457,326.7969 852.7551,326.9531 853.2239,327.2031 C853.7082,327.4844 853.8801,327.7031 853.9739,328.1094 C854.0364,328.5156 854.0676,328.6406 854.2082,328.7656 C854.3489,328.9063 854.5832,329.0156 854.802,329.0156 C855.0676,329.0156 855.3332,328.875 855.5051,328.6563 C855.6145,328.5 855.6457,328.3125 855.6457,327.8906 L855.6457,326.4688 C855.6457,326.0313 855.6301,325.9063 855.5364,325.75 C855.3801,325.4844 855.0989,325.3438 854.802,325.3438 C854.5051,325.3438 854.302,325.4375 854.0832,325.75 L853.9114,325.6719 Z " fill="#000000"/><text fill="#000000" font-family="sans-serif" font-size="12" lengthAdjust="spacing" textLength="71" x="865.5676" y="334.1543">Reservation</text><line style="stroke:#A80036;stroke-width:1.5;" x1="837.5676" x2="938.5676" y1="346" y2="346"/><ellipse cx="847.5676" cy="357" rx="3" ry="3" style="stroke:#038048;stroke-width:1.0;fill:none;"/><text fill="#000000" font-family="sans-serif" font-size="11" lengthAdjust="spacing" textLength="57" x="856.5676" y="360.2104">Start date</text><ellipse cx="847.5676" cy="369.8047" rx="3" ry="3" style="stroke:#038048;stroke-width:1.0;fill:none;"/><text fill="#000000" font-family="sans-serif" font-size="11" lengthAdjust="spacing" textLength="51" x="856.5676" y="373.0151">End date</text><line style="stroke:#A80036;stroke-width:1.5;" x1="837.5676" x2="938.5676" y1="379.6094" y2="379.6094"/><!--MD5=[144f148c2aae234e46691563c61c120f]
class RentalContract--><rect codeLine="52" fill="#FEFECE" filter="url(#ff5i2eio6lirm)" height="86.4141" id="RentalContract" style="stroke:#A80036;stroke-width:1.5;" width="147" x="783.5676" y="145"/><ellipse cx="810.2676" cy="161" fill="#ADD1B2" rx="11" ry="11" style="stroke:#A80036;stroke-width:1.0;"/><path d="M812.6114,156.6719 C811.6739,156.2344 811.0801,156.0938 810.2051,156.0938 C807.5801,156.0938 805.5801,158.1719 805.5801,160.8906 L805.5801,162.0156 C805.5801,164.5938 807.6895,166.4844 810.5801,166.4844 C811.7989,166.4844 812.9551,166.1875 813.7051,165.6406 C814.2832,165.2344 814.6114,164.7813 814.6114,164.3906 C814.6114,163.9375 814.2207,163.5469 813.752,163.5469 C813.5332,163.5469 813.3301,163.625 813.1426,163.8125 C812.6895,164.2969 812.6895,164.2969 812.502,164.3906 C812.0801,164.6563 811.3926,164.7813 810.627,164.7813 C808.5801,164.7813 807.2832,163.6875 807.2832,161.9844 L807.2832,160.8906 C807.2832,159.1094 808.5332,157.7969 810.2676,157.7969 C810.8457,157.7969 811.4551,157.9531 811.9239,158.2031 C812.4082,158.4844 812.5801,158.7031 812.6739,159.1094 C812.7364,159.5156 812.7676,159.6406 812.9082,159.7656 C813.0489,159.9063 813.2832,160.0156 813.502,160.0156 C813.7676,160.0156 814.0332,159.875 814.2051,159.6563 C814.3145,159.5 814.3457,159.3125 814.3457,158.8906 L814.3457,157.4688 C814.3457,157.0313 814.3301,156.9063 814.2364,156.75 C814.0801,156.4844 813.7989,156.3438 813.502,156.3438 C813.2051,156.3438 813.002,156.4375 812.7832,156.75 L812.6114,156.6719 Z " fill="#000000"/><text fill="#000000" font-family="sans-serif" font-size="12" lengthAdjust="spacing" textLength="89" x="826.8676" y="165.1543">Rental contract</text><line style="stroke:#A80036;stroke-width:1.5;" x1="784.5676" x2="929.5676" y1="177" y2="177"/><ellipse cx="794.5676" cy="188" rx="3" ry="3" style="stroke:#038048;stroke-width:1.0;fill:none;"/><text fill="#000000" font-family="sans-serif" font-size="11" lengthAdjust="spacing" textLength="57" x="803.5676" y="191.2104">Start date</text><ellipse cx="794.5676" cy="200.8047" rx="3" ry="3" style="stroke:#038048;stroke-width:1.0;fill:none;"/><text fill="#000000" font-family="sans-serif" font-size="11" lengthAdjust="spacing" textLength="51" x="803.5676" y="204.0151">End date</text><ellipse cx="794.5676" cy="213.6094" rx="3" ry="3" style="stroke:#038048;stroke-width:1.0;fill:none;"/><text fill="#000000" font-family="sans-serif" font-size="11" lengthAdjust="spacing" textLength="121" x="803.5676" y="216.8198">Customer's signature</text><line style="stroke:#A80036;stroke-width:1.5;" x1="784.5676" x2="929.5676" y1="223.4141" y2="223.4141"/><!--MD5=[764fca796ce7f635542948d8fc39db5e]
class Payment--><rect codeLine="53" fill="#FEFECE" filter="url(#ff5i2eio6lirm)" height="86.4141" id="Payment" style="stroke:#A80036;stroke-width:1.5;" width="121" x="1120.5706" y="308"/><ellipse cx="1153.1206" cy="324" fill="#ADD1B2" rx="11" ry="11" style="stroke:#A80036;stroke-width:1.0;"/><path d="M1155.4644,319.6719 C1154.5269,319.2344 1153.9331,319.0938 1153.0581,319.0938 C1150.4331,319.0938 1148.4331,321.1719 1148.4331,323.8906 L1148.4331,325.0156 C1148.4331,327.5938 1150.5425,329.4844 1153.4331,329.4844 C1154.6519,329.4844 1155.8081,329.1875 1156.5581,328.6406 C1157.1362,328.2344 1157.4644,327.7813 1157.4644,327.3906 C1157.4644,326.9375 1157.0737,326.5469 1156.605,326.5469 C1156.3862,326.5469 1156.1831,326.625 1155.9956,326.8125 C1155.5425,327.2969 1155.5425,327.2969 1155.355,327.3906 C1154.9331,327.6563 1154.2456,327.7813 1153.48,327.7813 C1151.4331,327.7813 1150.1362,326.6875 1150.1362,324.9844 L1150.1362,323.8906 C1150.1362,322.1094 1151.3862,320.7969 1153.1206,320.7969 C1153.6987,320.7969 1154.3081,320.9531 1154.7769,321.2031 C1155.2612,321.4844 1155.4331,321.7031 1155.5269,322.1094 C1155.5894,322.5156 1155.6206,322.6406 1155.7612,322.7656 C1155.9019,322.9063 1156.1362,323.0156 1156.355,323.0156 C1156.6206,323.0156 1156.8862,322.875 1157.0581,322.6563 C1157.1675,322.5 1157.1987,322.3125 1157.1987,321.8906 L1157.1987,320.4688 C1157.1987,320.0313 1157.1831,319.9063 1157.0894,319.75 C1156.9331,319.4844 1156.6519,319.3438 1156.355,319.3438 C1156.0581,319.3438 1155.855,319.4375 1155.6362,319.75 L1155.4644,319.6719 Z " fill="#000000"/><text fill="#000000" font-family="sans-serif" font-size="12" lengthAdjust="spacing" textLength="50" x="1171.0206" y="328.1543">Payment</text><line style="stroke:#A80036;stroke-width:1.5;" x1="1121.5706" x2="1240.5706" y1="340" y2="340"/><ellipse cx="1131.5706" cy="351" rx="3" ry="3" style="stroke:#038048;stroke-width:1.0;fill:none;"/><text fill="#000000" font-family="sans-serif" font-size="11" lengthAdjust="spacing" textLength="95" x="1140.5706" y="354.2104">Damage deposit</text><ellipse cx="1131.5706" cy="363.8047" rx="3" ry="3" style="stroke:#038048;stroke-width:1.0;fill:none;"/><text fill="#000000" font-family="sans-serif" font-size="11" lengthAdjust="spacing" textLength="58" x="1140.5706" y="367.0151">Partial fee</text><ellipse cx="1131.5706" cy="376.6094" rx="3" ry="3" style="stroke:#038048;stroke-width:1.0;fill:none;"/><text fill="#000000" font-family="sans-serif" font-size="11" lengthAdjust="spacing" textLength="52" x="1140.5706" y="379.8198">Total fee</text><line style="stroke:#A80036;stroke-width:1.5;" x1="1121.5706" x2="1240.5706" y1="386.4141" y2="386.4141"/><!--MD5=[75ec85fc313fa75958b62cd1fc2ce9f6]
class Checkout--><rect codeLine="68" fill="#FEFECE" filter="url(#ff5i2eio6lirm)" height="60.8047" id="Checkout" style="stroke:#A80036;stroke-width:1.5;" width="147" x="460.5676" y="7"/><ellipse cx="499.8676" cy="23" fill="#ADD1B2" rx="11" ry="11" style="stroke:#A80036;stroke-width:1.0;"/><path d="M502.2114,18.6719 C501.2739,18.2344 500.6801,18.0938 499.8051,18.0938 C497.1801,18.0938 495.1801,20.1719 495.1801,22.8906 L495.1801,24.0156 C495.1801,26.5938 497.2895,28.4844 500.1801,28.4844 C501.3989,28.4844 502.5551,28.1875 503.3051,27.6406 C503.8832,27.2344 504.2114,26.7813 504.2114,26.3906 C504.2114,25.9375 503.8207,25.5469 503.352,25.5469 C503.1332,25.5469 502.9301,25.625 502.7426,25.8125 C502.2895,26.2969 502.2895,26.2969 502.102,26.3906 C501.6801,26.6563 500.9926,26.7813 500.227,26.7813 C498.1801,26.7813 496.8832,25.6875 496.8832,23.9844 L496.8832,22.8906 C496.8832,21.1094 498.1332,19.7969 499.8676,19.7969 C500.4457,19.7969 501.0551,19.9531 501.5239,20.2031 C502.0082,20.4844 502.1801,20.7031 502.2739,21.1094 C502.3364,21.5156 502.3676,21.6406 502.5082,21.7656 C502.6489,21.9063 502.8832,22.0156 503.102,22.0156 C503.3676,22.0156 503.6332,21.875 503.8051,21.6563 C503.9145,21.5 503.9457,21.3125 503.9457,20.8906 L503.9457,19.4688 C503.9457,19.0313 503.9301,18.9063 503.8364,18.75 C503.6801,18.4844 503.3989,18.3438 503.102,18.3438 C502.8051,18.3438 502.602,18.4375 502.3832,18.75 L502.2114,18.6719 Z " fill="#000000"/><text fill="#000000" font-family="sans-serif" font-size="12" lengthAdjust="spacing" textLength="61" x="519.2676" y="27.1543">Check-out</text><line style="stroke:#A80036;stroke-width:1.5;" x1="461.5676" x2="606.5676" y1="39" y2="39"/><ellipse cx="471.5676" cy="50" rx="3" ry="3" style="stroke:#038048;stroke-width:1.0;fill:none;"/><text fill="#000000" font-family="sans-serif" font-size="11" lengthAdjust="spacing" textLength="121" x="480.5676" y="53.2104">Customer's signature</text><line style="stroke:#A80036;stroke-width:1.5;" x1="461.5676" x2="606.5676" y1="59.8047" y2="59.8047"/><!--MD5=[e1ae6f2cea02e276685729daa4ac67c0]
class Damage--><rect codeLine="69" fill="#FEFECE" filter="url(#ff5i2eio6lirm)" height="60.8047" id="Damage" style="stroke:#A80036;stroke-width:1.5;" width="90" x="252.0676" y="157.5"/><ellipse cx="270.6676" cy="173.5" fill="#ADD1B2" rx="11" ry="11" style="stroke:#A80036;stroke-width:1.0;"/><path d="M273.0114,169.1719 C272.0739,168.7344 271.4801,168.5938 270.6051,168.5938 C267.9801,168.5938 265.9801,170.6719 265.9801,173.3906 L265.9801,174.5156 C265.9801,177.0938 268.0895,178.9844 270.9801,178.9844 C272.1989,178.9844 273.3551,178.6875 274.1051,178.1406 C274.6832,177.7344 275.0114,177.2813 275.0114,176.8906 C275.0114,176.4375 274.6207,176.0469 274.152,176.0469 C273.9332,176.0469 273.7301,176.125 273.5426,176.3125 C273.0895,176.7969 273.0895,176.7969 272.902,176.8906 C272.4801,177.1563 271.7926,177.2813 271.027,177.2813 C268.9801,177.2813 267.6832,176.1875 267.6832,174.4844 L267.6832,173.3906 C267.6832,171.6094 268.9332,170.2969 270.6676,170.2969 C271.2457,170.2969 271.8551,170.4531 272.3239,170.7031 C272.8082,170.9844 272.9801,171.2031 273.0739,171.6094 C273.1364,172.0156 273.1676,172.1406 273.3082,172.2656 C273.4489,172.4063 273.6832,172.5156 273.902,172.5156 C274.1676,172.5156 274.4332,172.375 274.6051,172.1563 C274.7145,172 274.7457,171.8125 274.7457,171.3906 L274.7457,169.9688 C274.7457,169.5313 274.7301,169.4063 274.6364,169.25 C274.4801,168.9844 274.1989,168.8438 273.902,168.8438 C273.6051,168.8438 273.402,168.9375 273.1832,169.25 L273.0114,169.1719 Z " fill="#000000"/><text fill="#000000" font-family="sans-serif" font-size="12" lengthAdjust="spacing" textLength="50" x="285.4676" y="177.6543">Damage</text><line style="stroke:#A80036;stroke-width:1.5;" x1="253.0676" x2="341.0676" y1="189.5" y2="189.5"/><ellipse cx="263.0676" cy="200.5" rx="3" ry="3" style="stroke:#038048;stroke-width:1.0;fill:none;"/><text fill="#000000" font-family="sans-serif" font-size="11" lengthAdjust="spacing" textLength="64" x="272.0676" y="203.7104">Description</text><line style="stroke:#A80036;stroke-width:1.5;" x1="253.0676" x2="341.0676" y1="210.3047" y2="210.3047"/><!--MD5=[3d3777765217820a0428eaf6fa50d184]
class Checkin--><rect codeLine="78" fill="#FEFECE" filter="url(#ff5i2eio6lirm)" height="60.8047" id="Checkin" style="stroke:#A80036;stroke-width:1.5;" width="84" x="287.0676" y="7"/><ellipse cx="302.0676" cy="23" fill="#ADD1B2" rx="11" ry="11" style="stroke:#A80036;stroke-width:1.0;"/><path d="M304.4114,18.6719 C303.4739,18.2344 302.8801,18.0938 302.0051,18.0938 C299.3801,18.0938 297.3801,20.1719 297.3801,22.8906 L297.3801,24.0156 C297.3801,26.5938 299.4895,28.4844 302.3801,28.4844 C303.5989,28.4844 304.7551,28.1875 305.5051,27.6406 C306.0832,27.2344 306.4114,26.7813 306.4114,26.3906 C306.4114,25.9375 306.0207,25.5469 305.552,25.5469 C305.3332,25.5469 305.1301,25.625 304.9426,25.8125 C304.4895,26.2969 304.4895,26.2969 304.302,26.3906 C303.8801,26.6563 303.1926,26.7813 302.427,26.7813 C300.3801,26.7813 299.0832,25.6875 299.0832,23.9844 L299.0832,22.8906 C299.0832,21.1094 300.3332,19.7969 302.0676,19.7969 C302.6457,19.7969 303.2551,19.9531 303.7239,20.2031 C304.2082,20.4844 304.3801,20.7031 304.4739,21.1094 C304.5364,21.5156 304.5676,21.6406 304.7082,21.7656 C304.8489,21.9063 305.0832,22.0156 305.302,22.0156 C305.5676,22.0156 305.8332,21.875 306.0051,21.6563 C306.1145,21.5 306.1457,21.3125 306.1457,20.8906 L306.1457,19.4688 C306.1457,19.0313 306.1301,18.9063 306.0364,18.75 C305.8801,18.4844 305.5989,18.3438 305.302,18.3438 C305.0051,18.3438 304.802,18.4375 304.5832,18.75 L304.4114,18.6719 Z " fill="#000000"/><text fill="#000000" font-family="sans-serif" font-size="12" lengthAdjust="spacing" textLength="52" x="316.0676" y="27.1543">Check-in</text><line style="stroke:#A80036;stroke-width:1.5;" x1="288.0676" x2="370.0676" y1="39" y2="39"/><ellipse cx="298.0676" cy="50" rx="3" ry="3" style="stroke:#038048;stroke-width:1.0;fill:none;"/><text fill="#000000" font-family="sans-serif" font-size="11" lengthAdjust="spacing" textLength="51" x="307.0676" y="53.2104">End date</text><line style="stroke:#A80036;stroke-width:1.5;" x1="288.0676" x2="370.0676" y1="59.8047" y2="59.8047"/><!--MD5=[894442645724153f40a9f7a43026dbfc]
class Invoice--><rect codeLine="84" fill="#FEFECE" filter="url(#ff5i2eio6lirm)" height="60.8047" id="Invoice" style="stroke:#A80036;stroke-width:1.5;" width="75" x="1170.5706" y="157.5"/><ellipse cx="1185.5706" cy="173.5" fill="#ADD1B2" rx="11" ry="11" style="stroke:#A80036;stroke-width:1.0;"/><path d="M1187.9144,169.1719 C1186.9769,168.7344 1186.3831,168.5938 1185.5081,168.5938 C1182.8831,168.5938 1180.8831,170.6719 1180.8831,173.3906 L1180.8831,174.5156 C1180.8831,177.0938 1182.9925,178.9844 1185.8831,178.9844 C1187.1019,178.9844 1188.2581,178.6875 1189.0081,178.1406 C1189.5862,177.7344 1189.9144,177.2813 1189.9144,176.8906 C1189.9144,176.4375 1189.5237,176.0469 1189.055,176.0469 C1188.8362,176.0469 1188.6331,176.125 1188.4456,176.3125 C1187.9925,176.7969 1187.9925,176.7969 1187.805,176.8906 C1187.3831,177.1563 1186.6956,177.2813 1185.93,177.2813 C1183.8831,177.2813 1182.5862,176.1875 1182.5862,174.4844 L1182.5862,173.3906 C1182.5862,171.6094 1183.8362,170.2969 1185.5706,170.2969 C1186.1487,170.2969 1186.7581,170.4531 1187.2269,170.7031 C1187.7112,170.9844 1187.8831,171.2031 1187.9769,171.6094 C1188.0394,172.0156 1188.0706,172.1406 1188.2112,172.2656 C1188.3519,172.4063 1188.5862,172.5156 1188.805,172.5156 C1189.0706,172.5156 1189.3362,172.375 1189.5081,172.1563 C1189.6175,172 1189.6487,171.8125 1189.6487,171.3906 L1189.6487,169.9688 C1189.6487,169.5313 1189.6331,169.4063 1189.5394,169.25 C1189.3831,168.9844 1189.1019,168.8438 1188.805,168.8438 C1188.5081,168.8438 1188.305,168.9375 1188.0862,169.25 L1187.9144,169.1719 Z " fill="#000000"/><text fill="#000000" font-family="sans-serif" font-size="12" lengthAdjust="spacing" textLength="43" x="1199.5706" y="177.6543">Invoice</text><line style="stroke:#A80036;stroke-width:1.5;" x1="1171.5706" x2="1244.5706" y1="189.5" y2="189.5"/><ellipse cx="1181.5706" cy="200.5" rx="3" ry="3" style="stroke:#038048;stroke-width:1.0;fill:none;"/><text fill="#000000" font-family="sans-serif" font-size="11" lengthAdjust="spacing" textLength="12" x="1190.5706" y="203.7104">ID</text><line style="stroke:#A80036;stroke-width:1.5;" x1="1171.5706" x2="1244.5706" y1="210.3047" y2="210.3047"/><!--MD5=[3f2200ee59b7ff328547c16fcaa82aaa]
reverse link CARS to ParkingSite--><path codeLine="8" d="M101.6549,73.44 C115.2189,98.937 133.4061,133.124 146.2706,157.306 " fill="none" id="CARS-backto-ParkingSite" style="stroke:#A80036;stroke-width:1.0;"/><polygon fill="#FFFFFF" points="95.4111,61.703,94.6977,68.8787,101.0471,72.2971,101.7605,65.1214,95.4111,61.703" style="stroke:#A80036;stroke-width:1.0;"/><text fill="#000000" font-family="sans-serif" font-size="13" lengthAdjust="spacing" textLength="7" x="135.2904" y="146.5292">*</text><!--MD5=[d37b3934b94f6a41b3abc66745ff87de]
link CARS to CarModel--><path codeLine="9" d="M74.5409,61.733 C53.4185,123.762 6,295.247 87.0674,394 C139.0262,457.294 389.2706,494.557 494.3996,507.646 " fill="none" id="CARS-CarModel" style="stroke:#A80036;stroke-width:1.0;"/><polygon fill="#000000" points="52.495,273.2067,48.4341,264.6067,44.1547,268.636,52.495,273.2067" style="stroke:#000000;stroke-width:1.0;"/><text fill="#000000" font-family="sans-serif" font-size="13" lengthAdjust="spacing" textLength="38" x="58.0674" y="274.0669">offers</text><text fill="#000000" font-family="sans-serif" font-size="13" lengthAdjust="spacing" textLength="7" x="479.7176" y="502.6017">*</text><!--MD5=[0bb5ecd22f769035943466e1f175b6da]
link ParkingSite to Car--><path codeLine="10" d="M209.2746,218.625 C217.3786,223.102 225.8426,227.414 234.0676,231 C276.2116,249.375 289.8676,245.266 333.0676,261 C399.6836,285.262 475.7646,319.556 514.8466,337.674 " fill="none" id="ParkingSite-Car" style="stroke:#A80036;stroke-width:1.0;"/><polygon fill="#000000" points="374.4087,267.7513,381.7699,273.7733,383.9036,268.2964,374.4087,267.7513" style="stroke:#000000;stroke-width:1.0;"/><text fill="#000000" font-family="sans-serif" font-size="13" lengthAdjust="spacing" textLength="73" x="388.0676" y="274.0669">is parked in</text><text fill="#000000" font-family="sans-serif" font-size="13" lengthAdjust="spacing" textLength="7" x="500.2306" y="329.4463">*</text><!--MD5=[02420b91ed6c226998eeb0f6ab29d826]
link ParkingSite to Employee--><path codeLine="11" d="M194.1626,218.784 C213.3196,236.326 238.2796,258.775 261.0676,278 C275.3876,290.081 291.3126,302.887 305.7866,314.296 " fill="none" id="ParkingSite-Employee" style="stroke:#A80036;stroke-width:1.0;"/><polygon fill="#000000" points="262.2685,266.3157,267.2304,274.4293,271.0518,269.9632,262.2685,266.3157" style="stroke:#000000;stroke-width:1.0;"/><text fill="#000000" font-family="sans-serif" font-size="13" lengthAdjust="spacing" textLength="53" x="275.0676" y="274.0669">works in</text><text fill="#000000" font-family="sans-serif" font-size="13" lengthAdjust="spacing" textLength="7" x="291.1639" y="304.5726">*</text><!--MD5=[5bfc8a85a28873f5396f08cff86728d7]
link ParkingSite to Address--><path codeLine="12" d="M151.8526,218.746 C147.9586,231.578 143.9946,246.86 142.0676,261 C139.9993,276.172 140.129,292.92 141.0658,307.755 " fill="none" id="ParkingSite-Address" style="stroke:#A80036;stroke-width:1.0;"/><polygon fill="#000000" points="146.4661,274.5301,150.4718,265.9043,144.6367,265.1971,146.4661,274.5301" style="stroke:#000000;stroke-width:1.0;"/><text fill="#000000" font-family="sans-serif" font-size="13" lengthAdjust="spacing" textLength="64" x="156.0676" y="274.0669">located at</text><!--MD5=[b93b373ada3841d2c88bbb890cab4936]
link Car to CarModel--><path codeLine="13" d="M541.0676,381.53 C541.0676,412.758 541.0676,461.371 541.0676,489.911 " fill="none" id="Car-CarModel" style="stroke:#A80036;stroke-width:1.0;"/><polygon fill="#000000" points="546.0676,427.5664,543.1287,436.6115,549.0065,436.6115,546.0676,427.5664" style="stroke:#000000;stroke-width:1.0;"/><text fill="#000000" font-family="sans-serif" font-size="13" lengthAdjust="spacing" textLength="61" x="555.0676" y="437.0669">describes</text><text fill="#000000" font-family="sans-serif" font-size="13" lengthAdjust="spacing" textLength="7" x="533.3457" y="401.4744">*</text><!--MD5=[f1f9b6f25047388ffbf25aa240c8f3fd]
link Insurance to Insurer--><path codeLine="26" d="M655.0016,218.53 C657.6726,245.401 661.6216,285.143 664.4796,313.894 " fill="none" id="Insurance-Insurer" style="stroke:#A80036;stroke-width:1.0;"/><polygon fill="#000000" points="666.5621,274.5419,668.5921,265.2505,662.743,265.8318,666.5621,274.5419" style="stroke:#000000;stroke-width:1.0;"/><text fill="#000000" font-family="sans-serif" font-size="13" lengthAdjust="spacing" textLength="55" x="675.0676" y="274.0669">provides</text><text fill="#000000" font-family="sans-serif" font-size="13" lengthAdjust="spacing" textLength="7" x="647.8849" y="238.4744">*</text><!--MD5=[6c30fed22086064e70b0965e3cf6793a]
link Insurance to Car--><path codeLine="27" d="M606.7856,217.904 C591.5776,229.624 575.7766,244.344 565.0676,261 C553.6426,278.768 547.6186,301.875 544.4636,320.092 " fill="none" id="Insurance-Car" style="stroke:#A80036;stroke-width:1.0;"/><polygon fill="#000000" points="572.671,265.2977,565.4523,271.4897,570.4705,274.5501,572.671,265.2977" style="stroke:#000000;stroke-width:1.0;"/><text fill="#000000" font-family="sans-serif" font-size="13" lengthAdjust="spacing" textLength="72" x="579.0676" y="274.0669">covered by</text><text fill="#000000" font-family="sans-serif" font-size="13" lengthAdjust="spacing" textLength="7" x="592.011" y="218.5677">*</text><!--MD5=[aeaf9200cbaa7c7c08444b4bc8b3369b]
link Customer to DriverLicense--><path codeLine="36" d="M987.6646,557.082 C977.3696,576.419 965.2796,599.1282 955.3916,617.702 " fill="none" id="Customer-DriverLicense" style="stroke:#A80036;stroke-width:1.0;"/><!--MD5=[64f0e157b9264e99419c5f82d7e84fb1]
link Customer to CreditCard--><path codeLine="37" d="M1032.7736,557.082 C1043.2106,576.419 1055.4606,599.1282 1065.4806,617.702 " fill="none" id="Customer-CreditCard" style="stroke:#A80036;stroke-width:1.0;"/><!--MD5=[084ed435efc901fd8b74a4436d3ced04]
link Reservation to Customer--><path codeLine="46" d="M892.6656,388.107 C896.1756,405.274 902.3266,425.402 913.0676,441 C925.2596,458.705 943.2386,473.775 960.4166,485.481 " fill="none" id="Reservation-Customer" style="stroke:#A80036;stroke-width:1.0;"/><polygon fill="#000000" points="915.2119,428.4621,917.9655,437.5654,922.7903,434.2083,915.2119,428.4621" style="stroke:#000000;stroke-width:1.0;"/><text fill="#000000" font-family="sans-serif" font-size="13" lengthAdjust="spacing" textLength="56" x="927.0676" y="437.0669">reserves</text><text fill="#000000" font-family="sans-serif" font-size="13" lengthAdjust="spacing" textLength="7" x="885.8475" y="407.6053">*</text><!--MD5=[ce698a0348dacea28d201157393cc2b9]
link Reservation to CarModel--><path codeLine="47" d="M836.4926,375.929 C769.1866,407.158 652.3816,461.353 587.6406,491.391 " fill="none" id="Reservation-CarModel" style="stroke:#A80036;stroke-width:1.0;"/><polygon fill="#000000" points="725.532,434.6708,734.9739,433.5298,732.5,428.198,725.532,434.6708" style="stroke:#000000;stroke-width:1.0;"/><text fill="#000000" font-family="sans-serif" font-size="13" lengthAdjust="spacing" textLength="56" x="739.0676" y="437.0669">reserves</text><!--MD5=[b201de22bf1960359b7acc4144009d9f]
link RentalContract to Customer--><path codeLine="54" d="M930.7386,228.31 C942.7456,237.604 953.9036,248.512 962.0676,261 C1004.1036,325.305 1011.2836,417.368 1011.4956,470.584 " fill="none" id="RentalContract-Customer" style="stroke:#A80036;stroke-width:1.0;"/><polygon fill="#000000" points="1009.4865,346.323,1009.5586,355.8333,1015.1349,353.9746,1009.4865,346.323" style="stroke:#000000;stroke-width:1.0;"/><text fill="#000000" font-family="sans-serif" font-size="13" lengthAdjust="spacing" textLength="33" x="1020.0676" y="355.5669">signs</text><text fill="#000000" font-family="sans-serif" font-size="13" lengthAdjust="spacing" textLength="7" x="938.6969" y="228.7459">*</text><!--MD5=[454f9ab7d60865aad5efcc31303a5e1a]
link RentalContract to Reservation--><path codeLine="55" d="M865.2126,231.301 C870.1636,257.015 876.4176,289.499 881.1316,313.981 " fill="none" id="RentalContract-Reservation" style="stroke:#A80036;stroke-width:1.0;"/><polygon fill="#000000" points="880.0129,274.4762,881.1887,265.0386,875.4169,266.1499,880.0129,274.4762" style="stroke:#000000;stroke-width:1.0;"/><text fill="#000000" font-family="sans-serif" font-size="13" lengthAdjust="spacing" textLength="65" x="888.0676" y="274.0669">relative to</text><text fill="#000000" font-family="sans-serif" font-size="13" lengthAdjust="spacing" textLength="24" x="840.5982" y="251.4419">0..1</text><text fill="#000000" font-family="sans-serif" font-size="13" lengthAdjust="spacing" textLength="24" x="853.6403" y="302.888">0..1</text><!--MD5=[c50f0a9e4a60c600a5ba1480bbe1260a]
link RentalContract to Payment--><path codeLine="56" d="M930.8476,217.365 C961.6306,229.845 997.4986,245.238 1029.0676,261 C1059.8506,276.368 1092.9306,295.416 1120.3406,311.943 " fill="none" id="RentalContract-Payment" style="stroke:#A80036;stroke-width:1.0;"/><polygon fill="#000000" points="1067.5443,271.7993,1060.7637,265.1304,1058.1388,270.3896,1067.5443,271.7993" style="stroke:#000000;stroke-width:1.0;"/><text fill="#000000" font-family="sans-serif" font-size="13" lengthAdjust="spacing" textLength="85" x="1072.0706" y="274.0669">has payment</text><!--MD5=[ba7df4c8e5c2e16d2c02b47f841bad99]
link RentalContract to Car--><path codeLine="57" d="M810.6226,231.094 C789.9826,247.855 764.6046,265.978 739.0676,278 C686.9846,302.518 666.5066,286.599 613.0676,308 C597.0806,314.402 580.3986,323.928 567.1226,332.289 " fill="none" id="RentalContract-Car" style="stroke:#A80036;stroke-width:1.0;"/><polygon fill="#000000" points="777.6848,267.6476,768.2044,268.4049,770.4601,273.8327,777.6848,267.6476" style="stroke:#000000;stroke-width:1.0;"/><text fill="#000000" font-family="sans-serif" font-size="13" lengthAdjust="spacing" textLength="74" x="782.0676" y="274.0669">assigned to</text><!--MD5=[3d50c5b8748223470aeaa9aea51d903e]
link Checkout to RentalContract--><path codeLine="70" d="M598.2676,68.016 C651.6216,92.546 727.5626,127.46 783.3866,153.125 " fill="none" id="Checkout-RentalContract" style="stroke:#A80036;stroke-width:1.0;"/><polygon fill="#000000" points="705.6105,108.655,698.62,102.2065,696.1647,107.5469,705.6105,108.655" style="stroke:#000000;stroke-width:1.0;"/><text fill="#000000" font-family="sans-serif" font-size="13" lengthAdjust="spacing" textLength="74" x="710.0676" y="111.0669">attached to</text><!--MD5=[21cf0dd1904e1395f4c7a04097ce76dc]
link Checkout to Damage--><path codeLine="71" d="M460.4336,52.516 C395.4146,65.628 309.3596,85.079 299.0676,98 C286.0676,114.32 286.2226,138.178 289.2726,157.085 " fill="none" id="Checkout-Damage" style="stroke:#A80036;stroke-width:1.0;"/><polygon fill="#000000" points="299.8009,109.1731,309.0517,106.9655,305.9873,101.9496,299.8009,109.1731" style="stroke:#000000;stroke-width:1.0;"/><text fill="#000000" font-family="sans-serif" font-size="13" lengthAdjust="spacing" textLength="23" x="313.0676" y="111.0669">has</text><text fill="#000000" font-family="sans-serif" font-size="13" lengthAdjust="spacing" textLength="7" x="279.943" y="146.2626">*</text><!--MD5=[d4b35842c7081cef0fecfa10cab2139a]
link Checkout to Customer--><path codeLine="72" d="M607.6556,38.548 C774.1006,40.281 1172.0906,54.069 1263.0706,145 C1341.3506,223.246 1326.2306,306.025 1259.0706,394 C1209.9306,458.36 1117.1606,489.606 1059.7706,503.41 " fill="none" id="Checkout-Customer" style="stroke:#A80036;stroke-width:1.0;"/><polygon fill="#000000" points="1316.5846,265.9821,1320.7841,274.5152,1324.9977,270.4171,1316.5846,265.9821" style="stroke:#000000;stroke-width:1.0;"/><text fill="#000000" font-family="sans-serif" font-size="13" lengthAdjust="spacing" textLength="33" x="1329.0706" y="274.0669">signs</text><text fill="#000000" font-family="sans-serif" font-size="13" lengthAdjust="spacing" textLength="7" x="615.6053" y="34.9665">*</text><!--MD5=[b45c1f6aa79f1b830fba6e4c66eac9e4]
link Checkout to Employee--><path codeLine="73" d="M527.6386,68.33 C515.0616,124.715 486.2316,244.304 461.0676,278 C444.8506,299.715 420.0226,316.846 398.1566,328.94 " fill="none" id="Checkout-Employee" style="stroke:#A80036;stroke-width:1.0;"/><polygon fill="#000000" points="517.2923,183.5886,510.6358,190.3813,515.8997,192.9967,517.2923,183.5886" style="stroke:#000000;stroke-width:1.0;"/><text fill="#000000" font-family="sans-serif" font-size="13" lengthAdjust="spacing" textLength="59" x="524.0676" y="192.5669">performs</text><text fill="#000000" font-family="sans-serif" font-size="13" lengthAdjust="spacing" textLength="7" x="518.6838" y="87.9754">*</text><!--MD5=[dc759d23e8929bff06ad364d706e4bfa]
link Checkin to RentalContract--><path codeLine="79" d="M371.2426,52.512 C420.7096,68.688 505.3336,95.558 579.0676,115 C638.4996,130.671 654.5476,129.664 714.0676,145 C736.7436,150.843 761.2586,157.803 783.4776,164.361 " fill="none" id="Checkin-RentalContract" style="stroke:#A80036;stroke-width:1.0;"/><polygon fill="#000000" points="588.8931,107.8757,580.9332,102.6708,579.3941,108.3436,588.8931,107.8757" style="stroke:#000000;stroke-width:1.0;"/><text fill="#000000" font-family="sans-serif" font-size="13" lengthAdjust="spacing" textLength="65" x="593.0676" y="111.0669">relative to</text><!--MD5=[8b7e322bb3a1978ab6502365be223c80]
link Checkin to Damage--><path codeLine="80" d="M286.8166,44.088 C254.2846,50.852 211.3886,65.681 190.0676,98 C185.9066,104.307 186.5166,108.331 190.0676,115 C191.9026,118.446 223.5096,139.516 251.8976,157.98 " fill="none" id="Checkin-Damage" style="stroke:#A80036;stroke-width:1.0;"/><polygon fill="#000000" points="193.602,111.3468,199.0632,103.5605,193.4435,101.8375,193.602,111.3468" style="stroke:#000000;stroke-width:1.0;"/><text fill="#000000" font-family="sans-serif" font-size="13" lengthAdjust="spacing" textLength="54" x="204.0676" y="111.0669">has new</text><text fill="#000000" font-family="sans-serif" font-size="13" lengthAdjust="spacing" textLength="7" x="237.1408" y="149.0933">*</text><!--MD5=[8057192d0da8c3a76f90b3876072c699]
link Invoice to Payment--><path codeLine="85" d="M1203.1106,218.53 C1198.9106,243.585 1192.8306,279.831 1188.1206,307.923 " fill="none" id="Invoice-Payment" style="stroke:#A80036;stroke-width:1.0;"/><polygon fill="#000000" points="1199.2437,274.4976,1203.638,266.0631,1197.8411,265.091,1199.2437,274.4976" style="stroke:#000000;stroke-width:1.0;"/><text fill="#000000" font-family="sans-serif" font-size="13" lengthAdjust="spacing" textLength="62" x="1209.0706" y="274.0669">related to</text><!--MD5=[42cf0f903a562ec3d1eb350160b51476]
@startuml
' CARS company
class CARS
class "Parking site" as ParkingSite
class Address
class Employee
class Car
class "Car Model" as CarModel
CARS o- - "*" ParkingSite
CARS - - "*" CarModel : offers >
ParkingSite - - "*" Car : is parked in <
ParkingSite - - "*" Employee : works in <
ParkingSite - - Address : located at >
Car "*" - - CarModel : describes <
Car : +Tag
ParkingSite : +ID
Address : +City
Address : +Type
Address : +Name
Employee : +ID
Employee : +Name
Employee : +Surname

' Insurances
class Insurer
class Insurance
Insurance "*" - - Insurer : provides >
Insurance "*" - - Car : covered by <
Insurer : +ID
Insurer : +Name
Insurance : +Type

' Customer
class Customer
class "Driver license" as DriverLicense
class "Credit card" as CreditCard
Customer - - DriverLicense
Customer - - CreditCard
Customer : +Name
Customer : +Surname
Customer : +ID document
DriverLicense : +ID
DriverLicense : +Expiration date

' Reservation
class Reservation
Reservation "*" - - Customer : reserves <
Reservation - - CarModel : reserves >
Reservation : +Start date
Reservation : +End date

' Check-out - Part 1
class "Rental contract" as RentalContract
class Payment
RentalContract "*" - - Customer : signs <
RentalContract "0..1" - - "0..1" Reservation : relative to >
RentalContract - - Payment : has payment >
RentalContract - - Car : assigned to <
RentalContract : +Start date
RentalContract : +End date
RentalContract : +Customer's signature
CreditCard : +Number
CreditCard : +Expiration date
Payment : +Damage deposit
Payment : +Partial fee
Payment : +Total fee

' Check-out - Part 2
class "Check-out" as Checkout
class Damage
Checkout - - RentalContract : attached to >
Checkout - - "*" Damage : has >
Checkout "*" - - Customer : signs <
Checkout "*" - - Employee : performs <
Checkout : +Customer's signature
Damage : +Description

' Check-in
class "Check-in" as Checkin
Checkin - - RentalContract : relative to >
Checkin - - "*" Damage : has new >
Checkin : +End date

' Invoice
class Invoice
Invoice - - Payment : related to >
Invoice : +ID
@enduml

@startuml
class CARS
class "Parking site" as ParkingSite
class Address
class Employee
class Car
class "Car Model" as CarModel
CARS o- - "*" ParkingSite
CARS - - "*" CarModel : offers >
ParkingSite - - "*" Car : is parked in <
ParkingSite - - "*" Employee : works in <
ParkingSite - - Address : located at >
Car "*" - - CarModel : describes <
Car : +Tag
ParkingSite : +ID
Address : +City
Address : +Type
Address : +Name
Employee : +ID
Employee : +Name
Employee : +Surname

class Insurer
class Insurance
Insurance "*" - - Insurer : provides >
Insurance "*" - - Car : covered by <
Insurer : +ID
Insurer : +Name
Insurance : +Type

class Customer
class "Driver license" as DriverLicense
class "Credit card" as CreditCard
Customer - - DriverLicense
Customer - - CreditCard
Customer : +Name
Customer : +Surname
Customer : +ID document
DriverLicense : +ID
DriverLicense : +Expiration date

class Reservation
Reservation "*" - - Customer : reserves <
Reservation - - CarModel : reserves >
Reservation : +Start date
Reservation : +End date

class "Rental contract" as RentalContract
class Payment
RentalContract "*" - - Customer : signs <
RentalContract "0..1" - - "0..1" Reservation : relative to >
RentalContract - - Payment : has payment >
RentalContract - - Car : assigned to <
RentalContract : +Start date
RentalContract : +End date
RentalContract : +Customer's signature
CreditCard : +Number
CreditCard : +Expiration date
Payment : +Damage deposit
Payment : +Partial fee
Payment : +Total fee

class "Check-out" as Checkout
class Damage
Checkout - - RentalContract : attached to >
Checkout - - "*" Damage : has >
Checkout "*" - - Customer : signs <
Checkout "*" - - Employee : performs <
Checkout : +Customer's signature
Damage : +Description

class "Check-in" as Checkin
Checkin - - RentalContract : relative to >
Checkin - - "*" Damage : has new >
Checkin : +End date

class Invoice
Invoice - - Payment : related to >
Invoice : +ID
@enduml

PlantUML version 1.2021.10(Mon Aug 30 13:43:48 UTC 2021)
(GPL source distribution)
Java Runtime: Java(TM) SE Runtime Environment
JVM: Java HotSpot(TM) 64-Bit Server VM
Default Encoding: UTF-8
Language: en
Country: US
--></g></svg>