<?xml version="1.0" encoding="UTF-8" standalone="no"?><svg xmlns="http://www.w3.org/2000/svg" xmlns:xlink="http://www.w3.org/1999/xlink" contentScriptType="application/ecmascript" contentStyleType="text/css" height="718px" preserveAspectRatio="none" style="width:1376px;height:718px;background:#FFFFFF;" version="1.1" viewBox="0 0 1376 718" width="1376px" zoomAndPan="magnify"><defs><filter height="300%" id="fvzw2pkdd4arr" width="300%" x="-1" y="-1"><feGaussianBlur result="blurOut" stdDeviation="2.0"/><feColorMatrix in="blurOut" result="blurOut2" type="matrix" values="0 0 0 0 0 0 0 0 0 0 0 0 0 0 0 0 0 0 .4 0"/><feOffset dx="4.0" dy="4.0" in="blurOut2" result="blurOut3"/><feBlend in="SourceGraphic" in2="blurOut3" mode="normal"/></filter></defs><g><!--MD5=[6b5d2134b1718deef408d3baff1e0eed]
class CARS--><rect codeLine="2" fill="#FEFECE" filter="url(#fvzw2pkdd4arr)" height="48" id="CARS" style="stroke:#A80036;stroke-width:1.5;" width="63" x="54.9374" y="13.5"/><ellipse cx="69.9374" cy="29.5" fill="#ADD1B2" rx="11" ry="11" style="stroke:#A80036;stroke-width:1.0;"/><path d="M72.2812,25.1719 C71.3437,24.7344 70.7499,24.5938 69.8749,24.5938 C67.2499,24.5938 65.2499,26.6719 65.2499,29.3906 L65.2499,30.5156 C65.2499,33.0938 67.3593,34.9844 70.2499,34.9844 C71.4687,34.9844 72.6249,34.6875 73.3749,34.1406 C73.953,33.7344 74.2812,33.2813 74.2812,32.8906 C74.2812,32.4375 73.8905,32.0469 73.4218,32.0469 C73.203,32.0469 72.9999,32.125 72.8124,32.3125 C72.3593,32.7969 72.3593,32.7969 72.1718,32.8906 C71.7499,33.1563 71.0624,33.2813 70.2968,33.2813 C68.2499,33.2813 66.953,32.1875 66.953,30.4844 L66.953,29.3906 C66.953,27.6094 68.203,26.2969 69.9374,26.2969 C70.5155,26.2969 71.1249,26.4531 71.5937,26.7031 C72.078,26.9844 72.2499,27.2031 72.3437,27.6094 C72.4062,28.0156 72.4374,28.1406 72.578,28.2656 C72.7187,28.4063 72.953,28.5156 73.1718,28.5156 C73.4374,28.5156 73.703,28.375 73.8749,28.1563 C73.9843,28 74.0155,27.8125 74.0155,27.3906 L74.0155,25.9688 C74.0155,25.5313 73.9999,25.4063 73.9062,25.25 C73.7499,24.9844 73.4687,24.8438 73.1718,24.8438 C72.8749,24.8438 72.6718,24.9375 72.453,25.25 L72.2812,25.1719 Z " fill="#000000"/><text fill="#000000" font-family="sans-serif" font-size="12" lengthAdjust="spacing" textLength="31" x="83.9374" y="33.6543">CARS</text><line style="stroke:#A80036;stroke-width:1.5;" x1="55.9374" x2="116.9374" y1="45.5" y2="45.5"/><line style="stroke:#A80036;stroke-width:1.5;" x1="55.9374" x2="116.9374" y1="53.5" y2="53.5"/><!--MD5=[3e63a3587cfc3a4187c5476b2379735b]
class ParkingSite--><rect codeLine="3" fill="#FEFECE" filter="url(#fvzw2pkdd4arr)" height="60.8047" id="ParkingSite" style="stroke:#A80036;stroke-width:1.5;" width="101" x="114.9374" y="164"/><ellipse cx="129.9374" cy="180" fill="#ADD1B2" rx="11" ry="11" style="stroke:#A80036;stroke-width:1.0;"/><path d="M132.2812,175.6719 C131.3437,175.2344 130.7499,175.0938 129.8749,175.0938 C127.2499,175.0938 125.2499,177.1719 125.2499,179.8906 L125.2499,181.0156 C125.2499,183.5938 127.3593,185.4844 130.2499,185.4844 C131.4687,185.4844 132.6249,185.1875 133.3749,184.6406 C133.953,184.2344 134.2812,183.7813 134.2812,183.3906 C134.2812,182.9375 133.8905,182.5469 133.4218,182.5469 C133.203,182.5469 132.9999,182.625 132.8124,182.8125 C132.3593,183.2969 132.3593,183.2969 132.1718,183.3906 C131.7499,183.6563 131.0624,183.7813 130.2968,183.7813 C128.2499,183.7813 126.953,182.6875 126.953,180.9844 L126.953,179.8906 C126.953,178.1094 128.203,176.7969 129.9374,176.7969 C130.5155,176.7969 131.1249,176.9531 131.5937,177.2031 C132.078,177.4844 132.2499,177.7031 132.3437,178.1094 C132.4062,178.5156 132.4374,178.6406 132.578,178.7656 C132.7187,178.9063 132.953,179.0156 133.1718,179.0156 C133.4374,179.0156 133.703,178.875 133.8749,178.6563 C133.9843,178.5 134.0155,178.3125 134.0155,177.8906 L134.0155,176.4688 C134.0155,176.0313 133.9999,175.9063 133.9062,175.75 C133.7499,175.4844 133.4687,175.3438 133.1718,175.3438 C132.8749,175.3438 132.6718,175.4375 132.453,175.75 L132.2812,175.6719 Z " fill="#000000"/><text fill="#000000" font-family="sans-serif" font-size="12" lengthAdjust="spacing" textLength="69" x="143.9374" y="184.1543">Parking site</text><line style="stroke:#A80036;stroke-width:1.5;" x1="115.9374" x2="214.9374" y1="196" y2="196"/><ellipse cx="125.9374" cy="207" rx="3" ry="3" style="stroke:#038048;stroke-width:1.0;fill:none;"/><text fill="#000000" font-family="sans-serif" font-size="11" lengthAdjust="spacing" textLength="12" x="134.9374" y="210.2104">ID</text><line style="stroke:#A80036;stroke-width:1.5;" x1="115.9374" x2="214.9374" y1="216.8047" y2="216.8047"/><!--MD5=[0f39e4cb6f03951afbf6d14bd2505654]
class Address--><rect codeLine="4" fill="#FEFECE" filter="url(#fvzw2pkdd4arr)" height="86.4141" id="Address" style="stroke:#A80036;stroke-width:1.5;" width="83" x="107.9374" y="321"/><ellipse cx="122.9374" cy="337" fill="#ADD1B2" rx="11" ry="11" style="stroke:#A80036;stroke-width:1.0;"/><path d="M125.2812,332.6719 C124.3437,332.2344 123.7499,332.0938 122.8749,332.0938 C120.2499,332.0938 118.2499,334.1719 118.2499,336.8906 L118.2499,338.0156 C118.2499,340.5938 120.3593,342.4844 123.2499,342.4844 C124.4687,342.4844 125.6249,342.1875 126.3749,341.6406 C126.953,341.2344 127.2812,340.7813 127.2812,340.3906 C127.2812,339.9375 126.8905,339.5469 126.4218,339.5469 C126.203,339.5469 125.9999,339.625 125.8124,339.8125 C125.3593,340.2969 125.3593,340.2969 125.1718,340.3906 C124.7499,340.6563 124.0624,340.7813 123.2968,340.7813 C121.2499,340.7813 119.953,339.6875 119.953,337.9844 L119.953,336.8906 C119.953,335.1094 121.203,333.7969 122.9374,333.7969 C123.5155,333.7969 124.1249,333.9531 124.5937,334.2031 C125.078,334.4844 125.2499,334.7031 125.3437,335.1094 C125.4062,335.5156 125.4374,335.6406 125.578,335.7656 C125.7187,335.9063 125.953,336.0156 126.1718,336.0156 C126.4374,336.0156 126.703,335.875 126.8749,335.6563 C126.9843,335.5 127.0155,335.3125 127.0155,334.8906 L127.0155,333.4688 C127.0155,333.0313 126.9999,332.9063 126.9062,332.75 C126.7499,332.4844 126.4687,332.3438 126.1718,332.3438 C125.8749,332.3438 125.6718,332.4375 125.453,332.75 L125.2812,332.6719 Z " fill="#000000"/><text fill="#000000" font-family="sans-serif" font-size="12" lengthAdjust="spacing" textLength="51" x="136.9374" y="341.1543">Address</text><line style="stroke:#A80036;stroke-width:1.5;" x1="108.9374" x2="189.9374" y1="353" y2="353"/><ellipse cx="118.9374" cy="364" rx="3" ry="3" style="stroke:#038048;stroke-width:1.0;fill:none;"/><text fill="#000000" font-family="sans-serif" font-size="11" lengthAdjust="spacing" textLength="22" x="127.9374" y="367.2104">City</text><ellipse cx="118.9374" cy="376.8047" rx="3" ry="3" style="stroke:#038048;stroke-width:1.0;fill:none;"/><text fill="#000000" font-family="sans-serif" font-size="11" lengthAdjust="spacing" textLength="29" x="127.9374" y="380.0151">Type</text><ellipse cx="118.9374" cy="389.6094" rx="3" ry="3" style="stroke:#038048;stroke-width:1.0;fill:none;"/><text fill="#000000" font-family="sans-serif" font-size="11" lengthAdjust="spacing" textLength="34" x="127.9374" y="392.8198">Name</text><line style="stroke:#A80036;stroke-width:1.5;" x1="108.9374" x2="189.9374" y1="399.4141" y2="399.4141"/><!--MD5=[7421f545a0d8420c5bec41e74b387d9c]
class Employee--><rect codeLine="5" fill="#FEFECE" filter="url(#fvzw2pkdd4arr)" height="86.4141" id="Employee" style="stroke:#A80036;stroke-width:1.5;" width="92" x="309.437" y="321"/><ellipse cx="324.437" cy="337" fill="#ADD1B2" rx="11" ry="11" style="stroke:#A80036;stroke-width:1.0;"/><path d="M326.7808,332.6719 C325.8433,332.2344 325.2495,332.0938 324.3745,332.0938 C321.7495,332.0938 319.7495,334.1719 319.7495,336.8906 L319.7495,338.0156 C319.7495,340.5938 321.8589,342.4844 324.7495,342.4844 C325.9683,342.4844 327.1245,342.1875 327.8745,341.6406 C328.4526,341.2344 328.7808,340.7813 328.7808,340.3906 C328.7808,339.9375 328.3901,339.5469 327.9214,339.5469 C327.7026,339.5469 327.4995,339.625 327.312,339.8125 C326.8589,340.2969 326.8589,340.2969 326.6714,340.3906 C326.2495,340.6563 325.562,340.7813 324.7964,340.7813 C322.7495,340.7813 321.4526,339.6875 321.4526,337.9844 L321.4526,336.8906 C321.4526,335.1094 322.7026,333.7969 324.437,333.7969 C325.0151,333.7969 325.6245,333.9531 326.0933,334.2031 C326.5776,334.4844 326.7495,334.7031 326.8433,335.1094 C326.9058,335.5156 326.937,335.6406 327.0776,335.7656 C327.2183,335.9063 327.4526,336.0156 327.6714,336.0156 C327.937,336.0156 328.2026,335.875 328.3745,335.6563 C328.4839,335.5 328.5151,335.3125 328.5151,334.8906 L328.5151,333.4688 C328.5151,333.0313 328.4995,332.9063 328.4058,332.75 C328.2495,332.4844 327.9683,332.3438 327.6714,332.3438 C327.3745,332.3438 327.1714,332.4375 326.9526,332.75 L326.7808,332.6719 Z " fill="#000000"/><text fill="#000000" font-family="sans-serif" font-size="12" lengthAdjust="spacing" textLength="60" x="338.437" y="341.1543">Employee</text><line style="stroke:#A80036;stroke-width:1.5;" x1="310.437" x2="400.437" y1="353" y2="353"/><ellipse cx="320.437" cy="364" rx="3" ry="3" style="stroke:#038048;stroke-width:1.0;fill:none;"/><text fill="#000000" font-family="sans-serif" font-size="11" lengthAdjust="spacing" textLength="12" x="329.437" y="367.2104">ID</text><ellipse cx="320.437" cy="376.8047" rx="3" ry="3" style="stroke:#038048;stroke-width:1.0;fill:none;"/><text fill="#000000" font-family="sans-serif" font-size="11" lengthAdjust="spacing" textLength="34" x="329.437" y="380.0151">Name</text><ellipse cx="320.437" cy="389.6094" rx="3" ry="3" style="stroke:#038048;stroke-width:1.0;fill:none;"/><text fill="#000000" font-family="sans-serif" font-size="11" lengthAdjust="spacing" textLength="52" x="329.437" y="392.8198">Surname</text><line style="stroke:#A80036;stroke-width:1.5;" x1="310.437" x2="400.437" y1="399.4141" y2="399.4141"/><!--MD5=[3f0ef310aaa84a542276992c5216544d]
class Car--><rect codeLine="6" fill="#FEFECE" filter="url(#fvzw2pkdd4arr)" height="60.8047" id="Car" style="stroke:#A80036;stroke-width:1.5;" width="52" x="518.437" y="333.5"/><ellipse cx="533.437" cy="349.5" fill="#ADD1B2" rx="11" ry="11" style="stroke:#A80036;stroke-width:1.0;"/><path d="M535.7808,345.1719 C534.8433,344.7344 534.2495,344.5938 533.3745,344.5938 C530.7495,344.5938 528.7495,346.6719 528.7495,349.3906 L528.7495,350.5156 C528.7495,353.0938 530.8589,354.9844 533.7495,354.9844 C534.9683,354.9844 536.1245,354.6875 536.8745,354.1406 C537.4526,353.7344 537.7808,353.2813 537.7808,352.8906 C537.7808,352.4375 537.3901,352.0469 536.9214,352.0469 C536.7026,352.0469 536.4995,352.125 536.312,352.3125 C535.8589,352.7969 535.8589,352.7969 535.6714,352.8906 C535.2495,353.1563 534.562,353.2813 533.7964,353.2813 C531.7495,353.2813 530.4526,352.1875 530.4526,350.4844 L530.4526,349.3906 C530.4526,347.6094 531.7026,346.2969 533.437,346.2969 C534.0151,346.2969 534.6245,346.4531 535.0933,346.7031 C535.5776,346.9844 535.7495,347.2031 535.8433,347.6094 C535.9058,348.0156 535.937,348.1406 536.0776,348.2656 C536.2183,348.4063 536.4526,348.5156 536.6714,348.5156 C536.937,348.5156 537.2026,348.375 537.3745,348.1563 C537.4839,348 537.5151,347.8125 537.5151,347.3906 L537.5151,345.9688 C537.5151,345.5313 537.4995,345.4063 537.4058,345.25 C537.2495,344.9844 536.9683,344.8438 536.6714,344.8438 C536.3745,344.8438 536.1714,344.9375 535.9526,345.25 L535.7808,345.1719 Z " fill="#000000"/><text fill="#000000" font-family="sans-serif" font-size="12" lengthAdjust="spacing" textLength="20" x="547.437" y="353.6543">Car</text><line style="stroke:#A80036;stroke-width:1.5;" x1="519.437" x2="569.437" y1="365.5" y2="365.5"/><ellipse cx="529.437" cy="376.5" rx="3" ry="3" style="stroke:#038048;stroke-width:1.0;fill:none;"/><text fill="#000000" font-family="sans-serif" font-size="11" lengthAdjust="spacing" textLength="21" x="538.437" y="379.7104">Tag</text><line style="stroke:#A80036;stroke-width:1.5;" x1="519.437" x2="569.437" y1="386.3047" y2="386.3047"/><!--MD5=[590439ac31b017de7682903b3eb7025d]
class CarModel--><rect codeLine="7" fill="#FEFECE" filter="url(#fvzw2pkdd4arr)" height="86.4141" id="CarModel" style="stroke:#A80036;stroke-width:1.5;" width="121" x="483.937" y="484"/><ellipse cx="511.537" cy="500" fill="#ADD1B2" rx="11" ry="11" style="stroke:#A80036;stroke-width:1.0;"/><path d="M513.8808,495.6719 C512.9433,495.2344 512.3495,495.0938 511.4745,495.0938 C508.8495,495.0938 506.8495,497.1719 506.8495,499.8906 L506.8495,501.0156 C506.8495,503.5938 508.9589,505.4844 511.8495,505.4844 C513.0683,505.4844 514.2245,505.1875 514.9745,504.6406 C515.5526,504.2344 515.8808,503.7813 515.8808,503.3906 C515.8808,502.9375 515.4901,502.5469 515.0214,502.5469 C514.8026,502.5469 514.5995,502.625 514.412,502.8125 C513.9589,503.2969 513.9589,503.2969 513.7714,503.3906 C513.3495,503.6563 512.662,503.7813 511.8964,503.7813 C509.8495,503.7813 508.5526,502.6875 508.5526,500.9844 L508.5526,499.8906 C508.5526,498.1094 509.8026,496.7969 511.537,496.7969 C512.1151,496.7969 512.7245,496.9531 513.1933,497.2031 C513.6776,497.4844 513.8495,497.7031 513.9433,498.1094 C514.0058,498.5156 514.037,498.6406 514.1776,498.7656 C514.3183,498.9063 514.5526,499.0156 514.7714,499.0156 C515.037,499.0156 515.3026,498.875 515.4745,498.6563 C515.5839,498.5 515.6151,498.3125 515.6151,497.8906 L515.6151,496.4688 C515.6151,496.0313 515.5995,495.9063 515.5058,495.75 C515.3495,495.4844 515.0683,495.3438 514.7714,495.3438 C514.4745,495.3438 514.2714,495.4375 514.0526,495.75 L513.8808,495.6719 Z " fill="#000000"/><text fill="#000000" font-family="sans-serif" font-size="12" lengthAdjust="spacing" textLength="61" x="528.337" y="504.1543">Car Model</text><line style="stroke:#A80036;stroke-width:1.5;" x1="484.937" x2="603.937" y1="516" y2="516"/><ellipse cx="494.937" cy="527" rx="3" ry="3" style="stroke:#038048;stroke-width:1.0;fill:none;"/><text fill="#000000" font-family="sans-serif" font-size="11" lengthAdjust="spacing" textLength="12" x="503.937" y="530.2104">ID</text><ellipse cx="494.937" cy="539.8047" rx="3" ry="3" style="stroke:#038048;stroke-width:1.0;fill:none;"/><text fill="#000000" font-family="sans-serif" font-size="11" lengthAdjust="spacing" textLength="29" x="503.937" y="543.0151">Type</text><ellipse cx="494.937" cy="552.6094" rx="3" ry="3" style="stroke:#038048;stroke-width:1.0;fill:none;"/><text fill="#000000" font-family="sans-serif" font-size="11" lengthAdjust="spacing" textLength="95" x="503.937" y="555.8198">Number of seats</text><line style="stroke:#A80036;stroke-width:1.5;" x1="484.937" x2="603.937" y1="562.4141" y2="562.4141"/><!--MD5=[054f87937b19fa476c097d32744151b9]
class Insurer--><rect codeLine="27" fill="#FEFECE" filter="url(#fvzw2pkdd4arr)" height="73.6094" id="Insurer" style="stroke:#A80036;stroke-width:1.5;" width="74" x="634.437" y="327"/><ellipse cx="649.437" cy="343" fill="#ADD1B2" rx="11" ry="11" style="stroke:#A80036;stroke-width:1.0;"/><path d="M651.7808,338.6719 C650.8433,338.2344 650.2495,338.0938 649.3745,338.0938 C646.7495,338.0938 644.7495,340.1719 644.7495,342.8906 L644.7495,344.0156 C644.7495,346.5938 646.8589,348.4844 649.7495,348.4844 C650.9683,348.4844 652.1245,348.1875 652.8745,347.6406 C653.4526,347.2344 653.7808,346.7813 653.7808,346.3906 C653.7808,345.9375 653.3901,345.5469 652.9214,345.5469 C652.7026,345.5469 652.4995,345.625 652.312,345.8125 C651.8589,346.2969 651.8589,346.2969 651.6714,346.3906 C651.2495,346.6563 650.562,346.7813 649.7964,346.7813 C647.7495,346.7813 646.4526,345.6875 646.4526,343.9844 L646.4526,342.8906 C646.4526,341.1094 647.7026,339.7969 649.437,339.7969 C650.0151,339.7969 650.6245,339.9531 651.0933,340.2031 C651.5776,340.4844 651.7495,340.7031 651.8433,341.1094 C651.9058,341.5156 651.937,341.6406 652.0776,341.7656 C652.2183,341.9063 652.4526,342.0156 652.6714,342.0156 C652.937,342.0156 653.2026,341.875 653.3745,341.6563 C653.4839,341.5 653.5151,341.3125 653.5151,340.8906 L653.5151,339.4688 C653.5151,339.0313 653.4995,338.9063 653.4058,338.75 C653.2495,338.4844 652.9683,338.3438 652.6714,338.3438 C652.3745,338.3438 652.1714,338.4375 651.9526,338.75 L651.7808,338.6719 Z " fill="#000000"/><text fill="#000000" font-family="sans-serif" font-size="12" lengthAdjust="spacing" textLength="42" x="663.437" y="347.1543">Insurer</text><line style="stroke:#A80036;stroke-width:1.5;" x1="635.437" x2="707.437" y1="359" y2="359"/><ellipse cx="645.437" cy="370" rx="3" ry="3" style="stroke:#038048;stroke-width:1.0;fill:none;"/><text fill="#000000" font-family="sans-serif" font-size="11" lengthAdjust="spacing" textLength="12" x="654.437" y="373.2104">ID</text><ellipse cx="645.437" cy="382.8047" rx="3" ry="3" style="stroke:#038048;stroke-width:1.0;fill:none;"/><text fill="#000000" font-family="sans-serif" font-size="11" lengthAdjust="spacing" textLength="34" x="654.437" y="386.0151">Name</text><line style="stroke:#A80036;stroke-width:1.5;" x1="635.437" x2="707.437" y1="392.6094" y2="392.6094"/><!--MD5=[c447b73724e2937b40b9f78fc0fede8e]
class Insurance--><rect codeLine="28" fill="#FEFECE" filter="url(#fvzw2pkdd4arr)" height="60.8047" id="Insurance" style="stroke:#A80036;stroke-width:1.5;" width="90" x="610.437" y="164"/><ellipse cx="625.437" cy="180" fill="#ADD1B2" rx="11" ry="11" style="stroke:#A80036;stroke-width:1.0;"/><path d="M627.7808,175.6719 C626.8433,175.2344 626.2495,175.0938 625.3745,175.0938 C622.7495,175.0938 620.7495,177.1719 620.7495,179.8906 L620.7495,181.0156 C620.7495,183.5938 622.8589,185.4844 625.7495,185.4844 C626.9683,185.4844 628.1245,185.1875 628.8745,184.6406 C629.4526,184.2344 629.7808,183.7813 629.7808,183.3906 C629.7808,182.9375 629.3901,182.5469 628.9214,182.5469 C628.7026,182.5469 628.4995,182.625 628.312,182.8125 C627.8589,183.2969 627.8589,183.2969 627.6714,183.3906 C627.2495,183.6563 626.562,183.7813 625.7964,183.7813 C623.7495,183.7813 622.4526,182.6875 622.4526,180.9844 L622.4526,179.8906 C622.4526,178.1094 623.7026,176.7969 625.437,176.7969 C626.0151,176.7969 626.6245,176.9531 627.0933,177.2031 C627.5776,177.4844 627.7495,177.7031 627.8433,178.1094 C627.9058,178.5156 627.937,178.6406 628.0776,178.7656 C628.2183,178.9063 628.4526,179.0156 628.6714,179.0156 C628.937,179.0156 629.2026,178.875 629.3745,178.6563 C629.4839,178.5 629.5151,178.3125 629.5151,177.8906 L629.5151,176.4688 C629.5151,176.0313 629.4995,175.9063 629.4058,175.75 C629.2495,175.4844 628.9683,175.3438 628.6714,175.3438 C628.3745,175.3438 628.1714,175.4375 627.9526,175.75 L627.7808,175.6719 Z " fill="#000000"/><text fill="#000000" font-family="sans-serif" font-size="12" lengthAdjust="spacing" textLength="58" x="639.437" y="184.1543">Insurance</text><line style="stroke:#A80036;stroke-width:1.5;" x1="611.437" x2="699.437" y1="196" y2="196"/><ellipse cx="621.437" cy="207" rx="3" ry="3" style="stroke:#038048;stroke-width:1.0;fill:none;"/><text fill="#000000" font-family="sans-serif" font-size="11" lengthAdjust="spacing" textLength="29" x="630.437" y="210.2104">Type</text><line style="stroke:#A80036;stroke-width:1.5;" x1="611.437" x2="699.437" y1="216.8047" y2="216.8047"/><!--MD5=[2ce0c9fb7f55b1e256ab28a8ea6b25ec]
class Customer--><rect codeLine="36" fill="#FEFECE" filter="url(#fvzw2pkdd4arr)" height="86.4141" id="Customer" style="stroke:#A80036;stroke-width:1.5;" width="90" x="968.437" y="484"/><ellipse cx="983.437" cy="500" fill="#ADD1B2" rx="11" ry="11" style="stroke:#A80036;stroke-width:1.0;"/><path d="M985.7808,495.6719 C984.8433,495.2344 984.2495,495.0938 983.3745,495.0938 C980.7495,495.0938 978.7495,497.1719 978.7495,499.8906 L978.7495,501.0156 C978.7495,503.5938 980.8589,505.4844 983.7495,505.4844 C984.9683,505.4844 986.1245,505.1875 986.8745,504.6406 C987.4526,504.2344 987.7808,503.7813 987.7808,503.3906 C987.7808,502.9375 987.3901,502.5469 986.9214,502.5469 C986.7026,502.5469 986.4995,502.625 986.312,502.8125 C985.8589,503.2969 985.8589,503.2969 985.6714,503.3906 C985.2495,503.6563 984.562,503.7813 983.7964,503.7813 C981.7495,503.7813 980.4526,502.6875 980.4526,500.9844 L980.4526,499.8906 C980.4526,498.1094 981.7026,496.7969 983.437,496.7969 C984.0151,496.7969 984.6245,496.9531 985.0933,497.2031 C985.5776,497.4844 985.7495,497.7031 985.8433,498.1094 C985.9058,498.5156 985.937,498.6406 986.0776,498.7656 C986.2183,498.9063 986.4526,499.0156 986.6714,499.0156 C986.937,499.0156 987.2026,498.875 987.3745,498.6563 C987.4839,498.5 987.5151,498.3125 987.5151,497.8906 L987.5151,496.4688 C987.5151,496.0313 987.4995,495.9063 987.4058,495.75 C987.2495,495.4844 986.9683,495.3438 986.6714,495.3438 C986.3745,495.3438 986.1714,495.4375 985.9526,495.75 L985.7808,495.6719 Z " fill="#000000"/><text fill="#000000" font-family="sans-serif" font-size="12" lengthAdjust="spacing" textLength="58" x="997.437" y="504.1543">Customer</text><line style="stroke:#A80036;stroke-width:1.5;" x1="969.437" x2="1057.437" y1="516" y2="516"/><ellipse cx="979.437" cy="527" rx="3" ry="3" style="stroke:#038048;stroke-width:1.0;fill:none;"/><text fill="#000000" font-family="sans-serif" font-size="11" lengthAdjust="spacing" textLength="24" x="988.437" y="530.2104">SSN</text><ellipse cx="979.437" cy="539.8047" rx="3" ry="3" style="stroke:#038048;stroke-width:1.0;fill:none;"/><text fill="#000000" font-family="sans-serif" font-size="11" lengthAdjust="spacing" textLength="34" x="988.437" y="543.0151">Name</text><ellipse cx="979.437" cy="552.6094" rx="3" ry="3" style="stroke:#038048;stroke-width:1.0;fill:none;"/><text fill="#000000" font-family="sans-serif" font-size="11" lengthAdjust="spacing" textLength="52" x="988.437" y="555.8198">Surname</text><line style="stroke:#A80036;stroke-width:1.5;" x1="969.437" x2="1057.437" y1="562.4141" y2="562.4141"/><!--MD5=[5999a290c6b468e29c073bd2553f28d1]
class DriverLicense--><rect codeLine="37" fill="#FEFECE" filter="url(#fvzw2pkdd4arr)" height="73.6094" id="DriverLicense" style="stroke:#A80036;stroke-width:1.5;" width="116" x="881.437" y="631"/><ellipse cx="896.437" cy="647" fill="#ADD1B2" rx="11" ry="11" style="stroke:#A80036;stroke-width:1.0;"/><path d="M898.7808,642.6719 C897.8433,642.2344 897.2495,642.0938 896.3745,642.0938 C893.7495,642.0938 891.7495,644.1719 891.7495,646.8906 L891.7495,648.0156 C891.7495,650.5938 893.8589,652.4844 896.7495,652.4844 C897.9683,652.4844 899.1245,652.1875 899.8745,651.6406 C900.4526,651.2344 900.7808,650.7813 900.7808,650.3906 C900.7808,649.9375 900.3901,649.5469 899.9214,649.5469 C899.7026,649.5469 899.4995,649.625 899.312,649.8125 C898.8589,650.2969 898.8589,650.2969 898.6714,650.3906 C898.2495,650.6563 897.562,650.7813 896.7964,650.7813 C894.7495,650.7813 893.4526,649.6875 893.4526,647.9844 L893.4526,646.8906 C893.4526,645.1094 894.7026,643.7969 896.437,643.7969 C897.0151,643.7969 897.6245,643.9531 898.0933,644.2031 C898.5776,644.4844 898.7495,644.7031 898.8433,645.1094 C898.9058,645.5156 898.937,645.6406 899.0776,645.7656 C899.2183,645.9063 899.4526,646.0156 899.6714,646.0156 C899.937,646.0156 900.2026,645.875 900.3745,645.6563 C900.4839,645.5 900.5151,645.3125 900.5151,644.8906 L900.5151,643.4688 C900.5151,643.0313 900.4995,642.9063 900.4058,642.75 C900.2495,642.4844 899.9683,642.3438 899.6714,642.3438 C899.3745,642.3438 899.1714,642.4375 898.9526,642.75 L898.7808,642.6719 Z " fill="#000000"/><text fill="#000000" font-family="sans-serif" font-size="12" lengthAdjust="spacing" textLength="84" x="910.437" y="651.1543">Driver license</text><line style="stroke:#A80036;stroke-width:1.5;" x1="882.437" x2="996.437" y1="663" y2="663"/><ellipse cx="892.437" cy="674" rx="3" ry="3" style="stroke:#038048;stroke-width:1.0;fill:none;"/><text fill="#000000" font-family="sans-serif" font-size="11" lengthAdjust="spacing" textLength="12" x="901.437" y="677.2104">ID</text><ellipse cx="892.437" cy="686.8047" rx="3" ry="3" style="stroke:#038048;stroke-width:1.0;fill:none;"/><text fill="#000000" font-family="sans-serif" font-size="11" lengthAdjust="spacing" textLength="86" x="901.437" y="690.0151">Expiration date</text><line style="stroke:#A80036;stroke-width:1.5;" x1="882.437" x2="996.437" y1="696.6094" y2="696.6094"/><!--MD5=[91d4151b6d4c9a3d01b6d84b2458eece]
class CreditCard--><rect codeLine="38" fill="#FEFECE" filter="url(#fvzw2pkdd4arr)" height="73.6094" id="CreditCard" style="stroke:#A80036;stroke-width:1.5;" width="112" x="1032.437" y="631"/><ellipse cx="1053.287" cy="647" fill="#ADD1B2" rx="11" ry="11" style="stroke:#A80036;stroke-width:1.0;"/><path d="M1055.6307,642.6719 C1054.6932,642.2344 1054.0995,642.0938 1053.2245,642.0938 C1050.5995,642.0938 1048.5995,644.1719 1048.5995,646.8906 L1048.5995,648.0156 C1048.5995,650.5938 1050.7089,652.4844 1053.5995,652.4844 C1054.8182,652.4844 1055.9745,652.1875 1056.7245,651.6406 C1057.3026,651.2344 1057.6307,650.7813 1057.6307,650.3906 C1057.6307,649.9375 1057.2401,649.5469 1056.7714,649.5469 C1056.5526,649.5469 1056.3495,649.625 1056.162,649.8125 C1055.7089,650.2969 1055.7089,650.2969 1055.5214,650.3906 C1055.0995,650.6563 1054.412,650.7813 1053.6464,650.7813 C1051.5995,650.7813 1050.3026,649.6875 1050.3026,647.9844 L1050.3026,646.8906 C1050.3026,645.1094 1051.5526,643.7969 1053.287,643.7969 C1053.8651,643.7969 1054.4745,643.9531 1054.9432,644.2031 C1055.4276,644.4844 1055.5995,644.7031 1055.6932,645.1094 C1055.7557,645.5156 1055.787,645.6406 1055.9276,645.7656 C1056.0682,645.9063 1056.3026,646.0156 1056.5214,646.0156 C1056.787,646.0156 1057.0526,645.875 1057.2245,645.6563 C1057.3339,645.5 1057.3651,645.3125 1057.3651,644.8906 L1057.3651,643.4688 C1057.3651,643.0313 1057.3495,642.9063 1057.2557,642.75 C1057.0995,642.4844 1056.8182,642.3438 1056.5214,642.3438 C1056.2245,642.3438 1056.0214,642.4375 1055.8026,642.75 L1055.6307,642.6719 Z " fill="#000000"/><text fill="#000000" font-family="sans-serif" font-size="12" lengthAdjust="spacing" textLength="67" x="1068.587" y="651.1543">Credit card</text><line style="stroke:#A80036;stroke-width:1.5;" x1="1033.437" x2="1143.437" y1="663" y2="663"/><ellipse cx="1043.437" cy="674" rx="3" ry="3" style="stroke:#038048;stroke-width:1.0;fill:none;"/><text fill="#000000" font-family="sans-serif" font-size="11" lengthAdjust="spacing" textLength="45" x="1052.437" y="677.2104">Number</text><ellipse cx="1043.437" cy="686.8047" rx="3" ry="3" style="stroke:#038048;stroke-width:1.0;fill:none;"/><text fill="#000000" font-family="sans-serif" font-size="11" lengthAdjust="spacing" textLength="86" x="1052.437" y="690.0151">Expiration date</text><line style="stroke:#A80036;stroke-width:1.5;" x1="1033.437" x2="1143.437" y1="696.6094" y2="696.6094"/><!--MD5=[9c46470aa33a0c75e6d1dfdefc2f9c22]
class Reservation--><rect codeLine="50" fill="#FEFECE" filter="url(#fvzw2pkdd4arr)" height="73.6094" id="Reservation" style="stroke:#A80036;stroke-width:1.5;" width="103" x="839.937" y="327"/><ellipse cx="854.937" cy="343" fill="#ADD1B2" rx="11" ry="11" style="stroke:#A80036;stroke-width:1.0;"/><path d="M857.2808,338.6719 C856.3433,338.2344 855.7495,338.0938 854.8745,338.0938 C852.2495,338.0938 850.2495,340.1719 850.2495,342.8906 L850.2495,344.0156 C850.2495,346.5938 852.3589,348.4844 855.2495,348.4844 C856.4683,348.4844 857.6245,348.1875 858.3745,347.6406 C858.9526,347.2344 859.2808,346.7813 859.2808,346.3906 C859.2808,345.9375 858.8901,345.5469 858.4214,345.5469 C858.2026,345.5469 857.9995,345.625 857.812,345.8125 C857.3589,346.2969 857.3589,346.2969 857.1714,346.3906 C856.7495,346.6563 856.062,346.7813 855.2964,346.7813 C853.2495,346.7813 851.9526,345.6875 851.9526,343.9844 L851.9526,342.8906 C851.9526,341.1094 853.2026,339.7969 854.937,339.7969 C855.5151,339.7969 856.1245,339.9531 856.5933,340.2031 C857.0776,340.4844 857.2495,340.7031 857.3433,341.1094 C857.4058,341.5156 857.437,341.6406 857.5776,341.7656 C857.7183,341.9063 857.9526,342.0156 858.1714,342.0156 C858.437,342.0156 858.7026,341.875 858.8745,341.6563 C858.9839,341.5 859.0151,341.3125 859.0151,340.8906 L859.0151,339.4688 C859.0151,339.0313 858.9995,338.9063 858.9058,338.75 C858.7495,338.4844 858.4683,338.3438 858.1714,338.3438 C857.8745,338.3438 857.6714,338.4375 857.4526,338.75 L857.2808,338.6719 Z " fill="#000000"/><text fill="#000000" font-family="sans-serif" font-size="12" lengthAdjust="spacing" textLength="71" x="868.937" y="347.1543">Reservation</text><line style="stroke:#A80036;stroke-width:1.5;" x1="840.937" x2="941.937" y1="359" y2="359"/><ellipse cx="850.937" cy="370" rx="3" ry="3" style="stroke:#038048;stroke-width:1.0;fill:none;"/><text fill="#000000" font-family="sans-serif" font-size="11" lengthAdjust="spacing" textLength="57" x="859.937" y="373.2104">Start date</text><ellipse cx="850.937" cy="382.8047" rx="3" ry="3" style="stroke:#038048;stroke-width:1.0;fill:none;"/><text fill="#000000" font-family="sans-serif" font-size="11" lengthAdjust="spacing" textLength="51" x="859.937" y="386.0151">End date</text><line style="stroke:#A80036;stroke-width:1.5;" x1="840.937" x2="941.937" y1="392.6094" y2="392.6094"/><!--MD5=[461026a38b737c4ce5e8254b9a577e21]
class Contract--><rect codeLine="57" fill="#FEFECE" filter="url(#fvzw2pkdd4arr)" height="99.2188" id="Contract" style="stroke:#A80036;stroke-width:1.5;" width="147" x="786.937" y="145"/><ellipse cx="831.187" cy="161" fill="#ADD1B2" rx="11" ry="11" style="stroke:#A80036;stroke-width:1.0;"/><path d="M833.5308,156.6719 C832.5933,156.2344 831.9995,156.0938 831.1245,156.0938 C828.4995,156.0938 826.4995,158.1719 826.4995,160.8906 L826.4995,162.0156 C826.4995,164.5938 828.6089,166.4844 831.4995,166.4844 C832.7183,166.4844 833.8745,166.1875 834.6245,165.6406 C835.2026,165.2344 835.5308,164.7813 835.5308,164.3906 C835.5308,163.9375 835.1401,163.5469 834.6714,163.5469 C834.4526,163.5469 834.2495,163.625 834.062,163.8125 C833.6089,164.2969 833.6089,164.2969 833.4214,164.3906 C832.9995,164.6563 832.312,164.7813 831.5464,164.7813 C829.4995,164.7813 828.2026,163.6875 828.2026,161.9844 L828.2026,160.8906 C828.2026,159.1094 829.4526,157.7969 831.187,157.7969 C831.7651,157.7969 832.3745,157.9531 832.8433,158.2031 C833.3276,158.4844 833.4995,158.7031 833.5933,159.1094 C833.6558,159.5156 833.687,159.6406 833.8276,159.7656 C833.9683,159.9063 834.2026,160.0156 834.4214,160.0156 C834.687,160.0156 834.9526,159.875 835.1245,159.6563 C835.2339,159.5 835.2651,159.3125 835.2651,158.8906 L835.2651,157.4688 C835.2651,157.0313 835.2495,156.9063 835.1558,156.75 C834.9995,156.4844 834.7183,156.3438 834.4214,156.3438 C834.1245,156.3438 833.9214,156.4375 833.7026,156.75 L833.5308,156.6719 Z " fill="#000000"/><text fill="#000000" font-family="sans-serif" font-size="12" lengthAdjust="spacing" textLength="50" x="851.687" y="165.1543">Contract</text><line style="stroke:#A80036;stroke-width:1.5;" x1="787.937" x2="932.937" y1="177" y2="177"/><ellipse cx="797.937" cy="188" rx="3" ry="3" style="stroke:#038048;stroke-width:1.0;fill:none;"/><text fill="#000000" font-family="sans-serif" font-size="11" lengthAdjust="spacing" textLength="12" x="806.937" y="191.2104">ID</text><ellipse cx="797.937" cy="200.8047" rx="3" ry="3" style="stroke:#038048;stroke-width:1.0;fill:none;"/><text fill="#000000" font-family="sans-serif" font-size="11" lengthAdjust="spacing" textLength="57" x="806.937" y="204.0151">Start date</text><ellipse cx="797.937" cy="213.6094" rx="3" ry="3" style="stroke:#038048;stroke-width:1.0;fill:none;"/><text fill="#000000" font-family="sans-serif" font-size="11" lengthAdjust="spacing" textLength="51" x="806.937" y="216.8198">End date</text><ellipse cx="797.937" cy="226.4141" rx="3" ry="3" style="stroke:#038048;stroke-width:1.0;fill:none;"/><text fill="#000000" font-family="sans-serif" font-size="11" lengthAdjust="spacing" textLength="121" x="806.937" y="229.6245">Customer's signature</text><line style="stroke:#A80036;stroke-width:1.5;" x1="787.937" x2="932.937" y1="236.2188" y2="236.2188"/><!--MD5=[764fca796ce7f635542948d8fc39db5e]
class Payment--><rect codeLine="58" fill="#FEFECE" filter="url(#fvzw2pkdd4arr)" height="86.4141" id="Payment" style="stroke:#A80036;stroke-width:1.5;" width="121" x="1123.942" y="321"/><ellipse cx="1156.492" cy="337" fill="#ADD1B2" rx="11" ry="11" style="stroke:#A80036;stroke-width:1.0;"/><path d="M1158.8358,332.6719 C1157.8983,332.2344 1157.3045,332.0938 1156.4295,332.0938 C1153.8045,332.0938 1151.8045,334.1719 1151.8045,336.8906 L1151.8045,338.0156 C1151.8045,340.5938 1153.9139,342.4844 1156.8045,342.4844 C1158.0233,342.4844 1159.1795,342.1875 1159.9295,341.6406 C1160.5076,341.2344 1160.8358,340.7813 1160.8358,340.3906 C1160.8358,339.9375 1160.4451,339.5469 1159.9764,339.5469 C1159.7576,339.5469 1159.5545,339.625 1159.367,339.8125 C1158.9139,340.2969 1158.9139,340.2969 1158.7264,340.3906 C1158.3045,340.6563 1157.617,340.7813 1156.8514,340.7813 C1154.8045,340.7813 1153.5076,339.6875 1153.5076,337.9844 L1153.5076,336.8906 C1153.5076,335.1094 1154.7576,333.7969 1156.492,333.7969 C1157.0701,333.7969 1157.6795,333.9531 1158.1483,334.2031 C1158.6326,334.4844 1158.8045,334.7031 1158.8983,335.1094 C1158.9608,335.5156 1158.992,335.6406 1159.1326,335.7656 C1159.2733,335.9063 1159.5076,336.0156 1159.7264,336.0156 C1159.992,336.0156 1160.2576,335.875 1160.4295,335.6563 C1160.5389,335.5 1160.5701,335.3125 1160.5701,334.8906 L1160.5701,333.4688 C1160.5701,333.0313 1160.5545,332.9063 1160.4608,332.75 C1160.3045,332.4844 1160.0233,332.3438 1159.7264,332.3438 C1159.4295,332.3438 1159.2264,332.4375 1159.0076,332.75 L1158.8358,332.6719 Z " fill="#000000"/><text fill="#000000" font-family="sans-serif" font-size="12" lengthAdjust="spacing" textLength="50" x="1174.392" y="341.1543">Payment</text><line style="stroke:#A80036;stroke-width:1.5;" x1="1124.942" x2="1243.942" y1="353" y2="353"/><ellipse cx="1134.942" cy="364" rx="3" ry="3" style="stroke:#038048;stroke-width:1.0;fill:none;"/><text fill="#000000" font-family="sans-serif" font-size="11" lengthAdjust="spacing" textLength="95" x="1143.942" y="367.2104">Damage deposit</text><ellipse cx="1134.942" cy="376.8047" rx="3" ry="3" style="stroke:#038048;stroke-width:1.0;fill:none;"/><text fill="#000000" font-family="sans-serif" font-size="11" lengthAdjust="spacing" textLength="58" x="1143.942" y="380.0151">Partial fee</text><ellipse cx="1134.942" cy="389.6094" rx="3" ry="3" style="stroke:#038048;stroke-width:1.0;fill:none;"/><text fill="#000000" font-family="sans-serif" font-size="11" lengthAdjust="spacing" textLength="52" x="1143.942" y="392.8198">Total fee</text><line style="stroke:#A80036;stroke-width:1.5;" x1="1124.942" x2="1243.942" y1="399.4141" y2="399.4141"/><!--MD5=[75ec85fc313fa75958b62cd1fc2ce9f6]
class Checkout--><rect codeLine="72" fill="#FEFECE" filter="url(#fvzw2pkdd4arr)" height="60.8047" id="Checkout" style="stroke:#A80036;stroke-width:1.5;" width="147" x="463.937" y="7"/><ellipse cx="503.237" cy="23" fill="#ADD1B2" rx="11" ry="11" style="stroke:#A80036;stroke-width:1.0;"/><path d="M505.5808,18.6719 C504.6433,18.2344 504.0495,18.0938 503.1745,18.0938 C500.5495,18.0938 498.5495,20.1719 498.5495,22.8906 L498.5495,24.0156 C498.5495,26.5938 500.6589,28.4844 503.5495,28.4844 C504.7683,28.4844 505.9245,28.1875 506.6745,27.6406 C507.2526,27.2344 507.5808,26.7813 507.5808,26.3906 C507.5808,25.9375 507.1901,25.5469 506.7214,25.5469 C506.5026,25.5469 506.2995,25.625 506.112,25.8125 C505.6589,26.2969 505.6589,26.2969 505.4714,26.3906 C505.0495,26.6563 504.362,26.7813 503.5964,26.7813 C501.5495,26.7813 500.2526,25.6875 500.2526,23.9844 L500.2526,22.8906 C500.2526,21.1094 501.5026,19.7969 503.237,19.7969 C503.8151,19.7969 504.4245,19.9531 504.8933,20.2031 C505.3776,20.4844 505.5495,20.7031 505.6433,21.1094 C505.7058,21.5156 505.737,21.6406 505.8776,21.7656 C506.0183,21.9063 506.2526,22.0156 506.4714,22.0156 C506.737,22.0156 507.0026,21.875 507.1745,21.6563 C507.2839,21.5 507.3151,21.3125 507.3151,20.8906 L507.3151,19.4688 C507.3151,19.0313 507.2995,18.9063 507.2058,18.75 C507.0495,18.4844 506.7683,18.3438 506.4714,18.3438 C506.1745,18.3438 505.9714,18.4375 505.7526,18.75 L505.5808,18.6719 Z " fill="#000000"/><text fill="#000000" font-family="sans-serif" font-size="12" lengthAdjust="spacing" textLength="61" x="522.637" y="27.1543">Check-out</text><line style="stroke:#A80036;stroke-width:1.5;" x1="464.937" x2="609.937" y1="39" y2="39"/><ellipse cx="474.937" cy="50" rx="3" ry="3" style="stroke:#038048;stroke-width:1.0;fill:none;"/><text fill="#000000" font-family="sans-serif" font-size="11" lengthAdjust="spacing" textLength="121" x="483.937" y="53.2104">Customer's signature</text><line style="stroke:#A80036;stroke-width:1.5;" x1="464.937" x2="609.937" y1="59.8047" y2="59.8047"/><!--MD5=[e1ae6f2cea02e276685729daa4ac67c0]
class Damage--><rect codeLine="73" fill="#FEFECE" filter="url(#fvzw2pkdd4arr)" height="60.8047" id="Damage" style="stroke:#A80036;stroke-width:1.5;" width="90" x="255.437" y="164"/><ellipse cx="274.037" cy="180" fill="#ADD1B2" rx="11" ry="11" style="stroke:#A80036;stroke-width:1.0;"/><path d="M276.3808,175.6719 C275.4433,175.2344 274.8495,175.0938 273.9745,175.0938 C271.3495,175.0938 269.3495,177.1719 269.3495,179.8906 L269.3495,181.0156 C269.3495,183.5938 271.4589,185.4844 274.3495,185.4844 C275.5683,185.4844 276.7245,185.1875 277.4745,184.6406 C278.0526,184.2344 278.3808,183.7813 278.3808,183.3906 C278.3808,182.9375 277.9901,182.5469 277.5214,182.5469 C277.3026,182.5469 277.0995,182.625 276.912,182.8125 C276.4589,183.2969 276.4589,183.2969 276.2714,183.3906 C275.8495,183.6563 275.162,183.7813 274.3964,183.7813 C272.3495,183.7813 271.0526,182.6875 271.0526,180.9844 L271.0526,179.8906 C271.0526,178.1094 272.3026,176.7969 274.037,176.7969 C274.6151,176.7969 275.2245,176.9531 275.6933,177.2031 C276.1776,177.4844 276.3495,177.7031 276.4433,178.1094 C276.5058,178.5156 276.537,178.6406 276.6776,178.7656 C276.8183,178.9063 277.0526,179.0156 277.2714,179.0156 C277.537,179.0156 277.8026,178.875 277.9745,178.6563 C278.0839,178.5 278.1151,178.3125 278.1151,177.8906 L278.1151,176.4688 C278.1151,176.0313 278.0995,175.9063 278.0058,175.75 C277.8495,175.4844 277.5683,175.3438 277.2714,175.3438 C276.9745,175.3438 276.7714,175.4375 276.5526,175.75 L276.3808,175.6719 Z " fill="#000000"/><text fill="#000000" font-family="sans-serif" font-size="12" lengthAdjust="spacing" textLength="50" x="288.837" y="184.1543">Damage</text><line style="stroke:#A80036;stroke-width:1.5;" x1="256.437" x2="344.437" y1="196" y2="196"/><ellipse cx="266.437" cy="207" rx="3" ry="3" style="stroke:#038048;stroke-width:1.0;fill:none;"/><text fill="#000000" font-family="sans-serif" font-size="11" lengthAdjust="spacing" textLength="64" x="275.437" y="210.2104">Description</text><line style="stroke:#A80036;stroke-width:1.5;" x1="256.437" x2="344.437" y1="216.8047" y2="216.8047"/><!--MD5=[3d3777765217820a0428eaf6fa50d184]
class Checkin--><rect codeLine="82" fill="#FEFECE" filter="url(#fvzw2pkdd4arr)" height="60.8047" id="Checkin" style="stroke:#A80036;stroke-width:1.5;" width="84" x="290.437" y="7"/><ellipse cx="305.437" cy="23" fill="#ADD1B2" rx="11" ry="11" style="stroke:#A80036;stroke-width:1.0;"/><path d="M307.7808,18.6719 C306.8433,18.2344 306.2495,18.0938 305.3745,18.0938 C302.7495,18.0938 300.7495,20.1719 300.7495,22.8906 L300.7495,24.0156 C300.7495,26.5938 302.8589,28.4844 305.7495,28.4844 C306.9683,28.4844 308.1245,28.1875 308.8745,27.6406 C309.4526,27.2344 309.7808,26.7813 309.7808,26.3906 C309.7808,25.9375 309.3901,25.5469 308.9214,25.5469 C308.7026,25.5469 308.4995,25.625 308.312,25.8125 C307.8589,26.2969 307.8589,26.2969 307.6714,26.3906 C307.2495,26.6563 306.562,26.7813 305.7964,26.7813 C303.7495,26.7813 302.4526,25.6875 302.4526,23.9844 L302.4526,22.8906 C302.4526,21.1094 303.7026,19.7969 305.437,19.7969 C306.0151,19.7969 306.6245,19.9531 307.0933,20.2031 C307.5776,20.4844 307.7495,20.7031 307.8433,21.1094 C307.9058,21.5156 307.937,21.6406 308.0776,21.7656 C308.2183,21.9063 308.4526,22.0156 308.6714,22.0156 C308.937,22.0156 309.2026,21.875 309.3745,21.6563 C309.4839,21.5 309.5151,21.3125 309.5151,20.8906 L309.5151,19.4688 C309.5151,19.0313 309.4995,18.9063 309.4058,18.75 C309.2495,18.4844 308.9683,18.3438 308.6714,18.3438 C308.3745,18.3438 308.1714,18.4375 307.9526,18.75 L307.7808,18.6719 Z " fill="#000000"/><text fill="#000000" font-family="sans-serif" font-size="12" lengthAdjust="spacing" textLength="52" x="319.437" y="27.1543">Check-in</text><line style="stroke:#A80036;stroke-width:1.5;" x1="291.437" x2="373.437" y1="39" y2="39"/><ellipse cx="301.437" cy="50" rx="3" ry="3" style="stroke:#038048;stroke-width:1.0;fill:none;"/><text fill="#000000" font-family="sans-serif" font-size="11" lengthAdjust="spacing" textLength="51" x="310.437" y="53.2104">End date</text><line style="stroke:#A80036;stroke-width:1.5;" x1="291.437" x2="373.437" y1="59.8047" y2="59.8047"/><!--MD5=[894442645724153f40a9f7a43026dbfc]
class Invoice--><rect codeLine="88" fill="#FEFECE" filter="url(#fvzw2pkdd4arr)" height="60.8047" id="Invoice" style="stroke:#A80036;stroke-width:1.5;" width="75" x="1173.942" y="164"/><ellipse cx="1188.942" cy="180" fill="#ADD1B2" rx="11" ry="11" style="stroke:#A80036;stroke-width:1.0;"/><path d="M1191.2858,175.6719 C1190.3483,175.2344 1189.7545,175.0938 1188.8795,175.0938 C1186.2545,175.0938 1184.2545,177.1719 1184.2545,179.8906 L1184.2545,181.0156 C1184.2545,183.5938 1186.3639,185.4844 1189.2545,185.4844 C1190.4733,185.4844 1191.6295,185.1875 1192.3795,184.6406 C1192.9576,184.2344 1193.2858,183.7813 1193.2858,183.3906 C1193.2858,182.9375 1192.8951,182.5469 1192.4264,182.5469 C1192.2076,182.5469 1192.0045,182.625 1191.817,182.8125 C1191.3639,183.2969 1191.3639,183.2969 1191.1764,183.3906 C1190.7545,183.6563 1190.067,183.7813 1189.3014,183.7813 C1187.2545,183.7813 1185.9576,182.6875 1185.9576,180.9844 L1185.9576,179.8906 C1185.9576,178.1094 1187.2076,176.7969 1188.942,176.7969 C1189.5201,176.7969 1190.1295,176.9531 1190.5983,177.2031 C1191.0826,177.4844 1191.2545,177.7031 1191.3483,178.1094 C1191.4108,178.5156 1191.442,178.6406 1191.5826,178.7656 C1191.7233,178.9063 1191.9576,179.0156 1192.1764,179.0156 C1192.442,179.0156 1192.7076,178.875 1192.8795,178.6563 C1192.9889,178.5 1193.0201,178.3125 1193.0201,177.8906 L1193.0201,176.4688 C1193.0201,176.0313 1193.0045,175.9063 1192.9108,175.75 C1192.7545,175.4844 1192.4733,175.3438 1192.1764,175.3438 C1191.8795,175.3438 1191.6764,175.4375 1191.4576,175.75 L1191.2858,175.6719 Z " fill="#000000"/><text fill="#000000" font-family="sans-serif" font-size="12" lengthAdjust="spacing" textLength="43" x="1202.942" y="184.1543">Invoice</text><line style="stroke:#A80036;stroke-width:1.5;" x1="1174.942" x2="1247.942" y1="196" y2="196"/><ellipse cx="1184.942" cy="207" rx="3" ry="3" style="stroke:#038048;stroke-width:1.0;fill:none;"/><text fill="#000000" font-family="sans-serif" font-size="11" lengthAdjust="spacing" textLength="12" x="1193.942" y="210.2104">ID</text><line style="stroke:#A80036;stroke-width:1.5;" x1="1174.942" x2="1247.942" y1="216.8047" y2="216.8047"/><!--MD5=[3f2200ee59b7ff328547c16fcaa82aaa]
reverse link CARS to ParkingSite--><path codeLine="8" d="M104.2305,73.411 C118.0944,100.612 137.1328,137.966 150.278,163.756 " fill="none" id="CARS-backto-ParkingSite" style="stroke:#A80036;stroke-width:1.0;"/><polygon fill="#FFFFFF" points="98.2645,61.705,97.4258,68.8672,103.7144,72.396,104.5532,65.2339,98.2645,61.705" style="stroke:#A80036;stroke-width:1.0;"/><text fill="#000000" font-family="sans-serif" font-size="13" lengthAdjust="spacing" textLength="7" x="139.4295" y="152.9689">*</text><!--MD5=[d37b3934b94f6a41b3abc66745ff87de]
link CARS to CarModel--><path codeLine="9" d="M77.901,61.659 C56.1327,125.16 6,304.141 90.4374,407 C140.1989,467.618 371.831,504.359 483.68,518.856 " fill="none" id="CARS-CarModel" style="stroke:#A80036;stroke-width:1.0;"/><polygon fill="#000000" points="53.7564,286.306,49.9503,277.5902,45.5542,281.4919,53.7564,286.306" style="stroke:#000000;stroke-width:1.0;"/><text fill="#000000" font-family="sans-serif" font-size="13" lengthAdjust="spacing" textLength="38" x="59.4374" y="287.0669">offers</text><text fill="#000000" font-family="sans-serif" font-size="13" lengthAdjust="spacing" textLength="7" x="468.8487" y="513.9991">*</text><!--MD5=[0bb5ecd22f769035943466e1f175b6da]
link ParkingSite to Car--><path codeLine="10" d="M204.916,225.162 C215.154,231.982 226.411,238.761 237.437,244 C278.965,263.729 293.237,258.266 336.437,274 C403.053,298.262 479.135,332.556 518.216,350.674 " fill="none" id="ParkingSite-Car" style="stroke:#A80036;stroke-width:1.0;"/><polygon fill="#000000" points="377.7956,280.707,385.099,286.7988,387.2849,281.3425,377.7956,280.707" style="stroke:#000000;stroke-width:1.0;"/><text fill="#000000" font-family="sans-serif" font-size="13" lengthAdjust="spacing" textLength="73" x="391.437" y="287.0669">is parked in</text><text fill="#000000" font-family="sans-serif" font-size="13" lengthAdjust="spacing" textLength="7" x="503.6" y="342.4463">*</text><!--MD5=[02420b91ed6c226998eeb0f6ab29d826]
link ParkingSite to Employee--><path codeLine="11" d="M194.613,225.116 C213.962,244.384 240.165,269.781 264.437,291 C278.694,303.464 294.751,316.482 309.363,327.967 " fill="none" id="ParkingSite-Employee" style="stroke:#A80036;stroke-width:1.0;"/><polygon fill="#000000" points="265.7137,279.2292,270.4876,287.4548,274.4108,283.0778,265.7137,279.2292" style="stroke:#000000;stroke-width:1.0;"/><text fill="#000000" font-family="sans-serif" font-size="13" lengthAdjust="spacing" textLength="53" x="278.437" y="287.0669">works in</text><text fill="#000000" font-family="sans-serif" font-size="13" lengthAdjust="spacing" textLength="7" x="294.4621" y="318.0734">*</text><!--MD5=[5bfc8a85a28873f5396f08cff86728d7]
link ParkingSite to Address--><path codeLine="12" d="M155.962,225.357 C151.838,239.873 147.485,257.673 145.437,274 C143.532,289.193 143.699,305.946 144.62,320.779 " fill="none" id="ParkingSite-Address" style="stroke:#A80036;stroke-width:1.0;"/><polygon fill="#000000" points="149.8468,287.5315,153.8328,278.8965,147.9961,278.2027,149.8468,287.5315" style="stroke:#000000;stroke-width:1.0;"/><text fill="#000000" font-family="sans-serif" font-size="13" lengthAdjust="spacing" textLength="64" x="159.437" y="287.0669">located at</text><!--MD5=[b93b373ada3841d2c88bbb890cab4936]
link Car to CarModel--><path codeLine="13" d="M544.437,394.53 C544.437,419.585 544.437,455.831 544.437,483.923 " fill="none" id="Car-CarModel" style="stroke:#A80036;stroke-width:1.0;"/><polygon fill="#000000" points="549.437,440.5664,546.4981,449.6115,552.3759,449.6115,549.437,440.5664" style="stroke:#000000;stroke-width:1.0;"/><text fill="#000000" font-family="sans-serif" font-size="13" lengthAdjust="spacing" textLength="61" x="558.437" y="450.0669">describes</text><text fill="#000000" font-family="sans-serif" font-size="13" lengthAdjust="spacing" textLength="7" x="536.7151" y="414.4744">*</text><!--MD5=[f1f9b6f25047388ffbf25aa240c8f3fd]
link Insurance to Insurer--><path codeLine="29" d="M658.261,225.06 C660.97,253.423 665.068,296.318 667.973,326.734 " fill="none" id="Insurance-Insurer" style="stroke:#A80036;stroke-width:1.0;"/><polygon fill="#000000" points="668.9616,277.5891,666.896,286.8726,672.7472,286.3137,668.9616,277.5891" style="stroke:#000000;stroke-width:1.0;"/><text fill="#000000" font-family="sans-serif" font-size="13" lengthAdjust="spacing" textLength="55" x="678.437" y="287.0669">provides</text><text fill="#000000" font-family="sans-serif" font-size="13" lengthAdjust="spacing" textLength="7" x="651.1216" y="245.0106">*</text><!--MD5=[6c30fed22086064e70b0965e3cf6793a]
link Insurance to Car--><path codeLine="30" d="M613.341,225.094 C597.201,238.372 579.923,255.27 568.437,274 C557.395,292.008 551.359,315.108 548.103,333.261 " fill="none" id="Insurance-Car" style="stroke:#A80036;stroke-width:1.0;"/><polygon fill="#000000" points="576.0193,278.2849,568.8312,284.5124,573.8645,287.5481,576.0193,278.2849" style="stroke:#000000;stroke-width:1.0;"/><text fill="#000000" font-family="sans-serif" font-size="13" lengthAdjust="spacing" textLength="72" x="582.437" y="287.0669">covered by</text><text fill="#000000" font-family="sans-serif" font-size="13" lengthAdjust="spacing" textLength="7" x="596.9368" y="245.0516">*</text><!--MD5=[aeaf9200cbaa7c7c08444b4bc8b3369b]
link Customer to DriverLicense--><path codeLine="39" d="M991.034,570.082 C980.74,589.419 968.65,612.1282 958.761,630.702 " fill="none" id="Customer-DriverLicense" style="stroke:#A80036;stroke-width:1.0;"/><!--MD5=[64f0e157b9264e99419c5f82d7e84fb1]
link Customer to CreditCard--><path codeLine="40" d="M1036.143,570.082 C1046.572,589.419 1058.832,612.1282 1068.852,630.702 " fill="none" id="Customer-CreditCard" style="stroke:#A80036;stroke-width:1.0;"/><!--MD5=[084ed435efc901fd8b74a4436d3ced04]
link Reservation to Customer--><path codeLine="51" d="M896.036,401.107 C899.546,418.274 905.696,438.402 916.437,454 C929.641,473.173 949.63,489.256 968.039,501.323 " fill="none" id="Reservation-Customer" style="stroke:#A80036;stroke-width:1.0;"/><polygon fill="#000000" points="918.5195,441.5058,921.4105,450.5663,926.184,447.1367,918.5195,441.5058" style="stroke:#000000;stroke-width:1.0;"/><text fill="#000000" font-family="sans-serif" font-size="13" lengthAdjust="spacing" textLength="56" x="930.437" y="450.0669">reserves</text><text fill="#000000" font-family="sans-serif" font-size="13" lengthAdjust="spacing" textLength="7" x="889.218" y="420.6053">*</text><!--MD5=[ce698a0348dacea28d201157393cc2b9]
link Reservation to CarModel--><path codeLine="52" d="M839.863,388.929 C777.182,418.012 671.573,467.012 605.063,497.871 " fill="none" id="Reservation-CarModel" style="stroke:#A80036;stroke-width:1.0;"/><polygon fill="#000000" points="728.9014,447.6708,738.3433,446.5299,735.8694,441.198,728.9014,447.6708" style="stroke:#000000;stroke-width:1.0;"/><text fill="#000000" font-family="sans-serif" font-size="13" lengthAdjust="spacing" textLength="56" x="742.437" y="450.0669">reserves</text><!--MD5=[6a0c816ed4225dd335dfd1cbbe9e3505]
link Contract to Customer--><path codeLine="59" d="M934.075,238.521 C946.497,248.725 958.059,260.603 966.437,274 C1007.143,339.09 1014.332,430.88 1014.69,483.834 " fill="none" id="Contract-Customer" style="stroke:#A80036;stroke-width:1.0;"/><polygon fill="#000000" points="1012.876,359.3163,1012.9078,368.8268,1018.4919,366.9918,1012.876,359.3163" style="stroke:#000000;stroke-width:1.0;"/><text fill="#000000" font-family="sans-serif" font-size="13" lengthAdjust="spacing" textLength="33" x="1023.437" y="368.5669">signs</text><text fill="#000000" font-family="sans-serif" font-size="13" lengthAdjust="spacing" textLength="7" x="942.0299" y="239.3497">*</text><!--MD5=[6cca602e54c50fadc946652a0977bbb7]
link Contract to Reservation--><path codeLine="60" d="M869.487,244.398 C874.366,270.76 880.283,302.728 884.743,326.83 " fill="none" id="Contract-Reservation" style="stroke:#A80036;stroke-width:1.0;"/><polygon fill="#000000" points="884.3469,287.4829,885.5907,278.054,879.811,279.1237,884.3469,287.4829" style="stroke:#000000;stroke-width:1.0;"/><text fill="#000000" font-family="sans-serif" font-size="13" lengthAdjust="spacing" textLength="65" x="892.437" y="287.0669">relative to</text><text fill="#000000" font-family="sans-serif" font-size="13" lengthAdjust="spacing" textLength="24" x="845.0906" y="264.172">0..1</text><text fill="#000000" font-family="sans-serif" font-size="13" lengthAdjust="spacing" textLength="24" x="857.4131" y="315.9867">0..1</text><!--MD5=[5e2df4cf7bf621eb2ca0886e3295825c]
link Contract to Payment--><path codeLine="61" d="M934.036,227.116 C964.79,240.834 1000.685,257.512 1032.437,274 C1063.102,289.924 1096.312,309.131 1123.842,325.62 " fill="none" id="Contract-Payment" style="stroke:#A80036;stroke-width:1.0;"/><polygon fill="#000000" points="1070.8799,284.8696,1064.2054,278.0945,1061.4979,283.3117,1070.8799,284.8696" style="stroke:#000000;stroke-width:1.0;"/><text fill="#000000" font-family="sans-serif" font-size="13" lengthAdjust="spacing" textLength="85" x="1075.442" y="287.0669">has payment</text><!--MD5=[4db1fbb6b43538619851b0dccb8e0bba]
link Contract to Car--><path codeLine="62" d="M810.474,244.224 C790.656,261.221 766.796,279.02 742.437,291 C690.781,316.405 669.877,299.599 616.437,321 C600.451,327.402 583.769,336.928 570.493,345.289 " fill="none" id="Contract-Car" style="stroke:#A80036;stroke-width:1.0;"/><polygon fill="#000000" points="781.045,280.6258,771.5684,281.4279,773.8497,286.8449,781.045,280.6258" style="stroke:#000000;stroke-width:1.0;"/><text fill="#000000" font-family="sans-serif" font-size="13" lengthAdjust="spacing" textLength="74" x="785.437" y="287.0669">assigned to</text><!--MD5=[2283fa0b7a3c6f7e803247cdc9962b5e]
link Checkout to Contract--><path codeLine="74" d="M598.951,68.019 C652.399,93.667 729.933,130.874 786.695,158.113 " fill="none" id="Checkout-Contract" style="stroke:#A80036;stroke-width:1.0;"/><polygon fill="#000000" points="698.9448,108.7296,692.0616,102.1667,689.5186,107.466,698.9448,108.7296" style="stroke:#000000;stroke-width:1.0;"/><text fill="#000000" font-family="sans-serif" font-size="13" lengthAdjust="spacing" textLength="74" x="703.437" y="111.0669">attached to</text><!--MD5=[21cf0dd1904e1395f4c7a04097ce76dc]
link Checkout to Damage--><path codeLine="75" d="M463.799,52.512 C398.777,65.622 312.72,85.072 302.437,98 C287.986,116.171 288.743,143.029 292.395,163.638 " fill="none" id="Checkout-Damage" style="stroke:#A80036;stroke-width:1.0;"/><polygon fill="#000000" points="303.2416,109.2864,312.4299,106.8319,309.2324,101.8999,303.2416,109.2864" style="stroke:#000000;stroke-width:1.0;"/><text fill="#000000" font-family="sans-serif" font-size="13" lengthAdjust="spacing" textLength="23" x="316.437" y="111.0669">has</text><text fill="#000000" font-family="sans-serif" font-size="13" lengthAdjust="spacing" textLength="7" x="283.0145" y="152.8266">*</text><!--MD5=[d4b35842c7081cef0fecfa10cab2139a]
link Checkout to Customer--><path codeLine="76" d="M611.117,38.458 C777.754,39.999 1176.122,53.412 1266.442,145 C1348.202,227.924 1333.102,314.433 1262.442,407 C1211.992,473.074 1115.552,504.246 1058.632,517.476 " fill="none" id="Checkout-Customer" style="stroke:#A80036;stroke-width:1.0;"/><polygon fill="#000000" points="1323.0287,278.9128,1327.0559,287.5286,1331.351,283.5159,1323.0287,278.9128" style="stroke:#000000;stroke-width:1.0;"/><text fill="#000000" font-family="sans-serif" font-size="13" lengthAdjust="spacing" textLength="33" x="1335.442" y="287.0669">signs</text><text fill="#000000" font-family="sans-serif" font-size="13" lengthAdjust="spacing" textLength="7" x="619.0762" y="34.8672">*</text><!--MD5=[b45c1f6aa79f1b830fba6e4c66eac9e4]
link Checkout to Employee--><path codeLine="77" d="M531.562,68.121 C519.504,126.76 490.869,255.069 464.437,291 C448.378,312.831 423.56,329.97 401.661,342.039 " fill="none" id="Checkout-Employee" style="stroke:#A80036;stroke-width:1.0;"/><polygon fill="#000000" points="521.5795,190.0487,515.0483,196.962,520.3592,199.4806,521.5795,190.0487" style="stroke:#000000;stroke-width:1.0;"/><text fill="#000000" font-family="sans-serif" font-size="13" lengthAdjust="spacing" textLength="59" x="528.437" y="199.0669">performs</text><text fill="#000000" font-family="sans-serif" font-size="13" lengthAdjust="spacing" textLength="7" x="522.6284" y="88.0842">*</text><!--MD5=[4d9fdb0d204a1def546c729951723dd8]
link Checkin to Contract--><path codeLine="83" d="M374.613,52.512 C424.079,68.688 508.703,95.558 582.437,115 C641.87,130.671 658.247,128.438 717.437,145 C740.159,151.357 764.578,159.239 786.694,166.788 " fill="none" id="Checkin-Contract" style="stroke:#A80036;stroke-width:1.0;"/><polygon fill="#000000" points="592.2552,107.9026,584.3244,102.6534,582.7537,108.3175,592.2552,107.9026" style="stroke:#000000;stroke-width:1.0;"/><text fill="#000000" font-family="sans-serif" font-size="13" lengthAdjust="spacing" textLength="65" x="596.437" y="111.0669">relative to</text><!--MD5=[8b7e322bb3a1978ab6502365be223c80]
link Checkin to Damage--><path codeLine="84" d="M290.186,44.088 C257.655,50.852 214.759,65.681 193.437,98 C189.277,104.307 190.023,108.26 193.437,115 C193.919,115.951 229.606,142.039 259.632,163.882 " fill="none" id="Checkin-Damage" style="stroke:#A80036;stroke-width:1.0;"/><polygon fill="#000000" points="197.2013,111.4113,202.2845,103.3731,196.589,101.9205,197.2013,111.4113" style="stroke:#000000;stroke-width:1.0;"/><text fill="#000000" font-family="sans-serif" font-size="13" lengthAdjust="spacing" textLength="54" x="207.437" y="111.0669">has new</text><text fill="#000000" font-family="sans-serif" font-size="13" lengthAdjust="spacing" textLength="7" x="243.4941" y="153.1209">*</text><!--MD5=[8057192d0da8c3a76f90b3876072c699]
link Invoice to Payment--><path codeLine="89" d="M1206.672,225.06 C1202.392,251.639 1196.042,290.978 1191.232,320.852 " fill="none" id="Invoice-Payment" style="stroke:#A80036;stroke-width:1.0;"/><polygon fill="#000000" points="1202.6464,287.5027,1206.9872,279.0405,1201.1842,278.1052,1202.6464,287.5027" style="stroke:#000000;stroke-width:1.0;"/><text fill="#000000" font-family="sans-serif" font-size="13" lengthAdjust="spacing" textLength="62" x="1212.442" y="287.0669">related to</text><!--MD5=[23b432e6a5e8466622c0dcc5dadd7f5f]
@startuml
' CARS company
class CARS
class "Parking site" as ParkingSite
class Address
class Employee
class Car
class "Car Model" as CarModel
CARS o- - "*" ParkingSite
CARS - - "*" CarModel : offers >
ParkingSite - - "*" Car : is parked in <
ParkingSite - - "*" Employee : works in <
ParkingSite - - Address : located at >
Car "*" - - CarModel : describes <
Car : +Tag
CarModel : +ID
CarModel : +Type
CarModel : +Number of seats
ParkingSite : +ID
Address : +City
Address : +Type
Address : +Name
Employee : +ID
Employee : +Name
Employee : +Surname

' Insurances
class Insurer
class Insurance
Insurance "*" - - Insurer : provides <
Insurance "*" - - Car : covered by <
Insurer : +ID
Insurer : +Name
Insurance : +Type

' Customer
class Customer
class "Driver license" as DriverLicense
class "Credit card" as CreditCard
Customer - - DriverLicense
Customer - - CreditCard
Customer : +SSN
Customer : +Name
Customer : +Surname
DriverLicense : +ID
DriverLicense : +Expiration date
CreditCard : +Number
CreditCard : +Expiration date

' Reservation
class Reservation
Reservation "*" - - Customer : reserves <
Reservation - - CarModel : reserves >
Reservation : +Start date
Reservation : +End date

' Check-out - Part 1
class Contract
class Payment
Contract "*" - - Customer : signs <
Contract "0..1" - - "0..1" Reservation : relative to >
Contract - - Payment : has payment >
Contract - - Car : assigned to <
Contract : +ID
Contract : +Start date
Contract : +End date
Contract : +Customer's signature
Payment : +Damage deposit
Payment : +Partial fee
Payment : +Total fee

' Check-out - Part 2
class "Check-out" as Checkout
class Damage
Checkout - - Contract : attached to >
Checkout - - "*" Damage : has >
Checkout "*" - - Customer : signs <
Checkout "*" - - Employee : performs <
Checkout : +Customer's signature
Damage : +Description

' Check-in
class "Check-in" as Checkin
Checkin - - Contract : relative to >
Checkin - - "*" Damage : has new >
Checkin : +End date

' Invoice
class Invoice
Invoice - - Payment : related to >
Invoice : +ID
@enduml

@startuml
class CARS
class "Parking site" as ParkingSite
class Address
class Employee
class Car
class "Car Model" as CarModel
CARS o- - "*" ParkingSite
CARS - - "*" CarModel : offers >
ParkingSite - - "*" Car : is parked in <
ParkingSite - - "*" Employee : works in <
ParkingSite - - Address : located at >
Car "*" - - CarModel : describes <
Car : +Tag
CarModel : +ID
CarModel : +Type
CarModel : +Number of seats
ParkingSite : +ID
Address : +City
Address : +Type
Address : +Name
Employee : +ID
Employee : +Name
Employee : +Surname

class Insurer
class Insurance
Insurance "*" - - Insurer : provides <
Insurance "*" - - Car : covered by <
Insurer : +ID
Insurer : +Name
Insurance : +Type

class Customer
class "Driver license" as DriverLicense
class "Credit card" as CreditCard
Customer - - DriverLicense
Customer - - CreditCard
Customer : +SSN
Customer : +Name
Customer : +Surname
DriverLicense : +ID
DriverLicense : +Expiration date
CreditCard : +Number
CreditCard : +Expiration date

class Reservation
Reservation "*" - - Customer : reserves <
Reservation - - CarModel : reserves >
Reservation : +Start date
Reservation : +End date

class Contract
class Payment
Contract "*" - - Customer : signs <
Contract "0..1" - - "0..1" Reservation : relative to >
Contract - - Payment : has payment >
Contract - - Car : assigned to <
Contract : +ID
Contract : +Start date
Contract : +End date
Contract : +Customer's signature
Payment : +Damage deposit
Payment : +Partial fee
Payment : +Total fee

class "Check-out" as Checkout
class Damage
Checkout - - Contract : attached to >
Checkout - - "*" Damage : has >
Checkout "*" - - Customer : signs <
Checkout "*" - - Employee : performs <
Checkout : +Customer's signature
Damage : +Description

class "Check-in" as Checkin
Checkin - - Contract : relative to >
Checkin - - "*" Damage : has new >
Checkin : +End date

class Invoice
Invoice - - Payment : related to >
Invoice : +ID
@enduml

PlantUML version 1.2021.11beta1(Unknown compile time)
(GPL source distribution)
Java Runtime: Java(TM) SE Runtime Environment
JVM: Java HotSpot(TM) 64-Bit Server VM
Default Encoding: UTF-8
Language: en
Country: US
--></g></svg>