<?xml version="1.0" encoding="UTF-8" standalone="no"?><svg xmlns="http://www.w3.org/2000/svg" xmlns:xlink="http://www.w3.org/1999/xlink" contentScriptType="application/ecmascript" contentStyleType="text/css" height="676px" preserveAspectRatio="none" style="width:1062px;height:676px;background:#FFFFFF;" version="1.1" viewBox="0 0 1062 676" width="1062px" zoomAndPan="magnify"><defs><filter height="300%" id="fe25ki232gi23" width="300%" x="-1" y="-1"><feGaussianBlur result="blurOut" stdDeviation="2.0"/><feColorMatrix in="blurOut" result="blurOut2" type="matrix" values="0 0 0 0 0 0 0 0 0 0 0 0 0 0 0 0 0 0 .4 0"/><feOffset dx="4.0" dy="4.0" in="blurOut2" result="blurOut3"/><feBlend in="SourceGraphic" in2="blurOut3" mode="normal"/></filter></defs><g><!--MD5=[6b5d2134b1718deef408d3baff1e0eed]
class CARS--><rect codeLine="2" fill="#FEFECE" filter="url(#fe25ki232gi23)" height="48" id="CARS" style="stroke:#A80036;stroke-width:1.5;" width="63" x="47.876" y="7"/><ellipse cx="62.876" cy="23" fill="#ADD1B2" rx="11" ry="11" style="stroke:#A80036;stroke-width:1.0;"/><path d="M65.2197,18.6719 C64.2822,18.2344 63.6885,18.0938 62.8135,18.0938 C60.1885,18.0938 58.1885,20.1719 58.1885,22.8906 L58.1885,24.0156 C58.1885,26.5938 60.2979,28.4844 63.1885,28.4844 C64.4072,28.4844 65.5635,28.1875 66.3135,27.6406 C66.8916,27.2344 67.2197,26.7813 67.2197,26.3906 C67.2197,25.9375 66.8291,25.5469 66.3604,25.5469 C66.1416,25.5469 65.9385,25.625 65.751,25.8125 C65.2979,26.2969 65.2979,26.2969 65.1104,26.3906 C64.6885,26.6563 64.001,26.7813 63.2354,26.7813 C61.1885,26.7813 59.8916,25.6875 59.8916,23.9844 L59.8916,22.8906 C59.8916,21.1094 61.1416,19.7969 62.876,19.7969 C63.4541,19.7969 64.0635,19.9531 64.5322,20.2031 C65.0166,20.4844 65.1885,20.7031 65.2822,21.1094 C65.3447,21.5156 65.376,21.6406 65.5166,21.7656 C65.6572,21.9063 65.8916,22.0156 66.1104,22.0156 C66.376,22.0156 66.6416,21.875 66.8135,21.6563 C66.9229,21.5 66.9541,21.3125 66.9541,20.8906 L66.9541,19.4688 C66.9541,19.0313 66.9385,18.9063 66.8447,18.75 C66.6885,18.4844 66.4072,18.3438 66.1104,18.3438 C65.8135,18.3438 65.6104,18.4375 65.3916,18.75 L65.2197,18.6719 Z " fill="#000000"/><text fill="#000000" font-family="sans-serif" font-size="12" lengthAdjust="spacing" textLength="31" x="76.876" y="27.1543">CARS</text><line style="stroke:#A80036;stroke-width:1.5;" x1="48.876" x2="109.876" y1="39" y2="39"/><line style="stroke:#A80036;stroke-width:1.5;" x1="48.876" x2="109.876" y1="47" y2="47"/><!--MD5=[3e63a3587cfc3a4187c5476b2379735b]
class ParkingSite--><rect codeLine="3" fill="#FEFECE" filter="url(#fe25ki232gi23)" height="60.8047" id="ParkingSite" style="stroke:#A80036;stroke-width:1.5;" width="101" x="96.876" y="128.5"/><ellipse cx="111.876" cy="144.5" fill="#ADD1B2" rx="11" ry="11" style="stroke:#A80036;stroke-width:1.0;"/><path d="M114.2198,140.1719 C113.2823,139.7344 112.6885,139.5938 111.8135,139.5938 C109.1885,139.5938 107.1885,141.6719 107.1885,144.3906 L107.1885,145.5156 C107.1885,148.0938 109.2979,149.9844 112.1885,149.9844 C113.4073,149.9844 114.5635,149.6875 115.3135,149.1406 C115.8916,148.7344 116.2198,148.2813 116.2198,147.8906 C116.2198,147.4375 115.8291,147.0469 115.3604,147.0469 C115.1416,147.0469 114.9385,147.125 114.751,147.3125 C114.2979,147.7969 114.2979,147.7969 114.1104,147.8906 C113.6885,148.1563 113.001,148.2813 112.2354,148.2813 C110.1885,148.2813 108.8916,147.1875 108.8916,145.4844 L108.8916,144.3906 C108.8916,142.6094 110.1416,141.2969 111.876,141.2969 C112.4541,141.2969 113.0635,141.4531 113.5323,141.7031 C114.0166,141.9844 114.1885,142.2031 114.2823,142.6094 C114.3448,143.0156 114.376,143.1406 114.5166,143.2656 C114.6573,143.4063 114.8916,143.5156 115.1104,143.5156 C115.376,143.5156 115.6416,143.375 115.8135,143.1563 C115.9229,143 115.9541,142.8125 115.9541,142.3906 L115.9541,140.9688 C115.9541,140.5313 115.9385,140.4063 115.8448,140.25 C115.6885,139.9844 115.4073,139.8438 115.1104,139.8438 C114.8135,139.8438 114.6104,139.9375 114.3916,140.25 L114.2198,140.1719 Z " fill="#000000"/><text fill="#000000" font-family="sans-serif" font-size="12" lengthAdjust="spacing" textLength="69" x="125.876" y="148.6543">Parking site</text><line style="stroke:#A80036;stroke-width:1.5;" x1="97.876" x2="196.876" y1="160.5" y2="160.5"/><ellipse cx="107.876" cy="171.5" rx="3" ry="3" style="stroke:#038048;stroke-width:1.0;fill:none;"/><text fill="#000000" font-family="sans-serif" font-size="11" lengthAdjust="spacing" textLength="12" x="116.876" y="174.7104">ID</text><line style="stroke:#A80036;stroke-width:1.5;" x1="97.876" x2="196.876" y1="181.3047" y2="181.3047"/><!--MD5=[0f39e4cb6f03951afbf6d14bd2505654]
class Address--><rect codeLine="4" fill="#FEFECE" filter="url(#fe25ki232gi23)" height="86.4141" id="Address" style="stroke:#A80036;stroke-width:1.5;" width="83" x="96.876" y="279"/><ellipse cx="111.876" cy="295" fill="#ADD1B2" rx="11" ry="11" style="stroke:#A80036;stroke-width:1.0;"/><path d="M114.2198,290.6719 C113.2823,290.2344 112.6885,290.0938 111.8135,290.0938 C109.1885,290.0938 107.1885,292.1719 107.1885,294.8906 L107.1885,296.0156 C107.1885,298.5938 109.2979,300.4844 112.1885,300.4844 C113.4073,300.4844 114.5635,300.1875 115.3135,299.6406 C115.8916,299.2344 116.2198,298.7813 116.2198,298.3906 C116.2198,297.9375 115.8291,297.5469 115.3604,297.5469 C115.1416,297.5469 114.9385,297.625 114.751,297.8125 C114.2979,298.2969 114.2979,298.2969 114.1104,298.3906 C113.6885,298.6563 113.001,298.7813 112.2354,298.7813 C110.1885,298.7813 108.8916,297.6875 108.8916,295.9844 L108.8916,294.8906 C108.8916,293.1094 110.1416,291.7969 111.876,291.7969 C112.4541,291.7969 113.0635,291.9531 113.5323,292.2031 C114.0166,292.4844 114.1885,292.7031 114.2823,293.1094 C114.3448,293.5156 114.376,293.6406 114.5166,293.7656 C114.6573,293.9063 114.8916,294.0156 115.1104,294.0156 C115.376,294.0156 115.6416,293.875 115.8135,293.6563 C115.9229,293.5 115.9541,293.3125 115.9541,292.8906 L115.9541,291.4688 C115.9541,291.0313 115.9385,290.9063 115.8448,290.75 C115.6885,290.4844 115.4073,290.3438 115.1104,290.3438 C114.8135,290.3438 114.6104,290.4375 114.3916,290.75 L114.2198,290.6719 Z " fill="#000000"/><text fill="#000000" font-family="sans-serif" font-size="12" lengthAdjust="spacing" textLength="51" x="125.876" y="299.1543">Address</text><line style="stroke:#A80036;stroke-width:1.5;" x1="97.876" x2="178.876" y1="311" y2="311"/><ellipse cx="107.876" cy="322" rx="3" ry="3" style="stroke:#038048;stroke-width:1.0;fill:none;"/><text fill="#000000" font-family="sans-serif" font-size="11" lengthAdjust="spacing" textLength="22" x="116.876" y="325.2104">City</text><ellipse cx="107.876" cy="334.8047" rx="3" ry="3" style="stroke:#038048;stroke-width:1.0;fill:none;"/><text fill="#000000" font-family="sans-serif" font-size="11" lengthAdjust="spacing" textLength="29" x="116.876" y="338.0151">Type</text><ellipse cx="107.876" cy="347.6094" rx="3" ry="3" style="stroke:#038048;stroke-width:1.0;fill:none;"/><text fill="#000000" font-family="sans-serif" font-size="11" lengthAdjust="spacing" textLength="34" x="116.876" y="350.8198">Name</text><line style="stroke:#A80036;stroke-width:1.5;" x1="97.876" x2="178.876" y1="357.4141" y2="357.4141"/><!--MD5=[3f0ef310aaa84a542276992c5216544d]
class Car--><rect codeLine="5" fill="#FEFECE" filter="url(#fe25ki232gi23)" height="60.8047" id="Car" style="stroke:#A80036;stroke-width:1.5;" width="52" x="469.3762" y="291.5"/><ellipse cx="484.3762" cy="307.5" fill="#ADD1B2" rx="11" ry="11" style="stroke:#A80036;stroke-width:1.0;"/><path d="M486.72,303.1719 C485.7825,302.7344 485.1887,302.5938 484.3137,302.5938 C481.6887,302.5938 479.6887,304.6719 479.6887,307.3906 L479.6887,308.5156 C479.6887,311.0938 481.7981,312.9844 484.6887,312.9844 C485.9075,312.9844 487.0637,312.6875 487.8137,312.1406 C488.3918,311.7344 488.72,311.2813 488.72,310.8906 C488.72,310.4375 488.3293,310.0469 487.8606,310.0469 C487.6418,310.0469 487.4387,310.125 487.2512,310.3125 C486.7981,310.7969 486.7981,310.7969 486.6106,310.8906 C486.1887,311.1563 485.5012,311.2813 484.7356,311.2813 C482.6887,311.2813 481.3918,310.1875 481.3918,308.4844 L481.3918,307.3906 C481.3918,305.6094 482.6418,304.2969 484.3762,304.2969 C484.9543,304.2969 485.5637,304.4531 486.0325,304.7031 C486.5168,304.9844 486.6887,305.2031 486.7825,305.6094 C486.845,306.0156 486.8762,306.1406 487.0168,306.2656 C487.1575,306.4063 487.3918,306.5156 487.6106,306.5156 C487.8762,306.5156 488.1418,306.375 488.3137,306.1563 C488.4231,306 488.4543,305.8125 488.4543,305.3906 L488.4543,303.9688 C488.4543,303.5313 488.4387,303.4063 488.345,303.25 C488.1887,302.9844 487.9075,302.8438 487.6106,302.8438 C487.3137,302.8438 487.1106,302.9375 486.8918,303.25 L486.72,303.1719 Z " fill="#000000"/><text fill="#000000" font-family="sans-serif" font-size="12" lengthAdjust="spacing" textLength="20" x="498.3762" y="311.6543">Car</text><line style="stroke:#A80036;stroke-width:1.5;" x1="470.3762" x2="520.3762" y1="323.5" y2="323.5"/><ellipse cx="480.3762" cy="334.5" rx="3" ry="3" style="stroke:#038048;stroke-width:1.0;fill:none;"/><text fill="#000000" font-family="sans-serif" font-size="11" lengthAdjust="spacing" textLength="21" x="489.3762" y="337.7104">Tag</text><line style="stroke:#A80036;stroke-width:1.5;" x1="470.3762" x2="520.3762" y1="344.3047" y2="344.3047"/><!--MD5=[590439ac31b017de7682903b3eb7025d]
class CarModel--><rect codeLine="6" fill="#FEFECE" filter="url(#fe25ki232gi23)" height="86.4141" id="CarModel" style="stroke:#A80036;stroke-width:1.5;" width="121" x="434.8762" y="442"/><ellipse cx="462.4762" cy="458" fill="#ADD1B2" rx="11" ry="11" style="stroke:#A80036;stroke-width:1.0;"/><path d="M464.82,453.6719 C463.8825,453.2344 463.2887,453.0938 462.4137,453.0938 C459.7887,453.0938 457.7887,455.1719 457.7887,457.8906 L457.7887,459.0156 C457.7887,461.5938 459.8981,463.4844 462.7887,463.4844 C464.0075,463.4844 465.1637,463.1875 465.9137,462.6406 C466.4918,462.2344 466.82,461.7813 466.82,461.3906 C466.82,460.9375 466.4293,460.5469 465.9606,460.5469 C465.7418,460.5469 465.5387,460.625 465.3512,460.8125 C464.8981,461.2969 464.8981,461.2969 464.7106,461.3906 C464.2887,461.6563 463.6012,461.7813 462.8356,461.7813 C460.7887,461.7813 459.4918,460.6875 459.4918,458.9844 L459.4918,457.8906 C459.4918,456.1094 460.7418,454.7969 462.4762,454.7969 C463.0543,454.7969 463.6637,454.9531 464.1325,455.2031 C464.6168,455.4844 464.7887,455.7031 464.8825,456.1094 C464.945,456.5156 464.9762,456.6406 465.1168,456.7656 C465.2575,456.9063 465.4918,457.0156 465.7106,457.0156 C465.9762,457.0156 466.2418,456.875 466.4137,456.6563 C466.5231,456.5 466.5543,456.3125 466.5543,455.8906 L466.5543,454.4688 C466.5543,454.0313 466.5387,453.9063 466.445,453.75 C466.2887,453.4844 466.0075,453.3438 465.7106,453.3438 C465.4137,453.3438 465.2106,453.4375 464.9918,453.75 L464.82,453.6719 Z " fill="#000000"/><text fill="#000000" font-family="sans-serif" font-size="12" lengthAdjust="spacing" textLength="61" x="479.2762" y="462.1543">Car Model</text><line style="stroke:#A80036;stroke-width:1.5;" x1="435.8762" x2="554.8762" y1="474" y2="474"/><ellipse cx="445.8762" cy="485" rx="3" ry="3" style="stroke:#038048;stroke-width:1.0;fill:none;"/><text fill="#000000" font-family="sans-serif" font-size="11" lengthAdjust="spacing" textLength="12" x="454.8762" y="488.2104">ID</text><ellipse cx="445.8762" cy="497.8047" rx="3" ry="3" style="stroke:#038048;stroke-width:1.0;fill:none;"/><text fill="#000000" font-family="sans-serif" font-size="11" lengthAdjust="spacing" textLength="29" x="454.8762" y="501.0151">Type</text><ellipse cx="445.8762" cy="510.6094" rx="3" ry="3" style="stroke:#038048;stroke-width:1.0;fill:none;"/><text fill="#000000" font-family="sans-serif" font-size="11" lengthAdjust="spacing" textLength="95" x="454.8762" y="513.8198">Number of seats</text><line style="stroke:#A80036;stroke-width:1.5;" x1="435.8762" x2="554.8762" y1="520.4141" y2="520.4141"/><!--MD5=[054f87937b19fa476c097d32744151b9]
class Insurer--><rect codeLine="22" fill="#FEFECE" filter="url(#fe25ki232gi23)" height="73.6094" id="Insurer" style="stroke:#A80036;stroke-width:1.5;" width="74" x="220.3762" y="285"/><ellipse cx="235.3762" cy="301" fill="#ADD1B2" rx="11" ry="11" style="stroke:#A80036;stroke-width:1.0;"/><path d="M237.7199,296.6719 C236.7824,296.2344 236.1887,296.0938 235.3137,296.0938 C232.6887,296.0938 230.6887,298.1719 230.6887,300.8906 L230.6887,302.0156 C230.6887,304.5938 232.7981,306.4844 235.6887,306.4844 C236.9074,306.4844 238.0637,306.1875 238.8137,305.6406 C239.3918,305.2344 239.7199,304.7813 239.7199,304.3906 C239.7199,303.9375 239.3293,303.5469 238.8606,303.5469 C238.6418,303.5469 238.4387,303.625 238.2512,303.8125 C237.7981,304.2969 237.7981,304.2969 237.6106,304.3906 C237.1887,304.6563 236.5012,304.7813 235.7356,304.7813 C233.6887,304.7813 232.3918,303.6875 232.3918,301.9844 L232.3918,300.8906 C232.3918,299.1094 233.6418,297.7969 235.3762,297.7969 C235.9543,297.7969 236.5637,297.9531 237.0324,298.2031 C237.5168,298.4844 237.6887,298.7031 237.7824,299.1094 C237.8449,299.5156 237.8762,299.6406 238.0168,299.7656 C238.1574,299.9063 238.3918,300.0156 238.6106,300.0156 C238.8762,300.0156 239.1418,299.875 239.3137,299.6563 C239.4231,299.5 239.4543,299.3125 239.4543,298.8906 L239.4543,297.4688 C239.4543,297.0313 239.4387,296.9063 239.3449,296.75 C239.1887,296.4844 238.9074,296.3438 238.6106,296.3438 C238.3137,296.3438 238.1106,296.4375 237.8918,296.75 L237.7199,296.6719 Z " fill="#000000"/><text fill="#000000" font-family="sans-serif" font-size="12" lengthAdjust="spacing" textLength="42" x="249.3762" y="305.1543">Insurer</text><line style="stroke:#A80036;stroke-width:1.5;" x1="221.3762" x2="293.3762" y1="317" y2="317"/><ellipse cx="231.3762" cy="328" rx="3" ry="3" style="stroke:#038048;stroke-width:1.0;fill:none;"/><text fill="#000000" font-family="sans-serif" font-size="11" lengthAdjust="spacing" textLength="12" x="240.3762" y="331.2104">ID</text><ellipse cx="231.3762" cy="340.8047" rx="3" ry="3" style="stroke:#038048;stroke-width:1.0;fill:none;"/><text fill="#000000" font-family="sans-serif" font-size="11" lengthAdjust="spacing" textLength="34" x="240.3762" y="344.0151">Name</text><line style="stroke:#A80036;stroke-width:1.5;" x1="221.3762" x2="293.3762" y1="350.6094" y2="350.6094"/><!--MD5=[c447b73724e2937b40b9f78fc0fede8e]
class Insurance--><rect codeLine="23" fill="#FEFECE" filter="url(#fe25ki232gi23)" height="60.8047" id="Insurance" style="stroke:#A80036;stroke-width:1.5;" width="90" x="342.3762" y="128.5"/><ellipse cx="357.3762" cy="144.5" fill="#ADD1B2" rx="11" ry="11" style="stroke:#A80036;stroke-width:1.0;"/><path d="M359.72,140.1719 C358.7825,139.7344 358.1887,139.5938 357.3137,139.5938 C354.6887,139.5938 352.6887,141.6719 352.6887,144.3906 L352.6887,145.5156 C352.6887,148.0938 354.7981,149.9844 357.6887,149.9844 C358.9075,149.9844 360.0637,149.6875 360.8137,149.1406 C361.3918,148.7344 361.72,148.2813 361.72,147.8906 C361.72,147.4375 361.3293,147.0469 360.8606,147.0469 C360.6418,147.0469 360.4387,147.125 360.2512,147.3125 C359.7981,147.7969 359.7981,147.7969 359.6106,147.8906 C359.1887,148.1563 358.5012,148.2813 357.7356,148.2813 C355.6887,148.2813 354.3918,147.1875 354.3918,145.4844 L354.3918,144.3906 C354.3918,142.6094 355.6418,141.2969 357.3762,141.2969 C357.9543,141.2969 358.5637,141.4531 359.0325,141.7031 C359.5168,141.9844 359.6887,142.2031 359.7825,142.6094 C359.845,143.0156 359.8762,143.1406 360.0168,143.2656 C360.1575,143.4063 360.3918,143.5156 360.6106,143.5156 C360.8762,143.5156 361.1418,143.375 361.3137,143.1563 C361.4231,143 361.4543,142.8125 361.4543,142.3906 L361.4543,140.9688 C361.4543,140.5313 361.4387,140.4063 361.345,140.25 C361.1887,139.9844 360.9075,139.8438 360.6106,139.8438 C360.3137,139.8438 360.1106,139.9375 359.8918,140.25 L359.72,140.1719 Z " fill="#000000"/><text fill="#000000" font-family="sans-serif" font-size="12" lengthAdjust="spacing" textLength="58" x="371.3762" y="148.6543">Insurance</text><line style="stroke:#A80036;stroke-width:1.5;" x1="343.3762" x2="431.3762" y1="160.5" y2="160.5"/><ellipse cx="353.3762" cy="171.5" rx="3" ry="3" style="stroke:#038048;stroke-width:1.0;fill:none;"/><text fill="#000000" font-family="sans-serif" font-size="11" lengthAdjust="spacing" textLength="29" x="362.3762" y="174.7104">Type</text><line style="stroke:#A80036;stroke-width:1.5;" x1="343.3762" x2="431.3762" y1="181.3047" y2="181.3047"/><!--MD5=[2ce0c9fb7f55b1e256ab28a8ea6b25ec]
class Customer--><rect codeLine="31" fill="#FEFECE" filter="url(#fe25ki232gi23)" height="86.4141" id="Customer" style="stroke:#A80036;stroke-width:1.5;" width="90" x="698.3762" y="442"/><ellipse cx="713.3762" cy="458" fill="#ADD1B2" rx="11" ry="11" style="stroke:#A80036;stroke-width:1.0;"/><path d="M715.72,453.6719 C714.7825,453.2344 714.1887,453.0938 713.3137,453.0938 C710.6887,453.0938 708.6887,455.1719 708.6887,457.8906 L708.6887,459.0156 C708.6887,461.5938 710.7981,463.4844 713.6887,463.4844 C714.9075,463.4844 716.0637,463.1875 716.8137,462.6406 C717.3918,462.2344 717.72,461.7813 717.72,461.3906 C717.72,460.9375 717.3293,460.5469 716.8606,460.5469 C716.6418,460.5469 716.4387,460.625 716.2512,460.8125 C715.7981,461.2969 715.7981,461.2969 715.6106,461.3906 C715.1887,461.6563 714.5012,461.7813 713.7356,461.7813 C711.6887,461.7813 710.3918,460.6875 710.3918,458.9844 L710.3918,457.8906 C710.3918,456.1094 711.6418,454.7969 713.3762,454.7969 C713.9543,454.7969 714.5637,454.9531 715.0325,455.2031 C715.5168,455.4844 715.6887,455.7031 715.7825,456.1094 C715.845,456.5156 715.8762,456.6406 716.0168,456.7656 C716.1575,456.9063 716.3918,457.0156 716.6106,457.0156 C716.8762,457.0156 717.1418,456.875 717.3137,456.6563 C717.4231,456.5 717.4543,456.3125 717.4543,455.8906 L717.4543,454.4688 C717.4543,454.0313 717.4387,453.9063 717.345,453.75 C717.1887,453.4844 716.9075,453.3438 716.6106,453.3438 C716.3137,453.3438 716.1106,453.4375 715.8918,453.75 L715.72,453.6719 Z " fill="#000000"/><text fill="#000000" font-family="sans-serif" font-size="12" lengthAdjust="spacing" textLength="58" x="727.3762" y="462.1543">Customer</text><line style="stroke:#A80036;stroke-width:1.5;" x1="699.3762" x2="787.3762" y1="474" y2="474"/><ellipse cx="709.3762" cy="485" rx="3" ry="3" style="stroke:#038048;stroke-width:1.0;fill:none;"/><text fill="#000000" font-family="sans-serif" font-size="11" lengthAdjust="spacing" textLength="24" x="718.3762" y="488.2104">SSN</text><ellipse cx="709.3762" cy="497.8047" rx="3" ry="3" style="stroke:#038048;stroke-width:1.0;fill:none;"/><text fill="#000000" font-family="sans-serif" font-size="11" lengthAdjust="spacing" textLength="34" x="718.3762" y="501.0151">Name</text><ellipse cx="709.3762" cy="510.6094" rx="3" ry="3" style="stroke:#038048;stroke-width:1.0;fill:none;"/><text fill="#000000" font-family="sans-serif" font-size="11" lengthAdjust="spacing" textLength="52" x="718.3762" y="513.8198">Surname</text><line style="stroke:#A80036;stroke-width:1.5;" x1="699.3762" x2="787.3762" y1="520.4141" y2="520.4141"/><!--MD5=[5999a290c6b468e29c073bd2553f28d1]
class DriverLicense--><rect codeLine="32" fill="#FEFECE" filter="url(#fe25ki232gi23)" height="73.6094" id="DriverLicense" style="stroke:#A80036;stroke-width:1.5;" width="116" x="610.3762" y="589"/><ellipse cx="625.3762" cy="605" fill="#ADD1B2" rx="11" ry="11" style="stroke:#A80036;stroke-width:1.0;"/><path d="M627.72,600.6719 C626.7825,600.2344 626.1887,600.0938 625.3137,600.0938 C622.6887,600.0938 620.6887,602.1719 620.6887,604.8906 L620.6887,606.0156 C620.6887,608.5938 622.7981,610.4844 625.6887,610.4844 C626.9075,610.4844 628.0637,610.1875 628.8137,609.6406 C629.3918,609.2344 629.72,608.7813 629.72,608.3906 C629.72,607.9375 629.3293,607.5469 628.8606,607.5469 C628.6418,607.5469 628.4387,607.625 628.2512,607.8125 C627.7981,608.2969 627.7981,608.2969 627.6106,608.3906 C627.1887,608.6563 626.5012,608.7813 625.7356,608.7813 C623.6887,608.7813 622.3918,607.6875 622.3918,605.9844 L622.3918,604.8906 C622.3918,603.1094 623.6418,601.7969 625.3762,601.7969 C625.9543,601.7969 626.5637,601.9531 627.0325,602.2031 C627.5168,602.4844 627.6887,602.7031 627.7825,603.1094 C627.845,603.5156 627.8762,603.6406 628.0168,603.7656 C628.1575,603.9063 628.3918,604.0156 628.6106,604.0156 C628.8762,604.0156 629.1418,603.875 629.3137,603.6563 C629.4231,603.5 629.4543,603.3125 629.4543,602.8906 L629.4543,601.4688 C629.4543,601.0313 629.4387,600.9063 629.345,600.75 C629.1887,600.4844 628.9075,600.3438 628.6106,600.3438 C628.3137,600.3438 628.1106,600.4375 627.8918,600.75 L627.72,600.6719 Z " fill="#000000"/><text fill="#000000" font-family="sans-serif" font-size="12" lengthAdjust="spacing" textLength="84" x="639.3762" y="609.1543">Driver license</text><line style="stroke:#A80036;stroke-width:1.5;" x1="611.3762" x2="725.3762" y1="621" y2="621"/><ellipse cx="621.3762" cy="632" rx="3" ry="3" style="stroke:#038048;stroke-width:1.0;fill:none;"/><text fill="#000000" font-family="sans-serif" font-size="11" lengthAdjust="spacing" textLength="12" x="630.3762" y="635.2104">ID</text><ellipse cx="621.3762" cy="644.8047" rx="3" ry="3" style="stroke:#038048;stroke-width:1.0;fill:none;"/><text fill="#000000" font-family="sans-serif" font-size="11" lengthAdjust="spacing" textLength="86" x="630.3762" y="648.0151">Expiration date</text><line style="stroke:#A80036;stroke-width:1.5;" x1="611.3762" x2="725.3762" y1="654.6094" y2="654.6094"/><!--MD5=[91d4151b6d4c9a3d01b6d84b2458eece]
class CreditCard--><rect codeLine="33" fill="#FEFECE" filter="url(#fe25ki232gi23)" height="73.6094" id="CreditCard" style="stroke:#A80036;stroke-width:1.5;" width="112" x="761.3762" y="589"/><ellipse cx="782.2262" cy="605" fill="#ADD1B2" rx="11" ry="11" style="stroke:#A80036;stroke-width:1.0;"/><path d="M784.57,600.6719 C783.6325,600.2344 783.0387,600.0938 782.1637,600.0938 C779.5387,600.0938 777.5387,602.1719 777.5387,604.8906 L777.5387,606.0156 C777.5387,608.5938 779.6481,610.4844 782.5387,610.4844 C783.7575,610.4844 784.9137,610.1875 785.6637,609.6406 C786.2418,609.2344 786.57,608.7813 786.57,608.3906 C786.57,607.9375 786.1793,607.5469 785.7106,607.5469 C785.4918,607.5469 785.2887,607.625 785.1012,607.8125 C784.6481,608.2969 784.6481,608.2969 784.4606,608.3906 C784.0387,608.6563 783.3512,608.7813 782.5856,608.7813 C780.5387,608.7813 779.2418,607.6875 779.2418,605.9844 L779.2418,604.8906 C779.2418,603.1094 780.4918,601.7969 782.2262,601.7969 C782.8043,601.7969 783.4137,601.9531 783.8825,602.2031 C784.3668,602.4844 784.5387,602.7031 784.6325,603.1094 C784.695,603.5156 784.7262,603.6406 784.8668,603.7656 C785.0075,603.9063 785.2418,604.0156 785.4606,604.0156 C785.7262,604.0156 785.9918,603.875 786.1637,603.6563 C786.2731,603.5 786.3043,603.3125 786.3043,602.8906 L786.3043,601.4688 C786.3043,601.0313 786.2887,600.9063 786.195,600.75 C786.0387,600.4844 785.7575,600.3438 785.4606,600.3438 C785.1637,600.3438 784.9606,600.4375 784.7418,600.75 L784.57,600.6719 Z " fill="#000000"/><text fill="#000000" font-family="sans-serif" font-size="12" lengthAdjust="spacing" textLength="67" x="797.5262" y="609.1543">Credit card</text><line style="stroke:#A80036;stroke-width:1.5;" x1="762.3762" x2="872.3762" y1="621" y2="621"/><ellipse cx="772.3762" cy="632" rx="3" ry="3" style="stroke:#038048;stroke-width:1.0;fill:none;"/><text fill="#000000" font-family="sans-serif" font-size="11" lengthAdjust="spacing" textLength="45" x="781.3762" y="635.2104">Number</text><ellipse cx="772.3762" cy="644.8047" rx="3" ry="3" style="stroke:#038048;stroke-width:1.0;fill:none;"/><text fill="#000000" font-family="sans-serif" font-size="11" lengthAdjust="spacing" textLength="86" x="781.3762" y="648.0151">Expiration date</text><line style="stroke:#A80036;stroke-width:1.5;" x1="762.3762" x2="872.3762" y1="654.6094" y2="654.6094"/><!--MD5=[9c46470aa33a0c75e6d1dfdefc2f9c22]
class Reservation--><rect codeLine="45" fill="#FEFECE" filter="url(#fe25ki232gi23)" height="73.6094" id="Reservation" style="stroke:#A80036;stroke-width:1.5;" width="103" x="691.8762" y="285"/><ellipse cx="706.8762" cy="301" fill="#ADD1B2" rx="11" ry="11" style="stroke:#A80036;stroke-width:1.0;"/><path d="M709.22,296.6719 C708.2825,296.2344 707.6887,296.0938 706.8137,296.0938 C704.1887,296.0938 702.1887,298.1719 702.1887,300.8906 L702.1887,302.0156 C702.1887,304.5938 704.2981,306.4844 707.1887,306.4844 C708.4075,306.4844 709.5637,306.1875 710.3137,305.6406 C710.8918,305.2344 711.22,304.7813 711.22,304.3906 C711.22,303.9375 710.8293,303.5469 710.3606,303.5469 C710.1418,303.5469 709.9387,303.625 709.7512,303.8125 C709.2981,304.2969 709.2981,304.2969 709.1106,304.3906 C708.6887,304.6563 708.0012,304.7813 707.2356,304.7813 C705.1887,304.7813 703.8918,303.6875 703.8918,301.9844 L703.8918,300.8906 C703.8918,299.1094 705.1418,297.7969 706.8762,297.7969 C707.4543,297.7969 708.0637,297.9531 708.5325,298.2031 C709.0168,298.4844 709.1887,298.7031 709.2825,299.1094 C709.345,299.5156 709.3762,299.6406 709.5168,299.7656 C709.6575,299.9063 709.8918,300.0156 710.1106,300.0156 C710.3762,300.0156 710.6418,299.875 710.8137,299.6563 C710.9231,299.5 710.9543,299.3125 710.9543,298.8906 L710.9543,297.4688 C710.9543,297.0313 710.9387,296.9063 710.845,296.75 C710.6887,296.4844 710.4075,296.3438 710.1106,296.3438 C709.8137,296.3438 709.6106,296.4375 709.3918,296.75 L709.22,296.6719 Z " fill="#000000"/><text fill="#000000" font-family="sans-serif" font-size="12" lengthAdjust="spacing" textLength="71" x="720.8762" y="305.1543">Reservation</text><line style="stroke:#A80036;stroke-width:1.5;" x1="692.8762" x2="793.8762" y1="317" y2="317"/><ellipse cx="702.8762" cy="328" rx="3" ry="3" style="stroke:#038048;stroke-width:1.0;fill:none;"/><text fill="#000000" font-family="sans-serif" font-size="11" lengthAdjust="spacing" textLength="57" x="711.8762" y="331.2104">Start date</text><ellipse cx="702.8762" cy="340.8047" rx="3" ry="3" style="stroke:#038048;stroke-width:1.0;fill:none;"/><text fill="#000000" font-family="sans-serif" font-size="11" lengthAdjust="spacing" textLength="51" x="711.8762" y="344.0151">End date</text><line style="stroke:#A80036;stroke-width:1.5;" x1="692.8762" x2="793.8762" y1="350.6094" y2="350.6094"/><!--MD5=[931c2459a5b1ef2b405e84c8dc93c38e]
class Rental--><rect codeLine="52" fill="#FEFECE" filter="url(#fe25ki232gi23)" height="86.4141" id="Rental" style="stroke:#A80036;stroke-width:1.5;" width="83" x="709.8762" y="116"/><ellipse cx="731.6262" cy="132" fill="#ADD1B2" rx="11" ry="11" style="stroke:#A80036;stroke-width:1.0;"/><path d="M733.97,127.6719 C733.0325,127.2344 732.4387,127.0938 731.5637,127.0938 C728.9387,127.0938 726.9387,129.1719 726.9387,131.8906 L726.9387,133.0156 C726.9387,135.5938 729.0481,137.4844 731.9387,137.4844 C733.1575,137.4844 734.3137,137.1875 735.0637,136.6406 C735.6418,136.2344 735.97,135.7813 735.97,135.3906 C735.97,134.9375 735.5793,134.5469 735.1106,134.5469 C734.8918,134.5469 734.6887,134.625 734.5012,134.8125 C734.0481,135.2969 734.0481,135.2969 733.8606,135.3906 C733.4387,135.6563 732.7512,135.7813 731.9856,135.7813 C729.9387,135.7813 728.6418,134.6875 728.6418,132.9844 L728.6418,131.8906 C728.6418,130.1094 729.8918,128.7969 731.6262,128.7969 C732.2043,128.7969 732.8137,128.9531 733.2825,129.2031 C733.7668,129.4844 733.9387,129.7031 734.0325,130.1094 C734.095,130.5156 734.1262,130.6406 734.2668,130.7656 C734.4075,130.9063 734.6418,131.0156 734.8606,131.0156 C735.1262,131.0156 735.3918,130.875 735.5637,130.6563 C735.6731,130.5 735.7043,130.3125 735.7043,129.8906 L735.7043,128.4688 C735.7043,128.0313 735.6887,127.9063 735.595,127.75 C735.4387,127.4844 735.1575,127.3438 734.8606,127.3438 C734.5637,127.3438 734.3606,127.4375 734.1418,127.75 L733.97,127.6719 Z " fill="#000000"/><text fill="#000000" font-family="sans-serif" font-size="12" lengthAdjust="spacing" textLength="36" x="747.1262" y="136.1543">Rental</text><line style="stroke:#A80036;stroke-width:1.5;" x1="710.8762" x2="791.8762" y1="148" y2="148"/><ellipse cx="720.8762" cy="159" rx="3" ry="3" style="stroke:#038048;stroke-width:1.0;fill:none;"/><text fill="#000000" font-family="sans-serif" font-size="11" lengthAdjust="spacing" textLength="12" x="729.8762" y="162.2104">ID</text><ellipse cx="720.8762" cy="171.8047" rx="3" ry="3" style="stroke:#038048;stroke-width:1.0;fill:none;"/><text fill="#000000" font-family="sans-serif" font-size="11" lengthAdjust="spacing" textLength="57" x="729.8762" y="175.0151">Start date</text><ellipse cx="720.8762" cy="184.6094" rx="3" ry="3" style="stroke:#038048;stroke-width:1.0;fill:none;"/><text fill="#000000" font-family="sans-serif" font-size="11" lengthAdjust="spacing" textLength="51" x="729.8762" y="187.8198">End date</text><line style="stroke:#A80036;stroke-width:1.5;" x1="710.8762" x2="791.8762" y1="194.4141" y2="194.4141"/><!--MD5=[764fca796ce7f635542948d8fc39db5e]
class Payment--><rect codeLine="53" fill="#FEFECE" filter="url(#fe25ki232gi23)" height="60.8047" id="Payment" style="stroke:#A80036;stroke-width:1.5;" width="82" x="900.3762" y="291.5"/><ellipse cx="915.3762" cy="307.5" fill="#ADD1B2" rx="11" ry="11" style="stroke:#A80036;stroke-width:1.0;"/><path d="M917.72,303.1719 C916.7825,302.7344 916.1887,302.5938 915.3137,302.5938 C912.6887,302.5938 910.6887,304.6719 910.6887,307.3906 L910.6887,308.5156 C910.6887,311.0938 912.7981,312.9844 915.6887,312.9844 C916.9075,312.9844 918.0637,312.6875 918.8137,312.1406 C919.3918,311.7344 919.72,311.2813 919.72,310.8906 C919.72,310.4375 919.3293,310.0469 918.8606,310.0469 C918.6418,310.0469 918.4387,310.125 918.2512,310.3125 C917.7981,310.7969 917.7981,310.7969 917.6106,310.8906 C917.1887,311.1563 916.5012,311.2813 915.7356,311.2813 C913.6887,311.2813 912.3918,310.1875 912.3918,308.4844 L912.3918,307.3906 C912.3918,305.6094 913.6418,304.2969 915.3762,304.2969 C915.9543,304.2969 916.5637,304.4531 917.0325,304.7031 C917.5168,304.9844 917.6887,305.2031 917.7825,305.6094 C917.845,306.0156 917.8762,306.1406 918.0168,306.2656 C918.1575,306.4063 918.3918,306.5156 918.6106,306.5156 C918.8762,306.5156 919.1418,306.375 919.3137,306.1563 C919.4231,306 919.4543,305.8125 919.4543,305.3906 L919.4543,303.9688 C919.4543,303.5313 919.4387,303.4063 919.345,303.25 C919.1887,302.9844 918.9075,302.8438 918.6106,302.8438 C918.3137,302.8438 918.1106,302.9375 917.8918,303.25 L917.72,303.1719 Z " fill="#000000"/><text fill="#000000" font-family="sans-serif" font-size="12" lengthAdjust="spacing" textLength="50" x="929.3762" y="311.6543">Payment</text><line style="stroke:#A80036;stroke-width:1.5;" x1="901.3762" x2="981.3762" y1="323.5" y2="323.5"/><ellipse cx="911.3762" cy="334.5" rx="3" ry="3" style="stroke:#038048;stroke-width:1.0;fill:none;"/><text fill="#000000" font-family="sans-serif" font-size="11" lengthAdjust="spacing" textLength="44" x="920.3762" y="337.7104">Amount</text><line style="stroke:#A80036;stroke-width:1.5;" x1="901.3762" x2="981.3762" y1="344.3047" y2="344.3047"/><!--MD5=[894442645724153f40a9f7a43026dbfc]
class Invoice--><rect codeLine="63" fill="#FEFECE" filter="url(#fe25ki232gi23)" height="60.8047" id="Invoice" style="stroke:#A80036;stroke-width:1.5;" width="75" x="973.8762" y="128.5"/><ellipse cx="988.8762" cy="144.5" fill="#ADD1B2" rx="11" ry="11" style="stroke:#A80036;stroke-width:1.0;"/><path d="M991.22,140.1719 C990.2825,139.7344 989.6887,139.5938 988.8137,139.5938 C986.1887,139.5938 984.1887,141.6719 984.1887,144.3906 L984.1887,145.5156 C984.1887,148.0938 986.2981,149.9844 989.1887,149.9844 C990.4075,149.9844 991.5637,149.6875 992.3137,149.1406 C992.8918,148.7344 993.22,148.2813 993.22,147.8906 C993.22,147.4375 992.8293,147.0469 992.3606,147.0469 C992.1418,147.0469 991.9387,147.125 991.7512,147.3125 C991.2981,147.7969 991.2981,147.7969 991.1106,147.8906 C990.6887,148.1563 990.0012,148.2813 989.2356,148.2813 C987.1887,148.2813 985.8918,147.1875 985.8918,145.4844 L985.8918,144.3906 C985.8918,142.6094 987.1418,141.2969 988.8762,141.2969 C989.4543,141.2969 990.0637,141.4531 990.5325,141.7031 C991.0168,141.9844 991.1887,142.2031 991.2825,142.6094 C991.345,143.0156 991.3762,143.1406 991.5168,143.2656 C991.6575,143.4063 991.8918,143.5156 992.1106,143.5156 C992.3762,143.5156 992.6418,143.375 992.8137,143.1563 C992.9231,143 992.9543,142.8125 992.9543,142.3906 L992.9543,140.9688 C992.9543,140.5313 992.9387,140.4063 992.845,140.25 C992.6887,139.9844 992.4075,139.8438 992.1106,139.8438 C991.8137,139.8438 991.6106,139.9375 991.3918,140.25 L991.22,140.1719 Z " fill="#000000"/><text fill="#000000" font-family="sans-serif" font-size="12" lengthAdjust="spacing" textLength="43" x="1002.8762" y="148.6543">Invoice</text><line style="stroke:#A80036;stroke-width:1.5;" x1="974.8762" x2="1047.8762" y1="160.5" y2="160.5"/><ellipse cx="984.8762" cy="171.5" rx="3" ry="3" style="stroke:#038048;stroke-width:1.0;fill:none;"/><text fill="#000000" font-family="sans-serif" font-size="11" lengthAdjust="spacing" textLength="12" x="993.8762" y="174.7104">ID</text><line style="stroke:#A80036;stroke-width:1.5;" x1="974.8762" x2="1047.8762" y1="181.3047" y2="181.3047"/><!--MD5=[3f2200ee59b7ff328547c16fcaa82aaa]
reverse link CARS to ParkingSite--><path codeLine="7" d="M98.1441,66.776 C108.5794,86.112 121.4278,109.919 131.382,128.364 " fill="none" id="CARS-backto-ParkingSite" style="stroke:#A80036;stroke-width:1.0;"/><polygon fill="#FFFFFF" points="91.8482,55.11,91.1778,62.2899,97.5475,65.6702,98.2179,58.4903,91.8482,55.11" style="stroke:#A80036;stroke-width:1.0;"/><text fill="#000000" font-family="sans-serif" font-size="13" lengthAdjust="spacing" textLength="7" x="120.3614" y="117.5992">*</text><!--MD5=[d37b3934b94f6a41b3abc66745ff87de]
link CARS to CarModel--><path codeLine="8" d="M70.6395,55.301 C50.1402,114.381 6,271.931 79.376,365 C123.4424,420.893 330.2162,459.244 434.6672,475.397 " fill="none" id="CARS-CarModel" style="stroke:#A80036;stroke-width:1.0;"/><polygon fill="#000000" points="47.6504,244.3451,43.948,235.5848,39.5059,239.434,47.6504,244.3451" style="stroke:#000000;stroke-width:1.0;"/><text fill="#000000" font-family="sans-serif" font-size="13" lengthAdjust="spacing" textLength="38" x="53.376" y="245.0669">offers</text><text fill="#000000" font-family="sans-serif" font-size="13" lengthAdjust="spacing" textLength="7" x="419.8417" y="470.3623">*</text><!--MD5=[0bb5ecd22f769035943466e1f175b6da]
link ParkingSite to Car--><path codeLine="9" d="M197.9462,178.392 C234.6002,192.138 285.1152,211.943 328.3762,232 C329.2682,232.413 422.2742,282.01 469.0842,306.976 " fill="none" id="ParkingSite-Car" style="stroke:#A80036;stroke-width:1.0;"/><polygon fill="#000000" points="357.8585,238.4239,364.7718,244.9552,367.2904,239.6443,357.8585,238.4239" style="stroke:#000000;stroke-width:1.0;"/><text fill="#000000" font-family="sans-serif" font-size="13" lengthAdjust="spacing" textLength="73" x="371.3762" y="245.0669">is parked in</text><text fill="#000000" font-family="sans-serif" font-size="13" lengthAdjust="spacing" textLength="7" x="454.45" y="298.3132">*</text><!--MD5=[5bfc8a85a28873f5396f08cff86728d7]
link ParkingSite to Address--><path codeLine="10" d="M141.3042,189.638 C138.9462,202.583 136.5362,217.982 135.376,232 C134.1136,247.253 134.2762,264.019 134.9505,278.847 " fill="none" id="ParkingSite-Address" style="stroke:#A80036;stroke-width:1.0;"/><polygon fill="#000000" points="140.0208,245.5538,143.5949,236.7403,137.7319,236.3228,140.0208,245.5538" style="stroke:#000000;stroke-width:1.0;"/><text fill="#000000" font-family="sans-serif" font-size="13" lengthAdjust="spacing" textLength="64" x="149.376" y="245.0669">located at</text><!--MD5=[b93b373ada3841d2c88bbb890cab4936]
link Car to CarModel--><path codeLine="11" d="M495.3762,352.53 C495.3762,377.585 495.3762,413.831 495.3762,441.923 " fill="none" id="Car-CarModel" style="stroke:#A80036;stroke-width:1.0;"/><polygon fill="#000000" points="500.3762,398.5664,497.4373,407.6115,503.3151,407.6115,500.3762,398.5664" style="stroke:#000000;stroke-width:1.0;"/><text fill="#000000" font-family="sans-serif" font-size="13" lengthAdjust="spacing" textLength="61" x="509.3762" y="408.0669">describes</text><text fill="#000000" font-family="sans-serif" font-size="13" lengthAdjust="spacing" textLength="7" x="487.6543" y="372.4744">*</text><!--MD5=[f1f9b6f25047388ffbf25aa240c8f3fd]
link Insurance to Insurer--><path codeLine="24" d="M342.1162,171.39 C311.4752,181.715 273.2572,200.308 254.3762,232 C245.0392,247.672 244.9462,267.806 247.5612,284.958 " fill="none" id="Insurance-Insurer" style="stroke:#A80036;stroke-width:1.0;"/><polygon fill="#000000" points="262.5754,236.7239,254.5294,241.7946,259.0465,245.5555,262.5754,236.7239" style="stroke:#000000;stroke-width:1.0;"/><text fill="#000000" font-family="sans-serif" font-size="13" lengthAdjust="spacing" textLength="55" x="268.3762" y="245.0669">provides</text><text fill="#000000" font-family="sans-serif" font-size="13" lengthAdjust="spacing" textLength="7" x="327.3451" y="169.2624">*</text><!--MD5=[6c30fed22086064e70b0965e3cf6793a]
link Insurance to Car--><path codeLine="25" d="M420.5412,189.817 C432.8622,202.05 446.2832,216.88 456.3762,232 C468.6452,250.381 478.5692,273.255 485.3372,291.211 " fill="none" id="Insurance-Car" style="stroke:#A80036;stroke-width:1.0;"/><polygon fill="#000000" points="468.6838,236.3532,471.078,245.5575,476.0309,242.3924,468.6838,236.3532" style="stroke:#000000;stroke-width:1.0;"/><text fill="#000000" font-family="sans-serif" font-size="13" lengthAdjust="spacing" textLength="72" x="480.3762" y="245.0669">covered by</text><text fill="#000000" font-family="sans-serif" font-size="13" lengthAdjust="spacing" textLength="7" x="419.3815" y="209.4599">*</text><!--MD5=[aeaf9200cbaa7c7c08444b4bc8b3369b]
link Customer to DriverLicense--><path codeLine="34" d="M720.6702,528.082 C710.2362,547.419 697.9832,570.1282 687.9612,588.702 " fill="none" id="Customer-DriverLicense" style="stroke:#A80036;stroke-width:1.0;"/><!--MD5=[64f0e157b9264e99419c5f82d7e84fb1]
link Customer to CreditCard--><path codeLine="35" d="M765.7792,528.082 C776.0742,547.419 788.1632,570.1282 798.0522,588.702 " fill="none" id="Customer-CreditCard" style="stroke:#A80036;stroke-width:1.0;"/><!--MD5=[084ed435efc901fd8b74a4436d3ced04]
link Reservation to Customer--><path codeLine="46" d="M743.3762,359.132 C743.3762,383.607 743.3762,416.041 743.3762,441.719 " fill="none" id="Reservation-Customer" style="stroke:#A80036;stroke-width:1.0;"/><polygon fill="#000000" points="748.3762,398.5664,745.4373,407.6115,751.3151,407.6115,748.3762,398.5664" style="stroke:#000000;stroke-width:1.0;"/><text fill="#000000" font-family="sans-serif" font-size="13" lengthAdjust="spacing" textLength="56" x="757.3762" y="408.0669">reserves</text><text fill="#000000" font-family="sans-serif" font-size="13" lengthAdjust="spacing" textLength="7" x="735.7965" y="378.6344">*</text><!--MD5=[ce698a0348dacea28d201157393cc2b9]
link Reservation to CarModel--><path codeLine="47" d="M691.6892,356.555 C652.2252,382.175 597.7402,417.546 556.1812,444.526 " fill="none" id="Reservation-CarModel" style="stroke:#A80036;stroke-width:1.0;"/><polygon fill="#000000" points="627.1824,406.289,636.3693,403.8288,633.1687,398.8988,627.1824,406.289" style="stroke:#000000;stroke-width:1.0;"/><text fill="#000000" font-family="sans-serif" font-size="13" lengthAdjust="spacing" textLength="56" x="640.3762" y="408.0669">reserves</text><!--MD5=[badfa0d16d4219cadd67de4ff8295934]
link Rental to Reservation--><path codeLine="54" d="M749.2742,202.301 C747.9962,228.015 746.3822,260.499 745.1662,284.981 " fill="none" id="Rental-Reservation" style="stroke:#A80036;stroke-width:1.0;"/><polygon fill="#000000" points="752.1281,245.5602,755.5122,236.6721,749.6416,236.3805,752.1281,245.5602" style="stroke:#000000;stroke-width:1.0;"/><text fill="#000000" font-family="sans-serif" font-size="13" lengthAdjust="spacing" textLength="65" x="761.3762" y="245.0669">relative to</text><text fill="#000000" font-family="sans-serif" font-size="13" lengthAdjust="spacing" textLength="24" x="723.0267" y="222.4419">0..1</text><!--MD5=[5f99c74083f6673ca3d55e65c6ade5b1]
link Rental to Payment--><path codeLine="55" d="M793.0722,195.332 C827.0452,224.12 874.4642,264.301 906.4602,291.414 " fill="none" id="Rental-Payment" style="stroke:#A80036;stroke-width:1.0;"/><polygon fill="#000000" points="860.1908,243.7988,855.1901,235.7091,851.3901,240.1935,860.1908,243.7988" style="stroke:#000000;stroke-width:1.0;"/><text fill="#000000" font-family="sans-serif" font-size="13" lengthAdjust="spacing" textLength="85" x="865.3762" y="245.0669">has payment</text><!--MD5=[ecb5ede8695547817815f2a3c7411f0e]
link Rental to Car--><path codeLine="56" d="M709.6752,186.226 C656.4032,219.729 565.8012,276.709 521.4282,304.616 " fill="none" id="Rental-Car" style="stroke:#A80036;stroke-width:1.0;"/><polygon fill="#000000" points="639.6087,237.9045,630.3874,240.2321,633.5166,245.2077,639.6087,237.9045" style="stroke:#000000;stroke-width:1.0;"/><text fill="#000000" font-family="sans-serif" font-size="13" lengthAdjust="spacing" textLength="74" x="644.3762" y="245.0669">assigned to</text><!--MD5=[8057192d0da8c3a76f90b3876072c699]
link Invoice to Payment--><path codeLine="64" d="M998.5372,189.53 C985.9462,218.489 966.8552,262.397 954.2522,291.385 " fill="none" id="Invoice-Payment" style="stroke:#A80036;stroke-width:1.0;"/><polygon fill="#000000" points="981.3826,245.1518,987.6843,238.0286,982.2939,235.685,981.3826,245.1518" style="stroke:#000000;stroke-width:1.0;"/><text fill="#000000" font-family="sans-serif" font-size="13" lengthAdjust="spacing" textLength="62" x="992.3762" y="245.0669">related to</text><!--MD5=[6357273cd432820ff583e3a684145d01]
@startuml
' CARS company
class CARS
class "Parking site" as ParkingSite
class Address
class Car
class "Car Model" as CarModel
CARS o- - "*" ParkingSite
CARS - - "*" CarModel : offers >
ParkingSite - - "*" Car : is parked in <
ParkingSite - - Address : located at >
Car "*" - - CarModel : describes <
Car : +Tag
CarModel : +ID
CarModel : +Type
CarModel : +Number of seats
ParkingSite : +ID
Address : +City
Address : +Type
Address : +Name

' Insurances
class Insurer
class Insurance
Insurance "*" - - Insurer : provides <
Insurance "*" - - Car : covered by <
Insurer : +ID
Insurer : +Name
Insurance : +Type

' Customer
class Customer
class "Driver license" as DriverLicense
class "Credit card" as CreditCard
Customer - - DriverLicense
Customer - - CreditCard
Customer : +SSN
Customer : +Name
Customer : +Surname
DriverLicense : +ID
DriverLicense : +Expiration date
CreditCard : +Number
CreditCard : +Expiration date

' Reservation
class Reservation
Reservation "*" - - Customer : reserves <
Reservation - - CarModel : reserves >
Reservation : +Start date
Reservation : +End date

' Check-out - Part 1
class Rental
class Payment
Rental "0..1" - - Reservation : relative to >
Rental - - Payment : has payment >
Rental - - Car : assigned to <
Rental : +ID
Rental : +Start date
Rental : +End date
Payment : +Amount

' Invoice
class Invoice
Invoice - - Payment : related to >
Invoice : +ID
@enduml

@startuml
class CARS
class "Parking site" as ParkingSite
class Address
class Car
class "Car Model" as CarModel
CARS o- - "*" ParkingSite
CARS - - "*" CarModel : offers >
ParkingSite - - "*" Car : is parked in <
ParkingSite - - Address : located at >
Car "*" - - CarModel : describes <
Car : +Tag
CarModel : +ID
CarModel : +Type
CarModel : +Number of seats
ParkingSite : +ID
Address : +City
Address : +Type
Address : +Name

class Insurer
class Insurance
Insurance "*" - - Insurer : provides <
Insurance "*" - - Car : covered by <
Insurer : +ID
Insurer : +Name
Insurance : +Type

class Customer
class "Driver license" as DriverLicense
class "Credit card" as CreditCard
Customer - - DriverLicense
Customer - - CreditCard
Customer : +SSN
Customer : +Name
Customer : +Surname
DriverLicense : +ID
DriverLicense : +Expiration date
CreditCard : +Number
CreditCard : +Expiration date

class Reservation
Reservation "*" - - Customer : reserves <
Reservation - - CarModel : reserves >
Reservation : +Start date
Reservation : +End date

class Rental
class Payment
Rental "0..1" - - Reservation : relative to >
Rental - - Payment : has payment >
Rental - - Car : assigned to <
Rental : +ID
Rental : +Start date
Rental : +End date
Payment : +Amount

class Invoice
Invoice - - Payment : related to >
Invoice : +ID
@enduml

PlantUML version 1.2021.11beta1(Unknown compile time)
(GPL source distribution)
Java Runtime: Java(TM) SE Runtime Environment
JVM: Java HotSpot(TM) 64-Bit Server VM
Default Encoding: UTF-8
Language: en
Country: US
--></g></svg>