<?xml version="1.0" encoding="UTF-8" standalone="no"?><svg xmlns="http://www.w3.org/2000/svg" xmlns:xlink="http://www.w3.org/1999/xlink" contentScriptType="application/ecmascript" contentStyleType="text/css" height="747px" preserveAspectRatio="none" style="width:996px;height:747px;background:#FFFFFF;" version="1.1" viewBox="0 0 996 747" width="996px" zoomAndPan="magnify"><defs><filter height="300%" id="fe8e12c6jfz8u" width="300%" x="-1" y="-1"><feGaussianBlur result="blurOut" stdDeviation="2.0"/><feColorMatrix in="blurOut" result="blurOut2" type="matrix" values="0 0 0 0 0 0 0 0 0 0 0 0 0 0 0 0 0 0 .4 0"/><feOffset dx="4.0" dy="4.0" in="blurOut2" result="blurOut3"/><feBlend in="SourceGraphic" in2="blurOut3" mode="normal"/></filter></defs><g><!--MD5=[6b5d2134b1718deef408d3baff1e0eed]
class CARS--><rect codeLine="2" fill="#FEFECE" filter="url(#fe8e12c6jfz8u)" height="48" id="CARS" style="stroke:#A80036;stroke-width:1.5;" width="63" x="58.867" y="183"/><ellipse cx="73.867" cy="199" fill="#ADD1B2" rx="11" ry="11" style="stroke:#A80036;stroke-width:1.0;"/><path d="M76.2108,194.6719 C75.2733,194.2344 74.6795,194.0938 73.8045,194.0938 C71.1795,194.0938 69.1795,196.1719 69.1795,198.8906 L69.1795,200.0156 C69.1795,202.5938 71.2889,204.4844 74.1795,204.4844 C75.3983,204.4844 76.5545,204.1875 77.3045,203.6406 C77.8826,203.2344 78.2108,202.7813 78.2108,202.3906 C78.2108,201.9375 77.8201,201.5469 77.3514,201.5469 C77.1326,201.5469 76.9295,201.625 76.742,201.8125 C76.2889,202.2969 76.2889,202.2969 76.1014,202.3906 C75.6795,202.6563 74.992,202.7813 74.2264,202.7813 C72.1795,202.7813 70.8826,201.6875 70.8826,199.9844 L70.8826,198.8906 C70.8826,197.1094 72.1326,195.7969 73.867,195.7969 C74.4451,195.7969 75.0545,195.9531 75.5233,196.2031 C76.0076,196.4844 76.1795,196.7031 76.2733,197.1094 C76.3358,197.5156 76.367,197.6406 76.5076,197.7656 C76.6483,197.9063 76.8826,198.0156 77.1014,198.0156 C77.367,198.0156 77.6326,197.875 77.8045,197.6563 C77.9139,197.5 77.9451,197.3125 77.9451,196.8906 L77.9451,195.4688 C77.9451,195.0313 77.9295,194.9063 77.8358,194.75 C77.6795,194.4844 77.3983,194.3438 77.1014,194.3438 C76.8045,194.3438 76.6014,194.4375 76.3826,194.75 L76.2108,194.6719 Z " fill="#000000"/><text fill="#000000" font-family="sans-serif" font-size="12" lengthAdjust="spacing" textLength="31" x="87.867" y="203.1543">CARS</text><line style="stroke:#A80036;stroke-width:1.5;" x1="59.867" x2="120.867" y1="215" y2="215"/><line style="stroke:#A80036;stroke-width:1.5;" x1="59.867" x2="120.867" y1="223" y2="223"/><!--MD5=[3e63a3587cfc3a4187c5476b2379735b]
class ParkingSite--><rect codeLine="3" fill="#FEFECE" filter="url(#fe8e12c6jfz8u)" height="60.8047" id="ParkingSite" style="stroke:#A80036;stroke-width:1.5;" width="101" x="184.867" y="333.5"/><ellipse cx="199.867" cy="349.5" fill="#ADD1B2" rx="11" ry="11" style="stroke:#A80036;stroke-width:1.0;"/><path d="M202.2108,345.1719 C201.2733,344.7344 200.6795,344.5938 199.8045,344.5938 C197.1795,344.5938 195.1795,346.6719 195.1795,349.3906 L195.1795,350.5156 C195.1795,353.0938 197.2889,354.9844 200.1795,354.9844 C201.3983,354.9844 202.5545,354.6875 203.3045,354.1406 C203.8826,353.7344 204.2108,353.2813 204.2108,352.8906 C204.2108,352.4375 203.8201,352.0469 203.3514,352.0469 C203.1326,352.0469 202.9295,352.125 202.742,352.3125 C202.2889,352.7969 202.2889,352.7969 202.1014,352.8906 C201.6795,353.1563 200.992,353.2813 200.2264,353.2813 C198.1795,353.2813 196.8826,352.1875 196.8826,350.4844 L196.8826,349.3906 C196.8826,347.6094 198.1326,346.2969 199.867,346.2969 C200.4451,346.2969 201.0545,346.4531 201.5233,346.7031 C202.0076,346.9844 202.1795,347.2031 202.2733,347.6094 C202.3358,348.0156 202.367,348.1406 202.5076,348.2656 C202.6483,348.4063 202.8826,348.5156 203.1014,348.5156 C203.367,348.5156 203.6326,348.375 203.8045,348.1563 C203.9139,348 203.9451,347.8125 203.9451,347.3906 L203.9451,345.9688 C203.9451,345.5313 203.9295,345.4063 203.8358,345.25 C203.6795,344.9844 203.3983,344.8438 203.1014,344.8438 C202.8045,344.8438 202.6014,344.9375 202.3826,345.25 L202.2108,345.1719 Z " fill="#000000"/><text fill="#000000" font-family="sans-serif" font-size="12" lengthAdjust="spacing" textLength="69" x="213.867" y="353.6543">Parking site</text><line style="stroke:#A80036;stroke-width:1.5;" x1="185.867" x2="284.867" y1="365.5" y2="365.5"/><ellipse cx="195.867" cy="376.5" rx="3" ry="3" style="stroke:#038048;stroke-width:1.0;fill:none;"/><text fill="#000000" font-family="sans-serif" font-size="11" lengthAdjust="spacing" textLength="12" x="204.867" y="379.7104">ID</text><line style="stroke:#A80036;stroke-width:1.5;" x1="185.867" x2="284.867" y1="386.3047" y2="386.3047"/><!--MD5=[0f39e4cb6f03951afbf6d14bd2505654]
class Address--><rect codeLine="4" fill="#FEFECE" filter="url(#fe8e12c6jfz8u)" height="86.4141" id="Address" style="stroke:#A80036;stroke-width:1.5;" width="83" x="100.867" y="484"/><ellipse cx="115.867" cy="500" fill="#ADD1B2" rx="11" ry="11" style="stroke:#A80036;stroke-width:1.0;"/><path d="M118.2108,495.6719 C117.2733,495.2344 116.6795,495.0938 115.8045,495.0938 C113.1795,495.0938 111.1795,497.1719 111.1795,499.8906 L111.1795,501.0156 C111.1795,503.5938 113.2889,505.4844 116.1795,505.4844 C117.3983,505.4844 118.5545,505.1875 119.3045,504.6406 C119.8826,504.2344 120.2108,503.7813 120.2108,503.3906 C120.2108,502.9375 119.8201,502.5469 119.3514,502.5469 C119.1326,502.5469 118.9295,502.625 118.742,502.8125 C118.2889,503.2969 118.2889,503.2969 118.1014,503.3906 C117.6795,503.6563 116.992,503.7813 116.2264,503.7813 C114.1795,503.7813 112.8826,502.6875 112.8826,500.9844 L112.8826,499.8906 C112.8826,498.1094 114.1326,496.7969 115.867,496.7969 C116.4451,496.7969 117.0545,496.9531 117.5233,497.2031 C118.0076,497.4844 118.1795,497.7031 118.2733,498.1094 C118.3358,498.5156 118.367,498.6406 118.5076,498.7656 C118.6483,498.9063 118.8826,499.0156 119.1014,499.0156 C119.367,499.0156 119.6326,498.875 119.8045,498.6563 C119.9139,498.5 119.9451,498.3125 119.9451,497.8906 L119.9451,496.4688 C119.9451,496.0313 119.9295,495.9063 119.8358,495.75 C119.6795,495.4844 119.3983,495.3438 119.1014,495.3438 C118.8045,495.3438 118.6014,495.4375 118.3826,495.75 L118.2108,495.6719 Z " fill="#000000"/><text fill="#000000" font-family="sans-serif" font-size="12" lengthAdjust="spacing" textLength="51" x="129.867" y="504.1543">Address</text><line style="stroke:#A80036;stroke-width:1.5;" x1="101.867" x2="182.867" y1="516" y2="516"/><ellipse cx="111.867" cy="527" rx="3" ry="3" style="stroke:#038048;stroke-width:1.0;fill:none;"/><text fill="#000000" font-family="sans-serif" font-size="11" lengthAdjust="spacing" textLength="22" x="120.867" y="530.2104">City</text><ellipse cx="111.867" cy="539.8047" rx="3" ry="3" style="stroke:#038048;stroke-width:1.0;fill:none;"/><text fill="#000000" font-family="sans-serif" font-size="11" lengthAdjust="spacing" textLength="29" x="120.867" y="543.0151">Type</text><ellipse cx="111.867" cy="552.6094" rx="3" ry="3" style="stroke:#038048;stroke-width:1.0;fill:none;"/><text fill="#000000" font-family="sans-serif" font-size="11" lengthAdjust="spacing" textLength="34" x="120.867" y="555.8198">Name</text><line style="stroke:#A80036;stroke-width:1.5;" x1="101.867" x2="182.867" y1="562.4141" y2="562.4141"/><!--MD5=[3f0ef310aaa84a542276992c5216544d]
class Car--><rect codeLine="5" fill="#FEFECE" filter="url(#fe8e12c6jfz8u)" height="60.8047" id="Car" style="stroke:#A80036;stroke-width:1.5;" width="52" x="345.367" y="496.5"/><ellipse cx="360.367" cy="512.5" fill="#ADD1B2" rx="11" ry="11" style="stroke:#A80036;stroke-width:1.0;"/><path d="M362.7108,508.1719 C361.7733,507.7344 361.1795,507.5938 360.3045,507.5938 C357.6795,507.5938 355.6795,509.6719 355.6795,512.3906 L355.6795,513.5156 C355.6795,516.0938 357.7889,517.9844 360.6795,517.9844 C361.8983,517.9844 363.0545,517.6875 363.8045,517.1406 C364.3826,516.7344 364.7108,516.2813 364.7108,515.8906 C364.7108,515.4375 364.3201,515.0469 363.8514,515.0469 C363.6326,515.0469 363.4295,515.125 363.242,515.3125 C362.7889,515.7969 362.7889,515.7969 362.6014,515.8906 C362.1795,516.1563 361.492,516.2813 360.7264,516.2813 C358.6795,516.2813 357.3826,515.1875 357.3826,513.4844 L357.3826,512.3906 C357.3826,510.6094 358.6326,509.2969 360.367,509.2969 C360.9451,509.2969 361.5545,509.4531 362.0233,509.7031 C362.5076,509.9844 362.6795,510.2031 362.7733,510.6094 C362.8358,511.0156 362.867,511.1406 363.0076,511.2656 C363.1483,511.4063 363.3826,511.5156 363.6014,511.5156 C363.867,511.5156 364.1326,511.375 364.3045,511.1563 C364.4139,511 364.4451,510.8125 364.4451,510.3906 L364.4451,508.9688 C364.4451,508.5313 364.4295,508.4063 364.3358,508.25 C364.1795,507.9844 363.8983,507.8438 363.6014,507.8438 C363.3045,507.8438 363.1014,507.9375 362.8826,508.25 L362.7108,508.1719 Z " fill="#000000"/><text fill="#000000" font-family="sans-serif" font-size="12" lengthAdjust="spacing" textLength="20" x="374.367" y="516.6543">Car</text><line style="stroke:#A80036;stroke-width:1.5;" x1="346.367" x2="396.367" y1="528.5" y2="528.5"/><ellipse cx="356.367" cy="539.5" rx="3" ry="3" style="stroke:#038048;stroke-width:1.0;fill:none;"/><text fill="#000000" font-family="sans-serif" font-size="11" lengthAdjust="spacing" textLength="21" x="365.367" y="542.7104">Tag</text><line style="stroke:#A80036;stroke-width:1.5;" x1="346.367" x2="396.367" y1="549.3047" y2="549.3047"/><!--MD5=[590439ac31b017de7682903b3eb7025d]
class CarModel--><rect codeLine="6" fill="#FEFECE" filter="url(#fe8e12c6jfz8u)" height="86.4141" id="CarModel" style="stroke:#A80036;stroke-width:1.5;" width="121" x="310.867" y="647"/><ellipse cx="338.467" cy="663" fill="#ADD1B2" rx="11" ry="11" style="stroke:#A80036;stroke-width:1.0;"/><path d="M340.8108,658.6719 C339.8733,658.2344 339.2795,658.0938 338.4045,658.0938 C335.7795,658.0938 333.7795,660.1719 333.7795,662.8906 L333.7795,664.0156 C333.7795,666.5938 335.8889,668.4844 338.7795,668.4844 C339.9983,668.4844 341.1545,668.1875 341.9045,667.6406 C342.4826,667.2344 342.8108,666.7813 342.8108,666.3906 C342.8108,665.9375 342.4201,665.5469 341.9514,665.5469 C341.7326,665.5469 341.5295,665.625 341.342,665.8125 C340.8889,666.2969 340.8889,666.2969 340.7014,666.3906 C340.2795,666.6563 339.592,666.7813 338.8264,666.7813 C336.7795,666.7813 335.4826,665.6875 335.4826,663.9844 L335.4826,662.8906 C335.4826,661.1094 336.7326,659.7969 338.467,659.7969 C339.0451,659.7969 339.6545,659.9531 340.1233,660.2031 C340.6076,660.4844 340.7795,660.7031 340.8733,661.1094 C340.9358,661.5156 340.967,661.6406 341.1076,661.7656 C341.2483,661.9063 341.4826,662.0156 341.7014,662.0156 C341.967,662.0156 342.2326,661.875 342.4045,661.6563 C342.5139,661.5 342.5451,661.3125 342.5451,660.8906 L342.5451,659.4688 C342.5451,659.0313 342.5295,658.9063 342.4358,658.75 C342.2795,658.4844 341.9983,658.3438 341.7014,658.3438 C341.4045,658.3438 341.2014,658.4375 340.9826,658.75 L340.8108,658.6719 Z " fill="#000000"/><text fill="#000000" font-family="sans-serif" font-size="12" lengthAdjust="spacing" textLength="61" x="355.267" y="667.1543">Car Model</text><line style="stroke:#A80036;stroke-width:1.5;" x1="311.867" x2="430.867" y1="679" y2="679"/><ellipse cx="321.867" cy="690" rx="3" ry="3" style="stroke:#038048;stroke-width:1.0;fill:none;"/><text fill="#000000" font-family="sans-serif" font-size="11" lengthAdjust="spacing" textLength="12" x="330.867" y="693.2104">ID</text><ellipse cx="321.867" cy="702.8047" rx="3" ry="3" style="stroke:#038048;stroke-width:1.0;fill:none;"/><text fill="#000000" font-family="sans-serif" font-size="11" lengthAdjust="spacing" textLength="29" x="330.867" y="706.0151">Type</text><ellipse cx="321.867" cy="715.6094" rx="3" ry="3" style="stroke:#038048;stroke-width:1.0;fill:none;"/><text fill="#000000" font-family="sans-serif" font-size="11" lengthAdjust="spacing" textLength="95" x="330.867" y="718.8198">Number of seats</text><line style="stroke:#A80036;stroke-width:1.5;" x1="311.867" x2="430.867" y1="725.4141" y2="725.4141"/><!--MD5=[054f87937b19fa476c097d32744151b9]
class Insurer--><rect codeLine="22" fill="#FEFECE" filter="url(#fe8e12c6jfz8u)" height="73.6094" id="Insurer" style="stroke:#A80036;stroke-width:1.5;" width="74" x="519.367" y="490"/><ellipse cx="534.367" cy="506" fill="#ADD1B2" rx="11" ry="11" style="stroke:#A80036;stroke-width:1.0;"/><path d="M536.7108,501.6719 C535.7733,501.2344 535.1795,501.0938 534.3045,501.0938 C531.6795,501.0938 529.6795,503.1719 529.6795,505.8906 L529.6795,507.0156 C529.6795,509.5938 531.7889,511.4844 534.6795,511.4844 C535.8983,511.4844 537.0545,511.1875 537.8045,510.6406 C538.3826,510.2344 538.7108,509.7813 538.7108,509.3906 C538.7108,508.9375 538.3201,508.5469 537.8514,508.5469 C537.6326,508.5469 537.4295,508.625 537.242,508.8125 C536.7889,509.2969 536.7889,509.2969 536.6014,509.3906 C536.1795,509.6563 535.492,509.7813 534.7264,509.7813 C532.6795,509.7813 531.3826,508.6875 531.3826,506.9844 L531.3826,505.8906 C531.3826,504.1094 532.6326,502.7969 534.367,502.7969 C534.9451,502.7969 535.5545,502.9531 536.0233,503.2031 C536.5076,503.4844 536.6795,503.7031 536.7733,504.1094 C536.8358,504.5156 536.867,504.6406 537.0076,504.7656 C537.1483,504.9063 537.3826,505.0156 537.6014,505.0156 C537.867,505.0156 538.1326,504.875 538.3045,504.6563 C538.4139,504.5 538.4451,504.3125 538.4451,503.8906 L538.4451,502.4688 C538.4451,502.0313 538.4295,501.9063 538.3358,501.75 C538.1795,501.4844 537.8983,501.3438 537.6014,501.3438 C537.3045,501.3438 537.1014,501.4375 536.8826,501.75 L536.7108,501.6719 Z " fill="#000000"/><text fill="#000000" font-family="sans-serif" font-size="12" lengthAdjust="spacing" textLength="42" x="548.367" y="510.1543">Insurer</text><line style="stroke:#A80036;stroke-width:1.5;" x1="520.367" x2="592.367" y1="522" y2="522"/><ellipse cx="530.367" cy="533" rx="3" ry="3" style="stroke:#038048;stroke-width:1.0;fill:none;"/><text fill="#000000" font-family="sans-serif" font-size="11" lengthAdjust="spacing" textLength="12" x="539.367" y="536.2104">ID</text><ellipse cx="530.367" cy="545.8047" rx="3" ry="3" style="stroke:#038048;stroke-width:1.0;fill:none;"/><text fill="#000000" font-family="sans-serif" font-size="11" lengthAdjust="spacing" textLength="34" x="539.367" y="549.0151">Name</text><line style="stroke:#A80036;stroke-width:1.5;" x1="520.367" x2="592.367" y1="555.6094" y2="555.6094"/><!--MD5=[c447b73724e2937b40b9f78fc0fede8e]
class Insurance--><rect codeLine="23" fill="#FEFECE" filter="url(#fe8e12c6jfz8u)" height="60.8047" id="Insurance" style="stroke:#A80036;stroke-width:1.5;" width="90" x="468.367" y="333.5"/><ellipse cx="483.367" cy="349.5" fill="#ADD1B2" rx="11" ry="11" style="stroke:#A80036;stroke-width:1.0;"/><path d="M485.7108,345.1719 C484.7733,344.7344 484.1795,344.5938 483.3045,344.5938 C480.6795,344.5938 478.6795,346.6719 478.6795,349.3906 L478.6795,350.5156 C478.6795,353.0938 480.7889,354.9844 483.6795,354.9844 C484.8983,354.9844 486.0545,354.6875 486.8045,354.1406 C487.3826,353.7344 487.7108,353.2813 487.7108,352.8906 C487.7108,352.4375 487.3201,352.0469 486.8514,352.0469 C486.6326,352.0469 486.4295,352.125 486.242,352.3125 C485.7889,352.7969 485.7889,352.7969 485.6014,352.8906 C485.1795,353.1563 484.492,353.2813 483.7264,353.2813 C481.6795,353.2813 480.3826,352.1875 480.3826,350.4844 L480.3826,349.3906 C480.3826,347.6094 481.6326,346.2969 483.367,346.2969 C483.9451,346.2969 484.5545,346.4531 485.0233,346.7031 C485.5076,346.9844 485.6795,347.2031 485.7733,347.6094 C485.8358,348.0156 485.867,348.1406 486.0076,348.2656 C486.1483,348.4063 486.3826,348.5156 486.6014,348.5156 C486.867,348.5156 487.1326,348.375 487.3045,348.1563 C487.4139,348 487.4451,347.8125 487.4451,347.3906 L487.4451,345.9688 C487.4451,345.5313 487.4295,345.4063 487.3358,345.25 C487.1795,344.9844 486.8983,344.8438 486.6014,344.8438 C486.3045,344.8438 486.1014,344.9375 485.8826,345.25 L485.7108,345.1719 Z " fill="#000000"/><text fill="#000000" font-family="sans-serif" font-size="12" lengthAdjust="spacing" textLength="58" x="497.367" y="353.6543">Insurance</text><line style="stroke:#A80036;stroke-width:1.5;" x1="469.367" x2="557.367" y1="365.5" y2="365.5"/><ellipse cx="479.367" cy="376.5" rx="3" ry="3" style="stroke:#038048;stroke-width:1.0;fill:none;"/><text fill="#000000" font-family="sans-serif" font-size="11" lengthAdjust="spacing" textLength="29" x="488.367" y="379.7104">Type</text><line style="stroke:#A80036;stroke-width:1.5;" x1="469.367" x2="557.367" y1="386.3047" y2="386.3047"/><!--MD5=[2ce0c9fb7f55b1e256ab28a8ea6b25ec]
class Customer--><rect codeLine="31" fill="#FEFECE" filter="url(#fe8e12c6jfz8u)" height="86.4141" id="Customer" style="stroke:#A80036;stroke-width:1.5;" width="90" x="730.367" y="321"/><ellipse cx="745.367" cy="337" fill="#ADD1B2" rx="11" ry="11" style="stroke:#A80036;stroke-width:1.0;"/><path d="M747.7108,332.6719 C746.7733,332.2344 746.1795,332.0938 745.3045,332.0938 C742.6795,332.0938 740.6795,334.1719 740.6795,336.8906 L740.6795,338.0156 C740.6795,340.5938 742.7889,342.4844 745.6795,342.4844 C746.8983,342.4844 748.0545,342.1875 748.8045,341.6406 C749.3826,341.2344 749.7108,340.7813 749.7108,340.3906 C749.7108,339.9375 749.3201,339.5469 748.8514,339.5469 C748.6326,339.5469 748.4295,339.625 748.242,339.8125 C747.7889,340.2969 747.7889,340.2969 747.6014,340.3906 C747.1795,340.6563 746.492,340.7813 745.7264,340.7813 C743.6795,340.7813 742.3826,339.6875 742.3826,337.9844 L742.3826,336.8906 C742.3826,335.1094 743.6326,333.7969 745.367,333.7969 C745.9451,333.7969 746.5545,333.9531 747.0233,334.2031 C747.5076,334.4844 747.6795,334.7031 747.7733,335.1094 C747.8358,335.5156 747.867,335.6406 748.0076,335.7656 C748.1483,335.9063 748.3826,336.0156 748.6014,336.0156 C748.867,336.0156 749.1326,335.875 749.3045,335.6563 C749.4139,335.5 749.4451,335.3125 749.4451,334.8906 L749.4451,333.4688 C749.4451,333.0313 749.4295,332.9063 749.3358,332.75 C749.1795,332.4844 748.8983,332.3438 748.6014,332.3438 C748.3045,332.3438 748.1014,332.4375 747.8826,332.75 L747.7108,332.6719 Z " fill="#000000"/><text fill="#000000" font-family="sans-serif" font-size="12" lengthAdjust="spacing" textLength="58" x="759.367" y="341.1543">Customer</text><line style="stroke:#A80036;stroke-width:1.5;" x1="731.367" x2="819.367" y1="353" y2="353"/><ellipse cx="741.367" cy="364" rx="3" ry="3" style="stroke:#038048;stroke-width:1.0;fill:none;"/><text fill="#000000" font-family="sans-serif" font-size="11" lengthAdjust="spacing" textLength="24" x="750.367" y="367.2104">SSN</text><ellipse cx="741.367" cy="376.8047" rx="3" ry="3" style="stroke:#038048;stroke-width:1.0;fill:none;"/><text fill="#000000" font-family="sans-serif" font-size="11" lengthAdjust="spacing" textLength="34" x="750.367" y="380.0151">Name</text><ellipse cx="741.367" cy="389.6094" rx="3" ry="3" style="stroke:#038048;stroke-width:1.0;fill:none;"/><text fill="#000000" font-family="sans-serif" font-size="11" lengthAdjust="spacing" textLength="52" x="750.367" y="392.8198">Surname</text><line style="stroke:#A80036;stroke-width:1.5;" x1="731.367" x2="819.367" y1="399.4141" y2="399.4141"/><!--MD5=[5999a290c6b468e29c073bd2553f28d1]
class DriverLicense--><rect codeLine="32" fill="#FEFECE" filter="url(#fe8e12c6jfz8u)" height="73.6094" id="DriverLicense" style="stroke:#A80036;stroke-width:1.5;" width="116" x="866.367" y="490"/><ellipse cx="881.367" cy="506" fill="#ADD1B2" rx="11" ry="11" style="stroke:#A80036;stroke-width:1.0;"/><path d="M883.7108,501.6719 C882.7733,501.2344 882.1795,501.0938 881.3045,501.0938 C878.6795,501.0938 876.6795,503.1719 876.6795,505.8906 L876.6795,507.0156 C876.6795,509.5938 878.7889,511.4844 881.6795,511.4844 C882.8983,511.4844 884.0545,511.1875 884.8045,510.6406 C885.3826,510.2344 885.7108,509.7813 885.7108,509.3906 C885.7108,508.9375 885.3201,508.5469 884.8514,508.5469 C884.6326,508.5469 884.4295,508.625 884.242,508.8125 C883.7889,509.2969 883.7889,509.2969 883.6014,509.3906 C883.1795,509.6563 882.492,509.7813 881.7264,509.7813 C879.6795,509.7813 878.3826,508.6875 878.3826,506.9844 L878.3826,505.8906 C878.3826,504.1094 879.6326,502.7969 881.367,502.7969 C881.9451,502.7969 882.5545,502.9531 883.0233,503.2031 C883.5076,503.4844 883.6795,503.7031 883.7733,504.1094 C883.8358,504.5156 883.867,504.6406 884.0076,504.7656 C884.1483,504.9063 884.3826,505.0156 884.6014,505.0156 C884.867,505.0156 885.1326,504.875 885.3045,504.6563 C885.4139,504.5 885.4451,504.3125 885.4451,503.8906 L885.4451,502.4688 C885.4451,502.0313 885.4295,501.9063 885.3358,501.75 C885.1795,501.4844 884.8983,501.3438 884.6014,501.3438 C884.3045,501.3438 884.1014,501.4375 883.8826,501.75 L883.7108,501.6719 Z " fill="#000000"/><text fill="#000000" font-family="sans-serif" font-size="12" lengthAdjust="spacing" textLength="84" x="895.367" y="510.1543">Driver license</text><line style="stroke:#A80036;stroke-width:1.5;" x1="867.367" x2="981.367" y1="522" y2="522"/><ellipse cx="877.367" cy="533" rx="3" ry="3" style="stroke:#038048;stroke-width:1.0;fill:none;"/><text fill="#000000" font-family="sans-serif" font-size="11" lengthAdjust="spacing" textLength="12" x="886.367" y="536.2104">ID</text><ellipse cx="877.367" cy="545.8047" rx="3" ry="3" style="stroke:#038048;stroke-width:1.0;fill:none;"/><text fill="#000000" font-family="sans-serif" font-size="11" lengthAdjust="spacing" textLength="86" x="886.367" y="549.0151">Expiration date</text><line style="stroke:#A80036;stroke-width:1.5;" x1="867.367" x2="981.367" y1="555.6094" y2="555.6094"/><!--MD5=[91d4151b6d4c9a3d01b6d84b2458eece]
class CreditCard--><rect codeLine="33" fill="#FEFECE" filter="url(#fe8e12c6jfz8u)" height="73.6094" id="CreditCard" style="stroke:#A80036;stroke-width:1.5;" width="112" x="719.367" y="490"/><ellipse cx="740.217" cy="506" fill="#ADD1B2" rx="11" ry="11" style="stroke:#A80036;stroke-width:1.0;"/><path d="M742.5608,501.6719 C741.6233,501.2344 741.0295,501.0938 740.1545,501.0938 C737.5295,501.0938 735.5295,503.1719 735.5295,505.8906 L735.5295,507.0156 C735.5295,509.5938 737.6389,511.4844 740.5295,511.4844 C741.7483,511.4844 742.9045,511.1875 743.6545,510.6406 C744.2326,510.2344 744.5608,509.7813 744.5608,509.3906 C744.5608,508.9375 744.1701,508.5469 743.7014,508.5469 C743.4826,508.5469 743.2795,508.625 743.092,508.8125 C742.6389,509.2969 742.6389,509.2969 742.4514,509.3906 C742.0295,509.6563 741.342,509.7813 740.5764,509.7813 C738.5295,509.7813 737.2326,508.6875 737.2326,506.9844 L737.2326,505.8906 C737.2326,504.1094 738.4826,502.7969 740.217,502.7969 C740.7951,502.7969 741.4045,502.9531 741.8733,503.2031 C742.3576,503.4844 742.5295,503.7031 742.6233,504.1094 C742.6858,504.5156 742.717,504.6406 742.8576,504.7656 C742.9983,504.9063 743.2326,505.0156 743.4514,505.0156 C743.717,505.0156 743.9826,504.875 744.1545,504.6563 C744.2639,504.5 744.2951,504.3125 744.2951,503.8906 L744.2951,502.4688 C744.2951,502.0313 744.2795,501.9063 744.1858,501.75 C744.0295,501.4844 743.7483,501.3438 743.4514,501.3438 C743.1545,501.3438 742.9514,501.4375 742.7326,501.75 L742.5608,501.6719 Z " fill="#000000"/><text fill="#000000" font-family="sans-serif" font-size="12" lengthAdjust="spacing" textLength="67" x="755.517" y="510.1543">Credit card</text><line style="stroke:#A80036;stroke-width:1.5;" x1="720.367" x2="830.367" y1="522" y2="522"/><ellipse cx="730.367" cy="533" rx="3" ry="3" style="stroke:#038048;stroke-width:1.0;fill:none;"/><text fill="#000000" font-family="sans-serif" font-size="11" lengthAdjust="spacing" textLength="45" x="739.367" y="536.2104">Number</text><ellipse cx="730.367" cy="545.8047" rx="3" ry="3" style="stroke:#038048;stroke-width:1.0;fill:none;"/><text fill="#000000" font-family="sans-serif" font-size="11" lengthAdjust="spacing" textLength="86" x="739.367" y="549.0151">Expiration date</text><line style="stroke:#A80036;stroke-width:1.5;" x1="720.367" x2="830.367" y1="555.6094" y2="555.6094"/><!--MD5=[9c46470aa33a0c75e6d1dfdefc2f9c22]
class Reservation--><rect codeLine="45" fill="#FEFECE" filter="url(#fe8e12c6jfz8u)" height="73.6094" id="Reservation" style="stroke:#A80036;stroke-width:1.5;" width="103" x="530.867" y="170"/><ellipse cx="545.867" cy="186" fill="#ADD1B2" rx="11" ry="11" style="stroke:#A80036;stroke-width:1.0;"/><path d="M548.2108,181.6719 C547.2733,181.2344 546.6795,181.0938 545.8045,181.0938 C543.1795,181.0938 541.1795,183.1719 541.1795,185.8906 L541.1795,187.0156 C541.1795,189.5938 543.2889,191.4844 546.1795,191.4844 C547.3983,191.4844 548.5545,191.1875 549.3045,190.6406 C549.8826,190.2344 550.2108,189.7813 550.2108,189.3906 C550.2108,188.9375 549.8201,188.5469 549.3514,188.5469 C549.1326,188.5469 548.9295,188.625 548.742,188.8125 C548.2889,189.2969 548.2889,189.2969 548.1014,189.3906 C547.6795,189.6563 546.992,189.7813 546.2264,189.7813 C544.1795,189.7813 542.8826,188.6875 542.8826,186.9844 L542.8826,185.8906 C542.8826,184.1094 544.1326,182.7969 545.867,182.7969 C546.4451,182.7969 547.0545,182.9531 547.5233,183.2031 C548.0076,183.4844 548.1795,183.7031 548.2733,184.1094 C548.3358,184.5156 548.367,184.6406 548.5076,184.7656 C548.6483,184.9063 548.8826,185.0156 549.1014,185.0156 C549.367,185.0156 549.6326,184.875 549.8045,184.6563 C549.9139,184.5 549.9451,184.3125 549.9451,183.8906 L549.9451,182.4688 C549.9451,182.0313 549.9295,181.9063 549.8358,181.75 C549.6795,181.4844 549.3983,181.3438 549.1014,181.3438 C548.8045,181.3438 548.6014,181.4375 548.3826,181.75 L548.2108,181.6719 Z " fill="#000000"/><text fill="#000000" font-family="sans-serif" font-size="12" lengthAdjust="spacing" textLength="71" x="559.867" y="190.1543">Reservation</text><line style="stroke:#A80036;stroke-width:1.5;" x1="531.867" x2="632.867" y1="202" y2="202"/><ellipse cx="541.867" cy="213" rx="3" ry="3" style="stroke:#038048;stroke-width:1.0;fill:none;"/><text fill="#000000" font-family="sans-serif" font-size="11" lengthAdjust="spacing" textLength="57" x="550.867" y="216.2104">Start date</text><ellipse cx="541.867" cy="225.8047" rx="3" ry="3" style="stroke:#038048;stroke-width:1.0;fill:none;"/><text fill="#000000" font-family="sans-serif" font-size="11" lengthAdjust="spacing" textLength="51" x="550.867" y="229.0151">End date</text><line style="stroke:#A80036;stroke-width:1.5;" x1="531.867" x2="632.867" y1="235.6094" y2="235.6094"/><!--MD5=[931c2459a5b1ef2b405e84c8dc93c38e]
class Rental--><rect codeLine="53" fill="#FEFECE" filter="url(#fe8e12c6jfz8u)" height="86.4141" id="Rental" style="stroke:#A80036;stroke-width:1.5;" width="83" x="471.867" y="7"/><ellipse cx="493.617" cy="23" fill="#ADD1B2" rx="11" ry="11" style="stroke:#A80036;stroke-width:1.0;"/><path d="M495.9608,18.6719 C495.0233,18.2344 494.4295,18.0938 493.5545,18.0938 C490.9295,18.0938 488.9295,20.1719 488.9295,22.8906 L488.9295,24.0156 C488.9295,26.5938 491.0389,28.4844 493.9295,28.4844 C495.1483,28.4844 496.3045,28.1875 497.0545,27.6406 C497.6326,27.2344 497.9608,26.7813 497.9608,26.3906 C497.9608,25.9375 497.5701,25.5469 497.1014,25.5469 C496.8826,25.5469 496.6795,25.625 496.492,25.8125 C496.0389,26.2969 496.0389,26.2969 495.8514,26.3906 C495.4295,26.6563 494.742,26.7813 493.9764,26.7813 C491.9295,26.7813 490.6326,25.6875 490.6326,23.9844 L490.6326,22.8906 C490.6326,21.1094 491.8826,19.7969 493.617,19.7969 C494.1951,19.7969 494.8045,19.9531 495.2733,20.2031 C495.7576,20.4844 495.9295,20.7031 496.0233,21.1094 C496.0858,21.5156 496.117,21.6406 496.2576,21.7656 C496.3983,21.9063 496.6326,22.0156 496.8514,22.0156 C497.117,22.0156 497.3826,21.875 497.5545,21.6563 C497.6639,21.5 497.6951,21.3125 497.6951,20.8906 L497.6951,19.4688 C497.6951,19.0313 497.6795,18.9063 497.5858,18.75 C497.4295,18.4844 497.1483,18.3438 496.8514,18.3438 C496.5545,18.3438 496.3514,18.4375 496.1326,18.75 L495.9608,18.6719 Z " fill="#000000"/><text fill="#000000" font-family="sans-serif" font-size="12" lengthAdjust="spacing" textLength="36" x="509.117" y="27.1543">Rental</text><line style="stroke:#A80036;stroke-width:1.5;" x1="472.867" x2="553.867" y1="39" y2="39"/><ellipse cx="482.867" cy="50" rx="3" ry="3" style="stroke:#038048;stroke-width:1.0;fill:none;"/><text fill="#000000" font-family="sans-serif" font-size="11" lengthAdjust="spacing" textLength="12" x="491.867" y="53.2104">ID</text><ellipse cx="482.867" cy="62.8047" rx="3" ry="3" style="stroke:#038048;stroke-width:1.0;fill:none;"/><text fill="#000000" font-family="sans-serif" font-size="11" lengthAdjust="spacing" textLength="57" x="491.867" y="66.0151">Start date</text><ellipse cx="482.867" cy="75.6094" rx="3" ry="3" style="stroke:#038048;stroke-width:1.0;fill:none;"/><text fill="#000000" font-family="sans-serif" font-size="11" lengthAdjust="spacing" textLength="51" x="491.867" y="78.8198">End date</text><line style="stroke:#A80036;stroke-width:1.5;" x1="472.867" x2="553.867" y1="85.4141" y2="85.4141"/><!--MD5=[764fca796ce7f635542948d8fc39db5e]
class Payment--><rect codeLine="54" fill="#FEFECE" filter="url(#fe8e12c6jfz8u)" height="60.8047" id="Payment" style="stroke:#A80036;stroke-width:1.5;" width="82" x="711.367" y="176.5"/><ellipse cx="726.367" cy="192.5" fill="#ADD1B2" rx="11" ry="11" style="stroke:#A80036;stroke-width:1.0;"/><path d="M728.7108,188.1719 C727.7733,187.7344 727.1795,187.5938 726.3045,187.5938 C723.6795,187.5938 721.6795,189.6719 721.6795,192.3906 L721.6795,193.5156 C721.6795,196.0938 723.7889,197.9844 726.6795,197.9844 C727.8983,197.9844 729.0545,197.6875 729.8045,197.1406 C730.3826,196.7344 730.7108,196.2813 730.7108,195.8906 C730.7108,195.4375 730.3201,195.0469 729.8514,195.0469 C729.6326,195.0469 729.4295,195.125 729.242,195.3125 C728.7889,195.7969 728.7889,195.7969 728.6014,195.8906 C728.1795,196.1563 727.492,196.2813 726.7264,196.2813 C724.6795,196.2813 723.3826,195.1875 723.3826,193.4844 L723.3826,192.3906 C723.3826,190.6094 724.6326,189.2969 726.367,189.2969 C726.9451,189.2969 727.5545,189.4531 728.0233,189.7031 C728.5076,189.9844 728.6795,190.2031 728.7733,190.6094 C728.8358,191.0156 728.867,191.1406 729.0076,191.2656 C729.1483,191.4063 729.3826,191.5156 729.6014,191.5156 C729.867,191.5156 730.1326,191.375 730.3045,191.1563 C730.4139,191 730.4451,190.8125 730.4451,190.3906 L730.4451,188.9688 C730.4451,188.5313 730.4295,188.4063 730.3358,188.25 C730.1795,187.9844 729.8983,187.8438 729.6014,187.8438 C729.3045,187.8438 729.1014,187.9375 728.8826,188.25 L728.7108,188.1719 Z " fill="#000000"/><text fill="#000000" font-family="sans-serif" font-size="12" lengthAdjust="spacing" textLength="50" x="740.367" y="196.6543">Payment</text><line style="stroke:#A80036;stroke-width:1.5;" x1="712.367" x2="792.367" y1="208.5" y2="208.5"/><ellipse cx="722.367" cy="219.5" rx="3" ry="3" style="stroke:#038048;stroke-width:1.0;fill:none;"/><text fill="#000000" font-family="sans-serif" font-size="11" lengthAdjust="spacing" textLength="44" x="731.367" y="222.7104">Amount</text><line style="stroke:#A80036;stroke-width:1.5;" x1="712.367" x2="792.367" y1="229.3047" y2="229.3047"/><!--MD5=[894442645724153f40a9f7a43026dbfc]
class Invoice--><rect codeLine="64" fill="#FEFECE" filter="url(#fe8e12c6jfz8u)" height="60.8047" id="Invoice" style="stroke:#A80036;stroke-width:1.5;" width="75" x="735.867" y="19.5"/><ellipse cx="750.867" cy="35.5" fill="#ADD1B2" rx="11" ry="11" style="stroke:#A80036;stroke-width:1.0;"/><path d="M753.2108,31.1719 C752.2733,30.7344 751.6795,30.5938 750.8045,30.5938 C748.1795,30.5938 746.1795,32.6719 746.1795,35.3906 L746.1795,36.5156 C746.1795,39.0938 748.2889,40.9844 751.1795,40.9844 C752.3983,40.9844 753.5545,40.6875 754.3045,40.1406 C754.8826,39.7344 755.2108,39.2813 755.2108,38.8906 C755.2108,38.4375 754.8201,38.0469 754.3514,38.0469 C754.1326,38.0469 753.9295,38.125 753.742,38.3125 C753.2889,38.7969 753.2889,38.7969 753.1014,38.8906 C752.6795,39.1563 751.992,39.2813 751.2264,39.2813 C749.1795,39.2813 747.8826,38.1875 747.8826,36.4844 L747.8826,35.3906 C747.8826,33.6094 749.1326,32.2969 750.867,32.2969 C751.4451,32.2969 752.0545,32.4531 752.5233,32.7031 C753.0076,32.9844 753.1795,33.2031 753.2733,33.6094 C753.3358,34.0156 753.367,34.1406 753.5076,34.2656 C753.6483,34.4063 753.8826,34.5156 754.1014,34.5156 C754.367,34.5156 754.6326,34.375 754.8045,34.1563 C754.9139,34 754.9451,33.8125 754.9451,33.3906 L754.9451,31.9688 C754.9451,31.5313 754.9295,31.4063 754.8358,31.25 C754.6795,30.9844 754.3983,30.8438 754.1014,30.8438 C753.8045,30.8438 753.6014,30.9375 753.3826,31.25 L753.2108,31.1719 Z " fill="#000000"/><text fill="#000000" font-family="sans-serif" font-size="12" lengthAdjust="spacing" textLength="43" x="764.867" y="39.6543">Invoice</text><line style="stroke:#A80036;stroke-width:1.5;" x1="736.867" x2="809.867" y1="51.5" y2="51.5"/><ellipse cx="746.867" cy="62.5" rx="3" ry="3" style="stroke:#038048;stroke-width:1.0;fill:none;"/><text fill="#000000" font-family="sans-serif" font-size="11" lengthAdjust="spacing" textLength="12" x="755.867" y="65.7104">ID</text><line style="stroke:#A80036;stroke-width:1.5;" x1="736.867" x2="809.867" y1="72.3047" y2="72.3047"/><!--MD5=[3f2200ee59b7ff328547c16fcaa82aaa]
reverse link CARS to ParkingSite--><path codeLine="7" d="M120.9832,240.728 C146.575,268.084 182.764,306.769 207.542,333.256 " fill="none" id="CARS-backto-ParkingSite" style="stroke:#A80036;stroke-width:1.0;"/><polygon fill="#FFFFFF" points="112.0749,231.205,113.2529,238.3192,120.273,239.9681,119.095,232.8539,112.0749,231.205" style="stroke:#A80036;stroke-width:1.0;"/><text fill="#000000" font-family="sans-serif" font-size="13" lengthAdjust="spacing" textLength="7" x="194.0812" y="322.4689">*</text><!--MD5=[d37b3934b94f6a41b3abc66745ff87de]
link CARS to CarModel--><path codeLine="8" d="M81.1924,231.212 C58.3267,293.266 6,465.381 83.367,570 C137.0866,642.6418 243.278,671.1495 310.621,682.1914 " fill="none" id="CARS-CarModel" style="stroke:#A80036;stroke-width:1.0;"/><polygon fill="#000000" points="51.6341,450.0229,50.1522,440.6285,44.9134,443.2937,51.6341,450.0229" style="stroke:#000000;stroke-width:1.0;"/><text fill="#000000" font-family="sans-serif" font-size="13" lengthAdjust="spacing" textLength="38" x="58.367" y="450.0669">offers</text><text fill="#000000" font-family="sans-serif" font-size="13" lengthAdjust="spacing" textLength="7" x="295.791" y="677.3754">*</text><!--MD5=[0bb5ecd22f769035943466e1f175b6da]
link ParkingSite to Car--><path codeLine="9" d="M237.093,394.588 C239.447,413.129 244.89,436.703 257.367,454 C279.415,484.565 318.82,505.163 345.03,516.241 " fill="none" id="ParkingSite-Car" style="stroke:#A80036;stroke-width:1.0;"/><polygon fill="#000000" points="259.0486,441.8263,262.8533,450.5427,267.25,446.6417,259.0486,441.8263" style="stroke:#000000;stroke-width:1.0;"/><text fill="#000000" font-family="sans-serif" font-size="13" lengthAdjust="spacing" textLength="73" x="271.367" y="450.0669">is parked in</text><text fill="#000000" font-family="sans-serif" font-size="13" lengthAdjust="spacing" textLength="7" x="330.3843" y="508.6711">*</text><!--MD5=[5bfc8a85a28873f5396f08cff86728d7]
link ParkingSite to Address--><path codeLine="10" d="M184.777,389.736 C166.706,401.383 148.358,417.141 138.367,437 C131.207,451.231 130.4561,468.418 132.1161,483.879 " fill="none" id="ParkingSite-Address" style="stroke:#A80036;stroke-width:1.0;"/><polygon fill="#000000" points="140.9261,449.9301,147.9067,443.4708,142.7768,440.6014,140.9261,449.9301" style="stroke:#000000;stroke-width:1.0;"/><text fill="#000000" font-family="sans-serif" font-size="13" lengthAdjust="spacing" textLength="64" x="152.367" y="450.0669">located at</text><!--MD5=[b93b373ada3841d2c88bbb890cab4936]
link Car to CarModel--><path codeLine="11" d="M371.367,557.53 C371.367,582.585 371.367,618.831 371.367,646.9226 " fill="none" id="Car-CarModel" style="stroke:#A80036;stroke-width:1.0;"/><polygon fill="#000000" points="376.367,603.5664,373.4281,612.6115,379.3059,612.6115,376.367,603.5664" style="stroke:#000000;stroke-width:1.0;"/><text fill="#000000" font-family="sans-serif" font-size="13" lengthAdjust="spacing" textLength="61" x="385.367" y="613.0669">describes</text><text fill="#000000" font-family="sans-serif" font-size="13" lengthAdjust="spacing" textLength="7" x="363.6451" y="577.4744">*</text><!--MD5=[f1f9b6f25047388ffbf25aa240c8f3fd]
link Insurance to Insurer--><path codeLine="24" d="M521.254,394.53 C528.431,421.401 539.045,461.143 546.724,489.894 " fill="none" id="Insurance-Insurer" style="stroke:#A80036;stroke-width:1.0;"/><polygon fill="#000000" points="540.0768,440.7357,539.5714,450.2329,545.2502,448.7162,540.0768,440.7357" style="stroke:#000000;stroke-width:1.0;"/><text fill="#000000" font-family="sans-serif" font-size="13" lengthAdjust="spacing" textLength="55" x="550.367" y="450.0669">provides</text><text fill="#000000" font-family="sans-serif" font-size="13" lengthAdjust="spacing" textLength="7" x="515.1588" y="414.4744">*</text><!--MD5=[6c30fed22086064e70b0965e3cf6793a]
link Insurance to Car--><path codeLine="25" d="M481.016,394.5 C467.675,407.163 452.335,422.386 439.367,437 C422.589,455.908 405.316,478.564 392.377,496.284 " fill="none" id="Insurance-Car" style="stroke:#A80036;stroke-width:1.0;"/><polygon fill="#000000" points="447.6507,441.7958,439.4941,446.6868,443.9268,450.547,447.6507,441.7958" style="stroke:#000000;stroke-width:1.0;"/><text fill="#000000" font-family="sans-serif" font-size="13" lengthAdjust="spacing" textLength="72" x="453.367" y="450.0669">covered by</text><text fill="#000000" font-family="sans-serif" font-size="13" lengthAdjust="spacing" textLength="7" x="466.6217" y="414.4382">*</text><!--MD5=[aeaf9200cbaa7c7c08444b4bc8b3369b]
link Customer to DriverLicense--><path codeLine="34" d="M814.515,407.301 C838.312,433.015 868.375,465.499 891.033,489.981 " fill="none" id="Customer-DriverLicense" style="stroke:#A80036;stroke-width:1.0;"/><!--MD5=[64f0e157b9264e99419c5f82d7e84fb1]
link Customer to CreditCard--><path codeLine="35" d="M775.367,407.301 C775.367,433.015 775.367,465.499 775.367,489.981 " fill="none" id="Customer-CreditCard" style="stroke:#A80036;stroke-width:1.0;"/><!--MD5=[084ed435efc901fd8b74a4436d3ced04]
link Reservation to Customer--><path codeLine="46" d="M633.889,234.922 C653.039,245.936 674.449,259.5 692.367,274 C709.448,287.822 726.349,305.102 740.397,320.75 " fill="none" id="Reservation-Customer" style="stroke:#A80036;stroke-width:1.0;"/><polygon fill="#000000" points="711.4738,279.4291,716.6726,287.3929,720.3608,282.8162,711.4738,279.4291" style="stroke:#000000;stroke-width:1.0;"/><text fill="#000000" font-family="sans-serif" font-size="13" lengthAdjust="spacing" textLength="56" x="724.367" y="287.0669">reserves</text><text fill="#000000" font-family="sans-serif" font-size="13" lengthAdjust="spacing" textLength="7" x="641.9704" y="235.0268">*</text><!--MD5=[ce698a0348dacea28d201157393cc2b9]
link Reservation to CarModel--><path codeLine="47" d="M598.468,244.121 C626.72,313.492 676.271,467.552 610.367,570 C570.682,631.69 488.733,662.5838 431.936,677.1825 " fill="none" id="Reservation-CarModel" style="stroke:#A80036;stroke-width:1.0;"/><polygon fill="#000000" points="646.5724,450.2332,652.562,442.8457,647.0758,440.736,646.5724,450.2332" style="stroke:#000000;stroke-width:1.0;"/><text fill="#000000" font-family="sans-serif" font-size="13" lengthAdjust="spacing" textLength="56" x="657.367" y="450.0669">reserves</text><text fill="#000000" font-family="sans-serif" font-size="13" lengthAdjust="spacing" textLength="7" x="593.555" y="263.6216">*</text><!--MD5=[8d214d3d4a9e4def63bd9bb76b5ebc50]
link Reservation to ParkingSite--><path codeLine="48" d="M530.55,212.482 C450.786,220.389 303.067,239.351 264.367,274 C247.659,288.959 240.537,313.653 237.522,333.239 " fill="none" id="Reservation-ParkingSite" style="stroke:#A80036;stroke-width:1.0;"/><polygon fill="#000000" points="264.7442,284.4715,274.2267,283.7424,271.9872,278.3079,264.7442,284.4715" style="stroke:#000000;stroke-width:1.0;"/><text fill="#000000" font-family="sans-serif" font-size="13" lengthAdjust="spacing" textLength="49" x="278.367" y="287.0669">car is in</text><text fill="#000000" font-family="sans-serif" font-size="13" lengthAdjust="spacing" textLength="7" x="515.771" y="209.3019">*</text><!--MD5=[badfa0d16d4219cadd67de4ff8295934]
link Rental to Reservation--><path codeLine="55" d="M504.523,93.202 C503.204,108.505 504.017,125.566 510.367,140 C515.215,151.02 522.912,161.005 531.505,169.68 " fill="none" id="Rental-Reservation" style="stroke:#A80036;stroke-width:1.0;"/><polygon fill="#000000" points="517.0305,136.2816,516.7927,126.774,511.2497,128.7296,517.0305,136.2816" style="stroke:#000000;stroke-width:1.0;"/><text fill="#000000" font-family="sans-serif" font-size="13" lengthAdjust="spacing" textLength="65" x="524.367" y="136.0669">relative to</text><text fill="#000000" font-family="sans-serif" font-size="13" lengthAdjust="spacing" textLength="24" x="505.026" y="113.3271">0..1</text><!--MD5=[5f99c74083f6673ca3d55e65c6ade5b1]
link Rental to Payment--><path codeLine="56" d="M554.998,77.999 C598.864,106.448 667.527,150.978 711.213,179.31 " fill="none" id="Rental-Payment" style="stroke:#A80036;stroke-width:1.0;"/><polygon fill="#000000" points="656.562,134.287,650.5723,126.8996,647.374,131.8311,656.562,134.287" style="stroke:#000000;stroke-width:1.0;"/><text fill="#000000" font-family="sans-serif" font-size="13" lengthAdjust="spacing" textLength="85" x="661.367" y="136.0669">has payment</text><!--MD5=[ecb5ede8695547817815f2a3c7411f0e]
link Rental to Car--><path codeLine="57" d="M500.765,93.153 C472.495,187.72 404.591,414.865 380.243,496.31 " fill="none" id="Rental-Car" style="stroke:#A80036;stroke-width:1.0;"/><polygon fill="#000000" points="452.7991,277.7759,447.3926,285.6002,453.0242,287.2838,452.7991,277.7759" style="stroke:#000000;stroke-width:1.0;"/><text fill="#000000" font-family="sans-serif" font-size="13" lengthAdjust="spacing" textLength="74" x="460.367" y="287.0669">assigned to</text><text fill="#000000" font-family="sans-serif" font-size="13" lengthAdjust="spacing" textLength="7" x="491.0981" y="113.586">*</text><!--MD5=[8057192d0da8c3a76f90b3876072c699]
link Invoice to Payment--><path codeLine="65" d="M769.368,80.519 C765.643,108.012 760.119,148.785 756.387,176.327 " fill="none" id="Invoice-Payment" style="stroke:#A80036;stroke-width:1.0;"/><polygon fill="#000000" points="768.6957,136.5211,772.8224,127.9525,766.9978,127.1634,768.6957,136.5211" style="stroke:#000000;stroke-width:1.0;"/><text fill="#000000" font-family="sans-serif" font-size="13" lengthAdjust="spacing" textLength="62" x="778.367" y="136.0669">related to</text><!--MD5=[2f215b8197005e2aa2422f4db6fb469b]
@startuml
' CARS company
class CARS
class "Parking site" as ParkingSite
class Address
class Car
class "Car Model" as CarModel
CARS o- - "*" ParkingSite
CARS - - "*" CarModel : offers >
ParkingSite - - "*" Car : is parked in <
ParkingSite - - Address : located at >
Car "*" - - CarModel : describes <
Car : +Tag
CarModel : +ID
CarModel : +Type
CarModel : +Number of seats
ParkingSite : +ID
Address : +City
Address : +Type
Address : +Name

' Insurances
class Insurer
class Insurance
Insurance "*" - - Insurer : provides <
Insurance "*" - - Car : covered by <
Insurer : +ID
Insurer : +Name
Insurance : +Type

' Customer
class Customer
class "Driver license" as DriverLicense
class "Credit card" as CreditCard
Customer - - DriverLicense
Customer - - CreditCard
Customer : +SSN
Customer : +Name
Customer : +Surname
DriverLicense : +ID
DriverLicense : +Expiration date
CreditCard : +Number
CreditCard : +Expiration date

' Reservation
class Reservation
Reservation "*" - - Customer : reserves <
Reservation "*" - - CarModel : reserves >
Reservation "*" - - ParkingSite : car is in >
Reservation : +Start date
Reservation : +End date

' Check-out - Part 1
class Rental
class Payment
Rental "0..1" - - Reservation : relative to >
Rental - - Payment : has payment >
Rental "*" - - Car : assigned to <
Rental : +ID
Rental : +Start date
Rental : +End date
Payment : +Amount

' Invoice
class Invoice
Invoice - - Payment : related to >
Invoice : +ID
@enduml

@startuml
class CARS
class "Parking site" as ParkingSite
class Address
class Car
class "Car Model" as CarModel
CARS o- - "*" ParkingSite
CARS - - "*" CarModel : offers >
ParkingSite - - "*" Car : is parked in <
ParkingSite - - Address : located at >
Car "*" - - CarModel : describes <
Car : +Tag
CarModel : +ID
CarModel : +Type
CarModel : +Number of seats
ParkingSite : +ID
Address : +City
Address : +Type
Address : +Name

class Insurer
class Insurance
Insurance "*" - - Insurer : provides <
Insurance "*" - - Car : covered by <
Insurer : +ID
Insurer : +Name
Insurance : +Type

class Customer
class "Driver license" as DriverLicense
class "Credit card" as CreditCard
Customer - - DriverLicense
Customer - - CreditCard
Customer : +SSN
Customer : +Name
Customer : +Surname
DriverLicense : +ID
DriverLicense : +Expiration date
CreditCard : +Number
CreditCard : +Expiration date

class Reservation
Reservation "*" - - Customer : reserves <
Reservation "*" - - CarModel : reserves >
Reservation "*" - - ParkingSite : car is in >
Reservation : +Start date
Reservation : +End date

class Rental
class Payment
Rental "0..1" - - Reservation : relative to >
Rental - - Payment : has payment >
Rental "*" - - Car : assigned to <
Rental : +ID
Rental : +Start date
Rental : +End date
Payment : +Amount

class Invoice
Invoice - - Payment : related to >
Invoice : +ID
@enduml

PlantUML version 1.2021.11beta1(Unknown compile time)
(GPL source distribution)
Java Runtime: Java(TM) SE Runtime Environment
JVM: Java HotSpot(TM) 64-Bit Server VM
Default Encoding: UTF-8
Language: en
Country: US
--></g></svg>