<?xml version="1.0" encoding="UTF-8" standalone="no"?><svg xmlns="http://www.w3.org/2000/svg" xmlns:xlink="http://www.w3.org/1999/xlink" contentScriptType="application/ecmascript" contentStyleType="text/css" height="747px" preserveAspectRatio="none" style="width:1290px;height:747px;background:#FFFFFF;" version="1.1" viewBox="0 0 1290 747" width="1290px" zoomAndPan="magnify"><defs><filter height="300%" id="f1qdnzakab2idy" width="300%" x="-1" y="-1"><feGaussianBlur result="blurOut" stdDeviation="2.0"/><feColorMatrix in="blurOut" result="blurOut2" type="matrix" values="0 0 0 0 0 0 0 0 0 0 0 0 0 0 0 0 0 0 .4 0"/><feOffset dx="4.0" dy="4.0" in="blurOut2" result="blurOut3"/><feBlend in="SourceGraphic" in2="blurOut3" mode="normal"/></filter></defs><g><!--MD5=[6b5d2134b1718deef408d3baff1e0eed]
class CARS--><rect codeLine="2" fill="#FEFECE" filter="url(#f1qdnzakab2idy)" height="48" id="CARS" style="stroke:#A80036;stroke-width:1.5;" width="63" x="872.8383" y="170.5"/><ellipse cx="887.8383" cy="186.5" fill="#ADD1B2" rx="11" ry="11" style="stroke:#A80036;stroke-width:1.0;"/><path d="M890.1821,182.1719 C889.2446,181.7344 888.6508,181.5938 887.7758,181.5938 C885.1508,181.5938 883.1508,183.6719 883.1508,186.3906 L883.1508,187.5156 C883.1508,190.0938 885.2602,191.9844 888.1508,191.9844 C889.3696,191.9844 890.5258,191.6875 891.2758,191.1406 C891.8539,190.7344 892.1821,190.2813 892.1821,189.8906 C892.1821,189.4375 891.7914,189.0469 891.3227,189.0469 C891.1039,189.0469 890.9008,189.125 890.7133,189.3125 C890.2602,189.7969 890.2602,189.7969 890.0727,189.8906 C889.6508,190.1563 888.9633,190.2813 888.1977,190.2813 C886.1508,190.2813 884.8539,189.1875 884.8539,187.4844 L884.8539,186.3906 C884.8539,184.6094 886.1039,183.2969 887.8383,183.2969 C888.4164,183.2969 889.0258,183.4531 889.4946,183.7031 C889.9789,183.9844 890.1508,184.2031 890.2446,184.6094 C890.3071,185.0156 890.3383,185.1406 890.4789,185.2656 C890.6196,185.4063 890.8539,185.5156 891.0727,185.5156 C891.3383,185.5156 891.6039,185.375 891.7758,185.1563 C891.8852,185 891.9164,184.8125 891.9164,184.3906 L891.9164,182.9688 C891.9164,182.5313 891.9008,182.4063 891.8071,182.25 C891.6508,181.9844 891.3696,181.8438 891.0727,181.8438 C890.7758,181.8438 890.5727,181.9375 890.3539,182.25 L890.1821,182.1719 Z " fill="#000000"/><text fill="#000000" font-family="sans-serif" font-size="12" lengthAdjust="spacing" textLength="31" x="901.8383" y="190.6543">CARS</text><line style="stroke:#A80036;stroke-width:1.5;" x1="873.8383" x2="934.8383" y1="202.5" y2="202.5"/><line style="stroke:#A80036;stroke-width:1.5;" x1="873.8383" x2="934.8383" y1="210.5" y2="210.5"/><!--MD5=[3e63a3587cfc3a4187c5476b2379735b]
class ParkingSite--><rect codeLine="3" fill="#FEFECE" filter="url(#f1qdnzakab2idy)" height="60.8047" id="ParkingSite" style="stroke:#A80036;stroke-width:1.5;" width="101" x="1013.8383" y="333.5"/><ellipse cx="1028.8383" cy="349.5" fill="#ADD1B2" rx="11" ry="11" style="stroke:#A80036;stroke-width:1.0;"/><path d="M1031.1821,345.1719 C1030.2446,344.7344 1029.6508,344.5938 1028.7758,344.5938 C1026.1508,344.5938 1024.1508,346.6719 1024.1508,349.3906 L1024.1508,350.5156 C1024.1508,353.0938 1026.2602,354.9844 1029.1508,354.9844 C1030.3696,354.9844 1031.5258,354.6875 1032.2758,354.1406 C1032.8539,353.7344 1033.1821,353.2813 1033.1821,352.8906 C1033.1821,352.4375 1032.7914,352.0469 1032.3227,352.0469 C1032.1039,352.0469 1031.9008,352.125 1031.7133,352.3125 C1031.2602,352.7969 1031.2602,352.7969 1031.0727,352.8906 C1030.6508,353.1563 1029.9633,353.2813 1029.1977,353.2813 C1027.1508,353.2813 1025.8539,352.1875 1025.8539,350.4844 L1025.8539,349.3906 C1025.8539,347.6094 1027.1039,346.2969 1028.8383,346.2969 C1029.4164,346.2969 1030.0258,346.4531 1030.4946,346.7031 C1030.9789,346.9844 1031.1508,347.2031 1031.2446,347.6094 C1031.3071,348.0156 1031.3383,348.1406 1031.4789,348.2656 C1031.6196,348.4063 1031.8539,348.5156 1032.0727,348.5156 C1032.3383,348.5156 1032.6039,348.375 1032.7758,348.1563 C1032.8852,348 1032.9164,347.8125 1032.9164,347.3906 L1032.9164,345.9688 C1032.9164,345.5313 1032.9008,345.4063 1032.8071,345.25 C1032.6508,344.9844 1032.3696,344.8438 1032.0727,344.8438 C1031.7758,344.8438 1031.5727,344.9375 1031.3539,345.25 L1031.1821,345.1719 Z " fill="#000000"/><text fill="#000000" font-family="sans-serif" font-size="12" lengthAdjust="spacing" textLength="69" x="1042.8383" y="353.6543">Parking site</text><line style="stroke:#A80036;stroke-width:1.5;" x1="1014.8383" x2="1113.8383" y1="365.5" y2="365.5"/><ellipse cx="1024.8383" cy="376.5" rx="3" ry="3" style="stroke:#038048;stroke-width:1.0;fill:none;"/><text fill="#000000" font-family="sans-serif" font-size="11" lengthAdjust="spacing" textLength="12" x="1033.8383" y="379.7104">ID</text><line style="stroke:#A80036;stroke-width:1.5;" x1="1014.8383" x2="1113.8383" y1="386.3047" y2="386.3047"/><!--MD5=[0f39e4cb6f03951afbf6d14bd2505654]
class Address--><rect codeLine="4" fill="#FEFECE" filter="url(#f1qdnzakab2idy)" height="86.4141" id="Address" style="stroke:#A80036;stroke-width:1.5;" width="83" x="1022.8383" y="484"/><ellipse cx="1037.8383" cy="500" fill="#ADD1B2" rx="11" ry="11" style="stroke:#A80036;stroke-width:1.0;"/><path d="M1040.1821,495.6719 C1039.2446,495.2344 1038.6508,495.0938 1037.7758,495.0938 C1035.1508,495.0938 1033.1508,497.1719 1033.1508,499.8906 L1033.1508,501.0156 C1033.1508,503.5938 1035.2602,505.4844 1038.1508,505.4844 C1039.3696,505.4844 1040.5258,505.1875 1041.2758,504.6406 C1041.8539,504.2344 1042.1821,503.7813 1042.1821,503.3906 C1042.1821,502.9375 1041.7914,502.5469 1041.3227,502.5469 C1041.1039,502.5469 1040.9008,502.625 1040.7133,502.8125 C1040.2602,503.2969 1040.2602,503.2969 1040.0727,503.3906 C1039.6508,503.6563 1038.9633,503.7813 1038.1977,503.7813 C1036.1508,503.7813 1034.8539,502.6875 1034.8539,500.9844 L1034.8539,499.8906 C1034.8539,498.1094 1036.1039,496.7969 1037.8383,496.7969 C1038.4164,496.7969 1039.0258,496.9531 1039.4946,497.2031 C1039.9789,497.4844 1040.1508,497.7031 1040.2446,498.1094 C1040.3071,498.5156 1040.3383,498.6406 1040.4789,498.7656 C1040.6196,498.9063 1040.8539,499.0156 1041.0727,499.0156 C1041.3383,499.0156 1041.6039,498.875 1041.7758,498.6563 C1041.8852,498.5 1041.9164,498.3125 1041.9164,497.8906 L1041.9164,496.4688 C1041.9164,496.0313 1041.9008,495.9063 1041.8071,495.75 C1041.6508,495.4844 1041.3696,495.3438 1041.0727,495.3438 C1040.7758,495.3438 1040.5727,495.4375 1040.3539,495.75 L1040.1821,495.6719 Z " fill="#000000"/><text fill="#000000" font-family="sans-serif" font-size="12" lengthAdjust="spacing" textLength="51" x="1051.8383" y="504.1543">Address</text><line style="stroke:#A80036;stroke-width:1.5;" x1="1023.8383" x2="1104.8383" y1="516" y2="516"/><ellipse cx="1033.8383" cy="527" rx="3" ry="3" style="stroke:#038048;stroke-width:1.0;fill:none;"/><text fill="#000000" font-family="sans-serif" font-size="11" lengthAdjust="spacing" textLength="22" x="1042.8383" y="530.2104">City</text><ellipse cx="1033.8383" cy="539.8047" rx="3" ry="3" style="stroke:#038048;stroke-width:1.0;fill:none;"/><text fill="#000000" font-family="sans-serif" font-size="11" lengthAdjust="spacing" textLength="29" x="1042.8383" y="543.0151">Type</text><ellipse cx="1033.8383" cy="552.6094" rx="3" ry="3" style="stroke:#038048;stroke-width:1.0;fill:none;"/><text fill="#000000" font-family="sans-serif" font-size="11" lengthAdjust="spacing" textLength="34" x="1042.8383" y="555.8198">Name</text><line style="stroke:#A80036;stroke-width:1.5;" x1="1023.8383" x2="1104.8383" y1="562.4141" y2="562.4141"/><!--MD5=[7421f545a0d8420c5bec41e74b387d9c]
class Employee--><rect codeLine="5" fill="#FEFECE" filter="url(#f1qdnzakab2idy)" height="86.4141" id="Employee" style="stroke:#A80036;stroke-width:1.5;" width="92" x="1184.3383" y="484"/><ellipse cx="1199.3383" cy="500" fill="#ADD1B2" rx="11" ry="11" style="stroke:#A80036;stroke-width:1.0;"/><path d="M1201.6821,495.6719 C1200.7446,495.2344 1200.1508,495.0938 1199.2758,495.0938 C1196.6508,495.0938 1194.6508,497.1719 1194.6508,499.8906 L1194.6508,501.0156 C1194.6508,503.5938 1196.7602,505.4844 1199.6508,505.4844 C1200.8696,505.4844 1202.0258,505.1875 1202.7758,504.6406 C1203.3539,504.2344 1203.6821,503.7813 1203.6821,503.3906 C1203.6821,502.9375 1203.2914,502.5469 1202.8227,502.5469 C1202.6039,502.5469 1202.4008,502.625 1202.2133,502.8125 C1201.7602,503.2969 1201.7602,503.2969 1201.5727,503.3906 C1201.1508,503.6563 1200.4633,503.7813 1199.6977,503.7813 C1197.6508,503.7813 1196.3539,502.6875 1196.3539,500.9844 L1196.3539,499.8906 C1196.3539,498.1094 1197.6039,496.7969 1199.3383,496.7969 C1199.9164,496.7969 1200.5258,496.9531 1200.9946,497.2031 C1201.4789,497.4844 1201.6508,497.7031 1201.7446,498.1094 C1201.8071,498.5156 1201.8383,498.6406 1201.9789,498.7656 C1202.1196,498.9063 1202.3539,499.0156 1202.5727,499.0156 C1202.8383,499.0156 1203.1039,498.875 1203.2758,498.6563 C1203.3852,498.5 1203.4164,498.3125 1203.4164,497.8906 L1203.4164,496.4688 C1203.4164,496.0313 1203.4008,495.9063 1203.3071,495.75 C1203.1508,495.4844 1202.8696,495.3438 1202.5727,495.3438 C1202.2758,495.3438 1202.0727,495.4375 1201.8539,495.75 L1201.6821,495.6719 Z " fill="#000000"/><text fill="#000000" font-family="sans-serif" font-size="12" lengthAdjust="spacing" textLength="60" x="1213.3383" y="504.1543">Employee</text><line style="stroke:#A80036;stroke-width:1.5;" x1="1185.3383" x2="1275.3383" y1="516" y2="516"/><ellipse cx="1195.3383" cy="527" rx="3" ry="3" style="stroke:#038048;stroke-width:1.0;fill:none;"/><text fill="#000000" font-family="sans-serif" font-size="11" lengthAdjust="spacing" textLength="12" x="1204.3383" y="530.2104">ID</text><ellipse cx="1195.3383" cy="539.8047" rx="3" ry="3" style="stroke:#038048;stroke-width:1.0;fill:none;"/><text fill="#000000" font-family="sans-serif" font-size="11" lengthAdjust="spacing" textLength="34" x="1204.3383" y="543.0151">Name</text><ellipse cx="1195.3383" cy="552.6094" rx="3" ry="3" style="stroke:#038048;stroke-width:1.0;fill:none;"/><text fill="#000000" font-family="sans-serif" font-size="11" lengthAdjust="spacing" textLength="52" x="1204.3383" y="555.8198">Surname</text><line style="stroke:#A80036;stroke-width:1.5;" x1="1185.3383" x2="1275.3383" y1="562.4141" y2="562.4141"/><!--MD5=[3f0ef310aaa84a542276992c5216544d]
class Car--><rect codeLine="6" fill="#FEFECE" filter="url(#f1qdnzakab2idy)" height="60.8047" id="Car" style="stroke:#A80036;stroke-width:1.5;" width="52" x="615.3383" y="496.5"/><ellipse cx="630.3383" cy="512.5" fill="#ADD1B2" rx="11" ry="11" style="stroke:#A80036;stroke-width:1.0;"/><path d="M632.6821,508.1719 C631.7446,507.7344 631.1508,507.5938 630.2758,507.5938 C627.6508,507.5938 625.6508,509.6719 625.6508,512.3906 L625.6508,513.5156 C625.6508,516.0938 627.7602,517.9844 630.6508,517.9844 C631.8696,517.9844 633.0258,517.6875 633.7758,517.1406 C634.3539,516.7344 634.6821,516.2813 634.6821,515.8906 C634.6821,515.4375 634.2914,515.0469 633.8227,515.0469 C633.6039,515.0469 633.4008,515.125 633.2133,515.3125 C632.7602,515.7969 632.7602,515.7969 632.5727,515.8906 C632.1508,516.1563 631.4633,516.2813 630.6977,516.2813 C628.6508,516.2813 627.3539,515.1875 627.3539,513.4844 L627.3539,512.3906 C627.3539,510.6094 628.6039,509.2969 630.3383,509.2969 C630.9164,509.2969 631.5258,509.4531 631.9946,509.7031 C632.4789,509.9844 632.6508,510.2031 632.7446,510.6094 C632.8071,511.0156 632.8383,511.1406 632.9789,511.2656 C633.1196,511.4063 633.3539,511.5156 633.5727,511.5156 C633.8383,511.5156 634.1039,511.375 634.2758,511.1563 C634.3852,511 634.4164,510.8125 634.4164,510.3906 L634.4164,508.9688 C634.4164,508.5313 634.4008,508.4063 634.3071,508.25 C634.1508,507.9844 633.8696,507.8438 633.5727,507.8438 C633.2758,507.8438 633.0727,507.9375 632.8539,508.25 L632.6821,508.1719 Z " fill="#000000"/><text fill="#000000" font-family="sans-serif" font-size="12" lengthAdjust="spacing" textLength="20" x="644.3383" y="516.6543">Car</text><line style="stroke:#A80036;stroke-width:1.5;" x1="616.3383" x2="666.3383" y1="528.5" y2="528.5"/><ellipse cx="626.3383" cy="539.5" rx="3" ry="3" style="stroke:#038048;stroke-width:1.0;fill:none;"/><text fill="#000000" font-family="sans-serif" font-size="11" lengthAdjust="spacing" textLength="21" x="635.3383" y="542.7104">Tag</text><line style="stroke:#A80036;stroke-width:1.5;" x1="616.3383" x2="666.3383" y1="549.3047" y2="549.3047"/><!--MD5=[590439ac31b017de7682903b3eb7025d]
class CarModel--><rect codeLine="7" fill="#FEFECE" filter="url(#f1qdnzakab2idy)" height="86.4141" id="CarModel" style="stroke:#A80036;stroke-width:1.5;" width="121" x="435.8383" y="647"/><ellipse cx="462.9883" cy="663" fill="#ADD1B2" rx="11" ry="11" style="stroke:#A80036;stroke-width:1.0;"/><path d="M465.3321,658.6719 C464.3946,658.2344 463.8008,658.0938 462.9258,658.0938 C460.3008,658.0938 458.3008,660.1719 458.3008,662.8906 L458.3008,664.0156 C458.3008,666.5938 460.4102,668.4844 463.3008,668.4844 C464.5196,668.4844 465.6758,668.1875 466.4258,667.6406 C467.0039,667.2344 467.3321,666.7813 467.3321,666.3906 C467.3321,665.9375 466.9414,665.5469 466.4727,665.5469 C466.2539,665.5469 466.0508,665.625 465.8633,665.8125 C465.4102,666.2969 465.4102,666.2969 465.2227,666.3906 C464.8008,666.6563 464.1133,666.7813 463.3477,666.7813 C461.3008,666.7813 460.0039,665.6875 460.0039,663.9844 L460.0039,662.8906 C460.0039,661.1094 461.2539,659.7969 462.9883,659.7969 C463.5664,659.7969 464.1758,659.9531 464.6446,660.2031 C465.1289,660.4844 465.3008,660.7031 465.3946,661.1094 C465.4571,661.5156 465.4883,661.6406 465.6289,661.7656 C465.7696,661.9063 466.0039,662.0156 466.2227,662.0156 C466.4883,662.0156 466.7539,661.875 466.9258,661.6563 C467.0352,661.5 467.0664,661.3125 467.0664,660.8906 L467.0664,659.4688 C467.0664,659.0313 467.0508,658.9063 466.9571,658.75 C466.8008,658.4844 466.5196,658.3438 466.2227,658.3438 C465.9258,658.3438 465.7227,658.4375 465.5039,658.75 L465.3321,658.6719 Z " fill="#000000"/><text fill="#000000" font-family="sans-serif" font-size="12" lengthAdjust="spacing" textLength="62" x="479.6883" y="667.1543">Car model</text><line style="stroke:#A80036;stroke-width:1.5;" x1="436.8383" x2="555.8383" y1="679" y2="679"/><ellipse cx="446.8383" cy="690" rx="3" ry="3" style="stroke:#038048;stroke-width:1.0;fill:none;"/><text fill="#000000" font-family="sans-serif" font-size="11" lengthAdjust="spacing" textLength="12" x="455.8383" y="693.2104">ID</text><ellipse cx="446.8383" cy="702.8047" rx="3" ry="3" style="stroke:#038048;stroke-width:1.0;fill:none;"/><text fill="#000000" font-family="sans-serif" font-size="11" lengthAdjust="spacing" textLength="29" x="455.8383" y="706.0151">Type</text><ellipse cx="446.8383" cy="715.6094" rx="3" ry="3" style="stroke:#038048;stroke-width:1.0;fill:none;"/><text fill="#000000" font-family="sans-serif" font-size="11" lengthAdjust="spacing" textLength="95" x="455.8383" y="718.8198">Number of seats</text><line style="stroke:#A80036;stroke-width:1.5;" x1="436.8383" x2="555.8383" y1="725.4141" y2="725.4141"/><!--MD5=[054f87937b19fa476c097d32744151b9]
class Insurer--><rect codeLine="27" fill="#FEFECE" filter="url(#f1qdnzakab2idy)" height="73.6094" id="Insurer" style="stroke:#A80036;stroke-width:1.5;" width="74" x="789.3383" y="490"/><ellipse cx="804.3383" cy="506" fill="#ADD1B2" rx="11" ry="11" style="stroke:#A80036;stroke-width:1.0;"/><path d="M806.6821,501.6719 C805.7446,501.2344 805.1508,501.0938 804.2758,501.0938 C801.6508,501.0938 799.6508,503.1719 799.6508,505.8906 L799.6508,507.0156 C799.6508,509.5938 801.7602,511.4844 804.6508,511.4844 C805.8696,511.4844 807.0258,511.1875 807.7758,510.6406 C808.3539,510.2344 808.6821,509.7813 808.6821,509.3906 C808.6821,508.9375 808.2914,508.5469 807.8227,508.5469 C807.6039,508.5469 807.4008,508.625 807.2133,508.8125 C806.7602,509.2969 806.7602,509.2969 806.5727,509.3906 C806.1508,509.6563 805.4633,509.7813 804.6977,509.7813 C802.6508,509.7813 801.3539,508.6875 801.3539,506.9844 L801.3539,505.8906 C801.3539,504.1094 802.6039,502.7969 804.3383,502.7969 C804.9164,502.7969 805.5258,502.9531 805.9946,503.2031 C806.4789,503.4844 806.6508,503.7031 806.7446,504.1094 C806.8071,504.5156 806.8383,504.6406 806.9789,504.7656 C807.1196,504.9063 807.3539,505.0156 807.5727,505.0156 C807.8383,505.0156 808.1039,504.875 808.2758,504.6563 C808.3852,504.5 808.4164,504.3125 808.4164,503.8906 L808.4164,502.4688 C808.4164,502.0313 808.4008,501.9063 808.3071,501.75 C808.1508,501.4844 807.8696,501.3438 807.5727,501.3438 C807.2758,501.3438 807.0727,501.4375 806.8539,501.75 L806.6821,501.6719 Z " fill="#000000"/><text fill="#000000" font-family="sans-serif" font-size="12" lengthAdjust="spacing" textLength="42" x="818.3383" y="510.1543">Insurer</text><line style="stroke:#A80036;stroke-width:1.5;" x1="790.3383" x2="862.3383" y1="522" y2="522"/><ellipse cx="800.3383" cy="533" rx="3" ry="3" style="stroke:#038048;stroke-width:1.0;fill:none;"/><text fill="#000000" font-family="sans-serif" font-size="11" lengthAdjust="spacing" textLength="12" x="809.3383" y="536.2104">ID</text><ellipse cx="800.3383" cy="545.8047" rx="3" ry="3" style="stroke:#038048;stroke-width:1.0;fill:none;"/><text fill="#000000" font-family="sans-serif" font-size="11" lengthAdjust="spacing" textLength="34" x="809.3383" y="549.0151">Name</text><line style="stroke:#A80036;stroke-width:1.5;" x1="790.3383" x2="862.3383" y1="555.6094" y2="555.6094"/><!--MD5=[c447b73724e2937b40b9f78fc0fede8e]
class Insurance--><rect codeLine="28" fill="#FEFECE" filter="url(#f1qdnzakab2idy)" height="60.8047" id="Insurance" style="stroke:#A80036;stroke-width:1.5;" width="90" x="888.3383" y="333.5"/><ellipse cx="903.3383" cy="349.5" fill="#ADD1B2" rx="11" ry="11" style="stroke:#A80036;stroke-width:1.0;"/><path d="M905.6821,345.1719 C904.7446,344.7344 904.1508,344.5938 903.2758,344.5938 C900.6508,344.5938 898.6508,346.6719 898.6508,349.3906 L898.6508,350.5156 C898.6508,353.0938 900.7602,354.9844 903.6508,354.9844 C904.8696,354.9844 906.0258,354.6875 906.7758,354.1406 C907.3539,353.7344 907.6821,353.2813 907.6821,352.8906 C907.6821,352.4375 907.2914,352.0469 906.8227,352.0469 C906.6039,352.0469 906.4008,352.125 906.2133,352.3125 C905.7602,352.7969 905.7602,352.7969 905.5727,352.8906 C905.1508,353.1563 904.4633,353.2813 903.6977,353.2813 C901.6508,353.2813 900.3539,352.1875 900.3539,350.4844 L900.3539,349.3906 C900.3539,347.6094 901.6039,346.2969 903.3383,346.2969 C903.9164,346.2969 904.5258,346.4531 904.9946,346.7031 C905.4789,346.9844 905.6508,347.2031 905.7446,347.6094 C905.8071,348.0156 905.8383,348.1406 905.9789,348.2656 C906.1196,348.4063 906.3539,348.5156 906.5727,348.5156 C906.8383,348.5156 907.1039,348.375 907.2758,348.1563 C907.3852,348 907.4164,347.8125 907.4164,347.3906 L907.4164,345.9688 C907.4164,345.5313 907.4008,345.4063 907.3071,345.25 C907.1508,344.9844 906.8696,344.8438 906.5727,344.8438 C906.2758,344.8438 906.0727,344.9375 905.8539,345.25 L905.6821,345.1719 Z " fill="#000000"/><text fill="#000000" font-family="sans-serif" font-size="12" lengthAdjust="spacing" textLength="58" x="917.3383" y="353.6543">Insurance</text><line style="stroke:#A80036;stroke-width:1.5;" x1="889.3383" x2="977.3383" y1="365.5" y2="365.5"/><ellipse cx="899.3383" cy="376.5" rx="3" ry="3" style="stroke:#038048;stroke-width:1.0;fill:none;"/><text fill="#000000" font-family="sans-serif" font-size="11" lengthAdjust="spacing" textLength="29" x="908.3383" y="379.7104">Type</text><line style="stroke:#A80036;stroke-width:1.5;" x1="889.3383" x2="977.3383" y1="386.3047" y2="386.3047"/><!--MD5=[2ce0c9fb7f55b1e256ab28a8ea6b25ec]
class Customer--><rect codeLine="36" fill="#FEFECE" filter="url(#f1qdnzakab2idy)" height="86.4141" id="Customer" style="stroke:#A80036;stroke-width:1.5;" width="90" x="234.3383" y="484"/><ellipse cx="249.3383" cy="500" fill="#ADD1B2" rx="11" ry="11" style="stroke:#A80036;stroke-width:1.0;"/><path d="M251.6821,495.6719 C250.7446,495.2344 250.1508,495.0938 249.2758,495.0938 C246.6508,495.0938 244.6508,497.1719 244.6508,499.8906 L244.6508,501.0156 C244.6508,503.5938 246.7602,505.4844 249.6508,505.4844 C250.8696,505.4844 252.0258,505.1875 252.7758,504.6406 C253.3539,504.2344 253.6821,503.7813 253.6821,503.3906 C253.6821,502.9375 253.2914,502.5469 252.8227,502.5469 C252.6039,502.5469 252.4008,502.625 252.2133,502.8125 C251.7602,503.2969 251.7602,503.2969 251.5727,503.3906 C251.1508,503.6563 250.4633,503.7813 249.6977,503.7813 C247.6508,503.7813 246.3539,502.6875 246.3539,500.9844 L246.3539,499.8906 C246.3539,498.1094 247.6039,496.7969 249.3383,496.7969 C249.9164,496.7969 250.5258,496.9531 250.9946,497.2031 C251.4789,497.4844 251.6508,497.7031 251.7446,498.1094 C251.8071,498.5156 251.8383,498.6406 251.9789,498.7656 C252.1196,498.9063 252.3539,499.0156 252.5727,499.0156 C252.8383,499.0156 253.1039,498.875 253.2758,498.6563 C253.3852,498.5 253.4164,498.3125 253.4164,497.8906 L253.4164,496.4688 C253.4164,496.0313 253.4008,495.9063 253.3071,495.75 C253.1508,495.4844 252.8696,495.3438 252.5727,495.3438 C252.2758,495.3438 252.0727,495.4375 251.8539,495.75 L251.6821,495.6719 Z " fill="#000000"/><text fill="#000000" font-family="sans-serif" font-size="12" lengthAdjust="spacing" textLength="58" x="263.3383" y="504.1543">Customer</text><line style="stroke:#A80036;stroke-width:1.5;" x1="235.3383" x2="323.3383" y1="516" y2="516"/><ellipse cx="245.3383" cy="527" rx="3" ry="3" style="stroke:#038048;stroke-width:1.0;fill:none;"/><text fill="#000000" font-family="sans-serif" font-size="11" lengthAdjust="spacing" textLength="24" x="254.3383" y="530.2104">SSN</text><ellipse cx="245.3383" cy="539.8047" rx="3" ry="3" style="stroke:#038048;stroke-width:1.0;fill:none;"/><text fill="#000000" font-family="sans-serif" font-size="11" lengthAdjust="spacing" textLength="34" x="254.3383" y="543.0151">Name</text><ellipse cx="245.3383" cy="552.6094" rx="3" ry="3" style="stroke:#038048;stroke-width:1.0;fill:none;"/><text fill="#000000" font-family="sans-serif" font-size="11" lengthAdjust="spacing" textLength="52" x="254.3383" y="555.8198">Surname</text><line style="stroke:#A80036;stroke-width:1.5;" x1="235.3383" x2="323.3383" y1="562.4141" y2="562.4141"/><!--MD5=[5999a290c6b468e29c073bd2553f28d1]
class DriverLicense--><rect codeLine="37" fill="#FEFECE" filter="url(#f1qdnzakab2idy)" height="73.6094" id="DriverLicense" style="stroke:#A80036;stroke-width:1.5;" width="116" x="105.3383" y="653"/><ellipse cx="120.3383" cy="669" fill="#ADD1B2" rx="11" ry="11" style="stroke:#A80036;stroke-width:1.0;"/><path d="M122.6821,664.6719 C121.7446,664.2344 121.1508,664.0938 120.2758,664.0938 C117.6508,664.0938 115.6508,666.1719 115.6508,668.8906 L115.6508,670.0156 C115.6508,672.5938 117.7602,674.4844 120.6508,674.4844 C121.8696,674.4844 123.0258,674.1875 123.7758,673.6406 C124.3539,673.2344 124.6821,672.7813 124.6821,672.3906 C124.6821,671.9375 124.2914,671.5469 123.8227,671.5469 C123.6039,671.5469 123.4008,671.625 123.2133,671.8125 C122.7602,672.2969 122.7602,672.2969 122.5727,672.3906 C122.1508,672.6563 121.4633,672.7813 120.6977,672.7813 C118.6508,672.7813 117.3539,671.6875 117.3539,669.9844 L117.3539,668.8906 C117.3539,667.1094 118.6039,665.7969 120.3383,665.7969 C120.9164,665.7969 121.5258,665.9531 121.9946,666.2031 C122.4789,666.4844 122.6508,666.7031 122.7446,667.1094 C122.8071,667.5156 122.8383,667.6406 122.9789,667.7656 C123.1196,667.9063 123.3539,668.0156 123.5727,668.0156 C123.8383,668.0156 124.1039,667.875 124.2758,667.6563 C124.3852,667.5 124.4164,667.3125 124.4164,666.8906 L124.4164,665.4688 C124.4164,665.0313 124.4008,664.9063 124.3071,664.75 C124.1508,664.4844 123.8696,664.3438 123.5727,664.3438 C123.2758,664.3438 123.0727,664.4375 122.8539,664.75 L122.6821,664.6719 Z " fill="#000000"/><text fill="#000000" font-family="sans-serif" font-size="12" lengthAdjust="spacing" textLength="84" x="134.3383" y="673.1543">Driver license</text><line style="stroke:#A80036;stroke-width:1.5;" x1="106.3383" x2="220.3383" y1="685" y2="685"/><ellipse cx="116.3383" cy="696" rx="3" ry="3" style="stroke:#038048;stroke-width:1.0;fill:none;"/><text fill="#000000" font-family="sans-serif" font-size="11" lengthAdjust="spacing" textLength="12" x="125.3383" y="699.2104">ID</text><ellipse cx="116.3383" cy="708.8047" rx="3" ry="3" style="stroke:#038048;stroke-width:1.0;fill:none;"/><text fill="#000000" font-family="sans-serif" font-size="11" lengthAdjust="spacing" textLength="86" x="125.3383" y="712.0151">Expiration date</text><line style="stroke:#A80036;stroke-width:1.5;" x1="106.3383" x2="220.3383" y1="718.6094" y2="718.6094"/><!--MD5=[91d4151b6d4c9a3d01b6d84b2458eece]
class CreditCard--><rect codeLine="38" fill="#FEFECE" filter="url(#f1qdnzakab2idy)" height="73.6094" id="CreditCard" style="stroke:#A80036;stroke-width:1.5;" width="112" x="256.3383" y="653"/><ellipse cx="277.1883" cy="669" fill="#ADD1B2" rx="11" ry="11" style="stroke:#A80036;stroke-width:1.0;"/><path d="M279.5321,664.6719 C278.5946,664.2344 278.0008,664.0938 277.1258,664.0938 C274.5008,664.0938 272.5008,666.1719 272.5008,668.8906 L272.5008,670.0156 C272.5008,672.5938 274.6102,674.4844 277.5008,674.4844 C278.7196,674.4844 279.8758,674.1875 280.6258,673.6406 C281.2039,673.2344 281.5321,672.7813 281.5321,672.3906 C281.5321,671.9375 281.1414,671.5469 280.6727,671.5469 C280.4539,671.5469 280.2508,671.625 280.0633,671.8125 C279.6102,672.2969 279.6102,672.2969 279.4227,672.3906 C279.0008,672.6563 278.3133,672.7813 277.5477,672.7813 C275.5008,672.7813 274.2039,671.6875 274.2039,669.9844 L274.2039,668.8906 C274.2039,667.1094 275.4539,665.7969 277.1883,665.7969 C277.7664,665.7969 278.3758,665.9531 278.8446,666.2031 C279.3289,666.4844 279.5008,666.7031 279.5946,667.1094 C279.6571,667.5156 279.6883,667.6406 279.8289,667.7656 C279.9696,667.9063 280.2039,668.0156 280.4227,668.0156 C280.6883,668.0156 280.9539,667.875 281.1258,667.6563 C281.2352,667.5 281.2664,667.3125 281.2664,666.8906 L281.2664,665.4688 C281.2664,665.0313 281.2508,664.9063 281.1571,664.75 C281.0008,664.4844 280.7196,664.3438 280.4227,664.3438 C280.1258,664.3438 279.9227,664.4375 279.7039,664.75 L279.5321,664.6719 Z " fill="#000000"/><text fill="#000000" font-family="sans-serif" font-size="12" lengthAdjust="spacing" textLength="67" x="292.4883" y="673.1543">Credit card</text><line style="stroke:#A80036;stroke-width:1.5;" x1="257.3383" x2="367.3383" y1="685" y2="685"/><ellipse cx="267.3383" cy="696" rx="3" ry="3" style="stroke:#038048;stroke-width:1.0;fill:none;"/><text fill="#000000" font-family="sans-serif" font-size="11" lengthAdjust="spacing" textLength="45" x="276.3383" y="699.2104">Number</text><ellipse cx="267.3383" cy="708.8047" rx="3" ry="3" style="stroke:#038048;stroke-width:1.0;fill:none;"/><text fill="#000000" font-family="sans-serif" font-size="11" lengthAdjust="spacing" textLength="86" x="276.3383" y="712.0151">Expiration date</text><line style="stroke:#A80036;stroke-width:1.5;" x1="257.3383" x2="367.3383" y1="718.6094" y2="718.6094"/><!--MD5=[9c46470aa33a0c75e6d1dfdefc2f9c22]
class Reservation--><rect codeLine="50" fill="#FEFECE" filter="url(#f1qdnzakab2idy)" height="73.6094" id="Reservation" style="stroke:#A80036;stroke-width:1.5;" width="103" x="362.8383" y="327"/><ellipse cx="377.8383" cy="343" fill="#ADD1B2" rx="11" ry="11" style="stroke:#A80036;stroke-width:1.0;"/><path d="M380.1821,338.6719 C379.2446,338.2344 378.6508,338.0938 377.7758,338.0938 C375.1508,338.0938 373.1508,340.1719 373.1508,342.8906 L373.1508,344.0156 C373.1508,346.5938 375.2602,348.4844 378.1508,348.4844 C379.3696,348.4844 380.5258,348.1875 381.2758,347.6406 C381.8539,347.2344 382.1821,346.7813 382.1821,346.3906 C382.1821,345.9375 381.7914,345.5469 381.3227,345.5469 C381.1039,345.5469 380.9008,345.625 380.7133,345.8125 C380.2602,346.2969 380.2602,346.2969 380.0727,346.3906 C379.6508,346.6563 378.9633,346.7813 378.1977,346.7813 C376.1508,346.7813 374.8539,345.6875 374.8539,343.9844 L374.8539,342.8906 C374.8539,341.1094 376.1039,339.7969 377.8383,339.7969 C378.4164,339.7969 379.0258,339.9531 379.4946,340.2031 C379.9789,340.4844 380.1508,340.7031 380.2446,341.1094 C380.3071,341.5156 380.3383,341.6406 380.4789,341.7656 C380.6196,341.9063 380.8539,342.0156 381.0727,342.0156 C381.3383,342.0156 381.6039,341.875 381.7758,341.6563 C381.8852,341.5 381.9164,341.3125 381.9164,340.8906 L381.9164,339.4688 C381.9164,339.0313 381.9008,338.9063 381.8071,338.75 C381.6508,338.4844 381.3696,338.3438 381.0727,338.3438 C380.7758,338.3438 380.5727,338.4375 380.3539,338.75 L380.1821,338.6719 Z " fill="#000000"/><text fill="#000000" font-family="sans-serif" font-size="12" lengthAdjust="spacing" textLength="71" x="391.8383" y="347.1543">Reservation</text><line style="stroke:#A80036;stroke-width:1.5;" x1="363.8383" x2="464.8383" y1="359" y2="359"/><ellipse cx="373.8383" cy="370" rx="3" ry="3" style="stroke:#038048;stroke-width:1.0;fill:none;"/><text fill="#000000" font-family="sans-serif" font-size="11" lengthAdjust="spacing" textLength="57" x="382.8383" y="373.2104">Start date</text><ellipse cx="373.8383" cy="382.8047" rx="3" ry="3" style="stroke:#038048;stroke-width:1.0;fill:none;"/><text fill="#000000" font-family="sans-serif" font-size="11" lengthAdjust="spacing" textLength="51" x="382.8383" y="386.0151">End date</text><line style="stroke:#A80036;stroke-width:1.5;" x1="363.8383" x2="464.8383" y1="392.6094" y2="392.6094"/><!--MD5=[461026a38b737c4ce5e8254b9a577e21]
class Contract--><rect codeLine="57" fill="#FEFECE" filter="url(#f1qdnzakab2idy)" height="99.2188" id="Contract" style="stroke:#A80036;stroke-width:1.5;" width="147" x="331.8383" y="145"/><ellipse cx="376.0883" cy="161" fill="#ADD1B2" rx="11" ry="11" style="stroke:#A80036;stroke-width:1.0;"/><path d="M378.4321,156.6719 C377.4946,156.2344 376.9008,156.0938 376.0258,156.0938 C373.4008,156.0938 371.4008,158.1719 371.4008,160.8906 L371.4008,162.0156 C371.4008,164.5938 373.5102,166.4844 376.4008,166.4844 C377.6196,166.4844 378.7758,166.1875 379.5258,165.6406 C380.1039,165.2344 380.4321,164.7813 380.4321,164.3906 C380.4321,163.9375 380.0414,163.5469 379.5727,163.5469 C379.3539,163.5469 379.1508,163.625 378.9633,163.8125 C378.5102,164.2969 378.5102,164.2969 378.3227,164.3906 C377.9008,164.6563 377.2133,164.7813 376.4477,164.7813 C374.4008,164.7813 373.1039,163.6875 373.1039,161.9844 L373.1039,160.8906 C373.1039,159.1094 374.3539,157.7969 376.0883,157.7969 C376.6664,157.7969 377.2758,157.9531 377.7446,158.2031 C378.2289,158.4844 378.4008,158.7031 378.4946,159.1094 C378.5571,159.5156 378.5883,159.6406 378.7289,159.7656 C378.8696,159.9063 379.1039,160.0156 379.3227,160.0156 C379.5883,160.0156 379.8539,159.875 380.0258,159.6563 C380.1352,159.5 380.1664,159.3125 380.1664,158.8906 L380.1664,157.4688 C380.1664,157.0313 380.1508,156.9063 380.0571,156.75 C379.9008,156.4844 379.6196,156.3438 379.3227,156.3438 C379.0258,156.3438 378.8227,156.4375 378.6039,156.75 L378.4321,156.6719 Z " fill="#000000"/><text fill="#000000" font-family="sans-serif" font-size="12" lengthAdjust="spacing" textLength="50" x="396.5883" y="165.1543">Contract</text><line style="stroke:#A80036;stroke-width:1.5;" x1="332.8383" x2="477.8383" y1="177" y2="177"/><ellipse cx="342.8383" cy="188" rx="3" ry="3" style="stroke:#038048;stroke-width:1.0;fill:none;"/><text fill="#000000" font-family="sans-serif" font-size="11" lengthAdjust="spacing" textLength="12" x="351.8383" y="191.2104">ID</text><ellipse cx="342.8383" cy="200.8047" rx="3" ry="3" style="stroke:#038048;stroke-width:1.0;fill:none;"/><text fill="#000000" font-family="sans-serif" font-size="11" lengthAdjust="spacing" textLength="57" x="351.8383" y="204.0151">Start date</text><ellipse cx="342.8383" cy="213.6094" rx="3" ry="3" style="stroke:#038048;stroke-width:1.0;fill:none;"/><text fill="#000000" font-family="sans-serif" font-size="11" lengthAdjust="spacing" textLength="51" x="351.8383" y="216.8198">End date</text><ellipse cx="342.8383" cy="226.4141" rx="3" ry="3" style="stroke:#038048;stroke-width:1.0;fill:none;"/><text fill="#000000" font-family="sans-serif" font-size="11" lengthAdjust="spacing" textLength="121" x="351.8383" y="229.6245">Customer's signature</text><line style="stroke:#A80036;stroke-width:1.5;" x1="332.8383" x2="477.8383" y1="236.2188" y2="236.2188"/><!--MD5=[764fca796ce7f635542948d8fc39db5e]
class Payment--><rect codeLine="58" fill="#FEFECE" filter="url(#f1qdnzakab2idy)" height="86.4141" id="Payment" style="stroke:#A80036;stroke-width:1.5;" width="121" x="660.8383" y="321"/><ellipse cx="693.3883" cy="337" fill="#ADD1B2" rx="11" ry="11" style="stroke:#A80036;stroke-width:1.0;"/><path d="M695.7321,332.6719 C694.7946,332.2344 694.2008,332.0938 693.3258,332.0938 C690.7008,332.0938 688.7008,334.1719 688.7008,336.8906 L688.7008,338.0156 C688.7008,340.5938 690.8102,342.4844 693.7008,342.4844 C694.9196,342.4844 696.0758,342.1875 696.8258,341.6406 C697.4039,341.2344 697.7321,340.7813 697.7321,340.3906 C697.7321,339.9375 697.3414,339.5469 696.8727,339.5469 C696.6539,339.5469 696.4508,339.625 696.2633,339.8125 C695.8102,340.2969 695.8102,340.2969 695.6227,340.3906 C695.2008,340.6563 694.5133,340.7813 693.7477,340.7813 C691.7008,340.7813 690.4039,339.6875 690.4039,337.9844 L690.4039,336.8906 C690.4039,335.1094 691.6539,333.7969 693.3883,333.7969 C693.9664,333.7969 694.5758,333.9531 695.0446,334.2031 C695.5289,334.4844 695.7008,334.7031 695.7946,335.1094 C695.8571,335.5156 695.8883,335.6406 696.0289,335.7656 C696.1696,335.9063 696.4039,336.0156 696.6227,336.0156 C696.8883,336.0156 697.1539,335.875 697.3258,335.6563 C697.4352,335.5 697.4664,335.3125 697.4664,334.8906 L697.4664,333.4688 C697.4664,333.0313 697.4508,332.9063 697.3571,332.75 C697.2008,332.4844 696.9196,332.3438 696.6227,332.3438 C696.3258,332.3438 696.1227,332.4375 695.9039,332.75 L695.7321,332.6719 Z " fill="#000000"/><text fill="#000000" font-family="sans-serif" font-size="12" lengthAdjust="spacing" textLength="50" x="711.2883" y="341.1543">Payment</text><line style="stroke:#A80036;stroke-width:1.5;" x1="661.8383" x2="780.8383" y1="353" y2="353"/><ellipse cx="671.8383" cy="364" rx="3" ry="3" style="stroke:#038048;stroke-width:1.0;fill:none;"/><text fill="#000000" font-family="sans-serif" font-size="11" lengthAdjust="spacing" textLength="95" x="680.8383" y="367.2104">Damage deposit</text><ellipse cx="671.8383" cy="376.8047" rx="3" ry="3" style="stroke:#038048;stroke-width:1.0;fill:none;"/><text fill="#000000" font-family="sans-serif" font-size="11" lengthAdjust="spacing" textLength="58" x="680.8383" y="380.0151">Partial fee</text><ellipse cx="671.8383" cy="389.6094" rx="3" ry="3" style="stroke:#038048;stroke-width:1.0;fill:none;"/><text fill="#000000" font-family="sans-serif" font-size="11" lengthAdjust="spacing" textLength="52" x="680.8383" y="392.8198">Total fee</text><line style="stroke:#A80036;stroke-width:1.5;" x1="661.8383" x2="780.8383" y1="399.4141" y2="399.4141"/><!--MD5=[75ec85fc313fa75958b62cd1fc2ce9f6]
class Checkout--><rect codeLine="72" fill="#FEFECE" filter="url(#f1qdnzakab2idy)" height="60.8047" id="Checkout" style="stroke:#A80036;stroke-width:1.5;" width="147" x="213.8383" y="7"/><ellipse cx="253.1383" cy="23" fill="#ADD1B2" rx="11" ry="11" style="stroke:#A80036;stroke-width:1.0;"/><path d="M255.4821,18.6719 C254.5446,18.2344 253.9508,18.0938 253.0758,18.0938 C250.4508,18.0938 248.4508,20.1719 248.4508,22.8906 L248.4508,24.0156 C248.4508,26.5938 250.5602,28.4844 253.4508,28.4844 C254.6696,28.4844 255.8258,28.1875 256.5758,27.6406 C257.1539,27.2344 257.4821,26.7813 257.4821,26.3906 C257.4821,25.9375 257.0914,25.5469 256.6227,25.5469 C256.4039,25.5469 256.2008,25.625 256.0133,25.8125 C255.5602,26.2969 255.5602,26.2969 255.3727,26.3906 C254.9508,26.6563 254.2633,26.7813 253.4977,26.7813 C251.4508,26.7813 250.1539,25.6875 250.1539,23.9844 L250.1539,22.8906 C250.1539,21.1094 251.4039,19.7969 253.1383,19.7969 C253.7164,19.7969 254.3258,19.9531 254.7946,20.2031 C255.2789,20.4844 255.4508,20.7031 255.5446,21.1094 C255.6071,21.5156 255.6383,21.6406 255.7789,21.7656 C255.9196,21.9063 256.1539,22.0156 256.3727,22.0156 C256.6383,22.0156 256.9039,21.875 257.0758,21.6563 C257.1852,21.5 257.2164,21.3125 257.2164,20.8906 L257.2164,19.4688 C257.2164,19.0313 257.2008,18.9063 257.1071,18.75 C256.9508,18.4844 256.6696,18.3438 256.3727,18.3438 C256.0758,18.3438 255.8727,18.4375 255.6539,18.75 L255.4821,18.6719 Z " fill="#000000"/><text fill="#000000" font-family="sans-serif" font-size="12" lengthAdjust="spacing" textLength="61" x="272.5383" y="27.1543">Check-out</text><line style="stroke:#A80036;stroke-width:1.5;" x1="214.8383" x2="359.8383" y1="39" y2="39"/><ellipse cx="224.8383" cy="50" rx="3" ry="3" style="stroke:#038048;stroke-width:1.0;fill:none;"/><text fill="#000000" font-family="sans-serif" font-size="11" lengthAdjust="spacing" textLength="121" x="233.8383" y="53.2104">Customer's signature</text><line style="stroke:#A80036;stroke-width:1.5;" x1="214.8383" x2="359.8383" y1="59.8047" y2="59.8047"/><!--MD5=[e1ae6f2cea02e276685729daa4ac67c0]
class Damage--><rect codeLine="73" fill="#FEFECE" filter="url(#f1qdnzakab2idy)" height="60.8047" id="Damage" style="stroke:#A80036;stroke-width:1.5;" width="90" x="12.3383" y="164"/><ellipse cx="30.9383" cy="180" fill="#ADD1B2" rx="11" ry="11" style="stroke:#A80036;stroke-width:1.0;"/><path d="M33.2821,175.6719 C32.3446,175.2344 31.7508,175.0938 30.8758,175.0938 C28.2508,175.0938 26.2508,177.1719 26.2508,179.8906 L26.2508,181.0156 C26.2508,183.5938 28.3602,185.4844 31.2508,185.4844 C32.4696,185.4844 33.6258,185.1875 34.3758,184.6406 C34.9539,184.2344 35.2821,183.7813 35.2821,183.3906 C35.2821,182.9375 34.8914,182.5469 34.4227,182.5469 C34.2039,182.5469 34.0008,182.625 33.8133,182.8125 C33.3602,183.2969 33.3602,183.2969 33.1727,183.3906 C32.7508,183.6563 32.0633,183.7813 31.2977,183.7813 C29.2508,183.7813 27.9539,182.6875 27.9539,180.9844 L27.9539,179.8906 C27.9539,178.1094 29.2039,176.7969 30.9383,176.7969 C31.5164,176.7969 32.1258,176.9531 32.5946,177.2031 C33.0789,177.4844 33.2508,177.7031 33.3446,178.1094 C33.4071,178.5156 33.4383,178.6406 33.5789,178.7656 C33.7196,178.9063 33.9539,179.0156 34.1727,179.0156 C34.4383,179.0156 34.7039,178.875 34.8758,178.6563 C34.9852,178.5 35.0164,178.3125 35.0164,177.8906 L35.0164,176.4688 C35.0164,176.0313 35.0008,175.9063 34.9071,175.75 C34.7508,175.4844 34.4696,175.3438 34.1727,175.3438 C33.8758,175.3438 33.6727,175.4375 33.4539,175.75 L33.2821,175.6719 Z " fill="#000000"/><text fill="#000000" font-family="sans-serif" font-size="12" lengthAdjust="spacing" textLength="50" x="45.7383" y="184.1543">Damage</text><line style="stroke:#A80036;stroke-width:1.5;" x1="13.3383" x2="101.3383" y1="196" y2="196"/><ellipse cx="23.3383" cy="207" rx="3" ry="3" style="stroke:#038048;stroke-width:1.0;fill:none;"/><text fill="#000000" font-family="sans-serif" font-size="11" lengthAdjust="spacing" textLength="64" x="32.3383" y="210.2104">Description</text><line style="stroke:#A80036;stroke-width:1.5;" x1="13.3383" x2="101.3383" y1="216.8047" y2="216.8047"/><!--MD5=[3d3777765217820a0428eaf6fa50d184]
class Checkin--><rect codeLine="82" fill="#FEFECE" filter="url(#f1qdnzakab2idy)" height="60.8047" id="Checkin" style="stroke:#A80036;stroke-width:1.5;" width="84" x="85.3383" y="7"/><ellipse cx="100.3383" cy="23" fill="#ADD1B2" rx="11" ry="11" style="stroke:#A80036;stroke-width:1.0;"/><path d="M102.6821,18.6719 C101.7446,18.2344 101.1508,18.0938 100.2758,18.0938 C97.6508,18.0938 95.6508,20.1719 95.6508,22.8906 L95.6508,24.0156 C95.6508,26.5938 97.7602,28.4844 100.6508,28.4844 C101.8696,28.4844 103.0258,28.1875 103.7758,27.6406 C104.3539,27.2344 104.6821,26.7813 104.6821,26.3906 C104.6821,25.9375 104.2914,25.5469 103.8227,25.5469 C103.6039,25.5469 103.4008,25.625 103.2133,25.8125 C102.7602,26.2969 102.7602,26.2969 102.5727,26.3906 C102.1508,26.6563 101.4633,26.7813 100.6977,26.7813 C98.6508,26.7813 97.3539,25.6875 97.3539,23.9844 L97.3539,22.8906 C97.3539,21.1094 98.6039,19.7969 100.3383,19.7969 C100.9164,19.7969 101.5258,19.9531 101.9946,20.2031 C102.4789,20.4844 102.6508,20.7031 102.7446,21.1094 C102.8071,21.5156 102.8383,21.6406 102.9789,21.7656 C103.1196,21.9063 103.3539,22.0156 103.5727,22.0156 C103.8383,22.0156 104.1039,21.875 104.2758,21.6563 C104.3852,21.5 104.4164,21.3125 104.4164,20.8906 L104.4164,19.4688 C104.4164,19.0313 104.4008,18.9063 104.3071,18.75 C104.1508,18.4844 103.8696,18.3438 103.5727,18.3438 C103.2758,18.3438 103.0727,18.4375 102.8539,18.75 L102.6821,18.6719 Z " fill="#000000"/><text fill="#000000" font-family="sans-serif" font-size="12" lengthAdjust="spacing" textLength="52" x="114.3383" y="27.1543">Check-in</text><line style="stroke:#A80036;stroke-width:1.5;" x1="86.3383" x2="168.3383" y1="39" y2="39"/><ellipse cx="96.3383" cy="50" rx="3" ry="3" style="stroke:#038048;stroke-width:1.0;fill:none;"/><text fill="#000000" font-family="sans-serif" font-size="11" lengthAdjust="spacing" textLength="51" x="105.3383" y="53.2104">End date</text><line style="stroke:#A80036;stroke-width:1.5;" x1="86.3383" x2="168.3383" y1="59.8047" y2="59.8047"/><!--MD5=[894442645724153f40a9f7a43026dbfc]
class Invoice--><rect codeLine="88" fill="#FEFECE" filter="url(#f1qdnzakab2idy)" height="60.8047" id="Invoice" style="stroke:#A80036;stroke-width:1.5;" width="75" x="696.8383" y="164"/><ellipse cx="711.8383" cy="180" fill="#ADD1B2" rx="11" ry="11" style="stroke:#A80036;stroke-width:1.0;"/><path d="M714.1821,175.6719 C713.2446,175.2344 712.6508,175.0938 711.7758,175.0938 C709.1508,175.0938 707.1508,177.1719 707.1508,179.8906 L707.1508,181.0156 C707.1508,183.5938 709.2602,185.4844 712.1508,185.4844 C713.3696,185.4844 714.5258,185.1875 715.2758,184.6406 C715.8539,184.2344 716.1821,183.7813 716.1821,183.3906 C716.1821,182.9375 715.7914,182.5469 715.3227,182.5469 C715.1039,182.5469 714.9008,182.625 714.7133,182.8125 C714.2602,183.2969 714.2602,183.2969 714.0727,183.3906 C713.6508,183.6563 712.9633,183.7813 712.1977,183.7813 C710.1508,183.7813 708.8539,182.6875 708.8539,180.9844 L708.8539,179.8906 C708.8539,178.1094 710.1039,176.7969 711.8383,176.7969 C712.4164,176.7969 713.0258,176.9531 713.4946,177.2031 C713.9789,177.4844 714.1508,177.7031 714.2446,178.1094 C714.3071,178.5156 714.3383,178.6406 714.4789,178.7656 C714.6196,178.9063 714.8539,179.0156 715.0727,179.0156 C715.3383,179.0156 715.6039,178.875 715.7758,178.6563 C715.8852,178.5 715.9164,178.3125 715.9164,177.8906 L715.9164,176.4688 C715.9164,176.0313 715.9008,175.9063 715.8071,175.75 C715.6508,175.4844 715.3696,175.3438 715.0727,175.3438 C714.7758,175.3438 714.5727,175.4375 714.3539,175.75 L714.1821,175.6719 Z " fill="#000000"/><text fill="#000000" font-family="sans-serif" font-size="12" lengthAdjust="spacing" textLength="43" x="725.8383" y="184.1543">Invoice</text><line style="stroke:#A80036;stroke-width:1.5;" x1="697.8383" x2="770.8383" y1="196" y2="196"/><ellipse cx="707.8383" cy="207" rx="3" ry="3" style="stroke:#038048;stroke-width:1.0;fill:none;"/><text fill="#000000" font-family="sans-serif" font-size="11" lengthAdjust="spacing" textLength="12" x="716.8383" y="210.2104">ID</text><line style="stroke:#A80036;stroke-width:1.5;" x1="697.8383" x2="770.8383" y1="216.8047" y2="216.8047"/><!--MD5=[3f2200ee59b7ff328547c16fcaa82aaa]
reverse link CARS to ParkingSite--><path codeLine="8" d="M935.9083,228.55 C965.0783,259.087 1008.0213,304.043 1036.0883,333.422 " fill="none" id="CARS-backto-ParkingSite" style="stroke:#A80036;stroke-width:1.0;"/><polygon fill="#FFFFFF" points="926.5853,218.79,927.8371,225.8916,934.8738,227.4676,933.6221,220.3659,926.5853,218.79" style="stroke:#A80036;stroke-width:1.0;"/><text fill="#000000" font-family="sans-serif" font-size="13" lengthAdjust="spacing" textLength="7" x="1022.5399" y="322.6691">*</text><!--MD5=[d37b3934b94f6a41b3abc66745ff87de]
link CARS to CarModel--><path codeLine="9" d="M900.4023,218.816 C891.4503,263.816 865.0163,362.151 799.3383,407 C736.8833,449.648 511.4043,381.216 460.3383,437 C407.9673,494.21 444.3213,591.413 472.3623,646.8881 " fill="none" id="CARS-CarModel" style="stroke:#A80036;stroke-width:1.0;"/><polygon fill="#000000" points="461.8029,449.1021,470.2767,444.784,466.1203,440.6279,461.8029,449.1021" style="stroke:#000000;stroke-width:1.0;"/><text fill="#000000" font-family="sans-serif" font-size="13" lengthAdjust="spacing" textLength="38" x="474.3383" y="450.0669">offers</text><text fill="#000000" font-family="sans-serif" font-size="13" lengthAdjust="spacing" textLength="7" x="460.9833" y="635.8662">*</text><!--MD5=[0bb5ecd22f769035943466e1f175b6da]
link ParkingSite to Car--><path codeLine="10" d="M1017.1883,394.55 C1009.9403,398.845 1002.4883,403.122 995.3383,407 C952.8763,430.031 942.8713,437.869 897.3383,454 C843.0773,473.223 826.7703,468.473 771.3383,484 C735.0243,494.172 693.6703,507.91 667.5463,516.861 " fill="none" id="ParkingSite-Car" style="stroke:#A80036;stroke-width:1.0;"/><polygon fill="#000000" points="949.0579,443.9154,939.5497,444.128,941.4905,449.6762,949.0579,443.9154" style="stroke:#000000;stroke-width:1.0;"/><text fill="#000000" font-family="sans-serif" font-size="13" lengthAdjust="spacing" textLength="73" x="953.3383" y="450.0669">is parked in</text><text fill="#000000" font-family="sans-serif" font-size="13" lengthAdjust="spacing" textLength="7" x="675.159" y="509.4499">*</text><!--MD5=[02420b91ed6c226998eeb0f6ab29d826]
link ParkingSite to Employee--><path codeLine="11" d="M1098.2883,394.615 C1112.6983,407.425 1129.5483,422.726 1144.3383,437 C1159.7983,451.922 1176.2983,468.766 1190.6783,483.754 " fill="none" id="ParkingSite-Employee" style="stroke:#A80036;stroke-width:1.0;"/><polygon fill="#000000" points="1161.74,442.0947,1166.2088,450.4901,1170.29,446.26,1161.74,442.0947" style="stroke:#000000;stroke-width:1.0;"/><text fill="#000000" font-family="sans-serif" font-size="13" lengthAdjust="spacing" textLength="53" x="1174.3383" y="450.0669">works in</text><text fill="#000000" font-family="sans-serif" font-size="13" lengthAdjust="spacing" textLength="7" x="1177.0694" y="473.0289">*</text><!--MD5=[5bfc8a85a28873f5396f08cff86728d7]
link ParkingSite to Address--><path codeLine="12" d="M1062.8183,394.767 C1062.2283,407.736 1061.6283,423.116 1061.3383,437 C1061.0183,452.302 1061.3983,469.079 1061.9783,483.902 " fill="none" id="ParkingSite-Address" style="stroke:#A80036;stroke-width:1.0;"/><polygon fill="#000000" points="1066.2912,450.5662,1069.3152,441.5492,1063.4376,441.4938,1066.2912,450.5662" style="stroke:#000000;stroke-width:1.0;"/><text fill="#000000" font-family="sans-serif" font-size="13" lengthAdjust="spacing" textLength="64" x="1075.3383" y="450.0669">located at</text><!--MD5=[b93b373ada3841d2c88bbb890cab4936]
link Car to CarModel--><path codeLine="13" d="M615.0803,557.156 C592.5553,582.166 559.8103,618.525 534.4083,646.7287 " fill="none" id="Car-CarModel" style="stroke:#A80036;stroke-width:1.0;"/><polygon fill="#000000" points="581.6844,604.8511,573.4474,609.6054,577.815,613.539,581.6844,604.8511" style="stroke:#000000;stroke-width:1.0;"/><text fill="#000000" font-family="sans-serif" font-size="13" lengthAdjust="spacing" textLength="61" x="587.3383" y="613.0669">describes</text><text fill="#000000" font-family="sans-serif" font-size="13" lengthAdjust="spacing" textLength="7" x="600.4548" y="560.0705">*</text><!--MD5=[f1f9b6f25047388ffbf25aa240c8f3fd]
link Insurance to Insurer--><path codeLine="29" d="M888.0823,391.811 C859.4473,409.247 827.1243,429.998 823.3383,437 C814.7363,452.912 814.6233,472.869 817.0373,489.851 " fill="none" id="Insurance-Insurer" style="stroke:#A80036;stroke-width:1.0;"/><polygon fill="#000000" points="831.2722,441.5177,823.5849,447.1174,828.3445,450.5664,831.2722,441.5177" style="stroke:#000000;stroke-width:1.0;"/><text fill="#000000" font-family="sans-serif" font-size="13" lengthAdjust="spacing" textLength="55" x="837.3383" y="450.0669">provides</text><text fill="#000000" font-family="sans-serif" font-size="13" lengthAdjust="spacing" textLength="7" x="873.3118" y="392.1411">*</text><!--MD5=[6c30fed22086064e70b0965e3cf6793a]
link Insurance to Car--><path codeLine="30" d="M888.3273,394.126 C879.6123,398.932 870.3743,403.484 861.3383,407 C802.8443,429.76 777.8023,405.803 723.3383,437 C697.9973,451.515 676.0003,476.507 661.1863,496.318 " fill="none" id="Insurance-Car" style="stroke:#A80036;stroke-width:1.0;"/><polygon fill="#000000" points="732.8981,443.5149,723.4436,444.5459,725.8552,449.9062,732.8981,443.5149" style="stroke:#000000;stroke-width:1.0;"/><text fill="#000000" font-family="sans-serif" font-size="13" lengthAdjust="spacing" textLength="72" x="737.3383" y="450.0669">covered by</text><text fill="#000000" font-family="sans-serif" font-size="13" lengthAdjust="spacing" textLength="7" x="873.2927" y="412.4519">*</text><!--MD5=[aeaf9200cbaa7c7c08444b4bc8b3369b]
link Customer to DriverLicense--><path codeLine="39" d="M248.8603,570.301 C230.3333,596.015 206.9293,628.499 189.2893,652.9812 " fill="none" id="Customer-DriverLicense" style="stroke:#A80036;stroke-width:1.0;"/><!--MD5=[64f0e157b9264e99419c5f82d7e84fb1]
link Customer to CreditCard--><path codeLine="40" d="M288.0083,570.301 C293.2793,596.015 299.9373,628.499 304.9553,652.9812 " fill="none" id="Customer-CreditCard" style="stroke:#A80036;stroke-width:1.0;"/><!--MD5=[084ed435efc901fd8b74a4436d3ced04]
link Reservation to Customer--><path codeLine="51" d="M374.0713,401.366 C362.6903,412.378 350.6153,424.798 340.3383,437 C328.0293,451.614 315.8453,468.712 305.6403,483.993 " fill="none" id="Reservation-Customer" style="stroke:#A80036;stroke-width:1.0;"/><polygon fill="#000000" points="348.5275,441.7156,340.4947,446.8072,345.0216,450.5564,348.5275,441.7156" style="stroke:#000000;stroke-width:1.0;"/><text fill="#000000" font-family="sans-serif" font-size="13" lengthAdjust="spacing" textLength="56" x="354.3383" y="450.0669">reserves</text><text fill="#000000" font-family="sans-serif" font-size="13" lengthAdjust="spacing" textLength="7" x="360.0959" y="420.6251">*</text><!--MD5=[a66ffbc7ba777f65e7d171d99d9bd382]
link Reservation to Car--><path codeLine="52" d="M465.2813,401.132 C511.8173,434.137 578.7553,481.613 615.2263,507.48 " fill="none" id="Reservation-Car" style="stroke:#A80036;stroke-width:1.0;"/><polygon fill="#000000" points="544.4167,448.459,538.7391,440.8291,535.3386,445.6235,544.4167,448.459" style="stroke:#000000;stroke-width:1.0;"/><text fill="#000000" font-family="sans-serif" font-size="13" lengthAdjust="spacing" textLength="56" x="549.3383" y="450.0669">reserves</text><text fill="#000000" font-family="sans-serif" font-size="13" lengthAdjust="spacing" textLength="7" x="466.1391" y="420.6344">*</text><!--MD5=[6a0c816ed4225dd335dfd1cbbe9e3505]
link Contract to Customer--><path codeLine="59" d="M350.8803,244.155 C330.5083,265.589 309.4013,292.395 297.3383,321 C275.0563,373.836 273.6383,441 275.6813,483.758 " fill="none" id="Contract-Customer" style="stroke:#A80036;stroke-width:1.0;"/><polygon fill="#000000" points="303.8355,359.2958,298.323,367.0458,303.9311,368.8059,303.8355,359.2958" style="stroke:#000000;stroke-width:1.0;"/><text fill="#000000" font-family="sans-serif" font-size="13" lengthAdjust="spacing" textLength="33" x="311.3383" y="368.5669">signs</text><text fill="#000000" font-family="sans-serif" font-size="13" lengthAdjust="spacing" textLength="7" x="335.73" y="264.2533">*</text><!--MD5=[6cca602e54c50fadc946652a0977bbb7]
link Contract to Reservation--><path codeLine="60" d="M407.9653,244.398 C409.3823,270.76 411.1003,302.728 412.3953,326.83 " fill="none" id="Contract-Reservation" style="stroke:#A80036;stroke-width:1.0;"/><polygon fill="#000000" points="416.6066,287.5592,419.0559,278.3694,413.1865,278.6849,416.6066,287.5592" style="stroke:#000000;stroke-width:1.0;"/><text fill="#000000" font-family="sans-serif" font-size="13" lengthAdjust="spacing" textLength="65" x="425.3383" y="287.0669">relative to</text><text fill="#000000" font-family="sans-serif" font-size="13" lengthAdjust="spacing" textLength="24" x="382.7058" y="264.172">0..1</text><text fill="#000000" font-family="sans-serif" font-size="13" lengthAdjust="spacing" textLength="24" x="385.9117" y="315.9867">0..1</text><!--MD5=[5e2df4cf7bf621eb2ca0886e3295825c]
link Contract to Payment--><path codeLine="61" d="M479.0393,233.883 C503.3613,246.6 530.5343,260.861 555.3383,274 C590.3033,292.522 629.3003,313.417 660.7063,330.305 " fill="none" id="Contract-Payment" style="stroke:#A80036;stroke-width:1.0;"/><polygon fill="#000000" points="596.7548,284.9105,590.1431,278.0741,587.3875,283.2659,596.7548,284.9105" style="stroke:#000000;stroke-width:1.0;"/><text fill="#000000" font-family="sans-serif" font-size="13" lengthAdjust="spacing" textLength="85" x="601.3383" y="287.0669">has payment</text><!--MD5=[4db1fbb6b43538619851b0dccb8e0bba]
link Contract to Car--><path codeLine="62" d="M472.0233,244.114 C481.9963,253.294 491.5343,263.376 499.3383,274 C537.2073,325.552 510.7533,360.181 554.3383,407 C574.6533,428.822 595.1123,414.213 614.3383,437 C628.3953,453.66 635.1353,477.499 638.3653,496.313 " fill="none" id="Contract-Car" style="stroke:#A80036;stroke-width:1.0;"/><polygon fill="#000000" points="556.5854,359.8925,559.1121,369.0613,564.0188,365.825,556.5854,359.8925" style="stroke:#000000;stroke-width:1.0;"/><text fill="#000000" font-family="sans-serif" font-size="13" lengthAdjust="spacing" textLength="74" x="568.3383" y="368.5669">assigned to</text><text fill="#000000" font-family="sans-serif" font-size="13" lengthAdjust="spacing" textLength="7" x="473.9087" y="264.2065">*</text><!--MD5=[2283fa0b7a3c6f7e803247cdc9962b5e]
link Checkout to Contract--><path codeLine="74" d="M317.8253,68.036 C326.7653,77.289 336.2933,87.766 344.3383,98 C355.7673,112.539 367.0273,129.277 376.7013,144.639 " fill="none" id="Checkout-Contract" style="stroke:#A80036;stroke-width:1.0;"/><polygon fill="#000000" points="364.3853,110.5308,361.2035,101.5682,356.5431,105.1501,364.3853,110.5308" style="stroke:#000000;stroke-width:1.0;"/><text fill="#000000" font-family="sans-serif" font-size="13" lengthAdjust="spacing" textLength="74" x="370.3383" y="111.0669">attached to</text><!--MD5=[21cf0dd1904e1395f4c7a04097ce76dc]
link Checkout to Damage--><path codeLine="75" d="M213.5723,61.381 C178.7753,73.076 141.7613,87.1 127.3383,98 C104.2139,115.476 85.3272,142.672 73.0252,163.579 " fill="none" id="Checkout-Damage" style="stroke:#A80036;stroke-width:1.0;"/><polygon fill="#000000" points="128.2944,109.5069,137.3383,106.5644,133.8815,101.8105,128.2944,109.5069" style="stroke:#000000;stroke-width:1.0;"/><text fill="#000000" font-family="sans-serif" font-size="13" lengthAdjust="spacing" textLength="23" x="141.3383" y="111.0669">has</text><text fill="#000000" font-family="sans-serif" font-size="13" lengthAdjust="spacing" textLength="7" x="68.5388" y="152.7554">*</text><!--MD5=[d4b35842c7081cef0fecfa10cab2139a]
link Checkout to Customer--><path codeLine="76" d="M243.1103,68.103 C233.8953,76.581 225.4393,86.648 220.3383,98 C217.2413,104.892 219.8183,107.462 220.3383,115 C229.7033,250.739 257.3323,409.743 271.2013,483.915 " fill="none" id="Checkout-Customer" style="stroke:#A80036;stroke-width:1.0;"/><polygon fill="#000000" points="244.0013,277.5778,241.6787,286.8004,247.5432,286.4042,244.0013,277.5778" style="stroke:#000000;stroke-width:1.0;"/><text fill="#000000" font-family="sans-serif" font-size="13" lengthAdjust="spacing" textLength="33" x="253.3383" y="287.0669">signs</text><text fill="#000000" font-family="sans-serif" font-size="13" lengthAdjust="spacing" textLength="7" x="226.2664" y="88.0625">*</text><!--MD5=[b45c1f6aa79f1b830fba6e4c66eac9e4]
link Checkout to Employee--><path codeLine="77" d="M361.0403,44.602 C511.9253,58.007 850.4553,93.029 953.3383,145 C1114.6483,226.487 1171.7483,268.208 1236.3383,437 C1241.9283,451.608 1242.1683,468.543 1240.4183,483.695 " fill="none" id="Checkout-Employee" style="stroke:#A80036;stroke-width:1.0;"/><polygon fill="#000000" points="1158.865,280.3328,1165.6444,287.0028,1168.2702,281.7441,1158.865,280.3328" style="stroke:#000000;stroke-width:1.0;"/><text fill="#000000" font-family="sans-serif" font-size="13" lengthAdjust="spacing" textLength="59" x="1172.3383" y="287.0669">performs</text><text fill="#000000" font-family="sans-serif" font-size="13" lengthAdjust="spacing" textLength="7" x="369.0018" y="41.6448">*</text><!--MD5=[4d9fdb0d204a1def546c729951723dd8]
link Checkin to Contract--><path codeLine="83" d="M169.4403,64.193 C194.4983,79.303 227.0253,98.6 256.3383,115 C280.7063,128.633 307.6293,143.019 331.8093,155.699 " fill="none" id="Checkin-Contract" style="stroke:#A80036;stroke-width:1.0;"/><polygon fill="#000000" points="265.6942,109.0212,259.2572,102.0201,256.3714,107.1407,265.6942,109.0212" style="stroke:#000000;stroke-width:1.0;"/><text fill="#000000" font-family="sans-serif" font-size="13" lengthAdjust="spacing" textLength="65" x="270.3383" y="111.0669">relative to</text><!--MD5=[8b7e322bb3a1978ab6502365be223c80]
link Checkin to Damage--><path codeLine="84" d="M85.063,49.832 C60.9559,58.701 32.7514,73.712 18.3383,98 C6,118.792 17.5203,144.213 31.167,163.598 " fill="none" id="Checkin-Damage" style="stroke:#A80036;stroke-width:1.0;"/><polygon fill="#000000" points="21.1977,111.085,27.7261,104.169,22.4142,101.6526,21.1977,111.085" style="stroke:#000000;stroke-width:1.0;"/><text fill="#000000" font-family="sans-serif" font-size="13" lengthAdjust="spacing" textLength="54" x="32.3383" y="111.0669">has new</text><text fill="#000000" font-family="sans-serif" font-size="13" lengthAdjust="spacing" textLength="7" x="18.0473" y="152.7783">*</text><!--MD5=[8057192d0da8c3a76f90b3876072c699]
link Invoice to Payment--><path codeLine="89" d="M732.0443,225.06 C729.9813,251.639 726.9283,290.978 724.6093,320.852 " fill="none" id="Invoice-Payment" style="stroke:#A80036;stroke-width:1.0;"/><polygon fill="#000000" points="732.9514,287.5514,736.5814,278.7609,730.7212,278.306,732.9514,287.5514" style="stroke:#000000;stroke-width:1.0;"/><text fill="#000000" font-family="sans-serif" font-size="13" lengthAdjust="spacing" textLength="62" x="742.3383" y="287.0669">related to</text><!--MD5=[8105e9fb6bcd69bd42c41fb2ea9a6685]
@startuml
' CARS company
class CARS
class "Parking site" as ParkingSite
class Address
class Employee
class Car
class "Car model" as CarModel
CARS o- - "*" ParkingSite
CARS - - "*" CarModel : offers >
ParkingSite - - "*" Car : is parked in <
ParkingSite - - "*" Employee : works in <
ParkingSite - - Address : located at >
Car "*" - - CarModel : describes <
Car : +Tag
CarModel : +ID
CarModel : +Type
CarModel : +Number of seats
ParkingSite : +ID
Address : +City
Address : +Type
Address : +Name
Employee : +ID
Employee : +Name
Employee : +Surname

' Insurances
class Insurer
class Insurance
Insurance "*" - - Insurer : provides <
Insurance "*" - - Car : covered by <
Insurer : +ID
Insurer : +Name
Insurance : +Type

' Customer
class Customer
class "Driver license" as DriverLicense
class "Credit card" as CreditCard
Customer - - DriverLicense
Customer - - CreditCard
Customer : +SSN
Customer : +Name
Customer : +Surname
DriverLicense : +ID
DriverLicense : +Expiration date
CreditCard : +Number
CreditCard : +Expiration date

' Reservation
class Reservation
Reservation "*" - - Customer : reserves <
Reservation "*" - - Car : reserves >
Reservation : +Start date
Reservation : +End date

' Check-out - Part 1
class Contract
class Payment
Contract "*" - - Customer : signs <
Contract "0..1" - - "0..1" Reservation : relative to >
Contract - - Payment : has payment >
Contract "*" - - Car : assigned to <
Contract : +ID
Contract : +Start date
Contract : +End date
Contract : +Customer's signature
Payment : +Damage deposit
Payment : +Partial fee
Payment : +Total fee

' Check-out - Part 2
class "Check-out" as Checkout
class Damage
Checkout - - Contract : attached to >
Checkout - - "*" Damage : has >
Checkout "*" - - Customer : signs <
Checkout "*" - - Employee : performs <
Checkout : +Customer's signature
Damage : +Description

' Check-in
class "Check-in" as Checkin
Checkin - - Contract : relative to >
Checkin - - "*" Damage : has new >
Checkin : +End date

' Invoice
class Invoice
Invoice - - Payment : related to >
Invoice : +ID
@enduml

@startuml
class CARS
class "Parking site" as ParkingSite
class Address
class Employee
class Car
class "Car model" as CarModel
CARS o- - "*" ParkingSite
CARS - - "*" CarModel : offers >
ParkingSite - - "*" Car : is parked in <
ParkingSite - - "*" Employee : works in <
ParkingSite - - Address : located at >
Car "*" - - CarModel : describes <
Car : +Tag
CarModel : +ID
CarModel : +Type
CarModel : +Number of seats
ParkingSite : +ID
Address : +City
Address : +Type
Address : +Name
Employee : +ID
Employee : +Name
Employee : +Surname

class Insurer
class Insurance
Insurance "*" - - Insurer : provides <
Insurance "*" - - Car : covered by <
Insurer : +ID
Insurer : +Name
Insurance : +Type

class Customer
class "Driver license" as DriverLicense
class "Credit card" as CreditCard
Customer - - DriverLicense
Customer - - CreditCard
Customer : +SSN
Customer : +Name
Customer : +Surname
DriverLicense : +ID
DriverLicense : +Expiration date
CreditCard : +Number
CreditCard : +Expiration date

class Reservation
Reservation "*" - - Customer : reserves <
Reservation "*" - - Car : reserves >
Reservation : +Start date
Reservation : +End date

class Contract
class Payment
Contract "*" - - Customer : signs <
Contract "0..1" - - "0..1" Reservation : relative to >
Contract - - Payment : has payment >
Contract "*" - - Car : assigned to <
Contract : +ID
Contract : +Start date
Contract : +End date
Contract : +Customer's signature
Payment : +Damage deposit
Payment : +Partial fee
Payment : +Total fee

class "Check-out" as Checkout
class Damage
Checkout - - Contract : attached to >
Checkout - - "*" Damage : has >
Checkout "*" - - Customer : signs <
Checkout "*" - - Employee : performs <
Checkout : +Customer's signature
Damage : +Description

class "Check-in" as Checkin
Checkin - - Contract : relative to >
Checkin - - "*" Damage : has new >
Checkin : +End date

class Invoice
Invoice - - Payment : related to >
Invoice : +ID
@enduml

PlantUML version 1.2021.11beta3(Unknown compile time)
(GPL source distribution)
Java Runtime: Java(TM) SE Runtime Environment
JVM: Java HotSpot(TM) 64-Bit Server VM
Default Encoding: UTF-8
Language: en
Country: US
--></g></svg>