<?xml version="1.0" encoding="UTF-8" standalone="no"?><svg xmlns="http://www.w3.org/2000/svg" xmlns:xlink="http://www.w3.org/1999/xlink" contentScriptType="application/ecmascript" contentStyleType="text/css" height="422px" preserveAspectRatio="none" style="width:347px;height:422px;background:#FFFFFF;" version="1.1" viewBox="0 0 347 422" width="347px" zoomAndPan="magnify"><defs><filter height="300%" id="f1m510lnza7hoy" width="300%" x="-1" y="-1"><feGaussianBlur result="blurOut" stdDeviation="2.0"/><feColorMatrix in="blurOut" result="blurOut2" type="matrix" values="0 0 0 0 0 0 0 0 0 0 0 0 0 0 0 0 0 0 .4 0"/><feOffset dx="4.0" dy="4.0" in="blurOut2" result="blurOut3"/><feBlend in="SourceGraphic" in2="blurOut3" mode="normal"/></filter></defs><g><!--MD5=[1ec566dfef3ab21ee7517ad864f3ee97]
entity CustomerDevice--><polygon fill="#FEFECE" filter="url(#f1m510lnza7hoy)" points="16,256,26,246,188,246,188,282.2969,178,292.2969,16,292.2969,16,256" style="stroke:#000000;stroke-width:1.5;"/><line style="stroke:#000000;stroke-width:1.5;" x1="178" x2="188" y1="256" y2="246"/><line style="stroke:#000000;stroke-width:1.5;" x1="16" x2="178" y1="256" y2="256"/><line style="stroke:#000000;stroke-width:1.5;" x1="178" x2="178" y1="256" y2="292.2969"/><text fill="#000000" font-family="sans-serif" font-size="14" lengthAdjust="spacing" textLength="132" x="31" y="278.9951">Customer's device</text><!--MD5=[4996584ef25f7f00b22e7845e62cd33c]
entity OfficePC--><polygon fill="#FEFECE" filter="url(#f1m510lnza7hoy)" points="223.5,256,233.5,246,330.5,246,330.5,282.2969,320.5,292.2969,223.5,292.2969,223.5,256" style="stroke:#000000;stroke-width:1.5;"/><line style="stroke:#000000;stroke-width:1.5;" x1="320.5" x2="330.5" y1="256" y2="246"/><line style="stroke:#000000;stroke-width:1.5;" x1="223.5" x2="320.5" y1="256" y2="256"/><line style="stroke:#000000;stroke-width:1.5;" x1="320.5" x2="320.5" y1="256" y2="292.2969"/><text fill="#000000" font-family="sans-serif" font-size="14" lengthAdjust="spacing" textLength="67" x="238.5" y="278.9951">Office PC</text><!--MD5=[53bc4871f01fceb9ed68ccb9794567b6]
entity CARSServer--><polygon fill="#FEFECE" filter="url(#f1m510lnza7hoy)" points="104,133,114,123,234,123,234,159.2969,224,169.2969,104,169.2969,104,133" style="stroke:#000000;stroke-width:1.5;"/><line style="stroke:#000000;stroke-width:1.5;" x1="224" x2="234" y1="133" y2="123"/><line style="stroke:#000000;stroke-width:1.5;" x1="104" x2="224" y1="133" y2="133"/><line style="stroke:#000000;stroke-width:1.5;" x1="224" x2="224" y1="133" y2="169.2969"/><text fill="#000000" font-family="sans-serif" font-size="14" lengthAdjust="spacing" textLength="90" x="119" y="155.9951">CARS Server</text><!--MD5=[9d3cdd3fc98cc5cf302bc6ead636b28b]
entity Browser1--><rect fill="#FEFECE" filter="url(#f1m510lnza7hoy)" height="39.2969" style="stroke:#000000;stroke-width:1.5;" width="88" x="58" y="369"/><polygon fill="#FEFECE" points="129,374,129,388,141,388,141,380,135,374,129,374" style="stroke:#000000;stroke-width:1.5;"/><line style="stroke:#000000;stroke-width:1.5;" x1="135" x2="135" y1="374" y2="380"/><line style="stroke:#000000;stroke-width:1.5;" x1="141" x2="135" y1="380" y2="380"/><text fill="#000000" font-family="sans-serif" font-size="14" lengthAdjust="spacing" textLength="58" x="68" y="394.9951">Browser</text><!--MD5=[6c5c0dfe5cdb6579c98ad0c5901bc7d8]
entity Browser2--><rect fill="#FEFECE" filter="url(#f1m510lnza7hoy)" height="39.2969" style="stroke:#000000;stroke-width:1.5;" width="88" x="233" y="369"/><polygon fill="#FEFECE" points="304,374,304,388,316,388,316,380,310,374,304,374" style="stroke:#000000;stroke-width:1.5;"/><line style="stroke:#000000;stroke-width:1.5;" x1="310" x2="310" y1="374" y2="380"/><line style="stroke:#000000;stroke-width:1.5;" x1="316" x2="310" y1="380" y2="380"/><text fill="#000000" font-family="sans-serif" font-size="14" lengthAdjust="spacing" textLength="58" x="243" y="394.9951">Browser</text><!--MD5=[0bb14dc0f9f2c35ed7af245c2a31d3cf]
entity ReservationApp--><rect fill="#FEFECE" filter="url(#f1m510lnza7hoy)" height="39.2969" style="stroke:#000000;stroke-width:1.5;" width="148" x="11" y="7"/><polygon fill="#FEFECE" points="142,12,142,26,154,26,154,18,148,12,142,12" style="stroke:#000000;stroke-width:1.5;"/><line style="stroke:#000000;stroke-width:1.5;" x1="148" x2="148" y1="12" y2="18"/><line style="stroke:#000000;stroke-width:1.5;" x1="154" x2="148" y1="18" y2="18"/><text fill="#000000" font-family="sans-serif" font-size="14" lengthAdjust="spacing" textLength="118" x="21" y="32.9951">Reservation app</text><!--MD5=[2bc083165f1a50b5a5d93559151a7e67]
entity GeneralApp--><rect fill="#FEFECE" filter="url(#f1m510lnza7hoy)" height="39.2969" style="stroke:#000000;stroke-width:1.5;" width="118" x="194" y="7"/><polygon fill="#FEFECE" points="295,12,295,26,307,26,307,18,301,12,295,12" style="stroke:#000000;stroke-width:1.5;"/><line style="stroke:#000000;stroke-width:1.5;" x1="301" x2="301" y1="12" y2="18"/><line style="stroke:#000000;stroke-width:1.5;" x1="307" x2="301" y1="18" y2="18"/><text fill="#000000" font-family="sans-serif" font-size="14" lengthAdjust="spacing" textLength="88" x="204" y="32.9951">General app</text><!--MD5=[616fe9f85b804934a297540ef6b39a49]
link CARSServer to CustomerDevice--><path d="M156.711,169.193 C144.622,191.026 126.273,224.164 114.211,245.947 " fill="none" id="CARSServer-CustomerDevice" style="stroke:#A80036;stroke-width:1.0;"/><text fill="#000000" font-family="sans-serif" font-size="13" lengthAdjust="spacing" textLength="50" x="141" y="212.0669">Internet</text><text fill="#000000" font-family="sans-serif" font-size="13" lengthAdjust="spacing" textLength="7" x="109.552" y="234.7807">*</text><!--MD5=[7c8e7c8e680affda0fb549268da24294]
link CARSServer to OfficePC--><path d="M188.809,169.193 C208.296,191.026 237.874,224.164 257.317,245.947 " fill="none" id="CARSServer-OfficePC" style="stroke:#A80036;stroke-width:1.0;"/><text fill="#000000" font-family="sans-serif" font-size="13" lengthAdjust="spacing" textLength="50" x="231" y="212.0669">Internet</text><text fill="#000000" font-family="sans-serif" font-size="13" lengthAdjust="spacing" textLength="7" x="244.0866" y="234.7807">*</text><!--MD5=[4393a320d3cb54460873ef6515ff9c4f]
reverse link CustomerDevice to Browser1--><path d="M102,297.227 C102,319.255 102,349.6835 102,368.977 " fill="none" id="CustomerDevice-backto-Browser1" style="stroke:#A80036;stroke-width:1.0;stroke-dasharray:7.0,7.0;"/><polygon fill="#A80036" points="102,292.101,98,301.101,102,297.101,106,301.101,102,292.101" style="stroke:#A80036;stroke-width:1.0;"/><text fill="#000000" font-family="sans-serif" font-size="13" lengthAdjust="spacing" textLength="59" x="103" y="335.0669">«deploy»</text><!--MD5=[6891331bd6269464f37e0e241f5b138c]
reverse link OfficePC to Browser2--><path d="M277,297.227 C277,319.255 277,349.6835 277,368.977 " fill="none" id="OfficePC-backto-Browser2" style="stroke:#A80036;stroke-width:1.0;stroke-dasharray:7.0,7.0;"/><polygon fill="#A80036" points="277,292.101,273,301.101,277,297.101,281,301.101,277,292.101" style="stroke:#A80036;stroke-width:1.0;"/><text fill="#000000" font-family="sans-serif" font-size="13" lengthAdjust="spacing" textLength="59" x="278" y="335.0669">«deploy»</text><!--MD5=[af5555787bf1799a2400bb44217bb058]
link ReservationApp to CARSServer--><path d="M98.31,46.118 C112.275,65.653 134.346,96.526 150.11,118.577 " fill="none" id="ReservationApp-to-CARSServer" style="stroke:#A80036;stroke-width:1.0;stroke-dasharray:7.0,7.0;"/><polygon fill="#A80036" points="153.175,122.864,151.1949,113.2162,150.2672,118.7965,144.6869,117.8687,153.175,122.864" style="stroke:#A80036;stroke-width:1.0;"/><text fill="#000000" font-family="sans-serif" font-size="13" lengthAdjust="spacing" textLength="59" x="131" y="89.0669">«deploy»</text><!--MD5=[b3ffb96a8e7cd45a626488cc8b68eef0]
link GeneralApp to CARSServer--><path d="M239.69,46.118 C225.725,65.653 203.654,96.526 187.89,118.577 " fill="none" id="GeneralApp-to-CARSServer" style="stroke:#A80036;stroke-width:1.0;stroke-dasharray:7.0,7.0;"/><polygon fill="#A80036" points="184.825,122.864,193.3131,117.8687,187.7328,118.7965,186.8051,113.2162,184.825,122.864" style="stroke:#A80036;stroke-width:1.0;"/><text fill="#000000" font-family="sans-serif" font-size="13" lengthAdjust="spacing" textLength="59" x="218" y="89.0669">«deploy»</text><!--MD5=[156b2986db3bb3230df8831196621de0]
@startuml
node "Customer's device" as CustomerDevice
node "Office PC" as OfficePC
node "CARS Server" as CARSServer

artifact Browser as Browser1
artifact Browser as Browser2
artifact "Reservation app" as ReservationApp
artifact "General app" as GeneralApp

CARSServer - - "*" CustomerDevice : Internet
CARSServer - - "*" OfficePC : Internet

CustomerDevice <.. Browser1 : <<deploy>>
OfficePC <.. Browser2 : <<deploy>>
ReservationApp ..> CARSServer : <<deploy>>
GeneralApp ..> CARSServer : <<deploy>>
@enduml

PlantUML version 1.2021.11beta2(Unknown compile time)
(GPL source distribution)
Java Runtime: Java(TM) SE Runtime Environment
JVM: Java HotSpot(TM) 64-Bit Server VM
Default Encoding: UTF-8
Language: en
Country: US
--></g></svg>