<?xml version="1.0" encoding="UTF-8" standalone="no"?><svg xmlns="http://www.w3.org/2000/svg" xmlns:xlink="http://www.w3.org/1999/xlink" contentScriptType="application/ecmascript" contentStyleType="text/css" height="482px" preserveAspectRatio="none" style="width:812px;height:482px;background:#FFFFFF;" version="1.1" viewBox="0 0 812 482" width="812px" zoomAndPan="magnify"><defs><filter height="300%" id="fsptybbmktsb9" width="300%" x="-1" y="-1"><feGaussianBlur result="blurOut" stdDeviation="2.0"/><feColorMatrix in="blurOut" result="blurOut2" type="matrix" values="0 0 0 0 0 0 0 0 0 0 0 0 0 0 0 0 0 0 .4 0"/><feOffset dx="4.0" dy="4.0" in="blurOut2" result="blurOut3"/><feBlend in="SourceGraphic" in2="blurOut3" mode="normal"/></filter></defs><g><!--MD5=[663d912131fb92a6ffcecdb4e3847f39]
cluster Car--><polygon fill="#FFFFFF" filter="url(#fsptybbmktsb9)" points="496,127,506,117,769,117,769,225,759,235,496,235,496,127" style="stroke:#000000;stroke-width:1.5;"/><line style="stroke:#000000;stroke-width:1.5;" x1="759" x2="769" y1="127" y2="117"/><line style="stroke:#000000;stroke-width:1.5;" x1="496" x2="759" y1="127" y2="127"/><line style="stroke:#000000;stroke-width:1.5;" x1="759" x2="759" y1="127" y2="235"/><text fill="#000000" font-family="sans-serif" font-size="14" font-weight="bold" lengthAdjust="spacing" textLength="27" x="615" y="142.9951">Car</text><!--MD5=[6757ac3299ecc8f224a8f47a44895515]
entity RemoteControlDevice--><polygon fill="#FEFECE" filter="url(#fsptybbmktsb9)" points="539.5,175,549.5,165,744.5,165,744.5,201.2969,734.5,211.2969,539.5,211.2969,539.5,175" style="stroke:#000000;stroke-width:1.5;"/><line style="stroke:#000000;stroke-width:1.5;" x1="734.5" x2="744.5" y1="175" y2="165"/><line style="stroke:#000000;stroke-width:1.5;" x1="539.5" x2="734.5" y1="175" y2="175"/><line style="stroke:#000000;stroke-width:1.5;" x1="734.5" x2="734.5" y1="175" y2="211.2969"/><text fill="#000000" font-family="sans-serif" font-size="14" lengthAdjust="spacing" textLength="165" x="554.5" y="197.9951">Remote control device</text><!--MD5=[71452d9fb408feca6be9236c9b708bdd]
entity CustomerPC--><polygon fill="#FEFECE" filter="url(#fsptybbmktsb9)" points="16,316,26,306,160,306,160,342.2969,150,352.2969,16,352.2969,16,316" style="stroke:#000000;stroke-width:1.5;"/><line style="stroke:#000000;stroke-width:1.5;" x1="150" x2="160" y1="316" y2="306"/><line style="stroke:#000000;stroke-width:1.5;" x1="16" x2="150" y1="316" y2="316"/><line style="stroke:#000000;stroke-width:1.5;" x1="150" x2="150" y1="316" y2="352.2969"/><text fill="#000000" font-family="sans-serif" font-size="14" lengthAdjust="spacing" textLength="104" x="31" y="338.9951">Customer's PC</text><!--MD5=[6c918bb7b1805a414fd634425e411bb4]
entity CustomerSmartphone--><polygon fill="#FEFECE" filter="url(#fsptybbmktsb9)" points="195.5,316,205.5,306,408.5,306,408.5,342.2969,398.5,352.2969,195.5,352.2969,195.5,316" style="stroke:#000000;stroke-width:1.5;"/><line style="stroke:#000000;stroke-width:1.5;" x1="398.5" x2="408.5" y1="316" y2="306"/><line style="stroke:#000000;stroke-width:1.5;" x1="195.5" x2="398.5" y1="316" y2="316"/><line style="stroke:#000000;stroke-width:1.5;" x1="398.5" x2="398.5" y1="316" y2="352.2969"/><text fill="#000000" font-family="sans-serif" font-size="14" lengthAdjust="spacing" textLength="173" x="210.5" y="338.9951">Customer's smartphone</text><!--MD5=[4996584ef25f7f00b22e7845e62cd33c]
entity OfficePC--><polygon fill="#FEFECE" filter="url(#fsptybbmktsb9)" points="443.5,316,453.5,306,550.5,306,550.5,342.2969,540.5,352.2969,443.5,352.2969,443.5,316" style="stroke:#000000;stroke-width:1.5;"/><line style="stroke:#000000;stroke-width:1.5;" x1="540.5" x2="550.5" y1="316" y2="306"/><line style="stroke:#000000;stroke-width:1.5;" x1="443.5" x2="540.5" y1="316" y2="316"/><line style="stroke:#000000;stroke-width:1.5;" x1="540.5" x2="540.5" y1="316" y2="352.2969"/><text fill="#000000" font-family="sans-serif" font-size="14" lengthAdjust="spacing" textLength="67" x="458.5" y="338.9951">Office PC</text><!--MD5=[53bc4871f01fceb9ed68ccb9794567b6]
entity CARSServer--><polygon fill="#FEFECE" filter="url(#fsptybbmktsb9)" points="274,175,284,165,404,165,404,201.2969,394,211.2969,274,211.2969,274,175" style="stroke:#000000;stroke-width:1.5;"/><line style="stroke:#000000;stroke-width:1.5;" x1="394" x2="404" y1="175" y2="165"/><line style="stroke:#000000;stroke-width:1.5;" x1="274" x2="394" y1="175" y2="175"/><line style="stroke:#000000;stroke-width:1.5;" x1="394" x2="394" y1="175" y2="211.2969"/><text fill="#000000" font-family="sans-serif" font-size="14" lengthAdjust="spacing" textLength="90" x="289" y="197.9951">CARS Server</text><!--MD5=[9d3cdd3fc98cc5cf302bc6ead636b28b]
entity Browser1--><rect fill="#FEFECE" filter="url(#fsptybbmktsb9)" height="39.2969" style="stroke:#000000;stroke-width:1.5;" width="88" x="44" y="429"/><polygon fill="#FEFECE" points="115,434,115,448,127,448,127,440,121,434,115,434" style="stroke:#000000;stroke-width:1.5;"/><line style="stroke:#000000;stroke-width:1.5;" x1="121" x2="121" y1="434" y2="440"/><line style="stroke:#000000;stroke-width:1.5;" x1="127" x2="121" y1="440" y2="440"/><text fill="#000000" font-family="sans-serif" font-size="14" lengthAdjust="spacing" textLength="58" x="54" y="454.9951">Browser</text><!--MD5=[6c5c0dfe5cdb6579c98ad0c5901bc7d8]
entity Browser2--><rect fill="#FEFECE" filter="url(#fsptybbmktsb9)" height="39.2969" style="stroke:#000000;stroke-width:1.5;" width="88" x="180" y="429"/><polygon fill="#FEFECE" points="251,434,251,448,263,448,263,440,257,434,251,434" style="stroke:#000000;stroke-width:1.5;"/><line style="stroke:#000000;stroke-width:1.5;" x1="257" x2="257" y1="434" y2="440"/><line style="stroke:#000000;stroke-width:1.5;" x1="263" x2="257" y1="440" y2="440"/><text fill="#000000" font-family="sans-serif" font-size="14" lengthAdjust="spacing" textLength="58" x="190" y="454.9951">Browser</text><!--MD5=[fc130c355f7213e52682f9256e884d3b]
entity Browser3--><rect fill="#FEFECE" filter="url(#fsptybbmktsb9)" height="39.2969" style="stroke:#000000;stroke-width:1.5;" width="88" x="453" y="429"/><polygon fill="#FEFECE" points="524,434,524,448,536,448,536,440,530,434,524,434" style="stroke:#000000;stroke-width:1.5;"/><line style="stroke:#000000;stroke-width:1.5;" x1="530" x2="530" y1="434" y2="440"/><line style="stroke:#000000;stroke-width:1.5;" x1="536" x2="530" y1="440" y2="440"/><text fill="#000000" font-family="sans-serif" font-size="14" lengthAdjust="spacing" textLength="58" x="463" y="454.9951">Browser</text><!--MD5=[db9aabab90cdf93167a502592302abb6]
entity CARSApp--><rect fill="#FEFECE" filter="url(#fsptybbmktsb9)" height="39.2969" style="stroke:#000000;stroke-width:1.5;" width="101" x="303.5" y="429"/><polygon fill="#FEFECE" points="387.5,434,387.5,448,399.5,448,399.5,440,393.5,434,387.5,434" style="stroke:#000000;stroke-width:1.5;"/><line style="stroke:#000000;stroke-width:1.5;" x1="393.5" x2="393.5" y1="434" y2="440"/><line style="stroke:#000000;stroke-width:1.5;" x1="399.5" x2="393.5" y1="440" y2="440"/><text fill="#000000" font-family="sans-serif" font-size="14" lengthAdjust="spacing" textLength="71" x="313.5" y="454.9951">CARS app</text><!--MD5=[af33250e9d53a27a72f1a28702cfabc5]
entity RemoteControlFirmware--><rect fill="#FEFECE" filter="url(#fsptybbmktsb9)" height="39.2969" style="stroke:#000000;stroke-width:1.5;" width="212" x="586" y="309.5"/><polygon fill="#FEFECE" points="781,314.5,781,328.5,793,328.5,793,320.5,787,314.5,781,314.5" style="stroke:#000000;stroke-width:1.5;"/><line style="stroke:#000000;stroke-width:1.5;" x1="787" x2="787" y1="314.5" y2="320.5"/><line style="stroke:#000000;stroke-width:1.5;" x1="793" x2="787" y1="320.5" y2="320.5"/><text fill="#000000" font-family="sans-serif" font-size="14" lengthAdjust="spacing" textLength="182" x="596" y="335.4951">Remote control firmware</text><!--MD5=[0bb14dc0f9f2c35ed7af245c2a31d3cf]
entity ReservationApp--><rect fill="#FEFECE" filter="url(#fsptybbmktsb9)" height="39.2969" style="stroke:#000000;stroke-width:1.5;" width="148" x="181" y="7"/><polygon fill="#FEFECE" points="312,12,312,26,324,26,324,18,318,12,312,12" style="stroke:#000000;stroke-width:1.5;"/><line style="stroke:#000000;stroke-width:1.5;" x1="318" x2="318" y1="12" y2="18"/><line style="stroke:#000000;stroke-width:1.5;" x1="324" x2="318" y1="18" y2="18"/><text fill="#000000" font-family="sans-serif" font-size="14" lengthAdjust="spacing" textLength="118" x="191" y="32.9951">Reservation app</text><!--MD5=[2bc083165f1a50b5a5d93559151a7e67]
entity GeneralApp--><rect fill="#FEFECE" filter="url(#fsptybbmktsb9)" height="39.2969" style="stroke:#000000;stroke-width:1.5;" width="118" x="364" y="7"/><polygon fill="#FEFECE" points="465,12,465,26,477,26,477,18,471,12,465,12" style="stroke:#000000;stroke-width:1.5;"/><line style="stroke:#000000;stroke-width:1.5;" x1="471" x2="471" y1="12" y2="18"/><line style="stroke:#000000;stroke-width:1.5;" x1="477" x2="471" y1="18" y2="18"/><text fill="#000000" font-family="sans-serif" font-size="14" lengthAdjust="spacing" textLength="88" x="374" y="32.9951">General app</text><!--MD5=[c3f9e3763d45addea709173d6ca1a790]
link CARSServer to CustomerPC--><path d="M299.228,211.025 C252.367,236.976 174.96,279.843 128,305.848 " fill="none" id="CARSServer-CustomerPC" style="stroke:#A80036;stroke-width:1.0;"/><text fill="#000000" font-family="sans-serif" font-size="13" lengthAdjust="spacing" textLength="50" x="207" y="272.0669">Internet</text><text fill="#000000" font-family="sans-serif" font-size="13" lengthAdjust="spacing" textLength="7" x="130.3531" y="295.0393">*</text><!--MD5=[552ee97b63bea1cda6a53f70d4f337ff]
link CARSServer to CustomerSmartphone--><path d="M333.137,211.025 C326.25,236.899 314.886,279.59 307.958,305.618 " fill="none" id="CARSServer-CustomerSmartphone" style="stroke:#A80036;stroke-width:1.0;"/><text fill="#000000" font-family="sans-serif" font-size="13" lengthAdjust="spacing" textLength="50" x="321" y="272.0669">Internet</text><text fill="#000000" font-family="sans-serif" font-size="13" lengthAdjust="spacing" textLength="7" x="301.5879" y="294.7504">*</text><!--MD5=[7c8e7c8e680affda0fb549268da24294]
link CARSServer to OfficePC--><path d="M364.036,211.025 C393.534,236.976 442.26,279.843 471.82,305.848 " fill="none" id="CARSServer-OfficePC" style="stroke:#A80036;stroke-width:1.0;"/><text fill="#000000" font-family="sans-serif" font-size="13" lengthAdjust="spacing" textLength="50" x="438" y="272.0669">Internet</text><text fill="#000000" font-family="sans-serif" font-size="13" lengthAdjust="spacing" textLength="7" x="457.4708" y="295.0393">*</text><!--MD5=[97bc8f8e71348d148f8b3aacd52cd21a]
link CARSServer to Car--><path d="M404.212,188 C425.831,188 449.1083,188 467.7389,188 C477.0542,188 485.2078,188 491.4117,188 C492.9627,188 494.3918,188 495.6868,188 C495.7677,188 495.8481,188 495.928,188 " fill="none" id="CARSServer-Car" style="stroke:#A80036;stroke-width:1.0;"/><text fill="#000000" font-family="sans-serif" font-size="13" lengthAdjust="spacing" textLength="50" x="428.82" y="181.0669">Internet</text><text fill="#000000" font-family="sans-serif" font-size="13" lengthAdjust="spacing" textLength="7" x="496.386" y="185.0669">*</text><!--MD5=[6987a455a1765bf027d433bddecb9d62]
reverse link CustomerPC to Browser1--><path d="M88,357.227 C88,379.255 88,409.6835 88,428.977 " fill="none" id="CustomerPC-backto-Browser1" style="stroke:#A80036;stroke-width:1.0;stroke-dasharray:7.0,7.0;"/><polygon fill="#A80036" points="88,352.101,84,361.101,88,357.101,92,361.101,88,352.101" style="stroke:#A80036;stroke-width:1.0;"/><text fill="#000000" font-family="sans-serif" font-size="13" lengthAdjust="spacing" textLength="59" x="89" y="395.0669">«deploy»</text><!--MD5=[bedc2d1daf347afb3049115d8880a3cf]
reverse link CustomerSmartphone to Browser2--><path d="M278.02,356.023 C271.161,364.06 263.942,373.1361 258,382 C247.941,397.0059 238.649,415.3519 232.33,428.8066 " fill="none" id="CustomerSmartphone-backto-Browser2" style="stroke:#A80036;stroke-width:1.0;stroke-dasharray:7.0,7.0;"/><polygon fill="#A80036" points="281.351,352.167,272.4409,356.3635,278.0827,355.951,278.4953,361.5927,281.351,352.167" style="stroke:#A80036;stroke-width:1.0;"/><text fill="#000000" font-family="sans-serif" font-size="13" lengthAdjust="spacing" textLength="59" x="259" y="395.0669">«deploy»</text><!--MD5=[10770fab02457b4db86bb4162d4ab85f]
reverse link OfficePC to Browser3--><path d="M497,357.227 C497,379.255 497,409.6835 497,428.977 " fill="none" id="OfficePC-backto-Browser3" style="stroke:#A80036;stroke-width:1.0;stroke-dasharray:7.0,7.0;"/><polygon fill="#A80036" points="497,352.101,493,361.101,497,357.101,501,361.101,497,352.101" style="stroke:#A80036;stroke-width:1.0;"/><text fill="#000000" font-family="sans-serif" font-size="13" lengthAdjust="spacing" textLength="59" x="498" y="395.0669">«deploy»</text><!--MD5=[b78fcd4e68ea1c680389a6262db9cf50]
reverse link CustomerSmartphone to CARSApp--><path d="M313.926,356.948 C323.684,378.998 337.228,409.6021 345.803,428.977 " fill="none" id="CustomerSmartphone-backto-CARSApp" style="stroke:#A80036;stroke-width:1.0;stroke-dasharray:7.0,7.0;"/><polygon fill="#A80036" points="311.781,352.101,311.7639,361.9498,313.8037,356.6736,319.08,358.7135,311.781,352.101" style="stroke:#A80036;stroke-width:1.0;"/><text fill="#000000" font-family="sans-serif" font-size="13" lengthAdjust="spacing" textLength="59" x="333" y="395.0669">«deploy»</text><!--MD5=[6c23ab92b974583a200882fc2d1b30a2]
reverse link RemoteControlDevice to RemoteControlFirmware--><path d="M651.702,215.971 C661.566,243.393 676.592,285.165 685.237,309.199 " fill="none" id="RemoteControlDevice-backto-RemoteControlFirmware" style="stroke:#A80036;stroke-width:1.0;stroke-dasharray:7.0,7.0;"/><polygon fill="#A80036" points="649.923,211.025,649.2057,220.8477,651.6155,215.7298,656.7334,218.1396,649.923,211.025" style="stroke:#A80036;stroke-width:1.0;"/><text fill="#000000" font-family="sans-serif" font-size="13" lengthAdjust="spacing" textLength="59" x="673" y="272.0669">«deploy»</text><!--MD5=[af5555787bf1799a2400bb44217bb058]
link ReservationApp to CARSServer--><path d="M264.8,46.109 C279.65,74.306 307.921,127.987 324.955,160.331 " fill="none" id="ReservationApp-to-CARSServer" style="stroke:#A80036;stroke-width:1.0;stroke-dasharray:7.0,7.0;"/><polygon fill="#A80036" points="327.384,164.943,326.7295,155.1159,325.0541,160.519,319.6511,158.8437,327.384,164.943" style="stroke:#A80036;stroke-width:1.0;"/><text fill="#000000" font-family="sans-serif" font-size="13" lengthAdjust="spacing" textLength="59" x="291" y="89.0669">«deploy»</text><!--MD5=[b3ffb96a8e7cd45a626488cc8b68eef0]
link GeneralApp to CARSServer--><path d="M413.2,46.109 C398.35,74.306 370.079,127.987 353.045,160.331 " fill="none" id="GeneralApp-to-CARSServer" style="stroke:#A80036;stroke-width:1.0;stroke-dasharray:7.0,7.0;"/><polygon fill="#A80036" points="350.616,164.943,358.3489,158.8437,352.9459,160.519,351.2705,155.1159,350.616,164.943" style="stroke:#A80036;stroke-width:1.0;"/><text fill="#000000" font-family="sans-serif" font-size="13" lengthAdjust="spacing" textLength="59" x="397" y="89.0669">«deploy»</text><!--MD5=[7fcdc990d78004aee9aa196b08f1454a]
@startuml
node "Customer's PC" as CustomerPC
node "Customer's smartphone" as CustomerSmartphone
node "Office PC" as OfficePC
node "CARS Server" as CARSServer
node Car {
	node "Remote control device" as RemoteControlDevice
}

artifact Browser as Browser1
artifact Browser as Browser2
artifact Browser as Browser3
artifact "CARS app" as CARSApp
artifact "Remote control firmware" as RemoteControlFirmware
artifact "Reservation app" as ReservationApp
artifact "General app" as GeneralApp

CARSServer - - "*" CustomerPC : Internet
CARSServer - - "*" CustomerSmartphone : Internet
CARSServer - - "*" OfficePC : Internet
CARSServer - "*" Car : Internet

CustomerPC <.. Browser1 : <<deploy>>
CustomerSmartphone <.. Browser2 : <<deploy>>
OfficePC <.. Browser3 : <<deploy>>
CustomerSmartphone <.. CARSApp : <<deploy>>
RemoteControlDevice <.. RemoteControlFirmware : <<deploy>>
ReservationApp ..> CARSServer : <<deploy>>
GeneralApp ..> CARSServer : <<deploy>>
@enduml

PlantUML version 1.2021.11beta2(Unknown compile time)
(GPL source distribution)
Java Runtime: Java(TM) SE Runtime Environment
JVM: Java HotSpot(TM) 64-Bit Server VM
Default Encoding: UTF-8
Language: en
Country: US
--></g></svg>