<?xml version="1.0" encoding="UTF-8" standalone="no"?><svg xmlns="http://www.w3.org/2000/svg" xmlns:xlink="http://www.w3.org/1999/xlink" contentScriptType="application/ecmascript" contentStyleType="text/css" height="300px" preserveAspectRatio="none" style="width:1071px;height:300px;background:#FFFFFF;" version="1.1" viewBox="0 0 1071 300" width="1071px" zoomAndPan="magnify"><defs><filter height="300%" id="f1pqmgj7nx48iq" width="300%" x="-1" y="-1"><feGaussianBlur result="blurOut" stdDeviation="2.0"/><feColorMatrix in="blurOut" result="blurOut2" type="matrix" values="0 0 0 0 0 0 0 0 0 0 0 0 0 0 0 0 0 0 .4 0"/><feOffset dx="4.0" dy="4.0" in="blurOut2" result="blurOut3"/><feBlend in="SourceGraphic" in2="blurOut3" mode="normal"/></filter></defs><g><!--MD5=[903e5b0a6373ec665c355fdf3ca22418]
cluster CustomerPC--><polygon fill="#FFFFFF" filter="url(#f1pqmgj7nx48iq)" points="16,192,26,182,208,182,208,283,198,293,16,293,16,192" style="stroke:#000000;stroke-width:1.5;"/><line style="stroke:#000000;stroke-width:1.5;" x1="198" x2="208" y1="192" y2="182"/><line style="stroke:#000000;stroke-width:1.5;" x1="16" x2="198" y1="192" y2="192"/><line style="stroke:#000000;stroke-width:1.5;" x1="198" x2="198" y1="192" y2="293"/><text fill="#000000" font-family="sans-serif" font-size="14" font-weight="bold" lengthAdjust="spacing" textLength="116" x="50" y="207.9951">Customer's PC</text><!--MD5=[4383f28f8a272d33119e620c618a07c9]
cluster CustomerSmartphone--><polygon fill="#FFFFFF" filter="url(#f1pqmgj7nx48iq)" points="248,192,258,182,540,182,540,283,530,293,248,293,248,192" style="stroke:#000000;stroke-width:1.5;"/><line style="stroke:#000000;stroke-width:1.5;" x1="530" x2="540" y1="192" y2="182"/><line style="stroke:#000000;stroke-width:1.5;" x1="248" x2="530" y1="192" y2="192"/><line style="stroke:#000000;stroke-width:1.5;" x1="530" x2="530" y1="192" y2="293"/><text fill="#000000" font-family="sans-serif" font-size="14" font-weight="bold" lengthAdjust="spacing" textLength="194" x="293" y="207.9951">Customer's smartphone</text><!--MD5=[c52ef794d92d0818537a934c72202c18]
cluster OfficePC--><polygon fill="#FFFFFF" filter="url(#f1pqmgj7nx48iq)" points="580,192,590,182,735,182,735,283,725,293,580,293,580,192" style="stroke:#000000;stroke-width:1.5;"/><line style="stroke:#000000;stroke-width:1.5;" x1="725" x2="735" y1="192" y2="182"/><line style="stroke:#000000;stroke-width:1.5;" x1="580" x2="725" y1="192" y2="192"/><line style="stroke:#000000;stroke-width:1.5;" x1="725" x2="725" y1="192" y2="293"/><text fill="#000000" font-family="sans-serif" font-size="14" font-weight="bold" lengthAdjust="spacing" textLength="74" x="616.5" y="207.9951">Office PC</text><!--MD5=[663d912131fb92a6ffcecdb4e3847f39]
cluster Car--><polygon fill="#FFFFFF" filter="url(#f1pqmgj7nx48iq)" points="775,192,785,182,1054,182,1054,283,1044,293,775,293,775,192" style="stroke:#000000;stroke-width:1.5;"/><line style="stroke:#000000;stroke-width:1.5;" x1="1044" x2="1054" y1="192" y2="182"/><line style="stroke:#000000;stroke-width:1.5;" x1="775" x2="1044" y1="192" y2="192"/><line style="stroke:#000000;stroke-width:1.5;" x1="1044" x2="1044" y1="192" y2="293"/><text fill="#000000" font-family="sans-serif" font-size="14" font-weight="bold" lengthAdjust="spacing" textLength="27" x="897" y="207.9951">Car</text><!--MD5=[afc1f3cedb1bcbb9eb9bb6f99d195610]
cluster CARSServer--><polygon fill="#FFFFFF" filter="url(#f1pqmgj7nx48iq)" points="410,16,420,6,778,6,778,107,768,117,410,117,410,16" style="stroke:#000000;stroke-width:1.5;"/><line style="stroke:#000000;stroke-width:1.5;" x1="768" x2="778" y1="16" y2="6"/><line style="stroke:#000000;stroke-width:1.5;" x1="410" x2="768" y1="16" y2="16"/><line style="stroke:#000000;stroke-width:1.5;" x1="768" x2="768" y1="16" y2="117"/><text fill="#000000" font-family="sans-serif" font-size="14" font-weight="bold" lengthAdjust="spacing" textLength="98" x="541" y="31.9951">CARS Server</text><!--MD5=[9d3cdd3fc98cc5cf302bc6ead636b28b]
entity Browser1--><rect fill="#FEFECE" filter="url(#f1pqmgj7nx48iq)" height="39.2969" style="stroke:#000000;stroke-width:1.5;" width="88" x="96" y="230"/><polygon fill="#FEFECE" points="167,235,167,249,179,249,179,241,173,235,167,235" style="stroke:#000000;stroke-width:1.5;"/><line style="stroke:#000000;stroke-width:1.5;" x1="173" x2="173" y1="235" y2="241"/><line style="stroke:#000000;stroke-width:1.5;" x1="179" x2="173" y1="241" y2="241"/><text fill="#000000" font-family="sans-serif" font-size="14" lengthAdjust="spacing" textLength="58" x="106" y="255.9951">Browser</text><!--MD5=[6c5c0dfe5cdb6579c98ad0c5901bc7d8]
entity Browser2--><rect fill="#FEFECE" filter="url(#f1pqmgj7nx48iq)" height="39.2969" style="stroke:#000000;stroke-width:1.5;" width="88" x="428" y="230"/><polygon fill="#FEFECE" points="499,235,499,249,511,249,511,241,505,235,499,235" style="stroke:#000000;stroke-width:1.5;"/><line style="stroke:#000000;stroke-width:1.5;" x1="505" x2="505" y1="235" y2="241"/><line style="stroke:#000000;stroke-width:1.5;" x1="511" x2="505" y1="241" y2="241"/><text fill="#000000" font-family="sans-serif" font-size="14" lengthAdjust="spacing" textLength="58" x="438" y="255.9951">Browser</text><!--MD5=[cf5b4c84f351aa38c19faece056f7305]
entity CARS app--><rect fill="#FEFECE" filter="url(#f1pqmgj7nx48iq)" height="39.2969" style="stroke:#000000;stroke-width:1.5;" width="101" x="291.5" y="230"/><polygon fill="#FEFECE" points="375.5,235,375.5,249,387.5,249,387.5,241,381.5,235,375.5,235" style="stroke:#000000;stroke-width:1.5;"/><line style="stroke:#000000;stroke-width:1.5;" x1="381.5" x2="381.5" y1="235" y2="241"/><line style="stroke:#000000;stroke-width:1.5;" x1="387.5" x2="381.5" y1="241" y2="241"/><text fill="#000000" font-family="sans-serif" font-size="14" lengthAdjust="spacing" textLength="71" x="301.5" y="255.9951">CARS app</text><!--MD5=[fc130c355f7213e52682f9256e884d3b]
entity Browser3--><rect fill="#FEFECE" filter="url(#f1pqmgj7nx48iq)" height="39.2969" style="stroke:#000000;stroke-width:1.5;" width="88" x="623" y="230"/><polygon fill="#FEFECE" points="694,235,694,249,706,249,706,241,700,235,694,235" style="stroke:#000000;stroke-width:1.5;"/><line style="stroke:#000000;stroke-width:1.5;" x1="700" x2="700" y1="235" y2="241"/><line style="stroke:#000000;stroke-width:1.5;" x1="706" x2="700" y1="241" y2="241"/><text fill="#000000" font-family="sans-serif" font-size="14" lengthAdjust="spacing" textLength="58" x="633" y="255.9951">Browser</text><!--MD5=[ff5c5394b7739af263f666e2de0be950]
entity Remote control firmware--><rect fill="#FEFECE" filter="url(#f1pqmgj7nx48iq)" height="39.2969" style="stroke:#000000;stroke-width:1.5;" width="212" x="818" y="230"/><polygon fill="#FEFECE" points="1013,235,1013,249,1025,249,1025,241,1019,235,1013,235" style="stroke:#000000;stroke-width:1.5;"/><line style="stroke:#000000;stroke-width:1.5;" x1="1019" x2="1019" y1="235" y2="241"/><line style="stroke:#000000;stroke-width:1.5;" x1="1025" x2="1019" y1="241" y2="241"/><text fill="#000000" font-family="sans-serif" font-size="14" lengthAdjust="spacing" textLength="182" x="828" y="255.9951">Remote control firmware</text><!--MD5=[7fa03c7d039671a680a818ca6b372823]
entity Reservation app--><rect fill="#FEFECE" filter="url(#f1pqmgj7nx48iq)" height="39.2969" style="stroke:#000000;stroke-width:1.5;" width="148" x="606" y="54"/><polygon fill="#FEFECE" points="737,59,737,73,749,73,749,65,743,59,737,59" style="stroke:#000000;stroke-width:1.5;"/><line style="stroke:#000000;stroke-width:1.5;" x1="743" x2="743" y1="59" y2="65"/><line style="stroke:#000000;stroke-width:1.5;" x1="749" x2="743" y1="65" y2="65"/><text fill="#000000" font-family="sans-serif" font-size="14" lengthAdjust="spacing" textLength="118" x="616" y="79.9951">Reservation app</text><!--MD5=[473d7b782e52d1bcb2f676bb3fe2d05e]
entity General app--><rect fill="#FEFECE" filter="url(#f1pqmgj7nx48iq)" height="39.2969" style="stroke:#000000;stroke-width:1.5;" width="118" x="453" y="54"/><polygon fill="#FEFECE" points="554,59,554,73,566,73,566,65,560,59,554,59" style="stroke:#000000;stroke-width:1.5;"/><line style="stroke:#000000;stroke-width:1.5;" x1="560" x2="560" y1="59" y2="65"/><line style="stroke:#000000;stroke-width:1.5;" x1="566" x2="560" y1="65" y2="65"/><text fill="#000000" font-family="sans-serif" font-size="14" lengthAdjust="spacing" textLength="88" x="463" y="79.9951">General app</text><!--MD5=[c3f9e3763d45addea709173d6ca1a790]
link CARSServer to CustomerPC--><path d="M409.8638,75.5654 C408.2499,75.7823 406.4128,76.0319 404.3678,76.3137 C396.1877,77.4407 384.6812,79.0829 370.8291,81.2118 C343.1248,85.4698 306.0379,91.6749 267.4143,99.601 C190.167,115.4533 106.773,138.1895 80,166 C76.84,169.2825 74.1667,172.9798 71.9086,176.9432 C71.3441,177.9341 70.8055,178.9416 70.2917,179.9634 C70.0349,180.4743 69.7842,180.9888 69.5396,181.5066 C69.4784,181.636 69.4177,181.7657 69.3573,181.8955 " fill="none" id="CARSServer-CustomerPC" style="stroke:#A80036;stroke-width:1.0;"/><text fill="#000000" font-family="sans-serif" font-size="13" lengthAdjust="spacing" textLength="50" x="116" y="154.0669">Internet</text><!--MD5=[552ee97b63bea1cda6a53f70d4f337ff]
link CARSServer to CustomerSmartphone--><path d="M409.8442,77.1974 C409.7295,77.2374 409.6138,77.2778 409.497,77.3187 C409.2633,77.4004 409.0255,77.4839 408.7834,77.5692 C408.2993,77.7399 407.7984,77.9177 407.2814,78.1026 C405.2132,78.8423 402.8863,79.6965 400.3367,80.6655 C390.1383,84.5417 376.3784,90.2563 361.3759,97.8394 C331.3708,113.0055 296.395,135.6455 275,166 C272.375,169.7242 270.1071,173.7563 268.1484,177.967 C267.6587,179.0196 267.1883,180.0835 266.7365,181.1564 C266.6236,181.4247 266.5118,181.6935 266.4012,181.9629 " fill="none" id="CARSServer-CustomerSmartphone" style="stroke:#A80036;stroke-width:1.0;"/><text fill="#000000" font-family="sans-serif" font-size="13" lengthAdjust="spacing" textLength="50" x="298" y="154.0669">Internet</text><!--MD5=[7c8e7c8e680affda0fb549268da24294]
link CARSServer to OfficePC--><path d="M426.5914,117.0882 C426.6341,117.1843 426.6769,117.2803 426.72,117.3762 C426.8924,117.7599 427.0681,118.1421 427.2473,118.5227 C427.6057,119.2839 427.978,120.0387 428.3647,120.7853 C429.1381,122.2786 429.9693,123.7395 430.8624,125.155 C432.6488,127.986 434.6831,130.6356 437,133 C468.283,164.925 496.536,138.794 532,166 C549.031,179.0655 562.702,198.8299 572.2721,215.7382 C574.6647,219.9653 576.8009,224.0138 578.6692,227.7346 C578.9028,228.1997 579.1321,228.6597 579.3573,229.1142 C579.4699,229.3415 579.5814,229.5674 579.6918,229.792 C579.7471,229.9042 579.802,230.0162 579.8568,230.1277 " fill="none" id="CARSServer-OfficePC" style="stroke:#A80036;stroke-width:1.0;"/><text fill="#000000" font-family="sans-serif" font-size="13" lengthAdjust="spacing" textLength="50" x="518" y="154.0669">Internet</text><!--MD5=[97bc8f8e71348d148f8b3aacd52cd21a]
link CARSServer to Car--><path d="M425.0347,117.1192 C425.0776,117.2138 425.1207,117.3083 425.164,117.4026 C427.9395,123.441 431.7573,128.957 437,133 C449.338,142.515 561.515,139.272 577,141 C644.169,148.494 670.092,129.54 727,166 C745.074,177.58 758.7775,197.298 768.1039,214.5533 C770.4355,218.8672 772.4935,223.0271 774.2778,226.8675 C774.5009,227.3475 774.7197,227.8226 774.9341,228.2923 " fill="none" id="CARSServer-Car" style="stroke:#A80036;stroke-width:1.0;"/><text fill="#000000" font-family="sans-serif" font-size="13" lengthAdjust="spacing" textLength="50" x="711" y="154.0669">Internet</text><!--MD5=[b1d06c42233625c3703789e576b66421]
@startuml
node "Customer's PC" as CustomerPC {
	artifact Browser as Browser1
}

node "Customer's smartphone" as CustomerSmartphone {
	artifact Browser as Browser2
	artifact "CARS app"
}

node "Office PC" as OfficePC {
	artifact Browser as Browser3
}

node Car {
	artifact "Remote control firmware"
}

node "CARS Server" as CARSServer{
	artifact "Reservation app"
	artifact "General app"
}

CARSServer - - CustomerPC : Internet
CARSServer - - CustomerSmartphone : Internet
CARSServer - - OfficePC : Internet
CARSServer - - Car : Internet
@enduml

PlantUML version 1.2021.11beta1(Unknown compile time)
(GPL source distribution)
Java Runtime: Java(TM) SE Runtime Environment
JVM: Java HotSpot(TM) 64-Bit Server VM
Default Encoding: UTF-8
Language: en
Country: US
--></g></svg>