<?xml version="1.0" encoding="UTF-8" standalone="no"?><svg xmlns="http://www.w3.org/2000/svg" xmlns:xlink="http://www.w3.org/1999/xlink" contentScriptType="application/ecmascript" contentStyleType="text/css" height="372px" preserveAspectRatio="none" style="width:1122px;height:372px;background:#FFFFFF;" version="1.1" viewBox="0 0 1122 372" width="1122px" zoomAndPan="magnify"><defs><filter height="300%" id="f1gbp5a9yftj0e" width="300%" x="-1" y="-1"><feGaussianBlur result="blurOut" stdDeviation="2.0"/><feColorMatrix in="blurOut" result="blurOut2" type="matrix" values="0 0 0 0 0 0 0 0 0 0 0 0 0 0 0 0 0 0 .4 0"/><feOffset dx="4.0" dy="4.0" in="blurOut2" result="blurOut3"/><feBlend in="SourceGraphic" in2="blurOut3" mode="normal"/></filter></defs><g><!--MD5=[903e5b0a6373ec665c355fdf3ca22418]
cluster CustomerPC--><polygon fill="#FFFFFF" filter="url(#f1gbp5a9yftj0e)" points="16,240,26,230,208,230,208,331,198,341,16,341,16,240" style="stroke:#000000;stroke-width:1.5;"/><line style="stroke:#000000;stroke-width:1.5;" x1="198" x2="208" y1="240" y2="230"/><line style="stroke:#000000;stroke-width:1.5;" x1="16" x2="198" y1="240" y2="240"/><line style="stroke:#000000;stroke-width:1.5;" x1="198" x2="198" y1="240" y2="341"/><text fill="#000000" font-family="sans-serif" font-size="14" font-weight="bold" lengthAdjust="spacing" textLength="116" x="50" y="255.9951">Customer's PC</text><!--MD5=[4383f28f8a272d33119e620c618a07c9]
cluster CustomerSmartphone--><polygon fill="#FFFFFF" filter="url(#f1gbp5a9yftj0e)" points="248,240,258,230,540,230,540,331,530,341,248,341,248,240" style="stroke:#000000;stroke-width:1.5;"/><line style="stroke:#000000;stroke-width:1.5;" x1="530" x2="540" y1="240" y2="230"/><line style="stroke:#000000;stroke-width:1.5;" x1="248" x2="530" y1="240" y2="240"/><line style="stroke:#000000;stroke-width:1.5;" x1="530" x2="530" y1="240" y2="341"/><text fill="#000000" font-family="sans-serif" font-size="14" font-weight="bold" lengthAdjust="spacing" textLength="194" x="293" y="255.9951">Customer's smartphone</text><!--MD5=[c52ef794d92d0818537a934c72202c18]
cluster OfficePC--><polygon fill="#FFFFFF" filter="url(#f1gbp5a9yftj0e)" points="580,240,590,230,735,230,735,331,725,341,580,341,580,240" style="stroke:#000000;stroke-width:1.5;"/><line style="stroke:#000000;stroke-width:1.5;" x1="725" x2="735" y1="240" y2="230"/><line style="stroke:#000000;stroke-width:1.5;" x1="580" x2="725" y1="240" y2="240"/><line style="stroke:#000000;stroke-width:1.5;" x1="725" x2="725" y1="240" y2="341"/><text fill="#000000" font-family="sans-serif" font-size="14" font-weight="bold" lengthAdjust="spacing" textLength="74" x="616.5" y="255.9951">Office PC</text><!--MD5=[663d912131fb92a6ffcecdb4e3847f39]
cluster Car--><polygon fill="#FFFFFF" filter="url(#f1gbp5a9yftj0e)" points="775,192,785,182,1105,182,1105,355,1095,365,775,365,775,192" style="stroke:#000000;stroke-width:1.5;"/><line style="stroke:#000000;stroke-width:1.5;" x1="1095" x2="1105" y1="192" y2="182"/><line style="stroke:#000000;stroke-width:1.5;" x1="775" x2="1095" y1="192" y2="192"/><line style="stroke:#000000;stroke-width:1.5;" x1="1095" x2="1095" y1="192" y2="365"/><text fill="#000000" font-family="sans-serif" font-size="14" font-weight="bold" lengthAdjust="spacing" textLength="27" x="922.5" y="207.9951">Car</text><!--MD5=[51057196273adef99112c4442d239bfd]
cluster Remote control device--><polygon fill="#FFFFFF" filter="url(#f1gbp5a9yftj0e)" points="815,248,825,238,1073,238,1073,323,1063,333,815,333,815,248" style="stroke:#000000;stroke-width:1.5;"/><line style="stroke:#000000;stroke-width:1.5;" x1="1063" x2="1073" y1="248" y2="238"/><line style="stroke:#000000;stroke-width:1.5;" x1="815" x2="1063" y1="248" y2="248"/><line style="stroke:#000000;stroke-width:1.5;" x1="1063" x2="1063" y1="248" y2="333"/><text fill="#000000" font-family="sans-serif" font-size="14" font-weight="bold" lengthAdjust="spacing" textLength="182" x="849" y="263.9951">Remote control device</text><!--MD5=[afc1f3cedb1bcbb9eb9bb6f99d195610]
cluster CARSServer--><polygon fill="#FFFFFF" filter="url(#f1gbp5a9yftj0e)" points="410,16,420,6,778,6,778,107,768,117,410,117,410,16" style="stroke:#000000;stroke-width:1.5;"/><line style="stroke:#000000;stroke-width:1.5;" x1="768" x2="778" y1="16" y2="6"/><line style="stroke:#000000;stroke-width:1.5;" x1="410" x2="768" y1="16" y2="16"/><line style="stroke:#000000;stroke-width:1.5;" x1="768" x2="768" y1="16" y2="117"/><text fill="#000000" font-family="sans-serif" font-size="14" font-weight="bold" lengthAdjust="spacing" textLength="98" x="541" y="31.9951">CARS Server</text><!--MD5=[9d3cdd3fc98cc5cf302bc6ead636b28b]
entity Browser1--><rect fill="#FEFECE" filter="url(#f1gbp5a9yftj0e)" height="39.2969" style="stroke:#000000;stroke-width:1.5;" width="88" x="96" y="278"/><polygon fill="#FEFECE" points="167,283,167,297,179,297,179,289,173,283,167,283" style="stroke:#000000;stroke-width:1.5;"/><line style="stroke:#000000;stroke-width:1.5;" x1="173" x2="173" y1="283" y2="289"/><line style="stroke:#000000;stroke-width:1.5;" x1="179" x2="173" y1="289" y2="289"/><text fill="#000000" font-family="sans-serif" font-size="14" lengthAdjust="spacing" textLength="58" x="106" y="303.9951">Browser</text><!--MD5=[6c5c0dfe5cdb6579c98ad0c5901bc7d8]
entity Browser2--><rect fill="#FEFECE" filter="url(#f1gbp5a9yftj0e)" height="39.2969" style="stroke:#000000;stroke-width:1.5;" width="88" x="428" y="278"/><polygon fill="#FEFECE" points="499,283,499,297,511,297,511,289,505,283,499,283" style="stroke:#000000;stroke-width:1.5;"/><line style="stroke:#000000;stroke-width:1.5;" x1="505" x2="505" y1="283" y2="289"/><line style="stroke:#000000;stroke-width:1.5;" x1="511" x2="505" y1="289" y2="289"/><text fill="#000000" font-family="sans-serif" font-size="14" lengthAdjust="spacing" textLength="58" x="438" y="303.9951">Browser</text><!--MD5=[cf5b4c84f351aa38c19faece056f7305]
entity CARS app--><rect fill="#FEFECE" filter="url(#f1gbp5a9yftj0e)" height="39.2969" style="stroke:#000000;stroke-width:1.5;" width="101" x="291.5" y="278"/><polygon fill="#FEFECE" points="375.5,283,375.5,297,387.5,297,387.5,289,381.5,283,375.5,283" style="stroke:#000000;stroke-width:1.5;"/><line style="stroke:#000000;stroke-width:1.5;" x1="381.5" x2="381.5" y1="283" y2="289"/><line style="stroke:#000000;stroke-width:1.5;" x1="387.5" x2="381.5" y1="289" y2="289"/><text fill="#000000" font-family="sans-serif" font-size="14" lengthAdjust="spacing" textLength="71" x="301.5" y="303.9951">CARS app</text><!--MD5=[fc130c355f7213e52682f9256e884d3b]
entity Browser3--><rect fill="#FEFECE" filter="url(#f1gbp5a9yftj0e)" height="39.2969" style="stroke:#000000;stroke-width:1.5;" width="88" x="623" y="278"/><polygon fill="#FEFECE" points="694,283,694,297,706,297,706,289,700,283,694,283" style="stroke:#000000;stroke-width:1.5;"/><line style="stroke:#000000;stroke-width:1.5;" x1="700" x2="700" y1="283" y2="289"/><line style="stroke:#000000;stroke-width:1.5;" x1="706" x2="700" y1="289" y2="289"/><text fill="#000000" font-family="sans-serif" font-size="14" lengthAdjust="spacing" textLength="58" x="633" y="303.9951">Browser</text><!--MD5=[ff5c5394b7739af263f666e2de0be950]
entity Remote control firmware--><rect fill="#FEFECE" filter="url(#f1gbp5a9yftj0e)" height="39.2969" style="stroke:#000000;stroke-width:1.5;" width="212" x="838" y="278"/><polygon fill="#FEFECE" points="1033,283,1033,297,1045,297,1045,289,1039,283,1033,283" style="stroke:#000000;stroke-width:1.5;"/><line style="stroke:#000000;stroke-width:1.5;" x1="1039" x2="1039" y1="283" y2="289"/><line style="stroke:#000000;stroke-width:1.5;" x1="1045" x2="1039" y1="289" y2="289"/><text fill="#000000" font-family="sans-serif" font-size="14" lengthAdjust="spacing" textLength="182" x="848" y="303.9951">Remote control firmware</text><!--MD5=[7fa03c7d039671a680a818ca6b372823]
entity Reservation app--><rect fill="#FEFECE" filter="url(#f1gbp5a9yftj0e)" height="39.2969" style="stroke:#000000;stroke-width:1.5;" width="148" x="606" y="54"/><polygon fill="#FEFECE" points="737,59,737,73,749,73,749,65,743,59,737,59" style="stroke:#000000;stroke-width:1.5;"/><line style="stroke:#000000;stroke-width:1.5;" x1="743" x2="743" y1="59" y2="65"/><line style="stroke:#000000;stroke-width:1.5;" x1="749" x2="743" y1="65" y2="65"/><text fill="#000000" font-family="sans-serif" font-size="14" lengthAdjust="spacing" textLength="118" x="616" y="79.9951">Reservation app</text><!--MD5=[473d7b782e52d1bcb2f676bb3fe2d05e]
entity General app--><rect fill="#FEFECE" filter="url(#f1gbp5a9yftj0e)" height="39.2969" style="stroke:#000000;stroke-width:1.5;" width="118" x="453" y="54"/><polygon fill="#FEFECE" points="554,59,554,73,566,73,566,65,560,59,554,59" style="stroke:#000000;stroke-width:1.5;"/><line style="stroke:#000000;stroke-width:1.5;" x1="560" x2="560" y1="59" y2="65"/><line style="stroke:#000000;stroke-width:1.5;" x1="566" x2="560" y1="65" y2="65"/><text fill="#000000" font-family="sans-serif" font-size="14" lengthAdjust="spacing" textLength="88" x="463" y="79.9951">General app</text><!--MD5=[c3f9e3763d45addea709173d6ca1a790]
link CARSServer to CustomerPC--><path d="M409.8001,75.5066 C408.1738,75.712 406.3227,75.9487 404.2623,76.2163 C396.0209,77.2867 384.4314,78.8521 370.4878,80.8966 C342.6007,84.9855 305.2974,90.9907 266.5311,98.785 C188.9985,114.3735 105.6135,137.118 80,166 C70.4296,176.7915 64.4189,190.1749 60.7955,204.221 C58.9839,211.244 57.769,218.4327 57.0044,225.5459 C56.9088,226.4351 56.8203,227.323 56.7385,228.2094 C56.6976,228.6525 56.6584,229.0953 56.6209,229.5375 " fill="none" id="CARSServer-CustomerPC" style="stroke:#A80036;stroke-width:1.0;"/><text fill="#000000" font-family="sans-serif" font-size="13" lengthAdjust="spacing" textLength="50" x="116" y="154.0669">Internet</text><text fill="#000000" font-family="sans-serif" font-size="13" lengthAdjust="spacing" textLength="7" x="53.9857" y="293.5039">*</text><!--MD5=[552ee97b63bea1cda6a53f70d4f337ff]
link CARSServer to CustomerSmartphone--><path d="M409.6539,77.0691 C409.5367,77.1074 409.4184,77.1461 409.2991,77.1852 C409.0603,77.2635 408.8173,77.3435 408.57,77.4253 C408.0753,77.5889 407.5637,77.7594 407.0357,77.9369 C404.9235,78.6468 402.5486,79.4687 399.949,80.404 C389.5506,84.1452 375.5574,89.7023 360.4025,97.1826 C330.0928,112.1433 295.1365,134.7965 275,166 C267.179,178.1195 262.0567,192.1773 258.7785,206.4854 C257.1394,213.6394 255.9613,220.8561 255.1374,227.9243 C255.0859,228.366 255.0358,228.8072 254.987,229.2478 C254.9627,229.468 254.9386,229.6882 254.9149,229.9081 " fill="none" id="CARSServer-CustomerSmartphone" style="stroke:#A80036;stroke-width:1.0;"/><text fill="#000000" font-family="sans-serif" font-size="13" lengthAdjust="spacing" textLength="50" x="297" y="154.0669">Internet</text><text fill="#000000" font-family="sans-serif" font-size="13" lengthAdjust="spacing" textLength="7" x="248.991" y="293.5079">*</text><!--MD5=[7c8e7c8e680affda0fb549268da24294]
link CARSServer to OfficePC--><path d="M426.5914,117.0882 C426.6341,117.1843 426.6769,117.2803 426.72,117.3762 C426.8924,117.7599 427.0681,118.1421 427.2473,118.5227 C427.6057,119.2839 427.978,120.0387 428.3647,120.7853 C429.1381,122.2786 429.9693,123.7395 430.8624,125.155 C432.6488,127.986 434.6831,130.6356 437,133 C468.283,164.925 499.292,135.537 532,166 C554.732,187.172 568.653,219.1162 576.9296,246.0999 C577.9642,249.4729 578.9106,252.7683 579.775,255.9555 C579.829,256.1547 579.8827,256.3535 579.9361,256.5519 " fill="none" id="CARSServer-OfficePC" style="stroke:#A80036;stroke-width:1.0;"/><text fill="#000000" font-family="sans-serif" font-size="13" lengthAdjust="spacing" textLength="50" x="521" y="154.0669">Internet</text><text fill="#000000" font-family="sans-serif" font-size="13" lengthAdjust="spacing" textLength="7" x="580.993" y="293.5029">*</text><!--MD5=[97bc8f8e71348d148f8b3aacd52cd21a]
link CARSServer to Car--><path d="M425.0305,117.1244 C425.0733,117.219 425.1164,117.3135 425.1598,117.4078 C427.9358,123.4456 431.7548,128.96 437,133 C449.608,142.711 564.186,139.219 580,141 C645.855,148.418 674.93,125.005 727,166 C751.4075,185.216 765.3548,217.1297 773.2259,244.5867 C773.7178,246.3028 774.186,248.0014 774.6316,249.6785 C774.743,250.0978 774.8529,250.5157 774.9615,250.9322 " fill="none" id="CARSServer-Car" style="stroke:#A80036;stroke-width:1.0;"/><text fill="#000000" font-family="sans-serif" font-size="13" lengthAdjust="spacing" textLength="50" x="715" y="154.0669">Internet</text><text fill="#000000" font-family="sans-serif" font-size="13" lengthAdjust="spacing" textLength="7" x="775.995" y="293.5009">*</text><!--MD5=[52e11df520085fcb5d5c496d99d19d4e]
@startuml
node "Customer's PC" as CustomerPC {
	artifact Browser as Browser1
}

node "Customer's smartphone" as CustomerSmartphone {
	artifact Browser as Browser2
	artifact "CARS app"
}

node "Office PC" as OfficePC {
	artifact Browser as Browser3
}

node Car {
	node "Remote control device" {
		artifact "Remote control firmware"
	}
}

node "CARS Server" as CARSServer{
	artifact "Reservation app"
	artifact "General app"
}

CARSServer - - "*" CustomerPC : Internet
CARSServer - - "*" CustomerSmartphone : Internet
CARSServer - - "*" OfficePC : Internet
CARSServer - - "*" Car : Internet
@enduml

PlantUML version 1.2021.11beta2(Unknown compile time)
(GPL source distribution)
Java Runtime: Java(TM) SE Runtime Environment
JVM: Java HotSpot(TM) 64-Bit Server VM
Default Encoding: UTF-8
Language: en
Country: US
--></g></svg>