<?xml version="1.0" encoding="UTF-8" standalone="no"?><svg xmlns="http://www.w3.org/2000/svg" xmlns:xlink="http://www.w3.org/1999/xlink" contentScriptType="application/ecmascript" contentStyleType="text/css" height="300px" preserveAspectRatio="none" style="width:579px;height:300px;background:#FFFFFF;" version="1.1" viewBox="0 0 579 300" width="579px" zoomAndPan="magnify"><defs><filter height="300%" id="f11f3l7s470foj" width="300%" x="-1" y="-1"><feGaussianBlur result="blurOut" stdDeviation="2.0"/><feColorMatrix in="blurOut" result="blurOut2" type="matrix" values="0 0 0 0 0 0 0 0 0 0 0 0 0 0 0 0 0 0 .4 0"/><feOffset dx="4.0" dy="4.0" in="blurOut2" result="blurOut3"/><feBlend in="SourceGraphic" in2="blurOut3" mode="normal"/></filter></defs><g><!--MD5=[87a11c4cb66e6f1b82aa65deb77cf96d]
cluster CustomerDevice--><polygon fill="#FFFFFF" filter="url(#f11f3l7s470foj)" points="16,192,26,182,239,182,239,283,229,293,16,293,16,192" style="stroke:#000000;stroke-width:1.5;"/><line style="stroke:#000000;stroke-width:1.5;" x1="229" x2="239" y1="192" y2="182"/><line style="stroke:#000000;stroke-width:1.5;" x1="16" x2="229" y1="192" y2="192"/><line style="stroke:#000000;stroke-width:1.5;" x1="229" x2="229" y1="192" y2="293"/><text fill="#000000" font-family="sans-serif" font-size="14" font-weight="bold" lengthAdjust="spacing" textLength="147" x="50" y="207.9951">Customer's device</text><!--MD5=[c52ef794d92d0818537a934c72202c18]
cluster OfficePC--><polygon fill="#FFFFFF" filter="url(#f11f3l7s470foj)" points="279,192,289,182,434,182,434,283,424,293,279,293,279,192" style="stroke:#000000;stroke-width:1.5;"/><line style="stroke:#000000;stroke-width:1.5;" x1="424" x2="434" y1="192" y2="182"/><line style="stroke:#000000;stroke-width:1.5;" x1="279" x2="424" y1="192" y2="192"/><line style="stroke:#000000;stroke-width:1.5;" x1="424" x2="424" y1="192" y2="293"/><text fill="#000000" font-family="sans-serif" font-size="14" font-weight="bold" lengthAdjust="spacing" textLength="74" x="315.5" y="207.9951">Office PC</text><!--MD5=[afc1f3cedb1bcbb9eb9bb6f99d195610]
cluster CARSServer--><polygon fill="#FFFFFF" filter="url(#f11f3l7s470foj)" points="194,16,204,6,562,6,562,107,552,117,194,117,194,16" style="stroke:#000000;stroke-width:1.5;"/><line style="stroke:#000000;stroke-width:1.5;" x1="552" x2="562" y1="16" y2="6"/><line style="stroke:#000000;stroke-width:1.5;" x1="194" x2="552" y1="16" y2="16"/><line style="stroke:#000000;stroke-width:1.5;" x1="552" x2="552" y1="16" y2="117"/><text fill="#000000" font-family="sans-serif" font-size="14" font-weight="bold" lengthAdjust="spacing" textLength="98" x="325" y="31.9951">CARS Server</text><!--MD5=[9d3cdd3fc98cc5cf302bc6ead636b28b]
entity Browser1--><rect fill="#FEFECE" filter="url(#f11f3l7s470foj)" height="39.2969" style="stroke:#000000;stroke-width:1.5;" width="88" x="127" y="230"/><polygon fill="#FEFECE" points="198,235,198,249,210,249,210,241,204,235,198,235" style="stroke:#000000;stroke-width:1.5;"/><line style="stroke:#000000;stroke-width:1.5;" x1="204" x2="204" y1="235" y2="241"/><line style="stroke:#000000;stroke-width:1.5;" x1="210" x2="204" y1="241" y2="241"/><text fill="#000000" font-family="sans-serif" font-size="14" lengthAdjust="spacing" textLength="58" x="137" y="255.9951">Browser</text><!--MD5=[6c5c0dfe5cdb6579c98ad0c5901bc7d8]
entity Browser2--><rect fill="#FEFECE" filter="url(#f11f3l7s470foj)" height="39.2969" style="stroke:#000000;stroke-width:1.5;" width="88" x="322" y="230"/><polygon fill="#FEFECE" points="393,235,393,249,405,249,405,241,399,235,393,235" style="stroke:#000000;stroke-width:1.5;"/><line style="stroke:#000000;stroke-width:1.5;" x1="399" x2="399" y1="235" y2="241"/><line style="stroke:#000000;stroke-width:1.5;" x1="405" x2="399" y1="241" y2="241"/><text fill="#000000" font-family="sans-serif" font-size="14" lengthAdjust="spacing" textLength="58" x="332" y="255.9951">Browser</text><!--MD5=[7fa03c7d039671a680a818ca6b372823]
entity Reservation app--><rect fill="#FEFECE" filter="url(#f11f3l7s470foj)" height="39.2969" style="stroke:#000000;stroke-width:1.5;" width="148" x="390" y="54"/><polygon fill="#FEFECE" points="521,59,521,73,533,73,533,65,527,59,521,59" style="stroke:#000000;stroke-width:1.5;"/><line style="stroke:#000000;stroke-width:1.5;" x1="527" x2="527" y1="59" y2="65"/><line style="stroke:#000000;stroke-width:1.5;" x1="533" x2="527" y1="65" y2="65"/><text fill="#000000" font-family="sans-serif" font-size="14" lengthAdjust="spacing" textLength="118" x="400" y="79.9951">Reservation app</text><!--MD5=[473d7b782e52d1bcb2f676bb3fe2d05e]
entity General app--><rect fill="#FEFECE" filter="url(#f11f3l7s470foj)" height="39.2969" style="stroke:#000000;stroke-width:1.5;" width="118" x="237" y="54"/><polygon fill="#FEFECE" points="338,59,338,73,350,73,350,65,344,59,338,59" style="stroke:#000000;stroke-width:1.5;"/><line style="stroke:#000000;stroke-width:1.5;" x1="344" x2="344" y1="59" y2="65"/><line style="stroke:#000000;stroke-width:1.5;" x1="350" x2="344" y1="65" y2="65"/><text fill="#000000" font-family="sans-serif" font-size="14" lengthAdjust="spacing" textLength="88" x="247" y="79.9951">General app</text><!--MD5=[616fe9f85b804934a297540ef6b39a49]
link CARSServer to CustomerDevice--><path d="M193.9045,80.1221 C193.816,80.1858 193.7269,80.25 193.6372,80.3147 C193.4578,80.4441 193.276,80.5755 193.0918,80.7089 C192.3548,81.2425 191.5796,81.8081 190.769,82.4048 C184.284,87.178 175.5334,93.9388 165.99,102.2046 C146.9033,118.7363 124.6455,141.288 111,166 C108.7976,169.9886 106.85,174.221 105.1278,178.5796 C104.6973,179.6693 104.2808,180.7668 103.8779,181.8704 " fill="none" id="CARSServer-CustomerDevice" style="stroke:#A80036;stroke-width:1.0;"/><text fill="#000000" font-family="sans-serif" font-size="13" lengthAdjust="spacing" textLength="50" x="128" y="154.0669">Internet</text><text fill="#000000" font-family="sans-serif" font-size="13" lengthAdjust="spacing" textLength="7" x="85.0029" y="245.4237">*</text><!--MD5=[7c8e7c8e680affda0fb549268da24294]
link CARSServer to OfficePC--><path d="M214.7601,117.2713 C214.7965,117.3725 214.8329,117.4736 214.8694,117.5747 C215.0154,117.9791 215.1624,118.3835 215.3102,118.7877 C215.9017,120.4044 216.5078,122.0179 217.1274,123.6189 C218.3668,126.8208 219.6605,129.9728 221,133 C232.775,159.611 248.9475,188.0065 262.3361,209.9834 C265.6833,215.4776 268.8564,220.5707 271.7434,225.1344 C273.1869,227.4163 274.5588,229.5658 275.8452,231.567 C276.4884,232.5676 277.1101,233.5311 277.7088,234.4555 C278.0081,234.9177 278.3016,235.3701 278.5891,235.8126 C278.661,235.9232 278.7325,236.0331 278.8037,236.1425 " fill="none" id="CARSServer-OfficePC" style="stroke:#A80036;stroke-width:1.0;"/><text fill="#000000" font-family="sans-serif" font-size="13" lengthAdjust="spacing" textLength="50" x="233" y="154.0669">Internet</text><text fill="#000000" font-family="sans-serif" font-size="13" lengthAdjust="spacing" textLength="7" x="279.969" y="245.5222">*</text><!--MD5=[fa84ba4469d7978c0828fc82856ed438]
@startuml
node "Customer's device" as CustomerDevice {
	artifact Browser as Browser1
}

node "Office PC" as OfficePC {
	artifact Browser as Browser2
}

node "CARS Server" as CARSServer{
	artifact "Reservation app"
	artifact "General app"
}

CARSServer - - "*" CustomerDevice : Internet
CARSServer - - "*" OfficePC : Internet
@enduml

PlantUML version 1.2021.11beta2(Unknown compile time)
(GPL source distribution)
Java Runtime: Java(TM) SE Runtime Environment
JVM: Java HotSpot(TM) 64-Bit Server VM
Default Encoding: UTF-8
Language: en
Country: US
--></g></svg>