<?xml version="1.0" encoding="UTF-8" standalone="no"?><svg xmlns="http://www.w3.org/2000/svg" xmlns:xlink="http://www.w3.org/1999/xlink" contentScriptType="application/ecmascript" contentStyleType="text/css" height="597px" preserveAspectRatio="none" style="width:1086px;height:597px;background:#FFFFFF;" version="1.1" viewBox="0 0 1086 597" width="1086px" zoomAndPan="magnify"><defs><filter height="300%" id="fceqyq8sf2a5h" width="300%" x="-1" y="-1"><feGaussianBlur result="blurOut" stdDeviation="2.0"/><feColorMatrix in="blurOut" result="blurOut2" type="matrix" values="0 0 0 0 0 0 0 0 0 0 0 0 0 0 0 0 0 0 .4 0"/><feOffset dx="4.0" dy="4.0" in="blurOut2" result="blurOut3"/><feBlend in="SourceGraphic" in2="blurOut3" mode="normal"/></filter></defs><g><!--MD5=[d8c08b919ebf591d6e07e0761f6775f7]
class FOOD--><rect codeLine="1" fill="#FEFECE" filter="url(#fceqyq8sf2a5h)" height="48" id="FOOD" style="stroke:#A80036;stroke-width:1.5;" width="68" x="234" y="7"/><ellipse cx="249" cy="23" fill="#ADD1B2" rx="11" ry="11" style="stroke:#A80036;stroke-width:1.0;"/><path d="M251.3438,18.6719 C250.4063,18.2344 249.8125,18.0938 248.9375,18.0938 C246.3125,18.0938 244.3125,20.1719 244.3125,22.8906 L244.3125,24.0156 C244.3125,26.5938 246.4219,28.4844 249.3125,28.4844 C250.5313,28.4844 251.6875,28.1875 252.4375,27.6406 C253.0156,27.2344 253.3438,26.7813 253.3438,26.3906 C253.3438,25.9375 252.9531,25.5469 252.4844,25.5469 C252.2656,25.5469 252.0625,25.625 251.875,25.8125 C251.4219,26.2969 251.4219,26.2969 251.2344,26.3906 C250.8125,26.6563 250.125,26.7813 249.3594,26.7813 C247.3125,26.7813 246.0156,25.6875 246.0156,23.9844 L246.0156,22.8906 C246.0156,21.1094 247.2656,19.7969 249,19.7969 C249.5781,19.7969 250.1875,19.9531 250.6563,20.2031 C251.1406,20.4844 251.3125,20.7031 251.4063,21.1094 C251.4688,21.5156 251.5,21.6406 251.6406,21.7656 C251.7813,21.9063 252.0156,22.0156 252.2344,22.0156 C252.5,22.0156 252.7656,21.875 252.9375,21.6563 C253.0469,21.5 253.0781,21.3125 253.0781,20.8906 L253.0781,19.4688 C253.0781,19.0313 253.0625,18.9063 252.9688,18.75 C252.8125,18.4844 252.5313,18.3438 252.2344,18.3438 C251.9375,18.3438 251.7344,18.4375 251.5156,18.75 L251.3438,18.6719 Z " fill="#000000"/><text fill="#000000" font-family="sans-serif" font-size="12" lengthAdjust="spacing" textLength="36" x="263" y="27.1543">FOOD</text><line style="stroke:#A80036;stroke-width:1.5;" x1="235" x2="301" y1="39" y2="39"/><line style="stroke:#A80036;stroke-width:1.5;" x1="235" x2="301" y1="47" y2="47"/><!--MD5=[714a323ea803c80dd4dfd42b424b55c8]
class Restaurant--><rect codeLine="3" fill="#FEFECE" filter="url(#fceqyq8sf2a5h)" height="73.6094" id="Restaurant" style="stroke:#A80036;stroke-width:1.5;" width="95" x="161.5" y="327"/><ellipse cx="176.5" cy="343" fill="#ADD1B2" rx="11" ry="11" style="stroke:#A80036;stroke-width:1.0;"/><path d="M178.8438,338.6719 C177.9063,338.2344 177.3125,338.0938 176.4375,338.0938 C173.8125,338.0938 171.8125,340.1719 171.8125,342.8906 L171.8125,344.0156 C171.8125,346.5938 173.9219,348.4844 176.8125,348.4844 C178.0313,348.4844 179.1875,348.1875 179.9375,347.6406 C180.5156,347.2344 180.8438,346.7813 180.8438,346.3906 C180.8438,345.9375 180.4531,345.5469 179.9844,345.5469 C179.7656,345.5469 179.5625,345.625 179.375,345.8125 C178.9219,346.2969 178.9219,346.2969 178.7344,346.3906 C178.3125,346.6563 177.625,346.7813 176.8594,346.7813 C174.8125,346.7813 173.5156,345.6875 173.5156,343.9844 L173.5156,342.8906 C173.5156,341.1094 174.7656,339.7969 176.5,339.7969 C177.0781,339.7969 177.6875,339.9531 178.1563,340.2031 C178.6406,340.4844 178.8125,340.7031 178.9063,341.1094 C178.9688,341.5156 179,341.6406 179.1406,341.7656 C179.2813,341.9063 179.5156,342.0156 179.7344,342.0156 C180,342.0156 180.2656,341.875 180.4375,341.6563 C180.5469,341.5 180.5781,341.3125 180.5781,340.8906 L180.5781,339.4688 C180.5781,339.0313 180.5625,338.9063 180.4688,338.75 C180.3125,338.4844 180.0313,338.3438 179.7344,338.3438 C179.4375,338.3438 179.2344,338.4375 179.0156,338.75 L178.8438,338.6719 Z " fill="#000000"/><text fill="#000000" font-family="sans-serif" font-size="12" lengthAdjust="spacing" textLength="63" x="190.5" y="347.1543">Restaurant</text><line style="stroke:#A80036;stroke-width:1.5;" x1="162.5" x2="255.5" y1="359" y2="359"/><ellipse cx="172.5" cy="370" rx="3" ry="3" style="stroke:#038048;stroke-width:1.0;fill:none;"/><text fill="#000000" font-family="sans-serif" font-size="11" lengthAdjust="spacing" textLength="12" x="181.5" y="373.2104">ID</text><ellipse cx="172.5" cy="382.8047" rx="3" ry="3" style="stroke:#038048;stroke-width:1.0;fill:none;"/><text fill="#000000" font-family="sans-serif" font-size="11" lengthAdjust="spacing" textLength="34" x="181.5" y="386.0151">Name</text><line style="stroke:#A80036;stroke-width:1.5;" x1="162.5" x2="255.5" y1="392.6094" y2="392.6094"/><!--MD5=[2ce0c9fb7f55b1e256ab28a8ea6b25ec]
class Customer--><rect codeLine="8" fill="#FEFECE" filter="url(#fceqyq8sf2a5h)" height="86.4141" id="Customer" style="stroke:#A80036;stroke-width:1.5;" width="90" x="439" y="321"/><ellipse cx="454" cy="337" fill="#ADD1B2" rx="11" ry="11" style="stroke:#A80036;stroke-width:1.0;"/><path d="M456.3438,332.6719 C455.4063,332.2344 454.8125,332.0938 453.9375,332.0938 C451.3125,332.0938 449.3125,334.1719 449.3125,336.8906 L449.3125,338.0156 C449.3125,340.5938 451.4219,342.4844 454.3125,342.4844 C455.5313,342.4844 456.6875,342.1875 457.4375,341.6406 C458.0156,341.2344 458.3438,340.7813 458.3438,340.3906 C458.3438,339.9375 457.9531,339.5469 457.4844,339.5469 C457.2656,339.5469 457.0625,339.625 456.875,339.8125 C456.4219,340.2969 456.4219,340.2969 456.2344,340.3906 C455.8125,340.6563 455.125,340.7813 454.3594,340.7813 C452.3125,340.7813 451.0156,339.6875 451.0156,337.9844 L451.0156,336.8906 C451.0156,335.1094 452.2656,333.7969 454,333.7969 C454.5781,333.7969 455.1875,333.9531 455.6563,334.2031 C456.1406,334.4844 456.3125,334.7031 456.4063,335.1094 C456.4688,335.5156 456.5,335.6406 456.6406,335.7656 C456.7813,335.9063 457.0156,336.0156 457.2344,336.0156 C457.5,336.0156 457.7656,335.875 457.9375,335.6563 C458.0469,335.5 458.0781,335.3125 458.0781,334.8906 L458.0781,333.4688 C458.0781,333.0313 458.0625,332.9063 457.9688,332.75 C457.8125,332.4844 457.5313,332.3438 457.2344,332.3438 C456.9375,332.3438 456.7344,332.4375 456.5156,332.75 L456.3438,332.6719 Z " fill="#000000"/><text fill="#000000" font-family="sans-serif" font-size="12" lengthAdjust="spacing" textLength="58" x="468" y="341.1543">Customer</text><line style="stroke:#A80036;stroke-width:1.5;" x1="440" x2="528" y1="353" y2="353"/><ellipse cx="450" cy="364" rx="3" ry="3" style="stroke:#038048;stroke-width:1.0;fill:none;"/><text fill="#000000" font-family="sans-serif" font-size="11" lengthAdjust="spacing" textLength="24" x="459" y="367.2104">SSN</text><ellipse cx="450" cy="376.8047" rx="3" ry="3" style="stroke:#038048;stroke-width:1.0;fill:none;"/><text fill="#000000" font-family="sans-serif" font-size="11" lengthAdjust="spacing" textLength="34" x="459" y="380.0151">Name</text><ellipse cx="450" cy="389.6094" rx="3" ry="3" style="stroke:#038048;stroke-width:1.0;fill:none;"/><text fill="#000000" font-family="sans-serif" font-size="11" lengthAdjust="spacing" textLength="52" x="459" y="392.8198">Surname</text><line style="stroke:#A80036;stroke-width:1.5;" x1="440" x2="528" y1="399.4141" y2="399.4141"/><!--MD5=[576a44f8fdc601bdd0fcb38973bef044]
class DeliveryEmployee--><rect codeLine="14" fill="#FEFECE" filter="url(#fceqyq8sf2a5h)" height="60.8047" id="DeliveryEmployee" style="stroke:#A80036;stroke-width:1.5;" width="142" x="422" y="503"/><ellipse cx="437" cy="519" fill="#ADD1B2" rx="11" ry="11" style="stroke:#A80036;stroke-width:1.0;"/><path d="M439.3438,514.6719 C438.4063,514.2344 437.8125,514.0938 436.9375,514.0938 C434.3125,514.0938 432.3125,516.1719 432.3125,518.8906 L432.3125,520.0156 C432.3125,522.5938 434.4219,524.4844 437.3125,524.4844 C438.5313,524.4844 439.6875,524.1875 440.4375,523.6406 C441.0156,523.2344 441.3438,522.7813 441.3438,522.3906 C441.3438,521.9375 440.9531,521.5469 440.4844,521.5469 C440.2656,521.5469 440.0625,521.625 439.875,521.8125 C439.4219,522.2969 439.4219,522.2969 439.2344,522.3906 C438.8125,522.6563 438.125,522.7813 437.3594,522.7813 C435.3125,522.7813 434.0156,521.6875 434.0156,519.9844 L434.0156,518.8906 C434.0156,517.1094 435.2656,515.7969 437,515.7969 C437.5781,515.7969 438.1875,515.9531 438.6563,516.2031 C439.1406,516.4844 439.3125,516.7031 439.4063,517.1094 C439.4688,517.5156 439.5,517.6406 439.6406,517.7656 C439.7813,517.9063 440.0156,518.0156 440.2344,518.0156 C440.5,518.0156 440.7656,517.875 440.9375,517.6563 C441.0469,517.5 441.0781,517.3125 441.0781,516.8906 L441.0781,515.4688 C441.0781,515.0313 441.0625,514.9063 440.9688,514.75 C440.8125,514.4844 440.5313,514.3438 440.2344,514.3438 C439.9375,514.3438 439.7344,514.4375 439.5156,514.75 L439.3438,514.6719 Z " fill="#000000"/><text fill="#000000" font-family="sans-serif" font-size="12" lengthAdjust="spacing" textLength="110" x="451" y="523.1543">DeliveryEmployee</text><line style="stroke:#A80036;stroke-width:1.5;" x1="423" x2="563" y1="535" y2="535"/><ellipse cx="433" cy="546" rx="3" ry="3" style="stroke:#038048;stroke-width:1.0;fill:none;"/><text fill="#000000" font-family="sans-serif" font-size="11" lengthAdjust="spacing" textLength="12" x="442" y="549.2104">ID</text><line style="stroke:#A80036;stroke-width:1.5;" x1="423" x2="563" y1="555.8047" y2="555.8047"/><!--MD5=[713ca68e2ff37a558f2db4966252cc23]
class Dish--><rect codeLine="18" fill="#FEFECE" filter="url(#fceqyq8sf2a5h)" height="86.4141" id="Dish" style="stroke:#A80036;stroke-width:1.5;" width="90" x="91" y="490.5"/><ellipse cx="120.4" cy="506.5" fill="#ADD1B2" rx="11" ry="11" style="stroke:#A80036;stroke-width:1.0;"/><path d="M122.7438,502.1719 C121.8063,501.7344 121.2125,501.5938 120.3375,501.5938 C117.7125,501.5938 115.7125,503.6719 115.7125,506.3906 L115.7125,507.5156 C115.7125,510.0938 117.8219,511.9844 120.7125,511.9844 C121.9313,511.9844 123.0875,511.6875 123.8375,511.1406 C124.4156,510.7344 124.7438,510.2813 124.7438,509.8906 C124.7438,509.4375 124.3531,509.0469 123.8844,509.0469 C123.6656,509.0469 123.4625,509.125 123.275,509.3125 C122.8219,509.7969 122.8219,509.7969 122.6344,509.8906 C122.2125,510.1563 121.525,510.2813 120.7594,510.2813 C118.7125,510.2813 117.4156,509.1875 117.4156,507.4844 L117.4156,506.3906 C117.4156,504.6094 118.6656,503.2969 120.4,503.2969 C120.9781,503.2969 121.5875,503.4531 122.0563,503.7031 C122.5406,503.9844 122.7125,504.2031 122.8063,504.6094 C122.8688,505.0156 122.9,505.1406 123.0406,505.2656 C123.1813,505.4063 123.4156,505.5156 123.6344,505.5156 C123.9,505.5156 124.1656,505.375 124.3375,505.1563 C124.4469,505 124.4781,504.8125 124.4781,504.3906 L124.4781,502.9688 C124.4781,502.5313 124.4625,502.4063 124.3688,502.25 C124.2125,501.9844 123.9313,501.8438 123.6344,501.8438 C123.3375,501.8438 123.1344,501.9375 122.9156,502.25 L122.7438,502.1719 Z " fill="#000000"/><text fill="#000000" font-family="sans-serif" font-size="12" lengthAdjust="spacing" textLength="26" x="137.6" y="510.6543">Dish</text><line style="stroke:#A80036;stroke-width:1.5;" x1="92" x2="180" y1="522.5" y2="522.5"/><ellipse cx="102" cy="533.5" rx="3" ry="3" style="stroke:#038048;stroke-width:1.0;fill:none;"/><text fill="#000000" font-family="sans-serif" font-size="11" lengthAdjust="spacing" textLength="12" x="111" y="536.7104">ID</text><ellipse cx="102" cy="546.3047" rx="3" ry="3" style="stroke:#038048;stroke-width:1.0;fill:none;"/><text fill="#000000" font-family="sans-serif" font-size="11" lengthAdjust="spacing" textLength="64" x="111" y="549.5151">Description</text><ellipse cx="102" cy="559.1094" rx="3" ry="3" style="stroke:#038048;stroke-width:1.0;fill:none;"/><text fill="#000000" font-family="sans-serif" font-size="11" lengthAdjust="spacing" textLength="27" x="111" y="562.3198">Price</text><line style="stroke:#A80036;stroke-width:1.5;" x1="92" x2="180" y1="568.9141" y2="568.9141"/><!--MD5=[cf4d6237fcae255cd2e1656cf84a30e2]
class Order--><rect codeLine="24" fill="#FEFECE" filter="url(#fceqyq8sf2a5h)" height="112.0234" id="Order" style="stroke:#A80036;stroke-width:1.5;" width="140" x="425" y="132"/><ellipse cx="472.75" cy="148" fill="#ADD1B2" rx="11" ry="11" style="stroke:#A80036;stroke-width:1.0;"/><path d="M475.0938,143.6719 C474.1563,143.2344 473.5625,143.0938 472.6875,143.0938 C470.0625,143.0938 468.0625,145.1719 468.0625,147.8906 L468.0625,149.0156 C468.0625,151.5938 470.1719,153.4844 473.0625,153.4844 C474.2813,153.4844 475.4375,153.1875 476.1875,152.6406 C476.7656,152.2344 477.0938,151.7813 477.0938,151.3906 C477.0938,150.9375 476.7031,150.5469 476.2344,150.5469 C476.0156,150.5469 475.8125,150.625 475.625,150.8125 C475.1719,151.2969 475.1719,151.2969 474.9844,151.3906 C474.5625,151.6563 473.875,151.7813 473.1094,151.7813 C471.0625,151.7813 469.7656,150.6875 469.7656,148.9844 L469.7656,147.8906 C469.7656,146.1094 471.0156,144.7969 472.75,144.7969 C473.3281,144.7969 473.9375,144.9531 474.4063,145.2031 C474.8906,145.4844 475.0625,145.7031 475.1563,146.1094 C475.2188,146.5156 475.25,146.6406 475.3906,146.7656 C475.5313,146.9063 475.7656,147.0156 475.9844,147.0156 C476.25,147.0156 476.5156,146.875 476.6875,146.6563 C476.7969,146.5 476.8281,146.3125 476.8281,145.8906 L476.8281,144.4688 C476.8281,144.0313 476.8125,143.9063 476.7188,143.75 C476.5625,143.4844 476.2813,143.3438 475.9844,143.3438 C475.6875,143.3438 475.4844,143.4375 475.2656,143.75 L475.0938,143.6719 Z " fill="#000000"/><text fill="#000000" font-family="sans-serif" font-size="12" lengthAdjust="spacing" textLength="36" x="493.25" y="152.1543">Order</text><line style="stroke:#A80036;stroke-width:1.5;" x1="426" x2="564" y1="164" y2="164"/><ellipse cx="436" cy="175" rx="3" ry="3" style="stroke:#038048;stroke-width:1.0;fill:none;"/><text fill="#000000" font-family="sans-serif" font-size="11" lengthAdjust="spacing" textLength="12" x="445" y="178.2104">ID</text><ellipse cx="436" cy="187.8047" rx="3" ry="3" style="stroke:#038048;stroke-width:1.0;fill:none;"/><text fill="#000000" font-family="sans-serif" font-size="11" lengthAdjust="spacing" textLength="92" x="445" y="191.0151">Start timestamp</text><ellipse cx="436" cy="200.6094" rx="3" ry="3" style="stroke:#038048;stroke-width:1.0;fill:none;"/><text fill="#000000" font-family="sans-serif" font-size="11" lengthAdjust="spacing" textLength="114" x="445" y="203.8198">Delivery timestamp</text><ellipse cx="436" cy="213.4141" rx="3" ry="3" style="stroke:#038048;stroke-width:1.0;fill:none;"/><text fill="#000000" font-family="sans-serif" font-size="11" lengthAdjust="spacing" textLength="36" x="445" y="216.6245">Status</text><ellipse cx="436" cy="226.2188" rx="3" ry="3" style="stroke:#038048;stroke-width:1.0;fill:none;"/><text fill="#000000" font-family="sans-serif" font-size="11" lengthAdjust="spacing" textLength="26" x="445" y="229.4292">Rate</text><line style="stroke:#A80036;stroke-width:1.5;" x1="426" x2="564" y1="236.0234" y2="236.0234"/><!--MD5=[0f39e4cb6f03951afbf6d14bd2505654]
class Address--><rect codeLine="32" fill="#FEFECE" filter="url(#fceqyq8sf2a5h)" height="99.2188" id="Address" style="stroke:#A80036;stroke-width:1.5;" width="101" x="279.5" y="484"/><ellipse cx="302.6" cy="500" fill="#ADD1B2" rx="11" ry="11" style="stroke:#A80036;stroke-width:1.0;"/><path d="M304.9438,495.6719 C304.0063,495.2344 303.4125,495.0938 302.5375,495.0938 C299.9125,495.0938 297.9125,497.1719 297.9125,499.8906 L297.9125,501.0156 C297.9125,503.5938 300.0219,505.4844 302.9125,505.4844 C304.1313,505.4844 305.2875,505.1875 306.0375,504.6406 C306.6156,504.2344 306.9438,503.7813 306.9438,503.3906 C306.9438,502.9375 306.5531,502.5469 306.0844,502.5469 C305.8656,502.5469 305.6625,502.625 305.475,502.8125 C305.0219,503.2969 305.0219,503.2969 304.8344,503.3906 C304.4125,503.6563 303.725,503.7813 302.9594,503.7813 C300.9125,503.7813 299.6156,502.6875 299.6156,500.9844 L299.6156,499.8906 C299.6156,498.1094 300.8656,496.7969 302.6,496.7969 C303.1781,496.7969 303.7875,496.9531 304.2563,497.2031 C304.7406,497.4844 304.9125,497.7031 305.0063,498.1094 C305.0688,498.5156 305.1,498.6406 305.2406,498.7656 C305.3813,498.9063 305.6156,499.0156 305.8344,499.0156 C306.1,499.0156 306.3656,498.875 306.5375,498.6563 C306.6469,498.5 306.6781,498.3125 306.6781,497.8906 L306.6781,496.4688 C306.6781,496.0313 306.6625,495.9063 306.5688,495.75 C306.4125,495.4844 306.1313,495.3438 305.8344,495.3438 C305.5375,495.3438 305.3344,495.4375 305.1156,495.75 L304.9438,495.6719 Z " fill="#000000"/><text fill="#000000" font-family="sans-serif" font-size="12" lengthAdjust="spacing" textLength="51" x="318.4" y="504.1543">Address</text><line style="stroke:#A80036;stroke-width:1.5;" x1="280.5" x2="379.5" y1="516" y2="516"/><ellipse cx="290.5" cy="527" rx="3" ry="3" style="stroke:#038048;stroke-width:1.0;fill:none;"/><text fill="#000000" font-family="sans-serif" font-size="11" lengthAdjust="spacing" textLength="22" x="299.5" y="530.2104">City</text><ellipse cx="290.5" cy="539.8047" rx="3" ry="3" style="stroke:#038048;stroke-width:1.0;fill:none;"/><text fill="#000000" font-family="sans-serif" font-size="11" lengthAdjust="spacing" textLength="29" x="299.5" y="543.0151">Type</text><ellipse cx="290.5" cy="552.6094" rx="3" ry="3" style="stroke:#038048;stroke-width:1.0;fill:none;"/><text fill="#000000" font-family="sans-serif" font-size="11" lengthAdjust="spacing" textLength="34" x="299.5" y="555.8198">Name</text><ellipse cx="290.5" cy="565.4141" rx="3" ry="3" style="stroke:#038048;stroke-width:1.0;fill:none;"/><text fill="#000000" font-family="sans-serif" font-size="11" lengthAdjust="spacing" textLength="75" x="299.5" y="568.6245">Civic number</text><line style="stroke:#A80036;stroke-width:1.5;" x1="280.5" x2="379.5" y1="575.2188" y2="575.2188"/><!--MD5=[91d4151b6d4c9a3d01b6d84b2458eece]
class CreditCard--><rect codeLine="39" fill="#FEFECE" filter="url(#fceqyq8sf2a5h)" height="73.6094" id="CreditCard" style="stroke:#A80036;stroke-width:1.5;" width="112" x="292" y="327"/><ellipse cx="312.85" cy="343" fill="#ADD1B2" rx="11" ry="11" style="stroke:#A80036;stroke-width:1.0;"/><path d="M315.1938,338.6719 C314.2563,338.2344 313.6625,338.0938 312.7875,338.0938 C310.1625,338.0938 308.1625,340.1719 308.1625,342.8906 L308.1625,344.0156 C308.1625,346.5938 310.2719,348.4844 313.1625,348.4844 C314.3813,348.4844 315.5375,348.1875 316.2875,347.6406 C316.8656,347.2344 317.1938,346.7813 317.1938,346.3906 C317.1938,345.9375 316.8031,345.5469 316.3344,345.5469 C316.1156,345.5469 315.9125,345.625 315.725,345.8125 C315.2719,346.2969 315.2719,346.2969 315.0844,346.3906 C314.6625,346.6563 313.975,346.7813 313.2094,346.7813 C311.1625,346.7813 309.8656,345.6875 309.8656,343.9844 L309.8656,342.8906 C309.8656,341.1094 311.1156,339.7969 312.85,339.7969 C313.4281,339.7969 314.0375,339.9531 314.5063,340.2031 C314.9906,340.4844 315.1625,340.7031 315.2563,341.1094 C315.3188,341.5156 315.35,341.6406 315.4906,341.7656 C315.6313,341.9063 315.8656,342.0156 316.0844,342.0156 C316.35,342.0156 316.6156,341.875 316.7875,341.6563 C316.8969,341.5 316.9281,341.3125 316.9281,340.8906 L316.9281,339.4688 C316.9281,339.0313 316.9125,338.9063 316.8188,338.75 C316.6625,338.4844 316.3813,338.3438 316.0844,338.3438 C315.7875,338.3438 315.5844,338.4375 315.3656,338.75 L315.1938,338.6719 Z " fill="#000000"/><text fill="#000000" font-family="sans-serif" font-size="12" lengthAdjust="spacing" textLength="67" x="328.15" y="347.1543">Credit card</text><line style="stroke:#A80036;stroke-width:1.5;" x1="293" x2="403" y1="359" y2="359"/><ellipse cx="303" cy="370" rx="3" ry="3" style="stroke:#038048;stroke-width:1.0;fill:none;"/><text fill="#000000" font-family="sans-serif" font-size="11" lengthAdjust="spacing" textLength="45" x="312" y="373.2104">Number</text><ellipse cx="303" cy="382.8047" rx="3" ry="3" style="stroke:#038048;stroke-width:1.0;fill:none;"/><text fill="#000000" font-family="sans-serif" font-size="11" lengthAdjust="spacing" textLength="86" x="312" y="386.0151">Expiration date</text><line style="stroke:#A80036;stroke-width:1.5;" x1="293" x2="403" y1="392.6094" y2="392.6094"/><!--MD5=[764fca796ce7f635542948d8fc39db5e]
class Payment--><rect codeLine="44" fill="#FEFECE" filter="url(#fceqyq8sf2a5h)" height="60.8047" id="Payment" style="stroke:#A80036;stroke-width:1.5;" width="82" x="964" y="157.5"/><ellipse cx="979" cy="173.5" fill="#ADD1B2" rx="11" ry="11" style="stroke:#A80036;stroke-width:1.0;"/><path d="M981.3438,169.1719 C980.4063,168.7344 979.8125,168.5938 978.9375,168.5938 C976.3125,168.5938 974.3125,170.6719 974.3125,173.3906 L974.3125,174.5156 C974.3125,177.0938 976.4219,178.9844 979.3125,178.9844 C980.5313,178.9844 981.6875,178.6875 982.4375,178.1406 C983.0156,177.7344 983.3438,177.2813 983.3438,176.8906 C983.3438,176.4375 982.9531,176.0469 982.4844,176.0469 C982.2656,176.0469 982.0625,176.125 981.875,176.3125 C981.4219,176.7969 981.4219,176.7969 981.2344,176.8906 C980.8125,177.1563 980.125,177.2813 979.3594,177.2813 C977.3125,177.2813 976.0156,176.1875 976.0156,174.4844 L976.0156,173.3906 C976.0156,171.6094 977.2656,170.2969 979,170.2969 C979.5781,170.2969 980.1875,170.4531 980.6563,170.7031 C981.1406,170.9844 981.3125,171.2031 981.4063,171.6094 C981.4688,172.0156 981.5,172.1406 981.6406,172.2656 C981.7813,172.4063 982.0156,172.5156 982.2344,172.5156 C982.5,172.5156 982.7656,172.375 982.9375,172.1563 C983.0469,172 983.0781,171.8125 983.0781,171.3906 L983.0781,169.9688 C983.0781,169.5313 983.0625,169.4063 982.9688,169.25 C982.8125,168.9844 982.5313,168.8438 982.2344,168.8438 C981.9375,168.8438 981.7344,168.9375 981.5156,169.25 L981.3438,169.1719 Z " fill="#000000"/><text fill="#000000" font-family="sans-serif" font-size="12" lengthAdjust="spacing" textLength="50" x="993" y="177.6543">Payment</text><line style="stroke:#A80036;stroke-width:1.5;" x1="965" x2="1045" y1="189.5" y2="189.5"/><ellipse cx="975" cy="200.5" rx="3" ry="3" style="stroke:#038048;stroke-width:1.0;fill:none;"/><text fill="#000000" font-family="sans-serif" font-size="11" lengthAdjust="spacing" textLength="44" x="984" y="203.7104">Amount</text><line style="stroke:#A80036;stroke-width:1.5;" x1="965" x2="1045" y1="210.3047" y2="210.3047"/><!--MD5=[7778c2e921656f957feb253019b47873]
class OrderPayment--><rect codeLine="48" fill="#FEFECE" filter="url(#fceqyq8sf2a5h)" height="48" id="OrderPayment" style="stroke:#A80036;stroke-width:1.5;" width="118" x="816" y="340"/><ellipse cx="831" cy="356" fill="#ADD1B2" rx="11" ry="11" style="stroke:#A80036;stroke-width:1.0;"/><path d="M833.3438,351.6719 C832.4063,351.2344 831.8125,351.0938 830.9375,351.0938 C828.3125,351.0938 826.3125,353.1719 826.3125,355.8906 L826.3125,357.0156 C826.3125,359.5938 828.4219,361.4844 831.3125,361.4844 C832.5313,361.4844 833.6875,361.1875 834.4375,360.6406 C835.0156,360.2344 835.3438,359.7813 835.3438,359.3906 C835.3438,358.9375 834.9531,358.5469 834.4844,358.5469 C834.2656,358.5469 834.0625,358.625 833.875,358.8125 C833.4219,359.2969 833.4219,359.2969 833.2344,359.3906 C832.8125,359.6563 832.125,359.7813 831.3594,359.7813 C829.3125,359.7813 828.0156,358.6875 828.0156,356.9844 L828.0156,355.8906 C828.0156,354.1094 829.2656,352.7969 831,352.7969 C831.5781,352.7969 832.1875,352.9531 832.6563,353.2031 C833.1406,353.4844 833.3125,353.7031 833.4063,354.1094 C833.4688,354.5156 833.5,354.6406 833.6406,354.7656 C833.7813,354.9063 834.0156,355.0156 834.2344,355.0156 C834.5,355.0156 834.7656,354.875 834.9375,354.6563 C835.0469,354.5 835.0781,354.3125 835.0781,353.8906 L835.0781,352.4688 C835.0781,352.0313 835.0625,351.9063 834.9688,351.75 C834.8125,351.4844 834.5313,351.3438 834.2344,351.3438 C833.9375,351.3438 833.7344,351.4375 833.5156,351.75 L833.3438,351.6719 Z " fill="#000000"/><text fill="#000000" font-family="sans-serif" font-size="12" lengthAdjust="spacing" textLength="86" x="845" y="360.1543">OrderPayment</text><line style="stroke:#A80036;stroke-width:1.5;" x1="817" x2="933" y1="372" y2="372"/><line style="stroke:#A80036;stroke-width:1.5;" x1="817" x2="933" y1="380" y2="380"/><!--MD5=[b594208bf556a3a35ed06f6faadd4505]
class DeliveryTip--><rect codeLine="49" fill="#FEFECE" filter="url(#fceqyq8sf2a5h)" height="48" id="DeliveryTip" style="stroke:#A80036;stroke-width:1.5;" width="100" x="972" y="340"/><ellipse cx="987" cy="356" fill="#ADD1B2" rx="11" ry="11" style="stroke:#A80036;stroke-width:1.0;"/><path d="M989.3438,351.6719 C988.4063,351.2344 987.8125,351.0938 986.9375,351.0938 C984.3125,351.0938 982.3125,353.1719 982.3125,355.8906 L982.3125,357.0156 C982.3125,359.5938 984.4219,361.4844 987.3125,361.4844 C988.5313,361.4844 989.6875,361.1875 990.4375,360.6406 C991.0156,360.2344 991.3438,359.7813 991.3438,359.3906 C991.3438,358.9375 990.9531,358.5469 990.4844,358.5469 C990.2656,358.5469 990.0625,358.625 989.875,358.8125 C989.4219,359.2969 989.4219,359.2969 989.2344,359.3906 C988.8125,359.6563 988.125,359.7813 987.3594,359.7813 C985.3125,359.7813 984.0156,358.6875 984.0156,356.9844 L984.0156,355.8906 C984.0156,354.1094 985.2656,352.7969 987,352.7969 C987.5781,352.7969 988.1875,352.9531 988.6563,353.2031 C989.1406,353.4844 989.3125,353.7031 989.4063,354.1094 C989.4688,354.5156 989.5,354.6406 989.6406,354.7656 C989.7813,354.9063 990.0156,355.0156 990.2344,355.0156 C990.5,355.0156 990.7656,354.875 990.9375,354.6563 C991.0469,354.5 991.0781,354.3125 991.0781,353.8906 L991.0781,352.4688 C991.0781,352.0313 991.0625,351.9063 990.9688,351.75 C990.8125,351.4844 990.5313,351.3438 990.2344,351.3438 C989.9375,351.3438 989.7344,351.4375 989.5156,351.75 L989.3438,351.6719 Z " fill="#000000"/><text fill="#000000" font-family="sans-serif" font-size="12" lengthAdjust="spacing" textLength="68" x="1001" y="360.1543">DeliveryTip</text><line style="stroke:#A80036;stroke-width:1.5;" x1="973" x2="1071" y1="372" y2="372"/><line style="stroke:#A80036;stroke-width:1.5;" x1="973" x2="1071" y1="380" y2="380"/><!--MD5=[894442645724153f40a9f7a43026dbfc]
class Invoice--><rect codeLine="51" fill="#FEFECE" filter="url(#fceqyq8sf2a5h)" height="73.6094" id="Invoice" style="stroke:#A80036;stroke-width:1.5;" width="75" x="564.5" y="327"/><ellipse cx="579.5" cy="343" fill="#ADD1B2" rx="11" ry="11" style="stroke:#A80036;stroke-width:1.0;"/><path d="M581.8438,338.6719 C580.9063,338.2344 580.3125,338.0938 579.4375,338.0938 C576.8125,338.0938 574.8125,340.1719 574.8125,342.8906 L574.8125,344.0156 C574.8125,346.5938 576.9219,348.4844 579.8125,348.4844 C581.0313,348.4844 582.1875,348.1875 582.9375,347.6406 C583.5156,347.2344 583.8438,346.7813 583.8438,346.3906 C583.8438,345.9375 583.4531,345.5469 582.9844,345.5469 C582.7656,345.5469 582.5625,345.625 582.375,345.8125 C581.9219,346.2969 581.9219,346.2969 581.7344,346.3906 C581.3125,346.6563 580.625,346.7813 579.8594,346.7813 C577.8125,346.7813 576.5156,345.6875 576.5156,343.9844 L576.5156,342.8906 C576.5156,341.1094 577.7656,339.7969 579.5,339.7969 C580.0781,339.7969 580.6875,339.9531 581.1563,340.2031 C581.6406,340.4844 581.8125,340.7031 581.9063,341.1094 C581.9688,341.5156 582,341.6406 582.1406,341.7656 C582.2813,341.9063 582.5156,342.0156 582.7344,342.0156 C583,342.0156 583.2656,341.875 583.4375,341.6563 C583.5469,341.5 583.5781,341.3125 583.5781,340.8906 L583.5781,339.4688 C583.5781,339.0313 583.5625,338.9063 583.4688,338.75 C583.3125,338.4844 583.0313,338.3438 582.7344,338.3438 C582.4375,338.3438 582.2344,338.4375 582.0156,338.75 L581.8438,338.6719 Z " fill="#000000"/><text fill="#000000" font-family="sans-serif" font-size="12" lengthAdjust="spacing" textLength="43" x="593.5" y="347.1543">Invoice</text><line style="stroke:#A80036;stroke-width:1.5;" x1="565.5" x2="638.5" y1="359" y2="359"/><ellipse cx="575.5" cy="370" rx="3" ry="3" style="stroke:#038048;stroke-width:1.0;fill:none;"/><text fill="#000000" font-family="sans-serif" font-size="11" lengthAdjust="spacing" textLength="12" x="584.5" y="373.2104">ID</text><ellipse cx="575.5" cy="382.8047" rx="3" ry="3" style="stroke:#038048;stroke-width:1.0;fill:none;"/><text fill="#000000" font-family="sans-serif" font-size="11" lengthAdjust="spacing" textLength="28" x="584.5" y="386.0151">Date</text><line style="stroke:#A80036;stroke-width:1.5;" x1="565.5" x2="638.5" y1="392.6094" y2="392.6094"/><!--MD5=[c10c36ce2c02dedc3d02a76c5154070d]
class Quantity--><rect codeLine="56" fill="#FEFECE" filter="url(#fceqyq8sf2a5h)" height="60.8047" id="Quantity" style="stroke:#A80036;stroke-width:1.5;" width="81" x="45.5" y="333.5"/><ellipse cx="60.5" cy="349.5" fill="#ADD1B2" rx="11" ry="11" style="stroke:#A80036;stroke-width:1.0;"/><path d="M62.8438,345.1719 C61.9063,344.7344 61.3125,344.5938 60.4375,344.5938 C57.8125,344.5938 55.8125,346.6719 55.8125,349.3906 L55.8125,350.5156 C55.8125,353.0938 57.9219,354.9844 60.8125,354.9844 C62.0313,354.9844 63.1875,354.6875 63.9375,354.1406 C64.5156,353.7344 64.8438,353.2813 64.8438,352.8906 C64.8438,352.4375 64.4531,352.0469 63.9844,352.0469 C63.7656,352.0469 63.5625,352.125 63.375,352.3125 C62.9219,352.7969 62.9219,352.7969 62.7344,352.8906 C62.3125,353.1563 61.625,353.2813 60.8594,353.2813 C58.8125,353.2813 57.5156,352.1875 57.5156,350.4844 L57.5156,349.3906 C57.5156,347.6094 58.7656,346.2969 60.5,346.2969 C61.0781,346.2969 61.6875,346.4531 62.1563,346.7031 C62.6406,346.9844 62.8125,347.2031 62.9063,347.6094 C62.9688,348.0156 63,348.1406 63.1406,348.2656 C63.2813,348.4063 63.5156,348.5156 63.7344,348.5156 C64,348.5156 64.2656,348.375 64.4375,348.1563 C64.5469,348 64.5781,347.8125 64.5781,347.3906 L64.5781,345.9688 C64.5781,345.5313 64.5625,345.4063 64.4688,345.25 C64.3125,344.9844 64.0313,344.8438 63.7344,344.8438 C63.4375,344.8438 63.2344,344.9375 63.0156,345.25 L62.8438,345.1719 Z " fill="#000000"/><text fill="#000000" font-family="sans-serif" font-size="12" lengthAdjust="spacing" textLength="49" x="74.5" y="353.6543">Quantity</text><line style="stroke:#A80036;stroke-width:1.5;" x1="46.5" x2="125.5" y1="365.5" y2="365.5"/><ellipse cx="56.5" cy="376.5" rx="3" ry="3" style="stroke:#038048;stroke-width:1.0;fill:none;"/><text fill="#000000" font-family="sans-serif" font-size="11" lengthAdjust="spacing" textLength="48" x="65.5" y="379.7104">Quantity</text><line style="stroke:#A80036;stroke-width:1.5;" x1="46.5" x2="125.5" y1="386.3047" y2="386.3047"/><ellipse cx="8" cy="364" fill="#000000" rx="2" ry="2" style="stroke:none;stroke-width:1.0;"/><!--MD5=[5c6092282b22387140650975178dfea0]
reverse link Customer to DeliveryEmployee--><path codeLine="60" d="M487.363,427.59 C488.75,453.398 490.291,482.075 491.41,502.9159 " fill="none" id="Customer-backto-DeliveryEmployee" style="stroke:#A80036;stroke-width:1.0;"/><polygon fill="none" points="480.354,427.614,486.271,407.267,494.334,426.863,480.354,427.614" style="stroke:#A80036;stroke-width:1.0;"/><!--MD5=[d037c01276c632f88a1b73a6978601f7]
reverse link Payment to OrderPayment--><path codeLine="61" d="M990.546,237.681 C983.869,255.481 974.765,275.127 963,291 C948.895,310.03 928.677,327.04 911.177,339.742 " fill="none" id="Payment-backto-OrderPayment" style="stroke:#A80036;stroke-width:1.0;"/><polygon fill="none" points="983.956,235.317,997.065,218.669,997.199,239.858,983.956,235.317" style="stroke:#A80036;stroke-width:1.0;"/><!--MD5=[af225e9ba2876d09aadd1d2bb64627c0]
reverse link Payment to DeliveryTip--><path codeLine="62" d="M1009.86,238.782 C1013.11,271.976 1017.22,314.078 1019.73,339.755 " fill="none" id="Payment-backto-DeliveryTip" style="stroke:#A80036;stroke-width:1.0;"/><polygon fill="none" points="1002.862,239.103,1007.88,218.517,1016.8,237.741,1002.862,239.103" style="stroke:#A80036;stroke-width:1.0;"/><!--MD5=[7421aec2042b28a9ad607bb1ff8267d9]
link FOOD to Restaurant--><path codeLine="64" d="M263.898,55.012 C253.798,111.677 227.663,258.297 215.458,326.771 " fill="none" id="FOOD-Restaurant" style="stroke:#A80036;stroke-width:1.0;"/><polygon fill="#000000" points="255.1226,192.9888,259.6032,184.5998,253.8165,183.5684,255.1226,192.9888" style="stroke:#000000;stroke-width:1.0;"/><text fill="#000000" font-family="sans-serif" font-size="13" lengthAdjust="spacing" textLength="129" x="265" y="192.5669">has agreement with</text><text fill="#000000" font-family="sans-serif" font-size="13" lengthAdjust="spacing" textLength="7" x="208.9849" y="315.9172">*</text><!--MD5=[dfc01849b567a73c81edfa88f8d3ab1f]
link FOOD to Order--><path codeLine="65" d="M301.984,55.205 C334.265,77.247 383.792,111.065 424.593,138.925 " fill="none" id="FOOD-Order" style="stroke:#A80036;stroke-width:1.0;"/><polygon fill="#000000" points="377.1292,96.3859,371.3167,88.8583,368.0021,93.7125,377.1292,96.3859" style="stroke:#000000;stroke-width:1.0;"/><text fill="#000000" font-family="sans-serif" font-size="13" lengthAdjust="spacing" textLength="60" x="382" y="98.0669">manages</text><text fill="#000000" font-family="sans-serif" font-size="13" lengthAdjust="spacing" textLength="7" x="409.9713" y="130.1632">*</text><!--MD5=[65622aaf8fcfd7b10df86db327daabc8]
link Order to Customer--><path codeLine="66" d="M491.52,244.055 C489.946,268.946 488.116,297.888 486.656,320.99 " fill="none" id="Order-Customer" style="stroke:#A80036;stroke-width:1.0;"/><polygon fill="#000000" points="495.3155,277.5764,491.8117,286.418,497.6778,286.7889,495.3155,277.5764" style="stroke:#000000;stroke-width:1.0;"/><text fill="#000000" font-family="sans-serif" font-size="13" lengthAdjust="spacing" textLength="41" x="504" y="287.0669">orders</text><text fill="#000000" font-family="sans-serif" font-size="13" lengthAdjust="spacing" textLength="7" x="483.6257" y="264.2719">*</text><!--MD5=[1f6ceb8c5724450070c08b4d9f72942f]
link Order to Restaurant--><path codeLine="67" d="M424.913,218.355 C391.834,233.326 352.386,252.831 319,274 C294.519,289.522 269.236,309.644 249.091,326.828 " fill="none" id="Order-Restaurant" style="stroke:#A80036;stroke-width:1.0;"/><polygon fill="#000000" points="328.2553,279.9411,319.0143,282.1891,322.1005,287.1915,328.2553,279.9411" style="stroke:#000000;stroke-width:1.0;"/><text fill="#000000" font-family="sans-serif" font-size="13" lengthAdjust="spacing" textLength="54" x="333" y="287.0669">receives</text><text fill="#000000" font-family="sans-serif" font-size="13" lengthAdjust="spacing" textLength="7" x="409.8644" y="217.9276">*</text><!--MD5=[9d267913275094cee8b213adaba16fc1]
link Customer to Address--><path codeLine="68" d="M445.139,407.267 C423.754,430.527 397.119,459.498 374.854,483.7145 " fill="none" id="Customer-Address" style="stroke:#A80036;stroke-width:1.0;"/><!--MD5=[f64dea9b1ef67fb21aecd23208585e78]
link Restaurant to Address--><path codeLine="69" d="M248.18,401.32 C258.851,412.232 269.95,424.612 279,437 C289.533,451.419 299.272,468.287 307.355,483.8021 " fill="none" id="Restaurant-Address" style="stroke:#A80036;stroke-width:1.0;"/><!--MD5=[9244a7f6d25972885672cfffad98fa82]
link Restaurant to Dish--><path codeLine="70" d="M193.16,401.345 C181.754,427.516 166.335,462.896 154.386,490.3138 " fill="none" id="Restaurant-Dish" style="stroke:#A80036;stroke-width:1.0;"/><polygon fill="#000000" points="180.0024,450.15,186.3103,443.0323,180.9219,440.684,180.0024,450.15" style="stroke:#000000;stroke-width:1.0;"/><text fill="#000000" font-family="sans-serif" font-size="13" lengthAdjust="spacing" textLength="79" x="191" y="450.0669">has in menu</text><text fill="#000000" font-family="sans-serif" font-size="13" lengthAdjust="spacing" textLength="7" x="149.7585" y="479.2804">*</text><!--MD5=[f41ea39c6159e886fe6c4f4e96d5cf80]
link Order to apoint30239--><path d="M424.999,212.855 C394.693,222.903 358.731,234.455 326,244 C194.676,282.296 133.535,233.966 28,321 C14.0433,332.51 9.1983,356.034 8.2052,361.735 " fill="none" id="Order-apoint30239" style="stroke:#A80036;stroke-width:1.0;"/><!--MD5=[47ed1e42933e9937b9063f488e2d1899]
link apoint30239 to Dish--><path d="M8.3964,366.094 C10.2184,371.055 18.1237,391.843 28,407 C47.3809,436.743 73.1972,466.997 94.7292,490.3457 " fill="none" id="apoint30239-Dish" style="stroke:#A80036;stroke-width:1.0;"/><text fill="#000000" font-family="sans-serif" font-size="13" lengthAdjust="spacing" textLength="23" x="63.3189" y="479.3175">1..*</text><!--MD5=[c57bdb132cf77a35b0161f02507590cf]
link apoint30239 to Quantity--><path d="M10.1328,364 C21.8883,364 33.6437,364 45.3992,364 " fill="none" id="apoint30239-Quantity" style="stroke:#A80036;stroke-width:1.0;stroke-dasharray:7.0,7.0;"/><!--MD5=[9e541693026e1af25d43e03808f1e411]
link Order to CreditCard--><path codeLine="73" d="M435.283,244.135 C425.812,253.775 416.385,263.945 408,274 C394.275,290.458 380.773,310.089 370.064,326.722 " fill="none" id="Order-CreditCard" style="stroke:#A80036;stroke-width:1.0;"/><polygon fill="#000000" points="409.9012,286.4904,417.8134,281.2133,413.2005,277.5704,409.9012,286.4904" style="stroke:#000000;stroke-width:1.0;"/><text fill="#000000" font-family="sans-serif" font-size="13" lengthAdjust="spacing" textLength="58" x="422" y="287.0669">paid with</text><!--MD5=[af1ae96c54739a0f8f1fe724391a1aff]
link Order to OrderPayment--><path codeLine="74" d="M565.082,210.4 C612.364,225.814 675.627,248.354 729,274 C769.269,293.35 812.65,320.708 841.567,339.971 " fill="none" id="Order-OrderPayment" style="stroke:#A80036;stroke-width:1.0;"/><polygon fill="#000000" points="759.4725,280.4447,766.4157,286.9441,768.91,281.6217,759.4725,280.4447" style="stroke:#000000;stroke-width:1.0;"/><text fill="#000000" font-family="sans-serif" font-size="13" lengthAdjust="spacing" textLength="62" x="773" y="287.0669">related to</text><!--MD5=[8bdf6fe3c64099e661bf4f5055240b0c]
link Order to DeliveryTip--><path codeLine="75" d="M565.221,202.331 C636.437,216.724 749.342,241.958 844,274 C893.199,290.654 904.786,297.29 951,321 C962.213,326.753 974.107,333.514 984.889,339.909 " fill="none" id="Order-DeliveryTip" style="stroke:#A80036;stroke-width:1.0;"/><polygon fill="#000000" points="890.2488,281.0088,897.9283,286.6192,899.7593,281.0338,890.2488,281.0088" style="stroke:#000000;stroke-width:1.0;"/><text fill="#000000" font-family="sans-serif" font-size="13" lengthAdjust="spacing" textLength="62" x="904" y="287.0669">related to</text><text fill="#000000" font-family="sans-serif" font-size="13" lengthAdjust="spacing" textLength="24" x="948.3043" y="328.8977">0..1</text><!--MD5=[e8689f9ac8b030dc23cc8d4cad888e90]
link Order to Invoice--><path codeLine="76" d="M534.629,244.186 C541.289,253.992 547.984,264.203 554,274 C564.472,291.054 575.136,310.569 583.745,326.97 " fill="none" id="Order-Invoice" style="stroke:#A80036;stroke-width:1.0;"/><polygon fill="#000000" points="566.4487,278.2663,568.5365,287.5449,573.5916,284.5457,566.4487,278.2663" style="stroke:#000000;stroke-width:1.0;"/><text fill="#000000" font-family="sans-serif" font-size="13" lengthAdjust="spacing" textLength="62" x="578" y="287.0669">related to</text><!--MD5=[142a985ab00a42be592a2525dda1649f]
link Order to DeliveryEmployee--><path codeLine="77" d="M565.184,211.894 C595.523,225.306 628.665,245.367 649,274 C666.366,298.453 657.516,405.956 657,407 C635.961,449.592 592.768,481.714 555.989,502.7949 " fill="none" id="Order-DeliveryEmployee" style="stroke:#A80036;stroke-width:1.0;"/><polygon fill="#000000" points="665.158,359.0689,661.9347,368.0166,667.8097,368.2023,665.158,359.0689" style="stroke:#000000;stroke-width:1.0;"/><text fill="#000000" font-family="sans-serif" font-size="13" lengthAdjust="spacing" textLength="50" x="674" y="368.5669">delivers</text><!--MD5=[9d59cab170ae1e74bb9b78ee66d9c8bc]
@startuml
class FOOD

class Restaurant {
	+ID
	+Name
}

class Customer {
	+SSN
	+Name
	+Surname
}

class DeliveryEmployee {
	+ID
}

class Dish {
	+ID
	+Description
	+Price
}

class Order {
	+ID
	+Start timestamp
	+Delivery timestamp
	+Status
	+Rate
}

class Address {
	+City
	+Type
	+Name
	+Civic number
}

class "Credit card" as CreditCard {
	+Number
	+Expiration date
}

class Payment {
	+Amount
}

class OrderPayment
class DeliveryTip

class Invoice {
	+ID
	+Date
}

class Quantity {
	+Quantity
}

Customer <|- - DeliveryEmployee
Payment <|- - OrderPayment
Payment <|- - DeliveryTip

FOOD - - "*" Restaurant : has agreement with >
FOOD - - "*" Order : manages >
Order "*" - - Customer : orders <
Order "*" - - Restaurant : receives <
Customer - - Address
Restaurant - - Address
Restaurant - - "*" Dish : has in menu >
Order - - "1..*" Dish
(Order, Dish) .. Quantity
Order - - CreditCard : paid with >
Order - - OrderPayment : related to <
Order - - "0..1" DeliveryTip : related to <
Order - - Invoice : related to <
Order - - DeliveryEmployee : delivers <
@enduml

PlantUML version 1.2021.11beta5(Unknown compile time)
(GPL source distribution)
Java Runtime: Java(TM) SE Runtime Environment
JVM: Java HotSpot(TM) 64-Bit Server VM
Default Encoding: UTF-8
Language: en
Country: US
--></g></svg>