<?xml version="1.0" encoding="UTF-8" standalone="no"?><svg xmlns="http://www.w3.org/2000/svg" xmlns:xlink="http://www.w3.org/1999/xlink" contentScriptType="application/ecmascript" contentStyleType="text/css" height="610px" preserveAspectRatio="none" style="width:1137px;height:610px;background:#FFFFFF;" version="1.1" viewBox="0 0 1137 610" width="1137px" zoomAndPan="magnify"><defs><filter height="300%" id="f9adn8lcwz8mz" width="300%" x="-1" y="-1"><feGaussianBlur result="blurOut" stdDeviation="2.0"/><feColorMatrix in="blurOut" result="blurOut2" type="matrix" values="0 0 0 0 0 0 0 0 0 0 0 0 0 0 0 0 0 0 .4 0"/><feOffset dx="4.0" dy="4.0" in="blurOut2" result="blurOut3"/><feBlend in="SourceGraphic" in2="blurOut3" mode="normal"/></filter></defs><g><!--MD5=[d8c08b919ebf591d6e07e0761f6775f7]
class FOOD--><rect codeLine="1" fill="#FEFECE" filter="url(#f9adn8lcwz8mz)" height="48" id="FOOD" style="stroke:#A80036;stroke-width:1.5;" width="68" x="191" y="7"/><ellipse cx="206" cy="23" fill="#ADD1B2" rx="11" ry="11" style="stroke:#A80036;stroke-width:1.0;"/><path d="M208.3438,18.6719 C207.4063,18.2344 206.8125,18.0938 205.9375,18.0938 C203.3125,18.0938 201.3125,20.1719 201.3125,22.8906 L201.3125,24.0156 C201.3125,26.5938 203.4219,28.4844 206.3125,28.4844 C207.5313,28.4844 208.6875,28.1875 209.4375,27.6406 C210.0156,27.2344 210.3438,26.7813 210.3438,26.3906 C210.3438,25.9375 209.9531,25.5469 209.4844,25.5469 C209.2656,25.5469 209.0625,25.625 208.875,25.8125 C208.4219,26.2969 208.4219,26.2969 208.2344,26.3906 C207.8125,26.6563 207.125,26.7813 206.3594,26.7813 C204.3125,26.7813 203.0156,25.6875 203.0156,23.9844 L203.0156,22.8906 C203.0156,21.1094 204.2656,19.7969 206,19.7969 C206.5781,19.7969 207.1875,19.9531 207.6563,20.2031 C208.1406,20.4844 208.3125,20.7031 208.4063,21.1094 C208.4688,21.5156 208.5,21.6406 208.6406,21.7656 C208.7813,21.9063 209.0156,22.0156 209.2344,22.0156 C209.5,22.0156 209.7656,21.875 209.9375,21.6563 C210.0469,21.5 210.0781,21.3125 210.0781,20.8906 L210.0781,19.4688 C210.0781,19.0313 210.0625,18.9063 209.9688,18.75 C209.8125,18.4844 209.5313,18.3438 209.2344,18.3438 C208.9375,18.3438 208.7344,18.4375 208.5156,18.75 L208.3438,18.6719 Z " fill="#000000"/><text fill="#000000" font-family="sans-serif" font-size="12" lengthAdjust="spacing" textLength="36" x="220" y="27.1543">FOOD</text><line style="stroke:#A80036;stroke-width:1.5;" x1="192" x2="258" y1="39" y2="39"/><line style="stroke:#A80036;stroke-width:1.5;" x1="192" x2="258" y1="47" y2="47"/><!--MD5=[714a323ea803c80dd4dfd42b424b55c8]
class Restaurant--><rect codeLine="3" fill="#FEFECE" filter="url(#f9adn8lcwz8mz)" height="99.2188" id="Restaurant" style="stroke:#A80036;stroke-width:1.5;" width="95" x="57.5" y="321"/><ellipse cx="72.5" cy="337" fill="#ADD1B2" rx="11" ry="11" style="stroke:#A80036;stroke-width:1.0;"/><path d="M74.8438,332.6719 C73.9063,332.2344 73.3125,332.0938 72.4375,332.0938 C69.8125,332.0938 67.8125,334.1719 67.8125,336.8906 L67.8125,338.0156 C67.8125,340.5938 69.9219,342.4844 72.8125,342.4844 C74.0313,342.4844 75.1875,342.1875 75.9375,341.6406 C76.5156,341.2344 76.8438,340.7813 76.8438,340.3906 C76.8438,339.9375 76.4531,339.5469 75.9844,339.5469 C75.7656,339.5469 75.5625,339.625 75.375,339.8125 C74.9219,340.2969 74.9219,340.2969 74.7344,340.3906 C74.3125,340.6563 73.625,340.7813 72.8594,340.7813 C70.8125,340.7813 69.5156,339.6875 69.5156,337.9844 L69.5156,336.8906 C69.5156,335.1094 70.7656,333.7969 72.5,333.7969 C73.0781,333.7969 73.6875,333.9531 74.1563,334.2031 C74.6406,334.4844 74.8125,334.7031 74.9063,335.1094 C74.9688,335.5156 75,335.6406 75.1406,335.7656 C75.2813,335.9063 75.5156,336.0156 75.7344,336.0156 C76,336.0156 76.2656,335.875 76.4375,335.6563 C76.5469,335.5 76.5781,335.3125 76.5781,334.8906 L76.5781,333.4688 C76.5781,333.0313 76.5625,332.9063 76.4688,332.75 C76.3125,332.4844 76.0313,332.3438 75.7344,332.3438 C75.4375,332.3438 75.2344,332.4375 75.0156,332.75 L74.8438,332.6719 Z " fill="#000000"/><text fill="#000000" font-family="sans-serif" font-size="12" lengthAdjust="spacing" textLength="63" x="86.5" y="341.1543">Restaurant</text><line style="stroke:#A80036;stroke-width:1.5;" x1="58.5" x2="151.5" y1="353" y2="353"/><ellipse cx="68.5" cy="364" rx="3" ry="3" style="stroke:#038048;stroke-width:1.0;fill:none;"/><text fill="#000000" font-family="sans-serif" font-size="11" lengthAdjust="spacing" textLength="12" x="77.5" y="367.2104">ID</text><ellipse cx="68.5" cy="376.8047" rx="3" ry="3" style="stroke:#038048;stroke-width:1.0;fill:none;"/><text fill="#000000" font-family="sans-serif" font-size="11" lengthAdjust="spacing" textLength="34" x="77.5" y="380.0151">Name</text><ellipse cx="68.5" cy="389.6094" rx="3" ry="3" style="stroke:#038048;stroke-width:1.0;fill:none;"/><text fill="#000000" font-family="sans-serif" font-size="11" lengthAdjust="spacing" textLength="60" x="77.5" y="392.8198">Open hour</text><ellipse cx="68.5" cy="402.4141" rx="3" ry="3" style="stroke:#038048;stroke-width:1.0;fill:none;"/><text fill="#000000" font-family="sans-serif" font-size="11" lengthAdjust="spacing" textLength="61" x="77.5" y="405.6245">Close hour</text><line style="stroke:#A80036;stroke-width:1.5;" x1="58.5" x2="151.5" y1="412.2188" y2="412.2188"/><!--MD5=[2ce0c9fb7f55b1e256ab28a8ea6b25ec]
class Customer--><rect codeLine="10" fill="#FEFECE" filter="url(#f9adn8lcwz8mz)" height="86.4141" id="Customer" style="stroke:#A80036;stroke-width:1.5;" width="90" x="601" y="327.5"/><ellipse cx="616" cy="343.5" fill="#ADD1B2" rx="11" ry="11" style="stroke:#A80036;stroke-width:1.0;"/><path d="M618.3438,339.1719 C617.4063,338.7344 616.8125,338.5938 615.9375,338.5938 C613.3125,338.5938 611.3125,340.6719 611.3125,343.3906 L611.3125,344.5156 C611.3125,347.0938 613.4219,348.9844 616.3125,348.9844 C617.5313,348.9844 618.6875,348.6875 619.4375,348.1406 C620.0156,347.7344 620.3438,347.2813 620.3438,346.8906 C620.3438,346.4375 619.9531,346.0469 619.4844,346.0469 C619.2656,346.0469 619.0625,346.125 618.875,346.3125 C618.4219,346.7969 618.4219,346.7969 618.2344,346.8906 C617.8125,347.1563 617.125,347.2813 616.3594,347.2813 C614.3125,347.2813 613.0156,346.1875 613.0156,344.4844 L613.0156,343.3906 C613.0156,341.6094 614.2656,340.2969 616,340.2969 C616.5781,340.2969 617.1875,340.4531 617.6563,340.7031 C618.1406,340.9844 618.3125,341.2031 618.4063,341.6094 C618.4688,342.0156 618.5,342.1406 618.6406,342.2656 C618.7813,342.4063 619.0156,342.5156 619.2344,342.5156 C619.5,342.5156 619.7656,342.375 619.9375,342.1563 C620.0469,342 620.0781,341.8125 620.0781,341.3906 L620.0781,339.9688 C620.0781,339.5313 620.0625,339.4063 619.9688,339.25 C619.8125,338.9844 619.5313,338.8438 619.2344,338.8438 C618.9375,338.8438 618.7344,338.9375 618.5156,339.25 L618.3438,339.1719 Z " fill="#000000"/><text fill="#000000" font-family="sans-serif" font-size="12" lengthAdjust="spacing" textLength="58" x="630" y="347.6543">Customer</text><line style="stroke:#A80036;stroke-width:1.5;" x1="602" x2="690" y1="359.5" y2="359.5"/><ellipse cx="612" cy="370.5" rx="3" ry="3" style="stroke:#038048;stroke-width:1.0;fill:none;"/><text fill="#000000" font-family="sans-serif" font-size="11" lengthAdjust="spacing" textLength="24" x="621" y="373.7104">SSN</text><ellipse cx="612" cy="383.3047" rx="3" ry="3" style="stroke:#038048;stroke-width:1.0;fill:none;"/><text fill="#000000" font-family="sans-serif" font-size="11" lengthAdjust="spacing" textLength="34" x="621" y="386.5151">Name</text><ellipse cx="612" cy="396.1094" rx="3" ry="3" style="stroke:#038048;stroke-width:1.0;fill:none;"/><text fill="#000000" font-family="sans-serif" font-size="11" lengthAdjust="spacing" textLength="52" x="621" y="399.3198">Surname</text><line style="stroke:#A80036;stroke-width:1.5;" x1="602" x2="690" y1="405.9141" y2="405.9141"/><!--MD5=[576a44f8fdc601bdd0fcb38973bef044]
class DeliveryEmployee--><rect codeLine="16" fill="#FEFECE" filter="url(#f9adn8lcwz8mz)" height="60.8047" id="DeliveryEmployee" style="stroke:#A80036;stroke-width:1.5;" width="142" x="641" y="516"/><ellipse cx="656" cy="532" fill="#ADD1B2" rx="11" ry="11" style="stroke:#A80036;stroke-width:1.0;"/><path d="M658.3438,527.6719 C657.4063,527.2344 656.8125,527.0938 655.9375,527.0938 C653.3125,527.0938 651.3125,529.1719 651.3125,531.8906 L651.3125,533.0156 C651.3125,535.5938 653.4219,537.4844 656.3125,537.4844 C657.5313,537.4844 658.6875,537.1875 659.4375,536.6406 C660.0156,536.2344 660.3438,535.7813 660.3438,535.3906 C660.3438,534.9375 659.9531,534.5469 659.4844,534.5469 C659.2656,534.5469 659.0625,534.625 658.875,534.8125 C658.4219,535.2969 658.4219,535.2969 658.2344,535.3906 C657.8125,535.6563 657.125,535.7813 656.3594,535.7813 C654.3125,535.7813 653.0156,534.6875 653.0156,532.9844 L653.0156,531.8906 C653.0156,530.1094 654.2656,528.7969 656,528.7969 C656.5781,528.7969 657.1875,528.9531 657.6563,529.2031 C658.1406,529.4844 658.3125,529.7031 658.4063,530.1094 C658.4688,530.5156 658.5,530.6406 658.6406,530.7656 C658.7813,530.9063 659.0156,531.0156 659.2344,531.0156 C659.5,531.0156 659.7656,530.875 659.9375,530.6563 C660.0469,530.5 660.0781,530.3125 660.0781,529.8906 L660.0781,528.4688 C660.0781,528.0313 660.0625,527.9063 659.9688,527.75 C659.8125,527.4844 659.5313,527.3438 659.2344,527.3438 C658.9375,527.3438 658.7344,527.4375 658.5156,527.75 L658.3438,527.6719 Z " fill="#000000"/><text fill="#000000" font-family="sans-serif" font-size="12" lengthAdjust="spacing" textLength="110" x="670" y="536.1543">DeliveryEmployee</text><line style="stroke:#A80036;stroke-width:1.5;" x1="642" x2="782" y1="548" y2="548"/><ellipse cx="652" cy="559" rx="3" ry="3" style="stroke:#038048;stroke-width:1.0;fill:none;"/><text fill="#000000" font-family="sans-serif" font-size="11" lengthAdjust="spacing" textLength="12" x="661" y="562.2104">ID</text><line style="stroke:#A80036;stroke-width:1.5;" x1="642" x2="782" y1="568.8047" y2="568.8047"/><!--MD5=[713ca68e2ff37a558f2db4966252cc23]
class Dish--><rect codeLine="20" fill="#FEFECE" filter="url(#f9adn8lcwz8mz)" height="86.4141" id="Dish" style="stroke:#A80036;stroke-width:1.5;" width="90" x="229" y="503.5"/><ellipse cx="258.4" cy="519.5" fill="#ADD1B2" rx="11" ry="11" style="stroke:#A80036;stroke-width:1.0;"/><path d="M260.7438,515.1719 C259.8063,514.7344 259.2125,514.5938 258.3375,514.5938 C255.7125,514.5938 253.7125,516.6719 253.7125,519.3906 L253.7125,520.5156 C253.7125,523.0938 255.8219,524.9844 258.7125,524.9844 C259.9313,524.9844 261.0875,524.6875 261.8375,524.1406 C262.4156,523.7344 262.7438,523.2813 262.7438,522.8906 C262.7438,522.4375 262.3531,522.0469 261.8844,522.0469 C261.6656,522.0469 261.4625,522.125 261.275,522.3125 C260.8219,522.7969 260.8219,522.7969 260.6344,522.8906 C260.2125,523.1563 259.525,523.2813 258.7594,523.2813 C256.7125,523.2813 255.4156,522.1875 255.4156,520.4844 L255.4156,519.3906 C255.4156,517.6094 256.6656,516.2969 258.4,516.2969 C258.9781,516.2969 259.5875,516.4531 260.0563,516.7031 C260.5406,516.9844 260.7125,517.2031 260.8063,517.6094 C260.8688,518.0156 260.9,518.1406 261.0406,518.2656 C261.1813,518.4063 261.4156,518.5156 261.6344,518.5156 C261.9,518.5156 262.1656,518.375 262.3375,518.1563 C262.4469,518 262.4781,517.8125 262.4781,517.3906 L262.4781,515.9688 C262.4781,515.5313 262.4625,515.4063 262.3688,515.25 C262.2125,514.9844 261.9313,514.8438 261.6344,514.8438 C261.3375,514.8438 261.1344,514.9375 260.9156,515.25 L260.7438,515.1719 Z " fill="#000000"/><text fill="#000000" font-family="sans-serif" font-size="12" lengthAdjust="spacing" textLength="26" x="275.6" y="523.6543">Dish</text><line style="stroke:#A80036;stroke-width:1.5;" x1="230" x2="318" y1="535.5" y2="535.5"/><ellipse cx="240" cy="546.5" rx="3" ry="3" style="stroke:#038048;stroke-width:1.0;fill:none;"/><text fill="#000000" font-family="sans-serif" font-size="11" lengthAdjust="spacing" textLength="12" x="249" y="549.7104">ID</text><ellipse cx="240" cy="559.3047" rx="3" ry="3" style="stroke:#038048;stroke-width:1.0;fill:none;"/><text fill="#000000" font-family="sans-serif" font-size="11" lengthAdjust="spacing" textLength="64" x="249" y="562.5151">Description</text><ellipse cx="240" cy="572.1094" rx="3" ry="3" style="stroke:#038048;stroke-width:1.0;fill:none;"/><text fill="#000000" font-family="sans-serif" font-size="11" lengthAdjust="spacing" textLength="27" x="249" y="575.3198">Price</text><line style="stroke:#A80036;stroke-width:1.5;" x1="230" x2="318" y1="581.9141" y2="581.9141"/><!--MD5=[a1cd337173fecc0fb20a861a9d65958d]
class DiscountPolicy--><rect codeLine="26" fill="#FEFECE" filter="url(#f9adn8lcwz8mz)" height="86.4141" id="DiscountPolicy" style="stroke:#A80036;stroke-width:1.5;" width="124" x="7" y="503.5"/><ellipse cx="22" cy="519.5" fill="#ADD1B2" rx="11" ry="11" style="stroke:#A80036;stroke-width:1.0;"/><path d="M24.3438,515.1719 C23.4063,514.7344 22.8125,514.5938 21.9375,514.5938 C19.3125,514.5938 17.3125,516.6719 17.3125,519.3906 L17.3125,520.5156 C17.3125,523.0938 19.4219,524.9844 22.3125,524.9844 C23.5313,524.9844 24.6875,524.6875 25.4375,524.1406 C26.0156,523.7344 26.3438,523.2813 26.3438,522.8906 C26.3438,522.4375 25.9531,522.0469 25.4844,522.0469 C25.2656,522.0469 25.0625,522.125 24.875,522.3125 C24.4219,522.7969 24.4219,522.7969 24.2344,522.8906 C23.8125,523.1563 23.125,523.2813 22.3594,523.2813 C20.3125,523.2813 19.0156,522.1875 19.0156,520.4844 L19.0156,519.3906 C19.0156,517.6094 20.2656,516.2969 22,516.2969 C22.5781,516.2969 23.1875,516.4531 23.6563,516.7031 C24.1406,516.9844 24.3125,517.2031 24.4063,517.6094 C24.4688,518.0156 24.5,518.1406 24.6406,518.2656 C24.7813,518.4063 25.0156,518.5156 25.2344,518.5156 C25.5,518.5156 25.7656,518.375 25.9375,518.1563 C26.0469,518 26.0781,517.8125 26.0781,517.3906 L26.0781,515.9688 C26.0781,515.5313 26.0625,515.4063 25.9688,515.25 C25.8125,514.9844 25.5313,514.8438 25.2344,514.8438 C24.9375,514.8438 24.7344,514.9375 24.5156,515.25 L24.3438,515.1719 Z " fill="#000000"/><text fill="#000000" font-family="sans-serif" font-size="12" lengthAdjust="spacing" textLength="92" x="36" y="523.6543">Discount policy</text><line style="stroke:#A80036;stroke-width:1.5;" x1="8" x2="130" y1="535.5" y2="535.5"/><ellipse cx="18" cy="546.5" rx="3" ry="3" style="stroke:#038048;stroke-width:1.0;fill:none;"/><text fill="#000000" font-family="sans-serif" font-size="11" lengthAdjust="spacing" textLength="12" x="27" y="549.7104">ID</text><ellipse cx="18" cy="559.3047" rx="3" ry="3" style="stroke:#038048;stroke-width:1.0;fill:none;"/><text fill="#000000" font-family="sans-serif" font-size="11" lengthAdjust="spacing" textLength="29" x="27" y="562.5151">Type</text><ellipse cx="18" cy="572.1094" rx="3" ry="3" style="stroke:#038048;stroke-width:1.0;fill:none;"/><text fill="#000000" font-family="sans-serif" font-size="11" lengthAdjust="spacing" textLength="64" x="27" y="575.3198">Description</text><line style="stroke:#A80036;stroke-width:1.5;" x1="8" x2="130" y1="581.9141" y2="581.9141"/><!--MD5=[cf4d6237fcae255cd2e1656cf84a30e2]
class Order--><rect codeLine="32" fill="#FEFECE" filter="url(#f9adn8lcwz8mz)" height="112.0234" id="Order" style="stroke:#A80036;stroke-width:1.5;" width="140" x="458" y="132"/><ellipse cx="505.75" cy="148" fill="#ADD1B2" rx="11" ry="11" style="stroke:#A80036;stroke-width:1.0;"/><path d="M508.0938,143.6719 C507.1563,143.2344 506.5625,143.0938 505.6875,143.0938 C503.0625,143.0938 501.0625,145.1719 501.0625,147.8906 L501.0625,149.0156 C501.0625,151.5938 503.1719,153.4844 506.0625,153.4844 C507.2813,153.4844 508.4375,153.1875 509.1875,152.6406 C509.7656,152.2344 510.0938,151.7813 510.0938,151.3906 C510.0938,150.9375 509.7031,150.5469 509.2344,150.5469 C509.0156,150.5469 508.8125,150.625 508.625,150.8125 C508.1719,151.2969 508.1719,151.2969 507.9844,151.3906 C507.5625,151.6563 506.875,151.7813 506.1094,151.7813 C504.0625,151.7813 502.7656,150.6875 502.7656,148.9844 L502.7656,147.8906 C502.7656,146.1094 504.0156,144.7969 505.75,144.7969 C506.3281,144.7969 506.9375,144.9531 507.4063,145.2031 C507.8906,145.4844 508.0625,145.7031 508.1563,146.1094 C508.2188,146.5156 508.25,146.6406 508.3906,146.7656 C508.5313,146.9063 508.7656,147.0156 508.9844,147.0156 C509.25,147.0156 509.5156,146.875 509.6875,146.6563 C509.7969,146.5 509.8281,146.3125 509.8281,145.8906 L509.8281,144.4688 C509.8281,144.0313 509.8125,143.9063 509.7188,143.75 C509.5625,143.4844 509.2813,143.3438 508.9844,143.3438 C508.6875,143.3438 508.4844,143.4375 508.2656,143.75 L508.0938,143.6719 Z " fill="#000000"/><text fill="#000000" font-family="sans-serif" font-size="12" lengthAdjust="spacing" textLength="36" x="526.25" y="152.1543">Order</text><line style="stroke:#A80036;stroke-width:1.5;" x1="459" x2="597" y1="164" y2="164"/><ellipse cx="469" cy="175" rx="3" ry="3" style="stroke:#038048;stroke-width:1.0;fill:none;"/><text fill="#000000" font-family="sans-serif" font-size="11" lengthAdjust="spacing" textLength="12" x="478" y="178.2104">ID</text><ellipse cx="469" cy="187.8047" rx="3" ry="3" style="stroke:#038048;stroke-width:1.0;fill:none;"/><text fill="#000000" font-family="sans-serif" font-size="11" lengthAdjust="spacing" textLength="92" x="478" y="191.0151">Start timestamp</text><ellipse cx="469" cy="200.6094" rx="3" ry="3" style="stroke:#038048;stroke-width:1.0;fill:none;"/><text fill="#000000" font-family="sans-serif" font-size="11" lengthAdjust="spacing" textLength="114" x="478" y="203.8198">Delivery timestamp</text><ellipse cx="469" cy="213.4141" rx="3" ry="3" style="stroke:#038048;stroke-width:1.0;fill:none;"/><text fill="#000000" font-family="sans-serif" font-size="11" lengthAdjust="spacing" textLength="36" x="478" y="216.6245">Status</text><ellipse cx="469" cy="226.2188" rx="3" ry="3" style="stroke:#038048;stroke-width:1.0;fill:none;"/><text fill="#000000" font-family="sans-serif" font-size="11" lengthAdjust="spacing" textLength="26" x="478" y="229.4292">Rate</text><line style="stroke:#A80036;stroke-width:1.5;" x1="459" x2="597" y1="236.0234" y2="236.0234"/><!--MD5=[0f39e4cb6f03951afbf6d14bd2505654]
class Address--><rect codeLine="40" fill="#FEFECE" filter="url(#f9adn8lcwz8mz)" height="99.2188" id="Address" style="stroke:#A80036;stroke-width:1.5;" width="101" x="429.5" y="497"/><ellipse cx="452.6" cy="513" fill="#ADD1B2" rx="11" ry="11" style="stroke:#A80036;stroke-width:1.0;"/><path d="M454.9438,508.6719 C454.0063,508.2344 453.4125,508.0938 452.5375,508.0938 C449.9125,508.0938 447.9125,510.1719 447.9125,512.8906 L447.9125,514.0156 C447.9125,516.5938 450.0219,518.4844 452.9125,518.4844 C454.1313,518.4844 455.2875,518.1875 456.0375,517.6406 C456.6156,517.2344 456.9438,516.7813 456.9438,516.3906 C456.9438,515.9375 456.5531,515.5469 456.0844,515.5469 C455.8656,515.5469 455.6625,515.625 455.475,515.8125 C455.0219,516.2969 455.0219,516.2969 454.8344,516.3906 C454.4125,516.6563 453.725,516.7813 452.9594,516.7813 C450.9125,516.7813 449.6156,515.6875 449.6156,513.9844 L449.6156,512.8906 C449.6156,511.1094 450.8656,509.7969 452.6,509.7969 C453.1781,509.7969 453.7875,509.9531 454.2563,510.2031 C454.7406,510.4844 454.9125,510.7031 455.0063,511.1094 C455.0688,511.5156 455.1,511.6406 455.2406,511.7656 C455.3813,511.9063 455.6156,512.0156 455.8344,512.0156 C456.1,512.0156 456.3656,511.875 456.5375,511.6563 C456.6469,511.5 456.6781,511.3125 456.6781,510.8906 L456.6781,509.4688 C456.6781,509.0313 456.6625,508.9063 456.5688,508.75 C456.4125,508.4844 456.1313,508.3438 455.8344,508.3438 C455.5375,508.3438 455.3344,508.4375 455.1156,508.75 L454.9438,508.6719 Z " fill="#000000"/><text fill="#000000" font-family="sans-serif" font-size="12" lengthAdjust="spacing" textLength="51" x="468.4" y="517.1543">Address</text><line style="stroke:#A80036;stroke-width:1.5;" x1="430.5" x2="529.5" y1="529" y2="529"/><ellipse cx="440.5" cy="540" rx="3" ry="3" style="stroke:#038048;stroke-width:1.0;fill:none;"/><text fill="#000000" font-family="sans-serif" font-size="11" lengthAdjust="spacing" textLength="22" x="449.5" y="543.2104">City</text><ellipse cx="440.5" cy="552.8047" rx="3" ry="3" style="stroke:#038048;stroke-width:1.0;fill:none;"/><text fill="#000000" font-family="sans-serif" font-size="11" lengthAdjust="spacing" textLength="29" x="449.5" y="556.0151">Type</text><ellipse cx="440.5" cy="565.6094" rx="3" ry="3" style="stroke:#038048;stroke-width:1.0;fill:none;"/><text fill="#000000" font-family="sans-serif" font-size="11" lengthAdjust="spacing" textLength="34" x="449.5" y="568.8198">Name</text><ellipse cx="440.5" cy="578.4141" rx="3" ry="3" style="stroke:#038048;stroke-width:1.0;fill:none;"/><text fill="#000000" font-family="sans-serif" font-size="11" lengthAdjust="spacing" textLength="75" x="449.5" y="581.6245">Civic number</text><line style="stroke:#A80036;stroke-width:1.5;" x1="430.5" x2="529.5" y1="588.2188" y2="588.2188"/><!--MD5=[91d4151b6d4c9a3d01b6d84b2458eece]
class CreditCard--><rect codeLine="47" fill="#FEFECE" filter="url(#f9adn8lcwz8mz)" height="73.6094" id="CreditCard" style="stroke:#A80036;stroke-width:1.5;" width="112" x="188" y="333.5"/><ellipse cx="208.85" cy="349.5" fill="#ADD1B2" rx="11" ry="11" style="stroke:#A80036;stroke-width:1.0;"/><path d="M211.1938,345.1719 C210.2563,344.7344 209.6625,344.5938 208.7875,344.5938 C206.1625,344.5938 204.1625,346.6719 204.1625,349.3906 L204.1625,350.5156 C204.1625,353.0938 206.2719,354.9844 209.1625,354.9844 C210.3813,354.9844 211.5375,354.6875 212.2875,354.1406 C212.8656,353.7344 213.1938,353.2813 213.1938,352.8906 C213.1938,352.4375 212.8031,352.0469 212.3344,352.0469 C212.1156,352.0469 211.9125,352.125 211.725,352.3125 C211.2719,352.7969 211.2719,352.7969 211.0844,352.8906 C210.6625,353.1563 209.975,353.2813 209.2094,353.2813 C207.1625,353.2813 205.8656,352.1875 205.8656,350.4844 L205.8656,349.3906 C205.8656,347.6094 207.1156,346.2969 208.85,346.2969 C209.4281,346.2969 210.0375,346.4531 210.5063,346.7031 C210.9906,346.9844 211.1625,347.2031 211.2563,347.6094 C211.3188,348.0156 211.35,348.1406 211.4906,348.2656 C211.6313,348.4063 211.8656,348.5156 212.0844,348.5156 C212.35,348.5156 212.6156,348.375 212.7875,348.1563 C212.8969,348 212.9281,347.8125 212.9281,347.3906 L212.9281,345.9688 C212.9281,345.5313 212.9125,345.4063 212.8188,345.25 C212.6625,344.9844 212.3813,344.8438 212.0844,344.8438 C211.7875,344.8438 211.5844,344.9375 211.3656,345.25 L211.1938,345.1719 Z " fill="#000000"/><text fill="#000000" font-family="sans-serif" font-size="12" lengthAdjust="spacing" textLength="67" x="224.15" y="353.6543">Credit card</text><line style="stroke:#A80036;stroke-width:1.5;" x1="189" x2="299" y1="365.5" y2="365.5"/><ellipse cx="199" cy="376.5" rx="3" ry="3" style="stroke:#038048;stroke-width:1.0;fill:none;"/><text fill="#000000" font-family="sans-serif" font-size="11" lengthAdjust="spacing" textLength="45" x="208" y="379.7104">Number</text><ellipse cx="199" cy="389.3047" rx="3" ry="3" style="stroke:#038048;stroke-width:1.0;fill:none;"/><text fill="#000000" font-family="sans-serif" font-size="11" lengthAdjust="spacing" textLength="86" x="208" y="392.5151">Expiration date</text><line style="stroke:#A80036;stroke-width:1.5;" x1="189" x2="299" y1="399.1094" y2="399.1094"/><!--MD5=[764fca796ce7f635542948d8fc39db5e]
class Payment--><rect codeLine="52" fill="#FEFECE" filter="url(#f9adn8lcwz8mz)" height="60.8047" id="Payment" style="stroke:#A80036;stroke-width:1.5;" width="82" x="1015" y="157.5"/><ellipse cx="1030" cy="173.5" fill="#ADD1B2" rx="11" ry="11" style="stroke:#A80036;stroke-width:1.0;"/><path d="M1032.3438,169.1719 C1031.4063,168.7344 1030.8125,168.5938 1029.9375,168.5938 C1027.3125,168.5938 1025.3125,170.6719 1025.3125,173.3906 L1025.3125,174.5156 C1025.3125,177.0938 1027.4219,178.9844 1030.3125,178.9844 C1031.5313,178.9844 1032.6875,178.6875 1033.4375,178.1406 C1034.0156,177.7344 1034.3438,177.2813 1034.3438,176.8906 C1034.3438,176.4375 1033.9531,176.0469 1033.4844,176.0469 C1033.2656,176.0469 1033.0625,176.125 1032.875,176.3125 C1032.4219,176.7969 1032.4219,176.7969 1032.2344,176.8906 C1031.8125,177.1563 1031.125,177.2813 1030.3594,177.2813 C1028.3125,177.2813 1027.0156,176.1875 1027.0156,174.4844 L1027.0156,173.3906 C1027.0156,171.6094 1028.2656,170.2969 1030,170.2969 C1030.5781,170.2969 1031.1875,170.4531 1031.6563,170.7031 C1032.1406,170.9844 1032.3125,171.2031 1032.4063,171.6094 C1032.4688,172.0156 1032.5,172.1406 1032.6406,172.2656 C1032.7813,172.4063 1033.0156,172.5156 1033.2344,172.5156 C1033.5,172.5156 1033.7656,172.375 1033.9375,172.1563 C1034.0469,172 1034.0781,171.8125 1034.0781,171.3906 L1034.0781,169.9688 C1034.0781,169.5313 1034.0625,169.4063 1033.9688,169.25 C1033.8125,168.9844 1033.5313,168.8438 1033.2344,168.8438 C1032.9375,168.8438 1032.7344,168.9375 1032.5156,169.25 L1032.3438,169.1719 Z " fill="#000000"/><text fill="#000000" font-family="sans-serif" font-size="12" lengthAdjust="spacing" textLength="50" x="1044" y="177.6543">Payment</text><line style="stroke:#A80036;stroke-width:1.5;" x1="1016" x2="1096" y1="189.5" y2="189.5"/><ellipse cx="1026" cy="200.5" rx="3" ry="3" style="stroke:#038048;stroke-width:1.0;fill:none;"/><text fill="#000000" font-family="sans-serif" font-size="11" lengthAdjust="spacing" textLength="44" x="1035" y="203.7104">Amount</text><line style="stroke:#A80036;stroke-width:1.5;" x1="1016" x2="1096" y1="210.3047" y2="210.3047"/><!--MD5=[7778c2e921656f957feb253019b47873]
class OrderPayment--><rect codeLine="56" fill="#FEFECE" filter="url(#f9adn8lcwz8mz)" height="48" id="OrderPayment" style="stroke:#A80036;stroke-width:1.5;" width="118" x="867" y="346.5"/><ellipse cx="882" cy="362.5" fill="#ADD1B2" rx="11" ry="11" style="stroke:#A80036;stroke-width:1.0;"/><path d="M884.3438,358.1719 C883.4063,357.7344 882.8125,357.5938 881.9375,357.5938 C879.3125,357.5938 877.3125,359.6719 877.3125,362.3906 L877.3125,363.5156 C877.3125,366.0938 879.4219,367.9844 882.3125,367.9844 C883.5313,367.9844 884.6875,367.6875 885.4375,367.1406 C886.0156,366.7344 886.3438,366.2813 886.3438,365.8906 C886.3438,365.4375 885.9531,365.0469 885.4844,365.0469 C885.2656,365.0469 885.0625,365.125 884.875,365.3125 C884.4219,365.7969 884.4219,365.7969 884.2344,365.8906 C883.8125,366.1563 883.125,366.2813 882.3594,366.2813 C880.3125,366.2813 879.0156,365.1875 879.0156,363.4844 L879.0156,362.3906 C879.0156,360.6094 880.2656,359.2969 882,359.2969 C882.5781,359.2969 883.1875,359.4531 883.6563,359.7031 C884.1406,359.9844 884.3125,360.2031 884.4063,360.6094 C884.4688,361.0156 884.5,361.1406 884.6406,361.2656 C884.7813,361.4063 885.0156,361.5156 885.2344,361.5156 C885.5,361.5156 885.7656,361.375 885.9375,361.1563 C886.0469,361 886.0781,360.8125 886.0781,360.3906 L886.0781,358.9688 C886.0781,358.5313 886.0625,358.4063 885.9688,358.25 C885.8125,357.9844 885.5313,357.8438 885.2344,357.8438 C884.9375,357.8438 884.7344,357.9375 884.5156,358.25 L884.3438,358.1719 Z " fill="#000000"/><text fill="#000000" font-family="sans-serif" font-size="12" lengthAdjust="spacing" textLength="86" x="896" y="366.6543">OrderPayment</text><line style="stroke:#A80036;stroke-width:1.5;" x1="868" x2="984" y1="378.5" y2="378.5"/><line style="stroke:#A80036;stroke-width:1.5;" x1="868" x2="984" y1="386.5" y2="386.5"/><!--MD5=[b594208bf556a3a35ed06f6faadd4505]
class DeliveryTip--><rect codeLine="57" fill="#FEFECE" filter="url(#f9adn8lcwz8mz)" height="48" id="DeliveryTip" style="stroke:#A80036;stroke-width:1.5;" width="100" x="1023" y="346.5"/><ellipse cx="1038" cy="362.5" fill="#ADD1B2" rx="11" ry="11" style="stroke:#A80036;stroke-width:1.0;"/><path d="M1040.3438,358.1719 C1039.4063,357.7344 1038.8125,357.5938 1037.9375,357.5938 C1035.3125,357.5938 1033.3125,359.6719 1033.3125,362.3906 L1033.3125,363.5156 C1033.3125,366.0938 1035.4219,367.9844 1038.3125,367.9844 C1039.5313,367.9844 1040.6875,367.6875 1041.4375,367.1406 C1042.0156,366.7344 1042.3438,366.2813 1042.3438,365.8906 C1042.3438,365.4375 1041.9531,365.0469 1041.4844,365.0469 C1041.2656,365.0469 1041.0625,365.125 1040.875,365.3125 C1040.4219,365.7969 1040.4219,365.7969 1040.2344,365.8906 C1039.8125,366.1563 1039.125,366.2813 1038.3594,366.2813 C1036.3125,366.2813 1035.0156,365.1875 1035.0156,363.4844 L1035.0156,362.3906 C1035.0156,360.6094 1036.2656,359.2969 1038,359.2969 C1038.5781,359.2969 1039.1875,359.4531 1039.6563,359.7031 C1040.1406,359.9844 1040.3125,360.2031 1040.4063,360.6094 C1040.4688,361.0156 1040.5,361.1406 1040.6406,361.2656 C1040.7813,361.4063 1041.0156,361.5156 1041.2344,361.5156 C1041.5,361.5156 1041.7656,361.375 1041.9375,361.1563 C1042.0469,361 1042.0781,360.8125 1042.0781,360.3906 L1042.0781,358.9688 C1042.0781,358.5313 1042.0625,358.4063 1041.9688,358.25 C1041.8125,357.9844 1041.5313,357.8438 1041.2344,357.8438 C1040.9375,357.8438 1040.7344,357.9375 1040.5156,358.25 L1040.3438,358.1719 Z " fill="#000000"/><text fill="#000000" font-family="sans-serif" font-size="12" lengthAdjust="spacing" textLength="68" x="1052" y="366.6543">DeliveryTip</text><line style="stroke:#A80036;stroke-width:1.5;" x1="1024" x2="1122" y1="378.5" y2="378.5"/><line style="stroke:#A80036;stroke-width:1.5;" x1="1024" x2="1122" y1="386.5" y2="386.5"/><!--MD5=[894442645724153f40a9f7a43026dbfc]
class Invoice--><rect codeLine="59" fill="#FEFECE" filter="url(#f9adn8lcwz8mz)" height="73.6094" id="Invoice" style="stroke:#A80036;stroke-width:1.5;" width="75" x="490.5" y="333.5"/><ellipse cx="505.5" cy="349.5" fill="#ADD1B2" rx="11" ry="11" style="stroke:#A80036;stroke-width:1.0;"/><path d="M507.8438,345.1719 C506.9063,344.7344 506.3125,344.5938 505.4375,344.5938 C502.8125,344.5938 500.8125,346.6719 500.8125,349.3906 L500.8125,350.5156 C500.8125,353.0938 502.9219,354.9844 505.8125,354.9844 C507.0313,354.9844 508.1875,354.6875 508.9375,354.1406 C509.5156,353.7344 509.8438,353.2813 509.8438,352.8906 C509.8438,352.4375 509.4531,352.0469 508.9844,352.0469 C508.7656,352.0469 508.5625,352.125 508.375,352.3125 C507.9219,352.7969 507.9219,352.7969 507.7344,352.8906 C507.3125,353.1563 506.625,353.2813 505.8594,353.2813 C503.8125,353.2813 502.5156,352.1875 502.5156,350.4844 L502.5156,349.3906 C502.5156,347.6094 503.7656,346.2969 505.5,346.2969 C506.0781,346.2969 506.6875,346.4531 507.1563,346.7031 C507.6406,346.9844 507.8125,347.2031 507.9063,347.6094 C507.9688,348.0156 508,348.1406 508.1406,348.2656 C508.2813,348.4063 508.5156,348.5156 508.7344,348.5156 C509,348.5156 509.2656,348.375 509.4375,348.1563 C509.5469,348 509.5781,347.8125 509.5781,347.3906 L509.5781,345.9688 C509.5781,345.5313 509.5625,345.4063 509.4688,345.25 C509.3125,344.9844 509.0313,344.8438 508.7344,344.8438 C508.4375,344.8438 508.2344,344.9375 508.0156,345.25 L507.8438,345.1719 Z " fill="#000000"/><text fill="#000000" font-family="sans-serif" font-size="12" lengthAdjust="spacing" textLength="43" x="519.5" y="353.6543">Invoice</text><line style="stroke:#A80036;stroke-width:1.5;" x1="491.5" x2="564.5" y1="365.5" y2="365.5"/><ellipse cx="501.5" cy="376.5" rx="3" ry="3" style="stroke:#038048;stroke-width:1.0;fill:none;"/><text fill="#000000" font-family="sans-serif" font-size="11" lengthAdjust="spacing" textLength="12" x="510.5" y="379.7104">ID</text><ellipse cx="501.5" cy="389.3047" rx="3" ry="3" style="stroke:#038048;stroke-width:1.0;fill:none;"/><text fill="#000000" font-family="sans-serif" font-size="11" lengthAdjust="spacing" textLength="28" x="510.5" y="392.5151">Date</text><line style="stroke:#A80036;stroke-width:1.5;" x1="491.5" x2="564.5" y1="399.1094" y2="399.1094"/><!--MD5=[c10c36ce2c02dedc3d02a76c5154070d]
class Quantity--><rect codeLine="64" fill="#FEFECE" filter="url(#f9adn8lcwz8mz)" height="60.8047" id="Quantity" style="stroke:#A80036;stroke-width:1.5;" width="81" x="374.5" y="340"/><ellipse cx="389.5" cy="356" fill="#ADD1B2" rx="11" ry="11" style="stroke:#A80036;stroke-width:1.0;"/><path d="M391.8438,351.6719 C390.9063,351.2344 390.3125,351.0938 389.4375,351.0938 C386.8125,351.0938 384.8125,353.1719 384.8125,355.8906 L384.8125,357.0156 C384.8125,359.5938 386.9219,361.4844 389.8125,361.4844 C391.0313,361.4844 392.1875,361.1875 392.9375,360.6406 C393.5156,360.2344 393.8438,359.7813 393.8438,359.3906 C393.8438,358.9375 393.4531,358.5469 392.9844,358.5469 C392.7656,358.5469 392.5625,358.625 392.375,358.8125 C391.9219,359.2969 391.9219,359.2969 391.7344,359.3906 C391.3125,359.6563 390.625,359.7813 389.8594,359.7813 C387.8125,359.7813 386.5156,358.6875 386.5156,356.9844 L386.5156,355.8906 C386.5156,354.1094 387.7656,352.7969 389.5,352.7969 C390.0781,352.7969 390.6875,352.9531 391.1563,353.2031 C391.6406,353.4844 391.8125,353.7031 391.9063,354.1094 C391.9688,354.5156 392,354.6406 392.1406,354.7656 C392.2813,354.9063 392.5156,355.0156 392.7344,355.0156 C393,355.0156 393.2656,354.875 393.4375,354.6563 C393.5469,354.5 393.5781,354.3125 393.5781,353.8906 L393.5781,352.4688 C393.5781,352.0313 393.5625,351.9063 393.4688,351.75 C393.3125,351.4844 393.0313,351.3438 392.7344,351.3438 C392.4375,351.3438 392.2344,351.4375 392.0156,351.75 L391.8438,351.6719 Z " fill="#000000"/><text fill="#000000" font-family="sans-serif" font-size="12" lengthAdjust="spacing" textLength="49" x="403.5" y="360.1543">Quantity</text><line style="stroke:#A80036;stroke-width:1.5;" x1="375.5" x2="454.5" y1="372" y2="372"/><ellipse cx="385.5" cy="383" rx="3" ry="3" style="stroke:#038048;stroke-width:1.0;fill:none;"/><text fill="#000000" font-family="sans-serif" font-size="11" lengthAdjust="spacing" textLength="48" x="394.5" y="386.2104">Quantity</text><line style="stroke:#A80036;stroke-width:1.5;" x1="375.5" x2="454.5" y1="392.8047" y2="392.8047"/><ellipse cx="337" cy="370.5" fill="#000000" rx="2" ry="2" style="stroke:none;stroke-width:1.0;"/><!--MD5=[5c6092282b22387140650975178dfea0]
reverse link Customer to DeliveryEmployee--><path codeLine="68" d="M669.087,432.365 C679.802,460.615 692.055,492.918 700.717,515.7552 " fill="none" id="Customer-backto-DeliveryEmployee" style="stroke:#A80036;stroke-width:1.0;"/><polygon fill="none" points="662.525,434.803,661.977,413.621,675.615,429.838,662.525,434.803" style="stroke:#A80036;stroke-width:1.0;"/><!--MD5=[d037c01276c632f88a1b73a6978601f7]
reverse link Payment to OrderPayment--><path codeLine="69" d="M1040.93,238.077 C1034.24,255.672 1025.28,275.079 1014,291 C998.848,312.381 976.848,332.006 958.636,346.286 " fill="none" id="Payment-backto-OrderPayment" style="stroke:#A80036;stroke-width:1.0;"/><polygon fill="none" points="1034.42,235.481,1047.64,218.919,1047.64,240.109,1034.42,235.481" style="stroke:#A80036;stroke-width:1.0;"/><!--MD5=[af225e9ba2876d09aadd1d2bb64627c0]
reverse link Payment to DeliveryTip--><path codeLine="70" d="M1060.71,239.059 C1064.02,274.103 1068.27,319.307 1070.81,346.258 " fill="none" id="Payment-backto-DeliveryTip" style="stroke:#A80036;stroke-width:1.0;"/><polygon fill="none" points="1053.71,239.374,1058.81,218.806,1067.65,238.061,1053.71,239.374" style="stroke:#A80036;stroke-width:1.0;"/><!--MD5=[7421aec2042b28a9ad607bb1ff8267d9]
link FOOD to Restaurant--><path codeLine="72" d="M216.752,55.198 C197.371,109.705 148.594,246.893 122.351,320.701 " fill="none" id="FOOD-Restaurant" style="stroke:#A80036;stroke-width:1.0;"/><polygon fill="#000000" points="192.325,192.7775,198.1242,185.2396,192.586,183.2705,192.325,192.7775" style="stroke:#000000;stroke-width:1.0;"/><text fill="#000000" font-family="sans-serif" font-size="13" lengthAdjust="spacing" textLength="129" x="203" y="192.5669">has agreement with</text><text fill="#000000" font-family="sans-serif" font-size="13" lengthAdjust="spacing" textLength="7" x="117.2122" y="310.0626">*</text><!--MD5=[dfc01849b567a73c81edfa88f8d3ab1f]
link FOOD to Order--><path codeLine="73" d="M259.169,49.479 C307.148,74.023 395.579,119.26 457.888,151.134 " fill="none" id="FOOD-Order" style="stroke:#A80036;stroke-width:1.0;"/><polygon fill="#000000" points="368.4514,95.8435,361.7372,89.1077,359.0603,94.3406,368.4514,95.8435" style="stroke:#000000;stroke-width:1.0;"/><text fill="#000000" font-family="sans-serif" font-size="13" lengthAdjust="spacing" textLength="60" x="373" y="98.0669">manages</text><text fill="#000000" font-family="sans-serif" font-size="13" lengthAdjust="spacing" textLength="7" x="442.8367" y="143.3543">*</text><!--MD5=[65622aaf8fcfd7b10df86db327daabc8]
link Order to Customer--><path codeLine="74" d="M584.575,244.265 C592.699,253.73 600.495,263.812 607,274 C617.506,290.453 626.135,310.208 632.582,327.471 " fill="none" id="Order-Customer" style="stroke:#A80036;stroke-width:1.0;"/><polygon fill="#000000" points="618.5012,278.2356,620.4759,287.5389,625.5671,284.6014,618.5012,278.2356" style="stroke:#000000;stroke-width:1.0;"/><text fill="#000000" font-family="sans-serif" font-size="13" lengthAdjust="spacing" textLength="41" x="630" y="287.0669">orders</text><text fill="#000000" font-family="sans-serif" font-size="13" lengthAdjust="spacing" textLength="7" x="584.0435" y="264.1099">*</text><!--MD5=[1f6ceb8c5724450070c08b4d9f72942f]
link Order to Restaurant--><path codeLine="75" d="M457.977,198.269 C391.534,209.216 290.457,231.574 212,274 C189.55,286.14 167.925,303.868 150.062,320.764 " fill="none" id="Order-Restaurant" style="stroke:#A80036;stroke-width:1.0;"/><polygon fill="#000000" points="221.6459,280.7182,212.1551,281.3309,214.3278,286.7924,221.6459,280.7182" style="stroke:#000000;stroke-width:1.0;"/><text fill="#000000" font-family="sans-serif" font-size="13" lengthAdjust="spacing" textLength="54" x="226" y="287.0669">receives</text><text fill="#000000" font-family="sans-serif" font-size="13" lengthAdjust="spacing" textLength="7" x="442.9354" y="195.6447">*</text><!--MD5=[9d267913275094cee8b213adaba16fc1]
link Customer to Address--><path codeLine="76" d="M605.816,413.621 C581.828,438.765 551.269,470.797 526.275,496.9952 " fill="none" id="Customer-Address" style="stroke:#A80036;stroke-width:1.0;"/><!--MD5=[f64dea9b1ef67fb21aecd23208585e78]
link Restaurant to Address--><path codeLine="77" d="M152.748,410.049 C158.384,413.708 164.199,417.119 170,420 C213.086,441.397 228.934,433.167 274,450 C328.284,470.276 388.15,498.7553 429.289,519.3313 " fill="none" id="Restaurant-Address" style="stroke:#A80036;stroke-width:1.0;"/><!--MD5=[9244a7f6d25972885672cfffad98fa82]
link Restaurant to Dish--><path codeLine="78" d="M137.399,420.055 C148.804,435.727 162.231,452.725 176,467 C191.891,483.474 211.232,499.6405 228.521,512.9798 " fill="none" id="Restaurant-Dish" style="stroke:#A80036;stroke-width:1.0;"/><polygon fill="#000000" points="184.5007,462.1364,180.2662,453.6205,176.0695,457.7359,184.5007,462.1364" style="stroke:#000000;stroke-width:1.0;"/><text fill="#000000" font-family="sans-serif" font-size="13" lengthAdjust="spacing" textLength="79" x="190" y="463.0669">has in menu</text><text fill="#000000" font-family="sans-serif" font-size="13" lengthAdjust="spacing" textLength="7" x="214.0211" y="503.7439">*</text><!--MD5=[bb42103eb600855b1775e02208d790ef]
link Restaurant to DiscountPolicy--><path codeLine="79" d="M76.6191,420.027 C72.2248,429.665 68.3646,439.926 66,450 C61.982,467.118 61.8058,486.434 62.9787,503.1918 " fill="none" id="Restaurant-DiscountPolicy" style="stroke:#A80036;stroke-width:1.0;"/><polygon fill="#000000" points="70.1907,463.5005,74.5549,455.0503,68.7545,454.099,70.1907,463.5005" style="stroke:#000000;stroke-width:1.0;"/><text fill="#000000" font-family="sans-serif" font-size="13" lengthAdjust="spacing" textLength="55" x="80" y="463.0669">provides</text><text fill="#000000" font-family="sans-serif" font-size="13" lengthAdjust="spacing" textLength="7" x="54.5208" y="492.4574">*</text><!--MD5=[fea22199879c74e57aa7e69ef8f55315]
link Order to apoint38179--><path d="M457.624,230.898 C423.598,253.995 384.317,285.235 357,321 C344.616,337.214 338.592,362.186 337.279,368.176 " fill="none" id="Order-apoint38179" style="stroke:#A80036;stroke-width:1.0;"/><!--MD5=[933efae4ba892379107284668d14c64c]
link apoint38179 to Dish--><path d="M336.598,372.611 C333.035,382.452 306.6,455.463 289.24,503.4072 " fill="none" id="apoint38179-Dish" style="stroke:#A80036;stroke-width:1.0;"/><text fill="#000000" font-family="sans-serif" font-size="13" lengthAdjust="spacing" textLength="23" x="266.8361" y="492.3882">1..*</text><!--MD5=[c43e915883ae88a84b01c5c6a1acbe61]
link apoint38179 to Quantity--><path d="M339.133,370.5 C350.888,370.5 362.644,370.5 374.399,370.5 " fill="none" id="apoint38179-Quantity" style="stroke:#A80036;stroke-width:1.0;stroke-dasharray:7.0,7.0;"/><!--MD5=[9e541693026e1af25d43e03808f1e411]
link Order to CreditCard--><path codeLine="82" d="M457.917,203.212 C410.476,215.611 348.567,237.496 304,274 C284.762,289.757 269.845,313.384 259.697,333.194 " fill="none" id="Order-CreditCard" style="stroke:#A80036;stroke-width:1.0;"/><polygon fill="#000000" points="304.8188,285.3082,313.9943,282.8059,310.7711,277.8906,304.8188,285.3082" style="stroke:#000000;stroke-width:1.0;"/><text fill="#000000" font-family="sans-serif" font-size="13" lengthAdjust="spacing" textLength="58" x="318" y="287.0669">paid with</text><!--MD5=[af1ae96c54739a0f8f1fe724391a1aff]
link Order to OrderPayment--><path codeLine="83" d="M598.055,207.431 C649.693,222.247 720.925,245.297 780,274 C822.362,294.583 867.129,325.397 895.75,346.418 " fill="none" id="Order-OrderPayment" style="stroke:#A80036;stroke-width:1.0;"/><polygon fill="#000000" points="810.4694,280.4512,817.422,286.9406,819.9086,281.6147,810.4694,280.4512" style="stroke:#000000;stroke-width:1.0;"/><text fill="#000000" font-family="sans-serif" font-size="13" lengthAdjust="spacing" textLength="62" x="824" y="287.0669">related to</text><!--MD5=[8bdf6fe3c64099e661bf4f5055240b0c]
link Order to DeliveryTip--><path codeLine="84" d="M598.382,197.954 C694.743,212.5 870.837,247.387 1003,321 C1016.43,328.482 1030.5,337.889 1042.48,346.423 " fill="none" id="Order-DeliveryTip" style="stroke:#A80036;stroke-width:1.0;"/><polygon fill="#000000" points="931.258,280.9811,938.9045,286.6363,940.7682,281.0617,931.258,280.9811" style="stroke:#000000;stroke-width:1.0;"/><text fill="#000000" font-family="sans-serif" font-size="13" lengthAdjust="spacing" textLength="62" x="945" y="287.0669">related to</text><text fill="#000000" font-family="sans-serif" font-size="13" lengthAdjust="spacing" textLength="24" x="1007.5843" y="335.4153">0..1</text><!--MD5=[e8689f9ac8b030dc23cc8d4cad888e90]
link Order to Invoice--><path codeLine="85" d="M526.269,244.051 C525.968,259.26 525.806,275.769 526,291 C526.175,304.768 526.524,319.891 526.881,333.157 " fill="none" id="Order-Invoice" style="stroke:#A80036;stroke-width:1.0;"/><polygon fill="#000000" points="530.9657,277.5665,528.0889,286.6316,533.9666,286.5912,530.9657,277.5665" style="stroke:#000000;stroke-width:1.0;"/><text fill="#000000" font-family="sans-serif" font-size="13" lengthAdjust="spacing" textLength="62" x="540" y="287.0669">related to</text><!--MD5=[142a985ab00a42be592a2525dda1649f]
link Order to DeliveryEmployee--><path codeLine="86" d="M598.135,214.499 C642.186,235.229 693.347,269.569 708,321 C727.226,388.482 721.393,472.057 716.235,515.7319 " fill="none" id="Order-DeliveryEmployee" style="stroke:#A80036;stroke-width:1.0;"/><polygon fill="#000000" points="725.175,365.9114,725.7403,375.4051,731.2126,373.2597,725.175,365.9114" style="stroke:#000000;stroke-width:1.0;"/><text fill="#000000" font-family="sans-serif" font-size="13" lengthAdjust="spacing" textLength="50" x="736" y="375.0669">delivers</text><!--MD5=[9129e12cf23e6ace2c9d31d1ad645461]
@startuml
class FOOD

class Restaurant {
	+ID
	+Name
	+Open hour
	+Close hour 
}

class Customer {
	+SSN
	+Name
	+Surname
}

class DeliveryEmployee {
	+ID
}

class Dish {
	+ID
	+Description
	+Price
}

class "Discount policy" as DiscountPolicy {
	+ID
	+Type
	+Description
}

class Order {
	+ID
	+Start timestamp
	+Delivery timestamp
	+Status
	+Rate
}

class Address {
	+City
	+Type
	+Name
	+Civic number
}

class "Credit card" as CreditCard {
	+Number
	+Expiration date
}

class Payment {
	+Amount
}

class OrderPayment
class DeliveryTip

class Invoice {
	+ID
	+Date
}

class Quantity {
	+Quantity
}

Customer <|- - DeliveryEmployee
Payment <|- - OrderPayment
Payment <|- - DeliveryTip

FOOD - - "*" Restaurant : has agreement with >
FOOD - - "*" Order : manages >
Order "*" - - Customer : orders <
Order "*" - - Restaurant : receives <
Customer - - Address
Restaurant - - Address
Restaurant - - "*" Dish : has in menu >
Restaurant - - "*" DiscountPolicy : provides >
Order - - "1..*" Dish
(Order, Dish) .. Quantity
Order - - CreditCard : paid with >
Order - - OrderPayment : related to <
Order - - "0..1" DeliveryTip : related to <
Order - - Invoice : related to <
Order - - DeliveryEmployee : delivers <
@enduml

PlantUML version 1.2021.11beta5(Unknown compile time)
(GPL source distribution)
Java Runtime: Java(TM) SE Runtime Environment
JVM: Java HotSpot(TM) 64-Bit Server VM
Default Encoding: UTF-8
Language: en
Country: US
--></g></svg>