<?xml version="1.0" encoding="UTF-8" standalone="no"?><svg xmlns="http://www.w3.org/2000/svg" xmlns:xlink="http://www.w3.org/1999/xlink" contentScriptType="application/ecmascript" contentStyleType="text/css" height="422px" preserveAspectRatio="none" style="width:734px;height:422px;background:#FFFFFF;" version="1.1" viewBox="0 0 734 422" width="734px" zoomAndPan="magnify"><defs><filter height="300%" id="ft4vmz3exgth1" width="300%" x="-1" y="-1"><feGaussianBlur result="blurOut" stdDeviation="2.0"/><feColorMatrix in="blurOut" result="blurOut2" type="matrix" values="0 0 0 0 0 0 0 0 0 0 0 0 0 0 0 0 0 0 .4 0"/><feOffset dx="4.0" dy="4.0" in="blurOut2" result="blurOut3"/><feBlend in="SourceGraphic" in2="blurOut3" mode="normal"/></filter></defs><g><!--MD5=[02b0da7e54b74cbea8f6462e138178e8]
entity FS--><polygon fill="#FEFECE" filter="url(#ft4vmz3exgth1)" points="344.5,133,354.5,123,485.5,123,485.5,159.2969,475.5,169.2969,344.5,169.2969,344.5,133" style="stroke:#000000;stroke-width:1.5;"/><line style="stroke:#000000;stroke-width:1.5;" x1="475.5" x2="485.5" y1="133" y2="123"/><line style="stroke:#000000;stroke-width:1.5;" x1="344.5" x2="475.5" y1="133" y2="133"/><line style="stroke:#000000;stroke-width:1.5;" x1="475.5" x2="475.5" y1="133" y2="169.2969"/><text fill="#000000" font-family="sans-serif" font-size="14" lengthAdjust="spacing" textLength="101" x="359.5" y="155.9951">FOOD's server</text><!--MD5=[509ebe1ecff913939cb3faf549bda6f9]
entity DES--><polygon fill="#FEFECE" filter="url(#ft4vmz3exgth1)" points="16,256,26,246,294,246,294,282.2969,284,292.2969,16,292.2969,16,256" style="stroke:#000000;stroke-width:1.5;"/><line style="stroke:#000000;stroke-width:1.5;" x1="284" x2="294" y1="256" y2="246"/><line style="stroke:#000000;stroke-width:1.5;" x1="16" x2="284" y1="256" y2="256"/><line style="stroke:#000000;stroke-width:1.5;" x1="284" x2="284" y1="256" y2="292.2969"/><text fill="#000000" font-family="sans-serif" font-size="14" lengthAdjust="spacing" textLength="238" x="31" y="278.9951">Delivery employee's smartphone</text><!--MD5=[8125e4c885f855e152a14447c8d17cc5]
entity CD--><polygon fill="#FEFECE" filter="url(#ft4vmz3exgth1)" points="329,256,339,246,501,246,501,282.2969,491,292.2969,329,292.2969,329,256" style="stroke:#000000;stroke-width:1.5;"/><line style="stroke:#000000;stroke-width:1.5;" x1="491" x2="501" y1="256" y2="246"/><line style="stroke:#000000;stroke-width:1.5;" x1="329" x2="491" y1="256" y2="256"/><line style="stroke:#000000;stroke-width:1.5;" x1="491" x2="491" y1="256" y2="292.2969"/><text fill="#000000" font-family="sans-serif" font-size="14" lengthAdjust="spacing" textLength="132" x="344" y="278.9951">Customer's device</text><!--MD5=[3173250e66940ce3ef99758968f3fcf8]
entity RD--><polygon fill="#FEFECE" filter="url(#ft4vmz3exgth1)" points="536.5,256,546.5,246,717.5,246,717.5,282.2969,707.5,292.2969,536.5,292.2969,536.5,256" style="stroke:#000000;stroke-width:1.5;"/><line style="stroke:#000000;stroke-width:1.5;" x1="707.5" x2="717.5" y1="256" y2="246"/><line style="stroke:#000000;stroke-width:1.5;" x1="536.5" x2="707.5" y1="256" y2="256"/><line style="stroke:#000000;stroke-width:1.5;" x1="707.5" x2="707.5" y1="256" y2="292.2969"/><text fill="#000000" font-family="sans-serif" font-size="14" lengthAdjust="spacing" textLength="141" x="551.5" y="278.9951">Restaurant's device</text><!--MD5=[2fdc156cd28cbae94ee2b2917ab1fb61]
entity FDMA--><rect fill="#FEFECE" filter="url(#ft4vmz3exgth1)" height="39.2969" style="stroke:#000000;stroke-width:1.5;" width="258" x="286" y="7"/><polygon fill="#FEFECE" points="527,12,527,26,539,26,539,18,533,12,527,12" style="stroke:#000000;stroke-width:1.5;"/><line style="stroke:#000000;stroke-width:1.5;" x1="533" x2="533" y1="12" y2="18"/><line style="stroke:#000000;stroke-width:1.5;" x1="539" x2="533" y1="18" y2="18"/><text fill="#000000" font-family="sans-serif" font-size="14" lengthAdjust="spacing" textLength="228" x="296" y="32.9951">Food delivery management app</text><!--MD5=[c1f90ce01753c25c2571aa3dcf23fa81]
entity FDA--><rect fill="#FEFECE" filter="url(#ft4vmz3exgth1)" height="39.2969" style="stroke:#000000;stroke-width:1.5;" width="158" x="76" y="369"/><polygon fill="#FEFECE" points="217,374,217,388,229,388,229,380,223,374,217,374" style="stroke:#000000;stroke-width:1.5;"/><line style="stroke:#000000;stroke-width:1.5;" x1="223" x2="223" y1="374" y2="380"/><line style="stroke:#000000;stroke-width:1.5;" x1="229" x2="223" y1="380" y2="380"/><text fill="#000000" font-family="sans-serif" font-size="14" lengthAdjust="spacing" textLength="128" x="86" y="394.9951">Food delivery app</text><!--MD5=[197f37fc296f06c5545716d5891b367b]
entity B1--><rect fill="#FEFECE" filter="url(#ft4vmz3exgth1)" height="39.2969" style="stroke:#000000;stroke-width:1.5;" width="88" x="371" y="369"/><polygon fill="#FEFECE" points="442,374,442,388,454,388,454,380,448,374,442,374" style="stroke:#000000;stroke-width:1.5;"/><line style="stroke:#000000;stroke-width:1.5;" x1="448" x2="448" y1="374" y2="380"/><line style="stroke:#000000;stroke-width:1.5;" x1="454" x2="448" y1="380" y2="380"/><text fill="#000000" font-family="sans-serif" font-size="14" lengthAdjust="spacing" textLength="58" x="381" y="394.9951">Browser</text><!--MD5=[2495d8b3bb3d36e408f3562b16b52636]
entity B2--><rect fill="#FEFECE" filter="url(#ft4vmz3exgth1)" height="39.2969" style="stroke:#000000;stroke-width:1.5;" width="88" x="583" y="369"/><polygon fill="#FEFECE" points="654,374,654,388,666,388,666,380,660,374,654,374" style="stroke:#000000;stroke-width:1.5;"/><line style="stroke:#000000;stroke-width:1.5;" x1="660" x2="660" y1="374" y2="380"/><line style="stroke:#000000;stroke-width:1.5;" x1="666" x2="660" y1="380" y2="380"/><text fill="#000000" font-family="sans-serif" font-size="14" lengthAdjust="spacing" textLength="58" x="593" y="394.9951">Browser</text><!--MD5=[3bb4b8a511a5c68c2922ff1675facf94]
link FS to DES--><path d="M367.614,169.053 C320.744,190.865 249.409,224.064 202.499,245.895 " fill="none" id="FS-DES" style="stroke:#A80036;stroke-width:1.0;"/><text fill="#000000" font-family="sans-serif" font-size="13" lengthAdjust="spacing" textLength="50" x="302" y="212.0669">Internet</text><!--MD5=[36a5897d8d7f9c11192e5b78e1910474]
link FS to CD--><path d="M415,169.193 C415,191.026 415,224.164 415,245.947 " fill="none" id="FS-CD" style="stroke:#A80036;stroke-width:1.0;"/><text fill="#000000" font-family="sans-serif" font-size="13" lengthAdjust="spacing" textLength="50" x="416" y="212.0669">Internet</text><!--MD5=[48973d2f2d6b543ba77d0e7268d60cbc]
link FS to RD--><path d="M453.884,169.193 C492.136,191.026 550.196,224.164 588.362,245.947 " fill="none" id="FS-RD" style="stroke:#A80036;stroke-width:1.0;"/><text fill="#000000" font-family="sans-serif" font-size="13" lengthAdjust="spacing" textLength="50" x="535" y="212.0669">Internet</text><!--MD5=[0e91e01830039195cdbb234f692dc47d]
link FDMA to FS--><path d="M415,46.118 C415,65.409 415,95.756 415,117.746 " fill="none" id="FDMA-to-FS" style="stroke:#A80036;stroke-width:1.0;stroke-dasharray:7.0,7.0;"/><polygon fill="#A80036" points="415,122.864,419,113.864,415,117.864,411,113.864,415,122.864" style="stroke:#A80036;stroke-width:1.0;"/><text fill="#000000" font-family="sans-serif" font-size="13" lengthAdjust="spacing" textLength="59" x="416" y="89.0669">«deploy»</text><!--MD5=[4d87b63544ac2de1dfa3a2351460dbae]
link DES to FDA--><path d="M155,292.101 C155,312.5699 155,342.9214 155,363.8664 " fill="none" id="DES-to-FDA" style="stroke:#A80036;stroke-width:1.0;stroke-dasharray:7.0,7.0;"/><polygon fill="#A80036" points="155,368.977,159,359.977,155,363.977,151,359.977,155,368.977" style="stroke:#A80036;stroke-width:1.0;"/><text fill="#000000" font-family="sans-serif" font-size="13" lengthAdjust="spacing" textLength="59" x="156" y="335.0669">«deploy»</text><!--MD5=[4d568dacd575a6d1c8b7baf9be2576a9]
link CD to B1--><path d="M415,292.101 C415,312.5699 415,342.9214 415,363.8664 " fill="none" id="CD-to-B1" style="stroke:#A80036;stroke-width:1.0;stroke-dasharray:7.0,7.0;"/><polygon fill="#A80036" points="415,368.977,419,359.977,415,363.977,411,359.977,415,368.977" style="stroke:#A80036;stroke-width:1.0;"/><text fill="#000000" font-family="sans-serif" font-size="13" lengthAdjust="spacing" textLength="59" x="416" y="335.0669">«deploy»</text><!--MD5=[150a133f84ae58b55ddda236f7cbddee]
link RD to B2--><path d="M627,292.101 C627,312.5699 627,342.9214 627,363.8664 " fill="none" id="RD-to-B2" style="stroke:#A80036;stroke-width:1.0;stroke-dasharray:7.0,7.0;"/><polygon fill="#A80036" points="627,368.977,631,359.977,627,363.977,623,359.977,627,368.977" style="stroke:#A80036;stroke-width:1.0;"/><text fill="#000000" font-family="sans-serif" font-size="13" lengthAdjust="spacing" textLength="59" x="628" y="335.0669">«deploy»</text><!--MD5=[2c7f2440e394cda59352e719b651959e]
@startuml
node "FOOD's server" as FS
node "Delivery employee's smartphone" as DES
node "Customer's device" as CD
node "Restaurant's device" as RD

artifact "Food delivery management app" as FDMA
artifact "Food delivery app" as FDA
artifact "Browser" as B1
artifact "Browser" as B2

FS - - DES : Internet
FS - - CD : Internet
FS - - RD : Internet

FDMA ..> FS : <<deploy>>
DES ..> FDA : <<deploy>>
CD ..> B1 : <<deploy>>
RD ..> B2 : <<deploy>>
@enduml

PlantUML version 1.2021.11beta5(Unknown compile time)
(GPL source distribution)
Java Runtime: Java(TM) SE Runtime Environment
JVM: Java HotSpot(TM) 64-Bit Server VM
Default Encoding: UTF-8
Language: en
Country: US
--></g></svg>